<svg width="194" height="177" viewBox="0 0 194 177" fill="none" xmlns="http://www.w3.org/2000/svg">
<g filter="url(#filter0_d_7121_42654)">
<rect x="6.6582" y="7" width="180.684" height="163.55" rx="10.9033" fill="white"/>
<path d="M111.279 41.5118V42.8254C111.277 45.9044 110.28 48.9003 108.436 51.3664C106.593 53.8325 104.001 55.6365 101.049 56.5095C98.0961 57.3825 94.9404 57.2777 92.0522 56.2106C89.164 55.1436 86.6982 53.1716 85.0223 50.5886C83.3465 48.0056 82.5505 44.9501 82.7531 41.8778C82.9557 38.8055 84.146 35.881 86.1465 33.5404C88.147 31.1999 90.8504 29.5687 93.8537 28.8901C96.857 28.2116 99.9992 28.522 102.812 29.7752" stroke="#0a5888" stroke-width="1.55762" stroke-linecap="round" stroke-linejoin="round"/>
<path d="M111.278 31.4043L97.0003 45.6968L92.7168 41.4133" stroke="#0a5888" stroke-width="1.55762" stroke-linecap="round" stroke-linejoin="round"/>
<path d="M23.8896 76.561H25.0579V82.5541C25.0579 83.2194 24.9098 83.7731 24.6137 84.2152C24.3176 84.6573 23.9241 84.99 23.4333 85.2131C22.9465 85.4321 22.4172 85.5416 21.8453 85.5416C21.2449 85.5416 20.7014 85.4321 20.2146 85.2131C19.7319 84.99 19.3486 84.6573 19.0647 84.2152C18.7848 83.7731 18.6448 83.2194 18.6448 82.5541V76.561H19.807V82.5541C19.807 83.0166 19.8921 83.3979 20.0625 83.698C20.2329 83.9982 20.4702 84.2213 20.7744 84.3673C21.0827 84.5133 21.4396 84.5864 21.8453 84.5864C22.2549 84.5864 22.6119 84.5133 22.9161 84.3673C23.2244 84.2213 23.4637 83.9982 23.6341 83.698C23.8045 83.3979 23.8896 83.0166 23.8896 82.5541V76.561ZM27.8506 80.1447V85.4199H26.7189V78.8365H27.7898L27.8506 80.1447ZM27.6194 81.8788L27.0961 81.8605C27.1002 81.4103 27.159 80.9945 27.2726 80.6132C27.3862 80.2279 27.5545 79.8932 27.7776 79.6093C28.0007 79.3253 28.2786 79.1063 28.6112 78.9521C28.9438 78.7939 29.3291 78.7148 29.7672 78.7148C30.0755 78.7148 30.3594 78.7595 30.619 78.8487C30.8786 78.9339 31.1038 79.0698 31.2944 79.2564C31.4851 79.443 31.6331 79.6823 31.7386 79.9743C31.844 80.2664 31.8968 80.6193 31.8968 81.033V85.4199H30.7712V81.0878C30.7712 80.743 30.7123 80.4672 30.5947 80.2603C30.4811 80.0534 30.3189 79.9033 30.108 79.8101C29.897 79.7127 29.6496 79.664 29.3656 79.664C29.033 79.664 28.7552 79.7228 28.5321 79.8405C28.309 79.9581 28.1305 80.1204 27.9966 80.3272C27.8628 80.5341 27.7654 80.7714 27.7046 81.0391C27.6478 81.3028 27.6194 81.5827 27.6194 81.8788ZM31.8846 81.2582L31.1301 81.4894C31.1342 81.1284 31.193 80.7815 31.3066 80.4489C31.4242 80.1163 31.5926 79.8202 31.8116 79.5606C32.0347 79.301 32.3085 79.0961 32.633 78.9461C32.9575 78.7919 33.3287 78.7148 33.7465 78.7148C34.0994 78.7148 34.4117 78.7615 34.6835 78.8548C34.9593 78.9481 35.1905 79.0921 35.3771 79.2868C35.5677 79.4774 35.7117 79.7228 35.8091 80.023C35.9064 80.3232 35.9551 80.6801 35.9551 81.0939V85.4199H34.8234V81.0817C34.8234 80.7126 34.7646 80.4266 34.647 80.2238C34.5334 80.0169 34.3711 79.8729 34.1602 79.7918C33.9533 79.7066 33.7059 79.664 33.4179 79.664C33.1705 79.664 32.9514 79.7066 32.7608 79.7918C32.5701 79.877 32.4099 79.9946 32.2801 80.1447C32.1503 80.2907 32.0509 80.4591 31.982 80.6497C31.9171 80.8404 31.8846 81.0432 31.8846 81.2582ZM41.5406 84.2943V80.9053C41.5406 80.6457 41.4879 80.4205 41.3825 80.2299C41.281 80.0352 41.1269 79.8851 40.92 79.7796C40.7132 79.6742 40.4576 79.6214 40.1534 79.6214C39.8695 79.6214 39.62 79.6701 39.405 79.7675C39.1941 79.8648 39.0278 79.9926 38.9061 80.1508C38.7884 80.309 38.7296 80.4793 38.7296 80.6619H37.604C37.604 80.4266 37.6648 80.1934 37.7865 79.9622C37.9082 79.731 38.0826 79.5221 38.3098 79.3355C38.541 79.1448 38.8168 78.9947 39.1373 78.8852C39.4618 78.7716 39.8228 78.7148 40.2203 78.7148C40.699 78.7148 41.1208 78.796 41.4859 78.9582C41.855 79.1205 42.143 79.3659 42.3499 79.6944C42.5608 80.019 42.6663 80.4266 42.6663 80.9174V83.984C42.6663 84.203 42.6845 84.4363 42.721 84.6837C42.7616 84.9311 42.8204 85.1441 42.8975 85.3226V85.4199H41.7232C41.6664 85.2901 41.6218 85.1177 41.5893 84.9027C41.5569 84.6837 41.5406 84.4809 41.5406 84.2943ZM41.7354 81.4285L41.7475 82.2195H40.6097C40.2893 82.2195 40.0033 82.2459 39.7518 82.2986C39.5003 82.3473 39.2894 82.4223 39.119 82.5237C38.9487 82.6251 38.8189 82.7529 38.7296 82.907C38.6404 83.0571 38.5958 83.2336 38.5958 83.4364C38.5958 83.6433 38.6424 83.8319 38.7357 84.0022C38.829 84.1726 38.969 84.3085 39.1555 84.4099C39.3462 84.5073 39.5794 84.5559 39.8553 84.5559C40.2 84.5559 40.5043 84.4829 40.7679 84.3369C41.0316 84.1909 41.2405 84.0124 41.3946 83.8015C41.5528 83.5905 41.638 83.3857 41.6502 83.1869L42.1308 83.7284C42.1024 83.8988 42.0254 84.0874 41.8996 84.2943C41.7739 84.5012 41.6055 84.6999 41.3946 84.8906C41.1878 85.0772 40.9403 85.2333 40.6523 85.3591C40.3684 85.4808 40.0479 85.5416 39.691 85.5416C39.2448 85.5416 38.8533 85.4544 38.5167 85.28C38.1841 85.1056 37.9245 84.8723 37.7379 84.5803C37.5553 84.2842 37.4641 83.9536 37.4641 83.5885C37.4641 83.2356 37.533 82.9253 37.6709 82.6576C37.8088 82.3858 38.0076 82.1607 38.2672 81.9822C38.5268 81.7997 38.8391 81.6618 39.2042 81.5685C39.5693 81.4752 39.9769 81.4285 40.4272 81.4285H41.7354ZM48.6534 80.242V85.4199H47.5278V78.8365H48.5925L48.6534 80.242ZM48.3857 81.8788L47.9172 81.8605C47.9212 81.4103 47.9881 80.9945 48.1179 80.6132C48.2478 80.2279 48.4303 79.8932 48.6655 79.6093C48.9008 79.3253 49.1807 79.1063 49.5052 78.9521C49.8338 78.7939 50.1968 78.7148 50.5943 78.7148C50.9188 78.7148 51.2109 78.7595 51.4705 78.8487C51.7301 78.9339 51.9512 79.0718 52.1337 79.2624C52.3203 79.4531 52.4623 79.7005 52.5596 80.0048C52.657 80.3049 52.7056 80.672 52.7056 81.106V85.4199H51.5739V81.0939C51.5739 80.7491 51.5232 80.4733 51.4218 80.2664C51.3204 80.0555 51.1723 79.9033 50.9776 79.8101C50.7829 79.7127 50.5436 79.664 50.2597 79.664C49.9798 79.664 49.7242 79.7228 49.493 79.8405C49.2659 79.9581 49.0692 80.1204 48.9028 80.3272C48.7406 80.5341 48.6128 80.7714 48.5195 81.0391C48.4303 81.3028 48.3857 81.5827 48.3857 81.8788ZM54.1172 82.2012V82.0613C54.1172 81.5867 54.1862 81.1466 54.3241 80.741C54.462 80.3313 54.6608 79.9764 54.9204 79.6762C55.18 79.372 55.4943 79.1367 55.8635 78.9704C56.2326 78.8 56.6463 78.7148 57.1047 78.7148C57.5671 78.7148 57.9829 78.8 58.352 78.9704C58.7252 79.1367 59.0416 79.372 59.3012 79.6762C59.5648 79.9764 59.7656 80.3313 59.9035 80.741C60.0415 81.1466 60.1104 81.5867 60.1104 82.0613V82.2012C60.1104 82.6758 60.0415 83.1159 59.9035 83.5216C59.7656 83.9272 59.5648 84.2821 59.3012 84.5864C59.0416 84.8865 58.7272 85.1218 58.3581 85.2921C57.993 85.4585 57.5793 85.5416 57.1169 85.5416C56.6544 85.5416 56.2387 85.4585 55.8695 85.2921C55.5004 85.1218 55.184 84.8865 54.9204 84.5864C54.6608 84.2821 54.462 83.9272 54.3241 83.5216C54.1862 83.1159 54.1172 82.6758 54.1172 82.2012ZM55.2428 82.0613V82.2012C55.2428 82.5298 55.2814 82.8401 55.3585 83.1322C55.4355 83.4202 55.5511 83.6757 55.7053 83.8988C55.8635 84.1219 56.0602 84.2984 56.2955 84.4282C56.5307 84.5539 56.8045 84.6168 57.1169 84.6168C57.4251 84.6168 57.6949 84.5539 57.9261 84.4282C58.1614 84.2984 58.3561 84.1219 58.5102 83.8988C58.6643 83.6757 58.7799 83.4202 58.857 83.1322C58.9381 82.8401 58.9787 82.5298 58.9787 82.2012V82.0613C58.9787 81.7368 58.9381 81.4305 58.857 81.1425C58.7799 80.8505 58.6623 80.5929 58.5041 80.3698C58.35 80.1427 58.1553 79.9642 57.92 79.8344C57.6888 79.7046 57.417 79.6397 57.1047 79.6397C56.7964 79.6397 56.5246 79.7046 56.2894 79.8344C56.0582 79.9642 55.8635 80.1427 55.7053 80.3698C55.5511 80.5929 55.4355 80.8505 55.3585 81.1425C55.2814 81.4305 55.2428 81.7368 55.2428 82.0613ZM63.4264 84.4038L65.2274 78.8365H66.3774L64.0106 85.4199H63.2561L63.4264 84.4038ZM61.9236 78.8365L63.7793 84.4342L63.9071 85.4199H63.1526L60.7675 78.8365H61.9236ZM71.245 84.2943V80.9053C71.245 80.6457 71.1922 80.4205 71.0868 80.2299C70.9854 80.0352 70.8312 79.8851 70.6244 79.7796C70.4175 79.6742 70.1619 79.6214 69.8577 79.6214C69.5738 79.6214 69.3243 79.6701 69.1093 79.7675C68.8984 79.8648 68.7321 79.9926 68.6104 80.1508C68.4928 80.309 68.434 80.4793 68.434 80.6619H67.3083C67.3083 80.4266 67.3692 80.1934 67.4909 79.9622C67.6126 79.731 67.787 79.5221 68.0141 79.3355C68.2453 79.1448 68.5212 78.9947 68.8416 78.8852C69.1661 78.7716 69.5271 78.7148 69.9246 78.7148C70.4033 78.7148 70.8251 78.796 71.1902 78.9582C71.5593 79.1205 71.8473 79.3659 72.0542 79.6944C72.2651 80.019 72.3706 80.4266 72.3706 80.9174V83.984C72.3706 84.203 72.3889 84.4363 72.4254 84.6837C72.4659 84.9311 72.5247 85.1441 72.6018 85.3226V85.4199H71.4275C71.3707 85.2901 71.3261 85.1177 71.2936 84.9027C71.2612 84.6837 71.245 84.4809 71.245 84.2943ZM71.4397 81.4285L71.4518 82.2195H70.3141C69.9936 82.2195 69.7076 82.2459 69.4561 82.2986C69.2047 82.3473 68.9937 82.4223 68.8234 82.5237C68.653 82.6251 68.5232 82.7529 68.434 82.907C68.3447 83.0571 68.3001 83.2336 68.3001 83.4364C68.3001 83.6433 68.3467 83.8319 68.44 84.0022C68.5333 84.1726 68.6733 84.3085 68.8599 84.4099C69.0505 84.5073 69.2837 84.5559 69.5596 84.5559C69.9044 84.5559 70.2086 84.4829 70.4722 84.3369C70.7359 84.1909 70.9448 84.0124 71.0989 83.8015C71.2571 83.5905 71.3423 83.3857 71.3545 83.1869L71.8352 83.7284C71.8068 83.8988 71.7297 84.0874 71.604 84.2943C71.4782 84.5012 71.3099 84.6999 71.0989 84.8906C70.8921 85.0772 70.6446 85.2333 70.3566 85.3591C70.0727 85.4808 69.7523 85.5416 69.3953 85.5416C68.9491 85.5416 68.5577 85.4544 68.221 85.28C67.8884 85.1056 67.6288 84.8723 67.4422 84.5803C67.2597 84.2842 67.1684 83.9536 67.1684 83.5885C67.1684 83.2356 67.2373 82.9253 67.3753 82.6576C67.5132 82.3858 67.7119 82.1607 67.9715 81.9822C68.2311 81.7997 68.5435 81.6618 68.9085 81.5685C69.2736 81.4752 69.6813 81.4285 70.1315 81.4285H71.4397ZM81.0653 83.6737C81.0653 83.5114 81.0288 83.3613 80.9558 83.2234C80.8868 83.0815 80.7428 82.9537 80.5238 82.8401C80.3088 82.7225 79.9843 82.6211 79.5503 82.5359C79.1852 82.4588 78.8546 82.3676 78.5585 82.2621C78.2664 82.1566 78.017 82.0289 77.8101 81.8788C77.6073 81.7287 77.4511 81.5522 77.3416 81.3494C77.2321 81.1466 77.1773 80.9093 77.1773 80.6375C77.1773 80.3779 77.2341 80.1325 77.3477 79.9013C77.4653 79.6701 77.6296 79.4653 77.8405 79.2868C78.0555 79.1083 78.3131 78.9684 78.6133 78.867C78.9134 78.7656 79.2481 78.7148 79.6172 78.7148C80.1445 78.7148 80.5948 78.8081 80.9679 78.9947C81.3411 79.1813 81.6271 79.4308 81.8258 79.7431C82.0246 80.0514 82.124 80.3942 82.124 80.7714H80.9984C80.9984 80.5889 80.9436 80.4124 80.8341 80.242C80.7286 80.0676 80.5724 79.9236 80.3656 79.8101C80.1628 79.6965 79.9133 79.6397 79.6172 79.6397C79.3049 79.6397 79.0513 79.6884 78.8566 79.7857C78.666 79.879 78.526 79.9987 78.4368 80.1447C78.3516 80.2907 78.309 80.4449 78.309 80.6071C78.309 80.7288 78.3293 80.8383 78.3699 80.9357C78.4145 81.029 78.4916 81.1162 78.6011 81.1973C78.7106 81.2744 78.8647 81.3474 79.0635 81.4163C79.2623 81.4853 79.5158 81.5543 79.8241 81.6232C80.3635 81.7449 80.8077 81.8909 81.1566 82.0613C81.5054 82.2317 81.765 82.4406 81.9354 82.688C82.1057 82.9354 82.1909 83.2356 82.1909 83.5885C82.1909 83.8765 82.1301 84.1402 82.0084 84.3795C81.8907 84.6188 81.7184 84.8257 81.4912 85.0001C81.2681 85.1705 81.0004 85.3043 80.6881 85.4017C80.3798 85.495 80.033 85.5416 79.6476 85.5416C79.0676 85.5416 78.5767 85.4382 78.1752 85.2313C77.7736 85.0244 77.4694 84.7567 77.2625 84.4282C77.0556 84.0996 76.9522 83.7528 76.9522 83.3877H78.0839C78.1001 83.696 78.1894 83.9414 78.3516 84.1239C78.5139 84.3024 78.7126 84.4302 78.9479 84.5073C79.1832 84.5803 79.4164 84.6168 79.6476 84.6168C79.9559 84.6168 80.2135 84.5762 80.4203 84.4951C80.6313 84.414 80.7915 84.3024 80.901 84.1604C81.0105 84.0185 81.0653 83.8562 81.0653 83.6737ZM86.4014 85.5416C85.943 85.5416 85.5272 85.4645 85.154 85.3104C84.7849 85.1522 84.4665 84.9311 84.1988 84.6472C83.9351 84.3633 83.7323 84.0266 83.5903 83.6372C83.4484 83.2478 83.3774 82.8219 83.3774 82.3594V82.1039C83.3774 81.5685 83.4565 81.0918 83.6147 80.674C83.7729 80.2522 83.9879 79.8952 84.2596 79.6032C84.5314 79.3111 84.8397 79.0901 85.1845 78.94C85.5293 78.7899 85.8862 78.7148 86.2553 78.7148C86.7259 78.7148 87.1315 78.796 87.4722 78.9582C87.817 79.1205 88.0989 79.3476 88.318 79.6397C88.537 79.9277 88.6993 80.2684 88.8047 80.6619C88.9102 81.0513 88.9629 81.4772 88.9629 81.9396V82.4446H84.0467V81.5259H87.8373V81.4407C87.8211 81.1486 87.7602 80.8647 87.6548 80.5889C87.5534 80.313 87.3911 80.0859 87.168 79.9074C86.9449 79.7289 86.6407 79.6397 86.2553 79.6397C85.9998 79.6397 85.7645 79.6944 85.5495 79.804C85.3346 79.9094 85.15 80.0676 84.9959 80.2786C84.8417 80.4895 84.7221 80.7471 84.6369 81.0513C84.5517 81.3555 84.5091 81.7064 84.5091 82.1039V82.3594C84.5091 82.6718 84.5517 82.9659 84.6369 83.2417C84.7261 83.5135 84.8539 83.7528 85.0202 83.9597C85.1906 84.1665 85.3954 84.3288 85.6347 84.4464C85.8781 84.564 86.1539 84.6229 86.4622 84.6229C86.8597 84.6229 87.1964 84.5417 87.4722 84.3795C87.7481 84.2172 87.9894 84.0002 88.1963 83.7284L88.8777 84.27C88.7358 84.4849 88.5553 84.6898 88.3362 84.8845C88.1172 85.0792 87.8474 85.2374 87.527 85.3591C87.2106 85.4808 86.8354 85.5416 86.4014 85.5416ZM91.4028 80.242V85.4199H90.2772V78.8365H91.3419L91.4028 80.242ZM91.1351 81.8788L90.6666 81.8605C90.6706 81.4103 90.7375 80.9945 90.8674 80.6132C90.9972 80.2279 91.1797 79.8932 91.415 79.6093C91.6502 79.3253 91.9301 79.1063 92.2546 78.9521C92.5832 78.7939 92.9462 78.7148 93.3437 78.7148C93.6682 78.7148 93.9603 78.7595 94.2199 78.8487C94.4795 78.9339 94.7006 79.0718 94.8831 79.2624C95.0697 79.4531 95.2117 79.7005 95.309 80.0048C95.4064 80.3049 95.455 80.672 95.455 81.106V85.4199H94.3233V81.0939C94.3233 80.7491 94.2726 80.4733 94.1712 80.2664C94.0698 80.0555 93.9217 79.9033 93.727 79.8101C93.5323 79.7127 93.293 79.664 93.0091 79.664C92.7292 79.664 92.4736 79.7228 92.2424 79.8405C92.0153 79.9581 91.8186 80.1204 91.6522 80.3272C91.49 80.5341 91.3622 80.7714 91.2689 81.0391C91.1797 81.3028 91.1351 81.5827 91.1351 81.8788ZM98.2904 76.0742V85.4199H97.1648V76.0742H98.2904ZM98.0227 81.8788L97.5542 81.8605C97.5582 81.4103 97.6252 80.9945 97.755 80.6132C97.8848 80.2279 98.0673 79.8932 98.3026 79.6093C98.5378 79.3253 98.8177 79.1063 99.1422 78.9521C99.4708 78.7939 99.8338 78.7148 100.231 78.7148C100.556 78.7148 100.848 78.7595 101.107 78.8487C101.367 78.9339 101.588 79.0718 101.771 79.2624C101.957 79.4531 102.099 79.7005 102.197 80.0048C102.294 80.3049 102.343 80.672 102.343 81.106V85.4199H101.211V81.0939C101.211 80.7491 101.16 80.4733 101.059 80.2664C100.957 80.0555 100.809 79.9033 100.615 79.8101C100.42 79.7127 100.181 79.664 99.8967 79.664C99.6168 79.664 99.3613 79.7228 99.1301 79.8405C98.9029 79.9581 98.7062 80.1204 98.5399 80.3272C98.3776 80.5341 98.2498 80.7714 98.1565 81.0391C98.0673 81.3028 98.0227 81.5827 98.0227 81.8788ZM107.91 84.2943V80.9053C107.91 80.6457 107.857 80.4205 107.752 80.2299C107.65 80.0352 107.496 79.8851 107.289 79.7796C107.082 79.6742 106.827 79.6214 106.523 79.6214C106.239 79.6214 105.989 79.6701 105.774 79.7675C105.563 79.8648 105.397 79.9926 105.275 80.1508C105.158 80.309 105.099 80.4793 105.099 80.6619H103.973C103.973 80.4266 104.034 80.1934 104.156 79.9622C104.277 79.731 104.452 79.5221 104.679 79.3355C104.91 79.1448 105.186 78.9947 105.507 78.8852C105.831 78.7716 106.192 78.7148 106.59 78.7148C107.068 78.7148 107.49 78.796 107.855 78.9582C108.224 79.1205 108.512 79.3659 108.719 79.6944C108.93 80.019 109.036 80.4266 109.036 80.9174V83.984C109.036 84.203 109.054 84.4363 109.09 84.6837C109.131 84.9311 109.19 85.1441 109.267 85.3226V85.4199H108.092C108.036 85.2901 107.991 85.1177 107.959 84.9027C107.926 84.6837 107.91 84.4809 107.91 84.2943ZM108.105 81.4285L108.117 82.2195H106.979C106.659 82.2195 106.373 82.2459 106.121 82.2986C105.87 82.3473 105.659 82.4223 105.488 82.5237C105.318 82.6251 105.188 82.7529 105.099 82.907C105.01 83.0571 104.965 83.2336 104.965 83.4364C104.965 83.6433 105.012 83.8319 105.105 84.0022C105.198 84.1726 105.338 84.3085 105.525 84.4099C105.715 84.5073 105.949 84.5559 106.225 84.5559C106.569 84.5559 106.874 84.4829 107.137 84.3369C107.401 84.1909 107.61 84.0124 107.764 83.8015C107.922 83.5905 108.007 83.3857 108.019 83.1869L108.5 83.7284C108.472 83.8988 108.395 84.0874 108.269 84.2943C108.143 84.5012 107.975 84.6999 107.764 84.8906C107.557 85.0772 107.31 85.2333 107.022 85.3591C106.738 85.4808 106.417 85.5416 106.06 85.5416C105.614 85.5416 105.223 85.4544 104.886 85.28C104.553 85.1056 104.294 84.8723 104.107 84.5803C103.925 84.2842 103.833 83.9536 103.833 83.5885C103.833 83.2356 103.902 82.9253 104.04 82.6576C104.178 82.3858 104.377 82.1607 104.636 81.9822C104.896 81.7997 105.208 81.6618 105.573 81.5685C105.939 81.4752 106.346 81.4285 106.796 81.4285H108.105ZM115.576 85.4199H114.451V78.1429C114.451 77.6683 114.536 77.2688 114.706 76.9443C114.881 76.6157 115.13 76.3683 115.455 76.202C115.779 76.0316 116.165 75.9464 116.611 75.9464C116.741 75.9464 116.87 75.9545 117 75.9708C117.134 75.987 117.264 76.0113 117.39 76.0438L117.329 76.9625C117.243 76.9422 117.146 76.928 117.037 76.9199C116.931 76.9118 116.826 76.9078 116.72 76.9078C116.481 76.9078 116.274 76.9564 116.1 77.0538C115.929 77.1471 115.799 77.285 115.71 77.4675C115.621 77.6501 115.576 77.8752 115.576 78.1429V85.4199ZM116.976 78.8365V79.7005H113.41V78.8365H116.976ZM117.931 82.2012V82.0613C117.931 81.5867 118 81.1466 118.138 80.741C118.276 80.3313 118.475 79.9764 118.734 79.6762C118.994 79.372 119.308 79.1367 119.677 78.9704C120.046 78.8 120.46 78.7148 120.918 78.7148C121.381 78.7148 121.797 78.8 122.166 78.9704C122.539 79.1367 122.855 79.372 123.115 79.6762C123.379 79.9764 123.579 80.3313 123.717 80.741C123.855 81.1466 123.924 81.5867 123.924 82.0613V82.2012C123.924 82.6758 123.855 83.1159 123.717 83.5216C123.579 83.9272 123.379 84.2821 123.115 84.5864C122.855 84.8865 122.541 85.1218 122.172 85.2921C121.807 85.4585 121.393 85.5416 120.931 85.5416C120.468 85.5416 120.052 85.4585 119.683 85.2921C119.314 85.1218 118.998 84.8865 118.734 84.5864C118.475 84.2821 118.276 83.9272 118.138 83.5216C118 83.1159 117.931 82.6758 117.931 82.2012ZM119.057 82.0613V82.2012C119.057 82.5298 119.095 82.8401 119.172 83.1322C119.249 83.4202 119.365 83.6757 119.519 83.8988C119.677 84.1219 119.874 84.2984 120.109 84.4282C120.345 84.5539 120.618 84.6168 120.931 84.6168C121.239 84.6168 121.509 84.5539 121.74 84.4282C121.975 84.2984 122.17 84.1219 122.324 83.8988C122.478 83.6757 122.594 83.4202 122.671 83.1322C122.752 82.8401 122.793 82.5298 122.793 82.2012V82.0613C122.793 81.7368 122.752 81.4305 122.671 81.1425C122.594 80.8505 122.476 80.5929 122.318 80.3698C122.164 80.1427 121.969 79.9642 121.734 79.8344C121.503 79.7046 121.231 79.6397 120.918 79.6397C120.61 79.6397 120.338 79.7046 120.103 79.8344C119.872 79.9642 119.677 80.1427 119.519 80.3698C119.365 80.5929 119.249 80.8505 119.172 81.1425C119.095 81.4305 119.057 81.7368 119.057 82.0613ZM126.559 78.8365V85.4199H125.427V78.8365H126.559ZM125.342 77.0903C125.342 76.9078 125.397 76.7536 125.506 76.6279C125.62 76.5021 125.786 76.4393 126.005 76.4393C126.22 76.4393 126.384 76.5021 126.498 76.6279C126.616 76.7536 126.674 76.9078 126.674 77.0903C126.674 77.2647 126.616 77.4148 126.498 77.5405C126.384 77.6622 126.22 77.7231 126.005 77.7231C125.786 77.7231 125.62 77.6622 125.506 77.5405C125.397 77.4148 125.342 77.2647 125.342 77.0903ZM134.189 85.5416C133.73 85.5416 133.315 85.4645 132.941 85.3104C132.572 85.1522 132.254 84.9311 131.986 84.6472C131.722 84.3633 131.52 84.0266 131.378 83.6372C131.236 83.2478 131.165 82.8219 131.165 82.3594V82.1039C131.165 81.5685 131.244 81.0918 131.402 80.674C131.56 80.2522 131.775 79.8952 132.047 79.6032C132.319 79.3111 132.627 79.0901 132.972 78.94C133.317 78.7899 133.674 78.7148 134.043 78.7148C134.513 78.7148 134.919 78.796 135.26 78.9582C135.604 79.1205 135.886 79.3476 136.105 79.6397C136.324 79.9277 136.487 80.2684 136.592 80.6619C136.698 81.0513 136.75 81.4772 136.75 81.9396V82.4446H131.834V81.5259H135.625V81.4407C135.608 81.1486 135.548 80.8647 135.442 80.5889C135.341 80.313 135.178 80.0859 134.955 79.9074C134.732 79.7289 134.428 79.6397 134.043 79.6397C133.787 79.6397 133.552 79.6944 133.337 79.804C133.122 79.9094 132.937 80.0676 132.783 80.2786C132.629 80.4895 132.509 80.7471 132.424 81.0513C132.339 81.3555 132.296 81.7064 132.296 82.1039V82.3594C132.296 82.6718 132.339 82.9659 132.424 83.2417C132.513 83.5135 132.641 83.7528 132.808 83.9597C132.978 84.1665 133.183 84.3288 133.422 84.4464C133.665 84.564 133.941 84.6229 134.25 84.6229C134.647 84.6229 134.984 84.5417 135.26 84.3795C135.535 84.2172 135.777 84.0002 135.984 83.7284L136.665 84.27C136.523 84.4849 136.343 84.6898 136.124 84.8845C135.905 85.0792 135.635 85.2374 135.314 85.3591C134.998 85.4808 134.623 85.5416 134.189 85.5416ZM139.19 80.242V85.4199H138.064V78.8365H139.129L139.19 80.242ZM138.922 81.8788L138.454 81.8605C138.458 81.4103 138.525 80.9945 138.655 80.6132C138.784 80.2279 138.967 79.8932 139.202 79.6093C139.438 79.3253 139.717 79.1063 140.042 78.9521C140.371 78.7939 140.734 78.7148 141.131 78.7148C141.456 78.7148 141.748 78.7595 142.007 78.8487C142.267 78.9339 142.488 79.0718 142.67 79.2624C142.857 79.4531 142.999 79.7005 143.096 80.0048C143.194 80.3049 143.242 80.672 143.242 81.106V85.4199H142.111V81.0939C142.111 80.7491 142.06 80.4733 141.959 80.2664C141.857 80.0555 141.709 79.9033 141.514 79.8101C141.32 79.7127 141.08 79.664 140.796 79.664C140.517 79.664 140.261 79.7228 140.03 79.8405C139.803 79.9581 139.606 80.1204 139.44 80.3272C139.277 80.5341 139.15 80.7714 139.056 81.0391C138.967 81.3028 138.922 81.5827 138.922 81.8788ZM146.954 84.4038L148.755 78.8365H149.905L147.538 85.4199H146.784L146.954 84.4038ZM145.451 78.8365L147.307 84.4342L147.435 85.4199H146.68L144.295 78.8365H145.451ZM152.211 78.8365V85.4199H151.079V78.8365H152.211ZM150.994 77.0903C150.994 76.9078 151.049 76.7536 151.158 76.6279C151.272 76.5021 151.438 76.4393 151.657 76.4393C151.872 76.4393 152.036 76.5021 152.15 76.6279C152.268 76.7536 152.326 76.9078 152.326 77.0903C152.326 77.2647 152.268 77.4148 152.15 77.5405C152.036 77.6622 151.872 77.7231 151.657 77.7231C151.438 77.7231 151.272 77.6622 151.158 77.5405C151.049 77.4148 150.994 77.2647 150.994 77.0903ZM157.9 84.2943V80.9053C157.9 80.6457 157.847 80.4205 157.742 80.2299C157.64 80.0352 157.486 79.8851 157.279 79.7796C157.072 79.6742 156.817 79.6214 156.513 79.6214C156.229 79.6214 155.979 79.6701 155.764 79.7675C155.553 79.8648 155.387 79.9926 155.265 80.1508C155.148 80.309 155.089 80.4793 155.089 80.6619H153.963C153.963 80.4266 154.024 80.1934 154.146 79.9622C154.267 79.731 154.442 79.5221 154.669 79.3355C154.9 79.1448 155.176 78.9947 155.496 78.8852C155.821 78.7716 156.182 78.7148 156.579 78.7148C157.058 78.7148 157.48 78.796 157.845 78.9582C158.214 79.1205 158.502 79.3659 158.709 79.6944C158.92 80.019 159.025 80.4266 159.025 80.9174V83.984C159.025 84.203 159.044 84.4363 159.08 84.6837C159.121 84.9311 159.18 85.1441 159.257 85.3226V85.4199H158.082C158.026 85.2901 157.981 85.1177 157.949 84.9027C157.916 84.6837 157.9 84.4809 157.9 84.2943ZM158.095 81.4285L158.107 82.2195H156.969C156.648 82.2195 156.362 82.2459 156.111 82.2986C155.86 82.3473 155.649 82.4223 155.478 82.5237C155.308 82.6251 155.178 82.7529 155.089 82.907C155 83.0571 154.955 83.2336 154.955 83.4364C154.955 83.6433 155.002 83.8319 155.095 84.0022C155.188 84.1726 155.328 84.3085 155.515 84.4099C155.705 84.5073 155.939 84.5559 156.214 84.5559C156.559 84.5559 156.863 84.4829 157.127 84.3369C157.391 84.1909 157.6 84.0124 157.754 83.8015C157.912 83.5905 157.997 83.3857 158.009 83.1869L158.49 83.7284C158.462 83.8988 158.385 84.0874 158.259 84.2943C158.133 84.5012 157.965 84.6999 157.754 84.8906C157.547 85.0772 157.299 85.2333 157.011 85.3591C156.728 85.4808 156.407 85.5416 156.05 85.5416C155.604 85.5416 155.213 85.4544 154.876 85.28C154.543 85.1056 154.284 84.8723 154.097 84.5803C153.915 84.2842 153.823 83.9536 153.823 83.5885C153.823 83.2356 153.892 82.9253 154.03 82.6576C154.168 82.3858 154.367 82.1607 154.626 81.9822C154.886 81.7997 155.198 81.6618 155.563 81.5685C155.928 81.4752 156.336 81.4285 156.786 81.4285H158.095ZM164.946 84.1422V76.0742H166.077V85.4199H165.043L164.946 84.1422ZM160.516 82.2012V82.0735C160.516 81.5705 160.577 81.1142 160.699 80.7045C160.824 80.2907 161.001 79.9358 161.228 79.6397C161.459 79.3436 161.733 79.1164 162.049 78.9582C162.37 78.796 162.727 78.7148 163.12 78.7148C163.534 78.7148 163.895 78.7879 164.203 78.9339C164.516 79.0759 164.779 79.2848 164.994 79.5606C165.213 79.8324 165.386 80.1609 165.511 80.5463C165.637 80.9316 165.724 81.3677 165.773 81.8544V82.4142C165.728 82.8969 165.641 83.3309 165.511 83.7163C165.386 84.1016 165.213 84.4302 164.994 84.702C164.779 84.9737 164.516 85.1826 164.203 85.3287C163.891 85.4706 163.526 85.5416 163.108 85.5416C162.723 85.5416 162.37 85.4585 162.049 85.2921C161.733 85.1258 161.459 84.8926 161.228 84.5924C161.001 84.2923 160.824 83.9394 160.699 83.5337C160.577 83.1241 160.516 82.6799 160.516 82.2012ZM161.648 82.0735V82.2012C161.648 82.5298 161.68 82.8381 161.745 83.1261C161.814 83.4141 161.92 83.6676 162.062 83.8866C162.204 84.1057 162.384 84.2781 162.603 84.4038C162.822 84.5255 163.084 84.5864 163.388 84.5864C163.761 84.5864 164.067 84.5073 164.307 84.3491C164.55 84.1909 164.745 83.982 164.891 83.7224C165.037 83.4628 165.15 83.1808 165.232 82.8766V81.4103C165.183 81.1872 165.112 80.9722 165.019 80.7653C164.929 80.5544 164.812 80.3678 164.666 80.2055C164.524 80.0392 164.347 79.9074 164.136 79.8101C163.93 79.7127 163.684 79.664 163.4 79.664C163.092 79.664 162.826 79.7289 162.603 79.8587C162.384 79.9845 162.204 80.1589 162.062 80.382C161.92 80.601 161.814 80.8566 161.745 81.1486C161.68 81.4366 161.648 81.7449 161.648 82.0735ZM171.712 84.2943V80.9053C171.712 80.6457 171.659 80.4205 171.553 80.2299C171.452 80.0352 171.298 79.8851 171.091 79.7796C170.884 79.6742 170.629 79.6214 170.324 79.6214C170.04 79.6214 169.791 79.6701 169.576 79.7675C169.365 79.8648 169.199 79.9926 169.077 80.1508C168.959 80.309 168.901 80.4793 168.901 80.6619H167.775C167.775 80.4266 167.836 80.1934 167.957 79.9622C168.079 79.731 168.254 79.5221 168.481 79.3355C168.712 79.1448 168.988 78.9947 169.308 78.8852C169.633 78.7716 169.994 78.7148 170.391 78.7148C170.87 78.7148 171.292 78.796 171.657 78.9582C172.026 79.1205 172.314 79.3659 172.521 79.6944C172.732 80.019 172.837 80.4266 172.837 80.9174V83.984C172.837 84.203 172.855 84.4363 172.892 84.6837C172.933 84.9311 172.991 85.1441 173.068 85.3226V85.4199H171.894C171.837 85.2901 171.793 85.1177 171.76 84.9027C171.728 84.6837 171.712 84.4809 171.712 84.2943ZM171.906 81.4285L171.918 82.2195H170.781C170.46 82.2195 170.174 82.2459 169.923 82.2986C169.671 82.3473 169.46 82.4223 169.29 82.5237C169.12 82.6251 168.99 82.7529 168.901 82.907C168.811 83.0571 168.767 83.2336 168.767 83.4364C168.767 83.6433 168.813 83.8319 168.907 84.0022C169 84.1726 169.14 84.3085 169.326 84.4099C169.517 84.5073 169.75 84.5559 170.026 84.5559C170.371 84.5559 170.675 84.4829 170.939 84.3369C171.202 84.1909 171.411 84.0124 171.566 83.8015C171.724 83.5905 171.809 83.3857 171.821 83.1869L172.302 83.7284C172.273 83.8988 172.196 84.0874 172.071 84.2943C171.945 84.5012 171.776 84.6999 171.566 84.8906C171.359 85.0772 171.111 85.2333 170.823 85.3591C170.539 85.4808 170.219 85.5416 169.862 85.5416C169.416 85.5416 169.024 85.4544 168.688 85.28C168.355 85.1056 168.095 84.8723 167.909 84.5803C167.726 84.2842 167.635 83.9536 167.635 83.5885C167.635 83.2356 167.704 82.9253 167.842 82.6576C167.98 82.3858 168.179 82.1607 168.438 81.9822C168.698 81.7997 169.01 81.6618 169.375 81.5685C169.74 81.4752 170.148 81.4285 170.598 81.4285H171.906ZM175.63 84.0813V84.9879C175.63 85.357 175.537 85.7465 175.35 86.1561C175.163 86.5699 174.902 86.9147 174.565 87.1905L173.926 86.7463C174.056 86.5679 174.166 86.3853 174.255 86.1987C174.344 86.0162 174.411 85.8256 174.456 85.6268C174.504 85.4321 174.529 85.2252 174.529 85.0062V84.0813H175.63ZM44.6498 101.404L46.4508 95.8365H47.6008L45.2339 102.42H44.4794L44.6498 101.404ZM43.1469 95.8365L45.0027 101.434L45.1305 102.42H44.376L41.9909 95.8365H43.1469ZM51.3305 102.542C50.8722 102.542 50.4564 102.465 50.0832 102.31C49.7141 102.152 49.3957 101.931 49.128 101.647C48.8643 101.363 48.6615 101.027 48.5195 100.637C48.3776 100.248 48.3066 99.8219 48.3066 99.3594V99.1039C48.3066 98.5685 48.3857 98.0918 48.5439 97.674C48.7021 97.2522 48.917 96.8952 49.1888 96.6032C49.4606 96.3111 49.7689 96.0901 50.1137 95.94C50.4584 95.7899 50.8154 95.7148 51.1845 95.7148C51.655 95.7148 52.0607 95.796 52.4014 95.9582C52.7462 96.1205 53.0281 96.3476 53.2471 96.6397C53.4662 96.9277 53.6284 97.2684 53.7339 97.6619C53.8394 98.0513 53.8921 98.4772 53.8921 98.9396V99.4446H48.9759V98.5259H52.7665V98.4407C52.7502 98.1486 52.6894 97.8647 52.5839 97.5889C52.4825 97.313 52.3203 97.0859 52.0972 96.9074C51.8741 96.7289 51.5699 96.6397 51.1845 96.6397C50.929 96.6397 50.6937 96.6944 50.4787 96.804C50.2637 96.9094 50.0792 97.0676 49.925 97.2786C49.7709 97.4895 49.6512 97.7471 49.566 98.0513C49.4809 98.3555 49.4383 98.7064 49.4383 99.1039V99.3594C49.4383 99.6718 49.4809 99.9659 49.566 100.242C49.6553 100.513 49.7831 100.753 49.9494 100.96C50.1197 101.167 50.3246 101.329 50.5639 101.446C50.8073 101.564 51.0831 101.623 51.3914 101.623C51.7889 101.623 52.1256 101.542 52.4014 101.379C52.6772 101.217 52.9186 101 53.1255 100.728L53.8069 101.27C53.6649 101.485 53.4844 101.69 53.2654 101.884C53.0464 102.079 52.7766 102.237 52.4562 102.359C52.1398 102.481 51.7646 102.542 51.3305 102.542ZM56.332 96.8709V102.42H55.2063V95.8365H56.3015L56.332 96.8709ZM58.3885 95.8L58.3824 96.8466C58.2891 96.8263 58.1999 96.8141 58.1147 96.8101C58.0336 96.8019 57.9403 96.7979 57.8348 96.7979C57.5752 96.7979 57.346 96.8384 57.1473 96.9196C56.9485 97.0007 56.7802 97.1143 56.6423 97.2603C56.5044 97.4063 56.3948 97.5807 56.3137 97.7836C56.2366 97.9823 56.1859 98.2014 56.1616 98.4407L55.8452 98.6232C55.8452 98.2257 55.8837 97.8525 55.9608 97.5037C56.0419 97.1548 56.1657 96.8466 56.332 96.5788C56.4983 96.3071 56.7092 96.0961 56.9648 95.9461C57.2244 95.7919 57.5326 95.7148 57.8896 95.7148C57.9707 95.7148 58.064 95.725 58.1695 95.7453C58.2749 95.7615 58.348 95.7797 58.3885 95.8ZM60.6519 95.8365V102.42H59.5202V95.8365H60.6519ZM59.435 94.0903C59.435 93.9078 59.4898 93.7536 59.5993 93.6279C59.7129 93.5021 59.8792 93.4393 60.0982 93.4393C60.3132 93.4393 60.4775 93.5021 60.5911 93.6279C60.7087 93.7536 60.7675 93.9078 60.7675 94.0903C60.7675 94.2647 60.7087 94.4148 60.5911 94.5405C60.4775 94.6622 60.3132 94.7231 60.0982 94.7231C59.8792 94.7231 59.7129 94.6622 59.5993 94.5405C59.4898 94.4148 59.435 94.2647 59.435 94.0903ZM63.9619 102.42H62.8363V95.2646C62.8363 94.7657 62.9336 94.3438 63.1283 93.999C63.323 93.6542 63.6009 93.3926 63.9619 93.2141C64.3229 93.0357 64.7508 92.9464 65.2457 92.9464C65.5378 92.9464 65.8237 92.9829 66.1036 93.0559C66.3835 93.1249 66.6715 93.2121 66.9676 93.3176L66.779 94.2667C66.5924 94.1937 66.3754 94.1248 66.1279 94.0599C65.8846 93.9909 65.6169 93.9564 65.3248 93.9564C64.8421 93.9564 64.4933 94.066 64.2783 94.285C64.0673 94.5 63.9619 94.8265 63.9619 95.2646V102.42ZM65.3065 95.8365V96.7005H61.7958V95.8365H65.3065ZM67.5213 95.8365V102.42H66.3957V95.8365H67.5213ZM73.5145 104.951V97.1021L73.6118 95.8365H74.6462V104.951H73.5145ZM69.0911 99.2012V99.0735C69.0911 98.5705 69.1499 98.1142 69.2675 97.7045C69.3852 97.2907 69.5576 96.9358 69.7847 96.6397C70.0119 96.3436 70.2857 96.1164 70.6061 95.9582C70.9306 95.796 71.2997 95.7148 71.7135 95.7148C72.1272 95.7148 72.4903 95.7879 72.8026 95.9339C73.119 96.0759 73.3867 96.2848 73.6057 96.5606C73.8288 96.8324 74.0053 97.1609 74.1351 97.5463C74.2649 97.9316 74.3541 98.3677 74.4028 98.8544V99.4142C74.3582 99.8969 74.271 100.331 74.1412 100.716C74.0114 101.102 73.8349 101.43 73.6118 101.702C73.3928 101.974 73.123 102.183 72.8026 102.329C72.4862 102.471 72.1191 102.542 71.7013 102.542C71.2957 102.542 70.9306 102.458 70.6061 102.292C70.2857 102.126 70.0119 101.893 69.7847 101.592C69.5616 101.292 69.3892 100.939 69.2675 100.534C69.1499 100.124 69.0911 99.6799 69.0911 99.2012ZM70.2228 99.0735V99.2012C70.2228 99.5298 70.2573 99.8401 70.3262 100.132C70.3952 100.42 70.5006 100.676 70.6426 100.899C70.7886 101.122 70.9712 101.298 71.1902 101.428C71.4133 101.554 71.677 101.617 71.9812 101.617C72.3544 101.617 72.6647 101.536 72.9121 101.373C73.1636 101.211 73.3644 100.998 73.5145 100.735C73.6646 100.467 73.7802 100.181 73.8613 99.8766V98.4103C73.8167 98.1872 73.7457 97.9702 73.6483 97.7592C73.555 97.5483 73.4334 97.3597 73.2833 97.1934C73.1332 97.023 72.9507 96.8891 72.7357 96.7918C72.5247 96.6904 72.2773 96.6397 71.9934 96.6397C71.6851 96.6397 71.4194 96.7046 71.1963 96.8344C70.9732 96.9642 70.7886 97.1427 70.6426 97.3698C70.5006 97.5929 70.3952 97.8505 70.3262 98.1425C70.2573 98.4346 70.2228 98.7449 70.2228 99.0735ZM80.4812 100.899V95.8365H81.6129V102.42H80.5359L80.4812 100.899ZM80.6941 99.5116L81.1626 99.4994C81.1626 99.9375 81.116 100.343 81.0227 100.716C80.9335 101.085 80.7874 101.406 80.5846 101.678C80.3818 101.949 80.1161 102.162 79.7876 102.316C79.459 102.467 79.0594 102.542 78.5889 102.542C78.2685 102.542 77.9744 102.495 77.7067 102.402C77.443 102.308 77.2159 102.164 77.0252 101.97C76.8346 101.775 76.6865 101.521 76.581 101.209C76.4796 100.897 76.4289 100.522 76.4289 100.083V95.8365H77.5546V100.096C77.5546 100.392 77.587 100.637 77.6519 100.832C77.7209 101.023 77.8121 101.175 77.9257 101.288C78.0433 101.398 78.1731 101.475 78.3151 101.519C78.4611 101.564 78.6112 101.586 78.7654 101.586C79.244 101.586 79.6233 101.495 79.9032 101.313C80.183 101.126 80.3838 100.876 80.5055 100.564C80.6313 100.248 80.6941 99.8969 80.6941 99.5116ZM86.0606 102.542C85.6023 102.542 85.1865 102.465 84.8133 102.31C84.4442 102.152 84.1258 101.931 83.8581 101.647C83.5944 101.363 83.3916 101.027 83.2496 100.637C83.1076 100.248 83.0367 99.8219 83.0367 99.3594V99.1039C83.0367 98.5685 83.1158 98.0918 83.274 97.674C83.4321 97.2522 83.6471 96.8952 83.9189 96.6032C84.1907 96.3111 84.499 96.0901 84.8437 95.94C85.1885 95.7899 85.5455 95.7148 85.9146 95.7148C86.3851 95.7148 86.7908 95.796 87.1315 95.9582C87.4763 96.1205 87.7582 96.3476 87.9772 96.6397C88.1963 96.9277 88.3585 97.2684 88.464 97.6619C88.5695 98.0513 88.6222 98.4772 88.6222 98.9396V99.4446H83.7059V98.5259H87.4966V98.4407C87.4803 98.1486 87.4195 97.8647 87.314 97.5889C87.2126 97.313 87.0504 97.0859 86.8273 96.9074C86.6042 96.7289 86.3 96.6397 85.9146 96.6397C85.6591 96.6397 85.4238 96.6944 85.2088 96.804C84.9938 96.9094 84.8093 97.0676 84.6551 97.2786C84.501 97.4895 84.3813 97.7471 84.2961 98.0513C84.211 98.3555 84.1684 98.7064 84.1684 99.1039V99.3594C84.1684 99.6718 84.211 99.9659 84.2961 100.242C84.3854 100.513 84.5132 100.753 84.6795 100.96C84.8498 101.167 85.0547 101.329 85.294 101.446C85.5374 101.564 85.8132 101.623 86.1215 101.623C86.519 101.623 86.8557 101.542 87.1315 101.379C87.4073 101.217 87.6487 101 87.8555 100.728L88.537 101.27C88.395 101.485 88.2145 101.69 87.9955 101.884C87.7765 102.079 87.5067 102.237 87.1863 102.359C86.8699 102.481 86.4947 102.542 86.0606 102.542ZM96.8605 100.674C96.8605 100.511 96.824 100.361 96.751 100.223C96.6821 100.081 96.5381 99.9537 96.319 99.8401C96.104 99.7225 95.7795 99.6211 95.3455 99.5359C94.9804 99.4588 94.6499 99.3676 94.3537 99.2621C94.0617 99.1566 93.8122 99.0289 93.6054 98.8788C93.4025 98.7287 93.2464 98.5522 93.1369 98.3494C93.0273 98.1466 92.9726 97.9093 92.9726 97.6375C92.9726 97.3779 93.0294 97.1325 93.1429 96.9013C93.2606 96.6701 93.4249 96.4653 93.6358 96.2868C93.8508 96.1083 94.1083 95.9684 94.4085 95.867C94.7087 95.7656 95.0433 95.7148 95.4124 95.7148C95.9398 95.7148 96.39 95.8081 96.7632 95.9947C97.1364 96.1813 97.4223 96.4308 97.6211 96.7431C97.8199 97.0514 97.9192 97.3942 97.9192 97.7714H96.7936C96.7936 97.5889 96.7389 97.4124 96.6293 97.242C96.5239 97.0676 96.3677 96.9236 96.1608 96.8101C95.958 96.6965 95.7086 96.6397 95.4124 96.6397C95.1001 96.6397 94.8466 96.6884 94.6519 96.7857C94.4612 96.879 94.3213 96.9987 94.2321 97.1447C94.1469 97.2907 94.1043 97.4449 94.1043 97.6071C94.1043 97.7288 94.1246 97.8383 94.1651 97.9357C94.2097 98.029 94.2868 98.1162 94.3963 98.1973C94.5059 98.2744 94.66 98.3474 94.8588 98.4163C95.0575 98.4853 95.311 98.5543 95.6193 98.6232C96.1588 98.7449 96.603 98.8909 96.9518 99.0613C97.3007 99.2317 97.5603 99.4406 97.7306 99.688C97.901 99.9354 97.9862 100.236 97.9862 100.588C97.9862 100.876 97.9253 101.14 97.8036 101.379C97.686 101.619 97.5136 101.826 97.2865 102C97.0634 102.17 96.7956 102.304 96.4833 102.402C96.175 102.495 95.8282 102.542 95.4429 102.542C94.8628 102.542 94.372 102.438 93.9704 102.231C93.5689 102.024 93.2646 101.757 93.0578 101.428C92.8509 101.1 92.7474 100.753 92.7474 100.388H93.8792C93.8954 100.696 93.9846 100.941 94.1469 101.124C94.3091 101.302 94.5079 101.43 94.7432 101.507C94.9784 101.58 95.2117 101.617 95.4429 101.617C95.7511 101.617 96.0087 101.576 96.2156 101.495C96.4265 101.414 96.5867 101.302 96.6963 101.16C96.8058 101.018 96.8605 100.856 96.8605 100.674ZM102.197 102.542C101.738 102.542 101.322 102.465 100.949 102.31C100.58 102.152 100.262 101.931 99.994 101.647C99.7304 101.363 99.5276 101.027 99.3856 100.637C99.2436 100.248 99.1726 99.8219 99.1726 99.3594V99.1039C99.1726 98.5685 99.2517 98.0918 99.4099 97.674C99.5681 97.2522 99.7831 96.8952 100.055 96.6032C100.327 96.3111 100.635 96.0901 100.98 95.94C101.325 95.7899 101.681 95.7148 102.051 95.7148C102.521 95.7148 102.927 95.796 103.267 95.9582C103.612 96.1205 103.894 96.3476 104.113 96.6397C104.332 96.9277 104.495 97.2684 104.6 97.6619C104.705 98.0513 104.758 98.4772 104.758 98.9396V99.4446H99.8419V98.5259H103.633V98.4407C103.616 98.1486 103.555 97.8647 103.45 97.5889C103.349 97.313 103.186 97.0859 102.963 96.9074C102.74 96.7289 102.436 96.6397 102.051 96.6397C101.795 96.6397 101.56 96.6944 101.345 96.804C101.13 96.9094 100.945 97.0676 100.791 97.2786C100.637 97.4895 100.517 97.7471 100.432 98.0513C100.347 98.3555 100.304 98.7064 100.304 99.1039V99.3594C100.304 99.6718 100.347 99.9659 100.432 100.242C100.521 100.513 100.649 100.753 100.815 100.96C100.986 101.167 101.191 101.329 101.43 101.446C101.673 101.564 101.949 101.623 102.257 101.623C102.655 101.623 102.992 101.542 103.267 101.379C103.543 101.217 103.785 101 103.992 100.728L104.673 101.27C104.531 101.485 104.351 101.69 104.131 101.884C103.912 102.079 103.643 102.237 103.322 102.359C103.006 102.481 102.631 102.542 102.197 102.542ZM110.1 100.899V95.8365H111.232V102.42H110.155L110.1 100.899ZM110.313 99.5116L110.782 99.4994C110.782 99.9375 110.735 100.343 110.642 100.716C110.553 101.085 110.407 101.406 110.204 101.678C110.001 101.949 109.735 102.162 109.407 102.316C109.078 102.467 108.679 102.542 108.208 102.542C107.888 102.542 107.594 102.495 107.326 102.402C107.062 102.308 106.835 102.164 106.644 101.97C106.454 101.775 106.306 101.521 106.2 101.209C106.099 100.897 106.048 100.522 106.048 100.083V95.8365H107.174V100.096C107.174 100.392 107.206 100.637 107.271 100.832C107.34 101.023 107.431 101.175 107.545 101.288C107.662 101.398 107.792 101.475 107.934 101.519C108.08 101.564 108.23 101.586 108.385 101.586C108.863 101.586 109.242 101.495 109.522 101.313C109.802 101.126 110.003 100.876 110.125 100.564C110.25 100.248 110.313 99.8969 110.313 99.5116ZM118.771 102.542C118.312 102.542 117.897 102.465 117.523 102.31C117.154 102.152 116.836 101.931 116.568 101.647C116.304 101.363 116.102 101.027 115.96 100.637C115.818 100.248 115.747 99.8219 115.747 99.3594V99.1039C115.747 98.5685 115.826 98.0918 115.984 97.674C116.142 97.2522 116.357 96.8952 116.629 96.6032C116.901 96.3111 117.209 96.0901 117.554 95.94C117.899 95.7899 118.256 95.7148 118.625 95.7148C119.095 95.7148 119.501 95.796 119.842 95.9582C120.186 96.1205 120.468 96.3476 120.687 96.6397C120.906 96.9277 121.069 97.2684 121.174 97.6619C121.28 98.0513 121.332 98.4772 121.332 98.9396V99.4446H116.416V98.5259H120.207V98.4407C120.19 98.1486 120.13 97.8647 120.024 97.5889C119.923 97.313 119.76 97.0859 119.537 96.9074C119.314 96.7289 119.01 96.6397 118.625 96.6397C118.369 96.6397 118.134 96.6944 117.919 96.804C117.704 96.9094 117.519 97.0676 117.365 97.2786C117.211 97.4895 117.091 97.7471 117.006 98.0513C116.921 98.3555 116.878 98.7064 116.878 99.1039V99.3594C116.878 99.6718 116.921 99.9659 117.006 100.242C117.095 100.513 117.223 100.753 117.39 100.96C117.56 101.167 117.765 101.329 118.004 101.446C118.247 101.564 118.523 101.623 118.832 101.623C119.229 101.623 119.566 101.542 119.842 101.379C120.117 101.217 120.359 101 120.566 100.728L121.247 101.27C121.105 101.485 120.925 101.69 120.706 101.884C120.486 102.079 120.217 102.237 119.896 102.359C119.58 102.481 119.205 102.542 118.771 102.542ZM124.989 98.1912V99.1161H122.02V98.1912H124.989ZM127.21 97.1447V102.42H126.078V95.8365H127.149L127.21 97.1447ZM126.979 98.8788L126.455 98.8605C126.459 98.4103 126.518 97.9945 126.632 97.6132C126.745 97.2279 126.914 96.8932 127.137 96.6093C127.36 96.3253 127.638 96.1063 127.97 95.9521C128.303 95.7939 128.688 95.7148 129.126 95.7148C129.435 95.7148 129.719 95.7595 129.978 95.8487C130.238 95.9339 130.463 96.0698 130.654 96.2564C130.844 96.443 130.992 96.6823 131.098 96.9743C131.203 97.2664 131.256 97.6193 131.256 98.033V102.42H130.13V98.0878C130.13 97.743 130.072 97.4672 129.954 97.2603C129.84 97.0534 129.678 96.9033 129.467 96.8101C129.256 96.7127 129.009 96.664 128.725 96.664C128.392 96.664 128.114 96.7228 127.891 96.8405C127.668 96.9581 127.49 97.1204 127.356 97.3272C127.222 97.5341 127.125 97.7714 127.064 98.0391C127.007 98.3028 126.979 98.5827 126.979 98.8788ZM131.244 98.2582L130.489 98.4894C130.493 98.1284 130.552 97.7815 130.666 97.4489C130.783 97.1163 130.952 96.8202 131.171 96.5606C131.394 96.301 131.668 96.0961 131.992 95.9461C132.317 95.7919 132.688 95.7148 133.106 95.7148C133.459 95.7148 133.771 95.7615 134.043 95.8548C134.319 95.9481 134.55 96.0921 134.736 96.2868C134.927 96.4774 135.071 96.7228 135.168 97.023C135.266 97.3232 135.314 97.6801 135.314 98.0939V102.42H134.183V98.0817C134.183 97.7126 134.124 97.4266 134.006 97.2238C133.893 97.0169 133.73 96.8729 133.519 96.7918C133.313 96.7066 133.065 96.664 132.777 96.664C132.53 96.664 132.311 96.7066 132.12 96.7918C131.929 96.877 131.769 96.9946 131.639 97.1447C131.51 97.2907 131.41 97.4591 131.341 97.6497C131.276 97.8404 131.244 98.0432 131.244 98.2582ZM140.9 101.294V97.9053C140.9 97.6457 140.847 97.4205 140.742 97.2299C140.64 97.0352 140.486 96.8851 140.279 96.7796C140.072 96.6742 139.817 96.6214 139.513 96.6214C139.229 96.6214 138.979 96.6701 138.764 96.7675C138.553 96.8648 138.387 96.9926 138.265 97.1508C138.148 97.309 138.089 97.4793 138.089 97.6619H136.963C136.963 97.4266 137.024 97.1934 137.146 96.9622C137.267 96.731 137.442 96.5221 137.669 96.3355C137.9 96.1448 138.176 95.9947 138.496 95.8852C138.821 95.7716 139.182 95.7148 139.58 95.7148C140.058 95.7148 140.48 95.796 140.845 95.9582C141.214 96.1205 141.502 96.3659 141.709 96.6944C141.92 97.019 142.025 97.4266 142.025 97.9174V100.984C142.025 101.203 142.044 101.436 142.08 101.684C142.121 101.931 142.18 102.144 142.257 102.323V102.42H141.082C141.026 102.29 140.981 102.118 140.949 101.903C140.916 101.684 140.9 101.481 140.9 101.294ZM141.095 98.4285L141.107 99.2195H139.969C139.648 99.2195 139.363 99.2459 139.111 99.2986C138.86 99.3473 138.649 99.4223 138.478 99.5237C138.308 99.6251 138.178 99.7529 138.089 99.907C138 100.057 137.955 100.234 137.955 100.436C137.955 100.643 138.002 100.832 138.095 101.002C138.188 101.173 138.328 101.308 138.515 101.41C138.705 101.507 138.939 101.556 139.214 101.556C139.559 101.556 139.863 101.483 140.127 101.337C140.391 101.191 140.6 101.012 140.754 100.801C140.912 100.591 140.997 100.386 141.009 100.187L141.49 100.728C141.462 100.899 141.385 101.087 141.259 101.294C141.133 101.501 140.965 101.7 140.754 101.891C140.547 102.077 140.3 102.233 140.012 102.359C139.728 102.481 139.407 102.542 139.05 102.542C138.604 102.542 138.213 102.454 137.876 102.28C137.543 102.106 137.284 101.872 137.097 101.58C136.915 101.284 136.823 100.954 136.823 100.588C136.823 100.236 136.892 99.9253 137.03 99.6576C137.168 99.3858 137.367 99.1607 137.626 98.9822C137.886 98.7997 138.198 98.6618 138.563 98.5685C138.928 98.4752 139.336 98.4285 139.786 98.4285H141.095ZM145.019 95.8365V102.42H143.887V95.8365H145.019ZM143.802 94.0903C143.802 93.9078 143.857 93.7536 143.966 93.6279C144.08 93.5021 144.246 93.4393 144.465 93.4393C144.68 93.4393 144.845 93.5021 144.958 93.6279C145.076 93.7536 145.135 93.9078 145.135 94.0903C145.135 94.2647 145.076 94.4148 144.958 94.5405C144.845 94.6622 144.68 94.7231 144.465 94.7231C144.246 94.7231 144.08 94.6622 143.966 94.5405C143.857 94.4148 143.802 94.2647 143.802 94.0903ZM148.049 93.0742V102.42H146.917V93.0742H148.049ZM151.195 93.561L151.116 99.9192H150.1L150.014 93.561H151.195ZM149.978 101.854C149.978 101.672 150.033 101.517 150.142 101.392C150.256 101.266 150.422 101.203 150.641 101.203C150.856 101.203 151.02 101.266 151.134 101.392C151.252 101.517 151.31 101.672 151.31 101.854C151.31 102.028 151.252 102.179 151.134 102.304C151.02 102.43 150.856 102.493 150.641 102.493C150.422 102.493 150.256 102.43 150.142 102.304C150.033 102.179 149.978 102.028 149.978 101.854Z" fill="black"/>
<rect x="54.166" y="119.881" width="85.6692" height="33.5762" rx="3.89405" fill="#0a5888"/>
<path d="M95.7594 136.034V136.453C95.7594 137.127 95.6681 137.731 95.4855 138.267C95.303 138.802 95.0454 139.258 94.7128 139.636C94.3802 140.009 93.9827 140.295 93.5203 140.493C93.0619 140.692 92.5528 140.792 91.9931 140.792C91.4374 140.792 90.9283 140.692 90.4659 140.493C90.0075 140.295 89.61 140.009 89.2733 139.636C88.9366 139.258 88.675 138.802 88.4884 138.267C88.3059 137.731 88.2146 137.127 88.2146 136.453V136.034C88.2146 135.356 88.3059 134.752 88.4884 134.22C88.671 133.685 88.9285 133.229 89.2611 132.851C89.5978 132.474 89.9953 132.186 90.4537 131.987C90.9161 131.789 91.4252 131.689 91.9809 131.689C92.5407 131.689 93.0497 131.789 93.5081 131.987C93.9705 132.186 94.368 132.474 94.7007 132.851C95.0373 133.229 95.2969 133.685 95.4795 134.22C95.6661 134.752 95.7594 135.356 95.7594 136.034ZM93.9158 136.453V136.021C93.9158 135.551 93.8732 135.137 93.788 134.78C93.7028 134.423 93.5771 134.123 93.4107 133.88C93.2444 133.636 93.0416 133.454 92.8023 133.332C92.563 133.206 92.2892 133.143 91.9809 133.143C91.6726 133.143 91.3988 133.206 91.1595 133.332C90.9242 133.454 90.7234 133.636 90.5571 133.88C90.3949 134.123 90.2712 134.423 90.186 134.78C90.1008 135.137 90.0582 135.551 90.0582 136.021V136.453C90.0582 136.92 90.1008 137.334 90.186 137.695C90.2712 138.052 90.3969 138.354 90.5632 138.601C90.7295 138.845 90.9323 139.029 91.1717 139.155C91.411 139.281 91.6848 139.344 91.9931 139.344C92.3013 139.344 92.5752 139.281 92.8145 139.155C93.0538 139.029 93.2546 138.845 93.4168 138.601C93.5791 138.354 93.7028 138.052 93.788 137.695C93.8732 137.334 93.9158 136.92 93.9158 136.453ZM98.7164 131.318V140.67H96.9641V131.318H98.7164ZM102.866 134.087L100.006 137.348L98.473 138.899L97.8342 137.634L99.051 136.088L100.761 134.087H102.866ZM101.047 140.67L99.0997 137.628L100.311 136.569L103.067 140.67H101.047ZM105.598 131.811L105.397 137.962H103.937L103.73 131.811H105.598ZM103.681 139.867C103.681 139.607 103.771 139.392 103.949 139.222C104.132 139.047 104.371 138.96 104.667 138.96C104.967 138.96 105.206 139.047 105.385 139.222C105.563 139.392 105.653 139.607 105.653 139.867C105.653 140.118 105.563 140.331 105.385 140.506C105.206 140.68 104.967 140.767 104.667 140.767C104.371 140.767 104.132 140.68 103.949 140.506C103.771 140.331 103.681 140.118 103.681 139.867Z" fill="white"/>
</g>
<defs>
<filter id="filter0_d_7121_42654" x="0.427718" y="0.769515" width="193.145" height="176.012" filterUnits="userSpaceOnUse" color-interpolation-filters="sRGB">
<feFlood flood-opacity="0" result="BackgroundImageFix"/>
<feColorMatrix in="SourceAlpha" type="matrix" values="0 0 0 0 0 0 0 0 0 0 0 0 0 0 0 0 0 0 127 0" result="hardAlpha"/>
<feOffset/>
<feGaussianBlur stdDeviation="3.11524"/>
<feColorMatrix type="matrix" values="0 0 0 0 0 0 0 0 0 0 0 0 0 0 0 0 0 0 0.25 0"/>
<feBlend mode="normal" in2="BackgroundImageFix" result="effect1_dropShadow_7121_42654"/>
<feBlend mode="normal" in="SourceGraphic" in2="effect1_dropShadow_7121_42654" result="shape"/>
</filter>
</defs>
</svg>
