<svg width="20" height="20" viewBox="0 0 24 24" fill="none" xmlns="http://www.w3.org/2000/svg">
<path d="M7.57809 24H14.3151L16.4206 21.8946H9.68504V18.1044H10.9481L13.0534 16.0005H8.00003V10.9473L5.89607 13.0527V14.3156H2.10553V7.57901L0 9.6844V16.421H3.79046V20.2097H7.5795V24" fill="#34403B"/>
<path d="M15.1575 8.8418V3.7901L17.263 1.68475V6.73642H22.3165L20.2095 8.8418H15.1575Z" fill="#34403B"/>
<path d="M9.68481 1.68452H7.99831V6.7362L13.0518 6.73794L10.9463 8.8418H5.89435V7.58039L3.78882 7.57864V5.89375L9.68481 -0.000375748V1.68453" fill="#34403B"/>
<path d="M22.3165 16.0007V14.3158H24L18.1056 20.21H16.4205V18.1046H15.1575V13.0529L17.263 10.9475V16.0007H22.3165Z" fill="#34403B"/>
</svg>
