<svg width="22" height="22" viewBox="0 0 22 22" fill="none" xmlns="http://www.w3.org/2000/svg">
<path fill-rule="evenodd" clip-rule="evenodd" d="M8.97047 15.8405L6.82967 14.4053L17.0105 7.5413L10.7225 3.3077L7.76567 5.2949L10.0601 6.8165L4.77047 10.3541L0.335275 7.4261L11.0153 0.3125L21.6089 7.3973L8.97047 15.8405ZM12.9881 6.1013L15.1289 7.5365L4.94807 14.4005L11.2505 18.6293L14.2073 16.6421L11.9129 15.1349L17.2169 11.5973L21.6521 14.5253L10.9481 21.6245L0.378475 14.5685L12.9881 6.1013ZM4.68887 18.8117L2.50487 17.3189L0.296875 18.8117L0.325675 21.6869L4.68887 18.8117ZM17.3705 3.2405L19.5689 4.7333L21.7049 3.3077V0.3653L17.3705 3.2405Z" fill="#FFC629"/>
</svg>
