<svg width="18" height="18" viewBox="0 0 18 18" fill="none" xmlns="http://www.w3.org/2000/svg">
<path d="M4.24953 12.5367C4.05933 12.5502 3.82531 12.5141 3.59307 12.5544C3.56326 12.5597 3.55084 12.5367 3.53505 12.5218C2.90609 11.8926 2.26596 11.2743 1.65296 10.6299C1.15707 10.1087 0.963323 9.46692 1.0334 8.75014C1.09071 8.16464 1.33999 7.66911 1.75746 7.25465C2.34059 6.67578 2.92153 6.09455 3.50027 5.51095C3.54782 5.46322 3.58899 5.43377 3.65995 5.45772C3.69171 5.4689 3.73004 5.46269 3.76552 5.46287C4.11114 5.46464 4.45746 5.45968 4.80273 5.46943C5.23528 5.4815 5.60112 5.65626 5.90523 5.96071C6.69132 6.74634 7.47724 7.53225 8.26298 8.31847C8.75248 8.8078 9.45064 8.80851 9.94316 8.3174C10.6193 7.6432 11.2947 6.96835 11.9695 6.29285C12.1432 6.12022 12.303 5.9325 12.5028 5.7872C12.7911 5.57748 13.1149 5.47493 13.4696 5.47014C13.7416 5.46642 14.0152 5.48789 14.2848 5.46216C14.43 5.44868 14.5029 5.50918 14.5888 5.59558C15.1782 6.18923 15.7775 6.7733 16.3582 7.37512C16.7189 7.74877 16.9158 8.21042 16.9683 8.72849C17.0487 9.52156 16.7987 10.1961 16.2336 10.7575C15.6529 11.3348 15.074 11.9139 14.4969 12.4946C14.4589 12.5326 14.4273 12.5572 14.3677 12.5349C14.3285 12.5202 14.2801 12.5306 14.2357 12.5296C13.9163 12.5214 13.597 12.5487 13.279 12.5136C12.9145 12.4769 12.5742 12.3142 12.3167 12.0535C11.5374 11.278 10.7602 10.5003 9.98521 9.72063C9.75687 9.48998 9.49393 9.34538 9.16907 9.32942C8.82913 9.31274 8.52893 9.41671 8.28498 9.65995C7.49805 10.4452 6.7122 11.2312 5.9274 12.0179C5.58001 12.3672 5.16449 12.5418 4.67339 12.5365C4.54618 12.5356 4.41914 12.5367 4.24953 12.5367Z" stroke="#34403B" stroke-width="0.473684" stroke-miterlimit="10"/>
<path d="M13.7409 4.77396C13.7033 4.77396 13.6691 4.77556 13.6345 4.77396C12.8538 4.73351 12.2167 5.0259 11.6752 5.58389C10.9424 6.33899 10.1898 7.07423 9.44572 7.8194C9.2243 8.04082 8.96899 8.04064 8.74668 7.8194C7.9523 7.02526 7.15775 6.2313 6.36302 5.43752C5.91557 4.99396 5.36946 4.77414 4.74015 4.76331C4.58384 4.76047 4.42753 4.76331 4.2698 4.76331C4.26643 4.72783 4.29517 4.71594 4.31203 4.69926C5.31269 3.69754 6.30802 2.6905 7.31737 1.69747C7.84964 1.17337 8.5061 0.960637 9.25127 1.03338C9.83108 1.09016 10.3222 1.335 10.7333 1.74715C11.715 2.73042 12.6971 3.71304 13.6797 4.69501C13.7014 4.71417 13.732 4.73014 13.7409 4.77396Z" stroke="#34403B" stroke-width="0.473684" stroke-miterlimit="10"/>
<path d="M4.27219 13.2395C4.30643 13.2395 4.34102 13.2374 4.37509 13.2395C5.28402 13.3091 6.01251 12.9773 6.63296 12.3104C7.31088 11.5815 8.03459 10.8963 8.73966 10.192C8.97031 9.96132 9.22934 9.96238 9.46035 10.1932C10.2273 10.9603 10.994 11.7275 11.7604 12.4949C12.1245 12.8611 12.5507 13.1047 13.0617 13.1945C13.1748 13.2155 13.2896 13.2261 13.4046 13.2262C13.516 13.2262 13.6274 13.2262 13.7401 13.2262C13.7401 13.2647 13.713 13.2766 13.6958 13.294C12.6931 14.2975 11.6951 15.306 10.6847 16.3015C10.1525 16.8263 9.49707 17.0408 8.75314 16.97C8.16339 16.9139 7.66768 16.6611 7.25038 16.2426C6.28509 15.2727 5.31767 14.3049 4.34813 13.3392C4.32098 13.3121 4.29064 13.2883 4.26172 13.263L4.27219 13.2395Z" stroke="#34403B" stroke-width="0.473684" stroke-miterlimit="10"/>
</svg>
