<svg width="25" height="24" viewBox="0 0 25 24" fill="none" xmlns="http://www.w3.org/2000/svg">
<path fill-rule="evenodd" clip-rule="evenodd" d="M6.5 6H10.5V10H6.5V6Z" stroke="#34403B" stroke-width="1.5" stroke-linecap="round" stroke-linejoin="round"/>
<path fill-rule="evenodd" clip-rule="evenodd" d="M6.5 14H10.5V18H6.5V14Z" stroke="#34403B" stroke-width="1.5" stroke-linecap="round" stroke-linejoin="round"/>
<path fill-rule="evenodd" clip-rule="evenodd" d="M18.5 10H14.5V6L18.5 6V10Z" stroke="#34403B" stroke-width="1.5" stroke-linecap="round" stroke-linejoin="round"/>
<path d="M16.5354 15.9646C16.5549 15.9842 16.5549 16.0158 16.5354 16.0354C16.5158 16.0549 16.4842 16.0549 16.4646 16.0354C16.4451 16.0158 16.4451 15.9842 16.4646 15.9646C16.4842 15.9451 16.5158 15.9451 16.5354 15.9646" stroke="#34403B" stroke-width="1.5" stroke-linecap="round" stroke-linejoin="round"/>
<path d="M14.5354 13.9646C14.5549 13.9842 14.5549 14.0158 14.5354 14.0354C14.5158 14.0549 14.4842 14.0549 14.4646 14.0354C14.4451 14.0158 14.4451 13.9842 14.4646 13.9646C14.4842 13.9451 14.5158 13.9451 14.5354 13.9646" stroke="#34403B" stroke-width="1.5" stroke-linecap="round" stroke-linejoin="round"/>
<path d="M14.5354 17.9646C14.5549 17.9842 14.5549 18.0158 14.5354 18.0354C14.5158 18.0549 14.4842 18.0549 14.4646 18.0354C14.4451 18.0158 14.4451 17.9842 14.4646 17.9646C14.4842 17.9451 14.5158 17.9451 14.5354 17.9646" stroke="#34403B" stroke-width="1.5" stroke-linecap="round" stroke-linejoin="round"/>
<path d="M18.5354 17.9646C18.5549 17.9842 18.5549 18.0158 18.5354 18.0354C18.5158 18.0549 18.4842 18.0549 18.4646 18.0354C18.4451 18.0158 18.4451 17.9842 18.4646 17.9646C18.4842 17.9451 18.5158 17.9451 18.5354 17.9646" stroke="#34403B" stroke-width="1.5" stroke-linecap="round" stroke-linejoin="round"/>
<path d="M22.0014 7.978V4.5C22.0014 3.395 21.1064 2.5 20.0014 2.5H16.5234" stroke="#34403B" stroke-width="1.5" stroke-linecap="round" stroke-linejoin="round"/>
<path d="M8.478 2.5H5C3.895 2.5 3 3.395 3 4.5V7.978" stroke="#34403B" stroke-width="1.5" stroke-linecap="round" stroke-linejoin="round"/>
<path d="M3 16.0234V19.5014C3 20.6064 3.895 21.5014 5 21.5014H8.478" stroke="#34403B" stroke-width="1.5" stroke-linecap="round" stroke-linejoin="round"/>
<path d="M16.5234 21.5014H20.0014C21.1064 21.5014 22.0014 20.6064 22.0014 19.5014V16.0234" stroke="#34403B" stroke-width="1.5" stroke-linecap="round" stroke-linejoin="round"/>
<path d="M18.5354 13.9646C18.5549 13.9842 18.5549 14.0158 18.5354 14.0354C18.5158 14.0549 18.4842 14.0549 18.4646 14.0354C18.4451 14.0158 18.4451 13.9842 18.4646 13.9646C18.4842 13.9451 18.5158 13.9451 18.5354 13.9646" stroke="#34403B" stroke-width="1.5" stroke-linecap="round" stroke-linejoin="round"/>
</svg>
