<svg width="22" height="20" viewBox="0 0 22 20" fill="none" xmlns="http://www.w3.org/2000/svg">
<path d="M11.3731 0.328125C11.3059 0.928125 11.3347 1.56652 11.5075 2.08012C11.7379 2.77612 12.0595 3.27533 13.2355 4.80653C14.4787 6.41933 14.8723 7.00493 15.1699 7.84493C15.4099 8.53133 15.4147 8.92492 15.3139 9.54412C16.3987 9.75053 18.1843 10.3265 19.3795 11.0465C20.4883 11.7281 21.2947 12.6113 21.5875 13.4705C21.7603 13.9793 21.7555 14.7617 21.5683 15.2561C21.3907 15.7265 21.1459 16.1201 20.7859 16.5185C19.3555 18.0833 16.5235 19.2113 13.1155 19.5665C12.3619 19.6481 10.5139 19.7009 9.88028 19.6673C5.32508 19.4033 1.66268 17.8289 0.621085 15.6881C0.189085 14.8001 0.198685 14.0321 0.654685 13.1537C1.02908 12.4289 2.06588 11.5313 3.28028 10.8737C4.44668 10.3121 5.54588 9.88973 6.72188 9.55853C6.77948 10.3265 8.27708 12.1601 8.77148 12.8081C9.85148 14.2193 10.2787 14.8961 10.5811 15.4337C10.7635 15.7601 10.8691 15.9665 10.8163 16.5809C10.8163 16.5809 11.2339 16.2065 11.3875 15.8849C11.5891 15.4721 11.6611 15.0497 11.6227 14.5121C11.5747 13.8641 11.4643 13.4657 11.1571 12.8273C10.8547 12.2081 10.4227 11.5841 9.60188 10.5761C8.44028 9.15053 8.01308 8.36812 7.83548 7.35053C7.63868 6.22253 7.95548 5.02253 8.60348 4.43693C8.74268 4.31213 8.97308 4.18732 8.97308 4.18732C8.97308 4.18732 8.95388 4.48012 8.95388 4.80653C8.95388 5.50733 9.03548 5.86732 9.29948 6.40013C9.63068 7.06253 10.0915 7.67693 11.5075 9.36172C12.7603 10.8497 13.1443 11.6081 13.1443 12.5489C13.1443 12.7697 13.1443 13.0049 13.1443 13.0049C13.1443 13.0049 13.4755 12.7553 13.6291 12.5201C14.1139 11.7905 14.1907 10.6481 13.8211 9.63532C13.5667 8.94413 13.1587 8.31053 11.9443 6.78893C10.7011 5.24813 10.1827 4.00493 10.1827 2.96813C10.1827 1.93132 10.4083 0.947325 11.3731 0.328125Z" fill="#E51420"/>
</svg>
