<svg width="25" height="24" viewBox="0 0 25 24" fill="none" xmlns="http://www.w3.org/2000/svg">
<path d="M2.99999 12.0019V12C2.99999 9.48044 4.00088 7.06408 5.78247 5.28249C6.66463 4.40033 7.7119 3.70056 8.8645 3.22314C10.0171 2.74572 11.2524 2.5 12.5 2.5C15.0195 2.5 17.4359 3.50089 19.2175 5.28249C20.9991 7.06408 22 9.48044 22 12C22 14.5196 20.9991 16.9359 19.2175 18.7175C17.4359 20.4991 15.0195 21.5 12.5 21.5H3.49999H3.48947L3.47895 21.5004C3.37996 21.5046 3.28195 21.4793 3.19738 21.4276C3.11526 21.3775 3.0494 21.3048 3.00763 21.2182C2.97202 21.1293 2.96269 21.032 2.98083 20.9378C2.99943 20.8412 3.04607 20.7523 3.1149 20.6822C3.11523 20.6819 3.11556 20.6815 3.11589 20.6812L5.11354 18.6836L5.43476 18.3623L5.14573 18.0119C3.7508 16.3205 2.99168 14.1943 2.99999 12.0019ZM12.5 20.5H12.5004C14.4668 20.4985 16.3719 19.8152 17.891 18.5665C19.4101 17.3179 20.4494 15.5811 20.8316 13.6522C21.2138 11.7233 20.9154 9.72148 19.9872 7.98788C19.059 6.25429 17.5585 4.89615 15.7412 4.14485C13.924 3.39354 11.9024 3.29556 10.0211 3.8676C8.13966 4.43963 6.5148 5.64629 5.42331 7.28199C4.33182 8.91769 3.84123 10.8812 4.03512 12.8381C4.229 14.7949 5.09538 16.624 6.48663 18.0138L6.49004 18.0171C6.58315 18.1084 6.6369 18.2323 6.63995 18.3625C6.63909 18.4271 6.62572 18.4909 6.60057 18.5505C6.57482 18.6114 6.53724 18.6666 6.48999 18.7129L6.48997 18.7129L6.48643 18.7164L5.55643 19.6464L4.70288 20.5H5.90999H12.5ZM8.2222 11.5843C8.30443 11.5293 8.4011 11.5 8.49999 11.5C8.6326 11.5 8.75977 11.5527 8.85354 11.6464C8.94731 11.7402 8.99999 11.8674 8.99999 12C8.99999 12.0989 8.97066 12.1956 8.91572 12.2778C8.86078 12.36 8.78269 12.4241 8.69133 12.4619C8.59997 12.4998 8.49943 12.5097 8.40244 12.4904C8.30545 12.4711 8.21636 12.4235 8.14643 12.3536C8.07651 12.2836 8.02889 12.1945 8.0096 12.0975C7.9903 12.0006 8.0002 11.9 8.03805 11.8087C8.07589 11.7173 8.13998 11.6392 8.2222 11.5843ZM12.2222 11.5843C12.3044 11.5293 12.4011 11.5 12.5 11.5C12.6326 11.5 12.7598 11.5527 12.8535 11.6464C12.9473 11.7402 13 11.8674 13 12C13 12.0989 12.9707 12.1956 12.9157 12.2778C12.8608 12.36 12.7827 12.4241 12.6913 12.4619C12.6 12.4998 12.4994 12.5097 12.4024 12.4904C12.3055 12.4711 12.2164 12.4235 12.1464 12.3536C12.0765 12.2836 12.0289 12.1945 12.0096 12.0975C11.9903 12.0006 12.0002 11.9 12.038 11.8087C12.0759 11.7173 12.14 11.6392 12.2222 11.5843ZM16.2222 11.5843C16.3044 11.5293 16.4011 11.5 16.5 11.5C16.6326 11.5 16.7598 11.5527 16.8535 11.6464C16.9473 11.7402 17 11.8674 17 12C17 12.0989 16.9707 12.1956 16.9157 12.2778C16.8608 12.36 16.7827 12.4241 16.6913 12.4619C16.6 12.4998 16.4994 12.5097 16.4024 12.4904C16.3055 12.4711 16.2164 12.4235 16.1464 12.3536C16.0765 12.2836 16.0289 12.1945 16.0096 12.0975C15.9903 12.0006 16.0002 11.9 16.038 11.8087C16.0759 11.7173 16.14 11.6392 16.2222 11.5843Z" fill="#303030" stroke="#35A936"/>
</svg>
