<svg width="25" height="24" viewBox="0 0 25 24" fill="none" xmlns="http://www.w3.org/2000/svg">
<path d="M19.0043 6.95098L16.6384 3.79657C16.0013 2.94704 14.8115 2.74323 13.9279 3.33227L8.42969 6.99776" stroke="#34403B" stroke-width="1.5" stroke-linecap="round" stroke-linejoin="round"/>
<path fill-rule="evenodd" clip-rule="evenodd" d="M19.0049 11.5H21.506C22.0585 11.5 22.5064 11.9479 22.5064 12.5004V15.5017C22.5064 16.0542 22.0585 16.5021 21.506 16.5021H19.0049C17.6237 16.5021 16.5039 15.3823 16.5039 14.001V14.001C16.5039 12.6198 17.6237 11.5 19.0049 11.5V11.5Z" stroke="#34403B" stroke-width="1.5" stroke-linecap="round" stroke-linejoin="round"/>
<path d="M21.5036 11.5019V9.50104C21.5036 8.11975 20.3838 7 19.0026 7H5.99714C4.61585 7 3.49609 8.11975 3.49609 9.50104V18.5048C3.49609 19.8861 4.61585 21.0058 5.99714 21.0058H19.0026C20.3838 21.0058 21.5036 19.8861 21.5036 18.5048V16.504" stroke="#34403B" stroke-width="1.5" stroke-linecap="round" stroke-linejoin="round"/>
</svg>
