<svg width="70" height="60" viewBox="0 0 70 60" fill="none" xmlns="http://www.w3.org/2000/svg">
<g clip-path="url(#clip0_7121_34304)">
<path d="M30.2317 14.9756H0V53.5023H30.2317V14.9756Z" fill="#F0F0F0"/>
<path d="M29.1617 16.3789H1.06787V24.618H29.1617V16.3789Z" fill="#E0E0E0"/>
<path d="M2.66308 17.7124H1.06787V24.6162H2.66308V17.7124Z" fill="#EBEBEB"/>
<path d="M10.3804 17.7124H8.78516V24.6162H10.3804V17.7124Z" fill="#EBEBEB"/>
<path d="M19.1423 17.5398L17.5703 17.8125L18.7356 24.616L20.3076 24.3432L19.1423 17.5398Z" fill="#EBEBEB"/>
<path d="M4.64062 18.624H3.04541V24.6182H4.64062V18.624Z" fill="#EBEBEB"/>
<path d="M8.31005 18.624H6.71484V24.6182H8.31005V18.624Z" fill="#EBEBEB"/>
<path d="M17.5684 18.624H15.9731V24.6182H17.5684V18.624Z" fill="#EBEBEB"/>
<path d="M12.4781 18.4173L10.9209 18.7656L12.2131 24.617L13.7703 24.2687L12.4781 18.4173Z" fill="#EBEBEB"/>
<path d="M6.02173 17.3701H5.22412V24.6179H6.02173V17.3701Z" fill="#EBEBEB"/>
<path d="M15.5134 17.3701H14.7158V24.6179H15.5134V17.3701Z" fill="#EBEBEB"/>
<path d="M1.06971 34.1616H29.1636V25.9226L1.06971 25.9226V34.1616Z" fill="#E0E0E0"/>
<path d="M27.5664 34.1616H29.1616V27.2578H27.5664V34.1616Z" fill="#EBEBEB"/>
<path d="M19.8511 34.1616H21.4463V27.2578H19.8511V34.1616Z" fill="#EBEBEB"/>
<path d="M9.92553 33.887L11.4976 34.1597L12.6628 27.3562L11.0908 27.0835L9.92553 33.887Z" fill="#EBEBEB"/>
<path d="M25.5889 34.1616H27.1841V28.1675H25.5889V34.1616Z" fill="#EBEBEB"/>
<path d="M21.9194 34.1616H23.5146V28.1675H21.9194V34.1616Z" fill="#EBEBEB"/>
<path d="M12.6631 34.1616H14.2583V28.1675H12.6631V34.1616Z" fill="#EBEBEB"/>
<path d="M16.4633 33.8138L18.0205 34.1621L19.3127 28.3107L17.7554 27.9624L16.4633 33.8138Z" fill="#EBEBEB"/>
<path d="M24.2102 34.1616H25.0078V26.9138H24.2102V34.1616Z" fill="#EBEBEB"/>
<path d="M14.718 34.1616H15.5156V26.9138H14.718V34.1616Z" fill="#EBEBEB"/>
<path d="M2.66308 27.2559H1.06787V34.1596H2.66308V27.2559Z" fill="#EBEBEB"/>
<path d="M4.64062 28.1655H3.04541V34.1597H4.64062V28.1655Z" fill="#EBEBEB"/>
<path d="M8.31005 28.1655H6.71484V34.1597H8.31005V28.1655Z" fill="#EBEBEB"/>
<path d="M6.02173 26.9136H5.22412V34.1614H6.02173V26.9136Z" fill="#EBEBEB"/>
<path d="M29.1617 35.4653H1.06787V43.7044H29.1617V35.4653Z" fill="#E0E0E0"/>
<path d="M18.7891 36.7988H17.1938V43.7026H18.7891V36.7988Z" fill="#EBEBEB"/>
<path d="M27.5505 36.6257L25.9785 36.8984L27.1438 43.7019L28.7158 43.4292L27.5505 36.6257Z" fill="#EBEBEB"/>
<path d="M13.0493 37.708H11.4541V43.7022H13.0493V37.708Z" fill="#EBEBEB"/>
<path d="M16.7168 37.708H15.1216V43.7022H16.7168V37.708Z" fill="#EBEBEB"/>
<path d="M25.977 37.708H24.3818V43.7022H25.977V37.708Z" fill="#EBEBEB"/>
<path d="M20.8858 37.5008L19.3286 37.8491L20.6208 43.7005L22.178 43.3522L20.8858 37.5008Z" fill="#EBEBEB"/>
<path d="M14.4304 36.4565H13.6328V43.7044H14.4304V36.4565Z" fill="#EBEBEB"/>
<path d="M23.9221 36.4565H23.1245V43.7044H23.9221V36.4565Z" fill="#EBEBEB"/>
<path d="M9.19068 36.6257L7.61865 36.8984L8.78389 43.7019L10.3559 43.4292L9.19068 36.6257Z" fill="#EBEBEB"/>
<path d="M7.61669 37.708H6.02148V43.7022H7.61669V37.708Z" fill="#EBEBEB"/>
<path d="M2.5245 37.5023L0.967285 37.8506L2.25944 43.702L3.81665 43.3537L2.5245 37.5023Z" fill="#EBEBEB"/>
<path d="M5.56177 36.4565H4.76416V43.7044H5.56177V36.4565Z" fill="#EBEBEB"/>
<path d="M46.1838 30.5054H63.2193C65.0675 30.5054 66.5662 32.0136 66.5662 33.8737V47.2614H42.8389V33.8737C42.8389 32.0136 44.3375 30.5054 46.1857 30.5054H46.1838Z" fill="#E6E6E6"/>
<path d="M37.8002 40.4297H40.8497C41.9486 40.4297 42.8389 41.3257 42.8389 42.4316V53.5045H35.813V42.4316C35.813 41.3257 36.7033 40.4297 37.8022 40.4297H37.8002Z" fill="#E0E0E0"/>
<path d="M37.8002 40.4297H37.864C38.9629 40.4297 39.8532 41.3257 39.8532 42.4316V53.5045H35.813V42.4316C35.813 41.3257 36.7033 40.4297 37.8022 40.4297H37.8002Z" fill="#EBEBEB"/>
<path d="M64.0848 48.416H40.7051V53.5025H64.0848V48.416Z" fill="#E6E6E6"/>
<path d="M63.2192 43.7646H40.6719C39.5552 43.7646 38.6499 44.6757 38.6499 45.7996V47.0649C38.6499 48.1888 39.5552 49.0999 40.6719 49.0999H63.2192C64.336 49.0999 65.2413 48.1888 65.2413 47.0649V45.7996C65.2413 44.6757 64.336 43.7646 63.2192 43.7646Z" fill="#F5F5F5"/>
<path d="M63.1808 43.7646H60.3863C59.2695 43.7646 58.3643 44.6757 58.3643 45.7996V47.0649C58.3643 48.1888 59.2695 49.0999 60.3863 49.0999H63.1808C64.2975 49.0999 65.2028 48.1888 65.2028 47.0649V45.7996C65.2028 44.6757 64.2975 43.7646 63.1808 43.7646Z" fill="#E0E0E0"/>
<path d="M63.4838 40.4297H66.5333C67.6322 40.4297 68.5225 41.3257 68.5225 42.4316V53.5045H61.4966V42.4316C61.4966 41.3257 62.3869 40.4297 63.4858 40.4297H63.4838Z" fill="#E0E0E0"/>
<path d="M63.4838 40.4297H63.5476C64.6464 40.4297 65.5368 41.3257 65.5368 42.4316V53.5045H61.4966V42.4316C61.4966 41.3257 62.3869 40.4297 63.4858 40.4297H63.4838Z" fill="#F0F0F0"/>
<path d="M16.2427 10.2916C18.7221 9.88658 20.4057 7.53539 20.0033 5.0401C19.6008 2.54481 17.2646 0.850332 14.7852 1.25537C12.3058 1.66042 10.6222 4.0116 11.0246 6.50689C11.4271 9.00218 13.7633 10.6967 16.2427 10.2916Z" fill="#E0E0E0"/>
<path d="M16.1336 9.61652C18.2424 9.27202 19.6744 7.27226 19.3321 5.14994C18.9898 3.02762 17.0028 1.58641 14.894 1.93091C12.7852 2.27541 11.3532 4.27517 11.6955 6.39749C12.0378 8.51981 14.0248 9.96102 16.1336 9.61652Z" fill="#F0F0F0"/>
<path d="M15.3317 8.44521V5.72412L13.5396 6.74453" fill="#F0F0F0"/>
<path d="M15.3317 8.44521V5.72412L13.5396 6.74453" stroke="#E0E0E0" stroke-width="2" stroke-linecap="round" stroke-linejoin="round"/>
<path d="M69.9998 0H40.8862V26H69.9998V0Z" fill="#E6E6E6"/>
<path d="M69.235 0.713379H41.6162V25.3023H69.235V0.713379Z" fill="#F0F0F0"/>
<path d="M48.0975 0.713379L41.6162 25.2479V13.7182L45.0384 0.713379H48.0975Z" fill="white"/>
<path d="M50.3936 0.713379L43.8544 25.3023H42.8115L49.3488 0.713379H50.3936Z" fill="white"/>
<path d="M69.2349 16.2275V20.1576L67.9101 25.3024H66.8672L69.2349 16.2275Z" fill="white"/>
<path d="M51.2491 0.27002H50.7837V25.8502H51.2491V0.27002Z" fill="#E6E6E6"/>
<path d="M60.2643 0.27002H59.7988V25.8502H60.2643V0.27002Z" fill="#E6E6E6"/>
<path d="M64.8414 55.3063C64.8414 55.3063 65.7587 53.2927 64.7101 51.3063C63.6614 49.3199 63.3582 48.8534 64.0264 48.4452C64.6946 48.0371 65.0017 50.0332 65.0017 50.0332C65.0017 50.0332 65.5656 48.661 65.1002 47.2246C64.6347 45.7883 64.3431 43.4481 64.9785 43.1974C65.6139 42.9467 65.1002 46.1168 65.6506 47.1974C65.6506 47.1974 66.1141 45.9943 66.1894 44.8398C66.2647 43.6853 66.1469 41.8427 66.649 41.3704C67.1512 40.8981 67.4717 41.2246 66.9793 43.7708C66.4868 46.3169 66.4907 48.3869 66.4907 48.3869C66.4907 48.3869 67.5799 45.0458 68.3099 44.9486C69.0399 44.8514 69.0399 45.9321 68.4142 46.8709C67.7885 47.8097 66.5834 49.4909 66.3845 50.3558C66.3845 50.3558 67.5799 47.8427 68.6537 48.6124C69.7294 49.3821 67.7189 50.902 66.8228 51.4501C65.9268 51.9982 65.3049 55.4384 65.3049 55.4384L64.8433 55.3063H64.8414Z" fill="#407BFF"/>
<path opacity="0.2" d="M64.8414 55.3063C64.8414 55.3063 65.7587 53.2927 64.7101 51.3063C63.6614 49.3199 63.3582 48.8534 64.0264 48.4452C64.6946 48.0371 65.0017 50.0332 65.0017 50.0332C65.0017 50.0332 65.5656 48.661 65.1002 47.2246C64.6347 45.7883 64.3431 43.4481 64.9785 43.1974C65.6139 42.9467 65.1002 46.1168 65.6506 47.1974C65.6506 47.1974 66.1141 45.9943 66.1894 44.8398C66.2647 43.6853 66.1469 41.8427 66.649 41.3704C67.1512 40.8981 67.4717 41.2246 66.9793 43.7708C66.4868 46.3169 66.4907 48.3869 66.4907 48.3869C66.4907 48.3869 67.5799 45.0458 68.3099 44.9486C69.0399 44.8514 69.0399 45.9321 68.4142 46.8709C67.7885 47.8097 66.5834 49.4909 66.3845 50.3558C66.3845 50.3558 67.5799 47.8427 68.6537 48.6124C69.7294 49.3821 67.7189 50.902 66.8228 51.4501C65.9268 51.9982 65.3049 55.4384 65.3049 55.4384L64.8433 55.3063H64.8414Z" fill="black"/>
<path d="M65.5658 56.1323C65.5658 56.1323 64.6717 54.1051 65.7435 52.1343C66.8154 50.1634 67.1244 49.7008 66.462 49.2849C65.7995 48.869 65.4693 50.8592 65.4693 50.8592C65.4693 50.8592 64.9227 49.4773 65.4056 48.0487C65.8884 46.6182 66.207 44.2839 65.5755 44.0235C64.944 43.763 65.4191 46.9409 64.8552 48.0118C64.8552 48.0118 64.4071 46.8029 64.3434 45.6464C64.2796 44.4899 64.4226 42.6513 63.9262 42.1712C63.4299 41.6911 63.1054 42.0138 63.567 44.5677C64.0286 47.1216 64.0015 49.1916 64.0015 49.1916C64.0015 49.1916 62.9529 45.8349 62.2229 45.7261C61.4928 45.6172 61.4813 46.6999 62.0954 47.6464C62.7095 48.5949 63.8953 50.2936 64.0827 51.1605C64.0827 51.1605 62.9181 48.6299 61.8347 49.384C60.7512 50.1381 62.7424 51.6872 63.6327 52.2489C64.523 52.8106 65.1024 56.2586 65.1024 56.2586L65.5658 56.1323Z" fill="#407BFF"/>
<path d="M61.4463 54.686H68.8256L68.2288 59.9999H62.043L61.4463 54.686Z" fill="#263238"/>
<path d="M34.0788 59.1468V59.8446C34.0788 59.9321 34.0093 60.0001 33.9224 60.0001H14.3357C13.6115 60.0001 13.1171 59.2634 13.3875 58.589L19.5945 43.1177L29.6254 43.1857L29.2836 45.1935L27.0703 58.1867C26.9989 58.6065 27.3195 58.9894 27.7424 58.9894H33.9224C34.0093 58.9894 34.0788 59.0574 34.0788 59.1449V59.1468Z" fill="#263238"/>
<path opacity="0.5" d="M34.0788 59.1468V59.8446C34.0788 59.9321 34.0093 60.0001 33.9224 60.0001H14.3357C13.6115 60.0001 13.1171 59.2634 13.3875 58.589L17.2364 48.9991L19.5945 43.1177L29.6254 43.1857L29.2836 45.1935L28.3218 50.8436L27.0723 58.1847C27.0008 58.6046 27.3214 58.9874 27.7444 58.9874H33.9243C34.0113 58.9874 34.0808 59.0555 34.0808 59.1429L34.0788 59.1468Z" fill="white"/>
<path opacity="0.2" d="M27.7403 58.9912H14.996C14.6773 58.9912 14.461 58.6647 14.5827 58.3693L20.025 45.1973H29.2814L27.0682 58.1905C26.9968 58.6103 27.3174 58.9932 27.7403 58.9932V58.9912Z" fill="black"/>
<path opacity="0.1" d="M29.6233 43.1877L29.2815 45.1954L28.3197 50.8456L17.2344 48.9991L19.5944 43.1196L29.6233 43.1877Z" fill="black"/>
<path d="M49.129 14.3481H2.69211C2.03549 14.3481 1.50439 14.8826 1.50439 15.5435V47.182C1.50439 47.8428 2.03549 48.3773 2.69211 48.3773H49.129C49.7856 48.3773 50.3167 47.8428 50.3167 47.182V15.5435C50.3167 14.8826 49.7837 14.3481 49.129 14.3481Z" fill="#263238"/>
<path opacity="0.6" d="M49.129 14.3481H2.69211C2.03549 14.3481 1.50439 14.8826 1.50439 15.5435V47.182C1.50439 47.8428 2.03549 48.3773 2.69211 48.3773H49.129C49.7856 48.3773 50.3167 47.8428 50.3167 47.182V15.5435C50.3167 14.8826 49.7837 14.3481 49.129 14.3481Z" fill="white"/>
<path opacity="0.2" d="M3.6751 48.3773H2.69016C2.03547 48.3773 1.50244 47.8428 1.50244 47.182V15.5435C1.50244 14.8826 2.03353 14.3462 2.69016 14.3462H3.6751C3.0204 14.3462 2.48738 14.8807 2.48738 15.5435V47.182C2.48738 47.8408 3.01847 48.3773 3.6751 48.3773Z" fill="black"/>
<path d="M49.2466 15.3745H3.55908V45.8837H49.2466V15.3745Z" fill="#407BFF"/>
<path opacity="0.4" d="M25.7724 26.9893C27.9632 26.9893 29.7392 25.202 29.7392 22.9971C29.7392 20.7923 27.9632 19.0049 25.7724 19.0049C23.5817 19.0049 21.8057 20.7923 21.8057 22.9971C21.8057 25.202 23.5817 26.9893 25.7724 26.9893Z" fill="white"/>
<path d="M24.8263 22.3908V22.0177C24.8263 21.6542 25.1198 21.3607 25.479 21.3607H26.0642C26.4253 21.3607 26.717 21.6561 26.717 22.0177V22.3908H27.1399V22.0177C27.1399 21.421 26.6571 20.9351 26.0642 20.9351H25.479C24.8861 20.9351 24.4033 21.421 24.4033 22.0177V22.3908H24.8263Z" fill="white"/>
<path d="M23.8721 22.8808V24.8419C23.8721 24.9624 23.9686 25.0596 24.0884 25.0596H27.4603C27.5801 25.0596 27.6766 24.9624 27.6766 24.8419V22.8808C27.6766 22.7603 27.5801 22.6631 27.4603 22.6631H24.0884C23.9686 22.6631 23.8721 22.7603 23.8721 22.8808ZM25.896 23.9925V24.3774H25.6527V23.9925C25.5832 23.9498 25.5349 23.8759 25.5349 23.7885C25.5349 23.6543 25.643 23.5455 25.7763 23.5455C25.9095 23.5455 26.0177 23.6543 26.0177 23.7885C26.0177 23.8759 25.9694 23.9498 25.8999 23.9925H25.896Z" fill="white"/>
<path d="M16.097 30.2954H12.3504C12.1275 30.2954 11.9468 30.4773 11.9468 30.7016V34.4723C11.9468 34.6966 12.1275 34.8785 12.3504 34.8785H16.097C16.3199 34.8785 16.5007 34.6966 16.5007 34.4723V30.7016C16.5007 30.4773 16.3199 30.2954 16.097 30.2954Z" fill="white"/>
<path d="M21.8714 30.2896H18.1248C17.9019 30.2896 17.7212 30.4714 17.7212 30.6958V34.4664C17.7212 34.6908 17.9019 34.8726 18.1248 34.8726H21.8714C22.0944 34.8726 22.2751 34.6908 22.2751 34.4664V30.6958C22.2751 30.4714 22.0944 30.2896 21.8714 30.2896Z" fill="white"/>
<path d="M27.6459 30.2817H23.8992C23.6763 30.2817 23.4956 30.4636 23.4956 30.688V34.4586C23.4956 34.683 23.6763 34.8648 23.8992 34.8648H27.6459C27.8688 34.8648 28.0495 34.683 28.0495 34.4586V30.688C28.0495 30.4636 27.8688 30.2817 27.6459 30.2817Z" fill="white"/>
<path d="M33.4222 30.2759H29.6756C29.4527 30.2759 29.272 30.4577 29.272 30.6821V34.4527C29.272 34.6771 29.4527 34.859 29.6756 34.859H33.4222C33.6451 34.859 33.8259 34.6771 33.8259 34.4527V30.6821C33.8259 30.4577 33.6451 30.2759 33.4222 30.2759Z" fill="white"/>
<path d="M39.1966 30.27H35.45C35.2271 30.27 35.0464 30.4519 35.0464 30.6762V34.4469C35.0464 34.6712 35.2271 34.8531 35.45 34.8531H39.1966C39.4196 34.8531 39.6003 34.6712 39.6003 34.4469V30.6762C39.6003 30.4519 39.4196 30.27 39.1966 30.27Z" fill="white"/>
<path d="M36.3193 32.6511C36.3193 31.8444 36.7481 31.3857 37.3236 31.3857C37.8991 31.3857 38.324 31.8464 38.324 32.6511C38.324 33.4557 37.8952 33.9164 37.3236 33.9164C36.7519 33.9164 36.3193 33.4577 36.3193 32.6511ZM37.9744 32.6511C37.9744 32.0174 37.7079 31.7006 37.3236 31.7006C36.9393 31.7006 36.6708 32.0194 36.6708 32.6511C36.6708 33.2827 36.9373 33.6015 37.3236 33.6015C37.7098 33.6015 37.9744 33.2827 37.9744 32.6511Z" fill="#263238"/>
<path d="M15.1372 32.618C15.1372 33.4635 14.6621 33.9144 13.9746 33.9144C13.7428 33.9144 13.5207 33.8677 13.3643 33.7686L13.4976 33.4926C13.6269 33.5781 13.793 33.6092 13.9726 33.6092C14.4709 33.6092 14.7876 33.2944 14.7876 32.6763V32.5888C14.6428 32.8046 14.384 32.9134 14.0789 32.9134C13.5903 32.9134 13.2388 32.6199 13.2388 32.1632C13.2388 31.7064 13.6173 31.3818 14.1059 31.3818C14.7664 31.3818 15.1391 31.8269 15.1391 32.616L15.1372 32.618ZM14.7046 32.1476C14.7046 31.893 14.5018 31.6695 14.1175 31.6695C13.7969 31.6695 13.5767 31.8561 13.5767 32.1496C13.5767 32.4431 13.7911 32.6277 14.1349 32.6277C14.4786 32.6277 14.7046 32.4197 14.7046 32.1476Z" fill="#263238"/>
<path d="M18.9956 32.6511C18.9956 31.8444 19.4243 31.3857 19.9999 31.3857C20.5754 31.3857 21.0002 31.8464 21.0002 32.6511C21.0002 33.4557 20.5715 33.9164 19.9999 33.9164C19.4282 33.9164 18.9956 33.4577 18.9956 32.6511ZM20.6507 32.6511C20.6507 32.0174 20.3842 31.7006 19.9999 31.7006C19.6155 31.7006 19.3471 32.0194 19.3471 32.6511C19.3471 33.2827 19.6136 33.6015 19.9999 33.6015C20.3861 33.6015 20.6507 33.2827 20.6507 32.6511Z" fill="#263238"/>
<path d="M26.6612 33.5801V33.8872H24.8941V33.6462L25.8945 32.6744C26.1552 32.4197 26.2035 32.2643 26.2035 32.1088C26.2035 31.8541 26.0239 31.6987 25.6801 31.6987C25.4174 31.6987 25.2031 31.7842 25.0505 31.9669L24.811 31.7589C25.0003 31.5218 25.3267 31.3838 25.711 31.3838C26.2247 31.3838 26.555 31.6481 26.555 32.0738C26.555 32.3148 26.4854 32.5305 26.1513 32.8512L25.4001 33.5801H26.6612Z" fill="#263238"/>
<path d="M31.8291 31.4131V33.8873H31.4815V31.7202H30.9272V31.4131H31.8291Z" fill="#263238"/>
<g opacity="0.6">
<path d="M21.4524 29.176V29.2634H20.7822V28.311H21.4311V28.3985H20.8827V28.7367H21.3732V28.8222H20.8827V29.176H21.4524Z" fill="white"/>
<path d="M22.3217 28.8476V29.2636H22.2251V28.8573C22.2251 28.7057 22.1459 28.628 22.0107 28.628C21.8582 28.628 21.7616 28.7232 21.7616 28.8865V29.2616H21.665V28.5464H21.7577V28.6785C21.8099 28.5911 21.9045 28.5405 22.0281 28.5405C22.2019 28.5405 22.3197 28.6416 22.3197 28.8476H22.3217Z" fill="white"/>
<path d="M22.9569 29.2186C22.9183 29.2516 22.8623 29.2691 22.8063 29.2691C22.673 29.2691 22.5977 29.1933 22.5977 29.0612V28.6277H22.4702V28.5461H22.5977V28.3887H22.6942V28.5461H22.9105V28.6277H22.6942V29.0553C22.6942 29.1389 22.7367 29.1856 22.8178 29.1856C22.8565 29.1856 22.897 29.1739 22.9241 29.1486L22.9569 29.2186Z" fill="white"/>
<path d="M23.7256 28.9351H23.1308C23.1424 29.0847 23.2544 29.1839 23.4108 29.1839C23.4977 29.1839 23.575 29.1528 23.629 29.0906L23.6831 29.1528C23.6194 29.2286 23.5209 29.2694 23.4089 29.2694C23.1868 29.2694 23.0361 29.1178 23.0361 28.904C23.0361 28.6902 23.1829 28.5405 23.3838 28.5405C23.5846 28.5405 23.7295 28.6882 23.7295 28.904C23.7295 28.9118 23.7295 28.9234 23.7295 28.9331L23.7256 28.9351ZM23.1308 28.8632H23.6348C23.6232 28.7232 23.5209 28.6241 23.3818 28.6241C23.2428 28.6241 23.1424 28.7213 23.1308 28.8632Z" fill="white"/>
<path d="M24.2796 28.5405V28.6338C24.2796 28.6338 24.2642 28.6338 24.2564 28.6338C24.1077 28.6338 24.017 28.7291 24.017 28.8982V29.2636H23.9204V28.5483H24.0131V28.6882C24.0575 28.593 24.1483 28.5425 24.2796 28.5425V28.5405Z" fill="white"/>
<path d="M25.4151 28.5464L25.0598 29.3471C24.9999 29.4871 24.9246 29.5318 24.8223 29.5318C24.7566 29.5318 24.6929 29.5104 24.6484 29.4657L24.6929 29.3938C24.7276 29.4288 24.772 29.4482 24.8223 29.4482C24.886 29.4482 24.9285 29.4191 24.969 29.3277L24.9999 29.2577L24.6813 28.5425H24.7817L25.0501 29.1508L25.3186 28.5425H25.4132L25.4151 28.5464Z" fill="white"/>
<path d="M25.4595 28.904C25.4595 28.6921 25.614 28.5405 25.8225 28.5405C26.0311 28.5405 26.1837 28.6921 26.1837 28.904C26.1837 29.1158 26.0311 29.2694 25.8225 29.2694C25.614 29.2694 25.4595 29.1178 25.4595 28.904ZM26.0852 28.904C26.0852 28.7368 25.9732 28.6241 25.8206 28.6241C25.668 28.6241 25.556 28.7349 25.556 28.904C25.556 29.0731 25.67 29.1839 25.8206 29.1839C25.9713 29.1839 26.0852 29.0731 26.0852 28.904Z" fill="white"/>
<path d="M27.02 28.5464V29.2616H26.9273V29.1314C26.8771 29.2189 26.7844 29.2694 26.6724 29.2694C26.4908 29.2694 26.3711 29.1664 26.3711 28.9623V28.5464H26.4677V28.9526C26.4677 29.1042 26.5468 29.182 26.682 29.182C26.8307 29.182 26.9234 29.0848 26.9234 28.9215V28.5464H27.02Z" fill="white"/>
<path d="M27.6458 28.5405V28.6338C27.6458 28.6338 27.6304 28.6338 27.6227 28.6338C27.474 28.6338 27.3832 28.7291 27.3832 28.8982V29.2636H27.2866V28.5483H27.3793V28.6882C27.4237 28.593 27.5145 28.5425 27.6458 28.5425V28.5405Z" fill="white"/>
<path d="M28.1211 28.7852C28.1211 28.5073 28.3316 28.3013 28.6194 28.3013C28.9071 28.3013 29.1157 28.5073 29.1157 28.7852C29.1157 29.0632 28.9032 29.2692 28.6194 29.2692C28.3355 29.2692 28.1211 29.0632 28.1211 28.7852ZM29.0153 28.7852C29.0153 28.5578 28.8453 28.3907 28.6194 28.3907C28.3934 28.3907 28.2196 28.5578 28.2196 28.7852C28.2196 29.0126 28.3895 29.1798 28.6194 29.1798C28.8492 29.1798 29.0153 29.0126 29.0153 28.7852Z" fill="white"/>
<path d="M29.5094 28.3965H29.1772V28.3091H29.942V28.3965H29.6098V29.2615H29.5094V28.3965Z" fill="white"/>
<path d="M30.8422 28.6356C30.8422 28.8378 30.6954 28.9602 30.4559 28.9602H30.201V29.2615H30.1006V28.3091H30.454C30.6954 28.3091 30.8403 28.4315 30.8403 28.6356H30.8422ZM30.7418 28.6356C30.7418 28.484 30.6413 28.3965 30.4521 28.3965H30.201V28.8727H30.4521C30.6413 28.8727 30.7418 28.7853 30.7418 28.6356Z" fill="white"/>
</g>
<g opacity="0.6">
<path d="M22.0161 37.3587L22.0547 37.2809C22.1223 37.347 22.2421 37.3956 22.3676 37.3956C22.5453 37.3956 22.6225 37.3217 22.6225 37.2265C22.6225 36.9661 22.0393 37.1254 22.0393 36.7736C22.0393 36.6337 22.1474 36.5132 22.3888 36.5132C22.4951 36.5132 22.6071 36.5443 22.6824 36.5968L22.6496 36.6764C22.5684 36.624 22.4738 36.5968 22.3908 36.5968C22.217 36.5968 22.1397 36.6745 22.1397 36.7697C22.1397 37.0302 22.723 36.8728 22.723 37.2207C22.723 37.3606 22.6129 37.4811 22.3695 37.4811C22.2266 37.4811 22.0876 37.4306 22.018 37.3567L22.0161 37.3587Z" fill="white"/>
<path d="M23.5381 37.1465H22.9433C22.9549 37.2962 23.0669 37.3953 23.2233 37.3953C23.3102 37.3953 23.3875 37.3642 23.4415 37.302L23.4956 37.3642C23.4319 37.44 23.3334 37.4808 23.2214 37.4808C22.9993 37.4808 22.8486 37.3292 22.8486 37.1154C22.8486 36.9016 22.9954 36.752 23.1963 36.752C23.3971 36.752 23.542 36.8997 23.542 37.1154C23.542 37.1232 23.542 37.1348 23.542 37.1446L23.5381 37.1465ZM22.9433 37.0746H23.4473C23.4357 36.9347 23.3334 36.8355 23.1943 36.8355C23.0553 36.8355 22.9549 36.9327 22.9433 37.0746Z" fill="white"/>
<path d="M24.3895 37.059V37.475H24.293V37.0688C24.293 36.9172 24.2138 36.8394 24.0786 36.8394C23.926 36.8394 23.8295 36.9347 23.8295 37.0979V37.473H23.7329V36.7578H23.8256V36.89C23.8778 36.8025 23.9724 36.752 24.096 36.752C24.2698 36.752 24.3876 36.853 24.3876 37.059H24.3895Z" fill="white"/>
<path d="M25.3014 36.4644V37.475H25.2087V37.3332C25.1508 37.4303 25.0523 37.4809 24.9345 37.4809C24.7317 37.4809 24.5791 37.3332 24.5791 37.1155C24.5791 36.8978 24.7297 36.752 24.9345 36.752C25.0484 36.752 25.145 36.8006 25.2048 36.8939V36.4644H25.3014ZM25.2068 37.1174C25.2068 36.9503 25.0928 36.8375 24.9422 36.8375C24.7915 36.8375 24.6776 36.9483 24.6776 37.1174C24.6776 37.2865 24.7915 37.3973 24.9422 37.3973C25.0928 37.3973 25.2068 37.2865 25.2068 37.1174Z" fill="white"/>
<path d="M26.46 37.0299V37.4731H26.3673V37.3623C26.3248 37.4361 26.2399 37.4808 26.1221 37.4808C25.9618 37.4808 25.8633 37.3972 25.8633 37.2729C25.8633 37.1621 25.9328 37.0707 26.1375 37.0707H26.3635V37.028C26.3635 36.9055 26.294 36.8394 26.1626 36.8394C26.0699 36.8394 25.985 36.8725 25.9251 36.923L25.8826 36.8511C25.9541 36.7889 26.0603 36.7539 26.1723 36.7539C26.3558 36.7539 26.46 36.8472 26.46 37.0318V37.0299ZM26.3635 37.2592V37.1426H26.1395C26.0023 37.1426 25.956 37.1971 25.956 37.2709C25.956 37.3545 26.0216 37.405 26.1356 37.405C26.2495 37.405 26.3229 37.3525 26.3615 37.2592H26.3635Z" fill="white"/>
<path d="M27.3828 36.7578V37.3875C27.3828 37.6344 27.2631 37.7451 27.0275 37.7451C26.8981 37.7451 26.7706 37.7063 26.6953 37.6344L26.7436 37.5605C26.8112 37.6227 26.9135 37.6577 27.0236 37.6577C27.2032 37.6577 27.2863 37.5741 27.2863 37.3972V37.3059C27.2264 37.3972 27.126 37.4439 27.0082 37.4439C26.8054 37.4439 26.6509 37.3 26.6509 37.096C26.6509 36.8919 26.8054 36.75 27.0082 36.75C27.1279 36.75 27.2303 36.7986 27.2901 36.8938V36.7558H27.3828V36.7578ZM27.2901 37.0979C27.2901 36.9424 27.1762 36.8375 27.0197 36.8375C26.8633 36.8375 26.7513 36.9444 26.7513 37.0979C26.7513 37.2515 26.8633 37.3603 27.0197 37.3603C27.1762 37.3603 27.2901 37.2534 27.2901 37.0979Z" fill="white"/>
<path d="M28.1886 37.0299V37.4731H28.0959V37.3623C28.0534 37.4361 27.9684 37.4808 27.8506 37.4808C27.6903 37.4808 27.5918 37.3972 27.5918 37.2729C27.5918 37.1621 27.6613 37.0707 27.866 37.0707H28.092V37.028C28.092 36.9055 28.0225 36.8394 27.8911 36.8394C27.7984 36.8394 27.7135 36.8725 27.6536 36.923L27.6111 36.8511C27.6826 36.7889 27.7888 36.7539 27.9008 36.7539C28.0843 36.7539 28.1886 36.8472 28.1886 37.0318V37.0299ZM28.092 37.2592V37.1426H27.868C27.7308 37.1426 27.6845 37.1971 27.6845 37.2709C27.6845 37.3545 27.7502 37.405 27.8641 37.405C27.978 37.405 28.0514 37.3525 28.0901 37.2592H28.092Z" fill="white"/>
<path d="M28.4258 36.5324C28.4258 36.4955 28.4567 36.4644 28.4953 36.4644C28.5339 36.4644 28.5648 36.4935 28.5648 36.5304C28.5648 36.5693 28.5359 36.6004 28.4953 36.6004C28.4548 36.6004 28.4258 36.5693 28.4258 36.5304V36.5324ZM28.447 36.7578H28.5436V37.4731H28.447V36.7578Z" fill="white"/>
<path d="M29.4667 37.059V37.475H29.3701V37.0688C29.3701 36.9172 29.2909 36.8394 29.1558 36.8394C29.0032 36.8394 28.9066 36.9347 28.9066 37.0979V37.473H28.8101V36.7578H28.9028V36.89C28.9549 36.8025 29.0495 36.752 29.1731 36.752C29.3469 36.752 29.4648 36.853 29.4648 37.059H29.4667Z" fill="white"/>
</g>
<path opacity="0.4" d="M31.1548 42.3343H20.392C19.5055 42.3343 18.7871 41.6113 18.7871 40.7192C18.7871 39.827 19.5055 39.104 20.392 39.104H31.1548C32.0413 39.104 32.7597 39.827 32.7597 40.7192C32.7597 41.6113 32.0413 42.3343 31.1548 42.3343Z" fill="white"/>
<path d="M21.5762 40.6355C21.5762 40.3148 21.8195 40.0796 22.1498 40.0796C22.3158 40.0796 22.4626 40.1379 22.5611 40.2487L22.4607 40.3459C22.3776 40.2584 22.2753 40.2176 22.1575 40.2176C21.9141 40.2176 21.7326 40.3945 21.7326 40.6355C21.7326 40.8765 21.9141 41.0533 22.1575 41.0533C22.2772 41.0533 22.3776 41.0106 22.4607 40.9231L22.5611 41.0203C22.4626 41.133 22.3178 41.1913 22.1498 41.1913C21.8214 41.1913 21.5781 40.9562 21.5781 40.6355H21.5762Z" fill="white"/>
<path d="M22.6694 40.6355C22.6694 40.3167 22.9128 40.0796 23.2449 40.0796C23.5771 40.0796 23.8185 40.3167 23.8185 40.6355C23.8185 40.9542 23.5752 41.1913 23.2449 41.1913C22.9147 41.1913 22.6694 40.9542 22.6694 40.6355ZM23.664 40.6355C23.664 40.3945 23.4844 40.2176 23.2449 40.2176C23.0055 40.2176 22.8239 40.3945 22.8239 40.6355C22.8239 40.8765 23.0035 41.0533 23.2449 41.0533C23.4864 41.0533 23.664 40.8765 23.664 40.6355Z" fill="white"/>
<path d="M24.9851 40.0933V41.1817H24.8576L24.2087 40.3712V41.1817H24.0542V40.0933H24.1817L24.8306 40.9038V40.0933H24.9851Z" fill="white"/>
<path d="M25.5236 40.2274H25.1528V40.0913H26.047V40.2274H25.6762V41.1797H25.5236V40.2274Z" fill="white"/>
<path d="M26.2168 40.0933H26.3713V41.1817H26.2168V40.0933Z" fill="white"/>
<path d="M27.6247 40.0933V41.1817H27.4972L26.8483 40.3712V41.1817H26.6938V40.0933H26.8213L27.4702 40.9038V40.0933H27.6247Z" fill="white"/>
<path d="M27.9414 40.7113V40.0933H28.0959V40.7055C28.0959 40.9465 28.206 41.0554 28.3991 41.0554C28.5922 41.0554 28.7042 40.9465 28.7042 40.7055V40.0933H28.8549V40.7113C28.8549 41.0262 28.683 41.1934 28.3972 41.1934C28.1113 41.1934 27.9395 41.0262 27.9395 40.7113H27.9414Z" fill="white"/>
<path d="M29.956 41.0456V41.1817H29.1719V40.0933H29.9347V40.2293H29.3264V40.5636H29.8691V40.6958H29.3264V41.0476H29.956V41.0456Z" fill="white"/>
<path opacity="0.1" d="M44.4841 15.5181C38.167 21.8874 21.9426 36.0623 3.55908 35.0147V15.5181H44.4841Z" fill="white"/>
<path opacity="0.1" d="M49.2465 27.2248V46.0275H21.7397C22.7942 42.2297 24.9031 37.0285 28.9935 33.3123C36.3516 26.6262 44.8915 26.6456 49.2465 27.2248Z" fill="white"/>
<path d="M55.0581 12.5186L55.6973 15.3679L56.3385 12.5186H55.0581Z" fill="#407BFF"/>
<path opacity="0.7" d="M55.0581 12.5186L55.6973 15.3679L56.3385 12.5186H55.0581Z" fill="white"/>
<path d="M62.8738 4.45068H48.5227C47.6065 4.45068 46.8638 5.19818 46.8638 6.12027V11.4808C46.8638 12.4029 47.6065 13.1504 48.5227 13.1504H62.8738C63.79 13.1504 64.5328 12.4029 64.5328 11.4808V6.12027C64.5328 5.19818 63.79 4.45068 62.8738 4.45068Z" fill="#407BFF"/>
<path opacity="0.7" d="M62.8738 4.45068H48.5227C47.6065 4.45068 46.8638 5.19818 46.8638 6.12027V11.4808C46.8638 12.4029 47.6065 13.1504 48.5227 13.1504H62.8738C63.79 13.1504 64.5328 12.4029 64.5328 11.4808V6.12027C64.5328 5.19818 63.79 4.45068 62.8738 4.45068Z" fill="white"/>
<g opacity="0.5">
<path d="M50.3943 7.64203V8.0191H50.2417V7.64009L49.813 6.93066H49.9791L50.3248 7.50404L50.6724 6.93066H50.825L50.3962 7.64203H50.3943Z" fill="#263238"/>
<path d="M50.79 7.60733C50.79 7.36243 50.9716 7.1875 51.2168 7.1875C51.4621 7.1875 51.6417 7.36243 51.6417 7.60733C51.6417 7.85222 51.4621 8.02909 51.2168 8.02909C50.9716 8.02909 50.79 7.85417 50.79 7.60733ZM51.4911 7.60733C51.4911 7.4324 51.3733 7.31772 51.2168 7.31772C51.0604 7.31772 50.9407 7.43045 50.9407 7.60733C50.9407 7.7842 51.0604 7.89887 51.2168 7.89887C51.3733 7.89887 51.4911 7.7842 51.4911 7.60733Z" fill="#263238"/>
<path d="M52.6094 7.19531V8.01941H52.4684V7.89502C52.4086 7.98054 52.3062 8.02913 52.1903 8.02913C51.9779 8.02913 51.8389 7.91251 51.8389 7.66956V7.19531H51.9876V7.65207C51.9876 7.81339 52.0687 7.89502 52.2077 7.89502C52.3622 7.89502 52.4607 7.79784 52.4607 7.62097V7.19531H52.6094Z" fill="#263238"/>
<path d="M53.3319 7.1875V7.33133C53.3203 7.33133 53.3087 7.33133 53.2971 7.33133C53.1388 7.33133 53.0384 7.42851 53.0384 7.60927V8.01938H52.8896V7.19527H53.0326V7.33327C53.0847 7.23609 53.1871 7.1875 53.33 7.1875H53.3319Z" fill="#263238"/>
<path d="M53.8745 7.47482C53.8745 7.15607 54.1179 6.91895 54.45 6.91895C54.7822 6.91895 55.0236 7.15413 55.0236 7.47482C55.0236 7.79552 54.7803 8.0307 54.45 8.0307C54.1198 8.0307 53.8745 7.79358 53.8745 7.47482ZM54.8691 7.47482C54.8691 7.23381 54.6895 7.05694 54.45 7.05694C54.2106 7.05694 54.029 7.23381 54.029 7.47482C54.029 7.71584 54.2086 7.89271 54.45 7.89271C54.6914 7.89271 54.8691 7.71584 54.8691 7.47482Z" fill="#263238"/>
<path d="M55.4602 7.06672H55.0894V6.93066H55.9835V7.06672H55.6127V8.0191H55.4602V7.06672Z" fill="#263238"/>
<path d="M57.0243 7.30966C57.0243 7.54679 56.8544 7.68867 56.5743 7.68867H56.3078V8.01715H56.1533V6.92871H56.5743C56.8563 6.92871 57.0243 7.07254 57.0243 7.30772V7.30966ZM56.8698 7.30966C56.8698 7.15417 56.7655 7.06476 56.5685 7.06476H56.3059V7.55262H56.5685C56.7655 7.55262 56.8698 7.46321 56.8698 7.30772V7.30966Z" fill="#263238"/>
<path d="M57.5957 7.47482C57.5957 7.15218 57.839 6.91895 58.1693 6.91895C58.3354 6.91895 58.4821 6.97725 58.5806 7.08804L58.4802 7.18522C58.3972 7.09582 58.2948 7.05694 58.177 7.05694C57.9337 7.05694 57.7521 7.23381 57.7521 7.47482C57.7521 7.71584 57.9337 7.89271 58.177 7.89271C58.2967 7.89271 58.3972 7.84995 58.4802 7.76248L58.5806 7.85966C58.4821 7.9724 58.3373 8.0307 58.1693 8.0307C57.841 8.0307 57.5976 7.79552 57.5976 7.47482H57.5957Z" fill="#263238"/>
<path d="M58.6699 7.60733C58.6699 7.36243 58.8515 7.1875 59.0967 7.1875C59.342 7.1875 59.5216 7.36243 59.5216 7.60733C59.5216 7.85222 59.342 8.02909 59.0967 8.02909C58.8515 8.02909 58.6699 7.85417 58.6699 7.60733ZM59.371 7.60733C59.371 7.4324 59.2532 7.31772 59.0967 7.31772C58.9403 7.31772 58.8206 7.43045 58.8206 7.60733C58.8206 7.7842 58.9403 7.89887 59.0967 7.89887C59.2532 7.89887 59.371 7.7842 59.371 7.60733Z" fill="#263238"/>
<path d="M60.4987 6.8667V8.01927H60.3558V7.88905C60.2901 7.98235 60.1839 8.02899 60.0642 8.02899C59.8247 8.02899 59.6509 7.8599 59.6509 7.60722C59.6509 7.35455 59.8247 7.1874 60.0642 7.1874C60.18 7.1874 60.2824 7.23016 60.35 7.31957V6.8667H60.4987ZM60.3519 7.60722C60.3519 7.4323 60.2322 7.31762 60.0777 7.31762C59.9232 7.31762 59.8015 7.43035 59.8015 7.60722C59.8015 7.78409 59.9213 7.89877 60.0777 7.89877C60.2341 7.89877 60.3519 7.78409 60.3519 7.60722Z" fill="#263238"/>
<path d="M61.5162 7.65787H60.8518C60.8711 7.8017 60.987 7.89888 61.1492 7.89888C61.2458 7.89888 61.325 7.86584 61.3849 7.79975L61.466 7.89694C61.3926 7.9844 61.2786 8.03105 61.1434 8.03105C60.8789 8.03105 60.7031 7.85612 60.7031 7.60928C60.7031 7.36244 60.8769 7.18945 61.1145 7.18945C61.352 7.18945 61.52 7.36049 61.52 7.61316C61.52 7.62483 61.52 7.64426 61.5162 7.65787ZM60.8518 7.55097H61.3771C61.3617 7.41297 61.2574 7.31385 61.1145 7.31385C60.9716 7.31385 60.8673 7.41103 60.8518 7.55097Z" fill="#263238"/>
</g>
<g opacity="0.5">
<path d="M53.4668 9.7217C53.4668 10.3339 53.1231 10.6605 52.6248 10.6605C52.4568 10.6605 52.2965 10.6274 52.1825 10.5555L52.2791 10.3553C52.3737 10.4175 52.4935 10.4389 52.6229 10.4389C52.984 10.4389 53.2119 10.2115 53.2119 9.76252V9.69838C53.1076 9.85387 52.9203 9.93356 52.6982 9.93356C52.3448 9.93356 52.0898 9.7217 52.0898 9.39128C52.0898 9.06086 52.3641 8.82568 52.7175 8.82568C53.1964 8.82568 53.4649 9.14833 53.4649 9.71976L53.4668 9.7217ZM53.154 9.38156C53.154 9.19692 53.0072 9.0356 52.7291 9.0356C52.4973 9.0356 52.337 9.17165 52.337 9.38351C52.337 9.59536 52.4915 9.72947 52.7407 9.72947C52.9898 9.72947 53.152 9.57787 53.152 9.38156H53.154Z" fill="#263238"/>
<path d="M53.71 9.74504C53.71 9.16195 54.0209 8.82959 54.438 8.82959C54.8552 8.82959 55.1623 9.16195 55.1623 9.74504C55.1623 10.3281 54.8513 10.6605 54.438 10.6605C54.0248 10.6605 53.71 10.3281 53.71 9.74504ZM54.9073 9.74504C54.9073 9.28634 54.7142 9.05699 54.4361 9.05699C54.158 9.05699 53.963 9.28829 53.963 9.74504C53.963 10.2018 54.1561 10.4331 54.4361 10.4331C54.7161 10.4331 54.9073 10.2018 54.9073 9.74504Z" fill="#263238"/>
<path d="M56.6513 10.4175V10.641H55.3729V10.4661L56.0971 9.76252C56.2844 9.57787 56.3211 9.46514 56.3211 9.35241C56.3211 9.16776 56.1917 9.05503 55.9426 9.05503C55.7514 9.05503 55.5969 9.11723 55.4868 9.2494L55.313 9.09779C55.4501 8.92675 55.6876 8.82568 55.9638 8.82568C56.3346 8.82568 56.5741 9.0181 56.5741 9.3252C56.5741 9.50012 56.5239 9.65562 56.2825 9.88885L55.7379 10.4156H56.6513V10.4175Z" fill="#263238"/>
<path d="M57.4125 8.84912V10.6412H57.1615V9.07264H56.7598V8.84912H57.4125Z" fill="#263238"/>
<path d="M57.8022 9.74504C57.8022 9.16195 58.1132 8.82959 58.5303 8.82959C58.9475 8.82959 59.2545 9.16195 59.2545 9.74504C59.2545 10.3281 58.9436 10.6605 58.5303 10.6605C58.117 10.6605 57.8022 10.3281 57.8022 9.74504ZM58.9996 9.74504C58.9996 9.28634 58.8065 9.05699 58.5284 9.05699C58.2503 9.05699 58.0552 9.28829 58.0552 9.74504C58.0552 10.2018 58.2484 10.4331 58.5284 10.4331C58.8084 10.4331 58.9996 10.2018 58.9996 9.74504Z" fill="#263238"/>
</g>
<path d="M54.1095 20.8764L54.3084 21.0086L54.5266 21.1485C54.6753 21.2418 54.8279 21.3312 54.9805 21.4187C55.2875 21.5917 55.6004 21.7588 55.9191 21.9046C56.5583 22.1981 57.2149 22.4371 57.8831 22.5868L57.914 22.5946C57.9256 22.5965 57.9391 22.6004 57.9256 22.5985C57.916 22.5985 57.9044 22.5985 57.8773 22.5985C57.8329 22.6004 57.7441 22.614 57.6379 22.6781C57.5336 22.7423 57.4641 22.8414 57.4409 22.8978C57.4158 22.958 57.4177 22.9852 57.4177 22.9891C57.4235 23.0008 57.4293 22.9503 57.4274 22.8919C57.4274 22.8336 57.4177 22.7617 57.4061 22.6859C57.354 22.3788 57.2593 22.0251 57.1473 21.6791C56.9272 20.9833 56.6645 20.268 56.4038 19.5644L57.1493 19.1621C57.5954 19.8113 57.9932 20.476 58.3428 21.1952C58.5127 21.5586 58.6807 21.926 58.8024 22.3613C58.8333 22.4721 58.8603 22.5887 58.8816 22.719C58.9009 22.8511 58.9183 22.993 58.899 23.1952C58.8893 23.2923 58.8661 23.4148 58.7985 23.5606C58.7348 23.7024 58.6035 23.8793 58.4181 23.992C58.2308 24.1067 58.0454 24.1359 57.9063 24.1417C57.8329 24.1436 57.7731 24.1417 57.717 24.1339L57.6591 24.1262L57.6205 24.1203C56.792 24.0076 55.9905 23.7802 55.2412 23.4595C54.8646 23.3001 54.4957 23.1271 54.1384 22.9289C53.9608 22.8278 53.785 22.7248 53.6112 22.614C53.5243 22.5576 53.4374 22.5032 53.3524 22.4449C53.2636 22.3847 53.1863 22.3283 53.084 22.2505L54.1056 20.8745L54.1095 20.8764Z" fill="#DC897C"/>
<path d="M53.8955 20.655C55.0079 20.7832 55.7552 21.4149 55.7552 21.4149L54.9789 23.8211C54.9789 23.8211 51.2303 20.3479 53.8974 20.655H53.8955Z" fill="#407BFF"/>
<path opacity="0.6" d="M53.8876 22.686C54.4187 23.3041 54.9749 23.8192 54.9749 23.8192L55.2936 22.8299L55.7513 21.413C55.7513 21.413 55.0039 20.7793 53.8934 20.653C52.2538 20.4645 53.0379 21.7026 53.8857 22.6841L53.8876 22.686Z" fill="white"/>
<path opacity="0.2" d="M53.8875 22.6862C54.4186 23.3042 54.9748 23.8193 54.9748 23.8193L55.2935 22.83C54.6117 22.3013 53.8914 22.3441 53.8914 22.3441C53.8779 22.4607 53.8779 22.5773 53.8856 22.6862H53.8875Z" fill="black"/>
<path d="M45.552 17.106C45.552 17.106 43.756 23.1157 47.5393 23.9223C51.3226 24.7289 51.7185 21.9631 51.7185 21.9631C51.7185 21.9631 48.6188 17.2284 45.552 17.106Z" fill="#263238"/>
<path d="M44.6621 19.0495C44.6621 19.0495 44.8475 18.7035 45.1797 18.6821" stroke="#263238" stroke-width="0.48" stroke-linecap="round" stroke-linejoin="round"/>
<path d="M45.2028 19.8428C45.2028 19.8428 45.1623 20.2509 45.0464 20.5289C45.0464 20.5289 45.226 20.6591 45.4423 20.5367L45.2028 19.8447V19.8428Z" fill="#DE5753"/>
<path d="M44.8397 19.5803C44.8803 19.6872 44.9691 19.7513 45.0406 19.7241C45.112 19.6969 45.1352 19.588 45.0946 19.4831C45.0541 19.3762 44.9652 19.312 44.8938 19.3393C44.8223 19.3665 44.7992 19.4753 44.8397 19.5803Z" fill="#263238"/>
<path d="M44.9267 19.3315H44.6621C44.6621 19.3315 44.8514 19.4793 44.9267 19.3315Z" fill="#263238"/>
<path d="M48.6829 20.587C48.6752 20.6045 48.6674 20.622 48.6559 20.6356C48.6385 20.6686 48.6192 20.6997 48.5999 20.7328C48.4859 20.9271 48.3449 21.1195 48.1557 21.2673C47.5705 21.7318 47.0722 21.8717 46.6338 21.7376C46.6126 21.7318 46.5914 21.724 46.5701 21.7162H46.5682C45.9174 21.4519 45.4172 20.6686 45.0058 19.6327C44.8146 19.1584 44.691 18.7269 44.6717 18.3538C44.6717 18.3499 44.6659 18.3382 44.6659 18.3343C44.6659 18.3188 44.662 18.2993 44.662 18.2838C44.6466 17.7571 44.8281 17.3256 45.2723 16.9679C45.4268 16.8436 45.6122 16.7269 45.8324 16.62C47.7733 15.6715 49.6505 18.7541 48.6829 20.587Z" fill="#E4897B"/>
<path opacity="0.2" d="M48.5998 20.7329C48.4859 20.9273 48.3449 21.1197 48.1556 21.2674C47.5704 21.7319 47.0722 21.8719 46.6338 21.7378C46.9891 21.6425 47.414 21.4521 47.7327 21.0672C47.9412 20.8204 48.258 20.7349 48.5998 20.7329Z" fill="black"/>
<path d="M44.664 18.3423C44.664 18.3423 45.2028 19.7689 46.7768 19.7436C46.7768 19.7436 48.0051 20.9079 48.8336 20.5386C49.9634 20.0352 50.1971 17.9672 49.0441 16.5211C47.5493 14.6474 44.2894 15.9885 44.664 18.3403V18.3423Z" fill="#263238"/>
<path d="M45.9345 19.6598C45.8341 19.4441 45.836 19.0029 46.1914 18.894C46.5583 18.7813 47.1493 19.5432 46.3942 20.134C46.286 20.2196 46.145 20.1088 45.9345 19.6598Z" fill="#E4897B"/>
<path d="M46.3576 15.7455C46.3576 15.7455 44.8976 16.0351 44.4245 16.9058C43.8721 17.9223 43.8528 18.7134 45.3148 19.2285C45.3148 19.2285 47.1688 17.4714 47.9683 17.2771C48.7678 17.0827 49.3897 17.0477 49.3897 17.0477C48.8586 15.5181 46.9486 15.1021 46.3596 15.7474L46.3576 15.7455Z" fill="#263238"/>
<path d="M47.7733 21.3061C47.7733 21.3061 48.7775 22.0058 49.0402 23.1604L52.1707 21.3217C52.1707 21.3217 49.72 20.758 49.297 19.8037C49.297 19.8037 47.6593 20.0078 47.7733 21.3042V21.3061Z" fill="#E4897B"/>
<path d="M50.8842 28.8767C50.8842 28.8767 46.8363 24.865 46.3921 23.6055C46.3921 23.6055 48.0974 20.933 51.506 20.8203C54.9147 20.7076 57.2341 27.2343 57.2341 27.2343L50.8842 28.8747V28.8767Z" fill="#407BFF"/>
<path opacity="0.6" d="M57.2322 27.2362L50.8842 28.8766C50.8842 28.8766 49.9997 28 49.0109 26.9388C48.7057 26.6064 48.3871 26.2566 48.08 25.9106C47.2747 24.9913 46.564 24.0933 46.3921 23.6055C46.3921 23.6055 48.0955 20.933 51.5041 20.8202C54.9147 20.7095 57.2322 27.2362 57.2322 27.2362Z" fill="white"/>
<path d="M47.0914 19.0572C47.0914 19.0572 47.6843 21.0397 49.7661 21.6986C51.848 22.3575 51.3246 24.4935 53.3428 24.2428C54.4166 24.1087 55.3359 21.9085 52.0431 19.9687C50.1234 18.8395 50.8689 15.1271 46.7939 15.4751C46.7939 15.4751 47.6379 18.0193 47.0914 19.0572Z" fill="#263238"/>
<path d="M49.117 59.0961L48.1533 58.8746C48.2982 54.0194 48.9953 48.1399 49.6114 43.7259C49.708 43.034 49.8026 42.3809 49.8934 41.7706C49.9378 41.481 49.9783 41.203 50.0189 40.9348C50.2178 39.6112 50.3897 38.5655 50.4959 37.9183C50.5732 37.446 50.6195 37.1875 50.6195 37.1875L54.09 38.0408L53.8408 38.9232L53.0201 41.8347L52.9274 42.1671L52.3828 44.0893L51.4596 47.3624C51.5214 52.3051 49.117 59.0961 49.117 59.0961Z" fill="#E4897B"/>
<path d="M57.3832 58.2815L56.3944 58.231C55.6412 53.0065 55.3245 46.474 55.1874 41.9297C55.1661 41.2261 55.1507 40.5673 55.1372 39.9725C55.1372 39.9414 55.1372 39.9122 55.1372 39.885C55.1121 38.7014 55.1005 37.7606 55.0947 37.164C55.0927 36.6975 55.0908 36.4409 55.0908 36.4409L58.6578 36.6761L58.5053 38.1727L58.2812 40.3709L58.2368 40.8024L58.0823 42.299L57.671 46.3146C58.5825 51.1717 57.3851 58.2815 57.3851 58.2815H57.3832Z" fill="#E4897B"/>
<path d="M57.7518 58.0892C57.748 57.9648 56.2262 58.062 56.2262 58.062C56.2262 58.062 55.2895 59.0202 54.3799 59.236C53.4703 59.4517 53.9782 59.9998 54.9959 59.9998H57.5104C58.2327 59.9998 57.7808 59.3798 57.7518 58.0892Z" fill="#263238"/>
<path d="M55.2933 58.4177C55.2644 58.3924 55.2335 58.3457 55.2567 58.2544C55.2682 58.2097 55.2953 58.1747 55.3378 58.1514C55.4189 58.1047 55.5502 58.1008 55.6796 58.1144C55.556 58.0484 55.4478 57.9667 55.4421 57.887C55.4382 57.8346 55.473 57.7918 55.5425 57.7588C55.6081 57.7277 55.6738 57.7257 55.7395 57.7529C55.9461 57.8385 56.0736 58.1961 56.0794 58.2116C56.0832 58.2213 56.0813 58.233 56.0794 58.2427C56.0794 58.2466 56.0755 58.2486 56.0736 58.2505C56.0736 58.2505 56.0658 58.2583 56.0601 58.2602C55.9809 58.2991 55.6429 58.4546 55.4285 58.4546C55.3725 58.4546 55.3262 58.4449 55.2953 58.4177H55.2933ZM55.3783 58.2213C55.3551 58.235 55.3397 58.2524 55.3339 58.2758C55.3185 58.336 55.3378 58.3516 55.3436 58.3574C55.415 58.4177 55.695 58.3321 55.9191 58.2369C55.7491 58.198 55.4865 58.1592 55.3783 58.2233V58.2213ZM55.5772 57.8307C55.556 57.8404 55.5212 57.8598 55.5232 57.8812C55.527 57.9492 55.7453 58.0697 55.9712 58.1553C55.9191 58.0386 55.8225 57.8734 55.7105 57.8268C55.6893 57.819 55.6699 57.8132 55.6487 57.8132C55.6255 57.8132 55.6024 57.819 55.5792 57.8307H55.5772Z" fill="#263238"/>
<path d="M49.6078 58.0892C49.6039 57.9648 48.0821 58.062 48.0821 58.062C48.0821 58.062 47.1455 59.0202 46.2358 59.236C45.3262 59.4517 45.8341 59.9998 46.8519 59.9998H49.3664C50.0887 59.9998 49.6368 59.3798 49.6078 58.0892Z" fill="#263238"/>
<path d="M47.1474 58.4177C47.1184 58.3924 47.0875 58.3457 47.1107 58.2544C47.1222 58.2097 47.1493 58.1747 47.1918 58.1514C47.2729 58.1047 47.4042 58.1008 47.5336 58.1144C47.41 58.0484 47.3019 57.9667 47.2961 57.887C47.2922 57.8346 47.327 57.7918 47.3965 57.7588C47.4621 57.7277 47.5278 57.7257 47.5935 57.7529C47.8001 57.8385 47.9276 58.1961 47.9334 58.2116C47.9372 58.2213 47.9353 58.233 47.9334 58.2427C47.9334 58.2466 47.9295 58.2486 47.9276 58.2505C47.9276 58.2505 47.9199 58.2583 47.9141 58.2602C47.8349 58.2991 47.495 58.4546 47.2825 58.4546C47.2265 58.4546 47.1802 58.4449 47.1474 58.4177ZM47.2323 58.2213C47.2092 58.235 47.1937 58.2524 47.1879 58.2758C47.1725 58.336 47.1918 58.3516 47.1976 58.3574C47.269 58.4177 47.5491 58.3321 47.7731 58.2369C47.6031 58.198 47.3405 58.1592 47.2323 58.2233V58.2213ZM47.4312 57.8307C47.41 57.8404 47.3752 57.8598 47.3772 57.8812C47.381 57.9492 47.5993 58.0697 47.8252 58.1553C47.7731 58.0386 47.6765 57.8734 47.5645 57.8268C47.5433 57.819 47.5239 57.8132 47.5027 57.8132C47.4795 57.8132 47.4564 57.819 47.4332 57.8307H47.4312Z" fill="#263238"/>
<path d="M50.0596 38.6469L50.8842 32.8218V28.8763C53.053 27.2358 57.2342 27.2358 57.2342 27.2358C57.2342 27.2358 60.4478 31.7179 58.8854 39.0998L54.8529 39.6926L54.5961 38.3165L54.0901 39.6926L50.0615 38.6489L50.0596 38.6469Z" fill="#263238"/>
<path opacity="0.2" d="M50.0596 38.6469L50.8842 32.8218V28.8763C53.053 27.2358 57.2342 27.2358 57.2342 27.2358C57.2342 27.2358 60.4478 31.7179 58.8854 39.0998L54.8529 39.6926L54.5961 38.3165L54.0901 39.6926L50.0615 38.6489L50.0596 38.6469Z" fill="white"/>
<path opacity="0.2" d="M54.5942 38.3149L55.3706 35.8873C55.3706 35.8873 56.1856 35.6385 57.2323 34.0098C57.2323 34.0098 57.0508 36.7833 54.5942 38.3149Z" fill="black"/>
<path opacity="0.2" d="M52.8755 29.9957L54.6851 29.8208C54.6851 29.8208 55.1235 30.6916 54.9748 31.9841L53.8141 32.6857L52.974 32.0851C52.974 32.0851 52.9489 30.5419 52.8755 29.9957Z" fill="black"/>
<path opacity="0.2" d="M57.2324 29.5469C57.2324 29.5469 57.5704 30.3186 57.7674 31.4109L58.4105 31.6849L58.7562 31.2515C58.7562 31.2515 58.5206 29.9804 58.1266 29.3604L57.2343 29.5469H57.2324Z" fill="black"/>
<path d="M49.9862 38.3149L54.2658 39.5802L53.9974 40.1575L49.9302 38.9L49.9862 38.3149Z" fill="#263238"/>
<path d="M54.687 39.4962L54.7565 40.0268L58.9531 39.4962L59.0188 38.8237L54.687 39.4962Z" fill="#263238"/>
<path d="M55.5675 28.0428C56.8054 27.8445 57.6436 27.8387 57.6436 27.8387L57.3848 27.4092C56.6799 27.3878 56.0001 27.4383 55.3608 27.5316L55.5675 28.0428Z" fill="#263238"/>
<path d="M51.7167 28.5771C51.1643 28.8182 50.8438 29.0009 50.8438 29.0009L50.8476 29.5315C51.1585 29.3721 51.4733 29.2283 51.7843 29.098L51.7167 28.5791V28.5771Z" fill="#263238"/>
<path d="M51.983 29.0183C53.1765 28.5402 54.3449 28.2564 55.3067 28.0873L55.1135 27.5703C53.7926 27.788 52.6667 28.1806 51.9038 28.4994L51.983 29.0183Z" fill="#263238"/>
<path d="M40.3805 30.5384L39.2835 30.0952L39.0981 31.137C39.0981 31.137 40.0869 31.7415 40.4983 31.0223L40.3786 30.5384H40.3805Z" fill="#E4897B"/>
<path d="M38.7406 30.1594L38.3892 30.966L39.0999 31.137L39.2853 30.0952L38.7406 30.1594Z" fill="#E4897B"/>
<path d="M57.2153 19.3409L57.0859 18.1592L56.0855 18.4877C56.0855 18.4877 56.0237 19.6499 56.8484 19.6752L57.2153 19.3409Z" fill="#E4897B"/>
<path d="M56.7728 17.7065L55.8999 17.7765L56.0853 18.4879L57.0857 18.1594L56.7728 17.7065Z" fill="#E4897B"/>
<path opacity="0.2" d="M49.0112 26.9385C48.7061 26.6062 48.3874 26.2563 48.0803 25.9104C47.9625 25.1873 47.8872 24.5518 47.8872 24.5518C47.8872 24.5518 49.0923 25.3603 49.0112 26.9385Z" fill="black"/>
<path d="M47.9989 24.2158C47.885 24.6997 47.7498 25.139 47.6088 25.5957C47.4659 26.0467 47.3017 26.4898 47.1337 26.933C46.9676 27.3761 46.7822 27.8134 46.5795 28.2449C46.481 28.4607 46.3767 28.6764 46.2666 28.8902C46.2145 28.9971 46.1546 29.1021 46.0986 29.209L46.0136 29.3683L45.9692 29.45C45.9441 29.4947 45.917 29.5413 45.89 29.5821C45.6621 29.9145 45.3995 30.1069 45.1542 30.2585C44.9051 30.4082 44.6617 30.519 44.4223 30.6123C43.9414 30.795 43.4682 30.9116 42.997 31.0049C42.0526 31.1798 41.1295 31.2712 40.1793 31.275L40.1021 30.4276C40.5327 30.3343 40.9769 30.2352 41.4076 30.1225C41.8402 30.0156 42.2689 29.897 42.6841 29.759C43.0974 29.6249 43.503 29.4733 43.8622 29.2945C44.0418 29.207 44.2079 29.1098 44.3431 29.0088C44.4763 28.9096 44.5768 28.8027 44.598 28.7483C44.6019 28.7405 44.6019 28.7367 44.6038 28.7328L44.6366 28.6589L44.7042 28.5092C44.7486 28.4082 44.795 28.311 44.8375 28.208C44.9224 28.0058 45.0094 27.8037 45.0905 27.5957C45.2527 27.1856 45.4072 26.7678 45.5559 26.3479C45.7046 25.9281 45.8379 25.5024 45.9711 25.0748C46.1063 24.6531 46.2299 24.2119 46.3438 23.8037L48.0009 24.2177L47.9989 24.2158Z" fill="#DC897C"/>
<path d="M47.0545 22.752C46.1082 23.374 45.6041 24.9911 45.4438 25.7822L47.406 27.236L48.3967 26.2642C48.7984 24.0329 47.4137 22.5169 47.0545 22.752Z" fill="#407BFF"/>
<path opacity="0.6" d="M47.0545 22.752C46.1082 23.374 45.6041 24.9911 45.4438 25.7822L47.406 27.236L48.3967 26.2642C48.7984 24.0329 47.4137 22.5169 47.0545 22.752Z" fill="white"/>
<path d="M56.6315 19.7217L55.2313 19.8714C55.1521 19.8791 55.0865 19.8131 55.0845 19.7198L54.9996 16.7324C54.9976 16.6411 55.0594 16.5594 55.1367 16.5516L56.5368 16.402C56.616 16.3942 56.6817 16.4603 56.6836 16.5536L56.7686 19.541C56.7705 19.6323 56.7087 19.7139 56.6315 19.7217Z" fill="#263238"/>
<path opacity="0.6" d="M56.6315 19.7217L55.2313 19.8714C55.1521 19.8791 55.0865 19.8131 55.0845 19.7198L54.9996 16.7324C54.9976 16.6411 55.0594 16.5594 55.1367 16.5516L56.5368 16.402C56.616 16.3942 56.6817 16.4603 56.6836 16.5536L56.7686 19.541C56.7705 19.6323 56.7087 19.7139 56.6315 19.7217Z" fill="white"/>
<path d="M56.5079 19.7354L55.1078 19.885C55.0286 19.8928 54.9629 19.8267 54.961 19.7334L54.876 16.7461C54.8741 16.6547 54.9359 16.5731 55.0131 16.5653L56.4133 16.4157C56.4925 16.4079 56.5581 16.474 56.5601 16.5673L56.645 19.5546C56.647 19.646 56.5852 19.7276 56.5079 19.7354Z" fill="#263238"/>
<path opacity="0.7" d="M56.5079 19.7354L55.1078 19.885C55.0286 19.8928 54.9629 19.8267 54.961 19.7334L54.876 16.7461C54.8741 16.6547 54.9359 16.5731 55.0131 16.5653L56.4133 16.4157C56.4925 16.4079 56.5581 16.474 56.5601 16.5673L56.645 19.5546C56.647 19.646 56.5852 19.7276 56.5079 19.7354Z" fill="white"/>
<path d="M56.4153 16.4737L56.0484 16.5125L56.002 16.6253L55.4342 16.6855L55.3802 16.5825L55.0132 16.6214C54.963 16.6272 54.9225 16.6797 54.9244 16.7399L55.0094 19.7273C55.0094 19.7876 55.0538 19.8303 55.1059 19.8245L56.5061 19.6748C56.5563 19.669 56.5968 19.6165 56.5949 19.5563L56.5099 16.5689C56.5099 16.5087 56.4655 16.4659 56.4134 16.4717L56.4153 16.4737Z" fill="#407BFF"/>
<path opacity="0.8" d="M56.2279 17.5528L55.1985 17.6636C55.1483 17.6694 55.1058 17.6266 55.1039 17.5683L55.0962 17.2807C55.0962 17.2224 55.1348 17.1699 55.185 17.166L56.2144 17.0552C56.2646 17.0494 56.3071 17.0921 56.309 17.1505L56.3167 17.4381C56.3167 17.4964 56.2781 17.5489 56.2279 17.5528Z" fill="white"/>
</g>
<defs>
<clipPath id="clip0_7121_34304">
<rect width="70" height="60" fill="white"/>
</clipPath>
</defs>
</svg>
