<svg width="70" height="75" viewBox="0 0 70 75" fill="none" xmlns="http://www.w3.org/2000/svg">
<g clip-path="url(#clip0_7121_34747)">
<path d="M46.5521 47.4307C48.607 44.7877 49.834 41.4782 49.834 37.8886C49.834 36.9409 49.7442 36.0136 49.5804 35.1111H53.5765C55.1527 37.0403 57.5578 38.276 60.2495 38.276C65.1906 38.276 69.1708 34.1126 68.8205 29.1314C68.5248 24.9273 65.0962 21.5218 60.8636 21.2282C55.8498 20.8803 51.6569 24.8336 51.6569 29.7413C51.6569 30.096 51.682 30.4462 51.724 30.7895H48.1123C45.7333 26.1698 41.1129 22.8682 35.6829 22.3215V13.0651C38.3143 12.1434 40.2009 9.65286 40.2009 6.72402C40.2009 3.01017 37.1703 0 33.4312 0C29.6922 0 26.6616 3.01017 26.6616 6.72402C26.6616 9.71047 28.6221 12.2406 31.3331 13.1171V22.4842C28.7836 22.9315 26.4455 23.9887 24.4747 25.5L20.6663 21.7172C21.4817 20.3189 21.8729 18.6472 21.6545 16.875C21.2247 13.3904 18.4192 10.587 14.9121 10.1476C9.93922 9.52523 5.72025 13.5813 6.11713 18.4812C6.41735 22.1826 9.39223 25.195 13.112 25.5621C14.7143 25.7203 16.229 25.3916 17.5299 24.7105L21.4259 28.5802C19.4814 31.1826 18.3294 34.4029 18.3294 37.8852C18.3294 38.5832 18.3806 39.2688 18.4704 39.9431L12.9482 41.4127C11.7246 39.6721 9.69358 38.5313 7.39419 38.5313C3.65512 38.5313 0.624512 41.5414 0.624512 45.2553C0.624512 48.9691 3.65512 51.9793 7.39419 51.9793C11.1333 51.9793 13.9933 49.134 14.1559 45.5636L19.6326 44.1066C22.0594 49.6468 27.6225 53.5313 34.0828 53.5313C37.5888 53.5313 40.8309 52.3871 43.451 50.4556L47.4357 54.4134C48.2852 55.2572 49.6623 55.2572 50.5118 54.4134C51.3613 53.5697 51.3613 52.2018 50.5118 51.3581L46.5555 47.4285L46.5521 47.4307ZM33.131 50.1371C27.0846 49.6864 22.2026 44.8374 21.7489 38.8317C21.2053 31.6344 26.947 25.6039 34.0806 25.6039C39.8711 25.6039 44.7428 29.5776 46.0825 34.9236V35.1111H46.1257C46.3349 36.0045 46.4486 36.933 46.4486 37.8886C46.4486 44.974 40.3772 50.6781 33.131 50.1371Z" fill="#086FB6"/>
<path d="M35.6817 61.378V58.2809C35.6817 57.0881 34.7083 56.1201 33.5063 56.1201C32.3043 56.1201 31.3309 57.087 31.3309 58.2809V61.378C28.3207 62.3528 26.1976 65.2929 26.5058 68.6668C26.8162 72.0576 29.6296 74.7707 33.0514 74.9865C37.1328 75.2429 40.5364 72.0181 40.5364 68.0185C40.5364 64.9225 38.4963 62.2918 35.6817 61.3791V61.378Z" fill="#FF5200"/>
<path d="M62.8526 59.7413C61.7211 59.7413 60.6544 60.0192 59.7174 60.506L56.5799 57.3896C55.7304 56.5459 54.3533 56.5459 53.5038 57.3896C52.6543 58.2334 52.6543 59.6012 53.5038 60.445L56.713 63.6325C56.3093 64.4932 56.083 65.4533 56.083 66.4653C56.083 70.1792 59.1136 73.1893 62.8526 73.1893C66.5917 73.1893 69.6223 70.1792 69.6223 66.4653C69.6223 62.7515 66.5917 59.7413 62.8526 59.7413Z" fill="black"/>
<path d="M7.29273 50.8602C10.379 50.8602 12.8809 48.3752 12.8809 45.3097C12.8809 42.2443 10.379 39.7593 7.29273 39.7593C4.20649 39.7593 1.70459 42.2443 1.70459 45.3097C1.70459 48.3752 4.20649 50.8602 7.29273 50.8602Z" fill="white"/>
<path d="M4.61712 43.4514C4.88208 43.1747 5.23347 43.0132 5.64627 43.0132C6.45027 43.0132 6.98361 43.596 7.08595 44.4703C7.11893 44.7538 7.11893 45.1536 7.11893 45.6167C7.11893 45.6642 7.11893 45.7127 7.11893 45.7613V47.4974H6.01359V46.2142C6.01359 46.2142 6.01131 45.1152 6.00449 44.9108C5.97492 44.0162 5.44158 43.4548 4.61826 43.4537C4.37035 43.7146 4.2373 44.0331 4.21683 44.52C4.21455 44.5877 4.21455 44.8283 4.21683 45.1468C4.21683 45.3118 4.21683 45.4959 4.21683 45.689C4.21683 46.526 4.21683 47.4985 4.21683 47.4985H3.11148V45.523C3.11148 45.4552 3.11035 45.3874 3.10921 45.3185C3.10693 45.1807 3.10466 45.0418 3.11148 44.904C3.12399 44.6747 3.16379 44.4488 3.27183 44.2398C3.5186 43.7598 4.02351 43.4514 4.56253 43.4514C4.58187 43.4514 4.60006 43.4514 4.61826 43.4526L4.61712 43.4514Z" fill="#820AD1"/>
<path d="M11.4757 45.7151C11.4837 45.5773 11.4803 45.4384 11.478 45.3006C11.4768 45.2317 11.4757 45.1639 11.4757 45.0961V43.1206H10.3704C10.3704 43.1206 10.3704 44.0942 10.3704 44.9301C10.3704 45.1221 10.3704 45.3073 10.3704 45.4723C10.3704 45.7897 10.3715 46.0302 10.3704 46.0991C10.351 46.586 10.218 46.9056 9.96894 47.1654C9.14561 47.1654 8.61227 46.6029 8.58271 45.7083C8.57588 45.5028 8.57361 44.9933 8.57361 44.4037V43.1206H7.46826V44.8567C7.46826 44.9052 7.46826 44.9538 7.46826 45.0013C7.46826 45.4644 7.46826 45.8642 7.50124 46.1477C7.60359 47.0208 8.13579 47.6048 8.93978 47.6048C9.35258 47.6048 9.70397 47.4433 9.96894 47.1665C9.98713 47.1665 10.0065 47.1677 10.0247 47.1677C10.5637 47.1677 11.0686 46.8593 11.3154 46.3793C11.4234 46.1703 11.4632 45.9444 11.4757 45.7151Z" fill="#820AD1"/>
<path d="M13.9008 24.6292C17.6447 24.6292 20.6796 21.6147 20.6796 17.8961C20.6796 14.1776 17.6447 11.1631 13.9008 11.1631C10.157 11.1631 7.12207 14.1776 7.12207 17.8961C7.12207 21.6147 10.157 24.6292 13.9008 24.6292Z" fill="white"/>
<path fill-rule="evenodd" clip-rule="evenodd" d="M13.1694 19.6266L12.3984 19.1127L16.0624 16.6594L13.8006 15.1481L12.7373 15.8586L13.5629 16.4019L11.6592 17.6658L10.0638 16.6187L13.9063 14.0762L17.7193 16.6086L13.1706 19.6255L13.1694 19.6266ZM14.6159 16.1454L15.3869 16.6594L11.7229 19.1127L13.9893 20.624L15.0538 19.9135L14.2282 19.3759L16.1364 18.1119L17.7318 19.159L13.879 21.697L10.0763 19.1737L14.6148 16.1466L14.6159 16.1454ZM11.6285 20.6884L10.8427 20.1552L10.0479 20.6884L10.0569 21.7151L11.6285 20.6884ZM16.1921 15.1244L16.9824 15.6575L17.7534 15.1492V14.0976L16.1921 15.1244Z" fill="#003DA4"/>
<path d="M30.2503 66.3706H31.1112V67.2087H30.2662C29.9319 67.2087 29.6453 67.4787 29.6453 67.8119V69.5355H28.7686V67.8119C28.7686 67.0189 29.4384 66.3706 30.2503 66.3706Z" fill="white"/>
<path d="M32.0673 65.1055C32.3539 65.1055 32.5927 65.3415 32.5927 65.6431C32.5927 65.9278 32.3539 66.1638 32.0673 66.1638C31.7648 66.1638 31.5249 65.9278 31.5249 65.6431C31.5249 65.3415 31.7637 65.1055 32.0673 65.1055Z" fill="white"/>
<path d="M32.3858 66.3706H31.5249V69.5366H32.3858V66.3706Z" fill="white"/>
<path d="M37.2465 67.2719L36.6881 67.8581L37.2465 68.4274C37.549 68.7437 38.0436 68.7437 38.3461 68.4274C38.6486 68.1111 38.6486 67.5893 38.3461 67.2708C38.0277 66.9545 37.549 66.9545 37.2465 67.2708V67.2719ZM34.4115 66.1582C34.8243 66.1582 35.2382 66.3231 35.5566 66.6563L34.9675 67.2719C34.6651 66.9556 34.1704 66.9556 33.8679 67.2719C33.5654 67.5904 33.5654 68.1111 33.8679 68.4285C34.1704 68.7448 34.6651 68.7448 34.9675 68.4285L36.6244 66.6879L36.6563 66.6563C37.2783 65.9922 38.2984 65.9922 38.9193 66.6563C39.5572 67.3205 39.5572 68.3822 38.9352 69.0475C38.2972 69.7117 37.2772 69.7117 36.6563 69.0475L36.5926 68.9843L36.0991 68.4613L35.6044 68.9843L35.5566 69.0475C34.9198 69.7117 33.8997 69.7117 33.2777 69.0475C32.6568 68.3834 32.6568 67.3216 33.2777 66.6563C33.5881 66.3231 33.9987 66.1582 34.4115 66.1582Z" fill="white"/>
<path d="M33.4299 11.9729C36.476 11.9729 38.9453 9.52027 38.9453 6.49476C38.9453 3.46926 36.476 1.0166 33.4299 1.0166C30.3839 1.0166 27.9146 3.46926 27.9146 6.49476C27.9146 9.52027 30.3839 11.9729 33.4299 11.9729Z" fill="white"/>
<path d="M35.1017 6.20994C35.0846 5.95128 35.0153 5.69149 34.8765 5.46671L33.6927 3.4076C33.6051 3.25286 33.5346 3.08004 33.5005 2.90723L33.4494 2.99307C33.1537 3.49345 33.1537 4.13501 33.4494 4.63539L34.4057 6.27771C34.7014 6.77809 34.7014 7.41965 34.4057 7.92003L34.3546 8.00587C34.3193 7.83306 34.2499 7.66024 34.1635 7.5055L33.2924 6.00211L32.7352 5.03411C32.6488 4.87937 32.5794 4.70655 32.5441 4.53373L32.493 4.61958C32.1973 5.11995 32.1973 5.74345 32.493 6.2619L33.4494 7.90422C33.745 8.40459 33.745 9.04616 33.4494 9.54653L33.3982 9.63238C33.3629 9.45956 33.2936 9.28675 33.2071 9.132L32.0063 7.07515C31.8505 6.79842 31.7811 6.48667 31.7811 6.17605C30.5063 6.507 29.6182 7.21521 29.6182 8.02959C29.6182 9.17153 31.3251 10.0864 33.4289 10.0864C35.5327 10.0864 37.2396 9.1704 37.2396 8.02959C37.2578 7.25022 36.389 6.54202 35.1005 6.21446L35.1017 6.20994Z" fill="#EA1D25"/>
<path d="M60.2674 36.5826C64.091 36.5826 67.1906 33.5039 67.1906 29.7061C67.1906 25.9083 64.091 22.8296 60.2674 22.8296C56.4439 22.8296 53.3442 25.9083 53.3442 29.7061C53.3442 33.5039 56.4439 36.5826 60.2674 36.5826Z" fill="white"/>
<path fill-rule="evenodd" clip-rule="evenodd" d="M57.394 25.2627L63.1414 25.2661C64.0432 25.2661 64.7869 26.0048 64.7835 26.9039V32.6125C64.7835 33.5116 64.0398 34.2469 63.1346 34.2469L57.3838 34.2435C56.4786 34.2401 55.7383 33.5048 55.7383 32.6057L55.7451 26.8971C55.7451 25.998 56.4854 25.2593 57.394 25.2627Z" fill="#33348E"/>
<path fill-rule="evenodd" clip-rule="evenodd" d="M63.5111 29.3608H62.8561L62.5854 29.8714H63.0448L63.5111 29.3608ZM63.9466 30.1899H63.3075V31.5589C63.3075 31.9779 63.0232 32.0988 62.814 32.0988C62.6047 32.0988 62.3944 32.0253 62.3978 31.6594V30.1899H61.7587L61.7553 31.7509C61.7553 32.3552 62.1032 32.6229 62.5831 32.6229C62.9175 32.6262 63.1779 32.4817 63.3234 32.2264H63.3303V32.5585H63.9455V30.1887L63.9466 30.1899ZM61.2606 30.8179C61.2606 30.2305 60.6385 30.1266 60.294 30.1266C59.797 30.1266 59.2807 30.2305 59.2023 30.9557H59.8209C59.8414 30.8179 59.8982 30.627 60.2166 30.627C60.3827 30.627 60.6385 30.6406 60.6385 30.9026C60.6385 31.037 60.5135 31.0777 60.4122 31.0901L59.838 31.1737C59.4286 31.2313 59.1249 31.4685 59.1249 31.9327C59.1249 32.4229 59.5036 32.624 59.8653 32.624C60.3042 32.624 60.5112 32.4263 60.6522 32.2817C60.6658 32.4128 60.6761 32.4467 60.7125 32.5607L61.2629 32.5573C61.2629 32.2953 61.2594 32.1044 61.2594 32.101V30.819L61.2606 30.8179ZM58.537 29.3608H57.8979V30.1865H57.567V30.6326H57.8945V32.0728C57.8945 32.3778 57.9923 32.5867 58.5461 32.5867H58.6303C58.7315 32.5867 58.8327 32.5799 58.9305 32.5765V32.1033C58.8861 32.1067 58.8395 32.1134 58.7986 32.1134C58.5382 32.1134 58.5313 32.0592 58.5313 31.9192L58.5347 30.6338H58.9339V30.1876H58.5347V29.3619L58.537 29.3608ZM57.2736 29.3574H56.5845L56.5811 32.5562H57.2702L57.2736 29.3574Z" fill="#FFF22D"/>
<path fill-rule="evenodd" clip-rule="evenodd" d="M60.6387 31.7098V31.4048C60.575 31.4556 60.4658 31.4951 60.2031 31.5324C59.9632 31.5731 59.7676 31.6329 59.7676 31.8916C59.7676 32.1062 59.9438 32.1774 60.0644 32.1774C60.3487 32.1774 60.6387 32 60.6387 31.7109V31.7098Z" fill="#33348E"/>
<path d="M66.8098 64.8152C66.7609 64.7384 66.1298 63.7839 65.0096 63.7896C64.3626 63.793 63.902 64.1149 63.7371 64.2425C63.6894 64.1228 63.545 63.8607 63.545 63.8607H61.5765C61.5765 63.8607 61.0966 64.5046 60.8566 64.8378C60.6167 64.5034 60.1368 63.8607 60.1368 63.8607H58.456C58.456 63.8607 59.8002 65.6725 60.0163 65.9831C59.8002 66.2926 58.3594 68.2241 58.3594 68.2241H60.0401C60.0401 68.2241 60.5678 67.4854 60.8328 67.1273C61.0727 67.4854 61.6254 68.2241 61.6254 68.2241H62.7535V69.7026H64.1693V68.1055C64.4092 68.2252 64.6969 68.2964 64.9858 68.2964C65.7545 68.2964 66.4016 67.8909 66.7859 67.2708C67.2579 66.4925 67.2704 65.5392 66.8098 64.8152ZM62.7535 67.4616C62.3213 66.889 61.7937 66.174 61.6493 65.9831C61.7937 65.7922 62.3452 65.0535 62.7535 64.5046V67.4616ZM64.938 66.9613C64.5059 66.9613 64.1693 66.5558 64.1693 66.0554C64.1693 65.555 64.5059 65.1495 64.938 65.1495C65.3463 65.1495 65.6817 65.555 65.6817 66.0554C65.6817 66.5558 65.3451 66.9613 64.938 66.9613Z" fill="white"/>
<path d="M43.0393 34.1113L37.8606 28.9663L34.0988 32.7028L30.337 28.9663L25.1582 34.1113L28.92 37.8466L25.1582 41.583L30.337 46.7268L34.0988 42.9915L37.8606 46.7268L43.0393 41.583L39.2775 37.8466L43.0393 34.1113Z" fill="white"/>
<path d="M34.0988 41.583L30.337 45.3195L26.5752 41.583H34.0988Z" fill="#086FB6"/>
<path d="M34.0988 41.5831H26.5752L30.337 37.8467L34.0988 41.5831Z" fill="#1FACE3"/>
<path d="M37.8604 37.8466L34.0986 41.5831V34.1113L37.8604 37.8466Z" fill="#E6286D"/>
<path d="M34.0987 34.1113V41.5831L30.3369 37.8466L34.0987 34.1113Z" fill="#A7154A"/>
<path d="M34.0988 34.1113L30.337 37.8466L26.5752 34.1113H34.0988Z" fill="#D59F2E"/>
<path d="M34.0988 34.1114H26.5752L30.337 30.375L34.0988 34.1114Z" fill="#FBBE18"/>
<path d="M41.6223 41.583L37.8604 45.3195L34.0986 41.583H41.6223Z" fill="#34A836"/>
<path d="M41.6223 41.5831H34.0986L37.8604 37.8467L41.6223 41.5831Z" fill="#0B8137"/>
<path d="M41.6223 34.1113L37.8604 37.8466L34.0986 34.1113H41.6223Z" fill="#1A9899"/>
<path d="M41.6223 34.1114H34.0986L37.8604 30.375L41.6223 34.1114Z" fill="#40B187"/>
</g>
<defs>
<clipPath id="clip0_7121_34747">
<rect width="69" height="75" fill="white" transform="translate(0.62207)"/>
</clipPath>
</defs>
</svg>
