<svg width="99" height="67" viewBox="0 0 99 67" fill="none" xmlns="http://www.w3.org/2000/svg">
<g clip-path="url(#clip0_7121_35122)">
<path d="M24.7527 15.1863C24.7527 15.1863 23.5447 14.3603 21.7769 14.9967C20.0098 15.6331 19.6127 18.0239 20.0479 19.9642C20.4832 21.9045 18.0498 28.5294 18.0498 28.5294C18.0498 28.5294 19.3144 30.316 23.734 29.6324C23.734 29.6324 27.0295 23.6158 26.7848 19.2961C26.5401 14.9764 24.7515 15.1863 24.7515 15.1863H24.7527Z" fill="#0E3944"/>
<path d="M26.1479 22.6497C27.8091 22.1161 28.8254 23.5056 29.7774 26.0913C30.7289 28.677 31.0492 28.9366 31.0492 28.9366L34.7228 31.3076L34.4173 32.6893C34.4173 32.6893 30.9212 31.3142 30.0757 30.4391C29.2303 29.5646 26.7987 25.1337 26.7987 25.1337L26.1479 22.6491V22.6497Z" fill="#EF6E4B"/>
<path d="M18.0524 39.356C18.0524 39.356 17.3319 43.0225 17.4504 48.542C17.4504 48.542 14.6104 52.7493 16.9545 64.7525H18.1839C18.1839 64.7525 19.1884 54.5401 19.9564 51.7725C20.7251 49.005 23.5621 48.1562 23.7157 39.7424L18.0524 39.3566V39.356Z" fill="#FF8B66"/>
<path d="M12.4337 50.1375C11.7192 47.7725 9.88304 43.8111 5.17291 38.4417C5.17291 38.4417 4.89188 38.2964 4.51203 38.5296C4.11133 38.7755 4.11133 39.065 4.11133 39.065C4.11133 39.065 6.47324 44.2358 7.97898 48.0243C8.48625 49.2996 9.71276 50.1375 11.0798 50.1375H12.4331H12.4337Z" fill="#FF8B66"/>
<path d="M21.0093 54.7105C21.0093 54.7105 21.0253 56.475 19.8727 56.5055C18.2455 56.5498 18.1853 54.7686 16.3414 54.8266C14.4975 54.8846 10.6935 55.3476 9.4837 52.4526C8.85913 50.9567 9.71411 49.0367 7.69693 47.5892C5.67975 46.1417 6.65976 44.5208 7.69693 43.6523C8.7341 42.7862 7.2498 41.837 8.33102 41.3944C8.58942 41.2903 8.84246 41.3017 9.07764 41.3806C9.21577 41.4291 9.34497 41.4967 9.46941 41.5798C10.041 41.962 10.4423 42.6265 10.4423 42.6265C13.4966 34.2228 18.9343 33.1133 18.9343 33.1133L24.3125 34.9777C24.4417 48.0528 21.0093 54.7105 21.0093 54.7105Z" fill="#036FB7"/>
<path d="M26.1477 22.6498C26.1477 22.6498 24.8932 23.075 23.1082 22.8029C21.3238 22.5307 20.7433 21.4051 19.4888 22.1294C17.6056 23.2168 18.4868 26.9611 18.9595 28.908C19.1358 29.6335 19.3591 31.5404 18.9339 33.1146C18.9339 33.1146 21.4417 35.0747 24.3121 34.9772L25.878 31.5559C25.878 31.5559 29.2836 27.4623 26.1477 22.6504V22.6498Z" fill="#19ADE4"/>
<path d="M22.9611 19.5097C22.9611 19.5097 23.1701 21.2808 22.5176 22.8922C22.5176 22.8922 23.4488 24.2732 24.3371 23.3647C24.3371 23.3647 24.4181 21.7414 25.4165 19.9051C26.0852 18.6754 22.9605 19.5103 22.9605 19.5103L22.9611 19.5097Z" fill="#EF6E4B"/>
<path d="M21.5342 19.5698C21.5342 19.5698 20.7488 19.0704 20.8376 19.8408C20.9406 20.7332 21.8068 20.9073 21.8991 20.595C21.9914 20.2834 21.5348 19.5698 21.5348 19.5698H21.5342Z" fill="#FF8B66"/>
<path d="M26.0399 18.6037C26.0399 18.6037 26.5382 17.816 26.7853 18.5505C27.0711 19.4016 26.3614 19.9304 26.1452 19.6875C25.9297 19.4447 26.0399 18.6037 26.0399 18.6037Z" fill="#FF8B66"/>
<path d="M24.4182 22.2371C22.9934 22.5577 21.9813 21.8034 21.3561 19C21.034 17.5537 21.5687 16.5022 23.1643 16.1428C24.76 15.7839 25.6298 16.5196 25.9519 17.9658C26.6235 20.9786 25.8894 21.9057 24.4182 22.2371Z" fill="#FF8B66"/>
<path d="M25.7036 19.072C25.7608 19.2102 25.6673 19.3807 25.4953 19.4519C25.3232 19.5236 25.1374 19.4698 25.0803 19.331C25.0231 19.1929 25.1166 19.0224 25.2887 18.9512C25.4607 18.8794 25.6465 18.9333 25.7036 19.072Z" fill="#DB614D"/>
<path d="M22.7906 19.8093C22.8138 19.957 22.6834 20.1005 22.4989 20.1293C22.3149 20.158 22.147 20.0617 22.1238 19.9139C22.1005 19.7662 22.2315 19.6226 22.4155 19.5939C22.5995 19.5652 22.7674 19.6615 22.7906 19.8093Z" fill="#DB614D"/>
<path d="M24.7117 17.7655C24.698 17.7655 24.6838 17.7613 24.6713 17.753C24.4277 17.5897 24.0824 17.6764 24.0788 17.677C24.0389 17.6878 24.0002 17.6633 23.9901 17.6244C23.98 17.5849 24.0038 17.5454 24.0425 17.5353C24.0592 17.5311 24.4551 17.4318 24.7522 17.631C24.7856 17.6537 24.7945 17.6991 24.7725 17.7326C24.7582 17.7536 24.7356 17.7649 24.7117 17.7649V17.7655Z" fill="#0E3944"/>
<path d="M22.029 18.3689C22.0165 18.3689 22.0034 18.3653 21.9915 18.3582C21.957 18.3372 21.9457 18.2924 21.9665 18.2577C22.1505 17.9502 22.5512 17.8701 22.5679 17.8671C22.6066 17.8611 22.6453 17.8856 22.653 17.9251C22.6607 17.9646 22.6345 18.0029 22.5952 18.0107C22.5917 18.0113 22.2416 18.0824 22.0915 18.333C22.0778 18.3558 22.0534 18.3683 22.029 18.3683V18.3689Z" fill="#0E3944"/>
<path d="M24.7735 18.5508C24.8128 18.7285 24.7657 18.8906 24.6669 18.9127C24.5686 18.9348 24.4567 18.8086 24.4174 18.631C24.3775 18.4533 24.4252 18.2913 24.524 18.2691C24.6222 18.247 24.7342 18.3732 24.7735 18.5508Z" fill="#1A4850"/>
<path d="M22.7946 18.9786C22.8345 19.1562 22.7869 19.3183 22.6886 19.3404C22.5904 19.3626 22.4784 19.2364 22.4391 19.0587C22.3998 18.8811 22.4469 18.719 22.5457 18.6969C22.644 18.6747 22.7559 18.8009 22.7952 18.9786H22.7946Z" fill="#1A4850"/>
<path d="M23.4346 20.662C23.4346 20.662 24.3497 20.5872 24.7528 20.2451C24.7528 20.2451 24.642 20.9635 24.1437 21.0131C23.6459 21.0628 23.4346 20.662 23.4346 20.662Z" fill="#1A4850"/>
<path d="M24.2753 18.5701C24.2753 18.5701 24.3074 18.1029 24.4855 18.0957C24.6635 18.0886 24.8772 18.4343 24.8772 18.4343L25.0999 18.2429L24.8546 18.3332C24.8546 18.3332 24.6355 17.9719 24.4664 18.009C24.2253 18.0623 24.2753 18.5701 24.2753 18.5701Z" fill="#1A4850"/>
<path d="M22.9043 18.935C22.9043 18.935 22.6768 18.5265 22.5125 18.5965C22.3482 18.6665 22.3023 19.0708 22.3023 19.0708L22.0195 18.9931L22.2797 18.9691C22.2797 18.9691 22.3244 18.5486 22.4935 18.5098C22.734 18.4547 22.9043 18.935 22.9043 18.935Z" fill="#1A4850"/>
<path d="M23.8961 19.8329L23.8228 19.6929C23.9413 19.6301 23.9514 19.5452 23.9389 19.4853C23.9217 19.401 23.8532 19.3334 23.8032 19.3298C23.7746 19.3286 23.7502 19.3526 23.7312 19.4034L23.5835 19.3484C23.6466 19.1779 23.7663 19.1683 23.8151 19.1719C23.9401 19.1815 24.0622 19.3047 24.0931 19.453C24.1253 19.608 24.0515 19.7503 23.8961 19.8323V19.8329Z" fill="#DB614D"/>
<path d="M21.6474 20.0744C21.6474 20.0744 21.208 18.4505 21.4688 17.3021C21.4688 17.3021 22.7084 15.5687 25.1001 16.4252C25.1001 16.4252 25.8092 17.573 26.161 19.179C26.161 19.179 26.2503 18.6018 26.0122 17.317C25.774 16.0323 24.6392 15.2338 23.0835 15.4909C21.5277 15.7481 19.8624 17.3033 21.6474 20.0744Z" fill="#0E3944"/>
<path d="M24.1552 16.0652C24.1552 16.0652 24.2498 16.4892 23.8396 17.5808C23.8396 17.5808 23.5443 17.271 23.1984 17.5808C22.8524 17.8906 22.1505 17.7872 21.9111 17.9546C21.6712 18.1221 21.6712 18.5049 21.6712 18.5049C21.6712 18.5049 21.4634 18.0282 21.6712 17.4564C21.6712 17.4564 21.2044 18.0521 21.2663 18.7878C21.2663 18.7878 20.6334 18.685 20.6626 17.6364C20.6912 16.5879 22.1749 14.8916 23.839 15.0017C25.5031 15.1117 25.8996 17.7591 25.8996 17.7591C25.8996 17.7591 25.7478 17.6394 25.5103 17.6927C25.5103 17.6927 25.4734 17.1316 25.0994 16.4258C25.0994 16.4258 25.2721 16.9354 25.0994 17.4857C25.0994 17.4857 24.6356 17.2417 24.2701 17.3176C24.2701 17.3176 24.4957 16.8738 24.1546 16.0652H24.1552Z" fill="#0E3944"/>
<path d="M19.067 22.4635C19.8767 21.8223 20.5078 22.6382 20.662 23.7669C20.8168 24.8955 19.3522 31.5533 18.2227 31.3081C17.7869 31.2136 17.6089 29.4694 17.6089 29.4694C17.6089 29.4694 18.0507 27.5973 18.3365 24.7801C18.468 23.4851 18.6443 22.7991 19.067 22.4641V22.4635Z" fill="#FF8B66"/>
<path d="M16.7105 30.3671C15.6204 29.3227 13.6651 25.8596 13.168 24.0951L13.9956 23.7607C13.9956 23.7607 16.4873 27.3423 17.6233 28.2449C18.7593 29.1481 19.1588 30.1536 18.6515 31.0149C18.1442 31.8762 16.9398 30.5866 16.7099 30.3671H16.7105Z" fill="#FF8B66"/>
<path d="M13.5076 21.7848C13.4505 22.9177 14.3692 23.1856 13.9619 24.0553C13.878 24.2347 13.75 24.3298 13.6166 24.3777C13.3641 24.4674 13.0837 24.3825 12.8956 24.1917C12.4586 23.7479 11.7834 23.2783 11.4244 23.0726C11.0159 22.8357 11.2469 22.7711 11.2469 22.7711C11.207 22.7526 11.1689 22.7364 11.1302 22.7209C10.8385 22.5983 10.6057 22.5522 10.8171 22.4218C11.0546 22.2735 11.8983 22.5827 11.8983 22.5827C10.8004 21.8482 10.5027 22.027 10.7033 21.8709C10.9766 21.6574 12.0203 22.1485 12.0519 22.1634C11.472 21.6125 11.0517 21.4875 11.2815 21.4044C11.5149 21.3201 12.6622 22.155 13.0807 22.4685C13.1754 22.539 13.2332 22.5839 13.2332 22.5839C13.2189 21.658 13.5082 21.7848 13.5082 21.7848H13.5076Z" fill="#FF8B66"/>
<path d="M13.0802 22.4678C13.1749 22.5384 13.2326 22.5832 13.2326 22.5832C13.2326 22.5832 13.0361 22.9152 13.2904 23.3452C13.2904 23.3452 12.823 23.0372 13.0802 22.4678Z" fill="#EF6E4B"/>
<path d="M12.1181 23.1184C12.0211 23.0646 11.4674 22.7518 11.2471 22.7703C11.2072 22.7518 11.1691 22.7356 11.1304 22.7201C11.2786 22.5239 12.008 23.0383 12.1181 23.1184Z" fill="#EF6E4B"/>
<path d="M16.4703 39.9251C16.4703 40.0484 16.3709 40.1476 16.2488 40.1476C16.1268 40.1476 16.0273 40.0478 16.0273 39.9251C16.0273 39.8025 16.1268 39.7026 16.2488 39.7026C16.3709 39.7026 16.4703 39.8025 16.4703 39.9251Z" fill="#3D87A2"/>
<path d="M20.4239 41.4569C20.4239 41.5801 20.3245 41.6794 20.2024 41.6794C20.0804 41.6794 19.981 41.5795 19.981 41.4569C19.981 41.3343 20.0804 41.2344 20.2024 41.2344C20.3245 41.2344 20.4239 41.3343 20.4239 41.4569Z" fill="#3D87A2"/>
<path d="M23.7921 42.2787C23.7921 42.4019 23.6927 42.5012 23.5706 42.5012C23.4486 42.5012 23.3491 42.4013 23.3491 42.2787C23.3491 42.156 23.4486 42.0562 23.5706 42.0562C23.6927 42.0562 23.7921 42.156 23.7921 42.2787Z" fill="#3D87A2"/>
<path d="M18.6163 37.0179C18.6163 37.1411 18.5169 37.2404 18.3948 37.2404C18.2728 37.2404 18.1733 37.1405 18.1733 37.0179C18.1733 36.8953 18.2728 36.7954 18.3948 36.7954C18.5169 36.7954 18.6163 36.8953 18.6163 37.0179Z" fill="#3D87A2"/>
<path d="M19.1414 39.3561C19.2637 39.3561 19.3629 39.2565 19.3629 39.1336C19.3629 39.0108 19.2637 38.9111 19.1414 38.9111C19.0191 38.9111 18.9199 39.0108 18.9199 39.1336C18.9199 39.2565 19.0191 39.3561 19.1414 39.3561Z" fill="#3D87A2"/>
<path d="M22.8678 40.3387C22.8678 40.4619 22.7683 40.5612 22.6463 40.5612C22.5242 40.5612 22.4248 40.4613 22.4248 40.3387C22.4248 40.2161 22.5242 40.1162 22.6463 40.1162C22.7683 40.1162 22.8678 40.2161 22.8678 40.3387Z" fill="#3D87A2"/>
<path d="M23.3492 36.6903C23.3492 36.8135 23.2498 36.9128 23.1277 36.9128C23.0057 36.9128 22.9062 36.8129 22.9062 36.6903C22.9062 36.5677 23.0057 36.4678 23.1277 36.4678C23.2498 36.4678 23.3492 36.5677 23.3492 36.6903Z" fill="#3D87A2"/>
<path d="M20.8304 36.153C20.9527 36.153 21.0519 36.0534 21.0519 35.9305C21.0519 35.8076 20.9527 35.708 20.8304 35.708C20.708 35.708 20.6089 35.8076 20.6089 35.9305C20.6089 36.0534 20.708 36.153 20.8304 36.153Z" fill="#3D87A2"/>
<path d="M14.5099 44.2674C14.5099 44.3906 14.4104 44.4899 14.2884 44.4899C14.1663 44.4899 14.0669 44.39 14.0669 44.2674C14.0669 44.1448 14.1663 44.0449 14.2884 44.0449C14.4104 44.0449 14.5099 44.1448 14.5099 44.2674Z" fill="#3D87A2"/>
<path d="M11.3512 43.3211C11.3512 43.4444 11.2517 43.5436 11.1297 43.5436C11.0076 43.5436 10.9082 43.4438 10.9082 43.3211C10.9082 43.1985 11.0076 43.0986 11.1297 43.0986C11.2517 43.0986 11.3512 43.1985 11.3512 43.3211Z" fill="#3D87A2"/>
<path d="M9.46947 41.5806C9.43018 41.641 9.36111 41.6799 9.28252 41.6799C9.16047 41.6799 9.06104 41.5806 9.06104 41.4574C9.06104 41.4299 9.0658 41.4042 9.07711 41.3809C9.21524 41.4293 9.34444 41.4969 9.46888 41.58L9.46947 41.5806Z" fill="#3D87A2"/>
<path d="M15.4197 47.3933C15.5421 47.3933 15.6412 47.2936 15.6412 47.1707C15.6412 47.0479 15.5421 46.9482 15.4197 46.9482C15.2974 46.9482 15.1982 47.0479 15.1982 47.1707C15.1982 47.2936 15.2974 47.3933 15.4197 47.3933Z" fill="#3D87A2"/>
<path d="M9.97276 50.326C9.97276 50.4492 9.87333 50.5485 9.75127 50.5485C9.62922 50.5485 9.52979 50.4486 9.52979 50.326C9.52979 50.2034 9.62922 50.1035 9.75127 50.1035C9.87333 50.1035 9.97276 50.2034 9.97276 50.326Z" fill="#3D87A2"/>
<path d="M12.0672 48.6354C12.1895 48.6354 12.2887 48.5358 12.2887 48.4129C12.2887 48.2901 12.1895 48.1904 12.0672 48.1904C11.9449 48.1904 11.8457 48.2901 11.8457 48.4129C11.8457 48.5358 11.9449 48.6354 12.0672 48.6354Z" fill="#3D87A2"/>
<path d="M8.61846 46.9435C8.74078 46.9435 8.83994 46.8439 8.83994 46.721C8.83994 46.5982 8.74078 46.4985 8.61846 46.4985C8.49613 46.4985 8.39697 46.5982 8.39697 46.721C8.39697 46.8439 8.49613 46.9435 8.61846 46.9435Z" fill="#3D87A2"/>
<path d="M11.6241 53.3846C11.6241 53.5078 11.5247 53.6071 11.4026 53.6071C11.2806 53.6071 11.1812 53.5072 11.1812 53.3846C11.1812 53.262 11.2806 53.1621 11.4026 53.1621C11.5247 53.1621 11.6241 53.262 11.6241 53.3846Z" fill="#3D87A2"/>
<path d="M13.7335 41.68C13.7335 41.8032 13.6341 41.9025 13.512 41.9025C13.39 41.9025 13.2905 41.8026 13.2905 41.68C13.2905 41.5574 13.39 41.4575 13.512 41.4575C13.6341 41.4575 13.7335 41.5574 13.7335 41.68Z" fill="#3D87A2"/>
<path d="M15.8624 37.931C15.8624 38.0542 15.763 38.1535 15.6409 38.1535C15.5189 38.1535 15.4194 38.0536 15.4194 37.931C15.4194 37.8084 15.5189 37.7085 15.6409 37.7085C15.763 37.7085 15.8624 37.8084 15.8624 37.931Z" fill="#3D87A2"/>
<path d="M18.2721 34.8104C18.2721 34.9336 18.1726 35.0329 18.0506 35.0329C17.9285 35.0329 17.8291 34.933 17.8291 34.8104C17.8291 34.6878 17.9285 34.5879 18.0506 34.5879C18.1726 34.5879 18.2721 34.6878 18.2721 34.8104Z" fill="#3D87A2"/>
<path d="M13.3893 39.3563C13.3893 39.4795 13.2898 39.5788 13.1678 39.5788C13.0457 39.5788 12.9463 39.4789 12.9463 39.3563C12.9463 39.2337 13.0457 39.1338 13.1678 39.1338C13.2898 39.1338 13.3893 39.2337 13.3893 39.3563Z" fill="#3D87A2"/>
<path d="M16.0846 35.7083C16.0846 35.8316 15.9851 35.9308 15.8631 35.9308C15.741 35.9308 15.6416 35.831 15.6416 35.7083C15.6416 35.5857 15.741 35.4858 15.8631 35.4858C15.9851 35.4858 16.0846 35.5857 16.0846 35.7083Z" fill="#3D87A2"/>
<path d="M11.8453 45.7323C11.8453 45.8555 11.7459 45.9548 11.6238 45.9548C11.5018 45.9548 11.4023 45.8549 11.4023 45.7323C11.4023 45.6097 11.5018 45.5098 11.6238 45.5098C11.7459 45.5098 11.8453 45.6097 11.8453 45.7323Z" fill="#3D87A2"/>
<path d="M9.06211 43.766C9.06211 43.8892 8.96268 43.9885 8.84063 43.9885C8.71857 43.9885 8.61914 43.8886 8.61914 43.766C8.61914 43.6433 8.71857 43.5435 8.84063 43.5435C8.96268 43.5435 9.06211 43.6433 9.06211 43.766Z" fill="#3D87A2"/>
<path d="M16.9139 43.3205C17.0362 43.3205 17.1354 43.2209 17.1354 43.098C17.1354 42.9751 17.0362 42.8755 16.9139 42.8755C16.7915 42.8755 16.6924 42.9751 16.6924 43.098C16.6924 43.2209 16.7915 43.3205 16.9139 43.3205Z" fill="#3D87A2"/>
<path d="M21.4954 44.4899C21.6177 44.4899 21.7169 44.3903 21.7169 44.2674C21.7169 44.1445 21.6177 44.0449 21.4954 44.0449C21.3731 44.0449 21.2739 44.1445 21.2739 44.2674C21.2739 44.3903 21.3731 44.4899 21.4954 44.4899Z" fill="#3D87A2"/>
<path d="M21.4957 37.931C21.4957 38.0542 21.3963 38.1535 21.2742 38.1535C21.1522 38.1535 21.0527 38.0536 21.0527 37.931C21.0527 37.8084 21.1522 37.7085 21.2742 37.7085C21.3963 37.7085 21.4957 37.8084 21.4957 37.931Z" fill="#3D87A2"/>
<path d="M24.1593 38.3973C24.1593 38.5205 24.0598 38.6198 23.9378 38.6198C23.8157 38.6198 23.7163 38.5199 23.7163 38.3973C23.7163 38.2747 23.8157 38.1748 23.9378 38.1748C24.0598 38.1748 24.1593 38.2747 24.1593 38.3973Z" fill="#3D87A2"/>
<path d="M18.8385 45.9549C18.8385 46.0781 18.739 46.1774 18.617 46.1774C18.4949 46.1774 18.3955 46.0775 18.3955 45.9549C18.3955 45.8323 18.4949 45.7324 18.617 45.7324C18.739 45.7324 18.8385 45.8323 18.8385 45.9549Z" fill="#3D87A2"/>
<path d="M16.6922 50.1374C16.8145 50.1374 16.9137 50.0378 16.9137 49.9149C16.9137 49.792 16.8145 49.6924 16.6922 49.6924C16.5699 49.6924 16.4707 49.792 16.4707 49.9149C16.4707 50.0378 16.5699 50.1374 16.6922 50.1374Z" fill="#3D87A2"/>
<path d="M13.2903 50.7707C13.4127 50.7707 13.5118 50.6711 13.5118 50.5482C13.5118 50.4253 13.4127 50.3257 13.2903 50.3257C13.168 50.3257 13.0688 50.4253 13.0688 50.5482C13.0688 50.6711 13.168 50.7707 13.2903 50.7707Z" fill="#3D87A2"/>
<path d="M22.6463 47.3933C22.7686 47.3933 22.8678 47.2936 22.8678 47.1707C22.8678 47.0479 22.7686 46.9482 22.6463 46.9482C22.524 46.9482 22.4248 47.0479 22.4248 47.1707C22.4248 47.2936 22.524 47.3933 22.6463 47.3933Z" fill="#3D87A2"/>
<path d="M19.8058 48.8587C19.8058 48.9819 19.7063 49.0812 19.5843 49.0812C19.4622 49.0812 19.3628 48.9813 19.3628 48.8587C19.3628 48.7361 19.4622 48.6362 19.5843 48.6362C19.7063 48.6362 19.8058 48.7361 19.8058 48.8587Z" fill="#3D87A2"/>
<path d="M15.1983 53.8299C15.1983 53.9531 15.0989 54.0524 14.9769 54.0524C14.8548 54.0524 14.7554 53.9525 14.7554 53.8299C14.7554 53.7073 14.8548 53.6074 14.9769 53.6074C15.0989 53.6074 15.1983 53.7073 15.1983 53.8299Z" fill="#3D87A2"/>
<path d="M18.3948 52.8933C18.5171 52.8933 18.6163 52.7936 18.6163 52.6707C18.6163 52.5479 18.5171 52.4482 18.3948 52.4482C18.2725 52.4482 18.1733 52.5479 18.1733 52.6707C18.1733 52.7936 18.2725 52.8933 18.3948 52.8933Z" fill="#3D87A2"/>
<path d="M21.6878 51.5817C21.8101 51.5817 21.9093 51.4821 21.9093 51.3592C21.9093 51.2363 21.8101 51.1367 21.6878 51.1367C21.5655 51.1367 21.4663 51.2363 21.4663 51.3592C21.4663 51.4821 21.5655 51.5817 21.6878 51.5817Z" fill="#3D87A2"/>
<path d="M20.4239 55.1893C20.4239 55.3125 20.3245 55.4118 20.2024 55.4118C20.0804 55.4118 19.981 55.3119 19.981 55.1893C19.981 55.0667 20.0804 54.9668 20.2024 54.9668C20.3245 54.9668 20.4239 55.0667 20.4239 55.1893Z" fill="#3D87A2"/>
<path d="M20.1816 66.9126H16.542C16.3045 66.2319 16.7427 65.5489 16.6688 64.9489C16.542 63.9345 17.1297 64.495 17.1297 64.495C17.2333 63.404 18.7593 63.1982 18.7432 63.6845C18.7176 64.3999 18.8563 64.8425 19.0587 65.1385C19.469 65.7337 20.1424 65.7289 20.2573 66.1554C20.2686 66.1972 20.2781 66.2385 20.2847 66.2756C20.3978 66.8079 20.1811 66.9126 20.1811 66.9126H20.1816Z" fill="#A71449"/>
<path d="M20.2853 66.2762C19.5316 66.4521 17.7936 66.223 17.7246 65.7827C17.6579 65.3569 18.5938 65.1577 19.0594 65.1392C19.4697 65.7343 20.143 65.7295 20.258 66.156C20.2693 66.1978 20.2788 66.2391 20.2853 66.2762Z" fill="#F1216C"/>
<path d="M5.21814 38.5882C4.83113 38.2341 4.20181 38.8197 4.20181 38.8197C4.20181 38.8197 4.54058 39.3245 4.32148 39.5285C4.10238 39.7324 3.84874 39.2665 3.41768 39.4705C3.38314 39.4866 3.34623 39.5075 3.3117 39.5309C2.9753 39.7324 2.62462 40.1559 2.34121 40.4783C2.28346 40.5429 2.22809 40.6033 2.17748 40.6565C1.84763 41.0041 0.997417 41.2074 0.838448 40.2815C0.679479 39.355 1.71665 38.2688 2.85563 37.2711C3.99461 36.2729 4.72992 36.8656 4.72992 36.8656C4.72992 36.8656 4.98832 37.2849 4.98832 37.5463C4.98832 37.8077 5.21873 37.9351 5.34793 38.1833C5.47713 38.4285 5.21873 38.5888 5.21873 38.5888L5.21814 38.5882Z" fill="#A71449"/>
<path d="M3.31241 39.5308C2.97601 39.7324 2.62533 40.1558 2.34192 40.4782C1.91562 40.5799 1.53279 40.55 1.47265 40.1469C1.32738 39.1743 3.25942 37.9374 3.10462 38.621C3.02602 38.9638 3.15999 39.2903 3.31181 39.5314L3.31241 39.5308Z" fill="#F1216C"/>
<path d="M70.7139 65.3319C70.5347 65.2374 70.3692 65.0293 70.2203 64.7655C70.2203 64.7655 70.0923 63.9867 70.2203 63.1691C70.3484 62.3509 69.9935 61.6833 68.8414 61.4321C67.7209 61.1881 67.0559 61.7306 67.3148 63.9939C67.3148 63.9939 67.3148 63.9939 67.3148 63.9945C67.1446 64.9348 67.1088 66.0084 67.4976 66.9128H70.9467C70.9467 66.9128 71.4909 65.7416 70.7133 65.3313L70.7139 65.3319Z" fill="#CFD8DC"/>
<path d="M73.7395 53.134C73.7395 53.134 73.7395 55.3919 72.4719 57.7079C71.1811 60.0663 69.5848 63.3028 69.5848 63.3028C69.5848 63.3028 68.5215 64.3453 67.8457 62.6185C67.8457 62.6185 68.3226 56.6079 69.4175 54.408C70.5125 52.2081 73.7395 53.1346 73.7395 53.1346V53.134Z" fill="#FF8B66"/>
<path d="M90.279 45.7812C90.279 45.7812 92.3331 54.4601 93.6399 56.7497C93.6399 56.7497 93.3393 57.7074 91.924 57.9968C91.924 57.9968 87.4544 51.3971 87.1663 48.6182C86.8781 45.8393 90.2784 45.7812 90.2784 45.7812H90.279Z" fill="#FF8B66"/>
<path d="M91.2725 47.8212C90.7259 49.1437 86.5052 49.2155 86.5052 49.2155L86.1825 48.7382L86.0973 48.6131L85.4382 47.6358C85.4382 47.6358 78.4442 40.7442 77.0819 41.3231H77.0796C77.0403 41.3417 77.001 41.3626 76.9641 41.3901C76.0281 42.0618 75.9406 45.7415 74.8344 51.9178C74.7284 52.504 74.4932 53.187 74.3158 53.6596C74.2949 53.7104 74.2765 53.7595 74.258 53.8055C74.1568 54.0675 74.0854 54.2338 74.0854 54.2338C69.8164 55.9707 68.4077 52.5387 68.4077 52.5387C68.4077 52.5387 68.4583 52.4394 68.5321 52.2791C68.5482 52.2444 68.5667 52.2049 68.5851 52.163C68.809 51.6672 69.1662 50.8083 69.1615 50.3543C69.1567 49.8567 69.152 49.377 69.1502 48.9164C69.1502 48.8745 69.1502 48.8351 69.1478 48.7962C69.1406 47.3116 69.143 46.022 69.1525 44.9012V44.7833C69.1573 44.2946 69.1639 43.8383 69.1734 43.4124V43.2922C69.2103 41.3399 69.2722 40.036 69.3395 39.1681C69.3419 39.1286 69.3466 39.0867 69.349 39.0502C69.4663 37.589 69.5914 37.4455 69.5914 37.4455L68.7364 31.4731H78.0679C78.0679 31.4731 79.4695 32.8835 81.2884 34.7455C81.3277 34.7826 81.3646 34.8197 81.4015 34.8592C82.0606 35.5332 82.7733 36.2648 83.4878 37.0082C83.5175 37.0381 83.5455 37.0663 83.5705 37.0938C83.8515 37.3857 84.1331 37.6775 84.4118 37.967C84.4463 38.0017 84.4785 38.0388 84.513 38.0735C85.449 39.0485 86.3569 40.0097 87.1339 40.85C87.1613 40.8775 87.1869 40.9056 87.2125 40.9332C88.2753 42.0887 89.0844 43.0129 89.3631 43.4435C90.1031 44.5806 90.6795 46.0603 90.9974 46.9749V46.9773C91.0135 47.0191 91.0272 47.0562 91.0415 47.0951C91.1915 47.5395 91.2743 47.8224 91.2743 47.8224L91.2725 47.8212Z" fill="#A71449"/>
<path d="M70.9869 38.3378C70.6064 38.7894 70.0533 39.0675 69.3389 39.1668C69.3412 39.1274 69.346 39.0855 69.3484 39.049C70.0218 38.9515 70.5427 38.6877 70.9 38.2619C71.5406 37.5022 71.437 36.4765 71.4346 36.4669L71.5501 36.4531C71.5549 36.4974 71.6609 37.5393 70.9875 38.3384L70.9869 38.3378Z" fill="#662C33"/>
<path d="M81.3997 34.8575C81.3628 34.8599 81.3283 34.8623 81.2914 34.8623C80.2542 34.8623 79.1706 33.7229 79.1152 33.6648L79.198 33.5835C79.2117 33.5996 80.2905 34.7343 81.2866 34.7439C81.3259 34.781 81.3628 34.818 81.3997 34.8575Z" fill="#662C33"/>
<path d="M74.3158 53.6591C74.295 53.71 74.2766 53.759 74.2581 53.8051C73.5663 54.0599 72.9328 54.1639 72.354 54.1639C70.5101 54.1639 69.233 53.0915 68.5322 52.2786C68.5483 52.2439 68.5668 52.2045 68.5852 52.1626C69.4819 53.2189 71.3978 54.777 74.3158 53.6585V53.6591Z" fill="#662C33"/>
<path d="M76.8212 39.172C76.9754 39.8365 77.0748 40.5614 77.0796 41.3234C77.0403 41.342 77.001 41.3629 76.9641 41.3904C76.9593 37.8938 74.9445 35.1657 74.9219 35.1358L75.0142 35.0664C75.0326 35.0897 76.227 36.7107 76.7914 39.0517C77.0266 38.8968 77.1855 38.6743 77.2522 38.3872C77.5428 37.1599 76.2216 35.1543 76.2103 35.1334L76.305 35.0688C76.3603 35.1543 77.6648 37.1365 77.3654 38.4129C77.2868 38.7467 77.1028 38.9991 76.8212 39.1726V39.172Z" fill="#662C33"/>
<path d="M87.2109 40.9321C86.8673 41.3072 86.5446 41.6272 86.5149 41.6547L86.4523 41.7175L86.4226 41.6343C85.9707 40.4465 83.0664 37.8709 83.036 37.8458L83.0015 37.8135L83.4855 37.0078C83.5153 37.0377 83.5433 37.0658 83.5683 37.0933L83.1628 37.7698C83.7278 37.9666 84.1285 38.0013 84.4102 37.9666C84.4447 38.0013 84.4768 38.0384 84.5114 38.0731C84.4167 38.0892 84.3155 38.0988 84.2095 38.0988C83.9487 38.0988 83.6516 38.0456 83.3176 37.9439C83.9767 38.5414 86.026 40.4495 86.4964 41.5123C86.6786 41.3317 86.909 41.093 87.1329 40.8502C87.1603 40.8777 87.1859 40.9058 87.2115 40.9333L87.2109 40.9321Z" fill="#662C33"/>
<path d="M71.2729 48.8954L71.2271 48.9043C71.183 48.9157 70.6602 49.0246 70.0583 49.0246C69.7564 49.0246 69.4385 48.9971 69.1503 48.9157C69.1503 48.8738 69.1503 48.8344 69.1479 48.7955C69.9089 49.0156 70.9252 48.8463 71.1556 48.8027L70.9621 43.9835C70.8537 44.2473 70.6394 44.6086 70.2381 44.8078C70.047 44.9053 69.8327 44.9513 69.5975 44.9513C69.457 44.9513 69.3093 44.9352 69.1527 44.9005V44.7826C69.5516 44.8754 69.8975 44.8496 70.1857 44.7037C70.6745 44.4602 70.868 43.9393 70.9282 43.7335C70.5429 43.7915 69.7666 43.5948 69.1742 43.4117V43.2915C69.8124 43.4859 70.6769 43.7108 70.9883 43.6019L71.0621 43.5762L71.2741 48.8954H71.2729Z" fill="#662C33"/>
<path d="M91.04 47.0939C90.369 47.7584 88.9954 48.7752 86.8812 48.7752C86.6573 48.7752 86.4245 48.7639 86.1828 48.7382L86.0977 48.6132C88.668 48.9098 90.2791 47.6986 90.9959 46.9761C91.012 47.0179 91.0257 47.055 91.04 47.0939Z" fill="#662C33"/>
<path d="M79.7905 6.07967C79.7905 6.07967 79.5339 5.48633 78.4509 5.48633C77.6161 5.48633 77.2964 5.94928 77.2964 5.94928C76.7969 7.41589 76.2598 13.0317 76.0681 13.2315C75.9705 13.3326 69.7778 17.5231 69.7778 17.5231C73.1382 17.5865 75.2352 21.7477 75.2352 21.7477C75.3435 20.3804 79.1391 14.9613 79.1796 14.478C79.2564 13.5665 80.8622 9.49559 79.7905 6.07967Z" fill="#A71449"/>
<path d="M69.0397 35.4432C69.0397 35.4432 69.0087 36.6149 69.3856 36.6921C69.7625 36.7692 72.8365 37.682 76.3707 36.0676C79.9055 34.4533 80.52 33.257 79.4828 32.3694C78.4457 31.4818 69.0391 35.4432 69.0391 35.4432H69.0397Z" fill="#A71449"/>
<path d="M67.6236 18.3342C67.6236 18.3342 64.4079 17.9514 62.5634 18.7534C62.5634 18.7534 62.049 21.0461 64.5824 26.1768C67.1158 31.3076 66.5281 34.5393 69.3854 35.7559C71.9188 36.8343 79.3868 33.6253 79.6213 32.5607C80.212 29.881 75.6447 25.1786 75.3566 22.4541C75.0684 19.729 72.4177 15.6324 67.623 18.3348L67.6236 18.3342Z" fill="#F1216C"/>
<path d="M62.5635 18.7531C60.3159 19.5545 57.7873 22.09 57.7837 23.312C57.7801 24.534 59.8926 25.0047 59.8926 25.0047L63.356 23.312C63.356 23.312 64.3467 22.617 63.7162 20.5917C63.0856 18.5664 62.5635 18.7531 62.5635 18.7531Z" fill="#A71449"/>
<path d="M71.7988 21.0126C71.1272 21.0126 70.2943 20.7698 69.7769 20.3989C69.4917 20.195 69.3214 19.9641 69.2845 19.7326C69.1577 18.9305 69.9347 18.5232 69.968 18.5059L70.0728 18.7122C70.046 18.726 69.4119 19.0621 69.5125 19.6961C69.5393 19.8648 69.6768 20.0425 69.9102 20.2099C70.4896 20.625 71.4916 20.8685 72.1447 20.753C72.4389 20.701 72.6312 20.5945 72.7163 20.4372C72.8205 20.2446 72.7318 20.0269 72.7306 20.0245L72.9426 19.933C72.9479 19.9462 73.0771 20.2524 72.9205 20.5449C72.8003 20.7686 72.5532 20.9157 72.1846 20.9809C72.0655 21.0019 71.9352 21.012 71.7988 21.012V21.0126Z" fill="#CFD8DC"/>
<path d="M68.9485 23.4559C68.4513 23.4559 67.6255 23.2478 67.51 22.4272C67.4511 22.0097 67.4892 21.6615 67.5225 21.3547C67.5719 20.9025 67.6106 20.5454 67.3487 20.1172C66.9158 19.4108 66.3258 19.3629 66.3008 19.3617L66.3145 19.1309C66.3442 19.1327 67.0456 19.1823 67.5446 19.9964C67.8482 20.4922 67.8012 20.9235 67.7512 21.3804C67.7178 21.6885 67.6827 22.0067 67.7381 22.3955C67.8631 23.2801 68.986 23.2251 69.0336 23.2227L69.0473 23.4535C69.0164 23.4553 68.983 23.4565 68.9485 23.4565V23.4559Z" fill="#CFD8DC"/>
<path d="M69.6479 19.2995C69.6479 19.2995 71.3478 18.1362 70.9447 16.8771C70.541 15.618 65.0664 15.7048 63.6547 17.2102C62.2431 18.7157 66.7091 19.7146 66.7091 19.7146C67.055 19.0148 69.2639 18.9376 69.6479 19.2995Z" fill="#F1216C"/>
<path d="M66.5912 19.1028C65.7844 18.8277 65.3063 18.2427 65.479 17.5674C65.6517 16.8921 69.1198 16.8742 69.7777 17.4137C70.4356 17.9532 69.5092 20.0981 66.5912 19.1028Z" fill="#A71449"/>
<path d="M66.207 17.2045C66.207 17.2045 66.9203 18.4295 66.5911 19.103C66.5911 19.103 69.0393 19.9523 69.0393 18.576C69.0393 18.576 68.5779 17.5442 68.7517 16.8779L66.207 17.2051V17.2045Z" fill="#EF6E4B"/>
<path d="M65.3907 16.1351C65.3907 16.1351 64.1874 14.1995 64.2993 12.3507C64.3553 11.4266 64.8286 11.0641 64.8286 11.0641C64.8286 11.0641 64.4464 10.5306 64.856 9.71533C64.856 9.71533 65.4228 10.3739 67.4114 10.1663C69.3292 9.96595 69.5203 11.3393 69.5203 11.3393C70.8909 11.5438 69.9663 15.7092 69.0101 16.1351H65.3913H65.3907Z" fill="#FFB878"/>
<path d="M64.8806 14.3479C64.8806 14.3479 64.1893 13.6546 64.1042 14.4651C64.0053 15.4042 64.8544 15.7822 65.0205 15.4831C65.1866 15.1847 64.8812 14.3479 64.8812 14.3479H64.8806Z" fill="#FF8B66"/>
<path d="M69.7221 14.3962C69.7221 14.3962 70.4134 13.703 70.4985 14.5134C70.5973 15.4525 69.7483 15.8305 69.5822 15.5321C69.4161 15.2336 69.7215 14.3968 69.7215 14.3968L69.7221 14.3962Z" fill="#FF8B66"/>
<path d="M67.2281 17.7482C65.6938 17.7482 64.8281 16.7416 64.8281 13.7222C64.8281 12.1647 65.617 11.2095 67.3353 11.2095C69.0536 11.2095 69.7776 12.1647 69.7776 13.7222C69.7776 16.9665 68.8131 17.7482 67.2281 17.7482Z" fill="#FF8B66"/>
<path d="M69.2697 14.7988C69.2965 14.9537 69.1619 15.1069 68.969 15.1404C68.7761 15.1744 68.5981 15.0758 68.5713 14.9208C68.5445 14.7659 68.679 14.6128 68.8719 14.5793C69.0648 14.5458 69.2429 14.6439 69.2697 14.7988Z" fill="#DB614D"/>
<path d="M66.1141 14.8832C66.1039 15.0399 65.9372 15.1571 65.7419 15.1439C65.5467 15.1314 65.3966 14.9938 65.4067 14.8365C65.4169 14.6798 65.5836 14.5626 65.7789 14.5757C65.9741 14.5883 66.1242 14.7258 66.1141 14.8832Z" fill="#DB614D"/>
<path d="M68.5938 13.1799C68.5736 13.1829 68.5527 13.1781 68.5355 13.1649C68.2914 12.9765 67.9246 13.0429 67.9192 13.0441C67.8781 13.0507 67.8377 13.0244 67.8299 12.9825C67.8222 12.9406 67.8496 12.9006 67.8912 12.8928C67.9073 12.8892 68.3312 12.8132 68.6289 13.0429C68.6623 13.0686 68.6688 13.1171 68.6432 13.1512C68.6307 13.1673 68.6129 13.1775 68.5938 13.1805V13.1799Z" fill="#FFB878"/>
<path d="M65.6577 13.1905C65.6386 13.1881 65.6208 13.1791 65.6077 13.163C65.5809 13.1301 65.5856 13.0816 65.6184 13.0547C65.9089 12.8155 66.3346 12.8789 66.3513 12.8819C66.393 12.8884 66.4216 12.9279 66.415 12.9698C66.4085 13.0116 66.368 13.0398 66.3275 13.0344C66.3245 13.0332 65.9512 12.9799 65.7154 13.1743C65.6982 13.1881 65.6773 13.1935 65.6571 13.1911L65.6577 13.1905Z" fill="#FFB878"/>
<path d="M68.4357 14.0499C68.4357 14.2413 68.3499 14.3962 68.244 14.3962C68.138 14.3962 68.0522 14.2413 68.0522 14.0499C68.0522 13.8585 68.138 13.7036 68.244 13.7036C68.3499 13.7036 68.4357 13.8585 68.4357 14.0499Z" fill="#1A4850"/>
<path d="M66.3864 14.0499C66.3864 14.2413 66.3006 14.3962 66.1946 14.3962C66.0887 14.3962 66.0029 14.2413 66.0029 14.0499C66.0029 13.8585 66.0887 13.7036 66.1946 13.7036C66.3006 13.7036 66.3864 13.8585 66.3864 14.0499Z" fill="#1A4850"/>
<path d="M65.2993 11.5437C65.2993 11.5437 66.9342 12.1454 69.2783 11.9761C69.2783 11.9761 69.7778 12.6018 69.7177 14.8101C69.7177 14.8101 71.09 10.8325 67.0836 10.8325C63.0773 10.8325 64.8819 14.7222 64.8819 14.7222C64.8819 14.7222 64.5544 12.2896 65.2999 11.5443L65.2993 11.5437Z" fill="#FFB878"/>
<path d="M67.3254 15.0794L67.2104 14.9634L67.5141 14.6608C67.22 14.2427 67.2212 13.2755 67.2218 13.2324L67.3849 13.2336C67.3849 13.2438 67.3831 14.2845 67.6838 14.6117L67.7374 14.6697L67.326 15.08L67.3254 15.0794Z" fill="#DB614D"/>
<path d="M66.3071 15.5831C66.3071 15.5831 67.817 15.6471 68.5791 15.4443C68.5791 15.4443 68.7137 16.5473 67.5438 16.6023C66.3071 16.6603 66.3071 15.5831 66.3071 15.5831Z" fill="#1A4850"/>
<path d="M72.7597 19.7537C73.0479 19.6999 73.0193 20.4577 72.7597 20.2382C72.5002 20.0187 72.4716 19.8076 72.7597 19.7537Z" fill="#CFD8DC"/>
<path d="M69.2847 23.4243C69.2407 23.7156 68.5381 23.4398 68.8292 23.2658C69.121 23.0917 69.3288 23.1336 69.2847 23.4243Z" fill="#CFD8DC"/>
<path d="M66.1919 25.005C66.1919 25.005 65.7341 26.1839 65.7603 26.8496C65.7865 27.5153 66.0032 27.4286 66.0032 27.4286C66.0032 27.4286 65.6561 27.5656 65.5906 27.9496C65.5251 28.3336 66.4896 28.6153 66.5557 28.6153C66.6218 28.6153 67.3029 28.3545 67.3029 28.3545L67.4458 26.1761L66.8433 25.7957L66.1919 25.0044V25.005Z" fill="#EF6E4B"/>
<path d="M66.5561 24.8521C66.5561 24.8521 67.3891 25.373 67.7118 25.6918C68.0345 26.01 67.8499 28.4707 67.7118 28.5868C67.5736 28.7028 66.5115 28.9415 66.3078 28.8075C66.1042 28.6735 66.387 27.9498 66.387 27.9498C66.387 27.9498 66.9205 27.8337 66.8437 28.0365C66.7669 28.2393 66.8437 28.4127 66.8437 28.4127L67.0628 28.326C67.0628 28.326 66.955 27.7757 67.0628 27.3708C67.1706 26.9652 66.312 26.5382 66.2078 25.7965C66.1042 25.0548 66.5561 24.8521 66.5561 24.8521Z" fill="#FF8B66"/>
<path d="M57.9225 23.6535C57.6558 22.4967 58.7989 22.087 60.3892 22.2844C62.2331 22.5134 66.0204 22.9979 66.8438 25.0047C66.8438 25.0047 67.1129 25.796 66.4169 26.1764C64.4718 27.2393 58.4238 25.8265 57.9231 23.6535H57.9225Z" fill="#A71449"/>
<path d="M63.691 22.8866C63.691 22.8866 61.4934 21.9691 60.3985 21.8764C59.3036 21.7837 61.9126 22.7449 63.691 22.8866Z" fill="#A02E44"/>
<path d="M80.1664 3.00899C80.0003 3.19859 79.7258 3.93788 79.7258 3.93788C79.6103 4.55874 79.5436 4.90147 79.3269 5.18618C79.1125 5.47089 79.2257 5.97332 79.2257 5.97332C79.2257 5.97332 78.3868 6.40636 77.6812 5.87163C77.6812 5.87163 77.755 5.37399 77.6812 5.23223C77.5359 4.94992 77.0703 4.79919 76.9114 4.22977C76.7524 3.65796 76.2749 3.02095 76.2749 3.02095C76.2749 3.02095 76.4106 2.72428 76.6601 2.90491C76.9114 3.08794 77.0703 3.54431 77.2067 3.59037C77.2341 3.59934 77.2621 3.60652 77.2894 3.60891C77.2894 3.60891 77.2918 3.60891 77.2966 3.6113C77.4002 3.62506 77.5062 3.60233 77.5711 3.53953C77.5758 3.53714 77.5824 3.53235 77.5871 3.52577C77.8152 3.2596 77.8682 2.47665 77.8592 2.12675C77.8455 1.64047 77.864 0.968767 78.1587 1.08241C78.454 1.19606 78.1843 1.46701 78.4124 2.53886L78.5231 2.55261C78.5439 2.62917 78.747 1.90185 78.7952 1.21879C78.8297 0.748656 79.1363 0.922113 79.203 1.07045C79.2721 1.21879 79.1685 1.68652 79.1477 2.02686C79.1316 2.25175 79.1131 2.48562 79.1018 2.62439L79.231 2.69617C79.6966 1.88091 79.5376 1.54297 79.8097 1.52682C80.0794 1.51067 79.9824 2.19852 79.8371 2.4599C79.7746 2.57355 79.7151 2.80981 79.6662 3.04129C80.1431 2.48802 80.0902 2.19852 80.3093 2.23321C80.5349 2.2703 80.3325 2.81938 80.1664 3.00899Z" fill="#FF8B66"/>
<path d="M78.1055 4.28493C77.9442 3.83813 77.3678 3.63417 77.2964 3.61084C77.4 3.6246 77.506 3.60187 77.5709 3.53906C78.1359 3.79387 78.1055 4.28493 78.1055 4.28493Z" fill="#EF6E4B"/>
<path d="M68.0916 63.5159C68.0916 63.5159 67.7725 62.8622 68.0571 62.5811C68.3417 62.2999 68.6763 62.8209 69.1621 62.7055C69.648 62.5894 69.7605 62.2431 69.8867 62.7156C70.0129 63.1882 69.8593 64.6739 68.0922 63.5165L68.0916 63.5159Z" fill="#CFD8DC"/>
<path d="M69.9198 63.4873C69.9198 63.4873 68.6153 63.9515 67.939 63.4873L68.111 64.0549C68.111 64.0549 69.5293 64.2057 69.7245 63.8468L69.9198 63.4879V63.4873Z" fill="#ADBEC4"/>
<path d="M69.903 64.1918C69.903 64.1918 68.7087 64.0255 68.1323 64.3234V64.6045C68.1323 64.6045 69.6899 64.239 70.193 64.6045L69.903 64.1918Z" fill="#ADBEC4"/>
<path d="M68.0742 65.1887C68.0742 65.1887 68.3058 64.6217 69.0328 64.581C69.7598 64.5403 70.2498 64.9423 70.2498 64.9423C70.2498 64.9423 69.0971 64.465 68.0742 65.1887Z" fill="#ADBEC4"/>
<path d="M98.8223 57.3089C96.5289 60.3844 93.4073 60.9748 93.4073 60.9748C92.5011 60.2475 92.4785 59.3862 92.4785 59.3862C92.4785 59.3862 91.605 58.6032 91.4895 58.2282C91.374 57.8532 92.2385 56.7227 92.7571 56.8387C93.1143 56.9177 93.3221 57.2048 93.4162 57.3735C92.9875 56.4033 93.331 56.0647 93.9395 56.1485C94.5736 56.234 93.9741 56.3847 94.4284 56.8967C94.4605 56.9338 94.4974 56.9637 94.5367 56.9919C94.6195 57.0499 94.7189 57.0893 94.832 57.1097C94.9309 57.1282 95.0416 57.133 95.1571 57.1258C95.2172 57.1234 95.2792 57.1169 95.3417 57.1073C95.459 57.0887 95.5792 57.0588 95.7037 57.0194C95.8948 56.959 96.0931 56.8734 96.2872 56.767C97.0802 56.3315 97.4142 56.1832 98.0186 56.3387C98.6199 56.4918 98.611 56.95 98.611 56.95L98.8229 57.3089H98.8223Z" fill="#CFD8DC"/>
<path d="M98.8223 57.3091C96.5289 60.3847 93.4072 60.975 93.4072 60.975C94.9999 60.2872 96.464 59.3864 97.4642 58.2769C98.4621 57.1673 98.8217 57.3091 98.8217 57.3091H98.8223Z" fill="#ADBEC4"/>
<path d="M94.5366 56.9917C94.6194 57.0497 94.7188 57.0892 94.8319 57.1095C94.2258 57.2321 94.1817 57.7764 94.1817 57.7764L93.9233 57.6933C93.9787 57.0401 94.4925 56.9941 94.5366 56.9917Z" fill="#ADBEC4"/>
<path d="M94.9449 57.8419L94.6752 57.8514C94.574 57.4668 94.705 57.2378 94.8318 57.1104C94.9307 57.1289 95.0414 57.1337 95.1569 57.1265C94.8366 57.4435 94.9449 57.8419 94.9449 57.8419Z" fill="#ADBEC4"/>
<path d="M95.6114 57.6931L95.3441 57.7278C95.2405 57.4545 95.2703 57.2505 95.3417 57.107C95.459 57.0884 95.5793 57.0585 95.7037 57.019C95.4822 57.3504 95.6114 57.6931 95.6114 57.6931Z" fill="#ADBEC4"/>
<path d="M69.9438 29.1367C69.9438 29.1367 70.5356 32.3456 69.3389 33.625C68.1421 34.9038 68.934 33.8529 69.2906 32.2039C69.6479 30.5548 69.3758 28.8184 69.9438 29.1367Z" fill="#A71449"/>
<path d="M75.4688 27.7048C75.4688 27.7048 77.3555 28.3274 78.3427 30.0781C78.3427 30.0781 77.0245 27.2275 75.4688 27.7048Z" fill="#A71449"/>
<path d="M26.4583 3.86135C26.7096 3.86554 27.4389 4.15683 27.4389 4.15683C27.9742 4.48759 28.2719 4.66823 28.6273 4.69813C28.9816 4.72983 29.1269 5.34112 29.1269 5.34112C29.1269 5.34112 30.5231 5.64796 30.6023 4.76333C30.6023 4.76333 29.8217 3.6538 29.7669 3.50367C29.6562 3.2058 29.8574 2.7584 29.5442 2.25717C29.2293 1.75474 29.0798 0.971786 29.0798 0.971786C29.0798 0.971786 28.7696 0.874291 28.7357 1.18053C28.7018 1.49036 28.9316 1.91504 28.8744 2.04722C28.8625 2.07414 28.8494 2.09926 28.8322 2.12139C28.8322 2.12139 28.8304 2.12319 28.8292 2.12797C28.7696 2.2147 28.6815 2.2781 28.5922 2.28408C28.5875 2.28588 28.5791 2.28827 28.5714 2.28647C28.2219 2.2775 27.6086 1.79182 27.3568 1.55018C27.0073 1.21343 26.4994 0.776198 26.3851 1.07227C26.2708 1.36835 26.6518 1.34921 27.2895 2.23922L27.2252 2.33074C27.2675 2.39773 26.5953 2.06038 26.0582 1.6375C25.6879 1.34741 25.6105 1.69253 25.6748 1.84206C25.7379 1.99279 26.1523 2.22965 26.4173 2.44318C26.5941 2.58195 26.7787 2.7255 26.8888 2.80984L26.8549 2.95399C25.9409 2.75361 25.7981 2.40789 25.6034 2.59989C25.4105 2.7901 25.9826 3.17948 26.2732 3.24707C26.3988 3.27698 26.6131 3.39062 26.8168 3.51025C26.088 3.4941 25.91 3.26023 25.7885 3.44625C25.6641 3.63944 26.2053 3.85656 26.4566 3.86075L26.4583 3.86135Z" fill="#FF8B66"/>
<path d="M28.7832 3.18303C28.5617 2.76255 28.7981 2.19671 28.8291 2.12793C28.7695 2.21466 28.6814 2.27806 28.5921 2.28404C28.401 2.87559 28.7832 3.18303 28.7832 3.18303Z" fill="#EF6E4B"/>
<path d="M67.5385 3.86135C67.2872 3.86554 66.5578 4.15683 66.5578 4.15683C66.0226 4.48759 65.7249 4.66823 65.3694 4.69813C65.0152 4.72983 64.8699 5.34112 64.8699 5.34112C64.8699 5.34112 63.4737 5.64796 63.3945 4.76333C63.3945 4.76333 64.1751 3.6538 64.2299 3.50367C64.3406 3.2058 64.1394 2.7584 64.4525 2.25717C64.7675 1.75474 64.9175 0.971786 64.9175 0.971786C64.9175 0.971786 65.2277 0.874291 65.2617 1.18053C65.2956 1.49036 65.0658 1.91504 65.123 2.04722C65.1349 2.07414 65.148 2.09926 65.1652 2.12139C65.1652 2.12139 65.167 2.12319 65.1682 2.12797C65.2277 2.2147 65.3159 2.2781 65.4052 2.28408C65.4099 2.28588 65.4183 2.28827 65.426 2.28647C65.7755 2.2775 66.3887 1.79182 66.6406 1.55018C66.9901 1.21343 67.498 0.776198 67.6123 1.07227C67.7266 1.36835 67.3455 1.34921 66.7079 2.23922L66.7722 2.33074C66.7299 2.39773 67.4021 2.06038 67.9391 1.6375C68.3095 1.34741 68.3869 1.69253 68.3226 1.84206C68.2595 1.99279 67.8451 2.22965 67.5801 2.44318C67.4033 2.58195 67.2187 2.7255 67.1086 2.80984L67.1425 2.95399C68.0564 2.75361 68.1993 2.40789 68.3934 2.59989C68.5863 2.7901 68.0142 3.17948 67.7236 3.24707C67.598 3.27698 67.3836 3.39062 67.18 3.51025C67.9088 3.4941 68.0868 3.26023 68.2083 3.44625C68.3327 3.63944 67.7915 3.85656 67.5402 3.86075L67.5385 3.86135Z" fill="#FF8B66"/>
<path d="M65.2133 3.18303C65.4348 2.76255 65.1984 2.19671 65.1675 2.12793C65.227 2.21466 65.3151 2.27806 65.4044 2.28404C65.5956 2.87559 65.2133 3.18303 65.2133 3.18303Z" fill="#EF6E4B"/>
<path d="M55.268 46.3792L52.5857 29.6943L47.2147 30.2967L41.8437 29.6943L39.1615 46.3792L37.873 62.5609C37.873 62.5609 38.2827 63.902 40.9619 62.9755C40.9619 62.9755 42.9499 47.9666 43.2572 47.6358C43.5644 47.3051 46.7211 37.5017 46.7211 37.5017H47.7083C47.7083 37.5017 50.8645 47.3051 51.1723 47.6358C51.4795 47.9666 53.4675 62.9755 53.4675 62.9755C56.1468 63.902 56.5564 62.5609 56.5564 62.5609L55.268 46.3792Z" fill="#036FB7"/>
<path d="M45.5228 13.5381C45.8621 13.8694 47.531 14.4682 48.4128 13.5381L49.0106 14.1278C49.0106 14.1278 48.3288 15.7374 47.1333 15.7942C45.9378 15.8505 45.0732 14.3617 45.0732 14.3617L45.5234 13.5381H45.5228Z" fill="#0C476B"/>
<path d="M50.25 13.3558C52.2475 12.4915 58.7022 10.1947 58.7022 10.1947C58.7022 10.1947 63.0408 4.73381 63.9261 3.92334C63.9261 3.92334 64.8865 4.0968 65.1675 5.29844C65.1675 5.29844 62.3733 11.3084 60.8551 13.0293C59.3362 14.7501 51.6444 18.471 51.6444 18.471L50.2506 13.3558H50.25Z" fill="#0A8336"/>
<path d="M43.2573 13.2323C43.8515 12.8549 46.8356 14.8604 46.8356 14.8604C46.8356 14.8604 50.7152 12.7909 51.6255 13.1916C51.6255 13.1916 52.446 14.2946 52.7758 17.1297C53.1057 19.9655 53.1271 31.6338 53.1271 31.6338C53.1271 31.6338 50.5187 32.5609 46.991 32.5609C42.9692 32.5609 40.8055 31.4023 40.8055 31.4023C40.8055 31.4023 40.0881 15.2468 43.2573 13.2329V13.2323Z" fill="#FCBF1E"/>
<path d="M45.6803 12.9288C45.6803 12.9288 46.1102 14.2866 45.6803 14.8093C45.6803 14.8093 46.1262 15.7496 46.9282 15.7915C47.8546 15.8393 48.1762 14.8093 48.1762 14.8093C48.1762 14.8093 47.6862 13.4982 48.1762 13.0371L45.6797 12.9282L45.6803 12.9288Z" fill="#EF6E4B"/>
<path d="M44.6095 11.5928C44.6095 11.5928 43.7051 9.84445 43.8843 7.97589C44.0636 6.10734 46.8655 5.67908 48.754 6.59721C48.754 6.59721 48.1932 6.04633 48.4129 5.89321C48.632 5.74009 49.0107 6.71922 49.0107 6.71922C49.0107 6.71922 49.6072 6.5356 49.6983 6.71922C49.7894 6.90285 49.0875 7.00334 49.0875 7.00334C49.0875 7.00334 50.3062 7.68221 49.1678 11.2955L44.6101 11.5922L44.6095 11.5928Z" fill="#8B383E"/>
<path d="M44.4736 10.4855C44.4736 10.4855 43.7996 9.80963 43.7163 10.5998C43.6198 11.5149 44.448 11.8839 44.6094 11.5927C44.7713 11.3014 44.4736 10.4855 44.4736 10.4855Z" fill="#FF8B66"/>
<path d="M49.1942 10.5329C49.1942 10.5329 49.8682 9.85699 49.9516 10.6471C50.048 11.5623 49.2198 11.9313 49.0585 11.64C48.8966 11.3487 49.1942 10.5329 49.1942 10.5329Z" fill="#FF8B66"/>
<path d="M46.7628 13.8012C45.2666 13.8012 44.4224 12.8197 44.4224 9.87572C44.4224 8.35707 45.1916 7.42578 46.867 7.42578C48.5425 7.42578 49.2486 8.35707 49.2486 9.87572C49.2486 13.0392 48.3085 13.8012 46.7628 13.8012Z" fill="#FF8B66"/>
<path d="M48.7533 10.9252C48.7795 11.0759 48.6485 11.2255 48.4604 11.2584C48.2722 11.2912 48.0984 11.1955 48.0722 11.0442C48.046 10.8929 48.177 10.744 48.3651 10.7111C48.5533 10.6782 48.7271 10.7739 48.7533 10.9252Z" fill="#DB614D"/>
<path d="M45.6763 11.008C45.6662 11.1611 45.5036 11.2748 45.3137 11.2628C45.1232 11.2503 44.9767 11.1163 44.9868 10.9632C44.9969 10.81 45.1595 10.6964 45.3494 10.709C45.5399 10.7215 45.6864 10.8555 45.6763 11.0086V11.008Z" fill="#DB614D"/>
<path d="M48.0691 9.39767C48.0495 9.39767 48.0298 9.38989 48.0149 9.37434C47.8077 9.15602 47.4445 9.16559 47.4392 9.16559C47.3987 9.16559 47.3636 9.13449 47.3624 9.09262C47.3606 9.05135 47.3933 9.01666 47.4344 9.01546C47.4505 9.01427 47.8702 9.0047 48.1227 9.27086C48.1513 9.30077 48.1501 9.34862 48.1203 9.37673C48.106 9.39049 48.087 9.39767 48.0685 9.39767H48.0691Z" fill="#8B383E"/>
<path d="M45.2526 9.39768C45.2341 9.39768 45.2157 9.3911 45.2014 9.37675C45.1716 9.34804 45.1704 9.30079 45.1984 9.27088C45.4515 9.00412 45.8706 9.01428 45.8867 9.01548C45.9278 9.01668 45.9605 9.05137 45.9587 9.09264C45.9575 9.13391 45.9212 9.16621 45.8819 9.16561C45.8789 9.16501 45.5116 9.15783 45.3068 9.37436C45.2919 9.38991 45.2722 9.39768 45.2526 9.39768Z" fill="#8B383E"/>
<path d="M47.9398 10.1949C47.9398 10.3815 47.8559 10.5328 47.7529 10.5328C47.6499 10.5328 47.5659 10.3815 47.5659 10.1949C47.5659 10.0083 47.6499 9.85693 47.7529 9.85693C47.8559 9.85693 47.9398 10.0083 47.9398 10.1949Z" fill="#1A4850"/>
<path d="M45.9418 10.1949C45.9418 10.3815 45.8578 10.5328 45.7548 10.5328C45.6518 10.5328 45.5679 10.3815 45.5679 10.1949C45.5679 10.0083 45.6512 9.85693 45.7548 9.85693C45.8584 9.85693 45.9418 10.0083 45.9418 10.1949Z" fill="#1A4850"/>
<path d="M45.942 12.1924C45.942 12.1924 47.2614 12.3628 47.9395 12.0356C47.9395 12.0356 47.5561 12.9382 46.8351 12.8569C46.1147 12.7761 45.9414 12.1924 45.9414 12.1924H45.942Z" fill="#1A4850"/>
<path d="M49.0929 10.8665C49.0929 10.8665 49.0465 9.23242 48.413 7.97575C48.413 7.97575 47.2966 8.49433 47.0507 8.37171C46.8048 8.24909 47.2847 7.97575 47.2847 7.97575C47.2847 7.97575 45.442 8.58584 45.3318 8.46382C45.2211 8.34121 45.9427 7.97575 45.9427 7.97575L44.7948 8.37171C44.7948 8.37171 44.4411 9.84251 44.5876 10.8665C44.5876 10.8665 44.0946 10.0118 44.0333 9.42143C43.9725 8.83107 44.2303 7.14794 45.9594 7.02592C47.6884 6.9033 48.6589 7.29747 49.0875 8.09478C49.5156 8.89208 49.4626 9.87302 49.0935 10.8665H49.0929Z" fill="#8B383E"/>
<path d="M47.0236 11.7196C46.8783 11.7196 46.7307 11.6819 46.686 11.6694L46.7283 11.5156C46.8855 11.5593 47.1314 11.585 47.185 11.5216C47.2034 11.4995 47.1963 11.4481 47.1647 11.3811C46.9486 10.9193 46.9034 9.74936 46.9016 9.70032L47.0605 9.69434C47.0605 9.7063 47.1058 10.8804 47.3082 11.3129C47.3701 11.4445 47.3695 11.5497 47.3064 11.6245C47.2451 11.6975 47.135 11.7196 47.0236 11.7196Z" fill="#DB614D"/>
<path d="M48.6788 13.9678C48.6788 13.9678 51.3861 22.411 51.6439 29.2811C51.6439 29.2811 52.6209 29.5514 53.7212 28.046C54.8215 26.5405 54.1671 14.618 52.0588 12.6322C52.0588 12.6322 51.1027 12.4132 48.6782 13.9672L48.6788 13.9678Z" fill="#35A936"/>
<path d="M49.1199 15.4445C49.1199 15.4445 49.6046 14.3134 49.389 13.5377C49.1735 12.7619 48.4126 13.5377 48.4126 13.5377C48.4126 13.5377 48.7204 14.8075 49.1199 15.4445Z" fill="#0A8336"/>
<path d="M43.6858 13.3559C41.6882 12.4916 35.2336 10.1948 35.2336 10.1948C35.2336 10.1948 30.8837 4.57474 29.9989 3.76367C29.9989 3.76367 28.904 4.38632 28.8296 5.6741C28.8296 5.6741 31.5624 11.3079 33.0807 13.0287C34.5995 14.7495 42.2914 18.4705 42.2914 18.4705L43.6852 13.3553L43.6858 13.3559Z" fill="#0A8336"/>
<path d="M45.257 13.9678C45.257 13.9678 42.5498 22.411 42.292 29.2811C42.292 29.2811 41.3149 29.5514 40.2146 28.046C39.1144 26.5405 39.7687 14.618 41.877 12.6322C41.877 12.6322 42.8332 12.4132 45.2576 13.9672L45.257 13.9678Z" fill="#35A936"/>
<path d="M44.8156 15.4445C44.8156 15.4445 44.3309 14.3134 44.5465 13.5377C44.762 12.7619 45.5229 13.5377 45.5229 13.5377C45.5229 13.5377 45.2151 14.8075 44.8156 15.4445Z" fill="#0A8336"/>
<path d="M58.9448 66.9127H53.5691C53.1934 64.766 53.7929 62.6169 53.7929 62.6169L56.2501 62.1929C56.474 63.55 56.7437 64.0848 57.117 64.3605H57.1194C57.3915 64.5597 57.7165 64.6243 58.122 64.766C58.5852 64.9281 58.8299 65.2224 58.952 65.5418C59.1943 66.1764 58.9448 66.9127 58.9448 66.9127Z" fill="#FCBF1E"/>
<path d="M58.9519 65.542C57.6266 65.7089 54.7151 65.9936 54.8925 65.2226C55.0402 64.579 56.2685 64.405 57.1169 64.3613H57.1193C57.3914 64.5605 57.7165 64.6251 58.1219 64.7669C58.5851 64.929 58.8298 65.2232 58.9519 65.5426V65.542Z" fill="#D5A02D"/>
<path d="M40.9414 66.9126H35.5656C35.5656 66.9126 35.3947 66.4078 35.4733 65.8731C35.5376 65.4376 35.7686 64.9812 36.3884 64.7659C36.854 64.6038 37.2112 64.5434 37.5042 64.2683C37.8221 63.9674 38.0597 63.4112 38.2603 62.1934L40.7175 62.6174C40.7175 62.6174 41.3147 64.7665 40.9414 66.9132V66.9126Z" fill="#FCBF1E"/>
<path d="M35.4741 65.8729C35.5384 65.4374 35.7694 64.981 36.3892 64.7657C36.8548 64.6036 37.2121 64.5432 37.505 64.2681C38.1849 64.4786 39.137 64.8656 39.4323 65.4512C39.8425 66.2545 36.7006 66.1277 35.4741 65.8729Z" fill="#D5A02D"/>
<path d="M79.535 66.5265C79.535 66.7531 79.5118 66.9134 79.5118 66.9134H72.981C72.981 66.7836 72.9833 66.6539 72.9899 66.5265C73.0637 64.8104 73.6031 63.3217 73.6031 63.3217L75.2351 62.6177C75.3756 63.4628 75.7376 64.0023 76.1919 64.3546C76.3116 64.4497 76.436 64.5281 76.5652 64.5957C76.6253 64.628 76.6849 64.6585 76.7474 64.686C76.8831 64.7488 77.0243 64.7997 77.1648 64.8409C77.7411 65.0168 78.324 65.0539 78.7324 65.1167C79.4284 65.2255 79.5344 66.0336 79.5344 66.527L79.535 66.5265Z" fill="#164353"/>
<path d="M79.535 66.5264C79.535 66.7531 79.5118 66.9134 79.5118 66.9134H72.981C72.981 66.7836 72.9833 66.6538 72.9899 66.5264H79.5344H79.535Z" fill="#225866"/>
<path d="M76.5665 64.595L75.6604 64.8869L75.4692 64.5532L76.1932 64.354C76.3129 64.4491 76.4373 64.5275 76.5665 64.595Z" fill="#225866"/>
<path d="M77.1653 64.8401L76.5544 65.2474L76.1787 65.0991L76.7479 64.6846C76.8836 64.7474 77.0248 64.7982 77.1653 64.8395V64.8401Z" fill="#225866"/>
<path d="M54.5838 66.5263C54.5677 66.7488 54.51 66.9133 54.51 66.9133H50.1601C50.1047 66.7859 50.0654 66.6585 50.038 66.5263C49.6093 64.4353 52.4999 61.8765 52.4999 61.8765L53.4174 63.1062C53.4174 63.1062 53.3115 65.0747 54.0884 65.4844C54.554 65.7296 54.6142 66.1932 54.5838 66.5263Z" fill="#164353"/>
<path d="M50.0381 66.5264H54.5839C54.5678 66.7489 54.5101 66.9134 54.5101 66.9134H50.1601C50.1048 66.786 50.0655 66.6586 50.0381 66.5264Z" fill="#225866"/>
<path d="M53.8897 65.3272C53.8897 65.3272 52.0571 64.9073 51.2212 65.451V65.1472C51.2212 65.1472 52.7627 64.3947 53.8897 65.3272Z" fill="#225866"/>
<path d="M53.5265 64.8597C53.5265 64.8597 52.3566 64.322 51.2212 64.8597L51.351 64.5535C51.351 64.5535 52.7067 64.0385 53.5265 64.8597Z" fill="#225866"/>
<path d="M77.5642 47.9352C77.5666 49.6931 76.0126 64.0231 76.0126 64.0231C74.4586 64.178 73.2143 63.8658 73.2143 63.8658C72.788 56.6033 72.7463 50.3576 72.7463 50.3576L65.3003 44.7513L65.2819 44.7376C65.2819 44.7376 65.2545 44.865 65.2033 45.0917C64.8347 46.7359 63.2736 53.6228 62.6241 55.2001C61.884 56.9968 53.7932 64.5542 53.7932 64.5542C52.2905 64.3461 51.0151 63.2521 51.0151 63.2521C53.9194 58.412 57.88 53.5582 57.88 53.5582C58.189 51.8147 58.4099 47.9358 58.5415 45.0361C58.5438 44.9918 58.5462 44.9457 58.5486 44.9015C58.6361 42.9378 58.6802 41.4556 58.6802 41.4556L57.3156 38.6444L65.985 35.4438L67.9284 37.9428C67.9284 37.9428 68.3731 38.3573 69.0739 39.0195C69.1061 39.0494 69.1382 39.0799 69.171 39.1098C71.7734 41.5759 77.5642 47.148 77.5642 47.9352Z" fill="#8BBDDB"/>
<path d="M58.542 45.0354C58.5444 44.9912 58.5468 44.9451 58.5491 44.9008C60.3746 43.905 60.068 42.3163 60.0638 42.3002L60.1769 42.2769C60.1817 42.293 60.5092 44.0001 58.5426 45.0348L58.542 45.0354Z" fill="#6097B2"/>
<path d="M65.1671 43.6271C65.2296 43.9746 65.2755 44.3497 65.3011 44.7504L65.2826 44.7366C65.2826 44.7366 65.2552 44.864 65.204 45.0907C65.1236 42.3675 64.0055 40.7579 63.9912 40.7393L64.0859 40.6724C64.0972 40.6861 64.8027 41.7101 65.1439 43.4955C66.4627 42.319 65.1713 39.9085 65.1576 39.8852L65.2588 39.8296C65.2725 39.8553 66.6395 42.4069 65.1665 43.6277L65.1671 43.6271Z" fill="#6097B2"/>
<path d="M69.1711 39.1097C69.1711 39.1097 69.164 39.112 69.1622 39.1144C69.1092 39.1354 69.0467 39.1443 68.9824 39.1443C68.3441 39.1443 67.2718 38.246 67.2212 38.2017L67.2974 38.1138C67.6457 38.4104 68.6162 39.121 69.0746 39.0193C69.1068 39.0492 69.1389 39.0797 69.1717 39.1097H69.1711Z" fill="#6097B2"/>
<path d="M57.9229 23.6538C57.9229 23.6538 60.5598 23.2274 61.8816 24.0737C63.2028 24.9201 64.9377 27.1284 64.9377 27.1284C64.9377 27.1284 62.8777 27.4017 62.6449 28.8073C62.6449 28.8073 61.1487 25.2275 57.9229 23.6538Z" fill="#A71449"/>
<path d="M53.9549 25.036C52.8392 25.6419 50.9744 27.9165 50.8905 29.3156C50.8083 30.6799 51.8145 31.9348 52.4927 33.0012C54.6093 36.3298 56.8372 39.2714 57.7839 43.1754C57.7899 43.2 62.6244 45.1277 68.2991 38.2756C68.2991 38.2756 65.0929 33.9421 63.9855 30.2522C63.5348 28.7503 63.0757 27.1551 62.21 25.8315C61.2562 24.3732 59.6225 23.5155 57.9226 23.6543C56.4848 23.7715 55.0546 24.439 53.9555 25.036H53.9549Z" fill="#CFD8DC"/>
<path d="M53.4873 23.6391C53.4873 23.6391 54.2006 24.864 53.8713 25.5375C53.8713 25.5375 56.3196 26.3869 56.3196 25.0106C56.3196 25.0106 55.8582 23.9788 56.032 23.3125L53.4873 23.6397V23.6391Z" fill="#EF6E4B"/>
<path d="M58.9276 32.0264C58.9276 32.0264 57.5654 32.4152 57.2218 32.8996C56.8783 33.3841 56.5723 34.4703 56.5723 34.4703H58.9276L59.3706 33.6515L59.8892 32.5605L58.9276 32.0264Z" fill="#EF6E4B"/>
<path d="M56.676 22.274C56.676 22.274 57.6322 21.8708 57.0136 18.9818C56.6039 17.0672 56.0133 16.7819 55.6317 16.7652C55.6317 16.7652 55.1649 16.0588 53.546 16.3967C52.4374 16.6282 51.5527 17.3047 51.1633 18.5566C50.7566 19.8629 51.5699 22.6639 52.6404 22.9427L56.676 22.274Z" fill="#164353"/>
<path d="M56.9018 20.321C56.9018 20.321 57.5043 19.4782 57.7318 20.309C57.9955 21.2714 57.1751 21.8127 56.9506 21.5298C56.7262 21.2469 56.9018 20.321 56.9018 20.321Z" fill="#FF8B66"/>
<path d="M51.8601 21.2092C51.8601 21.2092 51.02 20.6057 51.07 21.4658C51.1278 22.4623 52.078 22.7099 52.2001 22.3696C52.3221 22.0292 51.8601 21.2092 51.8601 21.2092Z" fill="#FF8B66"/>
<path d="M55.0355 24.274C56.6359 24.0091 57.3665 22.8092 56.8491 19.6595C56.5823 18.0349 55.5958 17.1748 53.8037 17.4715C52.0109 17.7688 51.4197 18.8903 51.6864 20.5148C52.2419 23.899 53.3821 24.548 55.0355 24.2734V24.274Z" fill="#FF8B66"/>
<path d="M52.4009 21.5508C52.3991 21.7171 52.5658 21.8535 52.773 21.8553C52.9802 21.8571 53.1487 21.7237 53.1505 21.5574C53.1523 21.3911 52.9856 21.2547 52.7784 21.2529C52.5712 21.2512 52.4021 21.3845 52.4009 21.5502V21.5508Z" fill="#DB614D"/>
<path d="M55.707 21.0928C55.7445 21.2549 55.938 21.3476 56.1399 21.301C56.3411 21.2537 56.4745 21.0845 56.437 20.9224C56.3995 20.7603 56.2054 20.6676 56.0041 20.7142C55.8023 20.7615 55.6695 20.9307 55.707 21.0928Z" fill="#DB614D"/>
<path d="M52.8517 19.7963C52.8362 19.7963 52.8202 19.7915 52.8059 19.782C52.769 19.7568 52.7594 19.706 52.7844 19.6689C53.0083 19.3393 53.4572 19.2759 53.4763 19.2736C53.5233 19.2682 53.5614 19.2993 53.5674 19.3435C53.5733 19.3878 53.5424 19.4291 53.4977 19.4351C53.4936 19.4351 53.1006 19.4919 52.9184 19.761C52.9029 19.7844 52.8773 19.7969 52.8511 19.7969L52.8517 19.7963Z" fill="#1A4850"/>
<path d="M55.8651 19.2969C55.8478 19.2969 55.8311 19.2915 55.8162 19.2807C55.5572 19.0839 55.1679 19.1581 55.1643 19.1593C55.1196 19.1689 55.0779 19.1396 55.069 19.0953C55.0601 19.051 55.0887 19.0086 55.1327 18.9996C55.1512 18.996 55.5971 18.9105 55.9139 19.1509C55.9496 19.1778 55.9567 19.2293 55.93 19.2652C55.9139 19.2867 55.8895 19.2975 55.8651 19.2975V19.2969Z" fill="#1A4850"/>
<path d="M53.1428 20.6253C53.1756 20.825 53.2917 20.9722 53.4024 20.9536C53.5126 20.9351 53.5757 20.7586 53.5429 20.5589C53.5102 20.3591 53.3941 20.2125 53.2839 20.2305C53.1738 20.249 53.1107 20.4255 53.1434 20.6253H53.1428Z" fill="#1A4850"/>
<path d="M55.2802 20.2713C55.313 20.4711 55.4291 20.6183 55.5392 20.5997C55.6494 20.5812 55.7125 20.4047 55.6797 20.205C55.647 20.0052 55.5309 19.858 55.4202 19.8766C55.31 19.8951 55.2469 20.0716 55.2796 20.2713H55.2802Z" fill="#1A4850"/>
<path d="M55.8805 22.0835C55.8805 22.0835 54.492 22.4573 53.7222 22.309C53.7222 22.309 54.2544 22.9825 55.0142 22.7881C55.7739 22.5937 55.8805 22.0835 55.8805 22.0835Z" fill="#1A4850"/>
<path d="M55.9458 18.1981C55.9458 18.1981 54.1394 19.5122 51.8722 19.6121L51.9365 21.6398C51.9365 21.6398 49.8234 17.728 54.0031 17.0354C58.1827 16.3427 56.9663 20.7121 56.9663 20.7121C56.9663 20.7121 56.8371 18.8274 55.9464 18.1987L55.9458 18.1981Z" fill="#0E3944"/>
<path d="M54.4681 21.5392L54.4568 21.3639C54.4568 21.3639 54.7003 21.3448 54.7628 21.1952C54.7884 21.1336 54.686 20.9368 54.5955 20.7628C54.4699 20.5217 54.3133 20.2215 54.2466 19.8877L54.4181 19.853C54.4794 20.1617 54.6294 20.45 54.7503 20.6808C54.8848 20.9386 54.9819 21.1247 54.9241 21.2628C54.8193 21.5134 54.483 21.538 54.4681 21.5392Z" fill="#DB614D"/>
<path d="M56.9259 18.2029C53.8876 16.878 51.0202 19.6246 51.0202 19.6246C51.0202 19.6246 50.6862 17.399 51.2714 16.878C51.4239 16.7416 51.587 16.6208 51.7579 16.5143C53.0993 15.6644 54.8837 15.6805 55.7017 15.9724C55.8702 16.0328 55.9988 16.1046 56.0727 16.1806C56.5567 16.6854 56.9259 18.2023 56.9259 18.2023V18.2029Z" fill="#35A936"/>
<path d="M56.5568 17.707C56.5568 17.707 54.005 17.1998 51.6258 18.7812C51.6258 18.7812 51.4734 17.3457 51.7574 16.5143C53.0988 15.6644 54.8832 15.6805 55.7013 15.9724C56.1782 16.5191 56.5562 17.707 56.5562 17.707H56.5568Z" fill="#CFD8DC"/>
<path d="M51.271 19.3628C51.271 19.3628 51.6759 17.6366 52.2206 17.1509C53.1274 16.3423 55.6745 16.0647 57.0135 16.5504C58.3526 17.0367 57.0135 18.5063 57.0135 18.5063C57.0135 18.5063 54.8797 16.9703 51.271 19.3628Z" fill="#0A8336"/>
<path d="M55.2119 30.8325C55.2119 30.8325 56.2551 32.4552 58.0305 33.4099C58.0305 33.4099 60.2525 31.4725 63.133 31.6466C63.133 31.6466 60.7455 35.974 58.695 36.4537C57.6179 36.7056 53.7217 34.1139 53.7217 34.1139C53.7217 34.1139 54.4993 31.3595 55.2113 30.8325H55.2119Z" fill="#FF8B66"/>
<path d="M51.371 27.89C52.3254 26.3289 54.5271 28.6365 55.2761 30.2843C56.0251 31.9322 56.5723 32.2815 56.5723 32.2815C56.5723 32.2815 54.3723 33.205 54.3878 34.8612C54.3878 34.8612 49.2877 31.2958 51.3704 27.89H51.371Z" fill="#ADBEC4"/>
<path d="M58.0303 32.6966C58.0303 32.6966 59.3705 31.3759 63.7764 29.6521L63.2072 27.8541C63.7127 27.186 64.6421 27.186 64.6421 27.186C64.6421 27.186 66.8998 30.3884 66.511 31.3448C66.2681 31.9424 61.5597 32.5692 58.0303 32.6966Z" fill="#EF6E4B"/>
<path d="M62.8561 30.0834C62.8561 30.0834 62.8906 29.8944 63.0537 29.6635C63.2169 29.4327 63.1722 29.0122 63.2306 28.8818C63.2889 28.7514 63.6354 28.2191 63.8658 28.1156C64.0957 28.0121 64.3975 27.8428 64.4618 28.1359C64.5261 28.429 64.0498 28.3459 63.8361 28.7681C63.8361 28.7681 64.304 28.6162 64.675 28.7041C65.0459 28.7927 65.1513 29.133 64.6928 29.1222C64.3273 29.1133 63.8557 29.3752 63.8557 29.3752C63.8557 29.3752 64.3326 29.447 64.2552 29.6683C64.1487 29.9734 63.5676 29.7856 62.8555 30.084L62.8561 30.0834Z" fill="#FF8B66"/>
<path d="M30.2681 36.1131C30.6617 37.1263 32.2758 38.8633 32.2758 38.8633C32.2758 38.8633 36.2172 36.4899 38.0356 37.4882C39.8539 38.4871 41.2989 39.096 42.4784 38.6611C43.6578 38.2263 38.6006 28.987 38.6006 28.987L32.0442 26.4736C32.0442 26.4736 31.9013 28.1394 31.1523 28.4355C30.4033 28.7316 29.6042 31.4812 29.6578 32.0027C29.7114 32.5237 30.2687 36.1131 30.2687 36.1131H30.2681Z" fill="#3E6575"/>
<path d="M37.6447 38.923C37.6447 38.923 35.9544 42.2521 32.4637 46.5162C32.4637 46.5162 32.1058 51.5866 22.8755 59.5644L21.9092 58.8006C21.9092 58.8006 27.4058 50.1504 28.5055 47.4983C29.6052 44.8462 27.8976 42.416 32.956 35.708L37.6447 38.923Z" fill="#EF6E4B"/>
<path d="M32.2638 33.0314C30.8087 35.8318 30.3199 39.4122 30.3199 39.4122L29.6572 41.0918C29.6572 41.0918 32.0078 42.3652 34.7228 42.8287L35.8118 39.9338L32.2644 33.0308L32.2638 33.0314Z" fill="#CE0D5B"/>
<path d="M39.8543 38.6611C39.8543 38.6611 40.5747 42.3277 40.4562 47.8472C40.4562 47.8472 43.2962 52.0544 40.9522 64.0577H39.7227C39.7227 64.0577 38.7183 53.8453 37.9502 51.0777C37.1816 48.3102 34.3445 47.4614 34.1909 39.0475L39.8543 38.6617V38.6611Z" fill="#FF8B66"/>
<path d="M40.5753 42.5967C40.5753 42.5967 38.2634 43.0136 34.1897 42.8216L34.1254 42.361L34.1094 42.2432L33.6872 39.2603C33.6872 39.2603 33.2955 38.7741 32.8918 37.9821C32.8436 37.8894 32.7971 37.7943 32.7513 37.695C32.2029 36.5209 31.7165 34.8144 32.2625 33.0332L33.1222 33.0727L33.2419 33.0799L36.1188 33.212L36.2409 33.2192L37.1857 33.2635L37.3334 33.2707L37.9467 33.2982C37.9467 33.2982 41.0635 36.1166 40.5074 41.3269L40.5467 42.0518L40.5515 42.1696L40.5747 42.5979L40.5753 42.5967Z" fill="#F1216C"/>
<path d="M33.2425 33.0793C33.1616 33.318 32.618 35.0872 32.8919 37.9816C32.8436 37.8889 32.7972 37.7938 32.7513 37.6945C32.5459 35.0478 33.0187 33.3963 33.1223 33.0721C33.136 33.0327 33.1431 33.0141 33.1431 33.0117L33.2515 33.0512C33.2515 33.0512 33.2467 33.0626 33.2425 33.0787V33.0793Z" fill="#662C33"/>
<path d="M40.5521 42.1687C39.734 42.3793 38.3462 42.4373 37.0274 42.4373C35.8449 42.4373 34.722 42.3888 34.1254 42.3607L34.1094 42.2429C35.1442 42.2937 37.8693 42.4002 39.6257 42.2082L39.5125 40.3438C39.5399 38.1696 38.8856 36.3118 38.2539 35.0288C36.6541 34.737 36.2141 33.5467 36.1194 33.2111C36.1057 33.1579 36.0986 33.1256 36.0986 33.1232L36.2117 33.1047C36.2117 33.1047 36.2206 33.1489 36.2415 33.2183C36.3451 33.5658 36.7737 34.6006 38.1872 34.8973C37.7609 34.0611 37.3572 33.4893 37.1869 33.2626C37.1363 33.1932 37.1042 33.1537 37.1018 33.1513L37.1893 33.0771C37.1941 33.0819 37.2471 33.1465 37.3346 33.2691C37.8693 33.9989 39.6745 36.7431 39.628 40.339L39.7412 42.1938C40.0478 42.1568 40.3223 42.1107 40.5479 42.0503L40.5527 42.1681L40.5521 42.1687Z" fill="#662C33"/>
<path d="M34.6624 20.468C33.7449 19.9602 27.1331 22.565 27.1331 22.565C27.1331 22.565 26.1548 24.3176 26.7645 25.0048C27.3742 25.6921 29.5373 25.3888 30.2005 25.0048C30.8632 24.6208 32.619 24.3301 32.619 24.3301L34.6624 20.468Z" fill="#8BBDDB"/>
<path d="M40.5089 14.9387C40.5089 14.9387 41.8747 15.468 42.3743 17.0489C42.8738 18.6297 41.3806 22.6312 41.8968 24.4705C42.413 26.3097 42.3326 29.7836 40.7209 30.5169C39.1092 31.2503 35.8029 29.938 35.0932 27.9312C34.3835 25.9245 34.6896 18.3205 36.0542 15.7348C37.4188 13.1491 40.1809 14.4512 40.5095 14.9387H40.5089Z" fill="#F24052"/>
<path d="M38.9397 21.758C39.2999 22.148 40.2257 21.453 40.2257 21.453C40.2257 21.453 40.2066 24.9024 39.2088 25.1668C38.2109 25.4311 35.6674 22.4495 35.7722 21.639C35.877 20.8285 38.1401 20.8931 38.9391 21.758H38.9397Z" fill="#8BBDDB"/>
<path d="M35.093 20.8955C35.093 20.8955 36.1022 21.7562 37.861 22.1659C39.6198 22.5757 40.5724 21.7449 41.472 22.8837C42.8218 24.5937 40.626 27.7453 39.4703 29.3788C39.0393 29.9877 38.1307 31.6768 37.9467 33.2971C37.9467 33.2971 34.8954 34.1877 32.2643 33.0316L32.0679 29.2711C32.0679 29.2711 30.4091 24.2032 35.093 20.8955Z" fill="#A71449"/>
<path d="M38.2476 24.554C38.2476 24.554 39.642 21.2158 40.0456 21.0029C40.4493 20.79 41.4734 21.3014 41.6788 21.7577C41.8842 22.2141 41.6788 23.2106 41.6788 23.2106C41.6788 23.2106 40.5791 21.9497 38.2476 24.554Z" fill="#8BBDDB"/>
<path d="M44.9254 38.6597C44.2913 39.9636 42.7356 40.3387 42.7356 40.3387C42.7356 40.3387 42.6183 40.158 42.42 39.8338C42.3992 39.8015 42.3759 39.7645 42.3557 39.7274C41.1316 37.7332 37.3901 31.3536 37.464 28.0351C37.5491 24.0707 40.1242 21.8936 40.1242 21.8936C41.4311 22.2064 41.8437 22.5653 41.8437 22.5653C41.8437 22.5653 42.2836 24.8208 41.8806 27.5351C41.4769 30.247 40.744 30.9648 41.1131 31.1687C41.4799 31.3703 41.1131 31.7753 41.1131 31.7753C41.1131 31.7753 43.2821 34.8114 43.6882 35.7558C43.9507 36.3719 44.3979 37.4186 44.6771 38.0718C44.6956 38.1178 44.714 38.1645 44.7325 38.2063C44.8498 38.4821 44.926 38.6603 44.926 38.6603L44.9254 38.6597Z" fill="#6097B2"/>
<path d="M41.1572 22.5651C41.1572 22.5651 39.6038 23.7218 40.5088 25.4887L44.8135 29.9657C42.451 32.4952 42.2164 33.5336 40.5088 34.6993L41.1572 35.7078C41.1572 35.7078 47.1391 31.0896 47.148 29.9651C47.1516 29.4836 43.4941 23.6626 41.1572 22.5645V22.5651Z" fill="#FF8B66"/>
<path d="M40.4147 34.6999C40.4147 34.6999 39.5943 34.7914 39.0775 34.9212C38.5607 35.051 37.8718 35.1808 37.8504 35.289C37.829 35.3973 38.9918 35.289 38.9918 35.289C38.9918 35.289 38.0445 35.6802 38.0231 35.8303C38.0016 35.9811 39.2287 35.7215 39.2287 35.7215C39.2287 35.7215 38.4535 36.1976 38.497 36.3268C38.5399 36.4566 39.4949 36.1324 39.4949 36.1324C39.4949 36.1324 39.3174 36.5864 39.1335 36.8029C39.1335 36.8029 39.3186 36.9052 39.6937 36.4865C40.0688 36.0678 40.6684 36.2024 41.1423 35.8309C41.6168 35.4595 40.8476 34.6448 40.4159 34.7005L40.4147 34.6999Z" fill="#FF8B66"/>
<path d="M36.0159 21.4511C36.0159 21.4511 34.834 22.2179 34.088 24.0709C33.342 25.9233 30.9872 29.4098 30.4353 30.3106C29.884 31.2114 30.268 36.113 30.268 36.113C30.268 36.113 29.5762 33.1409 29.2689 31.983C28.9617 30.825 30.2614 27.9641 30.4567 27.8122C30.652 27.6603 31.6511 27.9384 31.4588 26.7762C31.2665 25.6147 33.9469 20.6089 34.662 20.4678C34.662 20.4678 35.8081 20.6843 36.0153 21.4511H36.0159Z" fill="#6097B2"/>
<path d="M32.3619 21.7016C32.341 21.7411 32.3178 21.7805 32.2904 21.8176C32.0231 22.2046 31.5253 22.5121 31.5253 22.5121C31.5253 22.5121 30.6239 23.7813 30.615 23.9272C30.6061 24.0522 29.0497 25.1869 28.3585 25.1642H28.3561C28.2614 25.1618 28.1834 25.1366 28.1281 25.0852C27.7178 24.6964 29.5248 21.4306 29.9237 20.7266C29.9493 20.6806 29.9696 20.6453 29.9839 20.6226C29.9928 20.604 30 20.5927 30 20.5927C30 20.5927 29.682 19.4024 31.0097 19.6249C32.1142 19.8079 32.3327 20.6902 32.4482 21.2805C32.4756 21.4217 32.4369 21.5652 32.3631 21.7022L32.3619 21.7016Z" fill="#6097B2"/>
<path d="M27.7256 22.9355C28.6378 21.7309 31.8475 19.3952 33.5378 18.7031L33.9606 19.4927C33.9606 19.4927 30.6937 22.378 29.9268 23.612C29.1593 24.8465 28.2085 25.3567 27.3005 24.9458C26.3926 24.5349 27.5345 23.1891 27.7262 22.9355H27.7256Z" fill="#FF8B66"/>
<path d="M32.0438 21.454L31.8712 21.6531L31.7836 21.7548L31.4978 22.0838C31.4978 22.0838 30.7786 22.9595 30.806 23.3112C30.8268 23.5636 29.4414 24.6934 28.3578 25.1636C27.9178 25.3556 27.5254 25.4393 27.2974 25.3071C26.5138 24.8531 26.6889 23.4894 27.1336 22.5653C27.5206 21.7596 29.2336 20.7195 29.6742 20.4647C29.7295 20.43 29.7641 20.409 29.7754 20.4042L29.7778 20.4019L29.9415 19.7624C29.9415 19.7624 30.5387 19.4012 31.009 19.6237C31.009 19.6237 29.9719 19.6679 30.1421 20.0729C30.3172 20.4802 31.7556 21.439 32.0438 21.4534V21.454Z" fill="#8BBDDB"/>
<path d="M35.8106 18.1125C34.7663 18.5431 34.9164 19.4929 33.9596 19.4929C33.3672 19.4929 33.2886 18.8123 33.2886 18.8123C33.5559 18.2309 33.7268 17.2398 33.7637 16.7673C33.803 16.2948 33.9596 16.4778 33.9596 16.4778C33.9596 16.4335 33.9572 16.3922 33.9548 16.3504C33.9411 16.0334 33.8834 15.8013 34.0906 15.9383C34.3257 16.0914 34.4061 16.9898 34.4061 16.9898C34.5996 15.6793 34.3115 15.4843 34.5377 15.6003C34.8467 15.7576 34.8491 16.9156 34.8491 16.9503C35.098 16.1883 35.0313 15.7528 35.2039 15.9269C35.379 16.1028 35.1164 17.5018 35.0128 18.0156C34.9896 18.1316 34.9735 18.2034 34.9735 18.2034C35.8011 17.7961 35.8101 18.1131 35.8101 18.1131L35.8106 18.1125Z" fill="#FF8B66"/>
<path d="M35.0128 18.0151C34.9896 18.1312 34.9735 18.203 34.9735 18.203C34.9735 18.203 34.5907 18.1659 34.312 18.5804C34.312 18.5804 34.3906 18.0247 35.0128 18.0151Z" fill="#EF6E4B"/>
<path d="M34.0171 17.4173C34.0243 17.306 34.0701 16.669 33.9594 16.477C33.9594 16.4327 33.957 16.3915 33.9546 16.3496C34.1945 16.4005 34.0421 17.2827 34.0171 17.4173Z" fill="#EF6E4B"/>
<path d="M34.6651 22.9421C34.6651 22.9421 35.3707 21.0209 35.5951 20.5914C35.8196 20.1626 36.989 20.2361 37.8737 20.4018C38.7585 20.5675 38.9395 21.7578 38.9395 21.7578C38.9395 21.7578 36.2477 20.4814 34.6646 22.9415L34.6651 22.9421Z" fill="#8BBDDB"/>
<path d="M39.2088 19.1608C39.2088 19.1608 38.3634 20.7291 38.3765 22.4685C38.3765 22.4685 37.0035 23.4063 36.5117 22.2316C36.5117 22.2316 37.0333 20.6932 36.7814 18.6165C36.6129 17.2259 39.2088 19.1614 39.2088 19.1614V19.1608Z" fill="#EF6E4B"/>
<path d="M36.5125 16.985C36.5125 16.985 36.2612 16.086 35.8141 16.7176C35.2961 17.4497 35.8242 18.1615 36.1004 17.9917C36.3767 17.8218 36.5125 16.985 36.5125 16.985Z" fill="#FF8B66"/>
<path d="M40.504 19.2962C40.504 19.2962 41.3994 19.0456 41.0934 19.7574C40.7386 20.5822 39.8592 20.4973 39.8604 20.1719C39.8615 19.8465 40.504 19.2956 40.504 19.2956V19.2962Z" fill="#FF8B66"/>
<path d="M36.8785 20.9058C35.6061 20.1863 35.3566 18.9451 36.7594 16.442C37.4834 15.1506 38.5813 14.7283 40.006 15.5346C41.4308 16.3409 41.5868 17.4719 40.8628 18.7633C39.3547 21.4531 38.1919 21.6493 36.8779 20.9058H36.8785Z" fill="#FF8B66"/>
<path d="M39.9418 19.4177C39.8924 19.5589 39.7096 19.6223 39.534 19.5601C39.3583 19.4979 39.2565 19.3328 39.3059 19.1916C39.3553 19.0505 39.5381 18.9871 39.7138 19.0493C39.8894 19.1115 39.9912 19.2766 39.9418 19.4177Z" fill="#DB614D"/>
<path d="M37.2863 18.0074C37.2048 18.133 37.0125 18.1516 36.8565 18.0493C36.7005 17.947 36.6398 17.7628 36.7213 17.6372C36.8029 17.5116 36.9952 17.493 37.1512 17.5953C37.3072 17.6976 37.3679 17.8818 37.2863 18.0074Z" fill="#DB614D"/>
<path d="M40.124 17.799C40.0913 17.799 40.0615 17.7769 40.0532 17.744C39.9811 17.4587 39.6668 17.2912 39.6632 17.2894C39.6275 17.2709 39.6138 17.2266 39.6322 17.1907C39.6507 17.1548 39.6947 17.1411 39.7305 17.1596C39.7459 17.1674 40.1062 17.36 40.1943 17.7081C40.2044 17.747 40.1806 17.787 40.1413 17.7972C40.1353 17.799 40.1294 17.7996 40.1234 17.7996L40.124 17.799Z" fill="#1A4850"/>
<path d="M38.377 16.551C38.3639 16.551 38.3514 16.5474 38.3395 16.5402C38.3366 16.5384 38.0299 16.3554 37.7501 16.4409C37.7114 16.4529 37.6709 16.4307 37.659 16.3925C37.6471 16.3536 37.6691 16.3129 37.7072 16.301C38.0496 16.1957 38.3997 16.4056 38.4145 16.4146C38.4491 16.4355 38.4598 16.4804 38.439 16.5151C38.4253 16.5378 38.4014 16.5504 38.3764 16.5504L38.377 16.551Z" fill="#1A4850"/>
<path d="M39.5982 18.4054C39.5095 18.5639 39.366 18.6524 39.2785 18.6028C39.191 18.5531 39.1916 18.3844 39.2809 18.2253C39.3696 18.0668 39.5131 17.9783 39.6006 18.028C39.6881 18.0776 39.6875 18.2463 39.5982 18.4054Z" fill="#1A4850"/>
<path d="M37.8145 17.4444C37.7258 17.603 37.5823 17.6915 37.4948 17.6418C37.4073 17.5922 37.4079 17.4235 37.4972 17.2644C37.5859 17.1059 37.7294 17.0174 37.8175 17.067C37.905 17.1167 37.9044 17.2853 37.8151 17.4444H37.8145Z" fill="#1A4850"/>
<path d="M37.1967 19.0737C37.1967 19.0737 37.9266 19.633 38.4542 19.6503C38.4542 19.6503 37.8933 20.1091 37.4902 19.8118C37.0871 19.514 37.1967 19.0743 37.1967 19.0743V19.0737Z" fill="#1A4850"/>
<path d="M39.2148 18.0851C39.2148 18.0851 39.55 17.7597 39.687 17.8739C39.8239 17.9888 39.7525 18.3889 39.7525 18.3889L40.0454 18.3967L39.8031 18.2986C39.8031 18.2986 39.8811 17.8829 39.7304 17.7968C39.5161 17.6742 39.2148 18.0851 39.2148 18.0851Z" fill="#1A4850"/>
<path d="M37.9528 17.4335C37.9528 17.4335 38.0559 16.9771 37.8874 16.9185C37.7189 16.8599 37.4152 17.129 37.4152 17.129L37.2568 16.8808L37.4658 17.0381C37.4658 17.0381 37.779 16.7552 37.9308 16.8401C38.1463 16.9609 37.9528 17.4323 37.9528 17.4323V17.4335Z" fill="#1A4850"/>
<path d="M40.3445 16.0693C40.3445 16.0693 39.889 15.4329 39.2597 15.9383C38.6303 16.4437 37.2109 17.2518 36.5125 16.985C35.8141 16.7177 38.0403 13.7288 39.9729 14.6045C41.9056 15.4795 41.7317 18.329 40.9279 19.2346C40.1242 20.1407 40.5046 19.2962 40.5046 19.2962C40.5046 19.2962 40.5582 18.0108 40.8267 17.1591C41.0953 16.3073 40.3451 16.0693 40.3451 16.0693H40.3445Z" fill="#F24052"/>
<path d="M38.2019 18.7824C38.1668 18.7824 38.1299 18.7776 38.0918 18.7681L38.1305 18.6149C38.2603 18.6478 38.3246 18.5922 38.355 18.539C38.3984 18.4642 38.3925 18.3685 38.3579 18.332C38.3377 18.3111 38.3032 18.3129 38.2555 18.3386L38.1823 18.1986C38.3425 18.1143 38.4383 18.1879 38.4717 18.2232C38.5586 18.3147 38.5669 18.4881 38.4907 18.6191C38.4288 18.7256 38.3252 18.783 38.2019 18.783V18.7824Z" fill="#DB614D"/>
<path d="M47.5181 29.7882C47.4419 30.9115 44.6757 34.5679 44.2149 34.6977C44.0952 34.73 43.9726 34.797 43.8577 34.8759C43.8094 34.9106 43.7606 34.9477 43.7148 34.9848C43.4522 35.1977 43.2539 35.4435 43.2539 35.4435C42.4472 35.3903 40.1811 34.3364 40.9093 34.1049C40.9533 34.0912 41.0016 34.0654 41.0546 34.0284C41.0843 34.0074 41.1171 33.9841 41.1492 33.9542C42.0066 33.2316 43.6755 30.2996 43.6874 30.0777C43.6963 29.8343 43.9845 29.7882 43.9845 29.7882C43.9845 29.7882 42.4103 27.4657 41.4969 27.1852C40.5842 26.9052 40.1228 25.7957 40.1228 25.7957C39.2214 21.9629 41.8423 22.5652 41.8423 22.5652C43.7743 23.7208 47.5937 28.6625 47.5175 29.7882H47.5181Z" fill="#8BBDDB"/>
<path d="M43.8578 34.8758C43.8096 34.9105 43.7607 34.9476 43.7149 34.9847C42.4771 34.8991 41.4399 34.2879 41.0547 34.0283C41.0845 34.0073 41.1172 33.984 41.1494 33.9541C41.562 34.2251 42.6176 34.8292 43.8578 34.8758Z" fill="#3E6575"/>
<path d="M32.3619 21.7016C32.3411 21.7411 32.3178 21.7806 32.2905 21.8177C32.113 21.8105 31.9445 21.7902 31.7832 21.7549C30.9651 21.588 30.3358 21.1274 29.9232 20.7267C29.8285 20.634 29.7458 20.5461 29.6743 20.4647C29.7297 20.43 29.7642 20.4091 29.7755 20.4043C29.8357 20.4713 29.9047 20.5455 29.9827 20.622C30.393 21.0275 31.0318 21.4995 31.8707 21.6526C32.0273 21.6825 32.191 21.6986 32.3619 21.701V21.7016Z" fill="#3E6575"/>
<path d="M44.7312 38.2067C44.3507 38.8527 43.6476 39.6333 42.4193 39.8348C42.3984 39.8025 42.3752 39.7655 42.355 39.7284C43.616 39.5382 44.3144 38.7163 44.6764 38.0728C44.6949 38.1188 44.7133 38.1655 44.7318 38.2073L44.7312 38.2067Z" fill="#3E6575"/>
<path d="M23.752 59.2773C23.752 59.2773 23.4639 59.562 23.1644 60.0854C22.8649 60.6087 23.1941 61.0902 21.7444 62.3038C21.7444 62.3038 18.8192 60.583 17.498 58.3717C17.498 58.3717 17.5213 57.7395 18.1595 57.5912C18.5031 57.5122 19.4479 57.9572 20.3565 58.1283C20.4857 58.1516 20.6149 58.1726 20.7417 58.1815C20.9007 58.1953 21.0573 58.1977 21.2073 58.1791C21.3455 58.1654 21.477 58.1349 21.5991 58.084H21.6015C21.9105 57.9566 22.1546 57.7042 22.2814 57.2622C22.2814 57.2622 23.0584 57.7066 22.5398 58.4597C22.5398 58.4597 23.4621 58.0541 23.7526 59.2773H23.752Z" fill="#CFD8DC"/>
<path d="M21.7444 62.3044C21.7444 62.3044 18.8192 60.5836 17.498 58.3723C17.498 58.3723 17.9892 58.2682 18.3947 58.9997C18.8002 59.7336 21.9813 61.3988 21.7444 62.3044Z" fill="#ADBEC4"/>
<path d="M21.7559 58.8256C21.5183 59.203 21.5231 58.5062 21.2075 58.1796C21.3457 58.1658 21.4772 58.1353 21.5993 58.0845H21.6017C21.7422 58.2376 21.9428 58.5313 21.7559 58.8256Z" fill="#ADBEC4"/>
<path d="M20.8357 58.8467C20.5845 59.0853 20.5035 58.4621 20.3564 58.1289C20.4856 58.1522 20.6148 58.1732 20.7417 58.1821C20.8893 58.3837 21.0274 58.6636 20.8363 58.8467H20.8357Z" fill="#ADBEC4"/>
<path d="M41.7484 66.9124H37.6104C37.6104 66.9124 37.4378 66.3334 37.6104 65.6964C37.6843 65.4206 38.1129 65.164 38.5119 64.8046C38.6226 64.7053 38.7286 64.6006 38.8274 64.4828C38.906 64.3901 38.9774 64.2884 39.037 64.1795C39.1132 64.0473 39.1727 63.9038 39.2079 63.7465C39.2745 63.4313 39.2495 63.061 39.0697 62.6166C39.0697 62.6166 40.4784 62.3199 40.9809 63.0915C40.9809 63.0915 41.0292 62.735 41.4763 62.9737C41.4763 62.9737 41.412 63.6891 41.4995 64.289C41.587 64.8865 42.1425 65.06 41.7484 66.913V66.9124Z" fill="#CFD8DC"/>
<path d="M40.6719 64.409C40.635 64.4509 40.5844 64.4718 40.5338 64.4718C40.4898 64.4718 40.4487 64.458 40.4118 64.4299C40.1974 64.2583 39.7247 63.9921 39.0376 64.1799C39.1138 64.0477 39.1733 63.9042 39.2085 63.7469C39.4853 63.6452 40.0063 63.5848 40.6493 64.1357C40.7321 64.205 40.744 64.3277 40.6725 64.409H40.6719Z" fill="#ADBEC4"/>
<path d="M40.3241 65.0996L40.3009 65.1343C40.2455 65.2198 40.1348 65.2479 40.0472 65.1971C39.7662 65.0302 39.1345 64.7156 38.5117 64.8059C38.6225 64.7066 38.7284 64.6019 38.8273 64.4841C39.1339 64.4123 39.7126 64.3729 40.2818 64.8478C40.3556 64.9106 40.3765 65.0194 40.3235 65.1002L40.3241 65.0996Z" fill="#ADBEC4"/>
</g>
<defs>
<clipPath id="clip0_7121_35122">
<rect width="98" height="66" fill="white" transform="translate(0.822266 0.912598)"/>
</clipPath>
</defs>
</svg>
