<svg width="75" height="70" viewBox="0 0 75 70" fill="none" xmlns="http://www.w3.org/2000/svg">
<g clip-path="url(#clip0_7121_35404)">
<path d="M11.7479 57.5507C9.65185 57.562 6.72632 57.5902 4.65863 57.5878H4.6214V57.5507L4.61816 55.5877V55.5474H4.65863C6.42527 55.5474 9.98122 55.5586 11.7479 55.5707H11.7657V55.5877L11.7487 57.5507H11.7479ZM11.7479 57.5507L11.7309 55.5877L11.7479 55.6046C9.98041 55.6167 6.42527 55.6271 4.65863 55.6279L4.69909 55.5877L4.69585 57.5507L4.65863 57.5137C6.70366 57.5145 9.67127 57.5362 11.7479 57.5507Z" fill="#ECECEC"/>
<path d="M7.79383 58.0635H0.70459V60.0265H7.79383V58.0635Z" fill="#ECECEC"/>
<path d="M46.0717 65.1382H38.9824V67.1013H46.0717V65.1382Z" fill="#ECECEC"/>
<path d="M74.1405 41.5347H67.0513V43.4977H74.1405V41.5347Z" fill="#ECECEC"/>
<path d="M58.7528 2.16748H51.6636V4.13055H58.7528V2.16748Z" fill="#ECECEC"/>
<path d="M39.8085 28.3022H32.7192V30.2653H39.8085V28.3022Z" fill="#ECECEC"/>
<path d="M71.9753 0.912598H60.0645V15.2988H71.9753V0.912598Z" fill="#ECECEC"/>
<path d="M70.6143 2.2251H61.4258V13.9858H70.6143V2.2251Z" fill="white"/>
<path d="M61.7843 2.2251H61.4258V13.9858H61.7843V2.2251Z" fill="#C8C8C8"/>
<path d="M72.3341 0.912598H71.9756V15.2988H72.3341V0.912598Z" fill="#C8C8C8"/>
<path d="M66.2247 11.3726H68.3911V4.94503H66.2247V11.3726Z" fill="#ECECEC"/>
<path d="M63.5595 6.99707L69.3369 6.99707V3.84778L63.5595 3.84778V6.99707Z" stroke="#ECECEC" stroke-miterlimit="10"/>
<path d="M71.9753 36.3662H60.0645V50.7524H71.9753V36.3662Z" fill="#ECECEC"/>
<path d="M70.6143 37.6787H61.4258V49.4394H70.6143V37.6787Z" fill="white"/>
<path d="M61.7843 37.6787H61.4258V49.4394H61.7843V37.6787Z" fill="#C8C8C8"/>
<path d="M72.3341 36.3662H71.9756V50.7524H72.3341V36.3662Z" fill="#C8C8C8"/>
<path d="M66.6713 40.3989H64.5049V46.8265H66.6713V40.3989Z" fill="#ECECEC"/>
<path d="M69.337 39.3003H63.5596V42.4496H69.337V39.3003Z" stroke="#ECECEC" stroke-miterlimit="10"/>
<path d="M71.9753 18.7041H60.0645V33.0903H71.9753V18.7041Z" fill="#ECECEC"/>
<path d="M70.6143 20.0166H61.4258V31.7773H70.6143V20.0166Z" fill="white"/>
<path d="M61.7843 20.0166H61.4258V31.7773H61.7843V20.0166Z" fill="#C8C8C8"/>
<path d="M72.3341 18.7041H71.9756V33.0903H72.3341V18.7041Z" fill="#C8C8C8"/>
<path d="M66.9868 23.0571H65.1304V27.7303H66.9868V23.0571Z" fill="#ECECEC"/>
<path d="M68.9405 25.897H63.9546V29.1188H68.9405V25.897Z" stroke="#DCDCDC" stroke-miterlimit="10"/>
<path d="M7.07862 52.2856C9.99524 55.1287 10.4849 59.5271 9.86981 63.3799C9.85362 63.4669 9.71847 63.4435 9.71847 63.3613C9.71847 62.4846 9.74518 61.6151 9.74275 60.7488C9.72656 60.7093 9.71362 60.6722 9.69743 60.6319C8.93671 60.0807 8.23669 59.4578 7.80292 58.6052C7.31574 57.651 7.12475 56.5752 6.75167 55.5792C6.71687 55.4841 6.81884 55.5115 6.88601 55.5606C8.65994 56.8637 9.22562 58.2659 9.73466 60.1387C9.71038 59.166 9.63593 58.1942 9.42632 57.2215C9.04273 55.4438 8.28444 53.6814 7.00255 52.3622C6.9548 52.3122 7.02925 52.2349 7.07943 52.2856H7.07862Z" fill="#1A2E35"/>
<path d="M6.53053 52.617C6.02878 52.6339 5.71398 53.4325 5.3231 53.6654C5.11592 53.7895 4.91441 53.7814 4.76955 53.5784C4.38191 53.04 4.9136 52.3752 5.41374 52.0037C5.05604 52.1504 4.75984 52.4074 4.37463 52.48C4.14075 52.5227 3.95947 52.4365 3.90525 52.2003C3.7353 51.4662 4.6603 51.1398 5.29477 51.1237C4.98725 50.911 4.10595 50.3315 4.57371 50.0471C5.04875 49.761 6.08301 50.5886 6.42047 50.8618C6.91656 51.2623 7.50814 51.8611 7.52999 52.488C7.55912 53.2197 6.91656 52.7693 6.53053 52.6162V52.617Z" fill="#FFC800"/>
<path opacity="0.1" d="M6.53053 52.617C6.02878 52.6339 5.71398 53.4325 5.3231 53.6654C5.11592 53.7895 4.91441 53.7814 4.76955 53.5784C4.38191 53.04 4.9136 52.3752 5.41374 52.0037C5.05604 52.1504 4.75984 52.4074 4.37463 52.48C4.14075 52.5227 3.95947 52.4365 3.90525 52.2003C3.7353 51.4662 4.6603 51.1398 5.29477 51.1237C4.98725 50.911 4.10595 50.3315 4.57371 50.0471C5.04875 49.761 6.08301 50.5886 6.42047 50.8618C6.91656 51.2623 7.50814 51.8611 7.52999 52.488C7.55912 53.2197 6.91656 52.7693 6.53053 52.6162V52.617Z" fill="#FCBF1E"/>
<path d="M6.67558 52.7401C6.03383 52.45 4.80212 52.8674 4.69691 52.6257C4.48488 52.1333 5.46896 51.7956 6.00065 51.7303C5.51104 51.5982 4.57309 51.3879 4.60223 50.918C4.63783 50.3443 6.04111 50.8375 6.75166 51.3798C7.64671 52.0632 7.64105 52.7224 7.49295 52.8545C7.28982 53.0358 6.78241 52.7876 6.67639 52.7393L6.67558 52.7401Z" fill="#FFD26E"/>
<path d="M13.7203 52.0046C10.6977 54.7348 10.0406 59.1123 10.5075 62.9852C10.5205 63.073 10.6564 63.0545 10.6596 62.9723C10.6928 62.0955 10.7001 61.226 10.7357 60.3605C10.7535 60.321 10.7681 60.2848 10.7851 60.2461C11.5668 59.7239 12.2895 59.1284 12.7557 58.2919C13.2785 57.3571 13.5115 56.2893 13.9218 55.3078C13.9599 55.2135 13.8571 55.2377 13.7883 55.2844C11.9658 56.519 11.3475 57.8986 10.7673 59.7513C10.828 58.7802 10.9397 57.8116 11.1873 56.8478C11.6381 55.0854 12.4635 53.3536 13.7956 52.0836C13.8449 52.0352 13.7737 51.9554 13.7211 52.0038L13.7203 52.0046Z" fill="#1A2E35"/>
<path d="M14.2565 52.3561C14.7574 52.3915 15.0407 53.2014 15.4227 53.4496C15.625 53.581 15.8265 53.581 15.9794 53.3843C16.3873 52.8605 15.8815 52.1772 15.396 51.7863C15.748 51.9459 16.0345 52.2142 16.4164 52.3021C16.6479 52.3536 16.8324 52.2747 16.8963 52.0402C17.0938 51.3125 16.1826 50.9515 15.5489 50.912C15.8645 50.7105 16.7677 50.1657 16.3104 49.8635C15.8467 49.5597 14.7817 50.3479 14.4337 50.6073C13.9231 50.9885 13.3088 51.5647 13.2627 52.1901C13.2061 52.9202 13.8648 52.4947 14.2565 52.3561Z" fill="#FFC800"/>
<path opacity="0.1" d="M14.2565 52.3561C14.7574 52.3915 15.0407 53.2014 15.4227 53.4496C15.625 53.581 15.8265 53.581 15.9794 53.3843C16.3873 52.8605 15.8815 52.1772 15.396 51.7863C15.748 51.9459 16.0345 52.2142 16.4164 52.3021C16.6479 52.3536 16.8324 52.2747 16.8963 52.0402C17.0938 51.3125 16.1826 50.9515 15.5489 50.912C15.8645 50.7105 16.7677 50.1657 16.3104 49.8635C15.8467 49.5597 14.7817 50.3479 14.4337 50.6073C13.9231 50.9885 13.3088 51.5647 13.2627 52.1901C13.2061 52.9202 13.8648 52.4947 14.2565 52.3561Z" fill="#FCBF1E"/>
<path d="M14.1058 52.4739C14.758 52.208 15.9736 52.6722 16.0877 52.4344C16.3191 51.9509 15.3472 51.5762 14.8187 51.4908C15.3132 51.3771 16.2584 51.2023 16.2471 50.7316C16.2342 50.1571 14.8123 50.5971 14.0823 51.112C13.1621 51.7607 13.1427 52.4199 13.2852 52.5577C13.481 52.7463 13.9981 52.5174 14.1058 52.4739Z" fill="#FFD26E"/>
<path d="M10.6296 59.2163C10.4063 60.6556 10.1295 62.1432 9.69089 63.5341C9.64881 63.6606 9.46025 63.6284 9.47967 63.4914C9.67794 62.1609 10.0405 60.8546 10.2388 59.5242C10.4403 58.1784 10.5487 56.8133 10.471 55.4514C10.344 53.2095 9.73216 50.8241 8.26333 49.0698C8.23096 49.0279 8.29975 48.969 8.33293 49.0077C11.2746 52.423 10.8061 56.6102 10.8036 56.9857C11.2204 55.5714 11.6493 53.9509 13.2242 52.5116C13.2922 52.4495 13.3448 52.4794 13.3334 52.5849C13.0518 55.2072 12.3194 56.5763 10.7931 57.9785C10.7494 58.3944 10.696 58.8078 10.6296 59.2163Z" fill="#1A2E35"/>
<path d="M8.23663 49.463C7.70736 49.2293 6.9774 49.8997 6.4538 49.9457C6.17622 49.9707 5.97147 49.8619 5.92292 49.5782C5.79343 48.8255 6.6804 48.4025 7.38689 48.2671C6.94179 48.2397 6.50397 48.3581 6.06778 48.2405C5.80395 48.1679 5.65909 47.9874 5.72222 47.7151C5.91725 46.8681 7.04214 46.993 7.70817 47.2952C7.49695 46.9205 6.87462 45.8777 7.50424 45.8173C8.14113 45.7584 8.79584 47.1356 9.00868 47.5877C9.32106 48.2518 9.63182 49.1696 9.33805 49.8312C8.99816 50.6049 8.55953 49.8159 8.23663 49.463Z" fill="#FFC800"/>
<path opacity="0.1" d="M8.23663 49.463C7.70736 49.2293 6.9774 49.8997 6.4538 49.9457C6.17622 49.9707 5.97147 49.8619 5.92292 49.5782C5.79343 48.8255 6.6804 48.4025 7.38689 48.2671C6.94179 48.2397 6.50397 48.3581 6.06778 48.2405C5.80395 48.1679 5.65909 47.9874 5.72222 47.7151C5.91725 46.8681 7.04214 46.993 7.70817 47.2952C7.49695 46.9205 6.87462 45.8777 7.50424 45.8173C8.14113 45.7584 8.79584 47.1356 9.00868 47.5877C9.32106 48.2518 9.63182 49.1696 9.33805 49.8312C8.99816 50.6049 8.55953 49.8159 8.23663 49.463Z" fill="#D5A02D"/>
<path d="M8.32503 49.6637C7.80629 49.0408 6.31642 48.857 6.33017 48.5532C6.3585 47.9359 7.55056 48.0794 8.13566 48.2784C7.69461 47.8956 6.82788 47.2074 7.09494 46.7344C7.42188 46.1566 8.62851 47.3718 9.09142 48.2913C9.6749 49.4493 9.33501 50.1303 9.11488 50.1931C8.81303 50.2794 8.41082 49.7676 8.32584 49.6645L8.32503 49.6637Z" fill="#FFD26E"/>
<path d="M12.5645 60.0054L13.8618 69.8756H5.96729C6.12995 69.0012 7.59878 59.9941 7.59878 59.9941L12.5637 60.0054H12.5645Z" fill="#FCBF1E"/>
<path d="M25.7973 29.3308C25.6185 28.7481 25.3708 28.1784 25.0156 27.6796C24.6571 27.1751 24.2346 26.7303 23.766 26.3249C21.8926 24.7019 19.3118 24.0726 16.871 24.2394C15.7631 24.3159 14.6552 24.5682 13.6469 25.0388C13.1476 25.2717 12.696 25.5658 12.2841 25.9301C11.9053 26.2645 11.4772 26.6763 11.3024 27.159C11.2741 27.238 11.3712 27.3024 11.4351 27.2501C11.6585 27.0728 11.8487 26.8544 12.0607 26.661C12.2744 26.4668 12.5042 26.2895 12.7454 26.1291C13.2091 25.8197 13.7254 25.5586 14.2433 25.3506C16.3377 24.5085 18.8303 24.5287 20.9433 25.291C21.967 25.6609 22.9187 26.2258 23.7353 26.9414C24.1213 27.2791 24.4823 27.6578 24.7987 28.0599C25.1305 28.4806 25.4615 28.89 25.7374 29.3509C25.7544 29.3799 25.8087 29.3687 25.7973 29.3308Z" fill="#1A2E35"/>
<path d="M24.2463 26.0041C24.0181 25.6737 23.7851 25.361 23.4589 25.1177C23.1393 24.8775 22.788 24.6728 22.4344 24.4867C21.1298 23.7969 19.6788 23.3206 18.2067 23.1747C17.5027 23.1046 16.7557 23.1232 16.0654 23.2787C15.7312 23.3544 15.4034 23.4463 15.0805 23.5591C14.76 23.6687 14.4282 23.7888 14.1547 23.9887C14.1183 24.0144 14.1498 24.0733 14.1903 24.0652C14.5674 23.9878 14.9284 23.8484 15.3079 23.7767C15.6737 23.709 16.0411 23.6897 16.4118 23.6558C20.7398 23.2561 23.8725 25.9203 24.1784 26.0807C24.2302 26.1073 24.282 26.0549 24.248 26.0041H24.2463Z" fill="#1A2E35"/>
<path d="M9.26766 39.6563C10.1498 40.222 11.1921 39.8078 11.8832 39.143C12.6027 38.4524 13.0923 37.5474 13.4694 36.6368C13.8125 35.8035 14.0691 34.9364 14.3418 34.0782C14.6137 33.2207 14.8622 32.3238 15.3137 31.5381C15.7427 30.7919 16.4087 30.2326 17.2439 29.9925C18.1381 29.7362 19.0866 29.8539 19.9282 30.2334C20.366 30.4317 20.7812 30.7024 21.1146 31.0489C21.4359 31.3818 21.6568 31.7831 21.8284 32.2086C22.199 33.1353 22.3876 34.1217 22.6126 35.0887C22.7979 35.8889 23.1815 36.6102 23.9349 37.005C24.5759 37.3419 25.3649 37.4442 26.0164 37.0808C26.0593 37.0566 26.039 36.9881 25.9881 36.997C25.1723 37.1308 24.2894 36.9422 23.6784 36.3652C23.3369 36.0428 23.1548 35.6311 23.035 35.1854C22.8934 34.6568 22.7882 34.116 22.6441 33.5874C22.4046 32.7082 22.1659 31.7492 21.5889 31.0199C21.0321 30.314 20.1718 29.8055 19.3107 29.567C18.4481 29.3268 17.5368 29.3502 16.7 29.6806C15.8503 30.0166 15.2191 30.6541 14.7966 31.4527C13.9639 33.0322 13.696 34.8333 13.0542 36.4861C12.7419 37.2919 12.3372 38.0865 11.7546 38.7336C11.1678 39.3856 10.225 39.8707 9.34697 39.5064C9.25633 39.4677 9.18673 39.6047 9.26766 39.6571V39.6563Z" fill="#1A2E35"/>
<path d="M9.07593 36.8905C9.48138 36.9445 9.85283 36.6407 10.0414 36.3087C10.3068 35.8437 10.4841 35.3062 10.6273 34.7913C10.9308 33.7066 11.2286 32.6259 11.6802 31.5888C12.3915 29.9545 13.484 28.3783 15.0637 27.4733C16.6459 26.5667 18.5687 26.3668 20.2892 26.9954C21.0953 27.2887 21.8495 27.7489 22.4702 28.342C23.1241 28.9657 23.6234 29.7265 24.0006 30.5436C24.3931 31.3946 24.6399 32.2891 24.898 33.1852C25.0016 33.5454 25.1473 33.9814 25.4977 34.1772C25.7656 34.3271 26.1298 34.3094 26.3272 34.0579C26.3458 34.0354 26.3143 34.0104 26.2932 34.0257C26.0901 34.1796 25.8328 34.1127 25.6418 33.9733C25.4386 33.8251 25.352 33.5865 25.2938 33.3504C25.1764 32.8653 25.0809 32.3777 24.9458 31.895C24.6723 30.9207 24.2862 29.9722 23.727 29.1245C22.7794 27.6909 21.2563 26.669 19.5763 26.3032C17.7934 25.9156 15.8763 26.2814 14.367 27.3C12.8455 28.3275 11.8137 29.9126 11.1323 31.5848C10.7616 32.497 10.4986 33.4407 10.2453 34.3908C10.1175 34.8694 9.9985 35.353 9.81642 35.8139C9.73549 36.0186 9.64242 36.216 9.53398 36.407C9.43767 36.5787 9.29767 36.7181 9.08969 36.7269C8.98448 36.731 8.96668 36.8784 9.07593 36.893V36.8905Z" fill="#1A2E35"/>
<path d="M9.56699 40.4143C9.56213 40.4554 9.58803 40.4909 9.62849 40.4998C9.78873 40.536 9.93278 40.557 10.0647 40.565C10.1335 40.5691 10.199 40.5691 10.2613 40.5658C11.0382 40.5264 11.8451 40.088 12.66 39.262C13.3382 38.5754 13.9007 37.7711 14.3328 36.8702C14.6954 36.1127 14.9009 35.2988 15.0976 34.5147C15.155 34.289 15.2125 34.0618 15.2724 33.8361C15.465 33.1173 15.8138 32.0874 16.6012 31.4282C17.1329 30.9834 17.8046 30.815 18.541 30.9407C19.5397 31.1107 20.5683 31.8263 21.1024 32.7232C21.5467 33.4703 21.7012 34.314 21.5499 35.1634C21.3622 36.2255 20.7512 37.0612 20.2713 37.5753C19.6789 38.2095 18.9084 38.7486 17.9179 39.2209C17.544 39.399 17.0503 39.6286 16.5413 39.8156C16.445 39.851 16.3471 39.8865 16.25 39.922C15.8818 40.0565 15.5006 40.1943 15.1348 40.3531C15.0846 40.3757 15.0612 40.4313 15.0781 40.4853C15.0959 40.5393 15.1477 40.5699 15.2012 40.5586C15.4561 40.5046 15.7086 40.4345 15.9433 40.366C17.6435 39.8784 19.7614 39.0927 21.0514 37.3182C21.4787 36.7324 21.9926 35.7968 22.0241 34.6621C22.0492 33.7894 21.7781 32.9424 21.2416 32.2099C20.5707 31.2944 19.5049 30.6361 18.4585 30.4902C17.6759 30.3798 16.9484 30.5635 16.3584 31.0213C15.7069 31.5249 15.2279 32.3259 14.8936 33.4711C14.803 33.7837 14.7221 34.1021 14.6428 34.4099C14.455 35.1392 14.2608 35.8943 13.9363 36.5946C13.5138 37.5092 12.9125 38.3618 12.2004 39.0605C11.6096 39.6407 10.6895 40.3297 9.65601 40.3305C9.61069 40.3305 9.57265 40.3668 9.56699 40.4127V40.4143Z" fill="#1A2E35"/>
<path d="M9.23519 37.9001C9.68434 38.0178 10.1392 37.8687 10.4936 37.5842C10.8804 37.2772 11.0795 36.7663 11.2381 36.315C11.6064 35.2585 11.8912 34.1738 12.257 33.1166C12.8268 31.4662 13.6595 29.7859 15.1591 28.7883C16.483 27.9091 18.2311 27.6246 19.7614 28.0695C20.6128 28.3169 21.4018 28.7714 22.0104 29.4144C22.5898 30.0285 23.009 30.7691 23.3336 31.5419C23.4978 31.9344 23.6395 32.3349 23.7641 32.741C23.8936 33.1657 23.9996 33.6017 24.172 34.0127C24.4609 34.7049 25.1892 35.5349 26.0276 35.1933C26.0916 35.1667 26.0697 35.0675 26.0033 35.0619C25.5348 35.0264 25.0978 34.7637 24.8283 34.3834C24.5313 33.9659 24.4156 33.4486 24.2804 32.9643C24.0287 32.0641 23.7066 31.1696 23.2372 30.3589C22.8205 29.6401 22.2872 28.989 21.6155 28.495C20.9025 27.972 20.06 27.6351 19.1893 27.4876C17.595 27.2177 15.889 27.6279 14.595 28.5909C13.144 29.6691 12.3185 31.3614 11.7512 33.0295C11.4324 33.9659 11.1855 34.9225 10.8942 35.8678C10.6725 36.5874 10.2783 37.8034 9.29265 37.6382C9.14213 37.6132 9.08952 37.8606 9.23438 37.8985L9.23519 37.9001Z" fill="#1A2E35"/>
<path d="M9.15604 38.5886C9.27096 38.7184 9.41501 38.8247 9.56958 38.9029C9.89248 39.0649 10.3667 39.0117 10.6912 38.8811C11.0959 38.7184 11.4131 38.3896 11.6518 38.031C11.9108 37.6393 12.1002 37.2042 12.2798 36.7722C12.4813 36.2863 12.6578 35.7858 12.831 35.2878C13.1773 34.2869 13.4994 33.2764 13.8798 32.286C14.2172 31.41 14.6397 30.5727 15.347 29.9329C16.6345 28.7668 18.491 28.4267 20.0999 29.0996C20.9099 29.4389 21.6059 30.0038 22.0842 30.7379C22.6062 31.5398 22.853 32.4746 23.0861 33.3892C23.2932 34.2039 23.4608 35.0815 23.9836 35.7657C24.4198 36.3354 25.3472 36.7859 25.9582 36.1928C25.9849 36.1654 25.9582 36.1162 25.9193 36.1348C25.4823 36.3516 24.9693 36.2033 24.6051 35.9091C24.253 35.6279 24.0362 35.229 23.8751 34.8172C23.5134 33.8856 23.3709 32.8823 23.0408 31.9387C22.7478 31.1038 22.3165 30.3237 21.6618 29.7153C21.0499 29.1472 20.3119 28.7128 19.5026 28.496C17.8654 28.0585 16.0203 28.5428 14.8202 29.7427C14.1485 30.4132 13.7268 31.2618 13.3877 32.1377C13.0171 33.0967 12.7177 34.0831 12.3826 35.0557C12.2111 35.5546 12.0282 36.0502 11.8355 36.5417C11.6713 36.9576 11.5151 37.3879 11.2796 37.7707C11.057 38.1349 10.7722 38.4299 10.3724 38.5943C10.022 38.7393 9.56149 38.72 9.2661 38.4685C9.19408 38.4073 9.09697 38.5209 9.15685 38.5878L9.15604 38.5886Z" fill="#1A2E35"/>
<path d="M26.1736 33.5245C26.1833 33.2956 26.1889 33.0684 26.1703 32.8403C26.023 30.9885 25.1433 29.1648 23.8736 27.8166C22.6589 26.5264 21.0678 25.6327 19.3077 25.3563C17.6009 25.088 15.81 25.3716 14.2578 26.1283C12.6902 26.8907 11.431 28.1277 10.5886 29.6427C9.74934 31.1505 9.33094 32.8492 9.47985 34.5737C9.48309 34.61 9.53893 34.6036 9.54135 34.5705C9.67165 32.7444 10.2389 30.895 11.2918 29.3824C12.2233 28.0455 13.506 26.9721 15.0258 26.362C16.5141 25.7657 18.2071 25.5908 19.7738 25.9648C21.415 26.3564 22.862 27.3105 23.923 28.6088C24.4878 29.2994 24.9394 30.0795 25.272 30.9047C25.6135 31.7516 25.828 32.6437 26.0352 33.5301C26.0538 33.6043 26.1695 33.6027 26.1736 33.5237V33.5245Z" fill="#1A2E35"/>
<path d="M23.4824 39.8545C23.6774 39.5692 24.0926 39.8198 24.307 39.9399C24.6307 40.1212 24.9771 40.3557 25.368 40.2953C25.3979 40.2904 25.4093 40.3299 25.3842 40.3436C25.1317 40.4887 24.8363 40.4516 24.5741 40.3525C24.4349 40.3001 24.3046 40.2308 24.1711 40.1639C24.0481 40.1019 23.9153 40.0261 23.7786 39.9987C23.7535 39.9939 23.7268 39.9891 23.7017 39.9923C23.675 39.9955 23.6831 39.9947 23.6798 40.0011C23.6548 40.0471 23.6944 40.143 23.7065 40.1881C23.7389 40.3066 23.7867 40.4218 23.8433 40.5306C23.9607 40.7562 24.1241 40.9561 24.3022 41.1366C24.405 41.2406 24.5134 41.3405 24.6283 41.4315C24.7448 41.5242 24.8816 41.5951 24.9925 41.6926C25.0265 41.7225 25.0006 41.7724 24.9561 41.7619C24.8233 41.7297 24.6922 41.6459 24.5749 41.5782C24.4487 41.5057 24.3265 41.4251 24.214 41.3324C23.9906 41.1479 23.8029 40.9287 23.6588 40.6773C23.5876 40.5524 23.5301 40.421 23.4856 40.284C23.4411 40.1478 23.3909 39.9842 23.48 39.8545H23.4824Z" fill="#1A2E35"/>
<path d="M24.0724 40.405C24.2852 40.4969 24.477 40.6298 24.6559 40.7741C24.7352 40.8377 24.8161 40.9006 24.8995 40.9586C24.9399 40.9868 24.9828 41.0118 25.0249 41.0368C25.0678 41.0618 25.1139 41.0755 25.1593 41.0964C25.1965 41.1134 25.1941 41.1657 25.1528 41.1762C24.9432 41.2286 24.7231 41.0908 24.5644 40.9715C24.3694 40.8232 24.1817 40.6564 24.0352 40.4582C24.0174 40.4332 24.0392 40.3913 24.0716 40.4058L24.0724 40.405Z" fill="#1A2E35"/>
<path d="M10.2993 41.0424C10.2993 41.0424 10.2993 41.0512 10.2993 41.0553C10.3026 41.0843 10.3244 41.1084 10.3527 41.1141C10.4053 41.1278 10.4579 41.135 10.5113 41.1383C10.6902 41.1487 10.8763 41.1117 11.0633 41.069C11.3004 41.0142 11.5456 40.9287 11.7916 40.8151C12.1979 40.6298 12.6082 40.3525 13.0468 39.9706C14.3246 38.8585 15.2229 37.2734 15.719 35.2579C15.7506 35.1249 15.783 34.9904 15.8145 34.8558C15.9837 34.1289 16.1585 33.3778 16.5728 32.7444C16.7962 32.4036 17.0883 32.1255 17.4185 31.9418C17.7859 31.7371 18.1428 31.7097 18.5717 31.6952C18.617 31.6936 18.6551 31.6646 18.664 31.6227C18.6729 31.5792 18.6518 31.5389 18.6106 31.5179C18.1541 31.2939 17.5868 31.5042 17.3643 31.605C16.992 31.7742 16.6448 32.0514 16.3559 32.4068C15.8291 33.0579 15.6308 33.8936 15.4398 34.6995L15.3921 34.9017C15.1363 35.9622 14.8385 36.7995 14.4549 37.5393C14.0317 38.3532 13.4425 39.1067 12.7538 39.7167C12.3702 40.056 12.0069 40.3114 11.6395 40.4984C11.4444 40.5967 11.2348 40.6838 10.9985 40.7627C10.9249 40.7877 10.8496 40.8087 10.7727 40.8288C10.6279 40.8683 10.4765 40.9078 10.3406 40.9787C10.3171 40.9908 10.3009 41.0158 10.2993 41.0424Z" fill="#1A2E35"/>
<path d="M14.7191 40.0543C14.7175 40.0809 14.7304 40.1083 14.7547 40.1228C14.766 40.13 14.7781 40.1349 14.7895 40.1357C14.8146 40.1373 14.8397 40.1252 14.855 40.1026C14.9797 39.91 15.2152 39.79 15.4442 39.6844C15.6505 39.5877 15.8674 39.5039 16.077 39.4233L16.1741 39.3854C16.7503 39.1606 17.2181 38.9607 17.6486 38.7552C19.5545 37.8454 20.6923 36.6657 21.0314 35.2506C21.2208 34.456 21.1285 33.6783 20.7635 33.0014C20.3872 32.3019 19.7981 31.8184 19.1078 31.6403C19.0649 31.6282 19.0179 31.6524 19.0009 31.6935C18.9839 31.7322 18.9985 31.7741 19.0349 31.7959C19.743 32.2189 20.2966 32.8491 20.5531 33.5236C20.94 34.5398 20.753 36.2039 18.9524 37.5505C18.2677 38.063 17.4771 38.4273 16.79 38.7287C16.4088 38.8955 15.9783 39.084 15.5664 39.3024C15.4045 39.3887 15.2322 39.4829 15.08 39.6022C14.9198 39.7303 14.8186 39.8794 14.7296 40.0204C14.7223 40.0317 14.7191 40.0438 14.7183 40.0559L14.7191 40.0543Z" fill="#1A2E35"/>
<path d="M9.73561 41.3982C10.0108 41.5642 10.3029 41.6384 10.5894 41.6553C11.2498 41.694 11.8778 41.4272 12.1796 41.2725C12.8521 40.9292 13.5076 40.4336 14.1267 39.7994C14.1801 39.7446 14.2336 39.6866 14.2845 39.6285L14.3331 39.577C14.3452 39.5713 14.3566 39.5625 14.3663 39.5528C14.813 39.1096 15.4224 38.8646 16.0099 38.6261C16.2155 38.5439 16.4283 38.4584 16.6282 38.3658C17.6131 37.9105 18.284 37.4584 18.8011 36.8967C19.353 36.2987 19.6792 35.6097 19.7447 34.9062C19.8054 34.2583 19.6533 33.3517 19.0228 32.9311C18.3981 32.5128 17.5985 32.8094 17.1308 33.3171C16.5877 33.9078 16.311 34.7434 16.0876 35.4155L16.0099 35.6524C15.7914 36.3157 15.5656 36.999 15.2322 37.6276C14.8802 38.2892 14.444 38.8944 13.9366 39.4287C13.4089 39.9807 12.8295 40.4465 12.2128 40.8115C11.3784 41.3071 10.5643 41.4595 9.79792 41.2661C9.79307 41.2644 9.7874 41.2644 9.78336 41.2636C9.7518 41.262 9.72104 41.2814 9.70729 41.3112C9.69353 41.345 9.70567 41.3813 9.73642 41.399L9.73561 41.3982ZM15.0736 38.6478C15.1998 38.4657 15.3115 38.2932 15.4102 38.124C15.7429 37.5591 16.0172 36.9249 16.298 36.0691C16.3352 35.9546 16.3717 35.8402 16.4089 35.7242C16.612 35.0859 16.8224 34.4251 17.1931 33.8667C17.4221 33.5234 17.6722 33.3026 17.957 33.1922C18.0906 33.1406 18.2516 33.1092 18.4135 33.118C18.5899 33.1285 18.7671 33.1865 18.9136 33.3219C19.4501 33.8127 19.4752 34.7128 19.2616 35.3881C19.0682 36.0022 18.6344 36.5888 18.0088 37.0836C17.3557 37.6002 16.5821 37.9459 15.9015 38.2505L15.8375 38.2787C15.5818 38.394 15.3196 38.5108 15.0736 38.647V38.6478Z" fill="#1A2E35"/>
<path d="M16.2202 37.4745C16.2121 37.5043 16.2234 37.5382 16.2501 37.5599C16.2639 37.5712 16.2801 37.5777 16.2955 37.5785C16.3165 37.5801 16.3384 37.572 16.3553 37.5543C16.3934 37.514 16.6799 37.3125 16.8166 37.2182C16.8611 37.1892 16.9048 37.1602 16.9494 37.1296C17.0432 37.0676 17.1403 37.0047 17.2326 36.9346C17.5207 36.7154 17.7797 36.4857 18.003 36.252C18.4651 35.7693 18.6812 35.2858 18.6432 34.8152C18.6221 34.546 18.4926 34.3389 18.2984 34.2567C18.0127 34.1383 17.7344 34.3043 17.5822 34.4824C17.4106 34.6846 17.3054 34.9498 17.2124 35.1827C17.1314 35.3873 17.0586 35.5993 16.9866 35.8024L16.9291 35.9676C16.7705 36.4245 16.2849 37.3262 16.2364 37.3963C16.217 37.4141 16.2113 37.4399 16.2194 37.4745H16.2202ZM17.1209 36.2609C17.2933 35.8402 17.4705 35.4067 17.706 35.0005L17.7165 34.9828C17.7772 34.878 17.9197 34.6314 18.0573 34.604C18.0678 34.6016 18.0783 34.6016 18.088 34.6016C18.1147 34.6032 18.1406 34.6137 18.1657 34.6339C18.2863 34.7273 18.2693 34.9763 18.2118 35.1786C18.0815 35.6452 17.6882 36.024 17.3726 36.327C17.2909 36.4059 17.2091 36.4841 17.1274 36.5615C17.0432 36.6413 16.9599 36.721 16.8765 36.8008C16.9761 36.6082 17.0578 36.418 17.1217 36.2601L17.1209 36.2609Z" fill="#1A2E35"/>
<path d="M17.3257 45.3914C17.0287 45.9886 16.7519 46.6115 16.518 47.236C16.5099 47.2554 16.5383 47.2707 16.5504 47.2521C16.8943 46.742 17.1792 46.1997 17.5029 45.6783C17.7133 45.3382 18.0969 44.5485 18.6116 44.6758C18.8277 44.7282 18.9839 44.9675 19.1029 45.1376C19.2663 45.3697 19.4266 45.6034 19.6135 45.8153C19.8951 46.1336 20.4244 46.5518 20.8873 46.4382C20.9075 46.4326 20.9205 46.4003 20.8978 46.3899C20.7756 46.3246 20.6445 46.2851 20.5239 46.2126C20.3928 46.136 20.2674 46.049 20.1581 45.9418C19.9405 45.7291 19.7576 45.4744 19.5917 45.2198C19.327 44.812 19.0179 44.2761 18.4449 44.3414C17.9076 44.4026 17.5442 44.9498 17.3249 45.3898L17.3257 45.3914Z" fill="#1A2E35"/>
<path d="M9.70957 41.8528C10.268 42.5838 11.2682 42.4556 11.9909 42.0648C12.4142 41.8367 12.7913 41.5329 13.1627 41.2323C13.5593 40.914 13.9591 40.611 14.405 40.3644C14.4252 40.3539 14.4171 40.3217 14.3928 40.3249C13.4994 40.466 12.8552 41.1969 12.1277 41.6643C11.4446 42.1035 10.4525 42.3654 9.7476 41.8125C9.7209 41.7908 9.69176 41.8295 9.70957 41.8528Z" fill="#1A2E35"/>
<path d="M24.258 43.2392C24.3138 43.2408 24.3373 43.1553 24.2798 43.1408C23.3767 42.9168 22.6645 42.2431 22.2291 41.4429C21.8358 40.7192 21.6036 39.8948 21.5599 39.0729C21.5388 38.6675 21.5672 38.2573 21.6505 37.8592C21.6958 37.6497 21.7573 37.4426 21.8318 37.242C21.9014 37.055 21.9799 36.8519 22.128 36.7133C22.2769 36.5739 22.5027 36.5191 22.6524 36.6859C22.7625 36.806 22.8215 36.9704 22.9122 37.105C23.1177 37.4128 23.3977 37.6739 23.719 37.8584C24.0411 38.043 24.3988 38.1502 24.7695 38.1622C25.1798 38.1768 25.5391 38.068 25.8952 37.8721C25.9186 37.8592 25.9081 37.8149 25.8798 37.8238C24.9362 38.105 23.8444 37.8157 23.2334 37.034C23.0182 36.7592 22.9008 36.3321 22.4913 36.3015C22.0738 36.2693 21.7954 36.5957 21.6327 36.9349C21.2515 37.7303 21.1844 38.6667 21.3049 39.5282C21.521 41.0674 22.4541 43.1553 24.258 43.2383V43.2392Z" fill="#1A2E35"/>
<path d="M17.7376 46.6582C17.6963 46.8121 17.6413 46.9982 17.6632 47.157C17.6656 47.182 17.6972 47.1844 17.7117 47.1675C17.8024 47.0538 17.8461 46.8919 17.897 46.7541C17.9529 46.6034 18.0079 46.4535 18.071 46.3044C18.1342 46.1569 18.2118 46.0119 18.2976 45.8765C18.3284 45.8281 18.3624 45.7467 18.4093 45.7137C18.4158 45.7105 18.419 45.7073 18.4215 45.7048C18.432 45.7137 18.4417 45.7218 18.4506 45.733C18.4773 45.7588 18.5008 45.7862 18.5242 45.8144C18.7225 46.0449 18.8771 46.3092 19.1012 46.5171C19.2769 46.6799 19.5577 46.858 19.8094 46.8024C19.8255 46.7992 19.8336 46.775 19.8183 46.7661C19.6758 46.6839 19.548 46.6138 19.4298 46.497C19.3181 46.3874 19.2259 46.2601 19.1344 46.1327C19.0349 45.9957 18.9451 45.8499 18.8358 45.7177C18.7363 45.5952 18.6052 45.4163 18.4304 45.4155C18.2653 45.4155 18.1738 45.5711 18.1034 45.696C18.0201 45.8459 17.9513 46.0014 17.8922 46.1618C17.8331 46.3253 17.7813 46.4889 17.7368 46.6574L17.7376 46.6582Z" fill="#1A2E35"/>
<path d="M24.6787 42.2921C24.7127 42.3034 24.7313 42.2607 24.7054 42.2398C24.4901 42.048 24.287 41.8691 24.1057 41.6426C23.9301 41.4202 23.7747 41.1833 23.6226 40.9455C23.3474 40.5176 23.0528 40.0905 22.8683 39.6151C22.7825 39.3951 22.6854 39.1316 22.7073 38.8914C22.7388 38.5328 23.0933 38.7963 23.2463 38.9285C23.4275 39.0832 23.5902 39.2589 23.7925 39.387C23.9876 39.5111 24.198 39.599 24.4221 39.6489C24.6398 39.6973 24.8624 39.7158 25.0849 39.6916C25.3237 39.6642 25.4944 39.5643 25.7073 39.4684C25.751 39.4483 25.7186 39.3894 25.6749 39.4031C25.5163 39.4563 25.3156 39.4507 25.1489 39.4531C25.0024 39.4531 24.8551 39.4475 24.711 39.4265C24.414 39.3814 24.1195 39.2637 23.8751 39.0913C23.5748 38.8785 23.0253 38.1653 22.6053 38.511C22.2436 38.8076 22.5228 39.4974 22.6692 39.8335C22.8958 40.3492 23.2147 40.8263 23.5441 41.28C23.8297 41.6716 24.1963 42.1334 24.6746 42.2937L24.6787 42.2921Z" fill="#1A2E35"/>
<path d="M10.8336 43.6356C11.218 43.7266 11.6138 43.6299 11.9561 43.447C12.0273 43.4091 12.0953 43.3648 12.1641 43.3213C12.1285 43.3632 12.0929 43.4043 12.0597 43.4462C11.8298 43.7492 11.6502 44.0925 11.6227 44.4769C11.6211 44.501 11.6526 44.5131 11.6656 44.493C11.8646 44.1916 12.0662 43.8894 12.2927 43.609C12.5226 43.3245 12.7799 43.0626 13.0049 42.7733C13.0454 42.7201 12.992 42.6387 12.9256 42.6524C12.5509 42.7354 12.2717 42.9997 11.9407 43.1786C11.5927 43.3664 11.2164 43.4994 10.8369 43.6041C10.8231 43.609 10.8166 43.6323 10.8352 43.6356H10.8336Z" fill="#1A2E35"/>
<path d="M14.9236 45.2769C14.7343 45.65 14.5344 46.0344 14.3936 46.4277C14.3782 46.4688 14.4389 46.5002 14.4656 46.4639C14.765 46.0618 15.007 45.6162 15.2838 45.1987C15.5525 44.7958 15.8389 44.4018 16.1424 44.0222C16.6264 43.4146 17.1969 42.8634 17.8686 42.4419C18.0385 42.3355 18.2182 42.2388 18.4027 42.155C18.5929 42.068 18.8017 41.9745 19.0178 41.9858C19.4086 42.0076 19.6628 42.3799 19.8367 42.67C20.2576 43.3646 20.6177 44.1125 21.2684 44.6467C21.5565 44.8837 21.8899 45.0553 22.2654 45.1278C22.3941 45.1528 22.6279 45.1899 22.7477 45.1149C22.7946 45.0843 22.8254 45.04 22.7768 44.9989C22.7607 44.986 22.7364 45.007 22.7461 45.0239C22.7679 45.0626 22.5187 44.9997 22.5082 44.9965C22.4588 44.982 22.407 44.9691 22.3576 44.9546C22.2508 44.9215 22.1464 44.8796 22.0485 44.8281C21.8616 44.7322 21.6835 44.6129 21.5225 44.4807C21.1599 44.181 20.8929 43.7909 20.659 43.3969C20.4558 43.0552 20.2762 42.699 20.0504 42.3678C19.8635 42.093 19.6247 41.8206 19.2873 41.7094C18.8867 41.5788 18.4788 41.7231 18.1162 41.8859C17.7634 42.0438 17.4324 42.2421 17.1265 42.4701C16.4985 42.9407 15.9563 43.5347 15.5395 44.1818C15.3113 44.5339 15.1106 44.9038 14.9212 45.2769H14.9236Z" fill="#1A2E35"/>
<path d="M15.9336 46.061C15.8219 46.3535 15.7094 46.6589 15.673 46.9748C15.6706 46.9974 15.7029 47.0095 15.7151 46.9893C15.8955 46.6847 16.0153 46.3446 16.1982 46.04C16.3779 45.7402 16.5454 45.4324 16.7347 45.1399C17.0698 44.6233 17.4453 44.1084 17.875 43.6708C18.0773 43.4653 18.3169 43.2896 18.6123 43.3275C18.8882 43.3621 19.1351 43.5475 19.3204 43.753C19.7185 44.1978 19.9022 44.8046 20.3125 45.2422C20.6881 45.6419 21.2303 45.8522 21.7668 45.7781C21.7854 45.7749 21.7903 45.741 21.7692 45.7362C21.4269 45.6524 21.1016 45.5033 20.8208 45.2833C20.5359 45.0585 20.3393 44.7619 20.1596 44.4468C19.8569 43.9133 19.5615 43.3492 18.991 43.0849C18.7385 42.9697 18.4496 42.9431 18.1874 43.0366C17.9033 43.1365 17.6816 43.3525 17.4785 43.5725C17.0309 44.0536 16.6498 44.5895 16.3317 45.1705C16.1739 45.4582 16.0501 45.7531 15.9336 46.061Z" fill="#1A2E35"/>
<path d="M13.3836 45.763C13.3756 45.792 13.3893 45.8227 13.4176 45.8356C13.4257 45.8388 13.4322 45.8404 13.4403 45.8412C13.4605 45.842 13.4791 45.8331 13.4913 45.8154C13.7357 45.4415 14.023 45.0095 14.3572 44.601C14.6502 44.2416 14.9909 43.8749 15.3987 43.476C15.979 42.9111 16.6353 42.2696 17.3475 41.745C17.7327 41.4614 18.0928 41.251 18.4473 41.0979C18.8203 40.9367 19.3302 40.7175 19.6782 41.0294C19.8902 41.218 20.0245 41.4936 20.1548 41.7611C20.205 41.8635 20.2536 41.9618 20.3054 42.0545C20.5619 42.513 20.7998 42.8676 21.0572 43.173C21.3615 43.5364 21.6933 43.8265 22.0413 44.0353C22.4281 44.269 22.8052 44.3915 23.2293 44.4213C23.2584 44.4253 23.2859 44.4035 23.2916 44.3729C23.2989 44.3439 23.2827 44.3165 23.2544 44.306C22.0825 43.8983 21.3299 43.0046 20.9075 42.3285C20.7885 42.1375 20.6817 41.9336 20.5805 41.737C20.4802 41.5427 20.3766 41.3421 20.2568 41.1519C20.0003 40.7393 19.6733 40.5282 19.2881 40.5161C18.8268 40.5048 18.3485 40.7038 17.9827 40.8771C17.6024 41.0576 17.222 41.2945 16.8538 41.5822C16.0793 42.1874 15.3906 42.9046 14.8776 43.4631C14.252 44.1433 13.6386 44.8919 13.382 45.7646L13.3836 45.763Z" fill="#1A2E35"/>
<path d="M24.3843 42.8697C24.4409 42.8979 24.4765 42.8117 24.432 42.777C23.8591 42.3249 23.3168 41.7906 22.9276 41.1677C22.5917 40.631 22.3692 40.0363 22.251 39.4166C22.1903 39.0967 22.1572 38.7767 22.1563 38.452C22.1563 38.215 22.0956 37.6163 22.4436 37.6155C22.7698 37.6155 22.9842 38.0297 23.1882 38.2304C23.422 38.4616 23.6883 38.6575 23.9918 38.7888C24.6246 39.0644 25.3012 38.9871 25.8353 38.5487C25.8531 38.5342 25.8337 38.5035 25.8135 38.514C25.0374 38.9444 24.0209 38.6091 23.4221 38.0337C23.1793 37.8008 22.981 37.4656 22.6362 37.3729C22.3311 37.2915 22.0252 37.4205 21.9403 37.7348C21.8553 38.0434 21.8634 38.3996 21.8812 38.7187C21.8974 39.0523 21.9459 39.3852 22.0317 39.7083C22.3716 40.988 23.1704 42.2605 24.3835 42.8705L24.3843 42.8697Z" fill="#1A2E35"/>
<path d="M12.8866 44.5164C12.7498 44.763 12.6373 45.0184 12.575 45.2916C12.5605 45.3569 12.5961 45.4254 12.6584 45.4528C12.6729 45.4576 12.6859 45.4608 12.6988 45.4616C12.7409 45.4641 12.7814 45.4439 12.8073 45.4028C12.9109 45.2433 13.0096 45.0805 13.1083 44.9193C13.322 44.5687 13.5445 44.2053 13.8124 43.8781C14.162 43.451 14.5731 43.0247 15.0668 42.5734C15.4771 42.2003 16.6805 41.2905 17.9114 40.4734C19.3155 39.5394 20.2882 39.0454 20.5108 39.1485C20.6613 39.2187 20.6686 39.4693 20.6759 39.6707C20.6775 39.7368 20.6791 39.7997 20.6856 39.8504C20.7204 40.1333 20.773 40.421 20.8401 40.7047C20.985 41.309 21.1833 41.8111 21.4455 42.2374C21.7231 42.6911 22.0799 43.0666 22.4765 43.3245C22.7055 43.4728 23.2995 43.8088 23.8458 43.7041C23.8806 43.6968 23.9065 43.6694 23.9097 43.6348C23.913 43.5993 23.8927 43.5663 23.8603 43.5534C23.7705 43.5179 23.6823 43.4857 23.5933 43.4542C23.4015 43.3849 23.2218 43.3197 23.043 43.2246C22.7929 43.0924 22.5501 42.9151 22.3389 42.7104C21.9351 42.3196 21.6195 41.8071 21.4002 41.1874C21.2019 40.6233 21.1169 40.0302 21.0481 39.4709C21.019 39.2372 20.9575 38.9777 20.7252 38.8278C20.5164 38.6924 20.1595 38.7851 19.9823 38.8609C18.9707 39.292 15.7223 41.359 14.4275 42.5565C14.06 42.8966 13.7056 43.3076 13.343 43.8128C13.1836 44.0369 13.0234 44.2714 12.8866 44.5148V44.5164Z" fill="#1A2E35"/>
<path d="M10.3141 42.8643C10.9939 43.1584 11.7975 42.8715 12.4158 42.5597C13.0138 42.2583 13.5423 41.8424 14.1233 41.5137C14.2722 41.4298 14.4228 41.3509 14.5773 41.2792C14.655 41.2437 14.7343 41.2098 14.8136 41.18C14.8533 41.1647 14.9019 41.1349 14.9447 41.1478C14.9893 41.1373 14.9949 41.1478 14.9617 41.1816C14.9504 41.197 14.9399 41.2107 14.9286 41.226C14.7279 41.475 14.4122 41.6539 14.1703 41.8602C13.6782 42.2792 13.2267 42.7418 12.8317 43.2511C12.4587 43.733 12.0678 44.2874 11.9537 44.8966C11.948 44.9265 11.9901 44.9369 12.0055 44.916C12.2426 44.5936 12.4417 44.2423 12.678 43.9183C12.9094 43.6008 13.1676 43.3043 13.4452 43.0263C13.6944 42.7772 13.9518 42.5363 14.2156 42.3026C14.4713 42.0761 14.7546 41.869 14.9901 41.6216C15.1535 41.4508 15.4473 41.093 15.1252 40.9157C14.8662 40.7747 14.4835 41.0148 14.2544 41.1285C13.6062 41.4524 13.0227 41.8884 12.3891 42.2365C12.0621 42.4162 11.723 42.5645 11.3621 42.6652C11.0157 42.7611 10.6774 42.7958 10.3197 42.8159C10.293 42.8167 10.2947 42.8546 10.3157 42.8635L10.3141 42.8643Z" fill="#1A2E35"/>
<path d="M18.4058 46.2857C18.4083 46.2793 18.4107 46.2728 18.4139 46.2664C18.4269 46.2406 18.4528 46.2317 18.4787 46.2462C18.4835 46.2486 18.4884 46.2519 18.4924 46.2551C18.5531 46.2768 18.5936 46.3679 18.6162 46.4195C18.6454 46.4848 18.6745 46.55 18.7045 46.6145C18.7635 46.7402 18.8145 46.87 18.876 46.9949C18.8882 47.019 18.8582 47.044 18.8364 47.0287C18.7101 46.9401 18.6057 46.8385 18.5232 46.708C18.4843 46.6467 18.4528 46.5839 18.4261 46.517C18.4099 46.4767 18.3953 46.4308 18.3921 46.3872C18.3896 46.3526 18.388 46.3147 18.4066 46.2849L18.4058 46.2857Z" fill="#1A2E35"/>
<path d="M4.34033 27.3576V21.4692H10.2545" stroke="#FFC800" stroke-width="3" stroke-miterlimit="10"/>
<path d="M30.9711 42.0986V47.9878H25.0586" stroke="#FFC800" stroke-width="3" stroke-miterlimit="10"/>
<path d="M4.34033 42.0986V47.9878H10.2545" stroke="#FFC800" stroke-width="3" stroke-miterlimit="10"/>
<path d="M25.0586 21.4692H30.9711V27.3576" stroke="#FFC800" stroke-width="3" stroke-miterlimit="10"/>
<path d="M32.5305 49.3794V49.5406H32.3687" stroke="#FFC800" stroke-width="0.75" stroke-miterlimit="10"/>
<path d="M32.0457 49.5405H3.10449" stroke="#FFC800" stroke-width="0.75" stroke-miterlimit="10"/>
<path d="M2.94262 49.5406H2.78076V49.3794" stroke="#FFC800" stroke-width="0.75" stroke-miterlimit="10"/>
<path d="M2.78076 49.0574V20.2383" stroke="#FFC800" stroke-width="0.75" stroke-miterlimit="10"/>
<path d="M2.78076 20.0777V19.9165H2.94262" stroke="#FFC800" stroke-width="0.75" stroke-miterlimit="10"/>
<path d="M3.26611 19.9165H32.2066" stroke="#FFC800" stroke-width="0.75" stroke-miterlimit="10"/>
<path d="M32.3687 19.9165H32.5305V20.0777" stroke="#FFC800" stroke-width="0.75" stroke-miterlimit="10"/>
<path d="M32.5303 20.3994V49.2185" stroke="#FFC800" stroke-width="0.75" stroke-miterlimit="10"/>
<path d="M41.189 69.8688H57.4586C57.5929 69.3474 57.7224 68.8341 57.8527 68.3288C58.0008 67.7478 58.1473 67.1813 58.2881 66.6285C58.3189 66.5052 58.352 66.3819 58.3828 66.261C58.4896 65.8379 58.5948 65.4253 58.6984 65.0248C58.7599 64.7806 58.8222 64.5405 58.8821 64.302C58.9461 64.0594 59.0059 63.8217 59.0658 63.5896C59.082 63.5283 59.0966 63.4663 59.1136 63.4066C59.1298 63.339 59.1468 63.2729 59.1629 63.2076C59.1832 63.1254 59.2042 63.0472 59.2244 62.9675V62.965C59.2471 62.8812 59.2673 62.799 59.2884 62.7168C59.3296 62.5605 59.3685 62.4066 59.4057 62.2567C59.4632 62.0351 59.519 61.8175 59.5724 61.6056C59.5951 61.5129 59.6202 61.421 59.6428 61.3308C59.6817 61.1833 59.7189 61.039 59.7545 60.8972C59.7796 60.8029 59.8023 60.7102 59.8249 60.62C59.922 60.2485 60.0103 59.8996 60.0928 59.5732C60.1155 59.487 60.1357 59.4031 60.1592 59.3209C60.194 59.1791 60.2296 59.0437 60.2619 58.9124C60.2846 58.8302 60.3048 58.7504 60.3234 58.6722C60.3955 58.3934 60.4618 58.1388 60.5169 57.9147C60.533 57.8551 60.5476 57.7979 60.5622 57.7423C60.5994 57.5948 60.6342 57.4634 60.6633 57.3458C60.6755 57.2982 60.686 57.2531 60.6981 57.212C60.7103 57.1645 60.7208 57.1218 60.7313 57.0823C60.7378 57.0533 60.7459 57.0251 60.7515 57.0001C60.7621 56.959 60.7718 56.9219 60.7807 56.8889C60.7847 56.8703 60.7888 56.8542 60.7928 56.8397C60.8179 56.743 60.83 56.6938 60.83 56.6938H44.9934C44.9934 56.6938 44.4714 58.4845 43.637 61.371C43.4679 61.9585 43.2842 62.5927 43.0883 63.2664C42.534 65.19 41.8866 67.4359 41.1898 69.8672L41.189 69.8688Z" fill="#2B454E"/>
<path d="M54.7944 69.8684H55.2007C55.8028 67.3863 56.3903 64.9003 56.9512 62.4094C57.0871 61.8034 57.2214 61.1982 57.355 60.5905C57.3671 60.5333 57.3801 60.4777 57.3922 60.4205C57.3987 60.3899 57.3534 60.3778 57.3445 60.4084C57.338 60.427 57.3339 60.4455 57.3283 60.464C57.1446 61.1152 56.9617 61.7679 56.782 62.4207C56.0957 64.8971 55.4378 67.3807 54.7944 69.8692V69.8684Z" fill="#1A2E35"/>
<path d="M45.5067 56.6961L46.2059 60.1798L46.7788 63.0374L47.754 67.9072L47.8552 68.406L48.0219 69.2377L48.1473 69.8678H57.4604C57.5924 69.344 57.7243 68.8307 57.8521 68.3279C58.0002 67.7468 58.1467 67.1803 58.2875 66.6275C58.3183 66.5042 58.3515 66.3809 58.3822 66.26C58.489 65.8369 58.5942 65.4243 58.6978 65.0238C58.7593 64.7797 58.8216 64.5395 58.8815 64.301C58.9455 64.0584 59.0054 63.8207 59.0652 63.5886C59.0814 63.5274 59.096 63.4653 59.113 63.4057C59.1292 63.338 59.1462 63.2719 59.1624 63.2066C59.1826 63.1244 59.2036 63.0463 59.2239 62.9665V62.9641C59.2465 62.8803 59.2668 62.7981 59.2878 62.7159C59.3291 62.5595 59.3679 62.4056 59.4051 62.2557C59.4626 62.0341 59.5184 61.8165 59.5718 61.6046C59.5969 61.5103 59.6196 61.42 59.6423 61.3298C59.6811 61.1823 59.7183 61.0381 59.7539 60.8962C59.779 60.8019 59.8017 60.7093 59.8243 60.619C59.9215 60.2475 60.0097 59.8986 60.0922 59.5722C60.1149 59.486 60.1351 59.4022 60.1586 59.32C60.1934 59.1781 60.229 59.0428 60.2613 58.9114C60.284 58.8292 60.3042 58.7494 60.3229 58.6713C60.3949 58.3924 60.4612 58.1378 60.5163 57.9137C60.5325 57.8541 60.547 57.7969 60.5616 57.7413C60.5988 57.5938 60.6336 57.4625 60.6627 57.3448C60.6749 57.2973 60.6854 57.2521 60.6975 57.211C60.7097 57.1635 60.7202 57.1208 60.7307 57.0813C60.7372 57.0523 60.7453 57.0241 60.751 56.9991C60.7615 56.958 60.7712 56.9209 60.7801 56.8879C60.7841 56.8694 60.7882 56.8532 60.7922 56.8387C60.8173 56.742 60.8295 56.6929 60.8295 56.6929H45.5059L45.5067 56.6961Z" fill="#1A2E35"/>
<path d="M45.5039 56.6895V56.6959C45.5104 56.7821 45.5703 57.7226 45.7224 59.1578C45.7661 59.5768 45.8171 60.0362 45.877 60.5294C45.97 61.3078 46.085 62.1661 46.2274 63.0735C46.471 64.6562 46.7882 66.3831 47.201 68.0706C47.3474 68.6782 47.5085 69.2802 47.6792 69.8693L68.1223 69.8765C67.8811 66.774 67.6602 63.9688 67.4854 61.7575C67.2402 58.6453 67.0832 56.6967 67.0832 56.6967L48.5395 56.6903H45.5047L45.5039 56.6895Z" fill="#2B454E"/>
<path d="M45.5474 58.5597C45.57 59.2882 45.6008 60.0151 45.6485 60.7403C45.6979 61.5269 45.7699 62.311 45.8735 63.0951C45.8759 63.1241 45.88 63.1523 45.884 63.1813C45.9811 63.9162 46.0904 64.6496 46.2158 65.3805C46.3332 66.0622 46.4198 66.7972 46.7232 67.4274C46.8365 67.6659 46.9992 67.8931 47.2015 68.0696C47.3893 68.234 47.6078 68.3573 47.8554 68.4065C47.8943 68.417 47.9355 68.4226 47.9768 68.4266C47.9873 68.429 47.9995 68.4266 48.0116 68.429C47.997 68.4395 47.9865 68.4516 47.9889 68.4718C47.997 68.7159 47.9914 68.9641 48.0181 69.2067C48.0205 69.2172 48.0205 69.2268 48.0221 69.2373C48.0472 69.4485 48.0861 69.658 48.1249 69.8675H48.4753C48.4729 69.8635 48.4729 69.8594 48.4713 69.8554C48.4098 69.6257 48.358 69.3937 48.3005 69.1616C48.239 68.9255 48.1605 68.6934 48.1047 68.4532C48.1022 68.4427 48.0941 68.4371 48.0885 68.4307C48.5336 68.4371 48.9835 68.201 49.1438 67.7715C49.2611 67.4596 49.2077 67.1348 49.16 66.8149C49.096 66.3983 49.0345 65.9817 48.9706 65.5642C48.8508 64.7987 48.6963 64.0411 48.5603 63.2788C48.5401 63.1636 48.519 63.0467 48.4988 62.9315C48.2244 61.381 47.938 59.8313 47.594 58.2954C47.5819 58.2317 47.5673 58.1681 47.5527 58.1044C47.5447 58.0617 47.4742 58.0738 47.4783 58.1149C47.4888 58.2172 47.4993 58.322 47.5115 58.4251C47.5714 59.0142 47.6418 59.6017 47.7235 60.1867C47.8222 60.8749 47.8902 61.5664 47.9873 62.2546C48.0205 62.4883 48.0537 62.7228 48.0885 62.9565C48.2471 64.0879 48.4122 65.2193 48.6056 66.3459C48.6963 66.8697 49.024 67.8077 48.2673 67.9697C48.0796 68.0108 47.9064 67.9802 47.7543 67.906C47.4184 67.74 47.1732 67.3581 47.051 67.0212C46.8365 66.4216 46.7605 65.7608 46.6488 65.1363C46.525 64.4465 46.4157 63.7567 46.3186 63.0644V63.062C46.1948 62.1973 46.0669 61.3351 45.931 60.4728C45.863 60.0336 45.7926 59.5944 45.723 59.1544C45.6898 58.9513 45.6566 58.7483 45.6242 58.5444C45.6162 58.5017 45.5482 58.5138 45.5482 58.5565L45.5474 58.5597Z" fill="#1A2E35"/>
<path d="M63.6381 63.9718C62.7867 63.9686 61.9394 63.8453 61.1164 63.6342C60.7368 63.5366 60.3613 63.4158 59.9883 63.2941C59.6306 63.1772 59.2591 63.0338 58.971 62.7856C58.398 62.2932 58.1302 61.518 57.8817 60.8298C57.6001 60.0521 57.397 59.2608 57.2205 58.4541C57.2116 58.4138 57.1534 58.4275 57.1526 58.4654C57.125 59.3695 57.2553 60.2906 57.4957 61.1618C57.7012 61.9056 57.978 62.7364 58.5817 63.2586C59.217 63.8074 60.0797 64 60.893 64.0999C61.8107 64.2128 62.7268 64.1862 63.6405 64.0621C63.6972 64.0548 63.698 63.9718 63.6381 63.9718Z" fill="#1A2E35"/>
<path d="M65.0542 58.4774C65.0996 59.6169 65.1473 60.758 65.1983 61.8975C65.3156 64.5544 65.4459 67.2113 65.5835 69.8674H65.9671C65.7915 67.2049 65.6086 64.5439 65.4128 61.8846C65.3286 60.7475 65.242 59.6121 65.153 58.4742C65.1465 58.4105 65.0518 58.4146 65.0542 58.4766V58.4774Z" fill="#1A2E35"/>
<path d="M47.7738 33.232C39.7207 40.4606 32.2552 48.3749 31.6709 52.4147C30.8616 58.0081 34.3172 59.5602 35.8645 59.5747C40.0792 59.6158 47.7382 42.6066 50.4023 36.1122C52.9888 29.8063 49.5429 31.6445 47.7746 33.2312L47.7738 33.232Z" fill="#ED776A"/>
<path d="M35.6177 44.7983L44.5723 49.6455C44.5723 49.6455 50.1401 39.4055 51.4228 34.6582C52.7055 29.9108 50.7891 30.0486 46.5752 33.7403C42.3614 37.4319 35.6177 44.7983 35.6177 44.7983Z" fill="#C8C8C8"/>
<path d="M35.6177 44.7983L44.5723 49.6455C44.5723 49.6455 50.1401 39.4055 51.4228 34.6582C52.7055 29.9108 50.7891 30.0486 46.5752 33.7403C42.3614 37.4319 35.6177 44.7983 35.6177 44.7983Z" fill="#FFC800"/>
<path d="M51.4211 34.6571C50.1392 39.4052 44.5714 49.6477 44.5714 49.6477L36.418 45.2316L51.434 31.1782C51.935 31.5602 51.956 32.6884 51.4219 34.6571H51.4211Z" fill="#D3960D"/>
<path d="M37.461 43.4324C40.9142 45.7581 44.2598 47.2707 44.9306 47.6551C44.9622 47.6736 44.9881 47.6204 44.9549 47.6035C44.2776 47.261 40.6027 44.9828 37.4878 43.376C37.4521 43.3574 37.4279 43.4098 37.461 43.4324Z" fill="#1A2E35"/>
<path d="M42.5535 63.0172L68.7756 63.093C68.7756 63.093 66.4878 43.4461 56.8606 31.841C54.6319 29.1542 51.0436 30.6144 49.5319 32.04C45.691 35.6615 42.4798 62.9229 42.5535 63.0172Z" fill="#FCBF1E"/>
<path d="M51.5729 30.7725C52.2025 31.2302 52.8046 31.7347 53.4124 32.2029C53.9991 32.6574 54.585 33.1103 55.1717 33.5631C55.7083 33.9757 56.2335 34.4391 56.8308 34.7655C57.3705 35.0612 58.0002 35.1926 58.5796 34.9283C58.722 34.8646 58.8539 34.78 58.9753 34.6833C58.9964 34.7147 59.0166 34.7453 59.036 34.7768C58.7406 35.0137 58.387 35.1708 57.9929 35.195C57.4134 35.2281 56.872 34.9653 56.4018 34.6486C55.8135 34.253 55.2656 33.7936 54.7032 33.3617C53.6115 32.5204 52.5359 31.6444 51.4151 30.8385C51.4669 30.816 51.5195 30.7934 51.5729 30.7733V30.7725ZM62.0312 46.4037C62.9667 46.4158 63.8933 46.4657 64.7972 46.6495C64.7762 46.5874 64.7535 46.5254 64.7293 46.4625C63.9346 46.307 63.1204 46.2514 62.2998 46.2361C59.9262 46.1926 56.7506 46.34 55.315 44.024C54.7493 43.1101 54.5672 41.8989 55.1879 40.9642C55.7366 40.1381 56.7603 39.782 57.7193 39.7908C58.2195 39.794 58.7172 39.8907 59.1801 40.0793C59.7369 40.3074 60.2265 40.6789 60.6829 41.0641C61.5367 41.7877 62.3314 42.6347 63.3988 43.0376C63.3713 42.9699 63.343 42.903 63.3138 42.8337C62.9893 42.6951 62.6842 42.5178 62.4164 42.3236C61.4234 41.608 60.6222 40.62 59.5184 40.0616C58.6872 39.6401 57.691 39.5192 56.7854 39.7368C55.9001 39.9496 55.1216 40.5193 54.7954 41.3872C54.4329 42.3567 54.7153 43.4663 55.2956 44.2915C56.783 46.4101 59.7174 46.3739 62.0303 46.4029L62.0312 46.4037ZM58.0074 37.3749C58.7002 37.0622 59.4099 36.739 60.1472 36.5319C60.114 36.4804 60.0832 36.4264 60.05 36.3748C58.3579 36.8462 56.7943 37.9124 55.0504 38.2097C52.9576 38.5675 50.7466 38.0768 48.9557 36.959C48.4596 36.6496 47.9943 36.2918 47.5727 35.888C47.5516 35.9437 47.533 36.0001 47.5136 36.0589C47.9142 36.4376 48.3536 36.7761 48.8206 37.0735C50.554 38.1743 52.6711 38.6892 54.7169 38.4386C55.8815 38.2951 56.9465 37.8527 58.0066 37.3757L58.0074 37.3749ZM59.592 56.0176C60.8779 56.4963 62.214 56.8524 63.5469 57.1651C65.0344 57.5141 66.8755 57.8114 68.0756 58.8139C68.0602 58.7277 68.0424 58.6431 68.0254 58.5544C66.8245 57.6438 65.1032 57.3537 63.6715 57.0201C62.3338 56.7058 60.992 56.348 59.7012 55.8725C58.5853 55.4632 57.4822 54.9136 56.6665 54.0287C55.964 53.2704 55.5788 52.2526 55.6476 51.2171C55.7172 50.1824 56.3088 49.2387 57.3325 48.9172C58.4307 48.5698 59.6543 48.9776 60.5704 49.6013C61.6184 50.3153 62.3702 51.3863 63.1747 52.3421C63.9378 53.2527 64.7835 54.0892 65.8987 54.5558C66.3171 54.7306 66.7678 54.841 67.2178 54.8636C67.2056 54.812 67.1935 54.758 67.1798 54.7065C66.2896 54.6492 65.4188 54.2141 64.7276 53.6814C63.7104 52.8989 62.9804 51.8086 62.1436 50.8512C61.3764 49.9736 60.5 49.1944 59.3686 48.8293C58.3878 48.5134 57.2621 48.5441 56.4342 49.2161C55.7123 49.8052 55.4242 50.761 55.4744 51.6643C55.5303 52.6596 55.96 53.5758 56.6616 54.2826C57.4701 55.0981 58.5238 55.6219 59.5904 56.0176H59.592ZM56.4043 60.4861C56.2165 61.3346 56.3055 62.2001 56.2554 63.0576H56.4164V63.0543C56.4771 62.0051 56.3104 60.9011 56.7498 59.9091C56.974 59.4046 57.3778 58.9912 57.9176 58.8292C58.4938 58.6584 59.1291 58.7672 59.6616 59.0242C60.8002 59.5771 61.4088 60.7746 61.9624 61.8439C62.176 62.2533 62.3961 62.6772 62.6511 63.0761H62.8404C62.214 62.1292 61.8135 61.0477 61.1361 60.1283C60.4838 59.2434 59.4997 58.5246 58.3457 58.6028C57.2783 58.6737 56.6187 59.5029 56.4043 60.4861ZM46.1265 63.0277H46.3345C46.5724 62.6216 46.7318 62.1655 46.8306 61.7061C47.0839 60.5417 47.011 59.3353 46.9261 58.1571C46.7318 55.4253 46.2576 52.6346 46.8581 49.9197C47.1025 48.8172 47.5087 47.739 48.1408 46.7953C48.7898 45.8291 49.7302 44.9225 50.8599 44.5542C51.4637 44.3576 52.1337 44.3367 52.7083 44.6405C53.1979 44.8983 53.5653 45.3383 53.7984 45.8331C54.3714 47.0476 54.0169 48.4216 53.4707 49.5756C52.4 51.8344 50.6665 53.7314 49.8038 56.0949C49.0285 58.2184 49.1912 60.586 50.2238 62.5974C50.2999 62.7457 50.3817 62.8948 50.4682 63.0398L50.6592 63.0414C50.236 62.3484 49.9204 61.5917 49.7221 60.8076C49.4388 59.6915 49.3903 58.5125 49.6128 57.3811C49.8524 56.1578 50.4003 55.024 51.0307 53.9578C51.6692 52.8763 52.3943 51.8481 53.0264 50.7626C53.6649 49.665 54.2726 48.449 54.2581 47.1491C54.2459 46.145 53.7774 45.0821 52.8855 44.5575C51.8319 43.9337 50.5621 44.3568 49.6371 45.0136C47.8171 46.3078 46.8921 48.478 46.5554 50.6191C46.1144 53.4114 46.6663 56.2352 46.7982 59.0307C46.8516 60.1452 46.8484 61.2992 46.4567 62.3621C46.3701 62.5974 46.2592 62.8214 46.1273 63.0277H46.1265ZM48.7558 39.4443C48.178 38.9431 47.4715 38.7102 46.7375 38.665C46.7254 38.7118 46.7132 38.7601 46.6995 38.8069C46.8726 38.8157 47.0483 38.8359 47.2239 38.8705C48.3067 39.0849 49.4016 39.9246 49.4154 41.1084C49.4308 42.3978 48.331 43.3567 47.2668 43.8886C46.642 44.2013 45.9897 44.443 45.3496 44.713C45.3391 44.7686 45.3269 44.8234 45.3164 44.8806C45.721 44.7082 46.1338 44.5542 46.5416 44.3866C47.6439 43.9378 48.7542 43.3358 49.3021 42.2285C49.786 41.2559 49.5797 40.1615 48.7558 39.4451V39.4443Z" fill="white"/>
<path d="M58.7012 32.7174C66.3375 38.5558 74.3 48.4638 74.4189 54.1854C74.5363 59.8361 71.3493 59.272 70.8128 59.106C65.139 57.3476 58.299 41.6745 55.77 35.2921C53.2588 28.9564 56.8132 31.2741 58.7012 32.7182V32.7174Z" fill="#ED776A"/>
<path d="M70.97 44.105L62.1044 49.111C62.1044 49.111 56.3537 38.9716 54.986 34.2477C53.6183 29.5246 55.5363 29.6277 59.8157 33.2436C64.0952 36.8595 70.97 44.105 70.97 44.105Z" fill="#FCBF1E"/>
<path d="M69.103 42.7712C65.6927 45.1582 62.3739 46.7296 61.7103 47.1261C61.6787 47.1446 61.652 47.0922 61.6852 47.0753C62.3561 46.7207 65.9897 44.3773 69.0755 42.7156C69.1111 42.6963 69.1362 42.7487 69.1038 42.772L69.103 42.7712Z" fill="#1A2E35"/>
<path d="M62.6742 48.7659C62.6159 48.7716 62.221 48.9617 62.1393 49.0036C61.2871 47.3162 61.4425 47.703 60.5741 46.0244C60.1493 45.2016 59.722 44.3788 59.2987 43.5552C58.8585 42.6986 58.4636 41.8065 57.9764 40.9757C57.9618 40.9507 57.9286 40.9692 57.9375 40.995C58.22 41.8065 58.6028 42.5922 58.9645 43.3747C58.8844 43.2538 58.8083 43.1297 58.7209 43.0121C58.5251 42.7502 58.3341 42.4883 58.1593 42.2111C58.1326 42.1684 58.0613 42.203 58.0889 42.2457C58.2548 42.51 58.402 42.7816 58.5469 43.0572C58.6926 43.3336 58.8536 43.5971 59.0179 43.8631C59.1765 44.1193 59.3521 44.3627 59.5286 44.6061C59.5504 44.6359 59.5715 44.6665 59.5925 44.6963C59.8248 45.1855 60.0497 45.6787 60.2933 46.163C61.1455 47.8601 62.0244 49.1938 62.0543 49.1858C62.1725 49.1552 62.6491 48.8489 62.6969 48.8143C62.722 48.7965 62.6969 48.7643 62.6734 48.7667L62.6742 48.7659Z" fill="#1A2E35"/>
<path d="M36.2531 59.3766C38.8808 58.9938 40.3699 54.1305 43.2881 46.3902C43.8004 45.0315 37.013 37.2534 36.0921 38.5049C34.9316 40.0812 31.8563 48.8207 31.5496 51.1955C30.9451 55.8792 33.1851 59.8239 36.2539 59.3774L36.2531 59.3766Z" fill="#ED776A"/>
<path d="M40.2954 54.2231C41.2552 51.7281 42.3744 49.1703 43.2209 46.6432L43.2881 46.3901L43.2331 46.6464C42.8851 47.9116 42.389 49.1301 41.918 50.3533C41.3984 51.6524 40.8651 52.9458 40.2962 54.2239L40.2954 54.2231Z" fill="#1A2E35"/>
<path d="M33.6567 44.1164C34.025 41.4595 34.7784 37.7534 35.7317 36.9765C36.7328 36.1618 40.3664 33.4372 41.4161 33.0754C42.4657 32.7135 47.1441 30.9398 48.0044 31.4346C48.693 31.8311 47.8781 33.6338 45.651 34.4969C43.6942 35.256 42.6866 35.9644 42.1274 36.2053C41.5569 36.4511 40.1843 38.2909 40.559 39.1056C40.78 39.5859 42.1824 40.1484 43.054 39.7559C43.9256 39.3627 44.1417 37.6438 45.1379 36.8331C46.1341 36.0224 47.8919 36.1207 47.993 36.5929C48.095 37.0652 47.5139 37.286 46.6156 38.8929C46.0378 39.926 45.999 42.4048 44.6879 44.1817C44.0292 45.0746 42.8808 47.4519 42.8808 47.4519L33.6575 44.1164H33.6567Z" fill="#ED776A"/>
<path d="M46.0668 36.1013C46.3743 36.0312 46.7093 35.9385 46.9383 35.708C47.0355 35.6105 47.1099 35.4897 47.1366 35.3535C47.1504 35.2817 47.1528 35.2036 47.1431 35.1319C47.1342 35.065 47.1148 34.9626 47.0573 34.9199C47.0403 34.907 47.0662 34.8861 47.0751 34.9038C47.0953 34.9433 47.1309 34.9731 47.1552 35.0094C47.1763 35.04 47.1925 35.0746 47.2054 35.1093C47.2321 35.1794 47.2442 35.2511 47.2426 35.3261C47.2394 35.4888 47.1738 35.6436 47.0694 35.7677C46.8218 36.0626 46.4382 36.1408 46.0692 36.1271C46.0538 36.1271 46.053 36.1045 46.0676 36.1013H46.0668Z" fill="#1A2E35"/>
<path d="M35.7318 36.9771C36.5783 35.6507 38.7479 33.2589 40.8966 32.4369C42.3492 31.8809 47.3505 34.3025 47.2048 35.2542C47.06 36.2059 46.2062 36.2099 44.9413 36.0609C44.4808 36.0069 42.0433 35.1374 41.6281 35.6458C41.0317 36.3776 40.275 38.8781 40.275 38.8781L35.731 36.9771H35.7318Z" fill="#ED776A"/>
<path d="M47.0808 34.8821C46.4625 33.8635 45.1046 33.3212 43.7531 32.8925C43.732 32.886 43.7199 32.9174 43.7409 32.9247C44.0849 33.0343 46.2869 34.0416 47.0654 34.8982C47.0743 34.9079 47.0865 34.8926 47.08 34.8821H47.0808Z" fill="#1A2E35"/>
<path d="M35.7319 36.9771C36.5784 35.6506 38.7481 33.2588 40.8967 32.4368C42.3494 31.8808 46.3067 34.9809 46.1619 35.9327C46.017 36.8844 44.7893 36.9609 43.433 36.4919C42.9944 36.3404 41.5239 35.3113 41.1096 35.8206C40.5131 36.5524 39.0589 38.3696 39.0589 38.3696L35.7319 36.9779V36.9771Z" fill="#ED776A"/>
<path d="M39.8974 37.2431C40.0333 37.0335 40.0803 36.9602 40.2203 36.7531C40.3595 36.5468 40.5019 36.3429 40.6565 36.1471C40.7892 35.9787 40.9187 35.7917 41.104 35.6765C41.282 35.5661 41.4981 35.5395 41.7037 35.5588C42.1739 35.6015 42.5987 35.8989 42.9977 36.127C43.4428 36.3808 44.367 36.7934 45.0743 36.7185C45.2693 36.6975 45.4611 36.6653 45.6327 36.567C45.7444 36.5033 45.8941 36.4243 45.9669 36.301C46.2728 35.7821 45.8892 35.1914 45.4975 34.7723C44.7668 33.9922 43.7843 33.4265 42.831 32.9615C42.5971 32.8471 42.36 32.7391 42.1229 32.6311C41.8526 32.5078 41.5717 32.3894 41.265 32.3878C40.773 32.3846 39.9686 32.8826 39.7185 33.0333C39.6999 33.0446 39.6853 33.0139 39.7039 33.0026C40.0058 32.8149 40.7544 32.204 41.5475 32.2435C41.838 32.258 42.1091 32.4063 42.3729 32.5191C42.6497 32.6376 42.9224 32.7657 43.1919 32.8995C43.7163 33.1598 44.227 33.4499 44.7044 33.7892C45.1552 34.1099 45.6367 34.4838 45.9418 34.952C46.2065 35.3574 46.2858 35.9352 46.0292 36.3607C45.8123 36.7201 45.3502 36.8063 45.1382 36.8337C44.927 36.8611 44.7239 36.8571 44.5118 36.8281C44.2925 36.7982 43.4905 36.567 43.1523 36.4332C42.7225 36.2631 42.3349 35.9747 41.8914 35.8417C41.6802 35.778 41.4479 35.7756 41.2497 35.8836C41.066 35.9843 40.913 36.1697 40.7706 36.3196C40.4477 36.658 40.234 36.878 39.9702 37.2656C39.9063 37.3599 39.8407 37.3301 39.8974 37.2423V37.2431Z" fill="#1A2E35"/>
<path d="M35.103 38.1336C35.4138 37.5026 35.9374 34.9029 36.4408 34.1051C36.9441 33.3073 39.2433 30.5488 40.318 30.6673C41.6687 30.8164 40.263 33.2404 39.5565 34.2388C38.85 35.2373 38.9705 36.9328 38.9705 36.9328L35.103 38.1327V38.1336Z" fill="#ED776A"/>
<path d="M40.5411 32.5836C40.2903 32.8995 40.0677 33.2501 39.8492 33.5893C39.6428 33.9109 39.4033 34.23 39.2463 34.5789C39.0885 34.9295 39.0197 35.3058 38.9833 35.6862C38.9655 35.8731 38.9598 36.0593 38.959 36.2479C38.9582 36.4526 38.9768 36.6597 38.972 36.8635C38.972 36.8853 39.0051 36.8885 39.0059 36.8668C39.0213 36.4969 39.0877 36.1165 39.1516 35.7515C39.218 35.3719 39.3321 34.9931 39.4891 34.641C39.8039 33.9367 40.266 33.3081 40.5873 32.607C40.6002 32.5788 40.5589 32.5603 40.5411 32.5828V32.5836Z" fill="#1A2E35"/>
<path d="M38.9878 37.2181C39.0137 38.1988 39.6595 39.4584 40.2276 40.2505L40.5157 40.6293C41.1073 41.3779 41.5734 42.2466 41.7336 43.1951C41.7903 43.5078 41.821 43.8253 41.8299 44.142C41.7636 43.1935 41.503 42.2612 40.998 41.4529C40.6727 40.9065 40.2292 40.4439 39.8982 39.8984C39.5656 39.3544 39.2977 38.7702 39.1189 38.1585C39.0347 37.8531 38.9684 37.5356 38.9878 37.2173V37.2181Z" fill="#1A2E35"/>
<path d="M48.6277 33.5057C48.6657 33.9191 48.724 34.3292 48.8049 34.7394C48.877 35.1061 48.9514 35.4728 49.0922 35.8257C49.3439 36.4599 49.8246 37.0466 50.5675 37.2174C51.2765 37.3802 52.0048 37.1586 52.5664 36.7903C53.1815 36.3874 53.6606 35.8152 54.1 35.2592C54.3719 34.9151 54.6301 34.5605 54.8688 34.1955C54.9902 34.0109 55.1124 33.8264 55.2241 33.6362C55.3358 33.4468 55.4386 33.2518 55.5616 33.0689C55.5713 33.0544 55.6036 33.0648 55.5939 33.0818C55.356 33.5137 54.6366 34.8821 54.3954 35.2213C53.9584 35.8378 53.4793 36.468 52.8432 36.9241C52.2419 37.3552 51.4982 37.6139 50.7083 37.5027C49.9298 37.3931 49.3423 36.8669 49.0477 36.2109C48.8664 35.808 48.7839 35.3712 48.7305 34.9441C48.6706 34.4662 48.6374 33.9851 48.6172 33.5065C48.6172 33.5008 48.6269 33.5008 48.6269 33.5065L48.6277 33.5057Z" fill="#1A2E35"/>
<path d="M51.1655 36.0209C52.7824 35.9765 54.7773 32.9747 55.309 30.8287C55.3446 30.6813 53.438 25.6857 53.1636 24.6567C53.1086 24.4455 47.0908 27.9405 47.0908 27.9405C47.0908 27.9405 48.3039 29.9294 48.7717 31.7256C48.8089 31.8763 49.6028 36.0636 51.1655 36.0217V36.0209Z" fill="#ED776A"/>
<path d="M47.0916 27.9382C47.0916 27.9382 48.3047 29.927 48.7725 31.7241C48.7806 31.7596 48.8324 32.0215 48.9238 32.3994C51.9327 31.301 53.3934 28.898 54.0619 27.2709C53.6532 26.1387 53.2737 25.0734 53.1636 24.6567C53.107 24.4448 47.0908 27.9382 47.0908 27.9382H47.0916Z" fill="#1A2E35"/>
<path d="M43.6377 16.2974C43.2525 16.3635 41.956 19.4266 42.1446 20.7675C42.334 22.1093 43.2128 24.7049 43.6142 24.692C44.0148 24.68 43.9347 16.2458 43.6377 16.2966V16.2974Z" fill="#1A2E35"/>
<path d="M52.892 17.4862C54.2208 19.579 54.8221 26.507 53.5936 28.4225C51.8116 31.2003 47.991 32.4598 45.39 30.1261C42.8691 27.8632 42.246 18.8215 43.7035 16.9873C45.8497 14.2861 50.9295 14.3949 52.8928 17.4862H52.892Z" fill="#ED776A"/>
<path d="M47.8919 21.9085C48.1007 21.9464 48.3006 21.9472 48.511 21.9633C48.749 21.9819 48.9367 22.0205 49.1536 21.8997C49.2701 21.8344 49.3203 21.6458 49.2669 21.5274C49.1431 21.2518 48.8574 21.1567 48.5717 21.1228C48.2618 21.0857 48.0141 21.1365 47.7511 21.3025C47.4962 21.4629 47.616 21.8578 47.8919 21.9085Z" fill="#1A2E35"/>
<path d="M48.1647 23.4212C48.1664 23.4035 48.2036 23.4398 48.2052 23.4591C48.2384 23.9273 48.3557 24.4576 48.7952 24.5696C48.8089 24.5728 48.8097 24.597 48.7935 24.5962C48.2691 24.5769 48.1202 23.8709 48.1639 23.4221L48.1647 23.4212Z" fill="#1A2E35"/>
<path d="M48.533 22.8917C49.2807 22.758 49.4944 24.2569 48.8017 24.381C48.1203 24.5035 47.9058 23.0038 48.533 22.8917Z" fill="#1A2E35"/>
<path d="M45.4707 23.7362C45.4643 23.7193 45.4376 23.7636 45.4408 23.7821C45.5217 24.2447 45.5363 24.787 45.1365 25.0014C45.1244 25.0078 45.1284 25.0312 45.1438 25.0272C45.648 24.8821 45.6213 24.1617 45.4699 23.737L45.4707 23.7362Z" fill="#1A2E35"/>
<path d="M44.9851 23.3099C44.2268 23.3591 44.3821 24.8652 45.0846 24.8193C45.7757 24.7742 45.6203 23.268 44.9851 23.3099Z" fill="#1A2E35"/>
<path d="M44.2978 22.5112C44.5018 22.4475 44.679 22.3556 44.8741 22.2718C45.0942 22.1775 45.2795 22.1252 45.4147 21.9165C45.4875 21.8044 45.4438 21.6134 45.341 21.5321C45.1023 21.3443 44.8036 21.3926 44.5342 21.4958C44.242 21.607 44.0445 21.7674 43.8892 22.0373C43.7378 22.2992 44.0292 22.595 44.2978 22.5112Z" fill="#1A2E35"/>
<path d="M49.1341 27.219C49.0378 27.3439 48.948 27.5091 48.7804 27.547C48.6202 27.5833 48.4195 27.5373 48.2625 27.5011C48.2471 27.4979 48.2342 27.5148 48.2455 27.5277C48.392 27.6888 48.6623 27.7646 48.8735 27.6961C49.0791 27.6292 49.1576 27.4334 49.1818 27.2335C49.1851 27.2053 49.1478 27.2005 49.1341 27.219Z" fill="#1A2E35"/>
<path d="M48.4454 25.8985C48.2423 26.3385 47.8894 26.6133 47.4864 26.7519C47.3068 26.8155 47.1125 26.8494 46.9191 26.8591C46.8811 26.8639 46.8431 26.8647 46.8083 26.8623C46.7735 26.8623 46.7427 26.8631 46.7039 26.8615C46.648 26.8615 46.6116 26.8204 46.5954 26.7704V26.7672C46.593 26.7503 46.5914 26.7366 46.593 26.7188V26.7156L46.5873 26.6745C46.5266 26.3183 46.4837 25.7695 46.4837 25.7695C46.3615 25.8533 45.736 26.2482 45.7198 26.0596C45.5919 24.5003 45.4495 22.7661 45.6526 21.1874C45.6567 21.135 45.7368 21.1358 45.7392 21.1874C45.9221 22.6815 45.8396 24.1965 45.999 25.7002C46.2005 25.589 46.5274 25.3908 46.716 25.3674C46.7694 25.3747 46.7799 26.4295 46.8196 26.5867C46.8196 26.5867 46.8204 26.5931 46.8252 26.6036C47.4395 26.5947 47.8684 26.3489 48.396 25.863C48.4268 25.8316 48.4681 25.8582 48.4454 25.8985Z" fill="#1A2E35"/>
<path d="M53.7076 23.4318C52.4953 23.7034 51.7095 22.4261 51.0322 20.5807C50.6372 19.5032 50.6348 17.2509 50.6348 17.2509C50.6348 17.2509 47.6955 19.1317 45.8957 19.2131C44.0959 19.2945 42.3721 17.9721 42.2669 16.5723C42.1763 15.3708 43.9858 13.5528 46.6265 13.0862C48.4668 12.7606 51.7945 13.8235 53.4406 15.6214C53.4406 15.6214 55.921 16.42 55.8101 18.2187C55.6984 20.0174 55.0842 23.1231 53.7068 23.4318H53.7076Z" fill="#1A2E35"/>
<path d="M53.6018 23.3043C52.0318 23.8612 50.8519 21.5516 50.6415 20.2945C50.423 18.9882 50.7508 17.5932 50.8074 16.2829C50.8074 16.2765 50.7977 16.274 50.7961 16.2813C50.4586 17.9067 50.1309 19.9504 50.8811 21.5049C51.3529 22.4832 52.3345 24.0739 53.6334 23.389C53.6779 23.3656 53.652 23.2858 53.6018 23.3035V23.3043Z" fill="#1A2E35"/>
<path d="M56.0926 17.641C55.7195 16.5918 54.3405 15.6916 53.2698 15.5772C53.2601 15.5764 53.2569 15.5917 53.2666 15.5941C54.5671 15.8794 56.1954 17.1131 55.9963 18.5484C55.8369 19.6959 55.4986 21.2238 54.8593 22.2029C54.8431 22.2279 54.8803 22.2505 54.8981 22.2271C55.4152 21.555 55.5714 20.7468 55.781 19.9401C55.9631 19.2382 56.3508 18.3671 56.0926 17.6394V17.641Z" fill="#1A2E35"/>
<path d="M53.6997 15.7519C51.959 13.8573 48.4823 11.9063 45.8732 12.9064C45.8659 12.9096 45.8708 12.9217 45.8781 12.9201C48.6806 12.1037 51.5875 14.182 53.6156 15.8534C53.6746 15.9017 53.7491 15.8067 53.6997 15.7527V15.7519Z" fill="#1A2E35"/>
<path d="M52.936 23.6106C52.936 23.6106 53.878 21.0786 54.9948 21.3574C56.1116 21.6362 55.796 25.0329 54.7618 25.7558C53.7267 26.4786 53.0356 25.5398 53.0356 25.5398L52.936 23.6098V23.6106Z" fill="#ED776A"/>
<path d="M54.8799 22.3287C54.8977 22.3222 54.9082 22.3472 54.8936 22.3577C54.175 22.8912 53.9468 23.7422 53.8529 24.5883C54.0139 24.2305 54.2972 23.9831 54.7698 24.162C54.7949 24.1717 54.7828 24.2096 54.7593 24.2104C54.4113 24.2257 54.1888 24.3449 54.0358 24.6649C53.9274 24.8913 53.8812 25.154 53.8246 25.3982C53.806 25.4796 53.666 25.4748 53.6716 25.3853C53.6716 25.3789 53.6724 25.3716 53.6732 25.3652C53.3851 24.3514 53.806 22.7179 54.8799 22.3287Z" fill="#1A2E35"/>
<path d="M49.7053 34.8442L53.4029 45.8296C53.5485 46.1488 53.4029 46.4292 53.0784 46.4534L47.2734 46.8966C46.9497 46.9216 46.5678 46.6814 46.4221 46.3623L42.7245 35.3769C42.5788 35.0569 42.7245 34.7773 43.0482 34.7531L48.8531 34.3099C49.1777 34.2849 49.5588 34.5243 49.7045 34.8442H49.7053Z" fill="#2B454E"/>
<path d="M49.016 34.8911L52.7136 45.8765C52.8593 46.1956 52.7136 46.4761 52.3899 46.5002L46.585 46.9435C46.2612 46.9685 45.8793 46.7283 45.7336 46.4092L42.036 35.4237C41.8904 35.1038 42.036 34.8242 42.3597 34.8L48.1647 34.3568C48.4892 34.3318 48.8703 34.5711 49.016 34.8911Z" fill="#375A64"/>
<path d="M47.4638 35.5241C47.4905 35.7949 47.7333 35.9923 48.0044 35.9657C48.2763 35.9391 48.4746 35.6974 48.4479 35.4274C48.4212 35.1566 48.1792 34.9592 47.9073 34.9858C47.6354 35.0124 47.4371 35.2541 47.4638 35.5241Z" fill="#1A2E35"/>
<path d="M72.0187 59.1638C69.4857 59.5394 66.3028 57.6118 58.0369 51.7427C56.8934 50.9304 60.4777 41.3504 61.7434 42.1554C63.3385 43.1692 69.3069 47.4467 69.7034 47.815C73.0506 50.9167 73.7368 58.9092 72.0187 59.1638Z" fill="#ED776A"/>
<path d="M64.7045 45.0083C64.7045 45.0083 62.3325 41.7711 60.5586 40.4552C58.1825 38.692 55.4019 38.1448 54.2227 37.9852C51.7617 37.6524 45.5789 38.5421 45.5255 40.3593C45.4769 42.0048 51.7504 40.7775 51.7504 40.7775C51.7504 40.7775 45.1467 40.9774 45.4543 42.9695C45.7618 44.9615 52.9627 43.1242 52.9627 43.1242C52.9627 43.1242 46.1826 43.4812 46.826 45.4853C47.3124 46.9996 53.9282 45.7021 53.9282 45.7021C53.9282 45.7021 48.103 46.0494 48.5352 47.6281C49.0135 49.3728 55.1955 48.5565 55.1955 48.5565C56.9743 52.3859 59.394 53.4843 61.2092 54.0621C61.6486 54.2015 64.7036 45.0075 64.7036 45.0075L64.7045 45.0083Z" fill="#ED776A"/>
<path d="M54.0301 40.5621C53.254 40.5573 52.4674 40.5476 51.6938 40.6121C50.9193 40.6766 50.1464 40.7676 49.3825 40.9038C47.5066 41.2366 46.3841 41.7379 46.457 41.7145C48.1767 41.1609 50.9444 40.8877 51.7189 40.824C52.4917 40.7596 53.2613 40.6572 54.0342 40.592C54.0536 40.5903 54.0488 40.5629 54.0309 40.5629L54.0301 40.5621Z" fill="#1A2E35"/>
<path d="M54.3136 43.3413C53.3214 43.3784 52.3357 43.3792 51.3452 43.4598C50.3595 43.5404 49.4312 43.7023 48.4544 43.8498C48.3792 43.8611 48.4099 43.8982 48.486 43.8893C49.4685 43.7805 50.3854 43.7555 51.3694 43.6588C52.3495 43.5621 53.3336 43.4267 54.3168 43.3655C54.3322 43.3647 54.329 43.3413 54.3144 43.3421L54.3136 43.3413Z" fill="#1A2E35"/>
<path d="M54.9885 45.6843C53.4703 45.6633 51.9497 45.922 50.4639 46.2113C50.3902 46.2258 50.4347 46.2685 50.5116 46.2581C52.0128 46.055 53.1887 45.885 54.9885 45.7375C55.0168 45.7351 55.0209 45.6851 54.9885 45.6851V45.6843Z" fill="#1A2E35"/>
<path d="M67.4222 46.123C68.0656 46.5695 68.6911 47.0409 69.2965 47.5381C69.8217 47.9773 70.3534 48.4286 70.7596 48.9838C71.263 49.7099 71.6296 50.5198 71.9509 51.3394C72.2252 52.0711 72.4632 52.8213 72.5813 53.5942C72.43 52.8286 72.1791 52.0864 71.8926 51.3619C71.5212 50.465 71.1198 49.5665 70.5193 48.7985C70.143 48.3512 69.6987 47.9668 69.256 47.5857C68.6604 47.0796 68.0445 46.5961 67.4214 46.123H67.4222Z" fill="#1A2E35"/>
<path d="M42.4033 11.732C42.4033 11.732 41.679 17.506 40.4886 18.805C39.0594 20.3635 38.0227 20.1355 37.4457 20.9389C37.4441 20.9389 37.4441 20.9405 37.4441 20.9405C36.8671 20.1355 35.8304 20.3651 34.4004 18.805C33.21 17.506 32.4873 11.732 32.4873 11.732C35.6241 10.2162 37.4449 8.5166 37.4449 8.5166L37.4465 8.51821C37.5024 8.57059 39.316 10.2403 42.4041 11.7328L42.4033 11.732Z" fill="#FFC800"/>
<path opacity="0.2" d="M37.4457 8.51741V20.9389L37.4441 20.9405C36.8671 20.1355 35.8304 20.3651 34.4004 18.805C33.21 17.506 32.4873 11.732 32.4873 11.732C35.6241 10.2162 37.4449 8.5166 37.4449 8.5166L37.4465 8.51821L37.4457 8.51741Z" fill="black"/>
<path opacity="0.1" d="M42.4034 11.7321C42.4034 11.7321 41.6791 17.5061 40.4887 18.8052C39.0595 20.3637 38.0228 20.1356 37.4458 20.9391V8.51758C37.5016 8.56996 39.3152 10.2397 42.4034 11.7321Z" fill="black"/>
<path d="M41.6336 12.197C41.6336 12.197 41.0218 17.0749 40.0167 18.1725C38.8085 19.4908 37.932 19.2974 37.4448 19.9768C36.9576 19.2974 36.0812 19.4916 34.873 18.1725C33.8678 17.0741 33.2568 12.197 33.2568 12.197C35.9064 10.9157 37.4448 9.48047 37.4448 9.48047C37.4448 9.48047 38.9849 10.9157 41.6336 12.197Z" fill="#FFC800"/>
<path opacity="0.1" d="M37.4456 9.48208V19.9752L37.444 19.9768C36.9576 19.2974 36.0804 19.4908 34.873 18.1733C33.867 17.0749 33.2568 12.197 33.2568 12.197C35.9056 10.9165 37.4432 9.48047 37.4432 9.48047L37.4448 9.48208H37.4456Z" fill="black"/>
<path d="M39.3218 13.7998H35.5684V17.1901H39.3218V13.7998Z" fill="white"/>
<path d="M38.9461 14.846H38.5649V13.3318C38.5649 12.7169 38.0624 12.2173 37.4457 12.2173C36.829 12.2173 36.3265 12.7169 36.3265 13.3318V14.846H35.9453V13.3318C35.9453 12.5074 36.6186 11.8369 37.4465 11.8369C38.2744 11.8369 38.9477 12.5074 38.9477 13.3318V14.846H38.9461Z" fill="white"/>
<path d="M37.5642 15.5521L37.6856 16.1251H37.1709L37.2923 15.5521C37.2195 15.5062 37.1709 15.4272 37.1709 15.3354C37.1709 15.1927 37.2866 15.0791 37.4282 15.0791C37.5699 15.0791 37.6856 15.1927 37.6856 15.3354C37.6856 15.4264 37.637 15.5062 37.5642 15.5521Z" fill="#2B454E"/>
<path d="M32.5303 34.4993H37.445V21.5347" stroke="#FFC800" stroke-width="0.75" stroke-miterlimit="10"/>
<path d="M37.4449 21.6772C37.5204 21.6772 37.5816 21.6162 37.5816 21.541C37.5816 21.4658 37.5204 21.4048 37.4449 21.4048C37.3693 21.4048 37.3081 21.4658 37.3081 21.541C37.3081 21.6162 37.3693 21.6772 37.4449 21.6772Z" fill="#FFC800"/>
<path d="M11.7935 13.8739H2.75146V2.31543H9.4652L11.7935 4.51784V13.8739Z" fill="#ECECEC"/>
<path d="M9.46533 2.31543L11.7936 4.51784H9.46533V2.31543Z" fill="#DCDCDC"/>
<path d="M3.63344 4.55176L8.66064 4.55176V4.2552L3.63344 4.2552V4.55176Z" fill="#DCDCDC"/>
<path d="M3.63344 5.30127L8.66064 5.30127V5.00471L3.63344 5.00471V5.30127Z" fill="#DCDCDC"/>
<path d="M3.63344 6.0498L8.66064 6.0498V5.75325L3.63344 5.75325V6.0498Z" fill="#DCDCDC"/>
<path d="M3.63252 6.79932L10.9985 6.79932V6.50276L3.63252 6.50276V6.79932Z" fill="#DCDCDC"/>
<path d="M3.63252 7.54785L10.9985 7.54785V7.2513L3.63252 7.2513V7.54785Z" fill="#DCDCDC"/>
<path d="M3.63252 8.29639L10.9985 8.29639V7.99983L3.63252 7.99983V8.29639Z" fill="#DCDCDC"/>
<path d="M3.63252 9.04688L10.9985 9.04688V8.75032H3.63252V9.04688Z" fill="#DCDCDC"/>
<path d="M3.63252 9.79541L10.9985 9.79541V9.49885H3.63252V9.79541Z" fill="#DCDCDC"/>
<path d="M3.63252 10.5449L10.9985 10.5449V10.2484H3.63252V10.5449Z" fill="#DCDCDC"/>
<path d="M3.63252 11.2935L10.9985 11.2935V10.9969H3.63252V11.2935Z" fill="#DCDCDC"/>
<path d="M3.63252 12.042L10.9985 12.042V11.7454H3.63252V12.042Z" fill="#DCDCDC"/>
<path d="M3.63252 12.7925L10.9985 12.7925V12.4959H3.63252V12.7925Z" fill="#DCDCDC"/>
<path d="M12.4031 14.924C13.2112 14.5885 13.5933 13.6642 13.2564 12.8594C12.9195 12.0547 11.9912 11.6743 11.183 12.0097C10.3749 12.3452 9.99284 13.2696 10.3297 14.0743C10.6666 14.8791 11.5949 15.2595 12.4031 14.924Z" fill="#1A2E35"/>
<path d="M12.5793 13.0679H11.0068V14.4886H12.5793V13.0679Z" fill="white"/>
<path d="M12.4223 13.5065H12.2621V12.8722C12.2621 12.6144 12.0517 12.4048 11.7927 12.4048C11.5337 12.4048 11.3233 12.6144 11.3233 12.8722V13.5065H11.1631V12.8722C11.1631 12.5273 11.4455 12.2461 11.7919 12.2461C12.1383 12.2461 12.4207 12.5273 12.4207 12.8722V13.5065H12.4223Z" fill="white"/>
<path d="M11.8596 13.7966L11.9252 14.1077H11.646L11.7115 13.7966C11.6719 13.7716 11.646 13.7289 11.646 13.679C11.646 13.6016 11.7083 13.5396 11.786 13.5396C11.8637 13.5396 11.926 13.6008 11.926 13.679C11.926 13.7289 11.8993 13.7716 11.8605 13.7966H11.8596Z" fill="#1A2E35"/>
<path d="M17.9229 19.9162V9.28125H12.6392" stroke="#FFC800" stroke-width="0.75" stroke-miterlimit="10"/>
<path d="M12.6456 9.14502C12.5703 9.14502 12.5088 9.20626 12.5088 9.28121C12.5088 9.35615 12.5703 9.4174 12.6456 9.4174C12.7208 9.4174 12.7823 9.35615 12.7823 9.28121C12.7823 9.20626 12.7208 9.14502 12.6456 9.14502Z" fill="#FFC800"/>
<path d="M17.9229 49.5405V58.8812H23.2066" stroke="#FFC800" stroke-width="0.75" stroke-miterlimit="10"/>
<path d="M23.2002 59.0175C23.2755 59.0175 23.337 58.9563 23.337 58.8813C23.337 58.8064 23.2755 58.7451 23.2002 58.7451C23.125 58.7451 23.0635 58.8064 23.0635 58.8813C23.0635 58.9563 23.125 59.0175 23.2002 59.0175Z" fill="#FFC800"/>
<path d="M35.339 56.9561H24.0796V63.7212H35.339V56.9561Z" fill="#375A64"/>
<path d="M28.1113 57.8071H24.9648V61.8147H28.1113V57.8071Z" fill="white"/>
<path d="M26.5383 60.1528C26.9499 60.1528 27.2837 59.8206 27.2837 59.4106C27.2837 59.0007 26.9499 58.6685 26.5383 58.6685C26.1267 58.6685 25.793 59.0007 25.793 59.4106C25.793 59.8206 26.1267 60.1528 26.5383 60.1528Z" fill="#375A64"/>
<path d="M28.1113 61.8144H24.9648C24.9648 61.8144 25.0506 61.0682 25.2036 60.8449C25.3565 60.6225 25.7628 60.3711 26.5373 60.3711C27.3117 60.3711 27.718 60.6225 27.8709 60.8449C28.0239 61.0674 28.1105 61.8144 28.1105 61.8144H28.1113Z" fill="#375A64"/>
<path d="M34.105 57.8071H28.9248V58.0021H34.105V57.8071Z" fill="white"/>
<path d="M34.105 59.7139H28.9248V59.9089H34.105V59.7139Z" fill="white"/>
<path d="M34.105 60.2739H28.9248V60.4689H34.105V60.2739Z" fill="white"/>
<path d="M34.105 60.8345H28.9248V61.0295H34.105V60.8345Z" fill="white"/>
<path d="M34.105 61.3955H28.9248V61.5905H34.105V61.3955Z" fill="white"/>
<path d="M34.105 61.9556H28.9248V62.1506H34.105V61.9556Z" fill="white"/>
<path d="M33.1201 58.3687H28.9248V58.5637H33.1201V58.3687Z" fill="white"/>
<path d="M35.9485 65.1804C36.7566 64.8449 37.1387 63.9205 36.8018 63.1158C36.4649 62.311 35.5366 61.9306 34.7284 62.2661C33.9203 62.6016 33.5382 63.5259 33.8752 64.3307C34.2121 65.1354 35.1403 65.5158 35.9485 65.1804Z" fill="#1A2E35"/>
<path d="M36.1256 63.3228H34.5532V64.7435H36.1256V63.3228Z" fill="white"/>
<path d="M35.9687 63.7613H35.8085V63.1271C35.8085 62.8693 35.5981 62.6597 35.3391 62.6597C35.0801 62.6597 34.8697 62.8693 34.8697 63.1271V63.7613H34.7095V63.1271C34.7095 62.7822 34.9919 62.501 35.3383 62.501C35.6846 62.501 35.9671 62.7822 35.9671 63.1271V63.7613H35.9687Z" fill="white"/>
<path d="M35.406 64.0505L35.4716 64.3616H35.1924L35.2579 64.0505C35.2183 64.0255 35.1924 63.9828 35.1924 63.9329C35.1924 63.8555 35.2547 63.7935 35.3324 63.7935C35.4101 63.7935 35.4724 63.8547 35.4724 63.9329C35.4724 63.9828 35.4457 64.0255 35.4068 64.0505H35.406Z" fill="#1A2E35"/>
<path d="M74.4224 69.8754C50.7179 69.9245 24.1268 69.9253 0.422363 69.8754C24.1268 69.8254 50.7179 69.8254 74.4224 69.8754Z" fill="#1A2E35"/>
</g>
<defs>
<clipPath id="clip0_7121_35404">
<rect width="74" height="69" fill="white" transform="translate(0.422363 0.912598)"/>
</clipPath>
</defs>
</svg>
