<svg width="99" height="57" viewBox="0 0 99 57" fill="none" xmlns="http://www.w3.org/2000/svg">
<g clip-path="url(#clip0_7121_34196)">
<path d="M53.6995 13.9873L65.2451 20.7791L51.7397 44.5413L40.1929 37.7495L53.6995 13.9873Z" fill="#0A8336"/>
<path d="M52.0535 18.9578L43.6807 33.6907C45.3265 34.6598 45.7816 36.9998 44.7409 38.9847L48.5882 41.2468C49.7078 39.4207 51.7913 38.6448 53.4127 39.4322L61.7938 24.6856C60.2088 23.6485 59.8136 21.2859 60.9296 19.3226L57.0954 17.0674C55.9713 19.0466 53.7319 19.8767 52.0537 18.9583L52.0535 18.9578Z" fill="#B5D772"/>
<path d="M48.6125 27.2986C49.8611 25.0997 52.6278 24.3469 54.7921 25.6194C56.9532 26.8914 57.6919 29.7051 56.442 31.9043C55.1911 34.1045 52.4255 34.856 50.2636 33.5853C48.1008 32.3128 47.3616 29.4983 48.6125 27.2986Z" fill="#0A8336"/>
<path d="M32.9312 16.1202L45.1025 12.9717L51.3653 38.0205L39.1931 41.1698L32.9312 16.1202Z" fill="#0A8336"/>
<path d="M35.0356 20.5704L38.9191 36.1006C40.6549 35.6525 42.4743 36.9248 43.0564 38.9585L47.1113 37.9085C46.685 35.9287 47.5874 34.0119 49.1893 33.4577L45.3023 17.9129C43.5635 18.2744 41.7699 16.9469 41.2524 14.877L37.2104 15.9226C37.7324 18.0085 36.7603 20.0661 35.0356 20.5702V20.5704Z" fill="#B5D772"/>
<path d="M38.1097 28.4934C37.5294 26.1763 38.907 23.8178 41.1883 23.2272C43.4668 22.6381 45.7842 24.0401 46.3638 26.3582C46.9434 28.6779 45.5658 31.0348 43.2872 31.6249C41.007 32.2146 38.6891 30.8126 38.11 28.4932L38.1097 28.4934Z" fill="#0A8336"/>
<path d="M50.9851 49.4127V30.1658C50.9851 27.2172 48.6367 24.8281 45.7394 24.8281H17.5801V54.7501H45.7394C48.6369 54.7501 50.9851 52.3608 50.9851 49.4127Z" fill="#5969B2"/>
<path d="M50.9851 35.5859H34.2822V43.9922H50.9851V35.5859Z" fill="#4B5C9B"/>
<path d="M41.5411 39.7734C41.5411 41.3457 40.288 42.6202 38.7421 42.6202C37.1963 42.6202 35.9434 41.3457 35.9434 39.7734C35.9434 38.2011 37.1978 36.9268 38.7421 36.9268C40.2865 36.9268 41.5411 38.2011 41.5411 39.7734Z" fill="#5969B2"/>
<path d="M19.2866 24.8281H17.5801V54.7501H19.2866V24.8281Z" fill="#4B5C9B"/>
<path d="M21.0264 53.6562V55.5911H21.0547C21.3585 56.1072 24.1848 56.5124 27.6288 56.5124C31.0728 56.5124 33.8986 56.1072 34.2024 55.5911H34.2307V53.6562H21.0264Z" fill="#FFB21B"/>
<path d="M23.4302 53.7163V56.2795C24.0977 56.3648 24.874 56.4298 25.7246 56.4686V53.7166H23.4302V53.7163Z" fill="#FFC91D"/>
<path d="M26.1567 54.1772V56.4859C26.3431 56.4931 26.5325 56.4987 26.7237 56.5018V54.1772H26.1567Z" fill="#FFC91D"/>
<path d="M34.2307 53.6562C34.2307 54.1374 31.2754 54.5289 27.6288 54.5289C23.9822 54.5289 21.0264 54.1376 21.0264 53.6562C21.0264 53.1747 23.983 52.7837 27.6288 52.7837C31.2746 52.7837 34.2307 53.1742 34.2307 53.6562Z" fill="#FFE984"/>
<path d="M32.6304 53.7084C32.6304 54.0737 30.3906 54.3692 27.6287 54.3692C24.8668 54.3692 22.6274 54.0737 22.6274 53.7084C22.6274 53.343 24.8663 53.0479 27.6287 53.0479C30.3911 53.0479 32.6304 53.3436 32.6304 53.7084Z" fill="#FFB21B"/>
<path d="M32.1296 53.7752C32.1296 54.1033 30.1145 54.3692 27.6289 54.3692C25.1433 54.3692 23.1274 54.1033 23.1274 53.7752C23.1274 53.4472 25.1425 53.1792 27.6289 53.1792C30.1152 53.1792 32.1296 53.4461 32.1296 53.7752Z" fill="#FED150"/>
<path d="M22.3359 51.334V53.2691H22.365C22.6683 53.7852 25.4946 54.1901 28.9381 54.1901C32.3816 54.1901 35.2089 53.7852 35.5122 53.2691H35.54V51.334H22.3359Z" fill="#FFB21B"/>
<path d="M24.7393 51.3955V53.9582C25.4067 54.0435 26.1841 54.108 27.0337 54.1478V51.3955H24.7393Z" fill="#FFC91D"/>
<path d="M27.4668 51.8564V54.1643C27.6522 54.1715 27.8416 54.1761 28.0333 54.181V51.8564H27.4668Z" fill="#FFC91D"/>
<path d="M35.5402 51.3339C35.5402 51.8161 32.5847 52.2066 28.9383 52.2066C25.292 52.2066 22.3364 51.8164 22.3364 51.3339C22.3364 50.8514 25.292 50.4614 28.9383 50.4614C32.5847 50.4614 35.5402 50.8517 35.5402 51.3339Z" fill="#FFE984"/>
<path d="M33.9403 51.3861C33.9403 51.7515 31.7009 52.0479 28.938 52.0479C26.1751 52.0479 23.937 51.7515 23.937 51.3861C23.937 51.0208 26.1754 50.7251 28.938 50.7251C31.7006 50.7251 33.9403 51.0216 33.9403 51.3861Z" fill="#FFB21B"/>
<path d="M33.4394 51.4532C33.4394 51.7815 31.4253 52.0482 28.938 52.0482C26.4506 52.0482 24.4365 51.7815 24.4365 51.4532C24.4365 51.1248 26.4524 50.8579 28.938 50.8579C31.4236 50.8579 33.4394 51.1243 33.4394 51.4532Z" fill="#FFC91D"/>
<path d="M19.7783 48.8833V50.8181H19.8061C20.1094 51.3345 22.9357 51.7394 26.3802 51.7394C29.8248 51.7394 32.65 51.3345 32.9544 50.8181H32.9821V48.8833H19.7783Z" fill="#FFB21B"/>
<path d="M22.1807 48.9443V51.5076C22.8482 51.5923 23.6255 51.6576 24.4761 51.6964V48.9443H22.1807Z" fill="#FFC91D"/>
<path d="M24.9082 49.4048V51.7134C25.0946 51.7201 25.283 51.7265 25.4759 51.7293V49.4048H24.9082Z" fill="#FFC91D"/>
<path d="M32.9821 48.8832C32.9821 49.3647 30.0255 49.7557 26.3802 49.7557C22.7349 49.7557 19.7783 49.3647 19.7783 48.8832C19.7783 48.4018 22.7339 48.0107 26.3802 48.0107C30.0265 48.0107 32.9821 48.401 32.9821 48.8832Z" fill="#FFE984"/>
<path d="M31.3814 48.9362C31.3814 49.3015 29.1421 49.5972 26.3802 49.5972C23.6183 49.5972 21.3779 49.3015 21.3779 48.9362C21.3779 48.5708 23.6186 48.2754 26.3802 48.2754C29.1418 48.2754 31.3814 48.5711 31.3814 48.9362Z" fill="#FFB21B"/>
<path d="M30.8816 49.0025C30.8816 49.3309 28.8655 49.597 26.3804 49.597C23.8953 49.597 21.8779 49.3309 21.8779 49.0025C21.8779 48.6742 23.893 48.4067 26.3804 48.4067C28.8678 48.4067 30.8816 48.6737 30.8816 49.0025Z" fill="#FED150"/>
<path d="M21.0877 46.561V48.4959H21.1159C21.4187 49.012 24.246 49.4171 27.6901 49.4171C31.1341 49.4171 33.9599 49.0122 34.2637 48.4959H34.291V46.561H21.0874H21.0877Z" fill="#FFB21B"/>
<path d="M23.4917 46.6226V49.1853C24.1592 49.2703 24.9355 49.3353 25.7861 49.3749V46.6226H23.4917Z" fill="#FFC91D"/>
<path d="M26.2178 47.084V49.3916C26.4042 49.3985 26.5926 49.4037 26.7847 49.4085V47.084H26.2178Z" fill="#FFC91D"/>
<path d="M34.2912 46.5612C34.2912 47.0437 31.3356 47.4339 27.6903 47.4339C24.045 47.4339 21.0879 47.0437 21.0879 46.5612C21.0879 46.0787 24.0435 45.689 27.6903 45.689C31.3371 45.689 34.2912 46.0792 34.2912 46.5612Z" fill="#FFE984"/>
<path d="M32.6907 46.6137C32.6907 46.979 30.4519 47.2755 27.6902 47.2755C24.9286 47.2755 22.688 46.9788 22.688 46.6137C22.688 46.2486 24.9268 45.9526 27.6902 45.9526C30.4536 45.9526 32.6907 46.2489 32.6907 46.6137Z" fill="#FFB21B"/>
<path d="M32.1911 46.68C32.1911 47.0086 30.1758 47.2752 27.6902 47.2752C25.2046 47.2752 23.189 47.0086 23.189 46.68C23.189 46.3514 25.2031 46.085 27.6902 46.085C30.1773 46.085 32.1911 46.3514 32.1911 46.68Z" fill="#FFC91D"/>
<path d="M19.1841 44.019V45.9539H19.2119C19.5162 46.4697 22.3425 46.8752 25.786 46.8752C29.2295 46.8752 32.0558 46.47 32.3596 45.9539H32.3879V44.019H19.1841Z" fill="#FFB21B"/>
<path d="M21.5864 44.0796V46.6428C22.2549 46.7279 23.0313 46.7931 23.8819 46.8316V44.0796H21.5864Z" fill="#FFC91D"/>
<path d="M24.314 44.5405V46.8492C24.5003 46.8563 24.6898 46.8623 24.8817 46.8653V44.5405H24.314Z" fill="#FFC91D"/>
<path d="M32.3879 44.0192C32.3879 44.5004 29.4313 44.8917 25.786 44.8917C22.1407 44.8917 19.1841 44.5004 19.1841 44.0192C19.1841 43.538 22.1392 43.1465 25.786 43.1465C29.4328 43.1465 32.3879 43.537 32.3879 44.0192Z" fill="#FFE984"/>
<path d="M30.7869 44.0717C30.7869 44.437 28.5476 44.7327 25.7859 44.7327C23.0243 44.7327 20.7837 44.437 20.7837 44.0717C20.7837 43.7063 23.0243 43.4111 25.7859 43.4111C28.5476 43.4111 30.7869 43.7068 30.7869 44.0717Z" fill="#FFB21B"/>
<path d="M30.2873 44.138C30.2873 44.4664 28.2717 44.7325 25.7861 44.7325C23.3005 44.7325 21.2847 44.4664 21.2847 44.138C21.2847 43.8097 23.2998 43.542 25.7861 43.542C28.2725 43.542 30.2873 43.8089 30.2873 44.138Z" fill="#FED150"/>
<path d="M20.4934 41.6968V43.6319H20.5217C20.8255 44.148 23.6518 44.5529 27.0953 44.5529C30.5388 44.5529 33.3656 44.148 33.6695 43.6319H33.6977V41.6968H20.4932H20.4934Z" fill="#FFB21B"/>
<path d="M22.8975 41.7583V44.321C23.5644 44.4061 24.3423 44.4713 25.1919 44.5106V41.7583H22.8975Z" fill="#FFC91D"/>
<path d="M25.6235 42.2192V44.5268C25.8099 44.534 25.9988 44.5389 26.1905 44.5438V42.2192H25.6235Z" fill="#FFC91D"/>
<path d="M33.698 41.6967C33.698 42.1789 30.7426 42.5692 27.0956 42.5692C23.4485 42.5692 20.4937 42.1789 20.4937 41.6967C20.4937 41.2145 23.4492 40.8242 27.0956 40.8242C30.7419 40.8242 33.698 41.2145 33.698 41.6967Z" fill="#FFE984"/>
<path d="M32.0965 41.7489C32.0965 42.1143 29.8581 42.4107 27.0953 42.4107C24.3324 42.4107 22.0938 42.1143 22.0938 41.7489C22.0938 41.3836 24.3326 41.0879 27.0953 41.0879C29.8579 41.0879 32.0965 41.3844 32.0965 41.7489Z" fill="#FFB21B"/>
<path d="M31.5969 41.816C31.5969 42.1443 29.5818 42.411 27.0954 42.411C24.6091 42.411 22.5942 42.1443 22.5942 41.816C22.5942 41.4876 24.6098 41.2207 27.0954 41.2207C29.581 41.2207 31.5969 41.4871 31.5969 41.816Z" fill="#FFC91D"/>
<path d="M43.2083 34.8658C43.2083 34.8658 39.9648 33.0677 39.7671 32.4095C38.8804 29.4632 34.5678 28.1473 34.2918 29.0249C34.0799 29.6857 37.6459 34.1351 38.1987 34.6657C38.8796 35.3146 40.7596 36.8086 41.4955 37.2466C42.232 37.6852 43.2086 34.8658 43.2086 34.8658H43.2083Z" fill="#87674B"/>
<path d="M65.7721 24.4881C67.3059 24.4224 70.2183 23.9561 69.7667 26.545C69.2104 29.7369 56.7917 49.0398 52.4771 47.273C48.1638 45.5026 38.1987 34.6652 38.1987 34.6652L41.4619 33.9821L53.599 40.119C53.599 40.119 60.1413 24.7286 65.7724 24.4879L65.7721 24.4881Z" fill="#87674B"/>
<path d="M56.3173 34.2891C57.0932 35.1354 59.0881 36.8634 63.0026 37.7073C64.2406 37.9743 65.4377 37.4933 66.0064 36.5397C67.918 33.3349 72.5156 25.4651 68.147 22.5471C63.1584 19.2155 56.5249 29.501 55.9491 33.2062C55.89 33.5862 56.0261 33.9718 56.3173 34.2888V34.2891Z" fill="#A71449"/>
<path d="M67.1079 4.98285C69.2288 2.4024 76.6106 -2.55475 83.0367 6.5883C84.4454 8.59068 86.0923 12.2198 90.5299 12.8205C93.6597 13.2449 100.923 17.3435 96.3484 26.2802C91.7754 35.2167 98.4645 32.6185 96.2766 39.1012C93.2377 48.1058 75.2218 40.8565 70.0751 31.9611C61.9872 17.9768 63.0691 9.89709 67.1079 4.9831V4.98285Z" fill="#53424D"/>
<path d="M69.2412 20.7641C72.9717 20.5691 78.5714 20.3463 83.0239 21.3999C85.283 21.9346 87.2895 23.204 87.5726 25.546C87.7688 27.1687 87.9138 29.1867 87.9095 31.5937C86.4126 34.1488 85.284 37.1382 84.6784 39.2873C81.5255 50.4797 88.7386 47.8669 87.3602 50.2724C85.3903 53.7099 71.9698 53.4014 64.0491 52.1466C61.4372 51.7327 59.564 50.0073 60.1446 48.7237C64.2733 39.5953 59.7997 38.9351 61.6837 33.4762C61.9928 32.5803 61.2485 31.6986 61.3642 30.7125C61.4534 28.871 62.3113 26.4876 63.1917 24.486C64.2481 22.0838 66.6574 20.8992 69.241 20.7641H69.2412Z" fill="#F1216C"/>
<path d="M67.0297 28.3973C67.0297 28.3973 65.1843 18.2048 61.5521 28.8243C61.5521 28.8243 56.0756 40.4288 66.7309 41.7555C75.4227 42.8379 68.6309 30.5043 68.6309 30.5043L67.0297 28.3971V28.3973Z" fill="#F1216C"/>
<path d="M60.6395 37.8321C62.2768 41.9512 66.6227 41.2545 69.6414 39.1997C69.8452 39.061 69.6538 38.7234 69.4482 38.8631C66.6714 40.7535 62.5377 41.5744 61.009 37.7284C60.9176 37.4989 60.5471 37.5991 60.6398 37.8319L60.6395 37.8321Z" fill="#CC3A49"/>
<path d="M71.5837 39.0452C74.5921 42.0886 78.6624 41.9455 81.4142 38.6848C81.5741 38.4957 81.3044 38.2187 81.1435 38.4094C78.5268 41.51 74.6875 41.6354 71.8547 38.7698C71.6797 38.5928 71.4089 38.8682 71.584 39.0452H71.5837Z" fill="#CC3A49"/>
<path d="M78.6664 21.8376C79.2192 23.6836 77.2874 25.9177 74.3515 26.8274C73.133 27.2051 72.3794 25.2441 71.353 25.0884C69.9064 24.869 68.3583 26.2124 68.0348 25.1326C67.4822 23.2866 69.4139 21.0525 72.3493 20.143C75.2852 19.2333 78.113 19.992 78.6661 21.8379L78.6664 21.8376Z" fill="white"/>
<path d="M75.8746 13.1255C75.8746 13.1255 75.4342 18.5099 77.2465 20.6788C78.4017 22.0635 70.3286 26.1615 70.3155 24.1491C70.2963 21.5656 71.5904 19.8528 69.6826 17.121L75.8746 13.1255Z" fill="#87674B"/>
<path d="M67.7556 6.49594C66.5199 9.33098 65.4915 21.1452 70.9211 21.2782C73.3739 21.3373 77.0442 17.6958 77.9039 12.8538C78.261 10.8627 76.8437 7.4365 74.0679 5.16384C72.8099 4.13259 69.1709 3.18483 67.7556 6.49568V6.49594Z" fill="#87674B"/>
<path d="M66.1968 10.9521C66.4545 12.2863 68.1991 6.94378 69.8634 9.32511C71.6047 11.8179 74.2714 10.0476 76.4474 14.9294C77.9351 18.2567 79.6467 10.7582 79.7696 10.1847C80.1074 8.57219 79.0873 6.62564 76.7092 4.3451C73.1422 0.914785 64.8869 4.27907 66.1966 10.9524L66.1968 10.9521Z" fill="#53424D"/>
<path d="M70.6447 21.2579C70.6447 21.2579 73.5268 20.9229 76.0475 17.5342C76.0475 17.5342 76.0743 17.8671 76.1877 18.2227C76.1877 18.2227 73.4172 21.7956 70.5137 22.1129L70.6445 21.2576L70.6447 21.2579Z" fill="#75543E"/>
<path d="M71.3115 50.5453C72.0699 49.3497 72.6813 51.889 72.7177 52.3055C72.7523 52.7037 72.7978 53.2794 72.5641 53.6278C72.2714 54.0643 71.5825 53.9186 71.5666 53.375C71.5603 53.154 71.2231 53.1677 71.2297 53.3881C71.2471 53.9931 71.7742 54.3572 72.3457 54.1945C73.0008 54.0078 73.0824 53.2106 73.0723 52.6186C73.0599 51.8664 72.9127 50.85 72.3929 50.2702C71.9585 49.7854 71.359 49.8411 71.0122 50.3876C70.8945 50.5731 71.1946 50.7295 71.3115 50.5453Z" fill="#4D4382"/>
<path d="M72.3359 50.3162C73.0943 49.1208 73.7057 51.6599 73.7419 52.0763C73.7765 52.4745 73.8219 53.0503 73.5883 53.3984C73.2954 53.8349 72.6064 53.6895 72.5907 53.1456C72.5844 52.9246 72.2473 52.938 72.2538 53.1587C72.271 53.7637 72.7983 54.1278 73.3699 53.9649C74.025 53.7781 74.1065 52.9812 74.0964 52.389C74.0841 51.637 73.9368 50.6204 73.4171 50.0408C72.9827 49.556 72.3831 49.6115 72.0361 50.1582C71.9184 50.3437 72.2187 50.5001 72.3354 50.3159L72.3359 50.3162Z" fill="#4D4382"/>
<path d="M72.7518 13.9488C72.7922 13.9059 72.7048 13.9917 72.6882 14.0048C72.6164 14.0618 72.5442 14.1155 72.4599 14.1541C72.1374 14.3021 71.9103 14.132 71.7335 13.8728C71.6229 13.7099 71.3787 13.9085 71.4888 14.0706C71.88 14.6456 72.5329 14.6263 73.0039 14.1261C73.1423 13.9791 72.8887 13.8034 72.7516 13.9488H72.7518Z" fill="#201714"/>
<path d="M69.2821 13.9103C69.2293 14.0128 69.1515 14.1148 69.0669 14.1939C68.7899 14.4521 68.5376 14.3114 68.3194 14.058C68.1908 13.9088 67.9453 14.1058 68.0746 14.2559C68.3325 14.5552 68.6888 14.7792 69.0863 14.559C69.3005 14.4403 69.4642 14.2307 69.5738 14.0185C69.6659 13.8402 69.3735 13.7338 69.2823 13.9103H69.2821Z" fill="#201714"/>
<path d="M68.2428 12.341C68.6936 12.07 69.1648 12.183 69.4974 12.589C69.653 12.7788 69.924 12.5124 69.7694 12.3238C69.3297 11.7876 68.663 11.643 68.0594 12.006C67.8508 12.1316 68.0332 12.4669 68.2425 12.341H68.2428Z" fill="#4D2F20"/>
<path d="M71.5083 12.5617C71.8702 12.1763 72.3538 12.1555 72.7821 12.4546C72.9827 12.5943 73.1726 12.2632 72.9736 12.1244C72.4079 11.7293 71.7272 11.7737 71.2428 12.2894C71.0754 12.4677 71.3403 12.7402 71.5083 12.5617Z" fill="#4D2F20"/>
<path d="M70.3019 13.2567C70.4734 13.5622 70.6057 13.9311 70.584 14.2829C70.5524 14.7957 70.0665 15.133 69.8627 15.597C69.5829 16.2344 70.0549 16.4671 70.7469 16.5031C70.9141 16.5118 70.9441 16.2922 70.7772 16.2834C69.2255 16.2028 70.7522 15.0441 70.8355 14.3733C70.8875 13.9543 70.7453 13.5165 70.5408 13.1519C70.4713 13.0278 70.2319 13.1324 70.3016 13.2567H70.3019Z" fill="#56301B"/>
<path d="M71.6594 17.2395C71.6594 17.2395 71.9549 18.2027 71.1563 18.3964C70.3575 18.5899 70.0684 17.7318 70.0684 17.7318L71.6594 17.2393V17.2395Z" fill="#FAFFFF"/>
<path d="M74.013 16.0537C73.9729 16.4624 73.6148 16.761 73.2127 16.7204C72.8109 16.6795 72.5174 16.315 72.5573 15.9062C72.5975 15.4975 72.9556 15.1989 73.3577 15.2395C73.7597 15.2804 74.0529 15.6449 74.013 16.0537Z" fill="#7B5138"/>
<path d="M67.9039 15.7861C68.1572 15.4596 68.6229 15.4038 68.9436 15.6615C69.2646 15.9192 69.3194 16.3929 69.0661 16.7192C68.8128 17.0457 68.3473 17.1015 68.0263 16.8438C67.7054 16.5861 67.6506 16.1124 67.9039 15.7861Z" fill="#7B5138"/>
<path d="M44.3943 44.7045L61.9973 44.5426C63.1578 44.5321 64.2281 45.1782 64.7749 46.2195L68.0999 52.5527C68.626 53.5546 67.9184 54.767 66.8018 54.7768L39.3355 55.0203C38.1841 55.0306 37.4591 53.7625 38.0371 52.7495L41.7267 46.2829C42.2795 45.3144 43.2935 44.7142 44.3943 44.7039V44.7045Z" fill="#FFB21B"/>
<path d="M44.394 44.7042C43.2931 44.7145 42.2791 45.3146 41.7263 46.2832L39.1025 50.882C41.6493 52.2202 44.9554 53.0303 48.5719 53.0303C56.2613 53.0303 62.5548 49.3749 63.0971 44.743C62.7496 44.6133 62.3793 44.539 61.997 44.5426L44.3937 44.7042H44.394Z" fill="#FFC91D"/>
<path d="M60.8729 48.5693C60.9517 48.482 61.078 48.1426 61.078 48.1426C61.078 48.1426 61.2343 48.4686 61.3209 48.5485C61.4068 48.6289 61.7399 48.7579 61.7399 48.7579C61.7399 48.7579 61.4197 48.9164 61.3406 49.0038C61.2621 49.0916 61.1355 49.4305 61.1355 49.4305C61.1355 49.4305 60.9795 49.105 60.8931 49.0246C60.8072 48.9447 60.4741 48.8159 60.4741 48.8159C60.4741 48.8159 60.7941 48.6569 60.8732 48.5693H60.8729Z" fill="#F7F7FC"/>
<path d="M40.5057 51.6909C40.5845 51.6033 40.7108 51.2642 40.7108 51.2642C40.7108 51.2642 40.8671 51.5904 40.9535 51.6701C41.0393 51.7505 41.3727 51.8795 41.3727 51.8795C41.3727 51.8795 41.0525 52.0377 40.9734 52.1253C40.8949 52.2132 40.7684 52.5521 40.7684 52.5521C40.7684 52.5521 40.6123 52.2266 40.5259 52.1461C40.44 52.0662 40.1069 51.9375 40.1069 51.9375C40.1069 51.9375 40.4269 51.7782 40.506 51.6909H40.5057Z" fill="#F7F7FC"/>
<path d="M58.3467 34.265L75.9497 34.1032C77.1102 34.0926 78.1805 34.7388 78.7273 35.78L82.0521 42.1132C82.5782 43.1152 81.8708 44.3276 80.7542 44.3373L53.2877 44.5809C52.1363 44.5911 51.4112 43.323 51.9893 42.31L55.6788 35.8435C56.2314 34.8749 57.2456 34.2748 58.3465 34.2648L58.3467 34.265Z" fill="#FFB21B"/>
<path d="M58.3466 34.2648C57.2457 34.275 56.2317 34.8752 55.6789 35.8437L53.0552 40.4425C55.6019 41.7808 58.908 42.5908 62.5245 42.5908C70.2139 42.5908 76.5075 38.9354 77.0499 34.3035C76.7024 34.1738 76.3322 34.0996 75.9498 34.1032L58.3469 34.2648H58.3466Z" fill="#FFC91D"/>
<path d="M74.8253 38.1299C74.9043 38.0425 75.0306 37.7031 75.0306 37.7031C75.0306 37.7031 75.187 38.0291 75.2733 38.109C75.3592 38.1895 75.6923 38.3184 75.6923 38.3184C75.6923 38.3184 75.3721 38.4769 75.293 38.5643C75.2145 38.6522 75.0879 38.991 75.0879 38.991C75.0879 38.991 74.9319 38.6655 74.8455 38.5851C74.7594 38.5052 74.4263 38.3765 74.4263 38.3765C74.4263 38.3765 74.7463 38.2175 74.825 38.1299H74.8253Z" fill="#F7F7FC"/>
<path d="M54.4583 41.2514C54.5371 41.1638 54.6634 40.8247 54.6634 40.8247C54.6634 40.8247 54.8197 41.1507 54.9064 41.2306C54.9922 41.311 55.3253 41.44 55.3253 41.44C55.3253 41.44 55.0051 41.5983 54.9261 41.6859C54.8475 41.7737 54.721 42.1126 54.721 42.1126C54.721 42.1126 54.5649 41.7871 54.4785 41.7067C54.3924 41.6268 54.0596 41.4981 54.0596 41.4981C54.0596 41.4981 54.3795 41.3388 54.4583 41.2514Z" fill="#F7F7FC"/>
<path d="M74.5394 44.3529L92.1423 44.191C93.3031 44.1805 94.3731 44.8266 94.9199 45.8679L98.245 52.2011C98.771 53.2033 98.0636 54.4154 96.9469 54.4252L69.4805 54.669C68.3292 54.6793 67.6041 53.4112 68.1822 52.3982L71.8717 45.9316C72.4243 44.9631 73.4382 44.3629 74.5394 44.3526V44.3529Z" fill="#FFB21B"/>
<path d="M74.5395 44.3529C73.4386 44.3632 72.4244 44.9631 71.8718 45.9319L69.248 50.5304C71.7948 51.8686 75.1009 52.6789 78.7174 52.6789C86.4068 52.6789 92.7003 49.0236 93.2426 44.3914C92.8953 44.2617 92.5251 44.1877 92.1425 44.191L74.5395 44.3529Z" fill="#FFC91D"/>
<path d="M91.0184 48.2177C91.0972 48.1301 91.2235 47.791 91.2235 47.791C91.2235 47.791 91.3801 48.117 91.4664 48.1967C91.5523 48.2771 91.8854 48.4061 91.8854 48.4061C91.8854 48.4061 91.5652 48.5643 91.4861 48.6519C91.4076 48.7398 91.2811 49.0787 91.2811 49.0787C91.2811 49.0787 91.125 48.7532 91.0386 48.6727C90.9527 48.5928 90.6196 48.4641 90.6196 48.4641C90.6196 48.4641 90.9396 48.3048 91.0184 48.2175V48.2177Z" fill="#F7F7FC"/>
<path d="M70.651 51.3393C70.7298 51.2517 70.8561 50.9126 70.8561 50.9126C70.8561 50.9126 71.0124 51.2389 71.099 51.3185C71.1849 51.3989 71.518 51.5279 71.518 51.5279C71.518 51.5279 71.1978 51.6862 71.1187 51.7738C71.0402 51.8616 70.9136 52.2005 70.9136 52.2005C70.9136 52.2005 70.7576 51.875 70.6712 51.7946C70.5851 51.7147 70.252 51.586 70.252 51.586C70.252 51.586 70.5719 51.4269 70.651 51.3393Z" fill="#F7F7FC"/>
<path d="M74.7672 49.7456C74.7672 49.7456 71.2472 50.8848 70.6433 50.5749C67.9383 49.1886 64.0212 51.4466 64.4533 52.2567C64.7758 52.8694 70.4014 53.327 71.16 53.2879C72.0917 53.2365 74.4528 52.8887 75.2726 52.651C76.0931 52.4134 74.7672 49.7456 74.7672 49.7456Z" fill="#87674B"/>
<path d="M83.0065 25.9902C84.0208 24.8179 85.704 22.3557 87.2299 24.478C89.1112 27.0944 94.2258 49.5698 89.987 51.5177C85.7469 53.462 71.1602 53.2876 71.1602 53.2876L72.9323 50.4178L85.6843 45.7456C85.6843 45.7456 79.2832 30.294 83.0068 25.9902H83.0065Z" fill="#87674B"/>
<path d="M83.1258 39.1506C84.2618 39.2113 86.8769 39.0451 90.2694 36.8867C91.3422 36.2041 91.8754 35.0123 91.6334 33.9243C90.821 30.2679 88.7561 21.3573 83.6208 22.3444C77.7571 23.472 80.0063 35.5585 82.1216 38.6314C82.3386 38.9467 82.6997 39.1278 83.1255 39.1504L83.1258 39.1506Z" fill="#A71449"/>
<path d="M51.3652 0.512695V5.45469L56.6228 2.98369L51.3652 0.512695Z" fill="#FFC91D"/>
<path d="M31.6134 11.4109L26.7192 11.2544L29 16.7207L31.6134 11.4109Z" fill="#FFA60E"/>
</g>
<defs>
<clipPath id="clip0_7121_34196">
<rect width="98" height="56" fill="white" transform="translate(0.422363 0.512695)"/>
</clipPath>
</defs>
</svg>
