<svg width="54" height="66" viewBox="0 0 54 66" fill="none" xmlns="http://www.w3.org/2000/svg">
<g clip-path="url(#clip0_7121_35399)">
<path d="M27.325 65.7998C26.291 65.7998 25.2624 65.4972 24.3618 64.8919L0.822266 49.0874V9.72764C0.822266 7.79972 2.02315 6.03993 3.80779 5.35059C15.2495 0.945519 26.8247 0.799805 27.3084 0.799805H27.3362C27.8254 0.799805 39.395 0.945519 50.8423 5.35059C52.6269 6.03993 53.8278 7.79411 53.8278 9.72764V49.0874L30.2883 64.8919C29.3877 65.4972 28.3536 65.7998 27.325 65.7998ZM4.15805 47.2884L26.2076 62.0953C26.8858 62.5492 27.7587 62.5492 28.437 62.0953L50.4865 47.2884V9.72764C50.4865 9.18401 50.1474 8.68522 49.647 8.49467C38.9558 4.37542 27.7754 4.16806 27.3195 4.16245C26.8636 4.16806 15.6832 4.37542 4.99199 8.49467C4.49162 8.69082 4.15249 9.18401 4.15249 9.72764V47.2884H4.15805Z" fill="#4DAAE3"/>
<path d="M38.3331 24.8985H21.6986C21.6542 24.439 21.6319 24.013 21.6319 23.6319C21.6319 20.4655 24.1838 17.893 27.325 17.893C29.6434 17.893 31.6393 19.2997 32.5232 21.3117C32.7401 21.7993 33.2404 22.0963 33.7742 22.0963C34.7971 22.0963 35.4532 21.0315 35.0306 20.0956C33.6963 17.1476 30.7442 15.0908 27.325 15.0908C22.6549 15.0908 18.8521 18.9242 18.8521 23.6319C18.8521 23.9402 18.8799 24.3773 18.9355 24.8985H17.4288C16.6005 24.8985 15.9277 25.5767 15.9277 26.4117V44.1217C15.9277 44.9567 16.6005 45.6349 17.4288 45.6349H38.3331C39.1615 45.6349 39.8342 44.9567 39.8342 44.1217V26.4117C39.8342 25.5767 39.1615 24.8985 38.3331 24.8985ZM29.5488 37.5085C29.5488 38.4388 28.8038 39.1898 27.8809 39.1898C26.958 39.1898 26.2131 38.4388 26.2131 37.5085V32.4645C26.2131 31.5342 26.958 30.7832 27.8809 30.7832C28.8038 30.7832 29.5488 31.5342 29.5488 32.4645V37.5085Z" fill="url(#paint0_radial_7121_35399)"/>
</g>
<defs>
<radialGradient id="paint0_radial_7121_35399" cx="0" cy="0" r="1" gradientUnits="userSpaceOnUse" gradientTransform="translate(27.8809 30.3628) scale(23.1503 23.3368)">
<stop stop-color="#94CCEE"/>
<stop offset="1" stop-color="#4DAAE3"/>
</radialGradient>
<clipPath id="clip0_7121_35399">
<rect width="53" height="65" fill="white" transform="translate(0.822266 0.799805)"/>
</clipPath>
</defs>
</svg>
