<svg width="17" height="9" viewBox="0 0 17 9" fill="none" xmlns="http://www.w3.org/2000/svg">
<path d="M4.76898 1.78949C5.19343 1.38233 5.19618 0.719677 4.77512 0.309455C4.56342 0.103219 4.2849 -1.11159e-06 4.00637 -1.13594e-06C3.73059 -1.16005e-06 3.45482 0.101175 3.24376 0.303527L0.799624 2.64713C0.284024 3.14157 4.54641e-07 3.79952 3.93404e-07 4.49998C3.32167e-07 5.20045 0.284024 5.8584 0.799624 6.35283L3.24375 8.69644C3.66821 9.10339 4.35384 9.10094 4.77512 8.69051C5.19618 8.28029 5.19343 7.61763 4.76898 7.21068L3.03354 5.54649L15.9172 5.54649C16.5153 5.54649 17 5.07802 17 4.49998C17 3.92195 16.5153 3.45348 15.9172 3.45348L3.03354 3.45347L4.76898 1.78949Z" fill="white"/>
</svg>
