<svg width="61" height="59" viewBox="0 0 61 59" fill="none" xmlns="http://www.w3.org/2000/svg">
<g clip-path="url(#clip0_7121_34127)">
<path d="M34.8152 43.3946C34.0467 41.2688 33.2296 38.0122 33.9484 34.3443C34.7739 30.1325 36.8699 29.2276 38.6339 24.6972C41.1516 18.2301 37.9259 13.708 40.6805 11.6674C42.0236 10.6723 44.1834 10.602 45.5453 11.5138C49.4308 14.1152 48.7662 26.0119 42.8858 30.8354C40.2263 33.0169 37.8398 32.845 35.8801 35.6201C34.1486 38.0724 34.3906 41.2261 34.8154 43.3944L34.8152 43.3946Z" fill="url(#paint0_linear_7121_34127)"/>
<mask id="mask0_7121_34127" style="mask-type:luminance" maskUnits="userSpaceOnUse" x="33" y="10" width="15" height="34">
<path d="M34.8152 43.3946C34.0467 41.2688 33.2296 38.0122 33.9484 34.3443C34.7739 30.1325 36.8699 29.2276 38.6339 24.6972C41.1516 18.2301 37.9259 13.708 40.6805 11.6674C42.0236 10.6723 44.1834 10.602 45.5453 11.5138C49.4308 14.1152 48.7662 26.0119 42.8858 30.8354C40.2263 33.0169 37.8398 32.845 35.8801 35.6201C34.1486 38.0724 34.3906 41.2261 34.8154 43.3944L34.8152 43.3946Z" fill="white"/>
</mask>
<g mask="url(#mask0_7121_34127)">
<g style="mix-blend-mode:soft-light">
<path d="M34.217 38.0035L34.147 37.9879C34.3475 37.073 34.6276 36.1716 34.9793 35.3082C35.7885 33.3225 36.7145 32.2165 37.8865 30.8163C38.6478 29.907 39.5107 28.8762 40.4985 27.4075C42.346 24.6601 42.9156 23.6981 43.4033 22.1651C44.3689 19.1292 44.1204 16.443 43.8865 15.1121C43.5545 13.2241 42.8649 11.4394 41.8368 9.80775L41.8974 9.76904C42.9305 11.4088 43.6235 13.2022 43.9571 15.0996C44.1923 16.4372 44.442 19.1365 43.4717 22.187C42.9814 23.7287 42.41 24.6938 40.5581 27.4478C39.5683 28.9198 38.7041 29.952 37.9417 30.8627C36.7735 32.2581 35.8507 33.36 35.046 35.3354C34.6956 36.1949 34.417 37.0925 34.2172 38.0033L34.217 38.0035Z" fill="white"/>
<path d="M43.9213 20.0423L43.9183 19.9829C43.8094 17.7747 42.3605 16.3897 41.1644 15.6165C39.8657 14.777 38.5773 14.4576 38.5645 14.4544L38.5814 14.3843C38.5943 14.3875 39.8945 14.7098 41.2032 15.5557C42.4026 16.3309 43.8529 17.7151 43.9868 19.9185C44.2133 19.774 45.1584 19.1327 45.9927 18.0023C46.8692 16.8147 47.7994 14.8281 47.2534 12.1079L47.3236 12.0938C47.8751 14.8415 46.9346 16.8481 46.0487 18.0479C45.0891 19.3472 43.9836 20.006 43.9725 20.0125L43.9216 20.0425L43.9213 20.0423Z" fill="white"/>
<path d="M43.6029 27.1507C42.1437 27.1507 41.049 26.7 41.0293 26.6916L41.0015 26.6799L41.0082 26.6503C41.5049 24.4611 40.9629 22.8779 40.4206 21.9353C39.8335 20.9147 39.1218 20.4056 39.1147 20.4005L39.1558 20.3413C39.1631 20.3464 39.8877 20.8648 40.4827 21.899C41.0287 22.8485 41.5749 24.4398 41.0849 26.6361C41.4233 26.7683 44.7549 27.9798 47.4531 25.7229L47.4988 25.7784C46.2143 26.853 44.7882 27.1507 43.6029 27.1507Z" fill="white"/>
<path d="M41.179 31.3909C40.6188 31.3909 40.1493 31.322 39.7752 31.2323C38.7302 30.9818 38.1828 30.5181 38.1776 30.5134L38.158 30.4966L38.1675 30.4725C39.0532 28.2381 37.6045 24.6738 37.5898 24.6379L37.6561 24.6104C37.6708 24.6462 39.1198 28.2115 38.2438 30.4743C38.4691 30.6498 40.6001 32.1791 44.4397 30.6255L44.4665 30.6924C43.162 31.2203 42.0588 31.3907 41.1788 31.3907L41.179 31.3909Z" fill="white"/>
</g>
</g>
<path d="M28.0555 48.0452C27.6637 46.0564 27.3758 42.94 28.9038 40.0954C31.5697 35.1329 36.7623 36.5836 41.5176 31.2059C45.353 26.8686 43.9984 23.6371 48.3075 20.6978C49.0287 20.206 52.8366 17.5038 55.7787 18.9628C57.4365 19.785 58.084 21.5614 58.2056 21.895C60.0431 26.9355 55.1412 35.0774 48.538 38.9414C44.7441 41.1617 43.4769 40.5168 36.7609 43.1798C32.8146 44.7446 29.8761 46.6906 28.0553 48.045L28.0555 48.0452Z" fill="#35A936"/>
<g style="mix-blend-mode:soft-light">
<path d="M27.5511 50.4687L27.4805 50.4561C28.317 45.6456 30.0897 42.3746 32.7494 40.734C34.0513 39.931 35.1033 39.7766 36.2171 39.6135C37.4151 39.4377 38.6537 39.2562 40.2628 38.2045C41.8269 37.1825 42.3689 36.2293 43.0552 35.0227C43.6726 33.9374 44.4407 32.5866 46.2032 30.7638C47.7481 29.166 48.8859 28.405 49.8898 27.7334C50.9772 27.006 51.8362 26.4312 52.8082 25.0604C54.3962 22.8211 55.1732 19.9903 55.118 16.6467L55.1897 16.6455C55.2453 20.0049 54.4637 22.8501 52.8666 25.1024C51.8867 26.4841 51.0229 27.0619 49.9295 27.7936C48.9286 28.4632 47.7942 29.222 46.2546 30.8143C44.4983 32.6306 43.7326 33.9769 43.1175 35.0587C42.4263 36.2739 41.8804 37.2337 40.3019 38.2653C38.6795 39.3257 37.433 39.5083 36.2274 39.6852C35.1212 39.8473 34.0762 40.0005 32.7868 40.7958C30.1456 42.425 28.3841 45.6795 27.5511 50.4689V50.4687Z" fill="white"/>
<path d="M49.4249 28.0935L49.4384 28.0471C49.4581 27.9798 51.3787 21.2775 48.8638 18.6136L48.9157 18.564C49.6502 19.342 50.4652 20.9761 50.1763 24.3426C50.0199 26.1664 49.5999 27.735 49.5201 28.0212C53.1346 28.0031 55.776 26.5413 57.358 25.3152C59.0804 23.98 59.9535 22.6284 59.9619 22.6151L60.0223 22.654C60.0137 22.6675 59.1356 24.0278 57.4041 25.3705C55.806 26.6096 53.1328 28.0879 49.4726 28.0933H49.4247L49.4249 28.0935Z" fill="white"/>
<path d="M49.8173 33.7377C49.4532 33.7377 49.1083 33.7253 48.786 33.7044C46.2529 33.5409 44.5161 32.8364 44.4988 32.8293L44.4702 32.8176L44.4775 32.7874C45.3167 29.2983 44.3231 24.4037 44.313 24.3546L44.3833 24.3398C44.3933 24.3889 45.3843 29.2709 44.5546 32.7738C44.7898 32.8652 46.4484 33.4815 48.7932 33.6325C51.1195 33.7825 54.617 33.4914 58.0666 31.2558L58.1055 31.3164C55.1166 33.2533 52.0924 33.7375 49.8173 33.7375V33.7377Z" fill="white"/>
<path d="M46.8518 41.9071C40.8303 41.9071 37.3146 39.5261 37.2776 39.5006L37.2466 39.4791L37.2695 39.4489C39.7764 36.1597 38.5919 30.895 38.5799 30.8421L38.6497 30.8257C38.662 30.8786 39.8467 36.1434 37.3499 39.4619C37.7381 39.7148 41.6602 42.1486 48.1007 41.8011L48.1045 41.8732C47.6761 41.8963 47.2581 41.9071 46.8522 41.9071H46.8518Z" fill="white"/>
</g>
<path d="M25.5322 48.0759C26.6114 47.2412 28.3828 46.0264 30.7872 45.0803C35.0639 43.3976 37.0751 44.2443 38.848 42.3448C40.683 40.3783 39.3956 38.5411 41.5975 36.3404C41.7827 36.1553 44.1487 33.8512 46.3795 34.609C47.9401 35.1392 48.5965 36.8831 48.9046 37.7015C50.1001 40.8774 49.6197 45.7907 46.293 48.3135C43.1389 50.7053 39.0193 49.7463 37.711 49.4326C35.4159 48.8822 34.8483 48.0068 32.5172 47.5168C29.6823 46.9207 27.1701 47.5107 25.5322 48.0759Z" fill="url(#paint1_linear_7121_34127)"/>
<path d="M58.562 51.7371L2.34521 51.248V52.6953C2.34521 53.0881 2.59045 53.4221 2.92246 53.4816L18.819 56.3315C19.0076 56.3654 19.1989 56.3743 19.3894 56.3583L57.9511 53.1089C58.2954 53.0799 58.562 52.7449 58.562 52.3412V51.7371Z" fill="#BFC8D6"/>
<path d="M37.8743 49.4179L2.14399 52.0655C1.50453 52.1129 0.984863 51.6095 0.984863 50.9409V24.1586C0.984863 23.4902 1.50473 22.9482 2.14399 22.9482H37.8743C38.401 22.9482 38.8268 23.4381 38.8268 24.0424V48.2531C38.8268 48.8575 38.401 49.3789 37.8743 49.4179Z" fill="#BFC8D6"/>
<path d="M38.4438 49.4179L2.71352 52.0655C2.07406 52.1129 1.5542 51.6095 1.5542 50.9409V24.1586C1.5542 23.4902 2.07406 22.9482 2.71352 22.9482H38.4438C38.9705 22.9482 39.3964 23.4381 39.3964 24.0424V48.2531C39.3964 48.8575 38.9705 49.3789 38.4438 49.4179Z" fill="white"/>
<path d="M37.3309 47.7108L4.05197 50.0107C3.5317 50.0466 3.10889 49.6335 3.10889 49.0878V25.6397C3.10889 25.0939 3.5317 24.6497 4.05197 24.6474L37.3309 24.5029C37.7654 24.5011 38.117 24.9024 38.117 25.3995V46.7565C38.117 47.2536 37.7654 47.6808 37.3309 47.7108Z" fill="#D8DEE8"/>
<path d="M21.8405 23.6808C21.8405 23.9297 21.6566 24.1319 21.4295 24.1327C21.2022 24.1335 21.0176 23.9319 21.0176 23.6824C21.0176 23.4329 21.202 23.2307 21.4295 23.2305C21.6566 23.2305 21.8405 23.4319 21.8405 23.6808Z" fill="white"/>
<g style="mix-blend-mode:soft-light" opacity="0.48">
<path d="M2.71361 52.0653L38.2631 49.431L38.4439 49.4177C38.6855 49.3998 38.9054 49.2794 39.0733 49.097C36.515 48.9562 34.9263 48.0424 33.9012 47.0981C31.8429 45.202 32.1999 43.332 29.9801 42.0854C27.2114 40.5303 25.0345 42.5009 22.9337 40.5567C21.6601 39.378 22.2854 38.499 20.7182 36.7378C18.9824 34.787 17.8523 35.4428 16.1077 33.6871C13.902 31.4671 15.0051 29.7398 13.1051 28.1458C10.8001 26.2122 8.31413 28.0019 6.12011 26.1475C5.1738 25.3476 4.65434 24.1849 4.38334 22.9482H2.71401C2.07455 22.9482 1.55469 23.4902 1.55469 24.1586V50.9409C1.55469 51.6093 2.07435 52.1127 2.71381 52.0655L2.71361 52.0653Z" fill="white"/>
</g>
<path d="M40.1274 49.2708L2.34521 52.0576L18.819 55.0111C19.0076 55.0449 19.1989 55.0538 19.3894 55.0378L58.5622 51.737L40.7286 49.2898C40.529 49.2625 40.3279 49.2562 40.1276 49.271L40.1274 49.2708Z" fill="url(#paint2_linear_7121_34127)"/>
<path d="M7.8584 52.0816L39.3132 49.7271L49.0481 51.0521L17.8643 53.5692L7.8584 52.0816Z" fill="#D8DEE8"/>
<g style="mix-blend-mode:multiply" opacity="0.3">
<path d="M26.8198 31.8846C25.7416 28.4006 22.2751 26.3889 19.0768 27.3915C15.8785 28.3943 14.1598 32.0315 15.2378 35.5156C16.316 38.9996 19.7825 41.0113 22.9808 40.0087C26.1791 39.0059 27.8977 35.3686 26.8198 31.8846ZM21.8064 36.1386L21.8283 37.0893L20.9207 37.1103L20.9001 36.2247C20.279 36.2113 19.6731 36.0577 19.3166 35.8607L19.5692 34.7637C19.9633 34.9688 20.5141 35.152 21.1162 35.1378C21.6441 35.1254 22.0005 34.9118 21.9918 34.5389C21.9835 34.1847 21.6821 33.9678 20.9915 33.7507C19.9929 33.4384 19.3061 32.9881 19.2852 32.0838C19.2662 31.2636 19.8256 30.607 20.8119 30.3879L20.7916 29.5023L21.6992 29.4812L21.7182 30.3016C22.3393 30.3149 22.7591 30.4357 23.0682 30.5776L22.8239 31.6373C22.5807 31.5405 22.1498 31.336 21.483 31.3516C20.881 31.3656 20.6927 31.6313 20.6988 31.8923C20.7058 32.1999 21.0346 32.388 21.8285 32.6679C22.9397 33.0337 23.3959 33.5359 23.4153 34.3748C23.4344 35.2045 22.8674 35.9266 21.8066 36.1381L21.8064 36.1386Z" fill="#97A6B7"/>
</g>
<g style="mix-blend-mode:multiply" opacity="0.3">
<path d="M27.3465 44.671C27.3465 45.1118 27 45.4888 26.5583 45.5133L15.6202 46.1185C15.0991 46.1472 14.665 45.7792 14.665 45.296V43.4737C14.665 42.9905 15.1038 42.586 15.6248 42.57L26.5514 42.2348C26.9932 42.2212 27.3465 42.5675 27.3465 43.0083V44.671Z" fill="#97A6B7"/>
</g>
<path d="M42.7198 24.6458C42.7198 31.9952 37.0103 37.7769 29.7131 37.5513C22.1189 37.3166 15.7319 30.7148 15.7319 22.8145C15.7319 14.9141 22.1189 9.17909 29.7131 9.97516C37.0103 10.74 42.7198 17.2965 42.7198 24.646V24.6458Z" fill="url(#paint3_linear_7121_34127)"/>
<path d="M44.6919 24.0121C44.6919 31.3616 38.9825 37.1433 31.6853 36.9177C24.0911 36.683 17.7041 30.081 17.7041 22.1808C17.7041 14.2807 24.0911 8.54546 31.6853 9.34133C38.9825 10.1062 44.6919 16.6626 44.6919 24.0121Z" fill="url(#paint4_linear_7121_34127)"/>
<path d="M44.1187 23.9733C44.1187 30.9992 38.6559 36.517 31.6848 36.2896C24.4432 36.0535 18.3633 29.753 18.3633 22.2256C18.3633 14.6981 24.4434 9.2227 31.6848 9.96952C38.6559 10.6884 44.1187 16.9475 44.1187 23.9733Z" fill="url(#paint5_linear_7121_34127)"/>
<path d="M43.7088 23.9456C43.7088 30.7398 38.4228 36.0689 31.6853 35.8411C24.6954 35.6048 18.8335 29.5198 18.8335 22.2576C18.8335 14.9955 24.6952 9.70591 31.6853 10.4183C38.423 11.1051 43.7088 17.1515 43.7088 23.9456Z" fill="url(#paint6_linear_7121_34127)"/>
<path d="M31.6161 12.7293C31.9746 12.7635 32.2648 13.0886 32.2648 13.455V14.7059C32.9818 14.7866 33.6995 14.912 34.4185 15.082C34.9487 15.2075 35.4752 15.3567 35.9983 15.5297C36.3115 15.6335 36.5252 15.9519 36.4932 16.2804L36.3405 17.849C36.3001 18.2651 35.8913 18.5095 35.5066 18.3369C35.1621 18.1822 34.8089 18.0497 34.4469 17.9394C33.8153 17.7471 33.1491 17.6216 32.448 17.5635L32.2648 17.5483V21.1308C34.1352 21.6575 35.5088 22.3661 36.3963 23.2574C37.2798 24.1445 37.7199 25.2498 37.7199 26.5769C37.7199 28.0119 37.2333 29.1613 36.2562 30.0279C35.2738 30.8991 33.8967 31.3892 32.1156 31.4954V32.8761C32.1156 33.2427 31.8252 33.5285 31.4663 33.5141L31.4548 33.5137C31.0952 33.4993 30.8032 33.1894 30.8032 32.8214V31.4595L30.5141 31.4463C29.6791 31.4084 28.8794 31.3227 28.1153 31.1889C27.5494 31.0898 26.9969 30.9619 26.4577 30.8053C26.1315 30.7104 25.9078 30.3977 25.9376 30.0619L26.1172 28.0456C26.1561 27.6096 26.591 27.3561 27.0027 27.5195C27.4827 27.71 27.9688 27.8707 28.4606 28.0012C29.2271 28.2047 30.0041 28.3352 30.7914 28.3931L30.8028 24.4081C29.0075 23.961 27.6633 23.2987 26.7802 22.4214C25.8929 21.54 25.4478 20.412 25.4478 19.0405C25.4478 17.6691 25.9306 16.5256 26.8922 15.7567C27.8492 14.9916 29.2094 14.611 30.9643 14.6121V13.3332C30.9643 12.9654 31.2561 12.6952 31.6152 12.7295L31.6161 12.7293ZM30.9651 17.5114C30.4102 17.5521 29.9775 17.7053 29.6679 17.9719C29.3576 18.2386 29.2024 18.5973 29.2024 19.0472C29.2024 19.4736 29.3459 19.8299 29.633 20.1159C29.9196 20.4014 30.3639 20.6294 30.9651 20.7999V17.5114ZM32.1158 24.7273V28.3816C32.719 28.3828 33.1815 28.2379 33.5044 27.9471C33.8268 27.6569 33.9877 27.2469 33.9877 26.7169C33.9877 26.2337 33.8381 25.8329 33.5385 25.5141C33.2385 25.1949 32.7647 24.9326 32.1158 24.7271V24.7273Z" fill="url(#paint7_linear_7121_34127)"/>
<path style="mix-blend-mode:multiply" opacity="0.3" d="M29.5094 25.6091C29.9157 21.5706 33.6031 19.8609 33.1219 16.1458C32.8253 13.8561 31.1012 11.9265 29.178 10.4199C23.3446 11.0356 18.8335 15.8978 18.8335 22.2572C18.8335 29.5194 24.6952 35.6046 31.6853 35.8407C32.3641 35.8636 33.0269 35.8282 33.6714 35.7431C30.8953 32.9625 29.1605 29.0786 29.5094 25.6089V25.6091Z" fill="url(#paint8_linear_7121_34127)"/>
<path d="M42.0942 15.5574V15.6148C41.5954 14.9291 40.7021 13.9768 40.1671 13.4254C40.1571 13.401 40.1404 13.3765 40.1305 13.3522C39.8319 12.6315 39.4292 11.8513 38.9035 11.0724C38.3812 10.2915 37.7176 9.52262 36.9439 8.81491C36.8512 8.72311 36.7441 8.64204 36.6451 8.5553C36.5945 8.51294 36.5434 8.46916 36.492 8.42701L36.4169 8.36256C36.3906 8.34108 36.3634 8.32162 36.337 8.30095C36.2309 8.21988 36.1246 8.13821 36.0177 8.05573L35.938 7.99412L35.854 7.93676C35.7984 7.89805 35.7428 7.85934 35.6873 7.82124C35.4678 7.66134 35.2312 7.52292 35.0005 7.37659C34.8829 7.30566 34.7597 7.2404 34.6401 7.17291C34.5809 7.13927 34.5203 7.10482 34.4599 7.07178C34.3979 7.04098 34.3353 7.00936 34.2741 6.97856C33.2853 6.47594 32.2065 6.11236 31.1001 5.91213C30.962 5.88923 30.8237 5.86612 30.6839 5.84322C30.545 5.82397 30.4039 5.8116 30.2658 5.79519L30.0564 5.77148L29.8462 5.75992L29.636 5.74695C29.5661 5.74331 29.497 5.73621 29.4266 5.73763C29.2868 5.73682 29.1473 5.7354 29.007 5.73479C28.9727 5.73479 28.9357 5.73256 28.9037 5.73479L28.8103 5.73986L28.6236 5.74999L28.4384 5.75932C28.4221 5.76013 28.4106 5.76013 28.3892 5.76155L28.199 5.77593L27.9447 5.79377L27.7544 5.80816L27.7224 5.81039L27.7109 5.8112C27.7109 5.8112 27.6447 5.8112 27.7558 5.81343L27.3447 5.87443C27.277 5.88517 27.2086 5.89166 27.1409 5.90665L26.9394 5.94759L26.7378 5.98772L26.6374 6.00778C26.604 6.01427 26.5711 6.0242 26.5383 6.0321C26.4064 6.06575 26.2748 6.09878 26.1437 6.13323C26.0774 6.14762 26.0134 6.17053 25.9492 6.18998L25.7569 6.25098L25.5646 6.30915L25.3766 6.37866C25.2511 6.42609 25.1257 6.46763 25.0039 6.51769C24.8829 6.56937 24.7611 6.62105 24.6405 6.67334C23.6823 7.10218 22.8209 7.65647 22.0879 8.2898L21.9497 8.40593L21.8187 8.52996C21.7317 8.61164 21.6419 8.68987 21.5593 8.77377C21.5557 8.77661 21.5529 8.78086 21.5495 8.7839C21.3884 8.95171 21.2253 9.10939 21.0808 9.28307C21.0423 9.32543 21.0044 9.36839 20.9674 9.41136L20.9104 9.47439L20.8577 9.54188C20.7872 9.62943 20.7173 9.71759 20.6475 9.80433C20.6303 9.82581 20.6118 9.84669 20.5947 9.86878L20.547 9.93626C20.5142 9.98146 20.4822 10.0267 20.4501 10.0704C20.3875 10.1608 20.3191 10.2439 20.2627 10.3371C19.7867 11.0542 19.4241 11.7714 19.1777 12.4556C18.929 13.1384 18.7816 13.7786 18.6969 14.3445C18.6876 14.4154 18.6783 14.4851 18.6691 14.5538C18.6612 14.6219 18.6477 14.6886 18.6449 14.7553C18.6342 14.8886 18.6236 15.0155 18.6129 15.1367C18.6059 15.2601 18.6059 15.3785 18.6008 15.4895C18.5986 15.5455 18.5952 15.6 18.5944 15.6523C18.5966 15.706 18.598 15.7585 18.5986 15.8085C18.6 15.9096 18.6014 16.0051 18.6028 16.0939C18.6022 16.119 18.6065 16.132 18.6079 16.149C18.6101 16.1654 18.6121 16.182 18.6143 16.1978C18.6171 16.2295 18.6214 16.225 18.6244 16.2538C18.6266 16.2781 18.6294 16.2896 18.6314 16.2896H23.3215L20.4717 19.4701L13.8467 26.7632L4.37061 16.2896H9.3528C9.35985 16.2896 9.3677 16.2035 9.37556 16.1362C9.39488 15.9907 9.41542 15.8486 9.43817 15.6758C9.45106 15.5896 9.46233 15.5094 9.47602 15.417C9.48307 15.3718 9.48951 15.3288 9.49676 15.2814C9.50321 15.2348 9.50965 15.1845 9.51891 15.1438C9.55374 14.9703 9.59019 14.7873 9.62864 14.5923C9.64938 14.4954 9.66931 14.3965 9.69065 14.2948C9.71341 14.1931 9.74059 14.0897 9.76757 13.9835C9.82173 13.7719 9.87448 13.5496 9.93992 13.3208C10.0098 13.0934 10.0825 12.8575 10.1572 12.6123C10.1936 12.4888 10.2413 12.3677 10.2854 12.2422C10.3303 12.1188 10.3766 11.9919 10.4235 11.8628C10.8103 10.841 11.3382 9.72792 12.0443 8.60921C12.7476 7.48988 13.643 6.37461 14.7061 5.34061C14.8349 5.20786 14.9775 5.08667 15.115 4.9598C15.1849 4.89738 15.2539 4.83435 15.3238 4.77112L15.4299 4.67647L15.5382 4.58608C15.6842 4.46631 15.8318 4.34511 15.9786 4.22392L16.0897 4.13353L16.2051 4.04739C16.2828 3.98923 16.3597 3.93187 16.4374 3.87452C16.7416 3.64004 17.0686 3.42845 17.3936 3.21038C17.5575 3.10419 17.727 3.00529 17.8959 2.90274C17.9793 2.85248 18.064 2.80242 18.1488 2.75074C18.2358 2.70331 18.3226 2.65609 18.4096 2.60867C19.796 1.84421 21.3278 1.26398 22.9178 0.917014C23.1165 0.877494 23.3168 0.837366 23.5162 0.798049C23.7157 0.760759 23.9187 0.73502 24.1196 0.704012L24.4216 0.661047L24.7258 0.63085L25.0293 0.601463C25.1305 0.59214 25.2308 0.580588 25.3327 0.577143C25.535 0.56782 25.738 0.543501 25.9411 0.534178C25.9911 0.531949 26.0422 0.512695 26.0929 0.512695H26.2454L26.5482 0.529922L26.851 0.540055C26.9521 0.540055 27.0533 0.553634 27.1538 0.558701L27.7558 0.59518C27.8925 0.59741 27.8027 0.598828 27.8378 0.599436L27.8535 0.601666L27.8855 0.605314L27.9481 0.613826L28.075 0.629634L28.3272 0.66125L28.4541 0.677058L28.5167 0.684962L28.5944 0.695703L28.9135 0.743127L29.2327 0.791969L29.3909 0.8171C29.4429 0.825612 29.4892 0.837164 29.5391 0.847297C29.7336 0.888844 29.9281 0.931201 30.1226 0.972139C30.2194 0.991595 30.3149 1.01956 30.4105 1.04449L30.6976 1.1213L30.9825 1.19811L31.264 1.28769C31.4506 1.34869 31.6381 1.40605 31.8211 1.47191C32.0041 1.54082 32.1859 1.60952 32.3676 1.67843C33.8088 2.25502 35.1239 3.02454 36.2547 3.92012C36.3259 3.97525 36.3964 4.03118 36.4669 4.08651C36.5359 4.14386 36.6038 4.20203 36.6714 4.2608C36.8067 4.37693 36.9428 4.4888 37.0733 4.60797C37.3304 4.85117 37.5869 5.08423 37.8213 5.33655C37.8811 5.39816 37.9395 5.46059 37.9995 5.52159L38.0871 5.6134L38.1712 5.70885C38.283 5.83653 38.3935 5.9634 38.5024 6.08885L38.5844 6.1835L38.6627 6.28098C38.7132 6.34624 38.7654 6.41069 38.8159 6.47534C38.917 6.60504 39.0233 6.72847 39.1145 6.86263C39.631 7.56467 40.0685 8.27602 40.4305 8.97745C40.6073 9.31813 40.7647 9.65719 40.9036 9.9922C41.3333 11.0149 41.6089 11.9881 41.7827 12.8551C41.802 12.9641 41.8226 13.0709 41.8419 13.1763C41.8604 13.2811 41.8826 13.3836 41.8946 13.4862C41.9216 13.6905 41.9488 13.8862 41.9738 14.0749C41.9951 14.2642 42.0066 14.4464 42.0223 14.6193C42.0287 14.7054 42.0372 14.7893 42.0422 14.8724C42.045 14.9541 42.0622 15.0345 42.0658 15.1134C42.07 15.2696 42.095 15.4196 42.095 15.558L42.0942 15.5574Z" fill="url(#paint9_linear_7121_34127)"/>
<path style="mix-blend-mode:multiply" opacity="0.4" d="M42.094 15.5576V15.615C41.5953 14.9293 40.7019 13.977 40.167 13.4256C40.1569 13.4012 40.1402 13.3767 40.1303 13.3524C39.8317 12.6317 39.4291 11.8515 38.9034 11.0726C38.3811 10.2917 37.7174 9.52283 36.9437 8.81512C36.8511 8.72331 36.744 8.64224 36.6449 8.5555C36.5944 8.51314 36.5432 8.46937 36.4919 8.42721L36.4168 8.36277C36.3904 8.34128 36.3632 8.32183 36.3368 8.30116C36.2307 8.22009 36.1244 8.13841 36.0175 8.05593L35.9378 7.99432L35.8538 7.93696C35.7983 7.89826 35.7427 7.85955 35.6871 7.82144C35.4677 7.66154 35.2311 7.52312 35.0003 7.3768C34.8828 7.30586 34.7595 7.2406 34.6399 7.17312C34.5807 7.13947 34.5201 7.10502 34.4597 7.07199C34.3977 7.04118 34.3351 7.00956 34.2739 6.97876C33.2851 6.47615 32.2063 6.11256 31.1 5.91233C30.9618 5.88943 30.8235 5.86633 30.6838 5.84342C30.5449 5.82417 30.4037 5.81181 30.2656 5.79539L30.0562 5.77168L29.846 5.76013L29.6358 5.74716C29.5659 5.74351 29.4969 5.73642 29.4264 5.73783C29.2867 5.73702 29.1471 5.73561 29.0068 5.735C28.9726 5.735 28.9355 5.73277 28.9035 5.735L28.8101 5.74006L28.6235 5.7502L28.4382 5.75952C28.4219 5.76033 28.4104 5.76033 28.3891 5.76175L28.1988 5.77614L27.9445 5.79397L27.7543 5.80836L27.7222 5.81059L27.7108 5.8114C27.7108 5.8114 27.6445 5.8114 27.7557 5.81363L27.3445 5.87463C27.2769 5.88538 27.2084 5.89186 27.1408 5.90686L26.9392 5.9478L26.7377 5.98793L26.6372 6.00799C26.6038 6.01447 26.571 6.0244 26.5382 6.03231C26.4063 6.06595 26.2746 6.09899 26.1435 6.13344C26.0773 6.14783 26.0133 6.17073 25.949 6.19019L25.7568 6.25119L25.5645 6.30935L25.3764 6.37887C25.251 6.42629 25.1255 6.46784 25.0037 6.5179C24.8827 6.56958 24.7609 6.62126 24.6403 6.67354C23.6821 7.10239 22.8208 7.65668 22.0877 8.29001L21.9496 8.40614L21.8185 8.53017C21.7315 8.61184 21.6417 8.69007 21.5592 8.77398C21.5556 8.77681 21.5527 8.78107 21.5493 8.78411C23.6545 6.16019 27.0651 4.45557 30.9137 4.45557C34.7624 4.45557 38.3402 6.2447 40.4305 8.97786C40.6073 9.31854 40.7648 9.6576 40.9037 9.99261C41.3333 11.0153 41.609 11.9885 41.7827 12.8555C41.8021 12.9645 41.8226 13.0713 41.8419 13.1767C41.8605 13.2815 41.8826 13.384 41.8947 13.4866C41.9217 13.6909 41.9488 13.8866 41.9738 14.0753C41.9952 14.2646 42.0066 14.4468 42.0223 14.6197C42.0288 14.7058 42.0372 14.7897 42.0423 14.8728C42.0451 14.9545 42.0622 15.0349 42.0658 15.1138C42.07 15.27 42.095 15.42 42.095 15.5584L42.094 15.5576Z" fill="url(#paint10_linear_7121_34127)"/>
<path d="M13.8813 29.8352C13.7766 29.7505 13.6379 29.6123 13.5584 29.4068C13.4732 29.1863 13.5332 29.0882 13.4263 28.9506C13.2908 28.7761 13.0133 28.7009 12.8233 28.7862C12.7832 28.8043 12.7343 28.8294 12.7037 28.8815C12.6191 29.0252 12.8068 29.2743 12.9568 29.4068C13.0695 29.5065 13.1162 29.4992 13.2356 29.5841C13.3524 29.667 13.4992 29.8099 13.6174 30.0717L13.8815 29.8352H13.8813Z" fill="url(#paint11_linear_7121_34127)"/>
<path d="M7.60791 28.6287C7.73717 28.5919 7.91838 28.5191 8.0714 28.361C8.23529 28.1916 8.21818 28.0777 8.36979 27.9928C8.56227 27.8852 8.84677 27.9251 8.98871 28.0783C9.01871 28.1105 9.05395 28.1529 9.062 28.2131C9.08415 28.3787 8.81475 28.5341 8.62549 28.5973C8.48294 28.645 8.44287 28.6198 8.29992 28.651C8.16039 28.6814 7.96972 28.7554 7.75952 28.9502L7.60791 28.6287Z" fill="url(#paint12_linear_7121_34127)"/>
<path d="M8.20761 28.8338C8.29097 29.233 7.86211 29.5883 7.55285 29.9371C6.93231 30.6367 6.28278 31.8849 6.52137 32.9562C6.65164 33.5413 7.06923 34.174 7.65875 34.4739C8.29338 34.7968 8.67351 34.5031 9.33371 34.8864C9.38244 34.9145 10.2172 35.4129 10.2414 36.0851C10.2714 36.9145 9.05989 37.7969 8.02278 37.8643C6.12614 37.9878 3.84111 35.4492 3.94742 32.93C4.0634 30.1876 6.9909 28.0107 7.83312 28.3798C7.9658 28.4379 8.1607 28.6092 8.20761 28.8338Z" fill="#F1216C"/>
<path d="M9.05156 57.231L9.11961 57.9257L8.79807 57.8671L8.58203 57.2144L9.05156 57.231Z" fill="url(#paint13_linear_7121_34127)"/>
<path d="M7.09277 44.3931C7.1262 45.6269 7.27901 46.6826 7.46022 47.5447C7.65512 48.4719 7.76868 48.6322 7.82948 49.2735C7.96176 50.6688 7.51499 50.8685 7.43304 52.4456C7.34244 54.1871 7.8025 55.5711 7.98331 56.0991C8.14136 56.5605 8.30686 56.9334 8.43129 57.1922C8.58995 57.3315 8.83237 57.278 9.08807 57.2257C9.1823 55.6461 9.29968 54.1598 9.39391 52.5802C9.69773 50.2041 10.0016 47.8281 10.3054 45.4518C9.23444 45.099 8.16371 44.7461 7.09277 44.3933V44.3931Z" fill="url(#paint14_linear_7121_34127)"/>
<path style="mix-blend-mode:multiply" opacity="0.3" d="M9.08807 57.2255C9.1823 55.6459 9.29968 54.1595 9.39391 52.58C9.69773 50.2039 10.0016 47.8279 10.3054 45.4516C9.23444 45.0988 8.16371 44.7459 7.09277 44.3931C7.09499 44.4747 7.09902 44.5536 7.10224 44.6338C8.60465 45.9471 8.89861 46.9874 8.88391 47.6971C8.86619 48.5579 8.39847 48.9845 8.48988 50.2323C8.55512 51.1244 8.82169 51.2817 8.82149 52.0869C8.82149 53.1237 8.37935 53.7066 8.16391 54.3057C7.95593 54.8847 7.88183 55.7049 8.28371 56.8714C8.33646 56.9918 8.38639 57.0996 8.43089 57.1922C8.58955 57.3315 8.83196 57.278 9.08767 57.2257L9.08807 57.2255Z" fill="url(#paint15_linear_7121_34127)"/>
<path d="M8.93083 58.1632C8.77862 57.9733 8.63889 57.9872 8.61352 57.8583C8.59359 57.7572 8.65741 57.635 8.75083 57.59C8.88211 57.527 9.03734 57.6332 9.07238 57.6573C9.31056 57.8204 9.23949 58.0663 9.46479 58.1784C9.51009 58.2009 9.58237 58.2254 9.65727 58.2991C9.68908 58.3306 9.76801 58.4082 9.74808 58.4601C9.72492 58.5201 9.58137 58.515 9.44506 58.5099C9.28137 58.504 9.19942 58.5012 9.1217 58.4499C9.01399 58.379 9.04821 58.3095 8.93063 58.163L8.93083 58.1632Z" fill="url(#paint16_linear_7121_34127)"/>
<path d="M9.25411 52.2189L8.65291 52.4558L8.47754 52.1781L8.94767 51.8604L9.25411 52.2189Z" fill="url(#paint17_linear_7121_34127)"/>
<path d="M8.33619 52.6028C8.37163 52.3614 8.26653 52.2676 8.34324 52.1614C8.40364 52.0779 8.53612 52.0424 8.63216 52.081C8.76726 52.1353 8.79485 52.3221 8.80129 52.3643C8.84377 52.6511 8.61605 52.7654 8.68733 53.0079C8.70163 53.0568 8.73263 53.1267 8.72981 53.2323C8.72861 53.2771 8.72538 53.3882 8.67384 53.4086C8.61444 53.4323 8.52082 53.3227 8.43183 53.2183C8.32512 53.0933 8.27156 53.0306 8.25626 52.9384C8.23492 52.8106 8.30881 52.7889 8.33619 52.6026V52.6028Z" fill="url(#paint18_linear_7121_34127)"/>
<path d="M11.8551 43.2959C12.9752 45.5947 13.3553 47.5116 13.4993 48.7632C13.5917 49.568 13.5828 50.0658 13.3525 50.5659C12.528 52.3561 9.65024 52.4744 9.21272 52.4868C9.06897 52.1903 8.92501 51.8936 8.78125 51.5971C9.04601 51.1028 9.50809 50.4166 10.2992 49.9158C10.9076 49.5307 11.1454 49.613 11.2974 49.3542C11.9069 48.3157 8.61696 46.0669 9.10843 44.5699C9.27836 44.052 9.93292 43.5267 11.8553 43.2959H11.8551Z" fill="url(#paint19_linear_7121_34127)"/>
<path d="M9.42834 35.0326C10.6386 35.2418 11.5599 35.4596 11.9713 36.0976C12.4058 36.7715 11.715 37.2788 11.5271 38.7574C11.2396 41.0212 12.5326 41.8667 12.1606 44.1461C12.0997 44.518 12.0077 44.8491 11.9085 45.1319C11.7341 45.629 11.3957 46.0475 10.9523 46.328C10.6199 46.5384 10.2156 46.7502 9.74123 46.9172C8.51405 47.3492 7.90862 47.0981 6.25762 47.193C3.55702 47.3482 3.15253 48.1368 1.9324 47.652C0.69918 47.162 -0.193368 45.838 0.0681751 45.2721C0.224819 44.9333 0.718911 45.1448 1.42763 44.729C2.34092 44.1929 2.1875 43.4611 2.92843 42.8334C3.99273 41.9318 5.01655 42.8423 5.92701 42.0584C6.84775 41.2654 6.95768 39.3366 6.56627 38.1885C6.31057 37.4387 6.30594 36.6231 6.11607 35.8536C6.10037 35.7898 6.08789 35.6876 6.12735 35.5721C6.27836 35.1299 7.08231 35.045 7.68996 34.9866C8.61674 34.8974 9.32868 35.0154 9.42834 35.0326Z" fill="#F1216C"/>
<g style="mix-blend-mode:multiply" opacity="0.3">
<path d="M2.07371 46.7938C2.4476 46.5429 2.24505 45.832 2.79894 45.4546C3.31297 45.1042 3.71384 45.5624 4.47129 45.3288C5.44296 45.0288 5.39202 44.0874 6.32323 43.7869C6.99269 43.5708 7.19483 44.0009 8.16047 44.0195C9.12449 44.0382 10.3885 43.6377 11.1886 42.609C11.5287 42.1718 11.7188 41.7055 11.8221 41.2744C12.0798 42.1126 12.3598 42.9231 12.1601 44.1466C12.0794 44.6417 11.9427 45.0645 11.8082 45.397C11.6825 45.7073 11.4705 45.9736 11.1973 46.1652C10.8254 46.4256 10.3388 46.7073 9.7408 46.9179C8.51362 47.3499 7.90819 47.0988 6.25719 47.1937C3.55659 47.3489 3.15209 48.1375 1.93196 47.6527C1.14391 47.3396 0.4966 46.6862 0.199219 46.1072C1.26653 46.8887 1.8023 46.9762 2.07371 46.7942V46.7938Z" fill="#A71449"/>
</g>
<path d="M10.1273 32.924C10.1273 32.924 10.4607 33.5543 10.4818 33.9965C10.503 34.4388 10.0071 34.4065 10.0071 34.4065L10.0256 34.6854C10.0415 34.9235 10.1951 35.1301 10.4176 35.2123L10.6133 35.2847C10.6133 35.2847 9.33641 35.5599 8.63916 35.064L8.8401 35.0441C9.12459 35.0162 9.3501 34.79 9.37909 34.5038L9.39117 34.3844C9.39117 34.3844 9.1697 33.0061 10.1271 32.9238L10.1273 32.924Z" fill="url(#paint20_linear_7121_34127)"/>
<path d="M13.272 29.9602C13.0826 30.3208 13.3974 30.7812 13.5992 31.2024C14.0039 32.0471 14.2864 33.4273 13.7635 34.3907C13.478 34.917 12.9032 35.4093 12.2542 35.534C11.5558 35.6681 11.2709 35.2802 10.5314 35.4655C10.4768 35.479 9.53793 35.7263 9.33035 36.3657C9.07444 37.1547 9.99699 38.3391 10.9753 38.6919C12.7644 39.3372 15.6567 37.5312 16.2446 35.0802C16.8847 32.4119 14.6671 29.5069 13.7564 29.6277C13.6131 29.6467 13.3787 29.7572 13.272 29.96V29.9602Z" fill="#F1216C"/>
<path d="M9.92792 33.5507C9.86188 33.5453 9.80732 33.461 9.76221 33.4861C9.7147 33.5122 9.72013 33.635 9.76121 33.7214C9.79503 33.7921 9.8502 33.832 9.88081 33.8507C9.82987 33.9216 9.76483 34.0321 9.73785 34.1764C9.67805 34.4958 9.84678 34.7527 9.91685 34.9031C10.2332 35.5808 9.74107 36.6525 9.20108 37.1937C8.76215 37.6334 8.55739 37.4567 8.29544 37.8158C7.78544 38.515 8.48933 39.2835 8.22558 40.2247C7.8245 41.6558 5.57975 42.0816 5.48653 42.098C5.44988 42.1045 5.42532 42.1085 5.38706 42.1146C4.37995 42.2757 2.85378 42.5197 1.77882 41.6878C0.974661 41.0654 0.605803 39.9819 0.666608 39.0276C0.682514 38.7765 0.758218 37.8237 1.52956 37.0461C1.65197 36.9227 2.377 36.1935 3.35653 36.1846C3.87539 36.1799 3.98009 36.3639 4.37673 36.25C4.91995 36.0942 5.25458 35.5971 5.46216 35.2888C5.84411 34.7215 5.68887 34.6003 5.9635 34.3215C6.50189 33.7749 7.1333 34.2041 7.70833 33.7218C8.27511 33.2463 7.93323 32.6012 8.48027 32.1896C9.04463 31.7652 10.1242 31.9134 10.3544 32.4188C10.5521 32.8532 10.1299 33.5676 9.92752 33.5507H9.92792Z" fill="url(#paint21_linear_7121_34127)"/>
</g>
<defs>
<linearGradient id="paint0_linear_7121_34127" x1="59.4588" y1="7.51336" x2="9.35391" y2="53.0817" gradientUnits="userSpaceOnUse">
<stop stop-color="#FABD1F"/>
<stop offset="1" stop-color="#D39F2D"/>
</linearGradient>
<linearGradient id="paint1_linear_7121_34127" x1="68.8636" y1="17.8542" x2="18.7586" y2="63.4225" gradientUnits="userSpaceOnUse">
<stop stop-color="#FABD1F"/>
<stop offset="1" stop-color="#D39F2D"/>
</linearGradient>
<linearGradient id="paint2_linear_7121_34127" x1="2.34542" y1="52.1543" x2="58.5622" y2="52.1543" gradientUnits="userSpaceOnUse">
<stop offset="0.49" stop-color="#EBEFF2"/>
<stop offset="1" stop-color="white"/>
</linearGradient>
<linearGradient id="paint3_linear_7121_34127" x1="24.6008" y1="25.2205" x2="8.84258" y2="30.2449" gradientUnits="userSpaceOnUse">
<stop stop-color="#FCB148"/>
<stop offset="0.05" stop-color="#FDB946"/>
<stop offset="0.14" stop-color="#FEC144"/>
<stop offset="0.32" stop-color="#FFC444"/>
<stop offset="0.48" stop-color="#FDB946"/>
<stop offset="0.78" stop-color="#F99C4C"/>
<stop offset="0.87" stop-color="#F8924F"/>
<stop offset="1" stop-color="#F8924F"/>
</linearGradient>
<linearGradient id="paint4_linear_7121_34127" x1="37.3331" y1="9.45098" x2="23.1288" y2="40.5836" gradientUnits="userSpaceOnUse">
<stop stop-color="#FFDB44"/>
<stop offset="1" stop-color="#FEEF06"/>
</linearGradient>
<linearGradient id="paint5_linear_7121_34127" x1="34.7481" y1="42.3977" x2="32.0022" y2="27.4958" gradientUnits="userSpaceOnUse">
<stop stop-color="#FCB148"/>
<stop offset="0.05" stop-color="#FDB946"/>
<stop offset="0.14" stop-color="#FEC144"/>
<stop offset="0.32" stop-color="#FFC444"/>
<stop offset="0.48" stop-color="#FDB946"/>
<stop offset="0.78" stop-color="#F99C4C"/>
<stop offset="0.87" stop-color="#F8924F"/>
<stop offset="1" stop-color="#F8924F"/>
</linearGradient>
<linearGradient id="paint6_linear_7121_34127" x1="29" y1="18.2671" x2="40.2935" y2="42.0841" gradientUnits="userSpaceOnUse">
<stop stop-color="#FCB148"/>
<stop offset="0.05" stop-color="#FDB946"/>
<stop offset="0.14" stop-color="#FEC144"/>
<stop offset="0.32" stop-color="#FFC444"/>
<stop offset="0.48" stop-color="#FDB946"/>
<stop offset="0.78" stop-color="#F99C4C"/>
<stop offset="0.87" stop-color="#F8924F"/>
<stop offset="1" stop-color="#F8924F"/>
</linearGradient>
<linearGradient id="paint7_linear_7121_34127" x1="28.5549" y1="13.1294" x2="34.2421" y2="34.3052" gradientUnits="userSpaceOnUse">
<stop stop-color="#FFDB44"/>
<stop offset="1" stop-color="#FEEF06"/>
</linearGradient>
<linearGradient id="paint8_linear_7121_34127" x1="25.7131" y1="19.8119" x2="36.9836" y2="43.5809" gradientUnits="userSpaceOnUse">
<stop stop-color="#FCB148"/>
<stop offset="0.05" stop-color="#FDB946"/>
<stop offset="0.14" stop-color="#FEC144"/>
<stop offset="0.32" stop-color="#FFC444"/>
<stop offset="0.48" stop-color="#FDB946"/>
<stop offset="0.78" stop-color="#F99C4C"/>
<stop offset="0.87" stop-color="#F8924F"/>
<stop offset="1" stop-color="#F8924F"/>
</linearGradient>
<linearGradient id="paint9_linear_7121_34127" x1="43.8543" y1="-3.19326" x2="6.10165" y2="29.7387" gradientUnits="userSpaceOnUse">
<stop stop-color="#A1B854"/>
<stop offset="1" stop-color="#297F50"/>
</linearGradient>
<linearGradient id="paint10_linear_7121_34127" x1="29.8681" y1="14.8939" x2="36.6506" y2="5.65919" gradientUnits="userSpaceOnUse">
<stop stop-color="#6165D7"/>
<stop offset="1" stop-color="#AA80F9"/>
</linearGradient>
<linearGradient id="paint11_linear_7121_34127" x1="13.3306" y1="29.1048" x2="13.0133" y2="30.9423" gradientUnits="userSpaceOnUse">
<stop stop-color="#FFC444"/>
<stop offset="1" stop-color="#F36F56"/>
</linearGradient>
<linearGradient id="paint12_linear_7121_34127" x1="8.39888" y1="28.1734" x2="7.96917" y2="29.9875" gradientUnits="userSpaceOnUse">
<stop stop-color="#FFC444"/>
<stop offset="1" stop-color="#F36F56"/>
</linearGradient>
<linearGradient id="paint13_linear_7121_34127" x1="8.80582" y1="58.7799" x2="9.04667" y2="51.9957" gradientUnits="userSpaceOnUse">
<stop stop-color="#FFC444"/>
<stop offset="1" stop-color="#F36F56"/>
</linearGradient>
<linearGradient id="paint14_linear_7121_34127" x1="8.6334" y1="45.7234" x2="7.63667" y2="58.1263" gradientUnits="userSpaceOnUse">
<stop stop-color="#311944"/>
<stop offset="1" stop-color="#893976"/>
</linearGradient>
<linearGradient id="paint15_linear_7121_34127" x1="8.6334" y1="45.7234" x2="7.63667" y2="58.1263" gradientUnits="userSpaceOnUse">
<stop stop-color="#311944"/>
<stop offset="1" stop-color="#893976"/>
</linearGradient>
<linearGradient id="paint16_linear_7121_34127" x1="9.36163" y1="58.835" x2="8.35288" y2="55.0557" gradientUnits="userSpaceOnUse">
<stop stop-color="#FF9085"/>
<stop offset="1" stop-color="#FB6FBB"/>
</linearGradient>
<linearGradient id="paint17_linear_7121_34127" x1="8.04032" y1="52.9149" x2="12.5969" y2="49.0212" gradientUnits="userSpaceOnUse">
<stop stop-color="#FFC444"/>
<stop offset="1" stop-color="#F36F56"/>
</linearGradient>
<linearGradient id="paint18_linear_7121_34127" x1="8.14004" y1="53.3804" x2="10.2443" y2="50.0898" gradientUnits="userSpaceOnUse">
<stop stop-color="#FF9085"/>
<stop offset="1" stop-color="#FB6FBB"/>
</linearGradient>
<linearGradient id="paint19_linear_7121_34127" x1="4.04227" y1="48.1891" x2="15.5537" y2="47.6692" gradientUnits="userSpaceOnUse">
<stop stop-color="#311944"/>
<stop offset="1" stop-color="#893976"/>
</linearGradient>
<linearGradient id="paint20_linear_7121_34127" x1="10.389" y1="33.8107" x2="9.01691" y2="35.8512" gradientUnits="userSpaceOnUse">
<stop stop-color="#FFC444"/>
<stop offset="1" stop-color="#F36F56"/>
</linearGradient>
<linearGradient id="paint21_linear_7121_34127" x1="2.9372" y1="42.3304" x2="8.58812" y2="31.3596" gradientUnits="userSpaceOnUse">
<stop stop-color="#444B8C"/>
<stop offset="1" stop-color="#26264F"/>
</linearGradient>
<clipPath id="clip0_7121_34127">
<rect width="60" height="58" fill="white" transform="translate(0.0224609 0.512695)"/>
</clipPath>
</defs>
</svg>
