<svg width="17" height="9" viewBox="0 0 17 9" fill="none" xmlns="http://www.w3.org/2000/svg">
<path d="M12.231 7.21051C11.8066 7.61767 11.8038 8.28032 12.2249 8.69054C12.4366 8.89678 12.7151 9 12.9936 9C13.2694 9 13.5452 8.89882 13.7562 8.69647L16.2004 6.35287C16.716 5.85843 17 5.20048 17 4.50002C17 3.79955 16.716 3.1416 16.2004 2.64717L13.7562 0.303562C13.3318 -0.103391 12.6462 -0.100938 12.2249 0.309489C11.8038 0.719712 11.8066 1.38236 12.231 1.78932L13.9665 3.45351H1.0828C0.484723 3.45351 0 3.92198 0 4.50002C0 5.07805 0.484723 5.54652 1.0828 5.54652H13.9665L12.231 7.21051Z" fill="white"/>
</svg>
