<svg width="59" height="63" viewBox="0 0 59 63" fill="none" xmlns="http://www.w3.org/2000/svg">
<g clip-path="url(#clip0_7121_34531)">
<path d="M8.1216 3.5107L6.74129 4.29725C6.74804 4.23652 6.75292 4.17616 6.75292 4.11691V3.72215C6.75292 3.01967 6.25317 2.73489 5.63712 3.08632C5.38762 3.22852 5.15801 3.45405 4.97191 3.71771C4.87099 2.83451 4.16902 2.5053 3.31622 2.99152C2.39401 3.517 1.64664 4.79496 1.64664 5.84554V6.43619C1.64664 6.70837 1.69767 6.9376 1.78809 7.12016L0.641518 7.7734C0.299723 7.96819 0.0224609 8.44219 0.0224609 8.83176C0.0224609 9.22133 0.299723 9.37946 0.641518 9.18467L8.12198 4.92198C8.46377 4.72719 8.74103 4.25319 8.74103 3.86361C8.74103 3.47404 8.46377 3.31592 8.12198 3.5107H8.1216Z" fill="#ECECEC"/>
<path d="M15.2706 6.77493L14.2287 7.36855C14.234 7.32263 14.2374 7.27708 14.2374 7.23227V6.93454C14.2374 6.40425 13.8603 6.18946 13.3951 6.45461C13.2067 6.562 13.0334 6.73198 12.8931 6.93121C12.8169 6.26464 12.2871 6.01616 11.6433 6.38314C10.9474 6.77975 10.3834 7.74405 10.3834 8.53726V8.98275C10.3834 9.18828 10.4221 9.36121 10.49 9.49897L9.62482 9.99223C9.36669 10.1392 9.15771 10.497 9.15771 10.791C9.15771 11.085 9.36669 11.2043 9.62482 11.0573L15.2702 7.84033C15.5284 7.69331 15.7374 7.33559 15.7374 7.04156C15.7374 6.74753 15.5284 6.62829 15.2702 6.7753L15.2706 6.77493Z" fill="#ECECEC"/>
<path d="M25.9615 48.7608L31.2092 45.7661C31.7499 45.458 32.0204 45.054 32.0207 44.6499C32.0207 44.2459 32.023 43.9293 32.023 43.9293L26.5783 40.899C26.2898 40.7346 26.056 40.3347 26.056 40.0058V33.6201L16.8906 38.8479V45.2336C16.8906 45.5624 17.124 45.9623 17.4125 46.1264L22.0438 48.7604C23.1258 49.377 24.8798 49.377 25.9615 48.7604V48.7608Z" fill="#1A2E35"/>
<path d="M19.0908 46.3647V47.082L17.411 46.1266C17.1244 45.9629 16.8892 45.5641 16.8892 45.2338V38.8488L18.6353 37.8545C18.6713 38.2922 18.7107 38.7444 18.7467 39.185L17.5225 39.8846V44.8734C17.5225 45.2038 17.7547 45.6026 18.0444 45.7663L19.0908 46.3647Z" fill="black"/>
<path d="M17.5219 44.8746C17.5219 45.2034 17.7556 45.6034 18.0441 45.7674L22.0425 48.0408C23.1241 48.6574 24.8785 48.6574 25.9605 48.0412L31.2105 45.0468C32.2926 44.4306 32.2926 43.4311 31.2105 42.8145L27.2095 40.5397C26.921 40.3753 26.6873 39.9753 26.6873 39.6468V34.6572L17.5215 39.8846V44.8746H17.5219Z" fill="#2B454E"/>
<path d="M28.2741 41.1466V41.1459L27.21 40.5397C26.9215 40.3753 26.6878 39.9753 26.6878 39.6468V34.6572L17.522 39.8846V44.8746C17.522 45.2034 17.7557 45.6034 18.0442 45.7674L19.0899 46.3633L28.2741 41.1466Z" fill="#1A2E35"/>
<path d="M32.0214 43.9297V44.6499C32.0214 45.0547 31.7501 45.4565 31.2102 45.7661L25.9617 48.759C25.4428 49.0567 24.7705 49.2056 24.0918 49.2174V48.5001C24.7705 48.4912 25.4428 48.3364 25.9617 48.0417L31.2102 45.0458C31.7501 44.7392 32.0214 44.3344 32.0214 43.9297Z" fill="#375A64"/>
<path d="M2.80578 51.0762C3.14419 51.2688 3.71073 51.2588 4.07128 51.0533C8.57726 48.4855 35.0121 33.4218 39.5173 30.8544C39.8779 30.6489 40.1702 30.1493 40.1702 29.7383V1.34402C40.1702 0.932973 39.8959 0.443786 39.5575 0.250852C39.2191 0.0582884 38.6525 0.0682869 38.292 0.273812L2.84667 20.4726C2.48612 20.6782 2.19385 21.1781 2.19385 21.5888V49.9831C2.19347 50.3941 2.46773 50.8837 2.80578 51.0762Z" fill="#375A64"/>
<path d="M4.07139 51.0527L39.5175 30.8539C39.878 30.6484 40.1703 30.1488 40.1703 29.7378V1.34349C40.1703 0.932443 39.878 0.765801 39.5175 0.971326L4.07177 21.1702C3.71122 21.3757 3.41895 21.8752 3.41895 22.2863V50.6806C3.41857 51.0916 3.71084 51.2583 4.07139 51.0527Z" fill="#00DFBF"/>
<path d="M4.07139 51.0527L39.5175 30.8539C39.878 30.6484 40.1703 30.1488 40.1703 29.7378V1.34349C40.1703 0.932443 39.878 0.765801 39.5175 0.971326L4.07177 21.1702C3.71122 21.3757 3.41895 21.8752 3.41895 22.2863V50.6806C3.41857 51.0916 3.71084 51.2583 4.07139 51.0527Z" fill="#2B454E"/>
<path d="M3.97538 51.7879C3.6137 51.9457 3.11283 51.9397 2.80517 51.7642C2.46751 51.5705 2.19287 51.0825 2.19287 50.6688V48.0918L3.41748 48.7913V51.3683C3.41748 51.7435 3.65872 51.9131 3.97538 51.7879Z" fill="#1A2E35"/>
<path d="M3.41748 48.7916L3.41861 51.3675C3.41861 51.7786 3.71088 51.9452 4.07143 51.7397L39.5175 31.5409C39.8781 31.3353 40.1703 30.8354 40.1703 30.4247V27.8433L3.41748 48.7916Z" fill="#2B454E"/>
<path opacity="0.2" d="M3.41846 48.7861V51.3675C3.41846 51.7786 3.71073 51.9452 4.07128 51.7397L39.5174 31.5409C39.8779 31.3353 40.1702 30.8354 40.1702 30.4247V27.8433L3.41846 48.7861Z" fill="black"/>
<path d="M4.64307 45.5582V22.6876C4.64307 22.4409 4.81865 22.141 5.03514 22.0177L38.5527 2.91756C38.7692 2.79425 38.9444 2.89423 38.9444 3.14086L38.9456 26.0123C38.9456 26.2589 38.7704 26.5588 38.5539 26.6822L5.03476 45.7815C4.81828 45.9049 4.64307 45.8049 4.64307 45.5582Z" fill="url(#paint0_linear_7121_34531)"/>
<path opacity="0.3" d="M4.62549 45.5582V22.6876C4.62549 22.4409 4.80108 22.141 5.01756 22.0177L38.5352 2.91756C38.7517 2.79425 38.9269 2.89423 38.9269 3.14086L38.928 26.0123C38.928 26.2589 38.7528 26.5588 38.5363 26.6822L5.01718 45.7815C4.8007 45.9049 4.62549 45.8049 4.62549 45.5582Z" fill="url(#paint1_linear_7121_34531)"/>
<path d="M21.7943 39.1371C21.4559 39.3301 21.1816 39.7989 21.1816 40.1844C21.1816 40.5699 21.4559 40.7261 21.7943 40.5336C22.1327 40.3406 22.407 39.8718 22.407 39.4863C22.407 39.1008 22.1327 38.9446 21.7943 39.1371Z" fill="#375A64"/>
<path d="M3.61032 21.6482C3.49289 21.8508 3.42048 22.08 3.41748 22.2852V48.7908L2.19287 48.0913V21.5886C2.19287 21.3831 2.26828 21.1539 2.38572 20.9517L3.61032 21.6482Z" fill="#1A2E35"/>
<path d="M45.1063 1.20886C45.0211 1.1585 44.9045 1.15998 44.7731 1.23478L9.44601 21.3725C9.19313 21.5166 8.98828 21.8669 8.98828 22.1546V45.6626C8.98828 45.8381 9.06444 45.9933 9.18113 46.0551C9.25579 46.0947 9.64898 46.3206 9.76567 46.3825C9.84033 46.4221 9.93187 46.4236 10.0309 46.3673L45.3573 26.2218C45.6102 26.0781 45.8154 25.7282 45.8154 25.4404V1.82284C45.8154 1.67434 45.761 1.5714 45.6736 1.52622C45.5914 1.48363 45.1907 1.25885 45.1063 1.20886Z" fill="url(#paint2_linear_7121_34531)"/>
<path d="M9.87994 46.3927C9.71823 46.3927 9.5918 46.2161 9.5918 45.9902V22.4826C9.5918 22.2011 9.7929 21.8571 10.0398 21.7164L45.3669 1.57829C45.4359 1.53904 45.5016 1.51904 45.562 1.51904C45.7065 1.51904 45.7965 1.63532 45.7965 1.82307V25.4407C45.7965 25.7221 45.5954 26.0658 45.3478 26.2061L10.0214 46.3516C9.97336 46.379 9.92571 46.3927 9.87957 46.3927H9.87994Z" fill="#FAFAFA"/>
<path d="M45.5621 1.53752C45.6953 1.53752 45.7778 1.64676 45.7778 1.82303V25.4406C45.7778 25.7165 45.5809 26.0524 45.3385 26.1901L10.0125 46.3353C9.96707 46.3608 9.9228 46.3742 9.88003 46.3742C9.72883 46.3742 9.61065 46.2057 9.61065 45.9902V22.4825C9.61065 22.2067 9.80762 21.8704 10.0496 21.7323L45.3764 1.59418C45.4417 1.55715 45.5058 1.53752 45.5621 1.53752ZM45.5621 1.50049C45.5006 1.50049 45.4312 1.52049 45.3576 1.56233L10.0305 21.7001C9.77761 21.8441 9.57275 22.1944 9.57275 22.4822V45.9898C9.57275 46.2175 9.70107 46.4108 9.87966 46.4108C9.92693 46.4108 9.97796 46.3971 10.0309 46.3671L45.3572 26.2216C45.6101 26.0779 45.8153 25.728 45.8153 25.4402V1.82303C45.8153 1.61862 45.7122 1.50049 45.5621 1.50049Z" fill="#E1E1E1"/>
<path d="M9.18064 46.0549C9.23016 46.0808 9.58584 46.2812 9.74192 46.3689C9.63686 46.2949 9.58134 46.1678 9.57346 45.9897V23.9597L8.98779 23.6216V45.6631C8.98779 45.8379 9.06396 45.9942 9.18064 46.0553V46.0549Z" fill="#F0F0F0"/>
<path d="M45.815 1.81941C45.8131 1.53427 45.6094 1.41873 45.3576 1.56204L10.0305 21.7001C9.77761 21.8442 9.57275 22.1945 9.57275 22.4822V23.9594L45.815 3.30178V1.81941Z" fill="url(#paint3_linear_7121_34531)"/>
<g opacity="0.4">
<path d="M45.3577 1.56186L10.0313 21.6996C9.90595 21.7722 9.79077 21.894 9.70898 22.0347L9.12744 21.7022C9.20961 21.563 9.32179 21.4422 9.4456 21.3726L44.7731 1.23525C44.9041 1.16007 45.0207 1.15859 45.1055 1.20821C45.1877 1.25784 45.5674 1.47114 45.6638 1.52224C45.5831 1.48373 45.4755 1.49521 45.3573 1.56186H45.3577Z" fill="url(#paint4_linear_7121_34531)"/>
</g>
<path d="M9.57362 23.9594L9.57324 26.6198L45.8151 5.96617V3.30176L9.57362 23.9594Z" fill="#ECECEC"/>
<path d="M11.0823 23.762L13.4261 22.4326V23.7587L11.0815 25.0948L11.0823 23.762Z" fill="#E1E1E1"/>
<path d="M14.0049 22.0964V22.6204L15.174 21.9542V21.4302L14.0049 22.0964Z" fill="#E1E1E1"/>
<path d="M14.0049 22.9055V23.4298L15.174 22.7636V22.2393L14.0049 22.9055Z" fill="#E1E1E1"/>
<path d="M15.7583 21.0969V21.6209L16.9274 20.9547V20.4307L15.7583 21.0969Z" fill="#E1E1E1"/>
<path d="M15.7583 21.9059V22.4303L16.9274 21.7637V21.2397L15.7583 21.9059Z" fill="#E1E1E1"/>
<path d="M17.5122 20.0972V20.6212L18.6817 19.955V19.4307L17.5122 20.0972Z" fill="#E1E1E1"/>
<path d="M17.5122 20.9064V21.4308L18.6817 20.7642V20.2402L17.5122 20.9064Z" fill="#E1E1E1"/>
<path d="M22.7729 17.1003V17.6243L23.9424 16.9581V16.4341L22.7729 17.1003Z" fill="#E1E1E1"/>
<path d="M22.7729 17.9094V18.4337L23.9424 17.7672V17.2432L22.7729 17.9094Z" fill="#E1E1E1"/>
<path d="M24.5264 16.1003V16.6246L25.6958 15.9584V15.4341L24.5264 16.1003Z" fill="#E1E1E1"/>
<path d="M24.5264 16.9098V17.4338L25.6958 16.7676V16.2437L24.5264 16.9098Z" fill="#E1E1E1"/>
<path d="M26.2803 15.1008L26.2806 15.6251L27.4497 14.9586V14.4346L26.2803 15.1008Z" fill="#E1E1E1"/>
<path d="M26.2803 15.9103L26.2806 16.4343L27.4497 15.7681V15.2441L26.2803 15.9103Z" fill="#E1E1E1"/>
<path d="M19.2656 19.0979L22.1883 17.4326V18.765L19.266 20.4303L19.2656 19.0979Z" fill="#E1E1E1"/>
<path d="M28.0348 14.1015L30.3786 12.7725V14.0986L28.0337 15.4347L28.0348 14.1015Z" fill="#E1E1E1"/>
<path d="M30.957 12.4362L30.9574 12.9602L32.1265 12.294V11.77L30.957 12.4362Z" fill="#E1E1E1"/>
<path d="M30.957 13.2453L30.9574 13.7697L32.1265 13.1031V12.5791L30.957 13.2453Z" fill="#E1E1E1"/>
<path d="M32.7104 11.4366L32.7108 11.9606L33.8799 11.2944V10.77L32.7104 11.4366Z" fill="#E1E1E1"/>
<path d="M32.7104 12.2458L32.7108 12.7702L33.8799 12.1036V11.5796L32.7104 12.2458Z" fill="#E1E1E1"/>
<path d="M34.4644 10.4367L34.4647 10.9611L35.6338 10.2949V9.77051L34.4644 10.4367Z" fill="#E1E1E1"/>
<path d="M34.4644 11.2463L34.4647 11.7703L35.6338 11.1041V10.5801L34.4644 11.2463Z" fill="#E1E1E1"/>
<path d="M39.7251 7.43915L39.7255 7.96314L40.8946 7.29694V6.77295L39.7251 7.43915Z" fill="#E1E1E1"/>
<path d="M39.7251 8.2486L39.7255 8.77259L40.8946 8.1064V7.58203L39.7251 8.2486Z" fill="#E1E1E1"/>
<path d="M41.4785 6.43963L41.4789 6.96363L42.648 6.29743V5.77344L41.4785 6.43963Z" fill="#E1E1E1"/>
<path d="M41.4785 7.24872L41.4789 7.77308L42.648 7.10652V6.58252L41.4785 7.24872Z" fill="#E1E1E1"/>
<path d="M43.2324 5.44012L43.2328 5.96412L44.4019 5.29792V4.77393L43.2324 5.44012Z" fill="#E1E1E1"/>
<path d="M43.2324 6.2492L43.2328 6.77357L44.4019 6.107V5.58301L43.2324 6.2492Z" fill="#E1E1E1"/>
<path d="M36.2183 9.43814L39.141 7.77246V9.10522L36.2186 10.7702L36.2183 9.43814Z" fill="#E1E1E1"/>
<path d="M9.57346 23.9592L8.98779 23.6211V26.2866L9.57308 26.6195L9.57346 23.9592Z" fill="#E1E1E1"/>
<path d="M36.4624 7.58327V7.6814C36.4624 7.83841 36.5738 7.90174 36.7115 7.8236L43.8123 3.77717C43.95 3.69866 44.0614 3.50795 44.0618 3.35094V3.2528C44.0618 3.09579 43.9504 3.03247 43.8127 3.1106L36.7119 7.15703C36.5742 7.23554 36.4628 7.42625 36.4624 7.58327Z" fill="#F5F5F5"/>
<path d="M44.0617 3.35094V3.2528C44.0617 3.09579 43.9502 3.03247 43.8125 3.1106L42.8926 3.63497V4.30116L43.8125 3.7768C43.9502 3.69829 44.062 3.50758 44.062 3.35057L44.0617 3.35094Z" fill="#375A64"/>
<path d="M10.1577 26.9515L45.2312 6.96777V8.29683L13.0797 26.6197L13.0789 43.9411L10.1577 45.6061V26.9515Z" fill="#F0F0F0"/>
<path d="M13.0796 26.6198L15.9997 24.9556V26.2846L13.0796 27.9518V26.6198Z" fill="url(#paint5_linear_7121_34531)"/>
<path d="M13.0796 37.278L15.9997 35.6138V36.9428L13.0796 38.61V37.278Z" fill="#00C3FF"/>
<path d="M13.0796 38.6105L15.9997 36.9463V38.2754L13.0796 39.9425V38.6105Z" fill="#00DFBF"/>
<path d="M13.0796 38.6105L15.9997 36.9463V38.2754L13.0796 39.9425V38.6105Z" fill="#00C3FF"/>
<path d="M30.6143 27.2843L33.5343 25.6201V26.9492L30.6143 28.6163V27.2843Z" fill="#00C3FF"/>
<path d="M30.6143 28.617L33.5343 26.9531V28.2822L30.6143 29.949V28.617Z" fill="#0667B7"/>
<path d="M30.6143 29.9498L33.5343 28.2856V29.6147L30.6143 31.2815V29.9498Z" fill="url(#paint6_linear_7121_34531)"/>
<path d="M30.6143 31.2819L33.5343 29.6177V30.9471L30.6143 32.6139V31.2819Z" fill="#00DFBF"/>
<path d="M30.6143 31.2819L33.5343 29.6177V30.9471L30.6143 32.6139V31.2819Z" fill="#0667B7"/>
<path d="M27.6938 18.2907L30.6143 16.6265V23.2888L27.6938 24.9556V18.2907Z" fill="url(#paint7_linear_7121_34531)"/>
<path d="M27.6938 26.2858L30.6143 24.6216V33.9483L27.6938 35.6155V26.2858Z" fill="url(#paint8_linear_7121_34531)"/>
<path d="M15.9995 32.9479L18.92 31.2837V32.6128L15.9995 34.2795V32.9479Z" fill="#00DFBF"/>
<path d="M15.9995 32.9479L18.92 31.2837V32.6128L15.9995 34.2795V32.9479Z" fill="#0667B7"/>
<path d="M21.8481 22.9542L24.7686 21.29V22.6191L21.8481 24.2863V22.9542Z" fill="#00DFBF"/>
<path d="M21.8481 22.9542L24.7686 21.29V22.6191L21.8481 24.2863V22.9542Z" fill="#00C3FF"/>
<path d="M36.4629 22.6212L39.3833 20.957V22.2861L36.4629 23.9529V22.6212Z" fill="#00DFBF"/>
<path d="M36.4629 22.6212L39.3833 20.957V22.2861L36.4629 23.9529V22.6212Z" fill="#00C3FF"/>
<path d="M36.4629 25.2872L39.3833 23.623V24.9521L36.4629 26.6189V25.2872Z" fill="#0667B7"/>
<path d="M10.1215 26.8913L10.0854 26.9116V45.7299L45.2663 25.6814L45.3023 25.6611V6.84277L10.1215 26.8913ZM45.1582 24.2509L42.3803 25.834V24.6653L45.1582 23.0822V24.2509ZM10.2291 28.3259L13.0078 26.7424V27.9111L10.2291 29.4946V28.3259ZM27.622 26.4113V27.58L24.843 29.1635V27.9948L27.622 26.4113ZM24.843 27.8311V26.6624L27.622 25.0789V26.2477L24.843 27.8315V27.8311ZM27.7661 26.3295L30.5451 24.746V25.9147L27.7661 27.4982V26.3295ZM27.7661 26.1654V24.9967L30.5451 23.4133V24.582L27.7661 26.1654ZM27.7661 24.8327V23.664L30.5451 22.0805V23.2492L27.7661 24.8327ZM27.7661 23.4999V22.3312L30.5451 20.7477V21.9164L27.7661 23.4999ZM27.622 23.5818L24.843 25.1652V23.9965L27.622 22.413V23.5818ZM27.622 23.7458V24.9145L24.843 26.498V25.3293L27.622 23.7458ZM24.6989 26.5802L21.9199 28.1637V26.9946L24.6989 25.4111V26.5802ZM24.6989 26.7442V27.913L21.9199 29.4964V28.3277L24.6989 26.7442ZM24.6989 28.077V29.2457L21.9199 30.8292V29.6605L24.6989 28.077ZM24.6989 29.4098V30.5785L21.9199 32.162V30.9932L24.6989 29.4098ZM24.843 29.3279L27.622 27.7445V28.9132L24.843 30.4966V29.3279ZM27.622 29.0772V30.2459L24.843 31.8294V30.6607L27.622 29.0772ZM27.7661 28.9954L30.5451 27.4119V28.5806L27.7661 30.1641V28.9954ZM27.7661 28.8313V27.6626L30.5451 26.0792V27.2479L27.7661 28.8313ZM30.6888 25.9969L33.4678 24.4135V25.5822L30.6888 27.1657V25.9969ZM30.6888 25.8329V24.6642L33.4678 23.0807V24.2494L30.6888 25.8329ZM30.6888 24.5001V23.3314L33.4678 21.748V22.9167L30.6888 24.5001ZM30.6888 23.1674V21.9987L33.4678 20.4152V21.5839L30.6888 23.1674ZM30.6888 21.8346V20.6659L33.4678 19.0824V20.2511L30.6888 21.8346ZM30.6888 20.5018V19.3331L33.4678 17.7497V18.9184L30.6888 20.5018ZM30.5447 20.5837L27.7657 22.1672V20.9984L30.5447 19.415V20.5837ZM27.622 22.2494L24.843 23.8328V22.6641L27.622 21.0806V22.2494ZM24.6989 23.915L21.9199 25.4985V24.3298L24.6989 22.7463V23.915ZM24.6989 24.0791V25.2478L21.9199 26.8313V25.6626L24.6989 24.0791ZM21.7762 26.9135L18.9972 28.4969V27.3282L21.7762 25.7448V26.9135ZM21.7762 27.0775V28.2466L18.9972 29.8301V28.661L21.7762 27.0775ZM21.7762 28.4103V29.579L18.9972 31.1628V29.9941L21.7762 28.4107V28.4103ZM21.7762 29.7431V30.9118L18.9972 32.4952V31.3265L21.7762 29.7431ZM21.7762 31.0758V32.2445L18.9972 33.828V32.6593L21.7762 31.0758ZM21.7762 32.4086V33.5773L18.9972 35.1608V33.9921L21.7762 32.4086ZM21.9203 32.3267L24.6993 30.7433V31.912L21.9203 33.4955V32.3267ZM24.6993 32.076V33.2448L21.9203 34.8282V33.6595L24.6993 32.076ZM24.8434 31.9942L27.6224 30.4107V31.5794L24.8434 33.1629V31.9942ZM27.7665 30.3285L30.5455 28.7451V29.9138L27.7665 31.4972V30.3285ZM30.6892 28.6628L33.4682 27.0794V28.2481L30.6892 29.8316V28.6628ZM30.6892 28.4988V27.3301L33.4682 25.7466V26.9153L30.6892 28.4988ZM33.6119 25.6644L36.3909 24.0809V25.2497L33.6119 26.8331V25.6644ZM33.6119 25.5004V24.3316L36.3909 22.7482V23.9169L33.6119 25.5004ZM33.6119 24.1676V22.9989L36.3909 21.4154V22.5841L33.6119 24.168V24.1676ZM33.6119 22.8348V21.6661L36.3909 20.0826V21.2514L33.6119 22.8348ZM33.6119 21.5021V20.3334L36.3909 18.7499V19.9186L33.6119 21.5021ZM33.6119 20.1693V19.0006L36.3909 17.4171V18.5858L33.6119 20.1693ZM33.6119 18.8365V17.6678L36.3909 16.0844V17.2531L33.6119 18.8365ZM33.6119 17.5038V16.3351L36.3909 14.7516V15.9203L33.6119 17.5038ZM33.4678 17.5856L30.6888 19.1691V18.0004L33.4678 16.4169V17.5856ZM30.5451 19.2513L27.7661 20.8348V19.666L30.5451 18.0826V19.2513ZM27.6224 20.917L24.8434 22.5004V21.3317L27.6224 19.7483V20.917ZM24.6993 22.5826L21.9203 24.1661V22.9974L24.6993 21.4139V22.5826ZM21.7766 24.2483L18.9976 25.8318V24.6631L21.7766 23.0796V24.2483ZM21.7766 24.4124V25.5811L18.9976 27.1646V25.9958L21.7766 24.412V24.4124ZM18.8535 27.2468L16.0745 28.8302V27.6615L18.8535 26.078V27.2468ZM18.8535 27.4108V28.5795L16.0745 30.163V28.9943L18.8535 27.4108ZM18.8535 28.7436V29.9127L16.0745 31.4961V30.327L18.8535 28.7436ZM18.8535 30.0763V31.2451L16.0745 32.8285V31.6594L18.8535 30.076V30.0763ZM18.8535 31.4091V32.5778L16.0745 34.1613V32.9926L18.8535 31.4091ZM18.8535 32.7419V33.9106L16.0745 35.494V34.325L18.8535 32.7415V32.7419ZM18.8535 34.0746V35.2433L16.0745 36.8268V35.6581L18.8535 34.0746ZM18.8535 35.4074V36.5765L16.0745 38.16V36.9909L18.8535 35.4074ZM18.9976 35.3256L21.7766 33.7421V34.9108L18.9976 36.4943V35.3256ZM21.7766 35.0749V36.2436L18.9976 37.8274V36.6587L21.7766 35.0752V35.0749ZM21.9207 34.993L24.6997 33.4095V34.5783L21.9207 36.1617V34.993ZM24.8434 33.3273L27.6224 31.7439V32.9126L24.8434 34.4964V33.3277V33.3273ZM27.7665 31.6617L30.5455 30.0782V31.2469L27.7665 32.8304V31.6617ZM30.6892 29.996L33.4682 28.4125V29.5812L30.6892 31.1647V29.996ZM33.6119 28.3303L36.3909 26.7468V27.9156L33.6119 29.499V28.3303ZM33.6119 28.1663V26.9975L36.3909 25.4141V26.5828L33.6119 28.1663ZM36.5349 25.3319L39.3139 23.7484V24.9171L36.5349 26.5006V25.3319ZM36.5349 25.1678V23.9991L39.3139 22.4156V23.5843L36.5349 25.1678ZM36.5349 23.8351V22.6663L39.3139 21.0829V22.2516L36.5349 23.8351ZM36.5349 22.5023V21.3336L39.3139 19.7501V20.9188L36.5349 22.5023ZM36.5349 21.1695V20.0008L39.3139 18.4173V19.5861L36.5349 21.1695ZM36.5349 19.8368V18.668L39.3139 17.0846V18.2533L36.5349 19.8368ZM36.5349 18.504V17.3353L39.3139 15.7518V16.9205L36.5349 18.504ZM36.5349 17.1712V16.0025L39.3139 14.419V15.5878L36.5349 17.1712ZM36.5349 15.8385V14.6698L39.3139 13.0863V14.255L36.5349 15.8385ZM36.5349 14.5057V13.337L39.3139 11.7535V12.9222L36.5349 14.5057ZM36.3909 14.5875L33.6119 16.171V15.0023L36.3909 13.4188V14.5875ZM33.4678 16.2532L30.6888 17.8367V16.668L33.4678 15.0845V16.2532ZM30.5451 17.9189L27.7661 19.5024V18.3336L30.5451 16.7502V17.9189ZM27.6224 19.5846L24.8434 21.168V19.9993L27.6224 18.4159V19.5846ZM24.6993 21.2503L21.9203 22.8337V21.665L24.6993 20.0815V21.2503ZM21.7766 22.9159L18.9976 24.4994V23.3307L21.7766 21.7472V22.9159ZM18.8535 24.5816L16.0745 26.1651V24.9964L18.8535 23.4129V24.5816ZM18.8535 24.7457V25.9144L16.0745 27.4978V26.3291L18.8535 24.7457ZM15.9308 27.58L13.1518 29.1635V27.9948L15.9308 26.4113V27.58ZM15.9308 27.7441V28.9128L13.1518 30.4963V29.3276L15.9308 27.7441ZM15.9308 29.0769V30.2456L13.1518 31.829V30.6603L15.9308 29.0769ZM15.9308 30.4096V31.5787L13.1518 33.1622V31.9931L15.9308 30.4096ZM15.9308 31.7424V32.9115L13.1518 34.4953V33.3262L15.9308 31.7428V31.7424ZM15.9308 33.0752V34.2439L13.1518 35.8273V34.6586L15.9308 33.0752ZM15.9308 34.4079V35.577L13.1518 37.1605V35.9914L15.9308 34.4079ZM15.9308 35.7407V36.9094L13.1518 38.4929V37.3241L15.9308 35.7407ZM15.9308 37.0734V38.2425L13.1518 39.826V38.6569L15.9308 37.0734ZM15.9308 38.4062V39.5753L13.1518 41.1591V39.99L15.9308 38.4066V38.4062ZM16.0749 38.3244L18.8539 36.7409V37.9096L16.0749 39.4931V38.324V38.3244ZM18.8539 38.0737V39.2424L16.0749 40.8258V39.6571L18.8539 38.0737ZM18.998 37.9918L21.777 36.4084V37.5771L18.998 39.1605V37.9918ZM21.9211 36.3261L24.7001 34.7427V35.9114L21.9211 37.4949V36.3261ZM24.8438 34.6605L27.6228 33.077V34.2457L24.8438 35.8292V34.6605ZM27.7668 32.9948L30.5458 31.4113V32.58L27.7668 34.1635V32.9948ZM30.6895 31.3291L33.4685 29.7456V30.9144L30.6895 32.4978V31.3291ZM33.6122 29.6634L36.3912 28.08V29.2487L33.6122 30.8322V29.6634ZM36.5353 27.9978L39.3143 26.4143V27.583L36.5353 29.1665V27.9978ZM36.5353 27.8337V26.665L39.3143 25.0815V26.2502L36.5353 27.8337ZM39.458 24.9993L42.237 23.4159V24.5846L39.458 26.168V24.9993ZM39.458 24.8353V23.6666L42.237 22.0831V23.2518L39.458 24.8353ZM39.458 23.5025V22.3338L42.237 20.7503V21.919L39.458 23.5029V23.5025ZM39.458 22.1697V21.001L42.237 19.4176V20.5863L39.458 22.1697ZM39.458 20.837V19.6683L42.237 18.0848V19.2535L39.458 20.837ZM39.458 19.5042V18.3355L42.237 16.752V17.9207L39.458 19.5042ZM39.458 18.1715V17.0027L42.237 15.4193V16.588L39.458 18.1715ZM39.458 16.8387V15.67L42.237 14.0865V15.2552L39.458 16.8391V16.8387ZM39.458 15.5059V14.3372L42.237 12.7537V13.9225L39.458 15.5059ZM39.458 14.1732V13.0044L42.237 11.421V12.5897L39.458 14.1732ZM39.458 12.8404V11.6717L42.237 10.0882V11.2569L39.458 12.8404ZM39.458 11.5076V10.3393L42.237 8.75582V9.92417L39.458 11.5076ZM39.3139 11.5895L36.5349 13.1729V12.005L39.3139 10.4215V11.5898V11.5895ZM36.3912 13.2551L33.6122 14.8386V13.6706L36.3912 12.0872V13.2551ZM33.4682 14.9208L30.6892 16.5043V15.3363L33.4682 13.7529V14.9208ZM30.5455 16.5865L27.7665 18.17V17.002L30.5455 15.4185V16.5865ZM27.6228 18.2522L24.8438 19.8356V18.6677L27.6228 17.0838V18.2518V18.2522ZM24.6997 19.9179L21.9207 21.5013V20.3334L24.6997 18.7499V19.9179ZM21.777 21.5835L18.998 23.167V21.999L21.777 20.4152V21.5832V21.5835ZM18.8539 23.2492L16.0749 24.8327V23.6647L18.8539 22.0812V23.2492ZM15.9312 24.9149L13.1522 26.4984V25.3304L15.9312 23.7469V24.9149ZM15.9312 25.0789V26.2477L13.1522 27.8311V26.6624L15.9312 25.0789ZM10.2299 29.6608L13.0085 28.0774V29.2461L10.2299 30.8296V29.6608ZM10.2299 30.9936L13.0085 29.4101V30.5789L10.2299 32.1623V30.9936ZM10.2299 32.3264L13.0085 30.7429V31.9116L10.2299 33.4951V32.3264ZM10.2299 33.6591L13.0085 32.0757V33.2448L10.2299 34.8282V33.6591ZM10.2299 34.9919L13.0085 33.4084V34.5775L10.2299 36.161V34.9919ZM10.2299 36.3247L13.0085 34.7412V35.9099L10.2299 37.4934V36.3247ZM10.2299 37.6574L13.0085 36.074V37.243L10.2299 38.8265V37.6574ZM10.2299 38.9902L13.0085 37.4067V38.5754L10.2299 40.1589V38.9902ZM10.2299 40.323L13.0085 38.7395V39.9086L10.2299 41.492V40.323ZM10.2299 41.6557L13.0085 40.0723V41.2413L10.2299 42.8248V41.6557ZM10.2299 42.9885L13.0085 41.405V42.5737L10.2299 44.1572V42.9885ZM13.1526 41.3232L15.9316 39.7397V40.9084L13.1526 42.4919V41.3232ZM15.9316 41.0721V42.2367L13.1526 43.8206V42.6559L15.9316 41.0725V41.0721ZM16.0757 40.9899L18.8547 39.4064V40.5711L16.0757 42.1545V40.9899ZM18.9984 39.3242L21.7774 37.7407V38.9054L18.9984 40.4892V39.3246V39.3242ZM21.9214 37.6585L24.7004 36.0751V37.2397L21.9214 38.8232V37.6585ZM24.8441 35.9929L27.6231 34.4094V35.574L24.8441 37.1579V35.9932V35.9929ZM27.7672 34.3272L30.5462 32.7437V33.908L27.7672 35.4915V34.3268V34.3272ZM30.6899 32.6615L33.4689 31.078V32.2423L30.6899 33.8258V32.6615ZM33.6126 30.9958L36.3916 29.4124V30.5766L33.6126 32.1605V30.9962V30.9958ZM36.5357 29.3302L39.3147 27.7467V28.911L36.5357 30.4944V29.3302ZM39.4584 27.6645L42.2374 26.081V27.2453L39.4584 28.8291V27.6649V27.6645ZM39.4584 27.5004V26.3317L42.2374 24.7482V25.917L39.4584 27.5004ZM45.159 22.9189L42.3811 24.502V23.3333L45.159 21.7502V22.9189ZM45.159 21.5861L42.3811 23.1692V22.0005L45.159 20.4174V21.5861ZM45.159 20.2534L42.3811 21.8365V20.6677L45.159 19.0846V20.2534ZM45.159 18.9206L42.3811 20.5037V19.335L45.159 17.7519V18.9206ZM45.159 17.5878L42.3811 19.1709V18.0022L45.159 16.4191V17.5878ZM45.159 16.2551L42.3811 17.8382V16.6695L45.159 15.0864V16.2551ZM45.159 14.9223L42.3811 16.5054V15.3367L45.159 13.7536V14.9223ZM45.159 13.5895L42.3811 15.1726V14.0039L45.159 12.4208V13.5895ZM45.159 12.2568L42.3811 13.8399V12.6712L45.159 11.0881V12.2568ZM45.159 10.924L42.3811 12.5071V11.3384L45.159 9.7553V10.924ZM45.159 9.59125L42.3811 11.1743V10.0056L45.159 8.42254V9.59125ZM45.159 8.25849L42.3811 9.84158V8.67324L45.1593 7.09014V8.25849H45.159ZM13.0081 25.4119V26.5798L10.2295 28.1633V26.9953L13.0081 25.4119ZM10.2295 44.3209L13.0081 42.7374V43.9021L10.2295 45.4855V44.3209ZM42.3811 27.1634V25.9992L45.159 24.4161V25.5803L42.3811 27.1634Z" fill="#E1E1E1"/>
<path d="M33.5342 14.9585L45.231 8.29834V14.9622L33.5342 21.6204V14.9585Z" fill="#FAFAFA" stroke="#E1E1E1" stroke-miterlimit="10"/>
<path d="M34.126 19.9575L35.7066 15.697L37.4543 16.7283L39.2116 14.9616L40.9641 16.1021L42.717 11.8428L44.4695 12.73" stroke="#375A64" stroke-width="0.75" stroke-linecap="round" stroke-linejoin="round"/>
<path d="M35.7066 15.4954C35.6094 15.551 35.5303 15.6862 35.5303 15.7976C35.5303 15.9091 35.6091 15.9543 35.7066 15.8983C35.8038 15.8424 35.8829 15.7073 35.8829 15.5962C35.8829 15.4851 35.8042 15.4399 35.7066 15.4954Z" fill="url(#paint9_linear_7121_34531)"/>
<path d="M37.4591 16.5267C37.3619 16.5822 37.2827 16.7174 37.2827 16.8289C37.2827 16.9403 37.3615 16.9855 37.4591 16.9296C37.5562 16.8737 37.6354 16.7385 37.6354 16.6274C37.6354 16.5163 37.5566 16.4711 37.4591 16.5267Z" fill="url(#paint10_linear_7121_34531)"/>
<path d="M39.2115 14.7606C39.1143 14.8161 39.0352 14.9513 39.0352 15.0628C39.0352 15.1742 39.1139 15.2194 39.2115 15.1635C39.3087 15.1076 39.3878 14.9724 39.3878 14.8613C39.3878 14.7502 39.309 14.705 39.2115 14.7606Z" fill="url(#paint11_linear_7121_34531)"/>
<path d="M40.9639 15.8997C40.8668 15.9553 40.7876 16.0905 40.7876 16.2019C40.7876 16.3134 40.8664 16.3586 40.9639 16.3026C41.0611 16.2467 41.1403 16.1116 41.1403 16.0005C41.1403 15.8894 41.0615 15.8442 40.9639 15.8997Z" fill="url(#paint12_linear_7121_34531)"/>
<path d="M42.7169 11.6409C42.6197 11.6965 42.5405 11.8317 42.5405 11.9431C42.5405 12.0546 42.6193 12.0998 42.7169 12.0439C42.814 11.9879 42.8932 11.8528 42.8932 11.7417C42.8932 11.6306 42.8144 11.5854 42.7169 11.6409Z" fill="url(#paint13_linear_7121_34531)"/>
<path d="M44.4693 12.5282C44.3721 12.5837 44.293 12.7189 44.293 12.8303C44.293 12.9418 44.3718 12.987 44.4693 12.9311C44.5665 12.8751 44.6456 12.74 44.6456 12.6289C44.6456 12.5178 44.5669 12.4726 44.4693 12.5282Z" fill="url(#paint14_linear_7121_34531)"/>
<path d="M50.0972 32.8418L46.9873 34.6141L50.0976 36.3865L53.2079 34.6141L50.0972 32.8418Z" fill="#375A64"/>
<path d="M53.2083 34.6099L53.2079 41.6592L50.098 43.4315L50.0977 36.3866L53.2083 34.6099Z" fill="#2B454E"/>
<path d="M50.0976 36.3868L50.098 43.4316L46.9877 41.6593L46.9873 34.6104L50.0976 36.3868Z" fill="#1A2E35"/>
<path d="M46.0054 38.2305L42.8955 40.0028L46.0058 41.7751L49.1157 40.0028L46.0054 38.2305Z" fill="#00DFBF"/>
<path d="M46.0054 38.2305L42.8955 40.0028L46.0058 41.7751L49.1157 40.0028L46.0054 38.2305Z" fill="url(#paint15_linear_7121_34531)"/>
<path d="M49.1165 39.9985L49.1162 43.9913L46.0059 45.7636V41.7753L49.1165 39.9985Z" fill="url(#paint16_linear_7121_34531)"/>
<path d="M46.0058 41.7754V45.7637L42.8955 43.9914V39.999L46.0058 41.7754Z" fill="#00DFBF"/>
<path d="M46.0058 41.7754V45.7637L42.8955 43.9914V39.999L46.0058 41.7754Z" fill="#014937"/>
<path d="M41.9136 38.9038L38.8037 40.6761L41.914 42.4488L45.0239 40.6765L41.9136 38.9038Z" fill="#00C3FF"/>
<path d="M45.0242 40.6724V46.323L41.9139 48.0953L41.9136 42.4488L45.0242 40.6724Z" fill="url(#paint17_linear_7121_34531)"/>
<path d="M41.9136 42.4489L41.914 48.0954L38.8037 46.3227V40.6729L41.9136 42.4489Z" fill="#0667B7"/>
<path d="M37.8218 44.8901L34.7119 46.6621L37.8222 48.4348L40.9321 46.6625L37.8218 44.8901Z" fill="#00DFBF"/>
<path d="M37.8218 44.8901L34.7119 46.6621L37.8222 48.4348L40.9321 46.6625L37.8218 44.8901Z" fill="url(#paint18_linear_7121_34531)"/>
<path d="M40.9324 46.6582V48.6546L37.8222 50.4269L37.8218 48.435L40.9324 46.6582Z" fill="#00DFBF"/>
<path d="M40.9324 46.6582V48.6546L37.8222 50.4269L37.8218 48.435L40.9324 46.6582Z" fill="url(#paint19_linear_7121_34531)"/>
<path d="M37.8217 48.4351L37.8221 50.427L34.7118 48.6547L34.7114 46.6587L37.8217 48.4351Z" fill="#00DFBF"/>
<path d="M37.8217 48.4351L37.8221 50.427L34.7118 48.6547L34.7114 46.6587L37.8217 48.4351Z" fill="#014937"/>
<path d="M20.8805 57.2891V58.4511L19.7178 55.332V54.1714L19.7193 54.1729L20.8805 57.2891Z" fill="#1A2E35"/>
<path d="M20.8809 57.2898V58.4511L25.6769 56.8088V55.6475L20.8809 57.2898Z" fill="#2B454E"/>
<path d="M19.7178 54.1709L20.8812 57.2897L25.6772 55.6478C24.3603 54.5135 22.0713 53.9465 19.7178 54.1709Z" fill="#375A64"/>
<path d="M14.707 57.5049C14.7056 57.5162 14.7056 57.5286 14.7056 57.5399V57.5049H14.707Z" fill="#00DFBF"/>
<path d="M20.4027 58.7547L19.6902 62.0612C16.7832 61.7813 14.6822 60.3296 14.7066 58.6706L14.7051 58.6736V57.54C14.7051 59.1861 16.8005 60.6222 19.6898 60.9006L20.179 58.628L20.4023 58.7543L20.4027 58.7547Z" fill="#00DFBF"/>
<path d="M20.4027 58.7547L19.6902 62.0612C16.7832 61.7813 14.6822 60.3296 14.7066 58.6706L14.7051 58.6736V57.54C14.7051 59.1861 16.8005 60.6222 19.6898 60.9006L20.179 58.628L20.4023 58.7543L20.4027 58.7547Z" fill="#014937"/>
<path d="M20.2358 60.9392V62.1005C21.5055 62.1597 22.6659 62.0027 23.7753 61.6228C25.1463 61.1532 26.1139 60.4078 26.5011 59.5238C26.6185 59.255 26.6782 58.9832 26.6812 58.7128C26.6823 58.6028 26.6812 57.5126 26.6812 57.5126C26.6812 57.5126 26.3491 57.4871 25.9601 57.0771L25.0619 57.3845L20.9483 58.7928L20.2358 60.9384V60.9392Z" fill="#00DFBF"/>
<path d="M20.2358 60.9392V62.1005C21.5055 62.1597 22.6659 62.0027 23.7753 61.6228C25.1463 61.1532 26.1139 60.4078 26.5011 59.5238C26.6185 59.255 26.6782 58.9832 26.6812 58.7128C26.6823 58.6028 26.6812 57.5126 26.6812 57.5126C26.6812 57.5126 26.3491 57.4871 25.9601 57.0771L25.0619 57.3845L20.9483 58.7928L20.2358 60.9384V60.9392Z" fill="url(#paint20_linear_7121_34531)"/>
<path d="M16.6567 56.1774L20.23 58.2138V57.0525L16.6567 55.0161V56.1774Z" fill="#00DFBF"/>
<path d="M16.6567 56.1774L20.23 58.2138V57.0525L16.6567 55.0161V56.1774Z" fill="#0667B7"/>
<path d="M14.7501 57.1217C14.3591 58.9366 16.5577 60.599 19.6905 60.9011L20.403 57.5942L16.2685 55.2383C15.4055 55.7719 14.908 56.3896 14.7501 57.1221V57.1217Z" fill="#00DFBF"/>
<path d="M14.7501 57.1217C14.3591 58.9366 16.5577 60.599 19.6905 60.9011L20.403 57.5942L16.2685 55.2383C15.4055 55.7719 14.908 56.3896 14.7501 57.1221V57.1217Z" fill="url(#paint21_linear_7121_34531)"/>
<path d="M20.2569 60.8428L20.2358 60.9395C21.5055 60.9987 22.6659 60.8417 23.7753 60.4618C25.1463 59.9922 26.1139 59.2467 26.5011 58.3628C26.8654 57.5296 26.6729 56.6668 25.9601 55.9165L25.0619 56.2239L20.9483 57.6322L20.2565 60.8424L20.2569 60.8428Z" fill="#00DFBF"/>
<path d="M20.2569 60.8428L20.2358 60.9395C21.5055 60.9987 22.6659 60.8417 23.7753 60.4618C25.1463 59.9922 26.1139 59.2467 26.5011 58.3628C26.8654 57.5296 26.6729 56.6668 25.9601 55.9165L25.0619 56.2239L20.9483 57.6322L20.2565 60.8424L20.2569 60.8428Z" fill="url(#paint22_linear_7121_34531)"/>
<path d="M16.6567 55.0161L20.23 57.0525L19.1795 54.2358C18.1856 54.3777 17.4075 54.6184 16.6567 55.0165V55.0161Z" fill="#00C3FF"/>
<path d="M20.4024 58.7551V57.5938L19.6899 60.9007V62.062L20.4024 58.7551Z" fill="#00DFBF"/>
<path opacity="0.55" d="M20.4024 58.7551V57.5938L19.6899 60.9007V62.062L20.4024 58.7551Z" fill="black"/>
<path d="M24.9611 52.4287L24.1826 52.8723L24.9611 53.316L25.7396 52.8723L24.9611 52.4287Z" fill="#00DFBF"/>
<path d="M24.9611 52.4287L24.1826 52.8723L24.9611 53.316L25.7396 52.8723L24.9611 52.4287Z" fill="url(#paint23_linear_7121_34531)"/>
<path d="M25.7394 52.8711V53.3162L24.9609 53.7598V53.3158L25.7394 52.8711Z" fill="#00DFBF"/>
<path d="M25.7394 52.8711V53.3162L24.9609 53.7598V53.3158L25.7394 52.8711Z" fill="url(#paint24_linear_7121_34531)"/>
<path d="M24.9611 53.3158V53.7598L24.1826 53.3162V52.8711L24.9611 53.3158Z" fill="#00DFBF"/>
<path d="M24.9611 53.3158V53.7598L24.1826 53.3162V52.8711L24.9611 53.3158Z" fill="#014937"/>
<path d="M26.1499 52.0841L29.0339 50.4407C29.2061 50.3426 29.4763 50.3377 29.6376 50.4296C29.7989 50.5214 29.7903 50.6755 29.6185 50.7736L26.7344 52.4171C26.5622 52.5152 26.2921 52.52 26.1307 52.4282C25.9694 52.3363 25.978 52.1823 26.1499 52.0841Z" fill="#E1E1E1"/>
<path d="M26.7145 53.4277L25.936 53.8714L26.7145 54.315L27.4931 53.8714L26.7145 53.4277Z" fill="#00DFBF"/>
<path d="M26.7145 53.4277L25.936 53.8714L26.7145 54.315L27.4931 53.8714L26.7145 53.4277Z" fill="#66E2FF"/>
<path d="M27.4929 53.8706V54.3157L26.7144 54.7594V54.3153L27.4929 53.8706Z" fill="#00DFBF"/>
<path d="M27.4929 53.8706V54.3157L26.7144 54.7594V54.3153L27.4929 53.8706Z" fill="#00C3FF"/>
<path d="M26.7145 54.3153V54.7594L25.9364 54.3157L25.936 53.8706L26.7145 54.3153Z" fill="#00DFBF"/>
<path d="M26.7145 54.3153V54.7594L25.9364 54.3157L25.936 53.8706L26.7145 54.3153Z" fill="#0667B7"/>
<path d="M27.9033 53.0837L30.7873 51.4402C30.9595 51.3421 31.2297 51.3373 31.391 51.4291C31.5523 51.5209 31.5437 51.675 31.3719 51.7731L28.4878 53.4166C28.3156 53.5147 28.0455 53.5195 27.8841 53.4277C27.7228 53.3358 27.7314 53.1818 27.9033 53.0837Z" fill="#E1E1E1"/>
<path d="M28.4686 54.4272L27.6904 54.8709L28.4689 55.3145L29.2471 54.8709L28.4686 54.4272Z" fill="#00DFBF"/>
<path d="M28.4686 54.4272L27.6904 54.8709L28.4689 55.3145L29.2471 54.8709L28.4686 54.4272Z" fill="#66E2FF"/>
<path d="M29.2473 54.8696V55.3151L28.4688 55.7588V55.3144L29.2473 54.8696Z" fill="#00C3FF"/>
<path d="M28.4689 55.3145V55.7589L27.6904 55.3152V54.8701L28.4689 55.3145Z" fill="#00DFBF"/>
<path d="M28.4689 55.3145V55.7589L27.6904 55.3152V54.8701L28.4689 55.3145Z" fill="#0667B7"/>
<path d="M29.6572 54.0832L32.5412 52.4397C32.7134 52.3416 32.9836 52.3368 33.1449 52.4286C33.3062 52.5204 33.2976 52.6745 33.1258 52.7726L30.2417 54.4161C30.0695 54.5142 29.7994 54.519 29.638 54.4272C29.4767 54.3354 29.4853 54.1813 29.6572 54.0832Z" fill="#E1E1E1"/>
<path d="M30.2224 55.4268L29.4438 55.8704L30.2224 56.314L31.0009 55.8704L30.2224 55.4268Z" fill="#375A64"/>
<path d="M31.0007 55.8691V56.3143L30.2222 56.7579V56.3139L31.0007 55.8691Z" fill="#2B454E"/>
<path d="M30.2224 56.3139V56.7579L29.4438 56.3143V55.8691L30.2224 56.3139Z" fill="#1A2E35"/>
<path d="M31.4111 55.0827L34.2951 53.4392C34.4674 53.3411 34.7375 53.3363 34.8988 53.4281C35.0601 53.52 35.0515 53.674 34.8797 53.7721L31.9956 55.4156C31.8234 55.5137 31.5533 55.5185 31.392 55.4267C31.2306 55.3349 31.2393 55.1808 31.4111 55.0827Z" fill="#E1E1E1"/>
<path d="M54.6313 31.3612C55.7018 31.3553 56.2094 31.6582 56.5947 32.6699C56.98 33.6816 58.0024 35.9994 58.0223 36.6886C58.0429 37.4036 55.7111 39.5704 55.7948 39.533C55.8203 39.5215 55.0842 38.2198 55.0842 38.2198L56.3955 36.6334L55.6436 34.4793L54.6313 31.3608V31.3612Z" fill="#FFAAA8"/>
<path d="M55.9563 55.0406C56.0219 55.1024 56.0343 55.1624 56.0321 55.3872C56.0298 55.6131 56.1266 55.8642 56.0092 56.0745C55.9214 56.2315 55.4745 56.3396 55.2472 56.2234C55.0581 56.1263 54.8694 55.9108 54.723 55.7583C54.5763 55.6057 54.4349 55.4461 54.2638 55.3202C54.0713 55.1783 53.8474 55.0843 53.6463 54.9543C53.3315 54.7506 53.1157 54.4133 53.0865 54.0415C53.0778 53.9311 53.0962 53.7863 53.1581 53.6937C53.2403 53.5704 53.4136 53.5401 53.5611 53.5634C53.7787 53.5978 54.5163 54.0048 54.687 54.1211C54.9009 54.267 55.8887 54.9765 55.9563 55.0402V55.0406Z" fill="#1A2E35"/>
<path d="M54.872 54.1073C54.8649 54.2691 54.1742 53.8907 53.8909 53.9273C53.8879 53.9277 53.8856 53.9299 53.883 53.931C53.6204 54.0558 53.8384 54.4195 54.0834 54.6057C54.3284 54.792 55.1268 55.3712 55.1268 55.3712L55.2903 54.4365L54.872 54.1073Z" fill="#FFAAA8"/>
<path d="M51.8771 56.7402C52.005 56.7399 52.062 57.1539 52.0857 57.4735C52.104 57.7205 52.1986 58.123 52.11 58.3044C52.0215 58.4859 51.6842 58.5992 51.1638 58.5888C50.8269 58.5818 50.2983 58.801 49.9362 58.9947C49.5622 59.1947 49.1588 59.1902 48.7668 59.1395C48.3045 59.0799 47.828 58.8088 47.7556 58.6185C47.6832 58.4281 47.7808 58.3385 48.8778 57.8934C48.8879 57.8893 50.0353 57.3953 50.571 56.8269L51.8767 56.7402H51.8771Z" fill="#1A2E35"/>
<path d="M48.8784 57.8935C48.7264 57.955 48.5955 58.0094 48.4796 58.0586C48.4499 58.1612 48.4897 58.3231 48.9744 58.403C49.7135 58.5245 51.8847 56.9114 51.8847 56.9114C51.8847 56.9114 51.5737 56.9958 51.5152 56.8203L50.5712 56.8274C50.0355 57.3958 48.8881 57.8898 48.878 57.8939L48.8784 57.8935Z" fill="#FFAAA8"/>
<path d="M56.3955 49.7397C56.3955 48.4365 56.1836 47.6255 56.1836 47.6255C56.1836 47.6255 56.3122 44.9041 56.3273 43.1932C56.3565 39.8104 56.2909 39.3134 55.533 37.8537C55.533 37.8537 51.1062 37.3422 50.9197 39.4716C50.6875 42.1234 50.4173 46.5609 50.4245 47.8236C50.4297 48.7639 50.5378 49.7834 50.5903 51.9153C50.6241 53.2806 50.77 55.2103 50.5719 56.8264C50.8225 57.2404 51.4997 57.233 51.8854 56.9104C51.9965 55.3281 52.7923 52.2985 52.9157 51.2416C53.0433 50.1474 52.8211 48.9575 52.8211 48.9575C52.8211 48.9575 53.4076 44.4408 53.5107 43.7535C53.5107 43.7535 53.7771 45.0192 53.7674 45.9598C53.7644 46.2598 53.8724 47.2659 54.0465 48.9579C54.1523 49.9885 54.8914 54.0149 55.0512 55.3092C55.4219 55.6625 55.9007 55.4188 55.9221 55.2651C56.0459 53.6857 56.3963 50.7251 56.3963 49.7393L56.3955 49.7397Z" fill="#FFAAA8"/>
<path opacity="0.15" d="M53.5098 43.7539L53.9011 41.5605C53.9011 41.5605 54.8083 41.4887 55.6434 40.6577C55.6434 40.6577 55.409 41.535 54.2586 41.8335L53.8009 43.818L53.7236 45.6273L53.5098 43.7543V43.7539Z" fill="black"/>
<path d="M52.3989 30.6248L52.5835 32.613L54.3529 32.5071L54.2171 30.3022L52.3989 30.6248Z" fill="#FFAAA8"/>
<path d="M55.9508 38.3881C55.7782 37.9678 55.6818 37.6856 55.1858 36.8779C55.9422 34.4735 56.1842 33.664 56.0375 32.636C55.944 31.982 55.4233 31.3284 54.778 31.3621C54.778 31.3621 54.4294 31.3628 54.2827 31.3621C54.2538 31.8179 52.9707 31.8402 52.4841 31.5265L52.0361 31.5384C51.7191 31.6491 50.6408 33.2077 50.5222 34.2428C50.4258 35.0838 51.0929 35.8122 51.0929 35.8122C51.1188 36.1462 51.0295 36.8783 51.0295 36.8783C51.0295 36.8783 51.0329 38.9128 51.0295 39.9245C51.0295 39.9245 51.2797 40.7044 53.876 40.4604C56.1857 40.2434 56.2419 39.4642 56.2419 39.4642C56.2419 39.4642 56.1748 38.9343 55.9508 38.3881Z" fill="#00DFBF"/>
<path d="M55.9508 38.3881C55.7782 37.9678 55.6818 37.6856 55.1858 36.8779C55.9422 34.4735 56.1842 33.664 56.0375 32.636C55.944 31.982 55.4233 31.3284 54.778 31.3621C54.778 31.3621 54.4294 31.3628 54.2827 31.3621C54.2538 31.8179 52.9707 31.8402 52.4841 31.5265L52.0361 31.5384C51.7191 31.6491 50.6408 33.2077 50.5222 34.2428C50.4258 35.0838 51.0929 35.8122 51.0929 35.8122C51.1188 36.1462 51.0295 36.8783 51.0295 36.8783C51.0295 36.8783 51.0329 38.9128 51.0295 39.9245C51.0295 39.9245 51.2797 40.7044 53.876 40.4604C56.1857 40.2434 56.2419 39.4642 56.2419 39.4642C56.2419 39.4642 56.1748 38.9343 55.9508 38.3881Z" fill="url(#paint25_linear_7121_34531)"/>
<path d="M52.6674 25.9735C52.6674 25.9735 51.8322 25.8291 51.2447 26.4824C50.3393 27.4889 51.3321 28.2295 51.3321 28.2295L52.6677 25.9735" fill="#1A2E35"/>
<path d="M51.0927 28.4399C51.0927 28.4399 50.6995 29.0236 50.7501 29.0854C50.8011 29.1472 51.0499 29.2139 51.0499 29.2139L51.0927 28.4399Z" fill="#FF9090"/>
<path d="M52.295 26.5908C51.9134 26.7841 51.2546 27.1411 51.0816 28.5254C50.9042 29.9463 51.2235 30.441 51.4193 30.628C51.5514 30.7539 52.2353 30.8013 52.5921 30.6932C53.039 30.5576 54.007 30.0885 54.4624 29.356C54.9978 28.4942 55.1111 27.344 54.497 26.8915C53.6325 26.2546 52.6184 26.4271 52.2954 26.5908H52.295Z" fill="#FFAAA8"/>
<path d="M52.1043 28.2256C51.3067 27.8249 51.51 26.7795 51.51 26.7795C51.51 26.7795 52.6502 25.1723 54.752 26.2118C55.4795 26.5714 55.9158 27.3883 55.8978 28.3448C55.8978 29.5887 54.8762 30.5971 53.6159 30.5971C52.8813 30.5971 52.2855 30.0094 52.2855 29.2843V29.1973L52.3531 29.2188C52.4682 29.2476 52.7174 29.2732 52.974 29.0551C53.3237 28.7577 53.3661 28.1737 52.923 28.0267C52.4825 27.8804 52.2484 28.3859 52.2484 28.3859C52.2484 28.3859 52.2484 28.3855 52.248 28.3852L52.0765 28.8499C51.9028 28.7873 51.8132 28.5977 51.8766 28.4259C51.9152 28.3215 52.0034 28.2533 52.1043 28.2259V28.2256Z" fill="#1A2E35"/>
<path d="M47.2801 28.5469L43.4844 30.4233L45.2691 35.4999L48.8135 33.6161L47.2801 28.5469Z" fill="#35714B"/>
<path d="M47.0988 29.0381L43.9146 30.6123L45.4963 34.9776L48.4697 33.3971L47.0988 29.0381Z" fill="#F5F5F5"/>
<path opacity="0.15" d="M46.4253 29.4949C46.4253 29.4949 46.399 29.4253 46.3667 29.3398C46.3345 29.2542 46.0707 29.3005 45.7781 29.4438L45.2175 29.7179C44.9245 29.8612 44.7137 30.0467 44.7459 30.1326L44.8045 30.2878L46.4256 29.4953L46.4253 29.4949Z" fill="black"/>
<path d="M46.3743 28.8763C46.3544 28.8226 46.24 28.8296 46.1185 28.8914L45.899 29.0036C45.899 29.0036 45.7707 28.6681 45.266 28.8907C44.7614 29.1133 44.8695 29.5013 44.8695 29.5013C44.8695 29.5013 44.7652 29.5558 44.6365 29.6232C44.5078 29.6906 44.4151 29.7891 44.4297 29.8435L44.4564 29.942L46.4118 28.9755C46.4118 28.9755 46.395 28.9292 46.3751 28.8759L46.3743 28.8763Z" fill="#2B454E"/>
<path d="M46.1611 29.0969C45.9792 29.1813 45.9079 29.2224 45.9574 29.3546C46.014 29.5057 46.0673 29.6142 46.0673 29.6142L45.2025 30.0427C45.2025 30.0427 45.1342 29.8509 45.1042 29.7764C45.0742 29.7024 45.0119 29.6661 44.8746 29.7342L44.8247 29.6805L46.1885 29.0225L46.1611 29.0965V29.0969Z" fill="#1A2E35"/>
<path d="M46.4619 29.5034C46.4619 29.5034 46.4356 29.4338 46.4034 29.3482C46.3711 29.2623 46.1073 29.309 45.8147 29.4523L45.2542 29.7263C44.9611 29.8696 44.7503 30.0552 44.7826 30.1411L44.8411 30.2963L46.4623 29.5038L46.4619 29.5034Z" fill="#2B454E"/>
<path d="M52.0357 31.5385C51.438 31.5285 51.0767 31.5811 50.2611 32.7757C49.4454 33.9704 47.9331 36.1708 47.756 36.4555C47.5091 36.8522 47.4536 37.4602 47.6547 37.8316C47.8423 38.1782 48.1721 38.2986 49.1119 37.3128C49.8079 36.5829 51.2703 34.644 51.2703 34.644C51.2703 34.644 52.4083 32.5498 52.0361 31.5381L52.0357 31.5385Z" fill="#FFAAA8"/>
<path d="M48.0249 38.0827C47.5322 38.2327 45.725 36.1093 45.2226 35.4709C44.6658 34.7632 44.2182 34.3648 43.8111 34.0574C43.1148 33.5319 43.2307 32.7439 43.5508 32.0251C43.6614 31.7763 44.0197 31.9451 44.0197 31.9451L44.1413 32.2906L44.3518 32.8891C44.4989 33.0283 44.5829 33.0742 44.5938 33.0339C44.6137 32.9576 44.4906 32.6354 44.4996 32.3021C44.5101 31.9011 44.7904 32.1695 44.8729 32.3114C44.9555 32.4532 45.0511 32.6839 45.1622 32.9791C45.298 33.3405 45.2335 33.7027 45.4019 33.9504C45.5708 34.1978 48.0252 36.2104 48.0252 36.2104V38.0827H48.0249Z" fill="#FFAAA8"/>
<path d="M55.1855 36.8779C55.1855 36.8779 53.4537 37.8874 51.0292 36.8779C51.0292 36.8779 50.6919 38.7499 50.5895 40.6707C50.5032 42.2886 50.313 45.7625 50.313 45.7625C50.313 45.7625 51.0292 46.5865 53.5827 46.4191C56.0372 46.2584 56.4705 45.627 56.4705 45.627C56.4705 45.627 56.4762 42.5071 56.4889 41.1432C56.5054 39.399 56.2578 38.4458 55.1855 36.8779Z" fill="#00DFBF"/>
<path d="M55.1855 36.8779C55.1855 36.8779 53.4537 37.8874 51.0292 36.8779C51.0292 36.8779 50.6919 38.7499 50.5895 40.6707C50.5032 42.2886 50.313 45.7625 50.313 45.7625C50.313 45.7625 51.0292 46.5865 53.5827 46.4191C56.0372 46.2584 56.4705 45.627 56.4705 45.627C56.4705 45.627 56.4762 42.5071 56.4889 41.1432C56.5054 39.399 56.2578 38.4458 55.1855 36.8779Z" fill="#014937"/>
<path d="M55.9906 27.6746L56.3954 27.3084C56.263 27.1658 56.039 27.1562 55.8946 27.2869C55.7906 27.381 55.7576 27.5221 55.7959 27.6468C55.7456 27.6424 55.695 27.6394 55.6436 27.6394V30.853C55.6436 31.7747 56.4007 32.522 57.3345 32.522V29.3085C57.3345 28.5041 56.7579 27.8327 55.9902 27.6746H55.9906Z" fill="#1A2E35"/>
</g>
<defs>
<linearGradient id="paint0_linear_7121_34531" x1="4.64307" y1="24.3495" x2="38.9456" y2="24.3495" gradientUnits="userSpaceOnUse">
<stop stop-color="#31688B"/>
<stop offset="1" stop-color="#3D87A2"/>
</linearGradient>
<linearGradient id="paint1_linear_7121_34531" x1="4.62549" y1="24.3495" x2="38.928" y2="24.3495" gradientUnits="userSpaceOnUse">
<stop stop-color="#036FB7"/>
<stop offset="1" stop-color="#19ADE4"/>
</linearGradient>
<linearGradient id="paint2_linear_7121_34531" x1="32.4093" y1="45.3808" x2="26.5291" y2="19.3024" gradientUnits="userSpaceOnUse">
<stop stop-color="#036FB7"/>
<stop offset="1" stop-color="#19ADE4"/>
</linearGradient>
<linearGradient id="paint3_linear_7121_34531" x1="9.57313" y1="12.73" x2="45.815" y2="12.73" gradientUnits="userSpaceOnUse">
<stop stop-color="#036FB7"/>
<stop offset="1" stop-color="#19ADE4"/>
</linearGradient>
<linearGradient id="paint4_linear_7121_34531" x1="2.23903" y1="24.6806" x2="55.503" y2="-3.84817" gradientUnits="userSpaceOnUse">
<stop stop-color="#036FB7"/>
<stop offset="1" stop-color="#19ADE4"/>
</linearGradient>
<linearGradient id="paint5_linear_7121_34531" x1="50.5498" y1="36.4387" x2="-7.94172" y2="19.7904" gradientUnits="userSpaceOnUse">
<stop stop-color="#036FB7"/>
<stop offset="1" stop-color="#19ADE4"/>
</linearGradient>
<linearGradient id="paint6_linear_7121_34531" x1="31.8644" y1="28.7082" x2="34.2486" y2="41.2371" gradientUnits="userSpaceOnUse">
<stop stop-color="#036FB7"/>
<stop offset="1" stop-color="#19ADE4"/>
</linearGradient>
<linearGradient id="paint7_linear_7121_34531" x1="53.1127" y1="27.4345" x2="-5.37881" y2="10.7862" gradientUnits="userSpaceOnUse">
<stop stop-color="#036FB7"/>
<stop offset="1" stop-color="#19ADE4"/>
</linearGradient>
<linearGradient id="paint8_linear_7121_34531" x1="50.6522" y1="36.0795" x2="-7.83966" y2="19.4313" gradientUnits="userSpaceOnUse">
<stop stop-color="#036FB7"/>
<stop offset="1" stop-color="#19ADE4"/>
</linearGradient>
<linearGradient id="paint9_linear_7121_34531" x1="30.3077" y1="18.5187" x2="52.303" y2="6.71779" gradientUnits="userSpaceOnUse">
<stop stop-color="#036FB7"/>
<stop offset="1" stop-color="#19ADE4"/>
</linearGradient>
<linearGradient id="paint10_linear_7121_34531" x1="31.1236" y1="20.0395" x2="53.119" y2="8.23862" gradientUnits="userSpaceOnUse">
<stop stop-color="#036FB7"/>
<stop offset="1" stop-color="#19ADE4"/>
</linearGradient>
<linearGradient id="paint11_linear_7121_34531" x1="30.7675" y1="19.3758" x2="52.7625" y2="7.57493" gradientUnits="userSpaceOnUse">
<stop stop-color="#036FB7"/>
<stop offset="1" stop-color="#19ADE4"/>
</linearGradient>
<linearGradient id="paint12_linear_7121_34531" x1="31.6287" y1="20.9805" x2="53.6234" y2="9.17982" gradientUnits="userSpaceOnUse">
<stop stop-color="#036FB7"/>
<stop offset="1" stop-color="#19ADE4"/>
</linearGradient>
<linearGradient id="paint13_linear_7121_34531" x1="30.228" y1="18.3703" x2="52.223" y2="6.56944" gradientUnits="userSpaceOnUse">
<stop stop-color="#036FB7"/>
<stop offset="1" stop-color="#19ADE4"/>
</linearGradient>
<linearGradient id="paint14_linear_7121_34531" x1="30.9836" y1="19.7786" x2="52.9785" y2="7.97768" gradientUnits="userSpaceOnUse">
<stop stop-color="#036FB7"/>
<stop offset="1" stop-color="#19ADE4"/>
</linearGradient>
<linearGradient id="paint15_linear_7121_34531" x1="34.2617" y1="49.0496" x2="41.1876" y2="43.573" gradientUnits="userSpaceOnUse">
<stop stop-color="#014937"/>
<stop offset="1" stop-color="#3DB38A"/>
</linearGradient>
<linearGradient id="paint16_linear_7121_34531" x1="42.7507" y1="54.0713" x2="49.1475" y2="38.7993" gradientUnits="userSpaceOnUse">
<stop stop-color="#014937"/>
<stop offset="1" stop-color="#3DB38A"/>
</linearGradient>
<linearGradient id="paint17_linear_7121_34531" x1="42.5653" y1="56.4448" x2="43.9507" y2="37.4694" gradientUnits="userSpaceOnUse">
<stop stop-color="#036FB7"/>
<stop offset="1" stop-color="#19ADE4"/>
</linearGradient>
<linearGradient id="paint18_linear_7121_34531" x1="24.0007" y1="53.3733" x2="31.0165" y2="49.8764" gradientUnits="userSpaceOnUse">
<stop stop-color="#014937"/>
<stop offset="1" stop-color="#3DB38A"/>
</linearGradient>
<linearGradient id="paint19_linear_7121_34531" x1="37.818" y1="59.3178" x2="39.6472" y2="46.3445" gradientUnits="userSpaceOnUse">
<stop stop-color="#014937"/>
<stop offset="1" stop-color="#3DB38A"/>
</linearGradient>
<linearGradient id="paint20_linear_7121_34531" x1="24.2447" y1="65.9677" x2="23.5379" y2="60.2818" gradientUnits="userSpaceOnUse">
<stop stop-color="#014937"/>
<stop offset="1" stop-color="#3DB38A"/>
</linearGradient>
<linearGradient id="paint21_linear_7121_34531" x1="6.13544" y1="62.8275" x2="22.2827" y2="56.1689" gradientUnits="userSpaceOnUse">
<stop stop-color="#014937"/>
<stop offset="1" stop-color="#3DB38A"/>
</linearGradient>
<linearGradient id="paint22_linear_7121_34531" x1="30.0942" y1="64.6759" x2="24.7834" y2="59.8076" gradientUnits="userSpaceOnUse">
<stop stop-color="#014937"/>
<stop offset="1" stop-color="#3DB38A"/>
</linearGradient>
<linearGradient id="paint23_linear_7121_34531" x1="16.3896" y1="57.6868" x2="24.0601" y2="53.2642" gradientUnits="userSpaceOnUse">
<stop stop-color="#014937"/>
<stop offset="1" stop-color="#3DB38A"/>
</linearGradient>
<linearGradient id="paint24_linear_7121_34531" x1="25.5444" y1="56.0203" x2="25.1704" y2="50.673" gradientUnits="userSpaceOnUse">
<stop stop-color="#014937"/>
<stop offset="1" stop-color="#3DB38A"/>
</linearGradient>
<linearGradient id="paint25_linear_7121_34531" x1="32.3186" y1="58.2718" x2="56.3803" y2="32.5298" gradientUnits="userSpaceOnUse">
<stop stop-color="#014937"/>
<stop offset="1" stop-color="#3DB38A"/>
</linearGradient>
<clipPath id="clip0_7121_34531">
<rect width="58" height="62" fill="white" transform="translate(0.0224609 0.112793)"/>
</clipPath>
</defs>
</svg>
