<svg width="162" height="165" viewBox="0 0 162 165" fill="none" xmlns="http://www.w3.org/2000/svg">
<path d="M151.909 65.5653C148.039 40.3386 132.168 9.34505 100.813 6.10189C100.813 6.10189 77.0079 3.21879 53.5407 7.58852C39.613 10.1817 27.4002 17.9016 19.6726 28.9965C11.945 40.0918 9.36381 53.6207 12.4962 66.519C14.5309 74.8963 15.906 83.5672 15.5284 92.1754C14.8719 107.158 15.2494 121.142 29.8527 130.077C42.8915 138.055 59.3014 145.091 74.9567 146.323C85.5959 147.161 97.527 145.806 107.781 143.048C160.038 128.993 155.78 90.7916 151.909 65.5648V65.5653Z" fill="#F4F7FA"/>
<mask id="mask0_506_38852" style="mask-type:luminance" maskUnits="userSpaceOnUse" x="4" y="12" width="82" height="125">
<path d="M85.8489 12.7463H4.17383V136.429H85.8489V12.7463Z" fill="white"/>
</mask>
<g mask="url(#mask0_506_38852)">
<mask id="mask1_506_38852" style="mask-type:luminance" maskUnits="userSpaceOnUse" x="4" y="50" width="66" height="114">
<path d="M49.2302 159.799C54.2459 141.54 41.286 135.808 36.0702 132.371C28.2044 127.186 22.7397 118.295 31.4654 111.702C40.1906 105.11 26.6255 87.7261 13.1389 81.6609C-0.0587282 75.7255 -1.40623 42.3545 27.8592 51.8525C45.3365 57.5249 47.2876 80.1026 50.3342 91.4084C53.3807 102.714 66.4137 100.516 64.8226 115.629C63.4635 128.539 61.4414 144.303 68.5321 151.211C75.6227 158.119 46.7719 168.749 49.2302 159.799Z" fill="white"/>
</mask>
<g mask="url(#mask1_506_38852)">
<path d="M13.1388 81.661C26.6254 87.7261 37.8539 102.927 30.2793 111.528C23.5847 119.13 28.2043 127.187 36.0701 132.371C39.985 134.951 48.2622 138.824 50.0275 148.316C50.6041 148.115 47.3733 164.546 48.0049 164.593C50.8222 164.8 55.7241 161.525 56.5066 165.001L71.2206 155.513C70.1304 151.877 68.0316 148.728 65.1677 145.938C58.077 139.03 63.4634 128.54 64.8225 115.63C66.4136 100.517 53.3806 102.715 50.3341 91.4094C47.2875 80.1042 45.3364 57.526 27.8591 51.8536C-1.40686 42.3545 -0.0593596 75.7255 13.1388 81.661Z" fill="#35A936"/>
<g style="mix-blend-mode:soft-light">
<path d="M29.329 76.2765C15.9958 70.1834 6.315 77.2881 6.21599 77.3624L6.41401 77.7757C6.51355 77.7009 16.4612 70.4096 30.0533 77.1094C40.0931 88.8759 46.8211 105.504 51.2115 120.49C52.928 126.349 54.3719 132.218 55.5838 137.859C46.6723 118.449 24.1905 118.446 23.9776 118.498L24.0597 118.964C24.2863 118.938 47.6852 118.823 55.9719 139.696C57.0658 144.955 57.9585 149.988 58.6823 154.591L59.0487 154.618C58.3185 149.967 57.4163 144.875 56.3087 139.553H56.3092C56.3092 139.553 56.3081 139.551 56.3081 139.55C55.6876 136.569 55.0025 133.516 54.2464 130.425C53.6539 116.054 63.061 103.726 63.1558 103.603L62.8921 103.255C62.7994 103.375 53.9488 114.971 53.8599 128.872C53.1504 126.051 52.3821 123.205 51.5493 120.362C47.4003 106.199 42.3608 94.4033 36.5329 85.1867L36.57 85.1841C34.9324 69.4153 26.159 48.6368 26.0706 48.4286L25.7582 48.6326C25.845 48.8371 34.3483 68.9772 36.1417 84.5715C35.0711 82.9099 33.9751 81.3326 32.8526 79.8449C23.581 67.5512 12.5273 61.232 0 61.0623L0.0243556 61.5341C11.9846 61.6965 21.6119 67.5507 29.329 76.277V76.2765ZM68.0656 148.297C67.2073 149.606 65.5951 152.065 64.0734 154.986L64.5081 155.019C65.981 152.229 67.5186 149.883 68.3472 148.62C68.7401 148.02 68.9016 147.773 68.9466 147.661L68.6242 147.416C68.5913 147.495 68.3478 147.866 68.065 148.297L68.0656 148.297Z" fill="#BEB8F2"/>
</g>
</g>
<path d="M34.7554 101.65C35.4723 100.623 34.605 104.385 35.8398 104.041C38.377 103.336 37.7564 106.003 44.315 102.471L63.8879 97.0305C60.8075 91.5558 54.573 86.8482 52.1422 84.1601C47.0126 78.4878 45.34 75.824 48.3316 60.3219C54.762 39.5582 51.2383 22.5996 42.1701 19.7007C32.9822 16.7633 26.8816 24.9518 26.601 34.8975C26.4215 41.261 19.6215 39.195 18.3153 47.6455C17.169 55.0629 25.9874 63.9194 29.7482 69.2264C39.572 83.0884 34.6363 92.3867 34.7554 101.65V101.65Z" fill="url(#paint0_linear_506_38852)"/>
<mask id="mask2_506_38852" style="mask-type:luminance" maskUnits="userSpaceOnUse" x="18" y="19" width="48" height="98">
<path d="M39.5217 114.227C27.4435 99.677 43.8893 89.1799 29.7477 69.2254C25.9864 63.9184 17.1686 55.0619 18.3149 47.6446C19.6211 39.1945 26.4211 41.26 26.6005 34.8965C26.8812 24.9509 32.9817 16.7623 42.1696 19.6997C51.2373 22.5991 54.7615 39.5577 48.3311 60.321C45.3401 75.8235 47.0122 78.4868 52.1417 84.1597C55.7347 88.133 67.6478 96.5166 65.3827 105.272C63.1171 114.028 43.973 119.59 39.5212 114.227H39.5217Z" fill="white"/>
</mask>
<g mask="url(#mask2_506_38852)">
<g style="mix-blend-mode:soft-light">
<path d="M41.4645 76.1361C42.7379 83.2128 44.4306 90.3613 46.5358 97.5108C46.9281 98.843 47.34 100.177 47.7615 101.513L48.0935 101.421C47.671 100.083 47.259 98.7476 46.8662 97.4138C43.3568 85.4944 40.9853 73.5777 39.8184 61.9957C39.5563 59.3952 39.3567 56.8084 39.2148 54.2389C40.3155 46.3524 52.9831 36.8333 53.1113 36.7379L52.9048 36.4379C52.4055 36.8101 41.2802 45.1721 39.1444 52.8799C38.8542 46.7183 38.9103 40.6679 39.3175 34.8068C39.7437 28.6727 40.5448 22.8079 41.6991 17.3754C41.8987 16.4354 42.1544 15.4823 42.4017 14.5608C42.7352 13.3182 43.0799 12.0341 43.2965 10.7493L42.9555 10.674C42.7416 11.9413 42.399 13.217 42.0681 14.4511C41.8192 15.3774 41.5624 16.3347 41.3607 17.2847C40.2028 22.7346 39.3996 28.6168 38.9723 34.7684C38.8971 35.8538 38.8346 36.9466 38.7833 38.0447C38.7811 38.0843 38.7255 38.0885 38.7187 38.0495C37.2504 30.0164 34.3601 22.2222 33.361 19.5278C33.1725 19.0196 33.0237 18.6184 33.0094 18.5488L32.67 18.6095C32.6875 18.7007 32.7785 18.9484 33.039 19.6501C34.1144 22.5501 37.387 31.3744 38.6991 40.0153H38.7044C38.5476 44.6576 38.6027 49.4011 38.8669 54.2084C38.8669 54.2115 38.8659 54.2152 38.8653 54.2189H38.8674C39.0099 56.8042 39.2105 59.4063 39.4737 62.0221C39.8321 65.5784 40.305 69.1663 40.8879 72.7759C35.9389 58.1274 18.9768 42.5705 18.7931 42.4034L18.5718 42.6759C18.7687 42.8547 38.2866 60.7548 41.4555 76.1387L41.464 76.1371L41.4645 76.1361ZM60.4963 90.6966C60.4518 90.7746 58.4759 94.2872 56.5931 99.0581L57.014 98.941C58.855 94.3351 60.7515 90.9676 60.7949 90.8911L60.4963 90.6961V90.6966Z" fill="#FCFDFE"/>
</g>
</g>
</g>
<path d="M113.382 122.177C108.253 103.948 121.178 98.1371 126.372 94.6678C134.206 89.4356 139.615 80.5106 130.849 73.9716C122.083 67.4325 135.54 49.9662 148.989 43.8178C162.15 37.8018 163.291 4.42279 134.085 14.1006C116.643 19.88 114.831 42.4699 111.855 53.7935C108.879 65.1172 95.8325 63.0001 97.5167 78.103C98.9558 91.0034 101.075 106.755 94.0275 113.707C86.9797 120.658 115.896 131.111 113.382 122.177Z" fill="url(#paint1_linear_506_38852)"/>
<mask id="mask3_506_38852" style="mask-type:luminance" maskUnits="userSpaceOnUse" x="92" y="12" width="66" height="114">
<path d="M113.382 122.177C108.253 103.948 121.178 98.1371 126.372 94.6678C134.206 89.4356 139.615 80.5106 130.849 73.9716C122.083 67.4325 135.54 49.9662 148.989 43.8178C162.15 37.8018 163.291 4.42279 134.085 14.1006C116.643 19.88 114.831 42.4699 111.855 53.7935C108.879 65.1172 95.8325 63.0001 97.5167 78.103C98.9558 91.0034 101.075 106.755 94.0275 113.707C86.9797 120.658 115.896 131.111 113.382 122.177Z" fill="white"/>
</mask>
<g mask="url(#mask3_506_38852)">
<path d="M148.989 43.8178C135.54 49.9657 124.406 65.2347 132.033 73.7892C138.775 81.3499 134.205 89.4351 126.372 94.6673C122.473 97.2715 114.22 101.195 112.513 110.698C111.936 110.5 115.268 126.911 114.637 126.961C111.821 127.185 106.899 123.941 106.137 127.422L91.3652 118.024C92.4326 114.381 94.5124 111.22 97.3588 108.412C104.407 101.461 98.9552 91.0035 97.5161 78.103C95.8319 63.0001 108.877 65.1172 111.854 53.7935C114.83 42.4699 116.642 19.88 134.084 14.1006C163.29 4.42279 162.149 37.8018 148.989 43.8178Z" fill="#35A936"/>
<g style="mix-blend-mode:soft-light">
<path d="M161.978 23.6108L162 23.139C149.473 23.3857 138.459 29.773 129.263 42.1225C128.15 43.6176 127.064 45.2012 126.003 46.8692C127.699 31.2643 136.078 11.0721 136.164 10.867L135.85 10.6646C135.763 10.8733 127.119 31.705 125.578 47.4838L125.615 47.4865C119.845 56.7389 114.879 68.5649 110.817 82.7532C110.002 85.6015 109.252 88.452 108.56 91.2776C108.384 77.3771 99.4627 65.8358 99.369 65.7166L99.108 66.0661C99.2038 66.1884 108.687 78.4578 108.184 92.8333C107.447 95.9278 106.781 98.9854 106.179 101.97C106.179 101.971 106.177 101.972 106.177 101.973H106.178C105.103 107.303 104.233 112.399 103.531 117.055L103.898 117.026C104.593 112.418 105.454 107.381 106.515 102.115C114.673 81.1907 138.072 81.1622 138.299 81.1865L138.378 80.7199C138.165 80.6693 115.684 80.8101 106.893 100.274C108.07 94.6273 109.477 88.7488 111.158 82.8798C115.455 67.8664 122.08 51.1978 132.047 39.3696C145.597 32.5865 155.59 39.8166 155.689 39.891L155.885 39.4766C155.786 39.4028 146.061 32.3577 132.765 38.5325C140.428 29.7593 150.019 23.846 161.978 23.6103L161.978 23.6108ZM93.9107 109.914L93.5898 110.16C93.6354 110.272 93.7985 110.518 94.195 111.116C95.0311 112.373 96.584 114.71 98.0739 117.491L98.5081 117.456C96.9679 114.543 95.3408 112.095 94.4746 110.791C94.1897 110.362 93.9435 109.992 93.9102 109.914H93.9107Z" fill="#BEB8F2"/>
</g>
</g>
<path d="M113.572 82.9235C112.848 81.9019 113.739 85.6574 112.502 85.3222C109.961 84.6326 110.598 87.2954 104.017 83.8039L84.4111 78.4842C87.4577 72.9906 93.6626 68.2444 96.077 65.5416C101.171 59.8376 102.827 57.1638 99.7398 41.6802C93.1808 20.9566 96.5995 3.97686 105.649 1.02206C114.819 -1.97176 120.97 6.17885 121.312 16.1229C121.531 22.4848 128.318 20.3777 129.677 28.8198C130.869 36.2298 122.106 45.1406 118.378 50.4703C108.64 64.3924 113.633 73.6601 113.572 82.9241V82.9235Z" fill="url(#paint2_linear_506_38852)"/>
<mask id="mask4_506_38852" style="mask-type:luminance" maskUnits="userSpaceOnUse" x="82" y="0" width="48" height="98">
<path d="M108.883 95.5308C120.87 80.906 104.36 70.5107 118.378 50.4697C122.106 45.1395 130.869 36.2287 129.677 28.8187C128.318 20.3766 121.531 22.4842 121.312 16.1218C120.97 6.17776 114.819 -1.97285 105.649 1.02096C96.5995 3.97576 93.1807 20.956 99.7393 41.6791C102.827 57.1627 101.17 59.8365 96.0764 65.5405C92.5083 69.5359 80.6471 77.9923 82.9667 86.7339C85.2863 95.4755 104.465 100.92 108.883 95.5298L108.883 95.5308Z" fill="white"/>
</mask>
<g mask="url(#mask4_506_38852)">
<g style="mix-blend-mode:soft-light">
<path d="M106.713 57.4531C109.787 42.0502 129.193 24.0309 129.389 23.8507L129.166 23.5797C128.984 23.7479 112.119 39.4091 107.26 54.0877C107.821 50.4744 108.271 46.8839 108.608 43.3255C108.855 40.708 109.04 38.1043 109.166 35.5186H109.168C109.168 35.5149 109.167 35.5112 109.166 35.508C109.401 30.6992 109.426 25.9557 109.241 21.3139H109.246C110.505 12.6662 113.722 3.8218 114.78 0.915499C115.035 0.211723 115.125 -0.0360475 115.142 -0.127248L114.802 -0.185764C114.788 -0.116178 114.641 0.286055 114.456 0.795303C113.473 3.49601 110.631 11.3076 109.213 19.3497C109.206 19.3887 109.151 19.385 109.149 19.3454C109.09 18.2479 109.022 17.1556 108.939 16.0701C108.474 9.92171 107.634 4.04427 106.442 -1.39879C106.234 -2.34717 105.971 -3.30346 105.717 -4.22812C105.378 -5.46012 105.028 -6.73377 104.806 -7.99951L104.466 -7.92202C104.69 -6.63888 105.043 -5.35627 105.384 -4.11583C105.637 -3.19592 105.899 -2.24437 106.104 -1.30548C107.292 4.12018 108.129 9.9797 108.594 16.1112C109.037 21.9697 109.131 28.0195 108.879 34.1827C106.696 26.4881 95.5191 18.1946 95.0171 17.8256L94.8128 18.1266C94.9414 18.221 107.668 27.6626 108.817 35.5423C108.691 38.1122 108.508 40.7007 108.262 43.3023C107.167 54.8916 104.87 66.822 101.434 78.763C101.049 80.0989 100.645 81.4374 100.231 82.7774L100.564 82.8676C100.977 81.5291 101.381 80.1922 101.765 78.8579C103.825 71.6958 105.474 64.5373 106.704 57.4526L106.712 57.4542L106.713 57.4531ZM87.4658 72.3252C87.5098 72.4011 89.427 75.7571 91.2965 80.3514L91.7185 80.4658C89.8061 75.706 87.8084 72.2061 87.7634 72.128L87.4658 72.3247V72.3252Z" fill="#FCFDFE"/>
</g>
</g>
<path d="M133.53 15.3889C133.538 13.3999 131.913 11.7493 129.894 11.7024L32.8613 9.44348C30.4496 9.38708 28.4868 11.113 28.4868 13.2982V141.965C28.4868 144.127 30.439 145.698 32.838 145.474L129.4 136.47C131.411 136.283 133.041 134.534 133.05 132.564L133.53 15.3889Z" fill="#014A38"/>
<path d="M137.709 15.1997C137.717 13.2107 136.092 11.5601 134.072 11.5132L37.04 9.25427C34.6283 9.19787 32.6655 10.9238 32.6655 13.109V141.775C32.6655 143.938 34.6177 145.509 37.0167 145.285L133.578 136.281C135.589 136.093 137.22 134.345 137.229 132.375L137.709 15.1997Z" fill="url(#paint3_linear_506_38852)"/>
<path d="M133.288 23.3076L132.89 124.815C132.885 125.862 132.018 126.783 130.948 126.873L40.3822 134.503C39.121 134.609 38.0991 133.773 38.0991 132.634L38.1224 22.142C38.1224 21.5142 38.4295 20.9548 38.9161 20.5816C39.319 20.2695 39.8421 20.0866 40.4166 20.0945L131.354 21.3708C132.428 21.3861 133.292 22.2522 133.288 23.3081V23.3076Z" fill="url(#paint4_linear_506_38852)"/>
<g style="mix-blend-mode:soft-light" opacity="0.9">
<path d="M129.301 127.011L40.451 134.497C39.1903 134.604 38.0991 133.773 38.0996 132.634L38.1229 22.1416C38.1229 21.5137 38.4644 20.9549 38.951 20.5817C39.2427 21.2375 39.5747 21.8838 39.9141 22.5164C49.9116 41.1503 69.8795 28.7101 83.0331 47.07C93.3197 61.4275 85.33 75.1793 96.9376 91.1036C106.106 103.678 114.32 99.2431 122.665 111.345C125.876 116.003 127.962 121.453 129.301 127.011Z" fill="white"/>
</g>
<path d="M93.9352 134.45C93.9341 134.943 93.5111 135.38 92.9896 135.426L81.9279 136.411C81.3957 136.459 80.9648 136.093 80.9658 135.595C80.9669 135.097 81.3995 134.655 81.9316 134.608L92.9938 133.641C93.5148 133.595 93.9363 133.957 93.9352 134.45V134.45Z" fill="url(#paint5_linear_506_38852)"/>
<path style="mix-blend-mode:soft-light" d="M89.6247 15.9641C89.6226 16.9626 88.7654 17.7576 87.7086 17.7402C86.6496 17.7222 85.7913 16.8962 85.7935 15.894C85.7956 14.8919 86.6576 14.0969 87.7165 14.118C88.7739 14.1391 89.6274 14.9657 89.6252 15.9641H89.6247Z" fill="url(#paint6_linear_506_38852)"/>
<mask id="mask5_506_38852" style="mask-type:luminance" maskUnits="userSpaceOnUse" x="38" y="20" width="96" height="115">
<path d="M133.288 23.3076L132.889 124.815C132.885 125.862 132.017 126.783 130.947 126.873L40.3817 134.503C39.1205 134.609 38.0986 133.773 38.0986 132.634L38.1219 22.142C38.1219 21.5142 38.429 20.9548 38.9156 20.5816C39.3185 20.2695 39.8417 20.0866 40.4161 20.0945L131.353 21.3708C132.428 21.3861 133.292 22.2522 133.288 23.3081V23.3076Z" fill="white"/>
</mask>
<g mask="url(#mask5_506_38852)">
<g style="mix-blend-mode:soft-light" opacity="0.5">
<path d="M93.4773 88.9405L78.7427 89.6227L78.7459 87.9895L93.481 87.3295L93.4773 88.9405Z" fill="white"/>
<path d="M93.3829 128.269L78.6699 129.471L78.6731 127.843L93.3866 126.662L93.3829 128.269Z" fill="white"/>
</g>
<path d="M78.7684 75.4645L67.7988 75.8341L67.8687 25.6731L78.8589 25.788L78.7684 75.4645Z" fill="url(#paint7_linear_506_38852)"/>
<g style="mix-blend-mode:soft-light">
<path d="M75.2816 66.1057L71.1655 66.2101L71.2127 35.2498L75.3335 35.2582L75.2816 66.1057Z" fill="white"/>
</g>
<path d="M67.8646 25.6731L62.1675 28.6411V76.0238L67.7989 75.8341L67.8646 25.6731Z" fill="url(#paint8_linear_506_38852)"/>
<path d="M67.7987 75.834L51.751 76.3749L51.7875 28.6785L67.8644 28.8024L67.7987 75.834Z" fill="url(#paint9_linear_506_38852)"/>
<g style="mix-blend-mode:soft-light" opacity="0.9">
<path d="M67.8559 34.139L51.7822 34.0905L51.7838 32.4109L67.858 32.4831L67.8559 34.139Z" fill="white"/>
<path d="M67.8523 36.8981L51.7808 36.8886L51.7824 35.2096L67.855 35.2428L67.8523 36.8981Z" fill="white"/>
</g>
<g style="mix-blend-mode:soft-light" opacity="0.9">
<path d="M67.8063 69.5976L51.7549 70.0505L51.7559 68.3757L67.8084 67.9465L67.8063 69.5976Z" fill="white"/>
<path d="M67.8033 72.3495L51.7534 72.8408L51.7545 71.1665L67.8054 70.6984L67.8033 72.3495Z" fill="white"/>
</g>
<path d="M51.751 76.3749L40.2451 76.7624L40.2615 25.3842L51.7902 25.5049L51.751 76.3749Z" fill="url(#paint10_linear_506_38852)"/>
<g style="mix-blend-mode:soft-light" opacity="0.5">
<path d="M50.357 32.0307L41.9199 31.9902L41.9215 28.4138L50.3597 28.4802L50.357 32.0307Z" fill="white"/>
</g>
<path d="M40.2615 25.3842L34.5649 28.3516V76.8567L40.2451 76.7624L40.2615 25.3842Z" fill="url(#paint11_linear_506_38852)"/>
<path d="M128.641 73.7844L118.626 74.1218L118.788 26.2061L128.82 26.311L128.641 73.7844Z" fill="url(#paint12_linear_506_38852)"/>
<g style="mix-blend-mode:soft-light">
<path d="M125.475 64.8367L121.718 64.9316L121.822 35.353L125.583 35.3609L125.475 64.8367Z" fill="white"/>
</g>
<path d="M118.766 26.2061L113.069 29.0338V74.4297L118.75 74.1218L118.766 26.2061Z" fill="url(#paint13_linear_506_38852)"/>
<path d="M118.626 74.1218L103.992 74.6147L104.12 29.0818L118.778 29.1951L118.626 74.1218Z" fill="url(#paint14_linear_506_38852)"/>
<g style="mix-blend-mode:soft-light" opacity="0.9">
<path d="M118.761 34.2923L104.105 34.248L104.11 32.6449L118.767 32.7108L118.761 34.2923Z" fill="white"/>
<path d="M118.752 36.9282L104.098 36.9198L104.102 35.3167L118.758 35.3467L118.752 36.9282Z" fill="white"/>
</g>
<g style="mix-blend-mode:soft-light" opacity="0.9">
<path d="M118.647 68.1642L104.009 68.577L104.014 66.9781L118.652 66.5869L118.647 68.1642Z" fill="white"/>
<path d="M118.638 70.7932L104.001 71.2413L104.006 69.6424L118.643 69.2159L118.638 70.7932Z" fill="white"/>
</g>
<path d="M103.992 74.6146L93.5107 74.9678L93.6283 25.9424L104.128 26.0526L103.992 74.6146Z" fill="url(#paint15_linear_506_38852)"/>
<g style="mix-blend-mode:soft-light" opacity="0.5">
<path d="M102.809 32.2827L95.125 32.2458L95.1335 28.8329L102.819 28.8935L102.809 32.2827Z" fill="white"/>
</g>
<path d="M93.6351 25.924L87.938 28.7512V74.9657L93.6187 74.8756L93.6351 25.924Z" fill="url(#paint16_linear_506_38852)"/>
<path d="M133.078 77.8041L38.1104 81.371L38.1114 76.4767L133.096 73.3079L133.078 77.8041Z" fill="#D8DEE8"/>
<path d="M128.436 128.171L118.44 129.013L118.602 81.3023L128.614 80.899L128.436 128.171Z" fill="url(#paint17_linear_506_38852)"/>
<g style="mix-blend-mode:soft-light" opacity="0.9">
<path d="M128.6 84.7153L118.589 85.1539L118.594 83.5787L128.605 83.1543L128.6 84.7153Z" fill="white"/>
<path d="M128.59 87.3163L118.58 87.7792L118.585 86.204L128.596 85.7554L128.59 87.3163Z" fill="white"/>
</g>
<g style="mix-blend-mode:soft-light" opacity="0.9">
<path d="M128.456 122.812L118.459 123.604L118.464 122.033L128.462 121.256L128.456 122.812Z" fill="white"/>
<path d="M128.447 125.405L118.45 126.222L118.455 124.651L128.452 123.849L128.447 125.405Z" fill="white"/>
</g>
<path d="M118.592 81.3156L110.795 81.7615L111.13 132.492L118.528 132.423L118.592 81.3156Z" fill="url(#paint18_linear_506_38852)"/>
<path d="M118.44 129.013L103.835 130.243L103.963 84.9083L118.592 84.2788L118.44 129.013Z" fill="url(#paint19_linear_506_38852)"/>
<g style="mix-blend-mode:soft-light">
<path d="M114.124 121.846L108.281 122.297L108.37 92.49L114.219 92.1964L114.124 121.846Z" fill="white"/>
</g>
<path d="M103.836 130.244L93.376 131.124L93.493 82.3146L103.972 81.8923L103.836 130.244Z" fill="url(#paint20_linear_506_38852)"/>
<g style="mix-blend-mode:soft-light" opacity="0.5">
<path d="M102.656 88.1609L94.9868 88.5136L94.9953 85.1154L102.665 84.787L102.656 88.1609Z" fill="white"/>
</g>
<g style="mix-blend-mode:soft-light" opacity="0.5">
<path d="M102.546 127.698L94.8887 128.324L94.8971 124.937L102.555 124.334L102.546 127.698Z" fill="white"/>
</g>
<path d="M93.4903 82.3204L85.6934 82.7669L86.0285 133.497L93.4268 133.428L93.4903 82.3204Z" fill="url(#paint21_linear_506_38852)"/>
<path d="M93.3759 131.124L78.6646 132.364L78.753 83.9972L93.4903 83.3894L93.3759 131.124Z" fill="url(#paint22_linear_506_38852)"/>
<g style="mix-blend-mode:soft-light">
<path d="M81.8195 132.096L78.5977 132.364L78.6125 83.9841L81.8386 83.8702L81.8195 132.096Z" fill="white"/>
</g>
<path d="M78.6645 132.364L67.7183 133.286L67.7882 83.3505L78.7551 82.9087L78.6645 132.364Z" fill="url(#paint23_linear_506_38852)"/>
<g style="mix-blend-mode:soft-light" opacity="0.9">
<path d="M78.7476 86.901L67.7822 87.3818L67.7843 85.7328L78.7502 85.2678L78.7476 86.901Z" fill="white"/>
<path d="M78.7426 89.6228L67.7788 90.1299L67.7809 88.481L78.7457 87.9896L78.7426 89.6228Z" fill="white"/>
</g>
<g style="mix-blend-mode:soft-light" opacity="0.9">
<path d="M78.6745 126.758L67.7261 127.626L67.7282 125.982L78.6776 125.13L78.6745 126.758Z" fill="white"/>
<path d="M78.67 129.471L67.7227 130.365L67.7248 128.722L78.6732 127.843L78.67 129.471Z" fill="white"/>
</g>
<path d="M67.8418 83.3605L59.8271 84.2788V134.537L67.7824 134.468L67.8418 83.3605Z" fill="url(#paint24_linear_506_38852)"/>
<path d="M67.7183 133.286L51.7061 134.635L51.7426 87.156L67.784 86.4655L67.7183 133.286Z" fill="url(#paint25_linear_506_38852)"/>
<g style="mix-blend-mode:soft-light">
<path d="M62.971 125.802L56.5645 126.297L56.5946 95.0857L63.0086 94.7642L62.971 125.802Z" fill="white"/>
</g>
<path d="M51.706 134.635L40.2266 135.603L40.2424 84.4607L51.7452 83.9973L51.706 134.635Z" fill="url(#paint26_linear_506_38852)"/>
<g style="mix-blend-mode:soft-light" opacity="0.5">
<path d="M50.315 90.5659L41.8975 90.9528L41.8985 87.3923L50.3176 87.0317L50.315 90.5659Z" fill="white"/>
</g>
<g style="mix-blend-mode:soft-light" opacity="0.5">
<path d="M50.2856 131.975L41.8813 132.663L41.8829 129.114L50.2883 128.452L50.2856 131.975Z" fill="white"/>
</g>
<path d="M40.2902 84.4955L35.8945 84.9415V135.672L40.2267 135.603L40.2902 84.4955Z" fill="url(#paint27_linear_506_38852)"/>
</g>
<path d="M106.65 80.7067L112.576 82.7273L123.263 36.3483C123.263 36.3483 119.649 34.1474 117.594 33.4125L106.65 80.7067Z" fill="url(#paint28_linear_506_38852)"/>
<path d="M73.8994 74.293L106.893 80.7477L117.764 33.7588C117.805 33.5848 117.688 33.4172 117.512 33.3966L84.4772 29.5446L73.8994 74.293Z" fill="url(#paint29_linear_506_38852)"/>
<path opacity="0.64" d="M85.6702 31.3728L115.684 34.9581L105.562 78.657L75.856 72.934L85.6702 31.3728ZM115.206 35.2955L85.936 31.7808L76.2917 72.6314L105.268 78.1941L115.206 35.2955Z" fill="white"/>
<g style="mix-blend-mode:soft-light" opacity="0.3">
<path d="M92.9473 36.6055C93.6478 41.2657 91.0322 42.4365 91.2233 47.8216C91.6125 58.7789 102.805 62.235 102.906 72.0299C102.925 73.8913 102.543 76.4581 100.726 79.5416L106.893 80.7483L117.764 33.7593C117.804 33.5853 117.687 33.4177 117.512 33.3971L89.9658 30.1851C91.479 32.0212 92.5782 34.151 92.9473 36.6055Z" fill="white"/>
</g>
<path d="M73.8732 74.3938C73.8334 74.3637 73.8663 74.2952 73.9155 74.3052L106.651 80.7066C107.97 80.9702 112.508 82.7109 112.508 82.7109C113.004 83.0046 111.551 83.7036 110.993 83.5803L77.6467 77.1177C77.5964 77.1066 77.5498 77.0844 77.5085 77.0539L77.2941 76.892C77.2162 76.8335 77.1861 76.7291 77.2184 76.6332L77.3724 76.1803L75.1116 74.9842L74.4773 74.8455C74.4709 74.844 74.4651 74.8413 74.4603 74.8376L73.8726 74.3938H73.8732Z" fill="url(#paint30_linear_506_38852)"/>
<path d="M74.478 74.8455L106.749 81.3576L110.957 82.8827L77.2191 76.6331L74.478 74.8455Z" fill="#EFEFEF"/>
<path d="M132.583 143.762C133.623 144.807 134.044 145.928 133.666 146.586C133.405 147.04 132.828 147.158 132.196 147.28C131.197 147.47 130.156 147.419 128.015 146.817C126.017 146.255 124.843 145.925 124.842 145.447C124.841 145 125.868 144.652 126.77 144.347C128.045 143.916 129.164 143.794 129.932 143.762H132.583L132.583 143.762Z" fill="url(#paint31_linear_506_38852)"/>
<path d="M101.509 126.816C101.977 127.018 102.578 127.373 102.738 127.96C102.991 128.887 101.996 129.843 100.405 131.335C99.2118 132.455 97.5996 133.967 97.0383 133.585C96.6947 133.352 96.898 132.512 97.087 131.73C97.3147 130.789 97.8177 129.332 99.0635 127.736L101.509 126.816Z" fill="url(#paint32_linear_506_38852)"/>
<path d="M130.301 141.46L132.539 143.93C132.769 144.184 132.654 144.592 132.323 144.684C131.833 144.82 131.15 144.93 130.523 144.754C130.385 144.715 130.263 144.632 130.161 144.532L127.927 142.36L130.301 141.459L130.301 141.46Z" fill="url(#paint33_linear_506_38852)"/>
<path d="M100.269 125.324L101.475 127.056C101.646 127.301 101.564 127.638 101.302 127.782C101.128 127.877 100.921 127.978 100.705 128.056C100.354 128.182 99.9614 128.088 99.7136 127.81L98.4048 126.343L100.269 125.324V125.324Z" fill="url(#paint34_linear_506_38852)"/>
<path d="M121.941 89.0602C120.793 91.4473 119.411 94.8902 118.572 99.1988C118.219 101.011 116.568 110.135 120.116 121.13C123.418 131.363 129.5 137.877 132.736 140.897C132.278 141.283 131.643 141.736 130.822 142.117C129.507 142.726 128.306 142.875 127.536 142.906C117.654 135.882 112.861 127.924 110.686 123.593C103.346 108.982 105.187 94.6372 108.396 88.5705C109.45 86.5783 110.639 85.4997 111.987 85.0194C116.313 83.4791 121.329 88.4408 121.94 89.0597L121.941 89.0602Z" fill="#1B4688"/>
<path opacity="0.3" d="M108.396 88.5705C109.45 86.5783 110.639 85.4997 111.987 85.0194C116.313 83.4791 121.329 88.4408 121.94 89.0597C120.809 91.4135 119.452 94.7974 118.609 99.0211C115.587 99.7286 111.365 101.407 109.307 105.373C105.978 111.79 110.764 119.481 111.757 121.076C113.943 124.589 115.266 124.26 118.495 129.309C120.933 133.123 121.119 134.784 123.241 136.628C125.737 138.795 128.853 139.43 131.369 139.568C131.862 140.067 132.322 140.511 132.735 140.896C132.277 141.282 131.642 141.735 130.821 142.116C129.506 142.725 128.305 142.873 127.535 142.905C117.653 135.881 112.86 127.923 110.685 123.592C103.345 108.98 105.186 94.6361 108.395 88.5694L108.396 88.5705Z" fill="#173560"/>
<path d="M116.352 88.5262C115.82 89.6016 114.896 91.2063 113.366 92.7952C109.487 96.8228 105.86 96.4417 101.75 99.7586C101.244 100.168 97.6042 103.173 96.2604 107.557C93.6729 115.997 101.192 124.319 102.025 125.215C101.541 125.661 100.811 126.238 99.8142 126.718C98.8977 127.159 98.0606 127.371 97.4406 127.48C86.6595 117.672 81.3918 105.787 84.9795 98.0638C86.9364 93.8511 91.5693 90.7883 94.9907 88.5262C100.585 84.8275 105.925 83.1474 109.401 82.3271C111.718 84.3937 114.035 86.4596 116.352 88.5262Z" fill="#1B4688"/>
<path d="M109.92 66.1398C109.758 70.8859 110.863 73.3473 109.315 77.2204C108.203 80.0039 106.36 81.9165 104.962 83.1058C105.758 84.6261 107.612 87.6616 111.231 90.0328C115.603 92.8975 119.952 93.0894 121.66 93.0746C125.277 91.2216 130.764 87.7291 135.168 81.5095C138.153 77.2937 141.431 72.6646 140.564 66.7634C139.462 59.2671 132.485 55.2621 130.507 54.1266C129.205 53.3791 120.213 48.218 114.717 52.0116C110.298 55.0618 110.041 62.5898 109.919 66.1398H109.92Z" fill="#249899"/>
<path d="M79.8697 71.527C79.7257 70.7605 79.1745 70.2038 78.86 69.8875C78.4947 69.5206 78.42 69.5786 78.1818 69.2781C77.5819 68.5221 77.7269 67.7414 77.4961 67.715C77.2954 67.6924 76.9433 68.2543 76.9672 68.8358C76.9942 69.4858 77.4707 69.6798 77.3812 70.0398C77.2547 70.5465 76.1242 70.9144 75.1225 70.7257C73.9613 70.5069 73.3948 69.5749 72.9405 69.8111C72.6107 69.9824 72.6318 70.596 72.6345 70.6498C72.6853 71.8001 74.2293 73.0078 75.7351 73.1655C76.6024 73.2561 76.9269 72.9435 77.9557 73.2034C78.6382 73.3758 78.8764 73.6099 79.219 73.4702C79.7797 73.2408 80.0074 72.2592 79.8697 71.5265V71.527Z" fill="url(#paint35_linear_506_38852)"/>
<path d="M79.7032 71.1205C88.9864 71.7605 94.5316 69.3566 97.8741 67.055C105.457 61.8339 106.944 53.533 115.739 51.3004C117.343 50.8935 120.136 50.1844 121.66 51.6052C124.827 54.5584 121.092 65.3817 114.514 72.0352C113.062 73.5044 107.828 78.6433 99.1899 79.8036C88.1186 81.2908 80.1766 75.0701 78.8068 73.9599C78.3727 73.4728 78.2403 72.7911 78.4658 72.1933C78.783 71.353 79.6344 71.1369 79.7038 71.1205H79.7032Z" fill="#249899"/>
<path style="mix-blend-mode:multiply" opacity="0.3" d="M125.641 85.6552C128.255 83.1896 127.018 81.6619 130.235 76.7107C133.512 71.6667 135.871 71.5734 137.381 68.1731C138.162 66.4139 138.644 63.8877 137.783 60.2587C139.107 62.0352 140.185 64.1887 140.563 66.764C141.431 72.6646 138.153 77.2937 135.168 81.51C130.763 87.7296 125.277 91.2221 121.66 93.0751C119.953 93.0899 115.604 92.898 111.231 90.0334C109.608 88.9706 108.343 87.7749 107.367 86.6415C108.702 87.3738 110.264 88.0132 112.064 88.3996C112.936 88.5868 120.85 90.1736 125.641 85.6552H125.641Z" fill="url(#paint36_linear_506_38852)"/>
<path d="M128.038 48.9929L128.794 51.5371C129.036 52.351 129.527 53.0695 130.199 53.5925L132.205 55.1572C132.205 55.1572 126.085 54.1339 123.157 51.294L124.945 50.7326C125.133 50.6735 125.26 50.5001 125.26 50.304V48.4336L128.038 48.9929H128.038Z" fill="url(#paint37_linear_506_38852)"/>
<path d="M125.839 50.2783C125.548 50.214 123.435 50.5582 122.834 49.5471C122.019 48.1743 122.83 45.9813 122.912 45.6423C123.255 44.2237 123.383 44.0086 123.647 43.7086L124.021 43.3149C124.021 43.3149 124.044 43.2975 124.068 43.2806C124.328 43.1024 125.299 42.813 125.509 42.803C126.179 42.7692 127.541 45.16 128.321 48.8438C128.385 48.9751 128.447 49.1079 128.509 49.2424C128.67 49.5914 125.857 50.4127 125.838 50.2783H125.839Z" fill="url(#paint38_linear_506_38852)"/>
<path d="M122.432 42.6311C122.737 43.7555 123.591 44.8162 123.914 44.9374C123.956 44.9532 124.195 45.056 124.443 45.2743C124.476 45.3038 124.509 45.3407 124.543 45.3903C124.98 46.034 124.071 47.169 124.375 47.4288C124.595 47.617 125.282 47.1046 125.427 47.2791C125.564 47.4436 125.028 48.0008 125.186 48.1991C125.305 48.3488 125.657 48.0894 125.975 48.2829C126.134 48.3793 126.125 48.4911 126.361 48.8512C126.495 49.0547 126.664 49.2713 126.781 49.3862C127.349 49.9435 128.52 49.8913 128.662 49.5702C128.702 49.4806 128.634 49.4326 128.628 49.169C128.628 49.169 128.623 48.925 128.712 48.6171C128.84 48.178 129.32 47.7604 129.77 47.2127C130.604 46.1984 130.716 45.4931 130.743 45.2574C130.753 45.1736 130.756 45.1114 130.759 45.0666C130.805 44.1657 130.48 42.9468 129.905 42.2968C128.941 41.2082 127.685 42.1798 126.194 41.2435C124.473 40.1634 124.743 37.9904 123.96 37.9666C123.097 37.9398 121.868 40.5524 122.432 42.6316L122.432 42.6311Z" fill="#26264F"/>
<path d="M124.71 47.0556C124.885 46.6033 125.467 46.83 125.601 47.3197C125.735 47.8095 125.395 48.4458 124.906 48.4721C124.417 48.498 124.473 47.665 124.71 47.0561V47.0556Z" fill="url(#paint39_linear_506_38852)"/>
<path d="M13.8125 123.616L45.3795 122.25L81.7499 123.519L45.8693 131.327L13.8125 123.616Z" fill="url(#paint40_linear_506_38852)"/>
<path d="M39.246 153.903L13.6763 147.051C11.1009 146.361 9.10059 143.82 9.10059 141.357V141.33C9.10059 138.866 11.1015 137.213 13.6763 137.666L41.1013 142.134L39.246 153.902V153.903Z" fill="url(#paint41_linear_506_38852)"/>
<path d="M81.7938 148.757L40.4786 153.351C37.8911 153.639 35.7632 151.842 35.7632 149.334V147.632C35.7632 145.124 37.8906 142.922 40.4786 142.717L81.7938 139.443C79.9655 142.831 79.5435 146.002 81.7938 148.757V148.757Z" fill="url(#paint42_linear_506_38852)"/>
<path d="M82.1533 149.214L40.8244 153.88C37.449 154.261 34.6523 151.907 34.6523 148.625V148.59C34.6523 145.309 37.4495 142.422 40.8244 142.159L82.1533 138.95C82.4021 138.93 82.6033 139.136 82.6033 139.41C82.6033 139.684 82.4021 139.922 82.1533 139.942L40.8244 143.292C38.1093 143.512 35.8669 145.838 35.8669 148.474V148.51C35.8669 151.145 38.1087 153.044 40.8244 152.746L82.1533 148.222C82.4021 148.194 82.6033 148.394 82.6033 148.668C82.6033 148.941 82.4021 149.186 82.1533 149.214Z" fill="url(#paint43_linear_506_38852)"/>
<path d="M40.3203 142.162L13.6763 137.666C11.1009 137.213 9.10059 133.853 9.10059 130.154V130.113C9.10059 126.414 11.1015 123.478 13.6763 123.574L41.9405 124.619L40.3203 142.162Z" fill="url(#paint44_linear_506_38852)"/>
<path d="M81.7938 138.232L42.794 141.161C38.9479 141.45 35.7632 138.636 35.7632 134.87V132.315C35.7632 128.549 38.9474 125.409 42.794 125.305L81.7938 124.246C79.9597 129.324 79.5499 134.079 81.7938 138.232Z" fill="url(#paint45_linear_506_38852)"/>
<path d="M82.1533 138.95L40.8244 142.159C37.449 142.421 34.6523 138.63 34.6523 133.703V133.649C34.6523 128.722 37.4495 124.644 40.8244 124.561L82.1533 123.538C82.4021 123.532 82.6033 123.861 82.6033 124.271C82.6033 124.682 82.4021 125.021 82.1533 125.028L40.8244 126.262C38.1093 126.344 35.8669 129.63 35.8669 133.587V133.641C35.8669 137.598 38.1087 140.655 40.8244 140.457L82.1533 137.459C82.4021 137.442 82.6033 137.76 82.6033 138.171C82.6033 138.581 82.4021 138.93 82.1533 138.949V138.95Z" fill="url(#paint46_linear_506_38852)"/>
<g style="mix-blend-mode:soft-light" opacity="0.5">
<path d="M32.0582 138.455L26.3627 137.464C25.0327 133.849 25.1327 130.53 26.3627 126.561L32.0582 126.965C30.8907 131.14 31.0676 134.922 32.0582 138.455Z" fill="white"/>
</g>
<defs>
<linearGradient id="paint0_linear_506_38852" x1="39.1085" y1="31.5722" x2="44.1224" y2="140.02" gradientUnits="userSpaceOnUse">
<stop stop-color="#FABD1F"/>
<stop offset="1" stop-color="#D39F2D"/>
</linearGradient>
<linearGradient id="paint1_linear_506_38852" x1="92.9172" y1="68.9887" x2="157.854" y2="68.9887" gradientUnits="userSpaceOnUse">
<stop stop-color="#A1B854"/>
<stop offset="1" stop-color="#297F50"/>
</linearGradient>
<linearGradient id="paint2_linear_506_38852" x1="108.784" y1="12.8671" x2="104.43" y2="121.346" gradientUnits="userSpaceOnUse">
<stop stop-color="#FABD1F"/>
<stop offset="1" stop-color="#D39F2D"/>
</linearGradient>
<linearGradient id="paint3_linear_506_38852" x1="15.9369" y1="150.587" x2="131.581" y2="19.0375" gradientUnits="userSpaceOnUse">
<stop stop-color="#014937"/>
<stop offset="1" stop-color="#3DB38A"/>
</linearGradient>
<linearGradient id="paint4_linear_506_38852" x1="88.5084" y1="8.62216" x2="80.7699" y2="177.26" gradientUnits="userSpaceOnUse">
<stop offset="0.49" stop-color="#EBEFF2"/>
<stop offset="1" stop-color="white"/>
</linearGradient>
<linearGradient id="paint5_linear_506_38852" x1="87.9792" y1="121.615" x2="82.2384" y2="268.384" gradientUnits="userSpaceOnUse">
<stop stop-color="#444B8C"/>
<stop offset="1" stop-color="#26264F"/>
</linearGradient>
<linearGradient id="paint6_linear_506_38852" x1="88.3042" y1="0.837969" x2="81.8449" y2="165.984" gradientUnits="userSpaceOnUse">
<stop offset="0.49" stop-color="#EBEFF2"/>
<stop offset="1" stop-color="white"/>
</linearGradient>
<linearGradient id="paint7_linear_506_38852" x1="67.7988" y1="50.7533" x2="78.8589" y2="50.7533" gradientUnits="userSpaceOnUse">
<stop stop-color="#FF9085"/>
<stop offset="1" stop-color="#FB6FBB"/>
</linearGradient>
<linearGradient id="paint8_linear_506_38852" x1="62.1675" y1="50.8482" x2="67.8646" y2="50.8482" gradientUnits="userSpaceOnUse">
<stop stop-color="#FF9085"/>
<stop offset="1" stop-color="#FB6FBB"/>
</linearGradient>
<linearGradient id="paint9_linear_506_38852" x1="61.831" y1="-3.04149" x2="57.3868" y2="118.596" gradientUnits="userSpaceOnUse">
<stop stop-color="#AA80F9"/>
<stop offset="1" stop-color="#6165D7"/>
</linearGradient>
<linearGradient id="paint10_linear_506_38852" x1="49.4669" y1="12.333" x2="31.4874" y2="214.357" gradientUnits="userSpaceOnUse">
<stop stop-color="#FFC444"/>
<stop offset="1" stop-color="#F36F56"/>
</linearGradient>
<linearGradient id="paint11_linear_506_38852" x1="34.5649" y1="51.1202" x2="40.2615" y2="51.1202" gradientUnits="userSpaceOnUse">
<stop stop-color="#FFC444"/>
<stop offset="1" stop-color="#F36F56"/>
</linearGradient>
<linearGradient id="paint12_linear_506_38852" x1="125.995" y1="29.1387" x2="118.548" y2="97.8494" gradientUnits="userSpaceOnUse">
<stop stop-color="#E38DDD"/>
<stop offset="1" stop-color="#9571F6"/>
</linearGradient>
<linearGradient id="paint13_linear_506_38852" x1="113.069" y1="50.3179" x2="118.766" y2="50.3179" gradientUnits="userSpaceOnUse">
<stop stop-color="#E38DDD"/>
<stop offset="1" stop-color="#9571F6"/>
</linearGradient>
<linearGradient id="paint14_linear_506_38852" x1="113.319" y1="-1.18212" x2="109.077" y2="114.896" gradientUnits="userSpaceOnUse">
<stop stop-color="#40447E"/>
<stop offset="1" stop-color="#3C3B6B"/>
</linearGradient>
<linearGradient id="paint15_linear_506_38852" x1="102.111" y1="13.5096" x2="84.9655" y2="206.164" gradientUnits="userSpaceOnUse">
<stop stop-color="#AA80F9"/>
<stop offset="1" stop-color="#6165D7"/>
</linearGradient>
<linearGradient id="paint16_linear_506_38852" x1="87.938" y1="50.4448" x2="93.6351" y2="50.4448" gradientUnits="userSpaceOnUse">
<stop stop-color="#AA80F9"/>
<stop offset="1" stop-color="#6165D7"/>
</linearGradient>
<linearGradient id="paint17_linear_506_38852" x1="127.138" y1="67.0581" x2="119.062" y2="151.879" gradientUnits="userSpaceOnUse">
<stop stop-color="#FFC444"/>
<stop offset="1" stop-color="#F36F56"/>
</linearGradient>
<linearGradient id="paint18_linear_506_38852" x1="110.795" y1="106.904" x2="118.592" y2="106.904" gradientUnits="userSpaceOnUse">
<stop stop-color="#FFC444"/>
<stop offset="1" stop-color="#F36F56"/>
</linearGradient>
<linearGradient id="paint19_linear_506_38852" x1="113.171" y1="53.5457" x2="108.879" y2="170.997" gradientUnits="userSpaceOnUse">
<stop stop-color="#AA80F9"/>
<stop offset="1" stop-color="#6165D7"/>
</linearGradient>
<linearGradient id="paint20_linear_506_38852" x1="101.986" y1="69.2739" x2="84.7326" y2="263.145" gradientUnits="userSpaceOnUse">
<stop stop-color="#FF9085"/>
<stop offset="1" stop-color="#FB6FBB"/>
</linearGradient>
<linearGradient id="paint21_linear_506_38852" x1="85.6934" y1="107.909" x2="93.4903" y2="107.909" gradientUnits="userSpaceOnUse">
<stop stop-color="#FF9085"/>
<stop offset="1" stop-color="#FB6FBB"/>
</linearGradient>
<linearGradient id="paint22_linear_506_38852" x1="87.3325" y1="82.6008" x2="84.2262" y2="144.273" gradientUnits="userSpaceOnUse">
<stop stop-color="#AA80F9"/>
<stop offset="1" stop-color="#6165D7"/>
</linearGradient>
<linearGradient id="paint23_linear_506_38852" x1="77.0174" y1="68.3877" x2="68.5545" y2="157.264" gradientUnits="userSpaceOnUse">
<stop stop-color="#FFC444"/>
<stop offset="1" stop-color="#F36F56"/>
</linearGradient>
<linearGradient id="paint24_linear_506_38852" x1="59.8271" y1="108.949" x2="67.8418" y2="108.949" gradientUnits="userSpaceOnUse">
<stop stop-color="#FFC444"/>
<stop offset="1" stop-color="#F36F56"/>
</linearGradient>
<linearGradient id="paint25_linear_506_38852" x1="61.7941" y1="54.2326" x2="57.2947" y2="177.375" gradientUnits="userSpaceOnUse">
<stop stop-color="#40447E"/>
<stop offset="1" stop-color="#3C3B6B"/>
</linearGradient>
<linearGradient id="paint26_linear_506_38852" x1="49.4579" y1="70.7431" x2="31.3597" y2="274.102" gradientUnits="userSpaceOnUse">
<stop stop-color="#E38DDD"/>
<stop offset="1" stop-color="#9571F6"/>
</linearGradient>
<linearGradient id="paint27_linear_506_38852" x1="35.8945" y1="110.084" x2="40.2902" y2="110.084" gradientUnits="userSpaceOnUse">
<stop stop-color="#E38DDD"/>
<stop offset="1" stop-color="#9571F6"/>
</linearGradient>
<linearGradient id="paint28_linear_506_38852" x1="125.145" y1="62.4795" x2="92.1598" y2="48.6638" gradientUnits="userSpaceOnUse">
<stop stop-color="#FFC444"/>
<stop offset="1" stop-color="#F36F56"/>
</linearGradient>
<linearGradient id="paint29_linear_506_38852" x1="104.072" y1="54.5406" x2="35.2929" y2="59.6971" gradientUnits="userSpaceOnUse">
<stop stop-color="#FFC444"/>
<stop offset="1" stop-color="#F36F56"/>
</linearGradient>
<linearGradient id="paint30_linear_506_38852" x1="75.4159" y1="90.4765" x2="113.748" y2="64.8817" gradientUnits="userSpaceOnUse">
<stop stop-color="#FFC444"/>
<stop offset="1" stop-color="#F36F56"/>
</linearGradient>
<linearGradient id="paint31_linear_506_38852" x1="133.803" y1="145.57" x2="124.842" y2="145.57" gradientUnits="userSpaceOnUse">
<stop stop-color="#40447E"/>
<stop offset="1" stop-color="#3C3B6B"/>
</linearGradient>
<linearGradient id="paint32_linear_506_38852" x1="102.777" y1="130.231" x2="96.8525" y2="130.231" gradientUnits="userSpaceOnUse">
<stop stop-color="#40447E"/>
<stop offset="1" stop-color="#3C3B6B"/>
</linearGradient>
<linearGradient id="paint33_linear_506_38852" x1="129.429" y1="145.137" x2="126.2" y2="151.854" gradientUnits="userSpaceOnUse">
<stop stop-color="#311944"/>
<stop offset="1" stop-color="#A03976"/>
</linearGradient>
<linearGradient id="paint34_linear_506_38852" x1="98.1321" y1="118.594" x2="103.063" y2="140.655" gradientUnits="userSpaceOnUse">
<stop stop-color="#311944"/>
<stop offset="1" stop-color="#A03976"/>
</linearGradient>
<linearGradient id="paint35_linear_506_38852" x1="72.8616" y1="74.8724" x2="76.7822" y2="70.9348" gradientUnits="userSpaceOnUse">
<stop stop-color="#311944"/>
<stop offset="1" stop-color="#A03976"/>
</linearGradient>
<linearGradient id="paint36_linear_506_38852" x1="114.903" y1="48.5612" x2="127.512" y2="87.6237" gradientUnits="userSpaceOnUse">
<stop stop-color="#AA80F9"/>
<stop offset="1" stop-color="#6165D7"/>
</linearGradient>
<linearGradient id="paint37_linear_506_38852" x1="130.946" y1="58.5869" x2="120.802" y2="41.7769" gradientUnits="userSpaceOnUse">
<stop stop-color="#311944"/>
<stop offset="1" stop-color="#A03976"/>
</linearGradient>
<linearGradient id="paint38_linear_506_38852" x1="131.669" y1="58.1505" x2="121.526" y2="41.341" gradientUnits="userSpaceOnUse">
<stop stop-color="#311944"/>
<stop offset="1" stop-color="#A03976"/>
</linearGradient>
<linearGradient id="paint39_linear_506_38852" x1="131.484" y1="58.2622" x2="121.34" y2="41.4523" gradientUnits="userSpaceOnUse">
<stop stop-color="#311944"/>
<stop offset="1" stop-color="#A03976"/>
</linearGradient>
<linearGradient id="paint40_linear_506_38852" x1="13.8125" y1="126.788" x2="81.7499" y2="126.788" gradientUnits="userSpaceOnUse">
<stop stop-color="#FFC444"/>
<stop offset="1" stop-color="#F36F56"/>
</linearGradient>
<linearGradient id="paint41_linear_506_38852" x1="21.3351" y1="153.606" x2="26.8325" y2="141.047" gradientUnits="userSpaceOnUse">
<stop stop-color="#AA80F9"/>
<stop offset="1" stop-color="#6165D7"/>
</linearGradient>
<linearGradient id="paint42_linear_506_38852" x1="35.7632" y1="146.412" x2="81.7938" y2="146.412" gradientUnits="userSpaceOnUse">
<stop stop-color="#F4F7FA"/>
<stop offset="1" stop-color="#D8DEE8"/>
</linearGradient>
<linearGradient id="paint43_linear_506_38852" x1="34.6523" y1="146.434" x2="82.6033" y2="146.434" gradientUnits="userSpaceOnUse">
<stop stop-color="#AA80F9"/>
<stop offset="1" stop-color="#6165D7"/>
</linearGradient>
<linearGradient id="paint44_linear_506_38852" x1="29.3745" y1="119.789" x2="19.7425" y2="152.374" gradientUnits="userSpaceOnUse">
<stop stop-color="#FFC444"/>
<stop offset="1" stop-color="#F36F56"/>
</linearGradient>
<linearGradient id="paint45_linear_506_38852" x1="9.34969e-05" y1="132.713" x2="0.0530406" y2="132.713" gradientUnits="userSpaceOnUse">
<stop stop-color="#F4F7FA"/>
<stop offset="1" stop-color="#D8DEE8"/>
</linearGradient>
<linearGradient id="paint46_linear_506_38852" x1="34.6523" y1="132.855" x2="82.6033" y2="132.855" gradientUnits="userSpaceOnUse">
<stop stop-color="#FFC444"/>
<stop offset="1" stop-color="#F36F56"/>
</linearGradient>
</defs>
</svg>
