<svg width="32" height="32" viewBox="0 0 32 32" fill="none" xmlns="http://www.w3.org/2000/svg">
<g clip-path="url(#clip0_1383_748)">
<path d="M22.6667 17.3333H9.33333C8.97971 17.3333 8.64057 17.1928 8.39052 16.9428C8.14048 16.6927 8 16.3536 8 16C8 15.6463 8.14048 15.3072 8.39052 15.0572C8.64057 14.8071 8.97971 14.6666 9.33333 14.6666H22.6667C23.0203 14.6666 23.3594 14.8071 23.6095 15.0572C23.8595 15.3072 24 15.6463 24 16C24 16.3536 23.8595 16.6927 23.6095 16.9428C23.3594 17.1928 23.0203 17.3333 22.6667 17.3333Z" fill="#218460"/>
<path d="M16 2.66663C13.4762 2.66625 11.0041 3.3822 8.87104 4.73124C6.73802 6.08029 5.03168 8.00702 3.95039 10.2875C2.86909 12.5679 2.45723 15.1085 2.7627 17.6137C3.06817 20.119 4.07841 22.4861 5.67599 24.44L3.05732 27.0573C2.87091 27.2438 2.74397 27.4813 2.69255 27.7399C2.64112 27.9985 2.66753 28.2666 2.76842 28.5102C2.86931 28.7538 3.04017 28.962 3.25938 29.1085C3.47859 29.255 3.73632 29.3332 3.99999 29.3333H16C19.5362 29.3333 22.9276 27.9285 25.4281 25.428C27.9286 22.9276 29.3333 19.5362 29.3333 16C29.3333 12.4637 27.9286 9.07235 25.4281 6.57187C22.9276 4.07138 19.5362 2.66663 16 2.66663ZM12 9.33329H20C20.3536 9.33329 20.6927 9.47377 20.9428 9.72382C21.1928 9.97387 21.3333 10.313 21.3333 10.6666C21.3333 11.0202 21.1928 11.3594 20.9428 11.6094C20.6927 11.8595 20.3536 12 20 12H12C11.6464 12 11.3072 11.8595 11.0572 11.6094C10.8071 11.3594 10.6667 11.0202 10.6667 10.6666C10.6667 10.313 10.8071 9.97387 11.0572 9.72382C11.3072 9.47377 11.6464 9.33329 12 9.33329ZM20 22.6666H12C11.6464 22.6666 11.3072 22.5261 11.0572 22.2761C10.8071 22.0261 10.6667 21.6869 10.6667 21.3333C10.6667 20.9797 10.8071 20.6405 11.0572 20.3905C11.3072 20.1404 11.6464 20 12 20H20C20.3536 20 20.6927 20.1404 20.9428 20.3905C21.1928 20.6405 21.3333 20.9797 21.3333 21.3333C21.3333 21.6869 21.1928 22.0261 20.9428 22.2761C20.6927 22.5261 20.3536 22.6666 20 22.6666ZM22.6667 17.3333H9.33332C8.9797 17.3333 8.64056 17.1928 8.39051 16.9428C8.14047 16.6927 7.99999 16.3536 7.99999 16C7.99999 15.6463 8.14047 15.3072 8.39051 15.0571C8.64056 14.8071 8.9797 14.6666 9.33332 14.6666H22.6667C23.0203 14.6666 23.3594 14.8071 23.6095 15.0571C23.8595 15.3072 24 15.6463 24 16C24 16.3536 23.8595 16.6927 23.6095 16.9428C23.3594 17.1928 23.0203 17.3333 22.6667 17.3333Z" fill="#98D9C0"/>
<path d="M20 22.6667H12C11.6464 22.6667 11.3073 22.5262 11.0572 22.2762C10.8072 22.0261 10.6667 21.687 10.6667 21.3334C10.6667 20.9798 10.8072 20.6406 11.0572 20.3906C11.3073 20.1405 11.6464 20 12 20H20C20.3536 20 20.6928 20.1405 20.9428 20.3906C21.1929 20.6406 21.3334 20.9798 21.3334 21.3334C21.3334 21.687 21.1929 22.0261 20.9428 22.2762C20.6928 22.5262 20.3536 22.6667 20 22.6667ZM20 12H12C11.6464 12 11.3073 11.8596 11.0572 11.6095C10.8072 11.3595 10.6667 11.0203 10.6667 10.6667C10.6667 10.3131 10.8072 9.97395 11.0572 9.7239C11.3073 9.47385 11.6464 9.33337 12 9.33337H20C20.3536 9.33337 20.6928 9.47385 20.9428 9.7239C21.1929 9.97395 21.3334 10.3131 21.3334 10.6667C21.3334 11.0203 21.1929 11.3595 20.9428 11.6095C20.6928 11.8596 20.3536 12 20 12Z" fill="#218460"/>
</g>
<defs>
<clipPath id="clip0_1383_748">
<rect width="32" height="32" fill="white"/>
</clipPath>
</defs>
</svg>
