<svg width="32" height="32" viewBox="0 0 32 32" fill="none" xmlns="http://www.w3.org/2000/svg">
<path d="M17.8854 16L20.9427 12.9427C21.1902 12.6921 21.3284 12.3538 21.3273 12.0017C21.3262 11.6496 21.1858 11.3122 20.9368 11.0632C20.6878 10.8142 20.3504 10.6738 19.9983 10.6727C19.6461 10.6716 19.3079 10.8099 19.0573 11.0573L16 14.1146L12.9427 11.0573C12.6919 10.811 12.354 10.6738 12.0025 10.6753C11.651 10.6769 11.3144 10.8173 11.0658 11.0658C10.8173 11.3144 10.6769 11.651 10.6754 12.0025C10.6738 12.354 10.811 12.6919 11.0573 12.9427L14.1146 16L11.0573 19.0573C10.9317 19.1807 10.8317 19.3278 10.7632 19.49C10.6947 19.6522 10.6591 19.8264 10.6583 20.0025C10.6575 20.1786 10.6916 20.3531 10.7586 20.5159C10.8256 20.6788 10.9242 20.8267 11.0487 20.9512C11.1733 21.0757 11.3212 21.1744 11.4841 21.2414C11.6469 21.3084 11.8214 21.3425 11.9975 21.3417C12.1736 21.3409 12.3478 21.3052 12.51 21.2367C12.6722 21.1682 12.8193 21.0683 12.9427 20.9426L16 17.8854L19.0573 20.9427C19.3079 21.1901 19.6462 21.3284 19.9983 21.3273C20.3504 21.3262 20.6878 21.1858 20.9368 20.9368C21.1858 20.6878 21.3261 20.3504 21.3272 19.9983C21.3283 19.6461 21.1901 19.3079 20.9427 19.0573L17.8854 16Z" fill="#218460"/>
<path d="M25.3334 2.66663H6.66669C5.60618 2.66778 4.58943 3.08958 3.83954 3.83948C3.08964 4.58937 2.66784 5.60612 2.66669 6.66663V25.3333C2.66784 26.3938 3.08964 27.4105 3.83954 28.1604C4.58943 28.9103 5.60618 29.3321 6.66669 29.3333H25.3334C26.3939 29.3321 27.4106 28.9103 28.1605 28.1604C28.9104 27.4105 29.3322 26.3938 29.3334 25.3333V6.66663C29.3322 5.60612 28.9104 4.58937 28.1605 3.83948C27.4106 3.08958 26.3939 2.66778 25.3334 2.66663ZM20.9427 19.0573C21.0683 19.1807 21.1683 19.3277 21.2368 19.49C21.3053 19.6522 21.3409 19.8264 21.3417 20.0025C21.3425 20.1786 21.3084 20.3531 21.2414 20.5159C21.1744 20.6787 21.0758 20.8267 20.9513 20.9512C20.8267 21.0757 20.6788 21.1743 20.516 21.2414C20.3531 21.3084 20.1786 21.3425 20.0025 21.3417C19.8264 21.3409 19.6522 21.3052 19.49 21.2367C19.3278 21.1682 19.1807 21.0683 19.0574 20.9426L16 17.8854L12.9427 20.9426C12.6919 21.1889 12.354 21.3262 12.0025 21.3246C11.651 21.323 11.3144 21.1827 11.0659 20.9341C10.8173 20.6856 10.677 20.3489 10.6754 19.9975C10.6738 19.646 10.8111 19.3081 11.0574 19.0573L14.1146 16L11.0574 12.9426C10.8111 12.6918 10.6738 12.3539 10.6754 12.0025C10.677 11.651 10.8173 11.3143 11.0659 11.0658C11.3144 10.8173 11.651 10.6769 12.0025 10.6753C12.354 10.6737 12.6919 10.811 12.9427 11.0573L16 14.1145L19.0574 11.0572C19.3079 10.8098 19.6462 10.6716 19.9983 10.6727C20.3504 10.6738 20.6878 10.8142 20.9368 11.0632C21.1858 11.3122 21.3262 11.6496 21.3273 12.0017C21.3284 12.3538 21.1901 12.6921 20.9427 12.9426L17.8854 16L20.9427 19.0573Z" fill="#98D9C0"/>
</svg>
