<svg width="375" height="165" viewBox="0 0 375 165" fill="none" xmlns="http://www.w3.org/2000/svg">
<path d="M263.672 144.655L265.429 159.826L269.468 159.837L269.819 143.936L263.672 144.655Z" fill="#FFB573"/>
<path d="M271.02 158.831C273.917 160.48 274.263 160.518 277.432 161.172C278.134 161.318 277.87 162.983 276.242 163C273.539 163.043 273.782 162.946 271.484 163C269.527 163 266.689 163.129 265.132 163.173H265.11C264.936 163.157 264.775 163.076 264.659 162.945C264.543 162.815 264.482 162.644 264.488 162.47L264.78 158.885C264.786 158.809 264.82 158.737 264.876 158.685C264.933 158.633 265.007 158.604 265.083 158.604L270.046 158.566C270.389 158.565 270.725 158.656 271.02 158.831Z" fill="#263238"/>
<path d="M270.76 158.896C271.403 159.02 272.555 159.166 272.982 158.766C273.046 158.707 273.094 158.634 273.123 158.552C273.153 158.47 273.162 158.382 273.15 158.296C273.146 158.243 273.128 158.192 273.099 158.147C273.069 158.103 273.029 158.066 272.982 158.042C272.49 157.782 270.906 158.615 270.728 158.712C270.71 158.719 270.694 158.73 270.683 158.746C270.673 158.761 270.667 158.78 270.667 158.799C270.667 158.818 270.673 158.836 270.683 158.852C270.694 158.867 270.71 158.879 270.728 158.885L270.76 158.896ZM272.896 158.209C272.914 158.219 272.929 158.233 272.941 158.25C272.952 158.267 272.959 158.286 272.96 158.307C272.971 158.364 272.967 158.423 272.948 158.478C272.929 158.533 272.896 158.582 272.852 158.62C272.614 158.842 271.955 158.891 271.068 158.75C271.695 158.437 272.56 158.09 272.863 158.209H272.896Z" fill="#35A936"/>
<path d="M270.814 158.896C271.29 158.669 272.225 157.815 272.139 157.323C272.139 157.209 272.036 157.08 271.776 157.053C271.679 157.042 271.581 157.052 271.488 157.082C271.395 157.111 271.309 157.16 271.236 157.226C270.738 157.658 270.663 158.75 270.663 158.793C270.661 158.811 270.665 158.829 270.672 158.845C270.68 158.861 270.691 158.875 270.706 158.885C270.721 158.896 270.74 158.903 270.759 158.905C270.778 158.907 270.797 158.904 270.814 158.896ZM271.863 157.274C271.944 157.274 271.949 157.344 271.949 157.361C272.003 157.642 271.371 158.334 270.868 158.642C270.899 158.181 271.073 157.74 271.366 157.382C271.416 157.335 271.477 157.299 271.544 157.277C271.61 157.256 271.68 157.249 271.749 157.258H271.847L271.863 157.274Z" fill="#35A936"/>
<path d="M256.925 149.094L262.78 161.599H267.305L262.515 146.429L256.925 149.094Z" fill="#FFB573"/>
<path d="M267.813 160.686C270.711 162.34 271.057 162.373 274.226 163.032C274.928 163.173 274.663 164.838 273.036 164.854C270.333 164.897 270.576 164.805 268.278 164.827C266.321 164.827 263.488 164.962 261.931 165H261.866C261.694 164.985 261.534 164.904 261.419 164.774C261.304 164.645 261.244 164.476 261.25 164.303L261.537 160.713C261.545 160.636 261.58 160.565 261.637 160.514C261.694 160.462 261.768 160.433 261.845 160.432L266.802 160.394C267.16 160.399 267.509 160.499 267.813 160.686Z" fill="#263238"/>
<path d="M267.527 160.756C268.176 160.88 269.322 161.026 269.749 160.626C269.812 160.568 269.86 160.495 269.889 160.414C269.918 160.333 269.928 160.246 269.917 160.161C269.913 160.108 269.896 160.056 269.868 160.011C269.84 159.966 269.801 159.928 269.754 159.902C269.257 159.642 267.673 160.475 267.5 160.572C267.483 160.581 267.468 160.595 267.46 160.613C267.451 160.63 267.448 160.65 267.451 160.669C267.451 160.688 267.458 160.706 267.469 160.719C267.481 160.733 267.498 160.742 267.516 160.745L267.527 160.756ZM269.69 160.075C269.708 160.083 269.723 160.097 269.734 160.114C269.745 160.132 269.75 160.152 269.749 160.172C269.759 160.228 269.755 160.286 269.736 160.34C269.717 160.394 269.684 160.443 269.641 160.48C269.403 160.707 268.743 160.756 267.857 160.61C268.484 160.302 269.349 159.956 269.652 160.069L269.69 160.075Z" fill="#35A936"/>
<path d="M267.586 160.756C268.057 160.529 268.997 159.675 268.906 159.183C268.906 159.074 268.808 158.939 268.543 158.918C268.446 158.906 268.347 158.915 268.254 158.945C268.161 158.974 268.075 159.024 268.003 159.091C267.505 159.518 267.424 160.615 267.43 160.659C267.427 160.675 267.429 160.692 267.436 160.707C267.442 160.723 267.453 160.736 267.467 160.745H267.494C267.507 160.756 267.522 160.763 267.539 160.765C267.555 160.767 267.572 160.764 267.586 160.756ZM268.63 159.134C268.653 159.137 268.675 159.148 268.691 159.165C268.708 159.181 268.718 159.203 268.722 159.226C268.77 159.502 268.143 160.194 267.64 160.502C267.673 160.042 267.845 159.602 268.132 159.242C268.184 159.196 268.245 159.161 268.311 159.14C268.377 159.118 268.447 159.111 268.516 159.118H268.614L268.63 159.134Z" fill="#35A936"/>
<path d="M251.432 59.5414C251.617 59.5499 251.802 59.5196 251.975 59.4525C252.148 59.3853 252.304 59.2828 252.435 59.1514C252.566 59.0201 252.668 58.8628 252.735 58.6898C252.801 58.5167 252.831 58.3317 252.821 58.1465L252.508 43.2463C252.465 42.3056 252.275 40.8837 252.275 40.8837C254.438 41.2351 258.222 42.3002 259.271 46.4523C260.353 50.7775 260.104 59.2548 259.655 63.3313C259.439 65.2939 257.882 67.8187 254.454 67.1158L251.432 59.5414Z" fill="#35A936"/>
<path d="M256.427 45.4252C255.227 55.9894 252.783 62.1041 253.032 70.5815L233.104 70.2463C233.234 54.6378 231.017 57.5194 230.785 49.0313C230.752 45.7874 230.839 41.6947 232.709 41.419L244.009 39.1753L253.2 41.0135C254.193 41.2093 255.077 41.7718 255.675 42.5891C256.273 43.4065 256.542 44.4189 256.427 45.4252Z" fill="#35A936"/>
<path opacity="0.1" d="M256.427 45.4252C255.227 55.9894 252.783 62.1041 253.032 70.5815L233.104 70.2463C233.234 54.6378 231.017 57.5194 230.785 49.0313C230.752 45.7874 230.839 41.6947 232.709 41.419L244.009 39.1753L253.2 41.0135C254.193 41.2093 255.077 41.7718 255.675 42.5891C256.273 43.4065 256.542 44.4189 256.427 45.4252Z" fill="black"/>
<path d="M246.674 45.9064C242.971 45.582 238.948 42.3651 238.564 40.5269C239.851 40.3431 240.186 39.4456 240.457 37.8994C240.595 36.9273 240.642 35.9445 240.597 34.9637C240.565 33.4877 240.413 32.055 240.365 31.1035L246.69 34.888C246.653 35.0664 246.609 35.261 246.571 35.4557C246.376 36.4364 246.367 37.4451 246.544 38.4292C246.639 39.1055 246.949 39.7333 247.428 40.22C247.907 40.7067 248.53 41.0266 249.204 41.1325C250.086 42.2894 249.664 44.5169 246.674 45.9064Z" fill="#FFB573"/>
<path d="M246.68 46.1388C244.156 45.3024 241.501 44.936 238.846 45.0575C239.148 44.4466 239.457 43.7113 239.754 43.1004C238.813 43.1004 237.91 43.0139 236.964 43.0139C237.095 41.8032 237.437 40.6248 237.975 39.5321C238.57 38.4508 239.365 37.5912 240.559 37.6074C240.397 38.0237 239.986 39.5645 240.403 40.3917C240.876 41.1852 241.503 41.8763 242.246 42.4246L246.68 46.1388Z" fill="#35A936"/>
<g opacity="0.5">
<path d="M246.68 46.1388C244.156 45.3024 241.501 44.936 238.846 45.0575C239.148 44.4466 239.457 43.7113 239.754 43.1004C238.813 43.1004 237.91 43.0139 236.964 43.0139C237.095 41.8032 237.437 40.6248 237.975 39.5321C238.57 38.4508 239.365 37.5912 240.559 37.6074C240.397 38.0237 239.986 39.5645 240.403 40.3917C240.876 41.1852 241.503 41.8763 242.246 42.4246L246.68 46.1388Z" fill="white"/>
</g>
<path d="M246.55 38.1967C246.567 38.7521 246.77 39.2855 247.128 39.7105C247.458 40.1538 247.853 40.5431 248.145 41.0135C248.405 41.4298 248.575 41.8959 248.645 42.382C248.714 42.8681 248.681 43.3633 248.548 43.8358C248.414 44.3083 248.183 44.7477 247.87 45.1257C247.557 45.5037 247.168 45.812 246.728 46.0307C246.674 46.0307 246.674 46.128 246.696 46.1874C247.811 45.4444 248.978 44.7831 250.188 44.2087C250.545 44.0357 250.853 43.8464 251.194 43.668C250.975 42.9193 250.475 42.284 249.799 41.8947C250.68 41.8028 251.54 41.5811 252.416 41.4892C251.216 40.6674 250.075 39.7321 248.864 38.9212C248.226 38.4832 247.269 37.9912 246.55 38.1967Z" fill="#35A936"/>
<path opacity="0.5" d="M246.55 38.1967C246.567 38.7521 246.77 39.2855 247.128 39.7105C247.458 40.1538 247.853 40.5431 248.145 41.0135C248.405 41.4298 248.575 41.8959 248.645 42.382C248.714 42.8681 248.681 43.3633 248.548 43.8358C248.414 44.3083 248.183 44.7477 247.87 45.1257C247.557 45.5037 247.168 45.812 246.728 46.0307C246.674 46.0307 246.674 46.128 246.696 46.1874C247.811 45.4444 248.978 44.7831 250.188 44.2087C250.545 44.0357 250.853 43.8464 251.194 43.668C250.975 42.9193 250.475 42.284 249.799 41.8947C250.68 41.8028 251.54 41.5811 252.416 41.4892C251.216 40.6674 250.075 39.7321 248.864 38.9212C248.226 38.4832 247.269 37.9912 246.55 38.1967Z" fill="white"/>
<path opacity="0.2" d="M246.539 38.4184C243.836 37.7967 242.035 35.7152 240.987 34.5744L246.566 35.4448C246.37 36.4255 246.361 37.4343 246.539 38.4184Z" fill="black"/>
<path d="M250.069 32.9578C248.988 36.6882 244.268 38.2453 241.533 35.2339C239.954 33.4984 239.862 31.6008 239.83 28.6596C239.83 28.2109 239.83 27.7405 239.83 27.2432C239.814 26.4657 239.969 25.6943 240.284 24.9832C240.414 24.6872 240.574 24.4047 240.76 24.1398C241.448 23.1468 242.461 22.4249 243.625 22.0983C244.788 21.7717 246.029 21.8608 247.134 22.3503C250.772 23.9722 251.053 29.6058 250.069 32.9578Z" fill="#FFB573"/>
<path d="M246.474 27.8973C246.674 27.8973 246.82 28.1622 246.809 28.465C246.799 28.7678 246.647 29.0056 246.425 29.0056C246.204 29.0056 246.047 28.7407 246.058 28.4272C246.069 28.1136 246.274 27.8919 246.474 27.8973Z" fill="#263238"/>
<path d="M248.556 31.8441L247.112 31.8874C246.988 32.1739 246.847 32.428 246.723 32.72C247.574 33.0897 248.519 33.1842 249.426 32.9903C249.38 32.5843 249.293 32.184 249.167 31.7955C248.988 31.8117 248.734 31.8387 248.556 31.8441Z" fill="#263238"/>
<path d="M249.918 28.1461C250.118 28.1461 250.269 28.4056 250.259 28.6867C250.248 28.9679 250.075 29.2274 249.869 29.2274C249.664 29.2274 249.518 28.9679 249.529 28.6597C249.54 28.3515 249.718 28.1407 249.918 28.1461Z" fill="#263238"/>
<path d="M248.507 31.8117C248.763 31.8597 249.026 31.8502 249.277 31.7838C249.529 31.7174 249.763 31.5958 249.961 31.4278C249.308 30.6663 248.762 29.8185 248.339 28.9084L248.507 31.8117Z" fill="#ED893E"/>
<path d="M247.842 33.4012H247.788L247.636 33.3309C247.35 33.2004 247.039 33.1297 246.724 33.1232C246.409 33.1167 246.096 33.1745 245.804 33.293C245.77 33.3067 245.732 33.3063 245.699 33.2921C245.665 33.2779 245.639 33.251 245.625 33.2173C245.612 33.1836 245.612 33.1459 245.626 33.1125C245.64 33.079 245.667 33.0526 245.701 33.0389C246.028 32.9079 246.378 32.8442 246.73 32.8516C247.082 32.859 247.429 32.9375 247.75 33.0822L247.901 33.1525C247.934 33.1677 247.958 33.195 247.97 33.2284C247.983 33.2618 247.981 33.2986 247.966 33.3309C247.955 33.3535 247.937 33.3722 247.915 33.3847C247.893 33.3972 247.867 33.4029 247.842 33.4012Z" fill="#263238"/>
<path d="M245.728 27.2541C245.871 27.0784 246.053 26.9382 246.259 26.8444C246.466 26.7506 246.691 26.7058 246.917 26.7134C246.935 26.7192 246.954 26.7192 246.972 26.7134C247.019 26.712 247.065 26.692 247.098 26.6577C247.131 26.6234 247.15 26.5774 247.15 26.5296C247.149 26.4818 247.129 26.4364 247.094 26.4031C247.06 26.3698 247.014 26.3512 246.966 26.3512C246.681 26.3374 246.396 26.3914 246.136 26.5089C245.876 26.6264 245.647 26.8039 245.469 27.027C245.452 27.0436 245.438 27.0634 245.429 27.0852C245.42 27.107 245.415 27.1304 245.415 27.154C245.415 27.1777 245.42 27.2011 245.429 27.2229C245.438 27.2447 245.452 27.2645 245.469 27.2811C245.491 27.3011 245.52 27.3142 245.55 27.3189C245.582 27.3254 245.616 27.3227 245.648 27.3113C245.679 27.2999 245.707 27.2801 245.728 27.2541Z" fill="#263238"/>
<path d="M250.675 27.6541C250.715 27.6285 250.744 27.5882 250.755 27.5418C250.766 27.4954 250.759 27.4465 250.734 27.4054C250.599 27.1545 250.403 26.9406 250.166 26.7823C249.928 26.624 249.656 26.5261 249.372 26.4971C249.349 26.4956 249.326 26.4989 249.304 26.5066C249.282 26.5143 249.262 26.5263 249.245 26.5419C249.227 26.5576 249.214 26.5765 249.204 26.5976C249.194 26.6187 249.189 26.6415 249.188 26.6647C249.188 26.7106 249.206 26.7546 249.239 26.787C249.271 26.8195 249.315 26.8377 249.361 26.8377C249.587 26.8661 249.802 26.9475 249.99 27.0754C250.178 27.2032 250.333 27.3737 250.443 27.573C250.453 27.5943 250.468 27.6132 250.487 27.6283C250.505 27.6434 250.526 27.6543 250.549 27.6605C250.572 27.6666 250.597 27.6678 250.62 27.6639C250.644 27.66 250.666 27.6511 250.686 27.6379L250.675 27.6541Z" fill="#263238"/>
<path d="M248.15 20.1499C248.554 20.127 248.957 20.202 249.325 20.3687C249.693 20.5353 250.015 20.7886 250.264 21.1069C250.34 21.2042 249.777 23.9399 249.183 23.9993C247.802 24.1392 246.408 23.954 245.112 23.4587C244.874 23.365 244.625 23.305 244.371 23.2803C244.117 23.2803 242.846 24.4535 242.603 24.9887C242.378 25.5299 242.227 26.0992 242.154 26.6809C242.137 26.8688 242.086 27.052 242.003 27.2216C241.916 27.3784 241.868 27.5243 241.689 27.5135C241.464 28.0341 241.4 28.6105 241.506 29.1679C241.616 29.7228 241.779 30.2659 241.992 30.7899L242.425 31.9252C242.235 31.9252 239.981 30.9845 239.181 30.7196C238.126 29.2389 237.597 27.4481 237.678 25.6321C237.678 25.1239 237.726 23.5182 237.975 23.0694C238.09 22.8409 238.259 22.6437 238.467 22.4949C238.675 22.3461 238.916 22.2501 239.17 22.2152C238.846 20.9122 239.943 20.5933 241.192 20.1067C242.441 19.6201 243.847 19.7769 245.166 20.0256C246.152 20.1836 247.154 20.2254 248.15 20.1499Z" fill="#263238"/>
<path d="M239.559 28.4055C240.781 28.5515 241.381 30.1734 241.408 31.2439C241.446 32.4333 240.559 33.3254 239.473 32.6929C239.073 32.4568 238.725 32.1443 238.446 31.7732C238.168 31.4021 237.966 30.9797 237.851 30.5303C237.765 30.2729 237.746 29.9982 237.794 29.7312C237.842 29.4643 237.956 29.2136 238.126 29.0023C238.296 28.7909 238.516 28.6255 238.767 28.5212C239.017 28.417 239.289 28.3772 239.559 28.4055Z" fill="#FFB573"/>
<path d="M235.645 45.1008C235.677 40.4459 229.373 40.435 228.617 44.7494C228.617 44.7927 228.617 44.8359 228.617 44.8738C227.919 49.2854 229.395 59.9416 230.238 63.9586C230.428 64.8877 230.977 65.7042 231.766 66.2299C232.555 66.7556 233.52 66.9478 234.45 66.7645L247.026 64.3316L246.361 58.325L238.078 59.4334C237.894 59.4575 237.707 59.4433 237.529 59.3915C237.351 59.3398 237.186 59.2517 237.044 59.1328C236.901 59.0139 236.785 58.8668 236.703 58.7008C236.62 58.5348 236.573 58.3534 236.564 58.1683L235.645 45.1008Z" fill="#35A936"/>
<path d="M245.177 63.1584L248.383 62.3366C248.674 62.2662 248.978 62.2662 249.269 62.3366L252.2 63.0016C252.515 63.0708 252.843 63.0574 253.152 62.9627C253.461 62.868 253.74 62.6952 253.962 62.461L255.443 60.9472C255.618 60.766 255.755 60.5517 255.847 60.3169C255.938 60.0821 255.981 59.8314 255.974 59.5796C255.967 59.3279 255.91 59.08 255.806 58.8507C255.701 58.6213 255.553 58.415 255.368 58.2439L254.892 57.806C254.581 57.5201 254.182 57.3471 253.76 57.3147C253.339 57.2824 252.919 57.3926 252.567 57.6276C252.214 57.8649 251.791 57.9737 251.367 57.9358H251.189C250.795 57.9016 250.401 57.9924 250.062 58.1952C249.723 58.3981 249.457 58.7027 249.302 59.0657L249.113 59.4928L244.582 60.0335L245.177 63.1584Z" fill="#FFB573"/>
<path d="M243.987 59.0765L240.711 58.6385C240.413 58.5974 240.13 58.4862 239.884 58.3142L237.413 56.6003C237.148 56.4174 236.84 56.3051 236.52 56.2739C236.199 56.2427 235.876 56.2936 235.58 56.4219L233.639 57.2653C233.406 57.3679 233.195 57.5163 233.02 57.7018C232.845 57.8873 232.709 58.1061 232.621 58.3451C232.532 58.5842 232.492 58.8386 232.504 59.0933C232.515 59.3481 232.578 59.5979 232.688 59.828L232.969 60.4119C233.15 60.7932 233.455 61.1025 233.833 61.2898C234.212 61.4771 234.642 61.5316 235.056 61.4445C235.472 61.358 235.905 61.4172 236.283 61.6121L236.44 61.6878C236.791 61.8621 237.188 61.923 237.575 61.862C237.963 61.801 238.322 61.6211 238.602 61.3472L238.938 61.0228L243.349 62.2068L243.987 59.0765Z" fill="#FFB573"/>
<path d="M244.501 59.0062L241.197 58.3033L240.3 62.5745L243.49 63.4125L244.501 59.0062Z" fill="#263238"/>
<g opacity="0.7">
<path d="M244.501 59.0062L241.197 58.3033L240.3 62.5745L243.49 63.4125L244.501 59.0062Z" fill="white"/>
</g>
<path d="M259.239 64.7316C258.98 65.6421 258.373 66.4141 257.55 66.8805C256.726 67.347 255.752 67.4704 254.838 67.224L242.463 63.9206L243.544 57.9735L251.735 59.6549C259.801 60.7362 259.239 64.7316 259.239 64.7316Z" fill="#35A936"/>
<path d="M272.366 119.396L270.203 155.241L262.093 154.933C262.093 154.933 262.093 149.251 261.866 141.287C261.672 134.799 259.163 125.884 260.655 119.034C252.794 104.977 242.614 93.5697 240.97 89.4987C237.575 81.0754 240.473 70.3327 240.473 70.3327L253.129 70.1057C254.069 76.1048 255.921 81.9248 258.622 87.3631L270.841 111.995C271.974 114.291 272.499 116.839 272.366 119.396Z" fill="#263238"/>
<path opacity="0.2" d="M255.276 110.227L244.328 86.0656H250.934L255.276 110.227Z" fill="black"/>
<path d="M233.104 70.2463C233.104 70.2463 229.346 79.6427 231.547 88.4499C232.628 92.8291 248.183 126.43 248.183 126.43C248.183 126.43 249.102 135.621 254.411 146.31L259.704 156.215L266.062 155.971L258.26 121.619L250.513 96.9596C248.161 88.1579 246.296 79.2264 245.971 70.1219L233.104 70.2463Z" fill="#263238"/>
<path d="M198.259 45.7117C195.107 43.2679 193.183 45.517 189.971 43.7167C188.414 42.8462 187.435 43.2085 188.587 41.9379V41.9055C189.456 40.8095 190.167 39.5976 190.701 38.3048C191.343 36.7002 191.575 34.9611 191.377 33.2443C191.297 32.3028 191.537 31.362 192.058 30.5735C193.815 30.8817 196.064 30.5735 196.854 32.1955C197.458 34.0329 197.787 35.9494 197.832 37.8831L196.859 37.1694C197.351 38.4021 197.827 39.2509 198.211 40.024C198.849 41.2405 198.351 43.6302 198.259 45.7117Z" fill="#263238"/>
<path d="M187.041 48.7177C188.479 47.2904 188.122 40.6675 188.122 40.6675L192.139 43.5653C192.139 43.5653 192.269 47.658 193.22 48.4744C193.447 48.6691 193.788 48.5231 194.064 48.5447L193.783 49.5773L192.982 50.8479L191.901 51.5669L190.35 51.5183L188.971 51.0803L187.408 49.9233L186.138 48.8421C186.441 48.8042 186.83 48.9232 187.041 48.7177Z" fill="#EEC8C0"/>
<path opacity="0.1" d="M192.372 44.7062C189.668 44.3223 188.49 42.8896 187.96 41.7704L188.106 40.6891L192.123 43.587L192.372 44.7062Z" fill="black"/>
<path d="M196.989 38.9914V39.0617C196.989 39.2887 196.989 39.5212 196.962 39.7375C196.944 39.9462 196.915 40.1537 196.875 40.3592C196.651 41.4094 196.044 42.3387 195.173 42.9663C194.302 43.5938 193.228 43.8748 192.161 43.7545H192.123C191.205 43.6636 190.33 43.3233 189.593 42.7705C189.237 42.5173 188.907 42.2293 188.609 41.9109C188.431 41.718 188.268 41.512 188.122 41.2945L188.036 41.1648C187.938 41.008 187.852 40.8566 187.771 40.6944C187.727 40.6133 187.69 40.5268 187.652 40.4403C187.651 40.4295 187.651 40.4187 187.652 40.4079L187.576 40.2241C187.281 39.4301 187.046 38.6151 186.873 37.7857C186.873 37.7101 186.835 37.629 186.814 37.5479V37.4559C186.738 37.1207 186.662 36.7639 186.576 36.3747C186.388 35.5986 186.397 34.7877 186.604 34.0164C186.811 33.245 187.208 32.5379 187.759 31.96C188.31 31.382 188.997 30.9517 189.758 30.7085C190.518 30.4653 191.328 30.417 192.112 30.5681L192.328 30.6114C193.977 30.9844 195.14 32.2333 195.897 33.8012C195.976 33.9538 196.046 34.1108 196.107 34.2715C196.134 34.3256 196.156 34.3797 196.178 34.4337C196.407 35.0293 196.587 35.6421 196.718 36.2665C196.721 36.3079 196.721 36.3495 196.718 36.3909C196.81 36.8078 196.873 37.2305 196.908 37.656C196.963 38.0989 196.991 38.545 196.989 38.9914Z" fill="#EEC8C0"/>
<path d="M195.183 36.0557C195.226 36.3368 195.113 36.5963 194.934 36.5963C194.756 36.5963 194.561 36.4233 194.513 36.1368C194.489 36.039 194.493 35.9366 194.525 35.8411C194.556 35.7456 194.614 35.6607 194.691 35.5961H194.718L195.334 35.3042C195.334 35.3042 195.21 35.5907 195.005 35.661C195.108 35.7677 195.171 35.9074 195.183 36.0557Z" fill="#263238"/>
<path d="M194.285 36.7045C194.748 37.2292 195.281 37.6877 195.87 38.067C195.768 38.2158 195.636 38.3411 195.482 38.4344C195.328 38.5277 195.156 38.5868 194.977 38.6076L194.285 36.7045Z" fill="#ED893E"/>
<path d="M190.825 35.9693C190.861 35.9685 190.895 35.9566 190.923 35.9353C190.951 35.9139 190.972 35.8842 190.982 35.8504C191.097 35.6001 191.263 35.3764 191.468 35.1931C191.674 35.0098 191.915 34.871 192.177 34.7853C192.219 34.7716 192.255 34.742 192.276 34.7027C192.297 34.6634 192.302 34.6174 192.291 34.5744C192.278 34.5324 192.249 34.4969 192.211 34.4757C192.173 34.4545 192.127 34.4491 192.085 34.4609C191.772 34.557 191.483 34.7199 191.238 34.9382C190.994 35.1566 190.799 35.4254 190.669 35.726C190.662 35.7466 190.659 35.7683 190.661 35.7898C190.663 35.8114 190.669 35.8324 190.679 35.8515C190.689 35.8706 190.703 35.8876 190.72 35.9013C190.737 35.915 190.756 35.9253 190.777 35.9314L190.825 35.9693Z" fill="#263238"/>
<path d="M196.107 34.277C196.137 34.2775 196.167 34.2696 196.193 34.2544C196.218 34.2391 196.239 34.217 196.253 34.1905C196.265 34.1714 196.273 34.1502 196.276 34.1281C196.279 34.1059 196.278 34.0834 196.273 34.0617C196.267 34.0401 196.257 34.0197 196.244 34.0019C196.23 33.9841 196.213 33.9692 196.194 33.958C195.966 33.8133 195.706 33.7276 195.437 33.7088C195.168 33.6899 194.899 33.7384 194.653 33.8499C194.615 33.8676 194.585 33.8995 194.57 33.9389C194.555 33.9782 194.555 34.0219 194.572 34.0607C194.592 34.0998 194.626 34.1296 194.667 34.1437C194.709 34.1579 194.754 34.1553 194.794 34.1364C194.988 34.0566 195.199 34.0242 195.409 34.0421C195.619 34.0599 195.821 34.1275 195.999 34.2392C196.031 34.262 196.069 34.2752 196.107 34.277Z" fill="#263238"/>
<path d="M191.999 36.6343C192.047 36.9154 191.928 37.1749 191.75 37.202C191.571 37.229 191.382 37.0235 191.328 36.737C191.274 36.4505 191.409 36.1963 191.588 36.1693H191.625L192.166 35.926C192.097 36.0727 191.984 36.1938 191.842 36.272C191.933 36.3719 191.988 36.4994 191.999 36.6343Z" fill="#263238"/>
<path d="M182.478 58.8764L180.229 64.2396C179.575 65.8129 180.283 68.1593 180.986 69.7975C182.581 73.4901 185.051 79.3183 185.051 79.3183C184.608 80.6591 182.294 80.3401 182.294 80.3401C182.294 80.3401 178.12 73.9118 176.379 67.6133C175.222 63.4395 178.147 54.0539 180.704 50.5883C181.483 49.5341 183.992 47.7986 183.992 47.7986L183.5 59.4657L182.478 58.8764Z" fill="#EEC8C0"/>
<path d="M183.927 78.5777L185.635 79.686C185.694 79.7211 185.744 79.7692 185.781 79.8265L187.214 81.8756C187.289 81.9845 187.322 82.1172 187.306 82.2487L187.187 83.1461C187.18 83.2181 187.156 83.2873 187.117 83.3476C187.077 83.408 187.023 83.4576 186.96 83.4921L184.554 84.7843C184.496 84.8114 184.433 84.8268 184.37 84.8295C184.306 84.8322 184.242 84.8222 184.182 84.8001C184.122 84.778 184.068 84.7441 184.021 84.7006C183.974 84.657 183.937 84.6046 183.91 84.5464L182.505 81.7188C182.479 81.6618 182.461 81.6019 182.451 81.5404L182.213 79.5346C182.2 79.4392 182.216 79.3421 182.26 79.2562C182.303 79.1703 182.372 79.0996 182.456 79.0534L183.473 78.5777C183.542 78.5383 183.62 78.5176 183.7 78.5176C183.779 78.5176 183.857 78.5383 183.927 78.5777Z" fill="#EEC8C0"/>
<path d="M197.659 77.7342L182.586 74.6958C182.586 74.6958 184.873 70.9112 181.694 56.7463C180.239 50.2585 182.856 46.82 187.927 46.3875C188.165 46.3605 188.398 46.3497 188.641 46.3388C190.696 46.2686 193.307 47.9175 194.918 49.1502C194.918 49.1502 194.918 49.1502 194.945 49.1502C195.448 49.6909 195.929 50.2693 196.502 50.8911C201.217 56.011 197.043 60.3038 197.454 72.8684C197.454 72.9765 197.454 73.09 197.454 73.2036C197.391 74.7169 197.459 76.2328 197.659 77.7342Z" fill="#EEC8C0"/>
<path d="M190.35 28.0757C189.861 27.9173 189.344 27.8671 188.834 27.9288C188.325 27.9904 187.834 28.1623 187.398 28.4325C186.529 28.9755 185.8 29.7166 185.273 30.5951C184.006 32.7459 183.484 35.2541 183.786 37.7317C184.154 39.9483 185.814 43.3328 188.365 43.5761C186.971 38.6616 189.447 32.4928 190.733 28.0973C190.609 28.1406 190.501 28.0487 190.35 28.0757Z" fill="#263238"/>
<path d="M186.035 39.1915C186.351 39.7771 186.885 40.2142 187.522 40.408C188.371 40.6513 188.803 39.8673 188.576 39.078C188.365 38.3535 187.673 37.3479 186.814 37.456C186.516 37.5001 186.249 37.6604 186.069 37.9016C185.89 38.1428 185.813 38.4453 185.857 38.7428C185.884 38.9032 185.945 39.056 186.035 39.1915Z" fill="#EEC8C0"/>
<path d="M191.334 28.0055C194.258 28.7029 196.67 29.9031 197.416 34.1148C196.686 33.9796 196.08 34.277 195.291 34.8122C194.671 33.577 193.67 32.5742 192.436 31.9522C192.101 32.8497 191.766 33.7417 191.436 34.6554C191.252 35.1366 191.004 36.2395 191.004 36.2395C190.211 36.2521 189.42 36.3153 188.636 36.4287C188.636 36.4287 187.96 32.8875 188.83 30.4816C189.203 29.4598 189.658 28.3839 190.587 27.8325L191.334 28.0055Z" fill="#263238"/>
<path d="M197.454 72.8846C197.454 72.9873 197.454 73.1009 197.454 73.209C193.291 75.058 185.527 72.7819 182.856 71.9979C182.856 71.5492 182.856 71.0356 182.856 70.4679C183.992 69.9273 185.511 69.538 186.246 69.1758C188.968 67.8559 191.245 65.7702 192.799 63.1746C194.929 59.5577 196.113 54.6216 194.913 50.5937C194.372 48.7934 192.393 47.6526 190.75 47.0417C190.166 46.8146 188.149 46.6308 187.922 46.3767C187.922 46.2253 187.922 45.6739 188.128 45.7225C192.085 46.5767 193.588 47.7121 194.945 49.161C195.448 49.7017 197.297 52.1562 197.87 52.778C202.584 57.9087 197.064 60.32 197.454 72.8846Z" fill="#263238"/>
<path opacity="0.3" d="M197.454 72.8846C197.454 72.9873 197.454 73.1009 197.454 73.209C193.291 75.058 185.527 72.7819 182.856 71.9979C182.856 71.5492 182.856 71.0356 182.856 70.4679C183.992 69.9273 185.511 69.538 186.246 69.1758C188.968 67.8559 191.245 65.7702 192.799 63.1746C194.929 59.5577 196.113 54.6216 194.913 50.5937C194.372 48.7934 192.393 47.6526 190.75 47.0417C190.166 46.8146 188.149 46.6308 187.922 46.3767C187.922 46.2253 187.922 45.6739 188.128 45.7225C192.085 46.5767 193.588 47.7121 194.945 49.161C195.448 49.7017 197.297 52.1562 197.87 52.778C202.584 57.9087 197.064 60.32 197.454 72.8846Z" fill="white"/>
<path d="M187.863 98.4572C187.863 98.4572 187.252 100.382 186.3 103.323C186.298 103.343 186.298 103.363 186.3 103.383C185.619 105.464 184.781 108.054 183.867 110.811C182.105 116.136 181.164 120.326 179.58 124.565C177.752 129.501 167.091 148.132 164.29 152.679C163.69 153.652 163.133 154.647 162.609 155.668L162.068 156.75L159.311 154.89L159.938 153.419C160.219 152.673 169.67 127.917 171.513 121.099C173.968 111.908 175.26 96.6569 178.358 86.7306C178.645 85.8007 178.958 84.9086 179.288 84.0273C179.288 84.0273 188.782 91.9803 189.322 92.6453C189.863 93.3102 187.863 98.4572 187.863 98.4572Z" fill="#EEC8C0"/>
<path opacity="0.1" d="M175.206 101.544C175.206 101.544 177.682 104.842 185.787 104.913L186.462 102.826L186.971 99.5439L187.241 98.3221C187.241 98.3221 180.175 91.2829 175.206 101.544Z" fill="black"/>
<path d="M162.76 156.171L159.392 154.176C158.43 155.447 156.721 157.361 156.721 157.361C156.626 157.483 156.577 157.635 156.585 157.79C156.593 157.945 156.657 158.092 156.765 158.204C156.793 158.232 156.826 158.256 156.862 158.274C158.159 159.031 159.343 159.642 160.949 160.615C162.841 161.756 162.236 161.697 164.442 163.091C165.772 163.924 166.858 162.399 166.334 161.978C163.912 160.048 162.782 156.971 162.76 156.171Z" fill="#263238"/>
<path d="M197.589 91.9099C197.232 99.2573 197.048 113.763 196.27 121.105C195.367 129.571 191.042 159.242 191.042 159.242L187.506 158.891C187.506 158.891 185.97 135.443 187.663 123.43C188.203 119.672 186.787 109.513 186.203 103.464C186.197 103.439 186.197 103.413 186.203 103.388C185.7 98.2517 185.235 94.1266 185.235 94.1266C185.235 94.1266 181.591 92.7425 179.428 89.65C178.794 88.7954 178.332 87.826 178.066 86.7954C177.945 86.328 177.869 85.85 177.839 85.3681C177.455 79.4913 182.321 74.5552 182.321 74.5552L197.308 77.6423C197.308 77.6423 197.767 88.266 197.589 91.9099Z" fill="#EEC8C0"/>
<path opacity="0.1" d="M185.754 100.144L186.295 104.691C185.884 105.615 194.469 105.664 197.291 102.582V102.296L196.994 97.3218L185.754 100.144Z" fill="black"/>
<path d="M197.897 102.334C197.897 102.334 187.733 101.561 182.699 102.009C173.157 102.863 171.573 98.933 171.573 98.933C171.573 98.933 175.703 98.2517 177.044 83.9625C177.363 80.5293 180.045 77.053 181.499 75.3932C182.178 74.3485 182.626 73.1706 182.813 71.9385L197.41 72.8143L197.508 76.4961C197.508 76.4961 198.048 82.0161 198.097 83.4164C198.281 88.5093 197.897 102.334 197.897 102.334Z" fill="#263238"/>
<path opacity="0.3" d="M197.897 102.334C197.897 102.334 187.733 101.561 182.699 102.009C173.157 102.863 171.573 98.933 171.573 98.933C171.573 98.933 175.703 98.2517 177.044 83.9625C177.363 80.5293 180.045 77.053 181.499 75.3932C182.178 74.3485 182.626 73.1706 182.813 71.9385L197.41 72.8143L197.508 76.4961C197.508 76.4961 198.048 82.0161 198.097 83.4164C198.281 88.5093 197.897 102.334 197.897 102.334Z" fill="white"/>
<path d="M191.393 158.442H187.219C187.111 158.442 187.03 158.226 186.987 158.81C186.902 160.194 186.65 161.563 186.235 162.886L186.203 162.978C186.169 163.151 186.197 163.33 186.284 163.484C186.37 163.637 186.508 163.755 186.673 163.816C186.714 163.824 186.756 163.824 186.798 163.816C188.387 163.816 189.798 163.73 191.782 163.762C194.123 163.8 193.539 164.119 196.286 164.211C197.946 164.259 198.184 162.048 197.481 161.929C194.253 161.437 191.744 158.431 191.393 158.442Z" fill="#263238"/>
<path opacity="0.1" d="M191.707 49.8531C190.187 48.0581 190.122 60.7958 195.853 65.375C199.368 68.1864 199.432 58.9738 191.707 49.8531Z" fill="black"/>
<path d="M189.901 49.7882C190.019 50.5995 190.178 51.4043 190.377 52.1995C194.669 65.2129 201.19 62.2555 202.498 60.8066C203.476 58.5737 203.314 48.8421 202.292 45.0576L200.568 46.0523C199.995 47.3175 199.962 58.3034 198.946 56.1678C198.946 56.1678 195.821 52.0914 195.534 50.8803C195.315 49.9395 194.803 49.0927 194.071 48.462C193.339 47.8313 192.426 47.4495 191.463 47.3715C190.955 47.5186 190.518 47.8441 190.231 48.2881C189.944 48.7321 189.827 49.2648 189.901 49.7882Z" fill="#EEC8C0"/>
<path d="M201.168 46.2199C199.47 45.809 198.465 44.0141 198.465 44.0141L201.871 41.6353L202.265 45.0684L201.168 46.2199Z" fill="#EEC8C0"/>
<path d="M201.909 41.6406L198.503 44.0195L197.081 40.2241L200.016 39.4131L201.909 41.6406Z" fill="#EEC8C0"/>
<path d="M194.231 40.1917C194.285 40.4782 194.485 40.6783 194.669 40.6458C194.853 40.6134 194.961 40.3431 194.907 40.0619C194.853 39.7808 194.653 39.5754 194.469 39.6078C194.285 39.6402 194.172 39.9052 194.231 40.1917Z" fill="#263238"/>
<path d="M206.299 164.93C205.992 164.944 205.689 164.852 205.441 164.67C205.193 164.488 205.015 164.227 204.936 163.93L198.021 137.368H206.72L208.396 162.778C208.394 163.339 208.174 163.876 207.782 164.278C207.391 164.679 206.859 164.913 206.299 164.93Z" fill="#263238"/>
<path d="M237.256 164.93C236.949 164.945 236.646 164.853 236.397 164.671C236.149 164.489 235.972 164.227 235.894 163.93L228.979 137.368H237.672L239.354 162.778C239.351 163.339 239.131 163.876 238.74 164.278C238.348 164.679 237.817 164.913 237.256 164.93Z" fill="#263238"/>
<path opacity="0.2" d="M237.256 164.93C236.949 164.945 236.646 164.853 236.397 164.671C236.149 164.489 235.972 164.227 235.894 163.93L228.979 137.368H237.672L239.354 162.778C239.351 163.339 239.131 163.876 238.74 164.278C238.348 164.679 237.817 164.913 237.256 164.93Z" fill="white"/>
<path d="M181.526 164.93C181.834 164.945 182.137 164.853 182.385 164.671C182.633 164.489 182.811 164.227 182.889 163.93L189.804 137.368H181.11L179.429 162.778C179.431 163.339 179.651 163.876 180.043 164.278C180.434 164.679 180.966 164.913 181.526 164.93Z" fill="#263238"/>
<path opacity="0.2" d="M181.526 164.93C181.834 164.945 182.137 164.853 182.385 164.671C182.633 164.489 182.811 164.227 182.889 163.93L189.804 137.368H181.11L179.429 162.778C179.431 163.339 179.651 163.876 180.043 164.278C180.434 164.679 180.966 164.913 181.526 164.93Z" fill="white"/>
<path d="M150.574 164.93C150.881 164.944 151.184 164.852 151.432 164.67C151.68 164.488 151.858 164.227 151.937 163.93L158.852 137.368H150.153L148.477 162.778C148.479 163.339 148.699 163.876 149.091 164.278C149.482 164.679 150.014 164.913 150.574 164.93Z" fill="#263238"/>
<path d="M241.154 97.1812L236.921 135.297C236.634 137.973 233.985 140.038 230.774 140.136H177.115C173.33 140.136 170.405 137.465 170.73 134.367L174.963 96.2513C175.255 93.5102 178.028 91.3855 181.348 91.3855H234.769C234.854 91.3801 234.939 91.3801 235.023 91.3855C238.662 91.5531 241.473 94.1482 241.154 97.1812Z" fill="#35A936"/>
<path opacity="0.5" d="M241.154 97.1812L236.921 135.297C236.634 137.973 233.985 140.038 230.774 140.136H177.115C173.33 140.136 170.405 137.465 170.73 134.367L174.963 96.2513C175.255 93.5102 178.028 91.3855 181.348 91.3855H234.769C234.854 91.3801 234.939 91.3801 235.023 91.3855C238.662 91.5531 241.473 94.1482 241.154 97.1812Z" fill="white"/>
<path d="M244.09 97.1812L239.857 135.297C239.57 137.973 236.921 140.038 233.71 140.136C230.071 140.022 227.254 137.405 227.573 134.372L231.812 96.2567C232.093 93.5805 234.742 91.5098 237.959 91.4179C241.598 91.5531 244.409 94.1482 244.09 97.1812Z" fill="#35A936"/>
<path opacity="0.3" d="M244.09 97.1812L239.857 135.297C239.57 137.973 236.921 140.038 233.71 140.136C230.071 140.022 227.254 137.405 227.573 134.372L231.812 96.2567C232.093 93.5805 234.742 91.5098 237.959 91.4179C241.598 91.5531 244.409 94.1482 244.09 97.1812Z" fill="white"/>
<path d="M233.385 129.782H196.189C192.453 129.782 189.425 132.81 189.425 136.546V140.887C189.425 144.623 192.453 147.651 196.189 147.651H233.385C237.12 147.651 240.149 144.623 240.149 140.887V136.546C240.149 132.81 237.12 129.782 233.385 129.782Z" fill="#35A936"/>
<path opacity="0.3" d="M233.385 129.782H196.189C192.453 129.782 189.425 132.81 189.425 136.546V140.887C189.425 144.623 192.453 147.651 196.189 147.651H233.385C237.12 147.651 240.149 144.623 240.149 140.887V136.546C240.149 132.81 237.12 129.782 233.385 129.782Z" fill="white"/>
<path d="M209.44 129.782H151.537C147.879 129.782 144.914 132.748 144.914 136.405V141.028C144.914 144.686 147.879 147.651 151.537 147.651H209.44C213.098 147.651 216.063 144.686 216.063 141.028V136.405C216.063 132.748 213.098 129.782 209.44 129.782Z" fill="#35A936"/>
<path opacity="0.6" d="M209.44 129.782H151.537C147.879 129.782 144.914 132.748 144.914 136.405V141.028C144.914 144.686 147.879 147.651 151.537 147.651H209.44C213.098 147.651 216.063 144.686 216.063 141.028V136.405C216.063 132.748 213.098 129.782 209.44 129.782Z" fill="white"/>
<path d="M167.107 148.375L162.333 157.458L159.398 155.436L162.328 146.396L167.107 148.375Z" fill="#7F3E3B"/>
<path d="M205.801 109.697C202.723 109.68 199.663 109.225 196.713 108.346C196.594 110.529 195.648 112.586 194.069 114.098L193.442 114.704C193.442 114.704 174.817 110.173 172.265 116.028C170.102 121.024 159.927 150.019 159.927 150.019L166.139 152.722C166.139 152.722 175.228 139.984 179.402 129.734C179.629 129.193 180.396 126.311 180.396 126.311C188.026 129.597 196.303 131.102 204.601 130.712C206.439 130.626 208.283 129.458 207.845 123.457C207.414 118.837 206.732 114.243 205.801 109.697Z" fill="#35A936"/>
<path opacity="0.2" d="M194.88 127.236C189.674 124.814 182.499 118.31 179.174 115.882C178.399 115.296 177.515 114.868 176.574 114.623C179.51 114.044 183.251 114.147 186.468 114.439L194.037 117.953L206.212 123.641L207.65 127.998C207.077 130.328 205.607 130.642 204.287 130.701C199.163 130.905 194.034 130.414 189.041 129.242C189.658 129.328 199.914 129.598 194.88 127.236Z" fill="black"/>
<path d="M158.078 131.626L151.385 138.146L148.877 136.086L154.072 128.566L158.078 131.626Z" fill="#7F3E3B"/>
<path d="M149.363 135.189L152.283 137.508C152.344 137.558 152.386 137.626 152.402 137.703C152.419 137.779 152.409 137.859 152.375 137.93L150.818 141.136C150.786 141.204 150.741 141.265 150.685 141.316C150.629 141.366 150.564 141.405 150.493 141.431C150.422 141.456 150.347 141.466 150.272 141.462C150.196 141.458 150.123 141.439 150.055 141.406L149.947 141.347C148.758 140.363 147.736 139.444 146.227 138.249C144.449 136.843 144.73 137.411 142.621 135.783C141.351 134.799 142.254 133.188 142.843 133.54C145.546 135.162 146.806 134.978 148.439 134.853C148.778 134.847 149.107 134.967 149.363 135.189Z" fill="#35A936"/>
<path d="M148.179 135.048C148.19 135.055 148.204 135.059 148.217 135.059C148.23 135.059 148.244 135.055 148.255 135.048C148.263 135.035 148.267 135.02 148.267 135.005C148.267 134.989 148.263 134.975 148.255 134.962C148.195 134.821 147.628 133.54 147.201 133.459C147.159 133.452 147.117 133.455 147.078 133.468C147.038 133.481 147.002 133.504 146.974 133.534C146.925 133.581 146.889 133.639 146.867 133.703C146.846 133.767 146.839 133.835 146.849 133.902C146.914 134.356 147.693 134.826 148.147 135.059L148.179 135.048ZM147.217 133.594C147.455 133.68 147.812 134.313 148.044 134.805C147.433 134.464 147.055 134.113 147.017 133.859C147.009 133.815 147.013 133.77 147.028 133.728C147.043 133.686 147.069 133.649 147.103 133.621C147.112 133.608 147.124 133.597 147.139 133.592C147.153 133.586 147.169 133.585 147.184 133.588L147.217 133.594Z" fill="#35A936"/>
<path d="M148.179 135.048C148.193 135.048 148.207 135.045 148.219 135.038C148.232 135.032 148.242 135.022 148.249 135.01C148.515 134.652 148.658 134.218 148.66 133.772C148.647 133.7 148.619 133.631 148.578 133.569C148.537 133.508 148.484 133.455 148.422 133.415C148.249 133.302 148.136 133.345 148.071 133.415C147.79 133.664 147.936 134.653 148.12 135.037C148.137 135.048 148.159 135.052 148.179 135.048ZM148.282 133.507L148.341 133.556C148.388 133.584 148.427 133.621 148.457 133.666C148.487 133.711 148.507 133.762 148.514 133.815C148.52 134.176 148.412 134.53 148.206 134.826C148.06 134.405 148.012 133.675 148.179 133.529C148.193 133.517 148.21 133.511 148.228 133.511C148.246 133.511 148.263 133.517 148.276 133.529L148.282 133.507Z" fill="#35A936"/>
<path d="M158.387 154.998C158.397 154.989 158.405 154.977 158.41 154.964C158.415 154.95 158.416 154.936 158.414 154.922C158.412 154.907 158.405 154.892 158.394 154.88C158.384 154.869 158.37 154.861 158.354 154.857C158.192 154.825 156.759 154.587 156.446 154.911C156.417 154.943 156.396 154.981 156.385 155.023C156.375 155.064 156.375 155.108 156.386 155.149C156.398 155.218 156.426 155.283 156.469 155.339C156.511 155.394 156.566 155.439 156.63 155.468C157.062 155.668 157.911 155.268 158.376 155.003L158.387 154.998ZM156.581 154.998C157.077 154.863 157.599 154.854 158.1 154.971C157.457 155.306 156.938 155.436 156.694 155.322C156.652 155.304 156.615 155.275 156.586 155.238C156.558 155.201 156.539 155.157 156.532 155.111C156.526 155.097 156.522 155.081 156.522 155.066C156.522 155.05 156.526 155.034 156.532 155.02L156.581 154.998Z" fill="#35A936"/>
<path d="M158.387 154.998C158.393 154.986 158.397 154.973 158.397 154.96C158.397 154.947 158.393 154.934 158.387 154.922C158.387 154.89 158.041 154.063 157.549 153.841C157.405 153.782 157.244 153.782 157.1 153.841C156.905 153.927 156.878 154.046 156.889 154.138C156.943 154.522 157.884 154.96 158.305 155.014C158.319 155.018 158.334 155.018 158.348 155.015C158.362 155.012 158.375 155.006 158.387 154.998ZM157.111 154.025L157.186 153.998C157.292 153.955 157.41 153.955 157.516 153.998C157.829 154.201 158.072 154.495 158.214 154.841C157.759 154.728 157.105 154.355 157.073 154.127C157.073 154.127 157.073 154.073 157.116 154.036L157.111 154.025Z" fill="#35A936"/>
<path d="M201.173 109.232C206.306 110.114 211.542 110.218 216.706 109.54C216.706 109.54 222.059 130.128 206.769 130.085C201.119 130.085 198.811 127.685 195.178 125.462C186.906 120.407 180.137 113.028 176.898 113.428C172.238 114.017 174.774 119.586 155.548 134.67L151.677 131.145C151.677 131.145 166.21 99.2032 175.763 99.2032C184.051 99.2032 197.097 111.963 198.843 112.006C200.589 112.049 201.173 109.232 201.173 109.232Z" fill="#35A936"/>
<path opacity="0.2" d="M174.282 114.601C173.208 114.978 172.32 115.752 171.8 116.764C171.472 117.652 171.236 118.573 171.097 119.51C170.557 120.278 169.902 121.132 169.135 122.062C169.746 115.882 174.282 114.601 174.282 114.601Z" fill="black"/>
<path d="M159.652 154.944L163.182 156.528C163.256 156.561 163.317 156.618 163.354 156.689C163.391 156.761 163.403 156.843 163.388 156.923L162.641 160.55C162.627 160.627 162.598 160.701 162.555 160.766C162.512 160.832 162.456 160.888 162.391 160.932C162.327 160.976 162.254 161.006 162.177 161.021C162.1 161.037 162.021 161.036 161.944 161.021L161.825 160.983C160.371 160.302 159.122 159.642 157.289 158.82C155.126 157.863 155.57 158.361 153.029 157.269C151.499 156.604 151.991 154.749 152.677 154.955C155.797 155.906 157.03 155.387 158.624 154.841C158.968 154.745 159.334 154.782 159.652 154.944Z" fill="#35A936"/>
<path d="M184.873 84.9681C184.873 84.9681 183.705 82.5623 184.413 82.054C185.122 81.5458 184.992 82.1892 184.992 82.1892L186.468 85.1628L184.873 84.9681Z" fill="#7F3E3B"/>
<path d="M183.002 87.5631C182.343 87.4658 182.272 86.963 181.921 86.3953C181.921 86.3953 180.915 84.0922 181.716 83.7516C182.549 83.6636 183.387 83.6347 184.224 83.6651C184.803 83.702 185.355 83.9244 185.798 84.2992C186.241 84.6741 186.552 85.1815 186.684 85.7466C187.425 88.2714 183.002 87.5631 183.002 87.5631Z" fill="#7F3E3B"/>
<path d="M183.97 87.3415L187.203 92.5371L190.425 91.9532L186.56 86.8604L183.97 87.3415Z" fill="#7F3E3B"/>
<path d="M200.654 83.9841C200.654 83.9841 196.816 83.7949 195.334 91.2882C194.253 96.7596 194.075 96.154 194.075 96.154L187.949 87.7091L184.424 89.1256C184.424 89.1256 191.55 103.366 195.237 102.198C195.237 102.198 197.135 102.107 198.573 98.9546C200.011 95.8026 200.654 83.9841 200.654 83.9841Z" fill="#35A936"/>
<path d="M200.654 83.9841C200.654 83.9841 196.816 83.7949 195.334 91.2882C194.253 96.7596 194.075 96.154 194.075 96.154L187.949 87.7091L184.424 89.1256C184.424 89.1256 191.55 103.366 195.237 102.198C195.237 102.198 197.135 102.107 198.573 98.9546C200.011 95.8026 200.654 83.9841 200.654 83.9841Z" fill="#263238"/>
<path d="M197.027 89.5149C196.983 91.2828 193.923 95.1647 197.194 97.7598C196.448 99.1492 195.253 108.854 196.448 110.66C196.448 110.66 208.564 112.455 217.144 111.914C217.744 108.421 216.263 101.16 219.404 89.9691C219.576 89.3569 219.617 88.7153 219.525 88.0861C219.433 87.4569 219.21 86.8541 218.87 86.3168C218.53 85.7794 218.081 85.3196 217.551 84.9671C217.022 84.6146 216.425 84.3773 215.798 84.2706C215.09 84.1463 214.333 84.0382 213.56 83.9462C210.873 83.5712 208.163 83.3905 205.45 83.4056C204.563 83.4056 203.65 83.4759 202.774 83.5354C201.243 83.6372 199.806 84.3066 198.743 85.4126C197.68 86.5185 197.068 87.9815 197.027 89.5149Z" fill="#263238"/>
<path opacity="0.2" d="M212.549 95.7864C213.187 92.5398 214.152 89.3662 215.43 86.3143L215.657 88.3795L216.338 89.2446C215.209 92.6615 221.015 98.3491 214.462 106.275C214.307 106.462 214.095 106.594 213.858 106.651C213.622 106.709 213.373 106.689 213.149 106.594C210.397 105.448 207.337 101.885 207.337 101.885L208.78 98.2085C210.721 99.1222 212.024 98.5815 212.549 95.7864Z" fill="black"/>
<path d="M198.978 96.7866L201.39 96.8299C201.501 96.8352 201.611 96.8143 201.713 96.7689C201.814 96.7235 201.904 96.6549 201.974 96.5686C202.044 96.4822 202.092 96.3806 202.116 96.272C202.139 96.1634 202.137 96.0507 202.109 95.9432L200.887 89.6231C200.832 89.3734 200.696 89.1488 200.5 88.9837C200.305 88.8186 200.061 88.7222 199.806 88.7094L197.4 88.6661C197.288 88.659 197.177 88.6784 197.075 88.7227C196.973 88.7671 196.882 88.8351 196.812 88.9212C196.741 89.0073 196.692 89.1089 196.668 89.2178C196.644 89.3267 196.647 89.4397 196.675 89.5474L197.908 95.8783C197.964 96.1253 198.098 96.3475 198.291 96.5113C198.484 96.6751 198.726 96.7718 198.978 96.7866Z" fill="#263238"/>
<path opacity="0.3" d="M198.978 96.7866L201.39 96.8299C201.501 96.8352 201.611 96.8143 201.713 96.7689C201.814 96.7235 201.904 96.6549 201.974 96.5686C202.044 96.4822 202.092 96.3806 202.116 96.272C202.139 96.1634 202.137 96.0507 202.109 95.9432L200.887 89.6231C200.832 89.3734 200.696 89.1488 200.5 88.9837C200.305 88.8186 200.061 88.7222 199.806 88.7094L197.4 88.6661C197.288 88.659 197.177 88.6784 197.075 88.7227C196.973 88.7671 196.882 88.8351 196.812 88.9212C196.741 89.0073 196.692 89.1089 196.668 89.2178C196.644 89.3267 196.647 89.4397 196.675 89.5474L197.908 95.8783C197.964 96.1253 198.098 96.3475 198.291 96.5113C198.484 96.6751 198.726 96.7718 198.978 96.7866Z" fill="white"/>
<path d="M198.611 96.7812L201.022 96.8244C201.133 96.8306 201.245 96.8104 201.347 96.7654C201.449 96.7204 201.539 96.6519 201.61 96.5654C201.68 96.479 201.73 96.3771 201.753 96.268C201.777 96.1589 201.775 96.0457 201.746 95.9378L200.519 89.6176C200.463 89.3678 200.327 89.1429 200.132 88.9771C199.937 88.8113 199.694 88.7135 199.438 88.6985L197.027 88.6553C196.915 88.6491 196.804 88.6693 196.702 88.7143C196.6 88.7593 196.509 88.8278 196.439 88.9143C196.368 89.0007 196.319 89.1026 196.295 89.2117C196.271 89.3208 196.274 89.4339 196.302 89.5419L197.529 95.8783C197.588 96.1252 197.726 96.3464 197.92 96.5091C198.115 96.6717 198.357 96.7672 198.611 96.7812Z" fill="#263238"/>
<path opacity="0.7" d="M198.611 96.7812L201.022 96.8244C201.133 96.8306 201.245 96.8104 201.347 96.7654C201.449 96.7204 201.539 96.6519 201.61 96.5654C201.68 96.479 201.73 96.3771 201.753 96.268C201.777 96.1589 201.775 96.0457 201.746 95.9378L200.519 89.6176C200.463 89.3678 200.327 89.1429 200.132 88.9771C199.937 88.8113 199.694 88.7135 199.438 88.6985L197.027 88.6553C196.915 88.6491 196.804 88.6693 196.702 88.7143C196.6 88.7593 196.509 88.8278 196.439 88.9143C196.368 89.0007 196.319 89.1026 196.295 89.2117C196.271 89.3208 196.274 89.4339 196.302 89.5419L197.529 95.8783C197.588 96.1252 197.726 96.3464 197.92 96.5091C198.115 96.6717 198.357 96.7672 198.611 96.7812Z" fill="white"/>
<path d="M199.692 90.5691H199.459C199.289 90.5597 199.125 90.4943 198.995 90.3829C198.865 90.2714 198.776 90.1203 198.74 89.9528L198.692 89.7203C198.673 89.6478 198.671 89.5719 198.688 89.4988C198.704 89.4256 198.737 89.3573 198.784 89.2994C198.831 89.2414 198.892 89.1955 198.96 89.1653C199.029 89.1351 199.104 89.1215 199.178 89.1256H199.411C199.581 89.1356 199.743 89.2005 199.873 89.3108C200.002 89.421 200.093 89.5704 200.13 89.7365L200.179 89.9744C200.197 90.0469 200.199 90.1228 200.183 90.1959C200.167 90.2691 200.134 90.3374 200.086 90.3953C200.039 90.4533 199.978 90.4992 199.91 90.5294C199.841 90.5596 199.767 90.5732 199.692 90.5691Z" fill="#263238"/>
<path d="M199.151 89.477C199.165 89.5468 199.202 89.61 199.256 89.6561C199.31 89.7023 199.378 89.7288 199.449 89.7312C199.479 89.733 199.51 89.7275 199.538 89.7153C199.566 89.703 199.591 89.6842 199.611 89.6605C199.63 89.6368 199.644 89.6087 199.65 89.5787C199.657 89.5487 199.656 89.5176 199.649 89.4879C199.634 89.4185 199.597 89.3559 199.544 89.3099C199.49 89.2639 199.422 89.2371 199.351 89.2337C199.321 89.2319 199.29 89.2374 199.262 89.2496C199.234 89.2619 199.209 89.2807 199.189 89.3044C199.17 89.3281 199.156 89.3562 199.15 89.3862C199.143 89.4162 199.144 89.4473 199.151 89.477Z" fill="#263238"/>
<path d="M199.27 90.2015C199.287 90.2705 199.326 90.3322 199.38 90.3779C199.435 90.4236 199.502 90.4508 199.573 90.4556C199.604 90.4565 199.635 90.4503 199.663 90.4373C199.691 90.4244 199.716 90.4051 199.735 90.381C199.754 90.3569 199.768 90.3286 199.775 90.2984C199.781 90.2682 199.781 90.2369 199.773 90.2069C199.756 90.1387 199.719 90.0776 199.665 90.032C199.612 89.9864 199.546 89.9587 199.476 89.9528C199.444 89.951 199.413 89.9566 199.384 89.9691C199.355 89.9817 199.33 90.0009 199.31 90.0251C199.29 90.0493 199.276 90.0779 199.269 90.1085C199.262 90.1392 199.263 90.171 199.27 90.2015Z" fill="#263238"/>
<path d="M201.952 96.4136L205.65 100.074L207.277 97.4895L203.395 94.5699L201.952 96.4136Z" fill="#7F3E3B"/>
<path d="M219.593 92.4993C219.988 90.3637 220.042 86.0115 217.787 85.1951C215.154 84.249 214.446 88.2282 213.884 91.8235C213.322 95.4188 212.197 99.8953 211.338 99.4574C209.543 98.5437 206.401 96.473 206.401 96.473L204.504 99.4087C204.504 99.4087 211.121 106.464 214.133 104.815C217.533 102.961 219.09 95.2079 219.593 92.4993Z" fill="#263238"/>
<path d="M211.532 78.0369C211.15 79.9249 211.171 81.872 211.592 83.7516C211.592 83.7516 204.331 88.3903 204.331 83.6164C204.331 83.6164 206.585 83.8867 206.78 80.9943C206.888 79.3561 208.602 77.6909 211.532 78.0369Z" fill="#7F3E3B"/>
<path opacity="0.2" d="M206.78 80.9997C206.975 79.4859 208.375 77.9396 210.916 77.9991L211.083 78.1559L211.262 78.4857C211.262 78.4857 209.64 82.6541 206.499 82.1513C206.641 81.781 206.736 81.394 206.78 80.9997Z" fill="black"/>
<path d="M213.208 72.3656C212.668 76.3069 212.494 77.9883 210.332 79.859C207.088 82.6811 202.352 81.1295 201.725 77.0962C201.157 73.4631 202.174 67.6295 206.174 66.3644C207.056 66.0738 207.998 66.0153 208.91 66.1946C209.821 66.3738 210.671 66.7847 211.377 67.3878C212.083 67.9908 212.622 68.7656 212.942 69.6375C213.262 70.5094 213.352 71.4489 213.203 72.3656H213.208Z" fill="#7F3E3B"/>
<path d="M204.412 74.5335C204.065 75.2477 203.623 75.9115 203.098 76.5069C203.252 76.6384 203.433 76.7342 203.629 76.7875C203.824 76.8407 204.029 76.8502 204.228 76.815L204.412 74.5335Z" fill="#630F0F"/>
<path d="M207.931 72.5386C207.959 72.5334 207.985 72.5224 208.007 72.5061C208.04 72.4804 208.062 72.4431 208.068 72.4018C208.074 72.3605 208.064 72.3185 208.04 72.2845C207.865 72.0451 207.635 71.8513 207.37 71.7195C207.104 71.5878 206.811 71.5219 206.515 71.5276C206.473 71.5329 206.435 71.5537 206.408 71.5857C206.381 71.6177 206.367 71.6587 206.369 71.7006C206.374 71.7407 206.394 71.7773 206.425 71.8033C206.457 71.8294 206.496 71.8428 206.537 71.8411C206.782 71.8415 207.024 71.8995 207.242 72.0103C207.461 72.1211 207.651 72.2816 207.796 72.4791C207.812 72.4993 207.833 72.5154 207.856 72.5257C207.88 72.5361 207.906 72.5405 207.931 72.5386Z" fill="#263238"/>
<path d="M202.082 71.8034C202.109 71.8026 202.136 71.7931 202.157 71.7763C202.351 71.628 202.576 71.5276 202.816 71.4834C203.056 71.4392 203.302 71.4525 203.536 71.5222C203.555 71.5301 203.576 71.5342 203.596 71.5341C203.617 71.5341 203.638 71.5299 203.657 71.5218C203.676 71.5138 203.693 71.502 203.708 71.4873C203.722 71.4725 203.734 71.4549 203.741 71.4357C203.749 71.4162 203.753 71.3954 203.753 71.3744C203.752 71.3534 203.748 71.3327 203.739 71.3135C203.73 71.2944 203.718 71.2771 203.703 71.2628C203.687 71.2485 203.669 71.2375 203.65 71.2303C203.367 71.14 203.066 71.1189 202.774 71.1688C202.481 71.2186 202.205 71.338 201.968 71.5168C201.933 71.5409 201.91 71.5775 201.902 71.6189C201.893 71.6603 201.902 71.7032 201.925 71.7385C201.942 71.7632 201.966 71.7825 201.994 71.794C202.022 71.8055 202.052 71.8087 202.082 71.8034Z" fill="#263238"/>
<path d="M206.72 74.1876C206.72 74.5065 206.504 74.7552 206.293 74.7282C206.082 74.7012 205.931 74.4363 205.958 74.1119C205.985 73.7875 206.18 73.5712 206.385 73.5712C206.591 73.5712 206.758 73.8632 206.72 74.1876Z" fill="#263238"/>
<path d="M203.087 73.8902C203.087 74.2146 202.866 74.4633 202.66 74.4309C202.455 74.3984 202.298 74.1389 202.325 73.8145C202.352 73.4902 202.541 73.2469 202.752 73.2739C202.963 73.3009 203.114 73.5659 203.087 73.8902Z" fill="#263238"/>
<path d="M202.839 73.3009L202.087 73.0198C202.087 73.0198 202.433 73.6523 202.839 73.3009Z" fill="#263238"/>
<path d="M206.488 73.5983L205.731 73.3118C205.731 73.3118 206.082 73.9497 206.488 73.5983Z" fill="#263238"/>
<path d="M206.277 77.4152C206.364 77.3185 206.443 77.2155 206.515 77.107C206.528 77.0921 206.536 77.0729 206.536 77.0529C206.536 77.033 206.528 77.0137 206.515 76.9989C206.5 76.9856 206.481 76.9782 206.461 76.9782C206.441 76.9782 206.422 76.9856 206.407 76.9989C206.232 77.2775 205.994 77.5111 205.712 77.6811C205.431 77.851 205.113 77.9525 204.785 77.9774C204.765 77.9774 204.746 77.9854 204.731 77.9996C204.717 78.0138 204.709 78.033 204.709 78.0531C204.709 78.0732 204.717 78.0924 204.731 78.1066C204.746 78.1208 204.765 78.1288 204.785 78.1288C205.357 78.0981 205.894 77.8414 206.277 77.4152Z" fill="#263238"/>
<path d="M209.624 65.4886C209.624 65.4886 215.83 64.2829 217.268 74.3768C217.987 79.4048 211.137 82.2216 211.137 82.2216V81.1727C211.138 79.6634 211.445 78.1699 212.04 76.7827L212.495 75.7014L209.51 71.5492C209.51 71.5492 207.731 71.0086 207.483 69.3326C207.483 69.3326 207.061 69.9219 207.731 70.9978C207.731 70.9978 203.179 71.1762 203.406 68.8352C203.305 69.0307 203.249 69.247 203.245 69.4673C203.24 69.6876 203.286 69.906 203.379 70.1057C203.379 70.1057 201.963 70.0787 202.136 68.8406C202.309 67.6025 203.422 62.4231 209.624 65.4886Z" fill="#263238"/>
<path d="M213.879 75.5717C213.742 75.93 213.537 76.2578 213.273 76.5362C213.01 76.8146 212.693 77.038 212.343 77.1936C211.402 77.5991 210.797 76.7935 210.948 75.8366C211.078 74.9769 211.727 73.7335 212.722 73.7335C212.938 73.7387 213.15 73.7977 213.338 73.9051C213.527 74.0126 213.685 74.165 213.8 74.3489C213.915 74.5327 213.982 74.7422 213.996 74.9584C214.009 75.1747 213.969 75.391 213.879 75.5879V75.5717Z" fill="#7F3E3B"/>
<path d="M198.789 95.0998L199.33 95.9864C199.43 96.1505 199.569 96.2882 199.733 96.3879C199.898 96.4876 200.084 96.5464 200.276 96.5595L202.098 96.6893C202.46 96.7208 202.824 96.6634 203.158 96.522C203.493 96.3807 203.788 96.1597 204.017 95.8783L204.309 95.5323C203.509 93.9968 201.514 92.9318 201.514 92.9318L200.973 92.5641C200.755 92.4069 200.484 92.3426 200.218 92.3851C199.953 92.4277 199.715 92.5737 199.557 92.7912L198.816 93.8401C198.69 94.025 198.621 94.2424 198.616 94.4659C198.611 94.6895 198.671 94.9096 198.789 95.0998Z" fill="#7F3E3B"/>
<path d="M117.714 37.7804L109.793 38.9698L105.203 27.2486C105.008 26.5674 104.187 27.5514 103.489 27.4378L102.289 27.2432C102.175 27.0215 104.5 37.2884 106.041 43.3329C106.668 45.8036 119.314 43.1328 119.314 43.1328C124.234 40.9162 117.714 37.7804 117.714 37.7804Z" fill="#FFB573"/>
<path d="M112.999 37.4884C113.311 40.052 114.026 42.5501 115.119 44.8899C115.182 45.02 115.283 45.1284 115.408 45.2014C115.533 45.2745 115.677 45.3091 115.821 45.3007C119.849 45.052 121.617 44.0897 121.617 44.0897C121.255 42.8786 122.866 36.2233 122.033 35.3528C120.899 35.5499 119.79 35.8689 118.725 36.3044C117.806 36.7639 112.999 37.4884 112.999 37.4884Z" fill="#35A936"/>
<path d="M120.46 44.7169C120.509 55.8758 119.525 65.4561 119.525 65.4561C119.525 65.4561 138.853 65.5372 139.529 65.5534C141.086 52.6266 142.205 49.334 142.61 41.4514C142.81 38.2075 140.989 35.3205 139.102 34.9636L138.75 34.9204C133.344 34.2013 127.494 34.7798 122.055 35.3529C119.952 35.6394 120.66 39.4726 120.46 44.7169Z" fill="#35A936"/>
<path d="M128.737 121.289C127.115 136.124 128.435 162.691 128.435 162.691L131.83 162.783C131.83 162.783 134.42 138.173 134.533 120.467L128.737 121.289Z" fill="#FFB573"/>
<path d="M128.737 121.289C127.115 136.124 128.435 162.691 128.435 162.691L131.83 162.783C131.83 162.783 134.42 138.173 134.533 120.467L128.737 121.289Z" fill="#FFB573"/>
<path d="M133.133 161.07C135.647 162.502 135.928 162.535 138.696 163.102C139.302 163.227 139.075 164.67 137.664 164.686C135.333 164.724 135.501 164.643 133.533 164.686C131.835 164.686 129.375 164.8 128.024 164.832H127.981C127.83 164.821 127.689 164.752 127.588 164.639C127.487 164.526 127.434 164.378 127.44 164.227L127.689 161.113C127.696 161.047 127.727 160.987 127.776 160.942C127.825 160.897 127.888 160.872 127.954 160.869L132.279 160.837C132.579 160.838 132.873 160.919 133.133 161.07Z" fill="#263238"/>
<path d="M132.906 161.124C133.447 161.232 134.463 161.362 134.836 161.016C134.891 160.964 134.933 160.899 134.959 160.828C134.984 160.756 134.992 160.68 134.982 160.605C134.976 160.559 134.96 160.515 134.935 160.477C134.909 160.439 134.876 160.406 134.836 160.383C134.409 160.156 133.03 160.88 132.879 160.967C132.865 160.976 132.853 160.989 132.846 161.004C132.838 161.02 132.835 161.036 132.836 161.053C132.839 161.069 132.846 161.083 132.856 161.094C132.867 161.105 132.88 161.114 132.895 161.118L132.906 161.124ZM134.76 160.534C134.776 160.542 134.789 160.553 134.798 160.568C134.808 160.582 134.813 160.598 134.814 160.615C134.823 160.665 134.82 160.715 134.804 160.763C134.788 160.81 134.76 160.852 134.722 160.886C134.512 161.08 133.944 161.124 133.176 160.999C133.717 160.729 134.468 160.426 134.728 160.513L134.76 160.534Z" fill="#35A936"/>
<path d="M132.955 161.124C133.365 160.929 134.182 160.167 134.101 159.761C134.101 159.664 134.014 159.55 133.787 159.529C133.705 159.521 133.622 159.53 133.544 159.556C133.466 159.582 133.394 159.625 133.333 159.68C133.03 160.07 132.856 160.544 132.836 161.037C132.834 161.053 132.837 161.068 132.844 161.083C132.851 161.097 132.861 161.109 132.873 161.118C132.885 161.127 132.899 161.132 132.913 161.133C132.928 161.134 132.942 161.131 132.955 161.124ZM133.863 159.718C133.933 159.718 133.938 159.777 133.944 159.794C133.982 160.037 133.441 160.637 133.014 160.907C133.047 160.512 133.197 160.135 133.446 159.826C133.491 159.784 133.544 159.752 133.602 159.734C133.66 159.715 133.721 159.71 133.782 159.718H133.863Z" fill="#35A936"/>
<path d="M116.459 122.159C114.351 136.93 106.522 162.356 106.522 162.356L102.803 162.281C102.803 162.281 106.376 137.8 110.626 120.608L116.459 122.159Z" fill="#FFB573"/>
<path d="M101.835 160.913C99.2128 162.405 98.9208 162.437 96.0392 163.032C95.4066 163.162 95.6391 164.654 97.1205 164.681C99.5534 164.719 99.3479 164.632 101.446 164.654C103.214 164.654 105.771 164.773 107.182 164.811H107.231C107.384 164.794 107.526 164.72 107.627 164.602C107.727 164.484 107.779 164.333 107.771 164.178L107.512 160.934C107.504 160.866 107.471 160.804 107.421 160.758C107.37 160.712 107.304 160.686 107.236 160.686L102.754 160.648C102.429 160.65 102.111 160.742 101.835 160.913Z" fill="#263238"/>
<path d="M102.067 160.961C102.083 160.958 102.097 160.95 102.107 160.938C102.118 160.927 102.125 160.912 102.127 160.896C102.13 160.878 102.128 160.86 102.12 160.843C102.112 160.827 102.1 160.813 102.084 160.804C101.927 160.718 100.494 159.966 100.045 160.199C100.003 160.223 99.9678 160.256 99.9414 160.297C99.9151 160.337 99.8988 160.383 99.8939 160.431C99.8835 160.509 99.8919 160.587 99.9182 160.661C99.9445 160.734 99.9881 160.8 100.045 160.853C100.435 161.215 101.473 161.086 102.057 160.972L102.067 160.961ZM100.159 160.334C100.429 160.248 101.213 160.561 101.781 160.842C100.981 160.967 100.386 160.923 100.159 160.723C100.121 160.688 100.092 160.644 100.075 160.595C100.058 160.546 100.053 160.494 100.062 160.442C100.062 160.424 100.067 160.407 100.076 160.391C100.086 160.376 100.099 160.364 100.116 160.356L100.159 160.334Z" fill="#35A936"/>
<path d="M102.067 160.961C102.081 160.953 102.092 160.941 102.098 160.927C102.105 160.912 102.108 160.896 102.105 160.88C102.08 160.363 101.89 159.867 101.565 159.464C101.501 159.407 101.426 159.364 101.346 159.337C101.265 159.31 101.179 159.3 101.094 159.307C100.856 159.334 100.786 159.453 100.77 159.55C100.689 159.977 101.532 160.767 101.965 160.972C101.98 160.984 101.999 160.989 102.018 160.987C102.037 160.985 102.055 160.976 102.067 160.961ZM101.062 159.491H101.148C101.211 159.485 101.274 159.491 101.333 159.511C101.393 159.531 101.448 159.562 101.494 159.604C101.757 159.934 101.914 160.335 101.943 160.756C101.5 160.475 100.932 159.848 100.981 159.599C100.981 159.599 100.981 159.54 101.056 159.518L101.062 159.491Z" fill="#35A936"/>
<path d="M127.375 90.7314C125.694 93.7698 117.043 124.046 117.043 124.046L113.259 141.622C112.707 144.167 112.304 146.741 112.053 149.332L111.296 154.949L102.565 155.058C102.743 154.295 104.371 146.537 108.182 122.138C112.107 97.0353 119.363 65.5426 119.363 65.5426C119.363 65.5426 130.489 65.1101 135.279 65.8454C136.62 72.6305 131.03 84.2004 127.375 90.7314Z" fill="#263238"/>
<path opacity="0.2" d="M124.926 81.9025C124.926 81.9025 122.071 99.1221 122.92 104.145L129.073 84.3463L124.926 81.9025Z" fill="black"/>
<path d="M134.22 155.057C134.42 154.755 135.582 130.063 136.025 123.067L139.377 84.2436C139.377 84.2436 141.27 71.3275 139.507 65.5534L123.25 65.4399C123.25 65.4399 127.618 112.974 126.629 136.94C126.256 145.883 126.056 155.063 126.056 155.063L134.22 155.057Z" fill="#263238"/>
<path d="M133.441 34.8339C134.658 35.6989 134.139 37.0613 133.149 38.1751C132.009 39.5089 130.567 40.5507 128.943 41.2135C128.91 41.2135 123.58 37.3479 127.348 34.9366C127.97 34.5365 128.213 33.5904 128.283 32.601C128.326 31.8465 128.295 31.0897 128.191 30.3411C128.173 30.1596 128.146 29.9792 128.11 29.8004C128.085 29.6182 128.049 29.4376 128.002 29.2598L133.652 26.9242C133.03 27.8595 132.571 30.8547 132.69 31.8225C132.836 32.9254 132.879 34.4338 133.441 34.8339Z" fill="#FFB573"/>
<path opacity="0.2" d="M128.327 32.5794C128.369 31.8249 128.338 31.0681 128.235 30.3195C128.219 30.1381 128.193 29.9577 128.159 29.7789L132.527 28.9409C131.57 29.8437 130.3 31.7036 128.327 32.5794Z" fill="black"/>
<path d="M123.493 27.0702C124.196 30.8925 128.775 32.9092 131.798 30.1681C133.544 28.5894 133.82 26.7079 134.139 23.7722C134.193 23.3235 134.241 22.8585 134.295 22.3611C134.392 21.5857 134.313 20.7985 134.063 20.058C133.964 19.7491 133.831 19.4518 133.668 19.1713C133.075 18.1092 132.13 17.2879 130.996 16.8495C129.861 16.4111 128.609 16.3833 127.456 16.7709C123.666 18.0522 122.855 23.6263 123.493 27.0702Z" fill="#FFB573"/>
<path d="M128.224 22.4692C128.024 22.4692 127.845 22.7017 127.829 23.0099C127.813 23.3181 127.937 23.5776 128.164 23.5884C128.391 23.5992 128.564 23.3613 128.581 23.0477C128.597 22.7342 128.424 22.4855 128.224 22.4692Z" fill="#263238"/>
<path d="M124.791 22.4422C124.591 22.4422 124.412 22.6639 124.396 22.9828C124.38 23.3018 124.526 23.5235 124.731 23.5613C124.937 23.5992 125.11 23.3343 125.126 23.0207C125.142 22.7071 124.991 22.453 124.791 22.4422Z" fill="#263238"/>
<path d="M126.234 26.043C125.565 26.0527 124.913 25.829 124.391 25.4104C125.162 24.7104 125.837 23.9104 126.396 23.0316L126.234 26.043Z" fill="#ED893E"/>
<path d="M129.408 22.1665C129.274 21.9815 129.099 21.8304 128.896 21.7253C128.693 21.6201 128.468 21.5639 128.24 21.5609H128.181C128.133 21.5569 128.089 21.5351 128.057 21.5001C128.025 21.465 128.007 21.4192 128.008 21.3717C128.009 21.3476 128.015 21.3239 128.026 21.3021C128.036 21.2804 128.051 21.2609 128.069 21.2448C128.087 21.2287 128.108 21.2164 128.131 21.2085C128.154 21.2006 128.178 21.1972 128.202 21.1987C128.489 21.1957 128.772 21.2608 129.029 21.3886C129.285 21.5165 129.508 21.7034 129.678 21.934C129.707 21.9722 129.72 22.0202 129.714 22.0676C129.707 22.1151 129.683 22.1583 129.646 22.1881C129.622 22.2087 129.591 22.2202 129.559 22.2205C129.532 22.2236 129.504 22.2203 129.477 22.2109C129.451 22.2016 129.427 22.1864 129.408 22.1665Z" fill="#263238"/>
<path d="M123.536 20.8959C123.536 20.8718 123.541 20.8479 123.55 20.8256C123.56 20.8033 123.573 20.783 123.59 20.7659C123.607 20.7489 123.628 20.7353 123.65 20.7261C123.672 20.7169 123.696 20.7121 123.72 20.7121C124.007 20.7067 124.29 20.7702 124.547 20.8972C124.804 21.0242 125.027 21.2111 125.196 21.442C125.209 21.4614 125.218 21.4832 125.222 21.506C125.226 21.5289 125.226 21.5524 125.221 21.5751C125.216 21.5978 125.206 21.6193 125.193 21.6382C125.179 21.6572 125.162 21.6732 125.142 21.6853C125.123 21.697 125.101 21.7048 125.078 21.7082C125.056 21.7116 125.033 21.7105 125.011 21.705C124.989 21.6994 124.968 21.6896 124.95 21.676C124.931 21.6624 124.916 21.6454 124.904 21.6258C124.765 21.4501 124.586 21.3097 124.382 21.2157C124.178 21.1218 123.955 21.0771 123.731 21.0852C123.701 21.0877 123.671 21.082 123.645 21.0686C123.618 21.0553 123.596 21.0348 123.58 21.0095C123.552 20.9778 123.537 20.9377 123.536 20.8959Z" fill="#263238"/>
<path d="M131.776 19.8526C131.992 20.6222 132.068 21.4241 132.003 22.2206C132.469 22.8051 132.802 23.4843 132.979 24.2108C133.155 24.9373 133.171 25.6936 133.025 26.4268C133.592 25.4903 134.479 24.7911 135.523 24.4589C135.847 23.041 135.993 21.5879 135.955 20.1337C135.973 19.5764 135.866 19.0222 135.642 18.5118C135.525 18.2565 135.339 18.0394 135.105 17.8853C134.871 17.7313 134.597 17.6467 134.317 17.6413C134.382 17.0628 133.841 16.5601 133.344 16.2789C131.867 15.4005 130.171 14.9591 128.453 15.006C126.735 15.0529 125.066 15.5861 123.639 16.5438C123.196 16.5438 122.731 16.5438 122.282 16.5438C122.355 17.0374 122.529 17.5108 122.792 17.9348C123.055 18.3588 123.402 18.7245 123.812 19.0092C123.993 19.1544 124.154 19.3215 124.293 19.5066C125.284 19.7992 126.333 19.8364 127.343 19.6147C128.347 19.3812 129.363 19.2007 130.386 19.0741C130.67 19.0433 130.957 19.1018 131.206 19.2413C131.455 19.3808 131.654 19.5945 131.776 19.8526Z" fill="#263238"/>
<path d="M134.436 23.5451C133.198 23.5451 132.441 25.1292 132.311 26.1943C132.16 27.3837 132.954 28.3569 134.101 27.8162C134.528 27.6185 134.912 27.3374 135.23 26.9892C135.547 26.641 135.792 26.2329 135.95 25.7888C136.052 25.5411 136.092 25.2718 136.065 25.005C136.039 24.7382 135.946 24.4821 135.796 24.2598C135.646 24.0375 135.443 23.8559 135.206 23.7311C134.969 23.6064 134.704 23.5425 134.436 23.5451Z" fill="#FFB573"/>
<path d="M125.261 27.0972C125.261 27.0972 126.342 26.6647 129.44 26.2916C129.262 27.427 128.581 27.9136 126.975 28.0758C125.369 28.238 125.261 27.0972 125.261 27.0972Z" fill="#263238"/>
<path d="M125.402 27.0539C125.448 27.1786 125.526 27.2888 125.629 27.3733C125.731 27.4578 125.854 27.5137 125.986 27.5351C126.904 27.4245 127.81 27.2235 128.689 26.9349C128.838 26.9 128.975 26.8237 129.083 26.7147C129.191 26.6057 129.266 26.4684 129.3 26.3186C127.981 26.4472 126.677 26.6932 125.402 27.0539Z" fill="white"/>
<path d="M126.05 27.4432C126.837 27.1239 127.669 26.9288 128.516 26.8647C128.754 26.8928 128.98 26.9843 129.17 27.1297C128.824 27.6703 128.132 27.9677 127.007 28.0974C126.579 28.173 126.138 28.0925 125.764 27.8703C125.837 27.7144 125.934 27.5704 126.05 27.4432Z" fill="white"/>
<path d="M103.273 25.897C103.273 25.897 102.23 23.2911 103.008 22.8099C103.787 22.3287 103.603 22.9937 103.603 22.9937L104.927 26.2376L103.273 25.897Z" fill="#FFB573"/>
<path d="M101.116 28.4759C100.429 28.3245 100.397 27.7947 100.083 27.1675C100.083 27.1675 99.2019 24.686 100.083 24.3886C100.964 24.3582 101.845 24.3889 102.722 24.4805C103.326 24.5644 103.888 24.8403 104.324 25.2677C104.76 25.695 105.047 26.251 105.144 26.8539C105.701 29.5518 101.116 28.4759 101.116 28.4759Z" fill="#FFB573"/>
<path opacity="0.2" d="M138.15 39.132L141.178 53.1456L143.621 39.6889L138.15 39.132Z" fill="black"/>
<path d="M144.497 39.7538C144.951 40.9702 145.379 42.1921 145.789 43.4248C146.2 44.6575 146.595 45.8901 146.979 47.1282C147.363 48.3663 147.73 49.6152 148.098 50.8641C148.432 51.7969 148.595 52.7822 148.579 53.7728C148.557 54.3233 148.462 54.8686 148.298 55.3947C148.175 55.7999 148.027 56.1971 147.855 56.5841L147.747 56.8328C146.525 58.9341 145.283 61.0228 144.022 63.0989C143.389 64.137 142.773 65.1858 142.118 66.2184C141.464 67.2511 140.837 68.2837 140.172 69.3055C139.964 69.6381 139.638 69.8808 139.26 69.9858C138.882 70.0908 138.478 70.0507 138.128 69.8733C137.778 69.6958 137.507 69.3939 137.368 69.0268C137.229 68.6597 137.232 68.2538 137.377 67.889C137.804 66.7483 138.264 65.6237 138.712 64.4884C139.161 63.353 139.637 62.2393 140.096 61.1147C141.019 58.8656 141.967 56.6274 142.94 54.3999L142.821 54.6648C142.893 54.4478 142.947 54.2255 142.984 53.9998C143.011 53.899 143.011 53.7925 142.984 53.6917L142.892 53.4484L142.632 52.8158C142.151 51.5994 141.675 50.3829 141.216 49.1556C140.756 47.9284 140.307 46.7065 139.875 45.4738C139.442 44.2412 139.026 42.9977 138.631 41.7542C138.364 40.9741 138.417 40.1198 138.78 39.3792C139.142 38.6385 139.784 38.0722 140.564 37.8048C141.344 37.5373 142.198 37.5907 142.939 37.9532C143.68 38.3157 144.246 38.9575 144.514 39.7376L144.497 39.7538Z" fill="#FFB573"/>
<path d="M137.815 67.4565L135.652 70.1598C135.652 70.1598 137.469 72.982 138.675 72.5765C139.88 72.171 140.297 68.9487 140.297 68.9487L137.815 67.4565Z" fill="#FFB573"/>
<path d="M139.713 35.1529C139.713 35.1529 135.75 35.8016 138.777 43.6626C141.135 49.7936 141.313 48.9123 141.313 48.9123L147.26 45.4306C147.26 45.4306 145.087 34.8501 139.713 35.1529Z" fill="#35A936"/>
<path d="M267.813 4.25488H241.127C240.774 4.25488 240.436 4.39501 240.187 4.64443C239.937 4.89385 239.797 5.23214 239.797 5.58487V12.9863C239.799 13.3386 239.939 13.6761 240.188 13.9252C240.437 14.1743 240.775 14.3149 241.127 14.3163H245.15L245.312 17.0628C245.403 17.2211 245.532 17.3539 245.688 17.4486C245.845 17.5433 246.022 17.597 246.205 17.6045C246.387 17.6121 246.568 17.5733 246.732 17.4918C246.895 17.4103 247.035 17.2888 247.139 17.1385L248.853 14.3163H267.776C268.128 14.3149 268.465 14.1743 268.715 13.9252C268.964 13.6761 269.104 13.3386 269.106 12.9863V5.59028C269.106 5.24348 268.971 4.91021 268.73 4.66098C268.489 4.41175 268.16 4.26612 267.813 4.25488Z" fill="#35A936"/>
<g opacity="0.7">
<path d="M267.813 4.25488H241.127C240.774 4.25488 240.436 4.39501 240.187 4.64443C239.937 4.89385 239.797 5.23214 239.797 5.58487V12.9863C239.799 13.3386 239.939 13.6761 240.188 13.9252C240.437 14.1743 240.775 14.3149 241.127 14.3163H245.15L245.312 17.0628C245.403 17.2211 245.532 17.3539 245.688 17.4486C245.845 17.5433 246.022 17.597 246.205 17.6045C246.387 17.6121 246.568 17.5733 246.732 17.4918C246.895 17.4103 247.035 17.2888 247.139 17.1385L248.853 14.3163H267.776C268.128 14.3149 268.465 14.1743 268.715 13.9252C268.964 13.6761 269.104 13.3386 269.106 12.9863V5.59028C269.106 5.24348 268.971 4.91021 268.73 4.66098C268.489 4.41175 268.16 4.26612 267.813 4.25488Z" fill="white"/>
</g>
<path d="M245.177 11.5861L245.809 10.3048L247.231 10.0939L246.204 9.09371L246.447 7.68262L245.177 8.35302L243.912 7.68262L244.149 9.09371L243.128 10.0939L244.544 10.3048L245.177 11.5861Z" fill="#35A936"/>
<path d="M249.945 11.5861L250.578 10.3048L251.994 10.0939L250.972 9.09371L251.21 7.68262L249.945 8.35302L248.675 7.68262L248.918 9.09371L247.891 10.0939L249.313 10.3048L249.945 11.5861Z" fill="#35A936"/>
<path d="M254.714 11.5861L255.346 10.3048L256.763 10.0939L255.735 9.09371L255.979 7.68262L254.714 8.35302L253.443 7.68262L253.686 9.09371L252.659 10.0939L254.076 10.3048L254.714 11.5861Z" fill="#263238"/>
<path d="M259.477 11.5861L260.115 10.3048L261.531 10.0939L260.504 9.09371L260.747 7.68262L259.477 8.35302L258.212 7.68262L258.455 9.09371L257.428 10.0939L258.844 10.3048L259.477 11.5861Z" fill="#263238"/>
<path d="M264.245 11.5861L264.878 10.3048L266.3 10.0939L265.272 9.09371L265.516 7.68262L264.245 8.35302L262.98 7.68262L263.218 9.09371L262.196 10.0939L263.613 10.3048L264.245 11.5861Z" fill="#263238"/>
<path d="M172.719 11.3482H199.373C199.727 11.3496 200.066 11.4908 200.316 11.7409C200.566 11.991 200.707 12.3299 200.708 12.6836V20.0851C200.707 20.4383 200.566 20.7766 200.315 21.0258C200.065 21.2751 199.726 21.4151 199.373 21.415H195.367L195.21 24.1615C195.119 24.3196 194.989 24.4518 194.832 24.5461C194.676 24.6403 194.498 24.6934 194.316 24.7004C194.133 24.7074 193.952 24.6681 193.789 24.5862C193.626 24.5043 193.486 24.3823 193.383 24.2318L191.663 21.415H172.741C172.387 21.4151 172.049 21.2751 171.798 21.0258C171.548 20.7766 171.407 20.4383 171.405 20.0851V12.6836C171.407 12.3336 171.545 11.9979 171.79 11.7484C172.036 11.4989 172.369 11.3553 172.719 11.3482Z" fill="#35A936"/>
<g opacity="0.7">
<path d="M172.719 11.3482H199.373C199.727 11.3496 200.066 11.4908 200.316 11.7409C200.566 11.991 200.707 12.3299 200.708 12.6836V20.0851C200.707 20.4383 200.566 20.7766 200.315 21.0258C200.065 21.2751 199.726 21.4151 199.373 21.415H195.367L195.21 24.1615C195.119 24.3196 194.989 24.4518 194.832 24.5461C194.676 24.6403 194.498 24.6934 194.316 24.7004C194.133 24.7074 193.952 24.6681 193.789 24.5862C193.626 24.5043 193.486 24.3823 193.383 24.2318L191.663 21.415H172.741C172.387 21.4151 172.049 21.2751 171.798 21.0258C171.548 20.7766 171.407 20.4383 171.405 20.0851V12.6836C171.407 12.3336 171.545 11.9979 171.79 11.7484C172.036 11.4989 172.369 11.3553 172.719 11.3482Z" fill="white"/>
</g>
<path d="M176.617 14.3434L177.25 15.6247L178.672 15.8302L177.644 16.8304L177.882 18.2414L176.617 17.5764L175.347 18.2414L175.59 16.8304L174.563 15.8302L175.985 15.6247L176.617 14.3434Z" fill="#35A936"/>
<path d="M181.386 14.3434L182.018 15.6247L183.435 15.8302L182.408 16.8304L182.651 18.2414L181.386 17.5764L180.115 18.2414L180.358 16.8304L179.331 15.8302L180.748 15.6247L181.386 14.3434Z" fill="#35A936"/>
<path d="M186.149 14.3434L186.787 15.6247L188.203 15.8302L187.176 16.8304L187.419 18.2414L186.149 17.5764L184.884 18.2414L185.127 16.8304L184.1 15.8302L185.516 15.6247L186.149 14.3434Z" fill="#35A936"/>
<path d="M190.917 14.3434L191.55 15.6247L192.972 15.8302L191.945 16.8304L192.188 18.2414L190.917 17.5764L189.652 18.2414L189.89 16.8304L188.868 15.8302L190.285 15.6247L190.917 14.3434Z" fill="#263238"/>
<path d="M195.686 14.3434L196.318 15.6247L197.735 15.8302L196.713 16.8304L196.956 18.2414L195.686 17.5764L194.415 18.2414L194.659 16.8304L193.631 15.8302L195.053 15.6247L195.686 14.3434Z" fill="#263238"/>
<path d="M181.515 114.093H208.175C208.527 114.091 208.864 113.951 209.114 113.702C209.363 113.453 209.503 113.115 209.505 112.763V105.361C209.505 105.009 209.365 104.67 209.115 104.421C208.866 104.171 208.527 104.031 208.175 104.031H204.152L204.017 101.285C203.926 101.127 203.796 100.994 203.639 100.9C203.483 100.806 203.305 100.753 203.123 100.746C202.94 100.739 202.759 100.778 202.596 100.86C202.433 100.942 202.293 101.064 202.19 101.215L200.476 104.037H181.553C181.201 104.037 180.862 104.177 180.613 104.426C180.363 104.676 180.223 105.014 180.223 105.367V112.768C180.226 113.113 180.362 113.444 180.603 113.691C180.844 113.937 181.171 114.082 181.515 114.093Z" fill="#35A936"/>
<g opacity="0.7">
<path d="M181.515 114.093H208.175C208.527 114.091 208.864 113.951 209.114 113.702C209.363 113.453 209.503 113.115 209.505 112.763V105.361C209.505 105.009 209.365 104.67 209.115 104.421C208.866 104.171 208.527 104.031 208.175 104.031H204.152L204.017 101.285C203.926 101.127 203.796 100.994 203.639 100.9C203.483 100.806 203.305 100.753 203.123 100.746C202.94 100.739 202.759 100.778 202.596 100.86C202.433 100.942 202.293 101.064 202.19 101.215L200.476 104.037H181.553C181.201 104.037 180.862 104.177 180.613 104.426C180.363 104.676 180.223 105.014 180.223 105.367V112.768C180.226 113.113 180.362 113.444 180.603 113.691C180.844 113.937 181.171 114.082 181.515 114.093Z" fill="white"/>
</g>
<path d="M185.559 106.756L186.197 108.043L187.614 108.248L186.587 109.249L186.83 110.66L185.559 109.995L184.294 110.66L184.538 109.249L183.51 108.248L184.927 108.043L185.559 106.756Z" fill="#35A936"/>
<path d="M190.328 106.756L190.961 108.043L192.382 108.248L191.355 109.249L191.599 110.66L190.328 109.995L189.063 110.66L189.301 109.249L188.274 108.248L189.695 108.043L190.328 106.756Z" fill="#35A936"/>
<path d="M195.097 106.756L195.729 108.043L197.146 108.248L196.124 109.249L196.362 110.66L195.097 109.995L193.826 110.66L194.069 109.249L193.042 108.248L194.459 108.043L195.097 106.756Z" fill="#35A936"/>
<path d="M199.865 106.756L200.498 108.043L201.914 108.248L200.887 109.249L201.13 110.66L199.865 109.995L198.594 110.66L198.838 109.249L197.811 108.248L199.227 108.043L199.865 106.756Z" fill="#35A936"/>
<path d="M204.628 106.756L205.266 108.043L206.683 108.248L205.655 109.249L205.899 110.66L204.628 109.995L203.363 110.66L203.606 109.249L202.579 108.248L203.996 108.043L204.628 106.756Z" fill="#263238"/>
<path d="M107.679 0H135.068C135.422 -2.89491e-06 135.761 0.139945 136.011 0.389213C136.261 0.63848 136.402 0.976759 136.404 1.32999V8.73144C136.402 9.08467 136.261 9.42295 136.011 9.67222C135.761 9.92149 135.422 10.0614 135.068 10.0614H125.477L123.812 12.8079C123.721 12.9663 123.592 13.099 123.436 13.1937C123.279 13.2884 123.102 13.3421 122.919 13.3496C122.737 13.3572 122.556 13.3184 122.392 13.2369C122.229 13.1554 122.089 13.0339 121.985 12.8836L120.266 10.0614H107.674C107.322 10.06 106.984 9.91943 106.735 9.67032C106.486 9.4212 106.345 9.08374 106.344 8.73144V1.32999C106.345 0.976759 106.487 0.63848 106.737 0.389213C106.987 0.139945 107.326 -2.89491e-06 107.679 0Z" fill="#35A936"/>
<g opacity="0.7">
<path d="M107.679 0H135.068C135.422 -2.89491e-06 135.761 0.139945 136.011 0.389213C136.261 0.63848 136.402 0.976759 136.404 1.32999V8.73144C136.402 9.08467 136.261 9.42295 136.011 9.67222C135.761 9.92149 135.422 10.0614 135.068 10.0614H125.477L123.812 12.8079C123.721 12.9663 123.592 13.099 123.436 13.1937C123.279 13.2884 123.102 13.3421 122.919 13.3496C122.737 13.3572 122.556 13.3184 122.392 13.2369C122.229 13.1554 122.089 13.0339 121.985 12.8836L120.266 10.0614H107.674C107.322 10.06 106.984 9.91943 106.735 9.67032C106.486 9.4212 106.345 9.08374 106.344 8.73144V1.32999C106.345 0.976759 106.487 0.63848 106.737 0.389213C106.987 0.139945 107.326 -2.89491e-06 107.679 0Z" fill="white"/>
</g>
<path d="M112.232 2.81671L112.87 4.09804L114.286 4.30889L113.259 5.30369L113.502 6.72018L112.232 6.04978L110.966 6.72018L111.21 5.30369L110.183 4.30889L111.599 4.09804L112.232 2.81671Z" fill="#35A936"/>
<path d="M117 2.81671L117.633 4.09804L119.055 4.30889L118.027 5.30369L118.271 6.72018L117 6.04978L115.735 6.72018L115.973 5.30369L114.951 4.30889L116.368 4.09804L117 2.81671Z" fill="#35A936"/>
<path d="M121.769 2.81671L122.401 4.09804L123.818 4.30889L122.796 5.30369L123.039 6.72018L121.769 6.04978L120.498 6.72018L120.741 5.30369L119.714 4.30889L121.136 4.09804L121.769 2.81671Z" fill="#35A936"/>
<path d="M126.537 2.81671L127.17 4.09804L128.586 4.30889L127.564 5.30369L127.802 6.72018L126.537 6.04978L125.267 6.72018L125.51 5.30369L124.483 4.30889L125.899 4.09804L126.537 2.81671Z" fill="#35A936"/>
<path d="M131.3 2.81671L131.938 4.09804L133.355 4.30889L132.327 5.30369L132.571 6.72018L131.3 6.04978L130.035 6.72018L130.278 5.30369L129.251 4.30889L130.668 4.09804L131.3 2.81671Z" fill="#35A936"/>
</svg>
