<svg width="194" height="175" viewBox="0 0 194 175" fill="none" xmlns="http://www.w3.org/2000/svg">
<g filter="url(#filter0_d_7121_42491)">
<rect x="7" y="7.19824" width="180" height="160.603" rx="10.8621" fill="white"/>
<path d="M66.2414 52.8877H64.5601L64.5707 51.6466H66.2414C66.6586 51.6466 67.0104 51.5529 67.2968 51.3655C67.5832 51.1746 67.7989 50.897 67.9439 50.5328C68.0924 50.1686 68.1666 49.7284 68.1666 49.2122V48.8356C68.1666 48.4396 68.1242 48.0913 68.0393 47.7908C67.958 47.4903 67.836 47.2374 67.6734 47.0324C67.5107 46.8273 67.311 46.6735 67.0741 46.5709C66.8372 46.4649 66.5649 46.4118 66.2573 46.4118H64.5283V45.1654H66.2573C66.7735 45.1654 67.2456 45.2538 67.6734 45.4306C68.1048 45.6039 68.4778 45.8532 68.7925 46.1785C69.1072 46.5038 69.3494 46.8927 69.5191 47.3453C69.6923 47.7943 69.779 48.2947 69.779 48.8462V49.2122C69.779 49.7603 69.6923 50.2606 69.5191 50.7132C69.3494 51.1657 69.1072 51.5547 68.7925 51.88C68.4813 52.2017 68.1083 52.451 67.6734 52.6278C67.242 52.8011 66.7647 52.8877 66.2414 52.8877ZM65.4617 45.1654V52.8877H63.8706V45.1654H65.4617ZM72.4521 47.149V52.8877H70.9193V47.149H72.4521ZM70.8238 45.6534C70.8238 45.4306 70.9016 45.2468 71.0572 45.1018C71.2128 44.9568 71.4214 44.8843 71.683 44.8843C71.9411 44.8843 72.148 44.9568 72.3036 45.1018C72.4627 45.2468 72.5422 45.4306 72.5422 45.6534C72.5422 45.8761 72.4627 46.06 72.3036 46.205C72.148 46.3499 71.9411 46.4224 71.683 46.4224C71.4214 46.4224 71.2128 46.3499 71.0572 46.205C70.9016 46.06 70.8238 45.8761 70.8238 45.6534ZM77.3474 47.149H78.7317V52.6968C78.7317 53.2201 78.615 53.6638 78.3817 54.028C78.1518 54.3957 77.8301 54.6733 77.4164 54.8607C77.0027 55.0516 76.5218 55.1471 75.9738 55.1471C75.7333 55.1471 75.4787 55.1153 75.21 55.0516C74.9448 54.988 74.6902 54.889 74.4463 54.7546C74.2058 54.6203 74.0043 54.4505 73.8416 54.2455L74.5152 53.3438C74.692 53.5489 74.8971 53.708 75.1305 53.8212C75.3638 53.9378 75.6219 53.9962 75.9048 53.9962C76.1806 53.9962 76.414 53.9449 76.6049 53.8424C76.7958 53.7434 76.9426 53.5966 77.0451 53.4022C77.1476 53.2112 77.1989 52.9796 77.1989 52.7074V48.475L77.3474 47.149ZM73.4863 50.0873V49.9759C73.4863 49.5375 73.5393 49.1397 73.6454 48.7826C73.755 48.4219 73.9088 48.1126 74.1068 47.8544C74.3084 47.5963 74.5523 47.3966 74.8387 47.2551C75.1252 47.1137 75.4487 47.043 75.8093 47.043C76.1912 47.043 76.5112 47.1137 76.7693 47.2551C77.0274 47.3966 77.2396 47.5981 77.4058 47.8597C77.5719 48.1179 77.701 48.4237 77.7929 48.7773C77.8884 49.1273 77.9627 49.511 78.0157 49.9282V50.1722C77.9627 50.5717 77.8831 50.943 77.777 51.286C77.6709 51.6289 77.5313 51.9295 77.358 52.1876C77.1848 52.4422 76.9691 52.6402 76.711 52.7816C76.4564 52.9231 76.1523 52.9938 75.7987 52.9938C75.4451 52.9938 75.1252 52.9213 74.8387 52.7763C74.5559 52.6313 74.3137 52.428 74.1121 52.1664C73.9106 51.9047 73.755 51.5971 73.6454 51.2435C73.5393 50.89 73.4863 50.5045 73.4863 50.0873ZM75.0138 49.9759V50.0873C75.0138 50.3242 75.0368 50.5452 75.0827 50.7503C75.1287 50.9554 75.1994 51.1375 75.2949 51.2966C75.3939 51.4521 75.5159 51.5741 75.6608 51.6625C75.8093 51.7474 75.9844 51.7898 76.1859 51.7898C76.4652 51.7898 76.6933 51.7315 76.8701 51.6148C77.0469 51.4946 77.1795 51.3302 77.2679 51.1215C77.3563 50.9129 77.4075 50.6725 77.4217 50.4002V49.7054C77.4146 49.4827 77.3845 49.2829 77.3315 49.1061C77.2785 48.9258 77.2042 48.772 77.1088 48.6447C77.0133 48.5174 76.8895 48.4184 76.7375 48.3477C76.5854 48.277 76.4051 48.2416 76.1965 48.2416C75.995 48.2416 75.8199 48.2876 75.6714 48.3795C75.5265 48.4679 75.4045 48.5899 75.3055 48.7455C75.21 48.901 75.1375 49.0849 75.088 49.2971C75.0385 49.5057 75.0138 49.732 75.0138 49.9759ZM81.5321 47.149V52.8877H79.9993V47.149H81.5321ZM79.9038 45.6534C79.9038 45.4306 79.9816 45.2468 80.1372 45.1018C80.2928 44.9568 80.5014 44.8843 80.763 44.8843C81.0211 44.8843 81.228 44.9568 81.3836 45.1018C81.5427 45.2468 81.6222 45.4306 81.6222 45.6534C81.6222 45.8761 81.5427 46.06 81.3836 46.205C81.228 46.3499 81.0211 46.4224 80.763 46.4224C80.5014 46.4224 80.2928 46.3499 80.1372 46.205C79.9816 46.06 79.9038 45.8761 79.9038 45.6534ZM85.6054 47.149V48.231H82.264V47.149H85.6054ZM83.0914 45.7329H84.6189V51.1587C84.6189 51.3249 84.6401 51.4521 84.6825 51.5405C84.7285 51.6289 84.7956 51.6908 84.884 51.7262C84.9724 51.758 85.0838 51.7739 85.2182 51.7739C85.3136 51.7739 85.3985 51.7704 85.4728 51.7633C85.5505 51.7527 85.616 51.7421 85.669 51.7315L85.6743 52.8559C85.5435 52.8983 85.402 52.9319 85.25 52.9566C85.098 52.9814 84.93 52.9938 84.7461 52.9938C84.4102 52.9938 84.1168 52.939 83.8657 52.8294C83.6182 52.7162 83.4273 52.5359 83.2929 52.2884C83.1586 52.0409 83.0914 51.7156 83.0914 51.3125V45.7329ZM89.1164 52.9938C88.6709 52.9938 88.2714 52.9231 87.9178 52.7816C87.5642 52.6367 87.2637 52.4369 87.0161 52.1823C86.7722 51.9277 86.5848 51.6325 86.4539 51.2966C86.3231 50.9571 86.2577 50.5965 86.2577 50.2146V50.0025C86.2577 49.5676 86.3196 49.1698 86.4433 48.8091C86.5671 48.4485 86.7439 48.1355 86.9737 47.8704C87.2071 47.6052 87.4899 47.4019 87.8223 47.2604C88.1547 47.1155 88.5295 47.043 88.9467 47.043C89.3533 47.043 89.714 47.1101 90.0287 47.2445C90.3434 47.3789 90.6068 47.5698 90.8189 47.8173C91.0346 48.0648 91.1973 48.3618 91.3069 48.7083C91.4165 49.0513 91.4713 49.4332 91.4713 49.854V50.4904H86.9101V49.4721H89.9703V49.3554C89.9703 49.1433 89.9314 48.9541 89.8537 48.7879C89.7794 48.6182 89.6663 48.4838 89.5142 48.3848C89.3622 48.2858 89.1677 48.2363 88.9308 48.2363C88.7293 48.2363 88.556 48.2805 88.411 48.3689C88.2661 48.4573 88.1476 48.5811 88.0557 48.7402C87.9673 48.8993 87.9001 49.0867 87.8541 49.3024C87.8117 49.5145 87.7905 49.7479 87.7905 50.0025V50.2146C87.7905 50.4444 87.8223 50.6566 87.886 50.8511C87.9531 51.0455 88.0468 51.2135 88.1671 51.3549C88.2908 51.4963 88.4393 51.606 88.6126 51.6837C88.7894 51.7615 88.9891 51.8004 89.2119 51.8004C89.4877 51.8004 89.744 51.7474 89.9809 51.6413C90.2214 51.5317 90.4282 51.3673 90.6015 51.1481L91.344 51.9542C91.2238 52.1275 91.0594 52.2937 90.8508 52.4528C90.6457 52.6119 90.3982 52.7427 90.1082 52.8453C89.8183 52.9443 89.4877 52.9938 89.1164 52.9938ZM98.1487 51.3019C98.1487 51.1923 98.1169 51.0933 98.0532 51.0049C97.9896 50.9165 97.8711 50.8351 97.6979 50.7609C97.5282 50.6831 97.2824 50.6124 96.9607 50.5487C96.6707 50.4851 96.4002 50.4055 96.1492 50.3101C95.9017 50.2111 95.686 50.0926 95.5021 49.9547C95.3218 49.8168 95.1804 49.6542 95.0778 49.4668C94.9753 49.2758 94.924 49.0584 94.924 48.8144C94.924 48.574 94.9753 48.3477 95.0778 48.1355C95.1839 47.9234 95.3342 47.736 95.5287 47.5733C95.7267 47.4072 95.9671 47.2781 96.25 47.1862C96.5364 47.0907 96.8581 47.043 97.2152 47.043C97.7138 47.043 98.1416 47.1225 98.4988 47.2816C98.8594 47.4407 99.1352 47.66 99.3261 47.9393C99.5206 48.2151 99.6178 48.5298 99.6178 48.8834H98.0904C98.0904 48.7349 98.0585 48.6023 97.9949 48.4856C97.9348 48.3654 97.8393 48.2717 97.7085 48.2045C97.5812 48.1338 97.415 48.0984 97.2099 48.0984C97.0402 48.0984 96.8935 48.1285 96.7697 48.1886C96.646 48.2452 96.5505 48.3229 96.4833 48.4219C96.4197 48.5174 96.3879 48.6235 96.3879 48.7402C96.3879 48.8286 96.4055 48.9081 96.4409 48.9788C96.4798 49.046 96.5417 49.1079 96.6265 49.1645C96.7114 49.221 96.821 49.2741 96.9554 49.3236C97.0933 49.3695 97.263 49.412 97.4645 49.4509C97.8782 49.5357 98.2477 49.6471 98.573 49.785C98.8983 49.9194 99.1564 50.1032 99.3474 50.3366C99.5383 50.5664 99.6338 50.8687 99.6338 51.2435C99.6338 51.4981 99.5772 51.7315 99.464 51.9436C99.3509 52.1558 99.1882 52.3414 98.9761 52.5005C98.7639 52.6561 98.5094 52.7781 98.2124 52.8665C97.9189 52.9513 97.5883 52.9938 97.2206 52.9938C96.6866 52.9938 96.2341 52.8983 95.8628 52.7074C95.4951 52.5164 95.2157 52.2742 95.0248 51.9808C94.8374 51.6837 94.7437 51.3797 94.7437 51.0685H96.1916C96.1987 51.2771 96.2517 51.4451 96.3507 51.5724C96.4533 51.6997 96.5823 51.7916 96.7379 51.8482C96.897 51.9047 97.0685 51.933 97.2524 51.933C97.4504 51.933 97.6148 51.9065 97.7456 51.8535C97.8764 51.7969 97.9755 51.7226 98.0426 51.6307C98.1133 51.5352 98.1487 51.4256 98.1487 51.3019ZM103.267 52.9938C102.821 52.9938 102.422 52.9231 102.068 52.7816C101.715 52.6367 101.414 52.4369 101.167 52.1823C100.923 51.9277 100.735 51.6325 100.604 51.2966C100.474 50.9571 100.408 50.5965 100.408 50.2146V50.0025C100.408 49.5676 100.47 49.1698 100.594 48.8091C100.717 48.4485 100.894 48.1355 101.124 47.8704C101.357 47.6052 101.64 47.4019 101.973 47.2604C102.305 47.1155 102.68 47.043 103.097 47.043C103.504 47.043 103.864 47.1101 104.179 47.2445C104.494 47.3789 104.757 47.5698 104.969 47.8173C105.185 48.0648 105.348 48.3618 105.457 48.7083C105.567 49.0513 105.622 49.4332 105.622 49.854V50.4904H101.06V49.4721H104.121V49.3554C104.121 49.1433 104.082 48.9541 104.004 48.7879C103.93 48.6182 103.817 48.4838 103.665 48.3848C103.513 48.2858 103.318 48.2363 103.081 48.2363C102.88 48.2363 102.706 48.2805 102.561 48.3689C102.416 48.4573 102.298 48.5811 102.206 48.7402C102.118 48.8993 102.05 49.0867 102.005 49.3024C101.962 49.5145 101.941 49.7479 101.941 50.0025V50.2146C101.941 50.4444 101.973 50.6566 102.036 50.8511C102.104 51.0455 102.197 51.2135 102.317 51.3549C102.441 51.4963 102.59 51.606 102.763 51.6837C102.94 51.7615 103.14 51.8004 103.362 51.8004C103.638 51.8004 103.894 51.7474 104.131 51.6413C104.372 51.5317 104.579 51.3673 104.752 51.1481L105.494 51.9542C105.374 52.1275 105.21 52.2937 105.001 52.4528C104.796 52.6119 104.549 52.7427 104.259 52.8453C103.969 52.9443 103.638 52.9938 103.267 52.9938ZM109.886 51.514V47.149H111.413V52.8877H109.976L109.886 51.514ZM110.056 50.3366L110.506 50.326C110.506 50.7079 110.462 51.0632 110.374 51.392C110.285 51.7173 110.153 52.0002 109.976 52.2406C109.799 52.4775 109.577 52.6632 109.308 52.7975C109.039 52.9284 108.723 52.9938 108.358 52.9938C108.079 52.9938 107.821 52.9549 107.584 52.8771C107.351 52.7958 107.149 52.6702 106.979 52.5005C106.813 52.3273 106.682 52.1063 106.587 51.8376C106.495 51.5653 106.449 51.2382 106.449 50.8564V47.149H107.977V50.867C107.977 51.0367 107.996 51.1799 108.035 51.2966C108.077 51.4133 108.136 51.5087 108.21 51.583C108.284 51.6572 108.371 51.7103 108.47 51.7421C108.572 51.7739 108.685 51.7898 108.809 51.7898C109.124 51.7898 109.371 51.7262 109.552 51.5989C109.736 51.4716 109.865 51.2983 109.939 51.0791C110.017 50.8564 110.056 50.6089 110.056 50.3366ZM118.388 50.1351H116.42V48.894H118.388C118.692 48.894 118.939 48.8445 119.13 48.7455C119.321 48.6429 119.461 48.5015 119.549 48.3212C119.638 48.1408 119.682 47.9375 119.682 47.7112C119.682 47.4814 119.638 47.2675 119.549 47.0695C119.461 46.8715 119.321 46.7124 119.13 46.5922C118.939 46.4719 118.692 46.4118 118.388 46.4118H116.972V52.8877H115.381V45.1654H118.388C118.992 45.1654 119.51 45.2751 119.942 45.4943C120.377 45.71 120.709 46.0087 120.939 46.3906C121.169 46.7725 121.284 47.2092 121.284 47.7006C121.284 48.1992 121.169 48.6306 120.939 48.9947C120.709 49.3589 120.377 49.64 119.942 49.838C119.51 50.036 118.992 50.1351 118.388 50.1351ZM124.073 45.1654V52.8877H122.488V45.1654H124.073ZM131.849 45.1654V52.8877H130.258L127.155 47.7112V52.8877H125.564V45.1654H127.155L130.263 50.3472V45.1654H131.849Z" fill="black"/>
<rect x="29.1125" y="70.4309" width="137.328" height="29.4828" rx="14.3534" fill="white"/>
<rect x="78.3799" y="81.6812" width="6.2069" height="6.98276" rx="2.71552" fill="#8C8C8C"/>
<rect x="89.2422" y="81.6812" width="6.2069" height="6.98276" rx="2.71552" fill="#8C8C8C"/>
<rect x="100.104" y="81.6812" width="6.2069" height="6.98276" rx="2.71552" fill="#8C8C8C"/>
<rect x="110.966" y="81.6812" width="6.2069" height="6.98276" rx="2.71552" fill="#8C8C8C"/>
<rect x="29.1125" y="70.4309" width="137.328" height="29.4828" rx="14.3534" stroke="#C6C6C6" stroke-width="0.775862"/>
<rect x="28.7246" y="115.819" width="138.103" height="29.4828" rx="3.87931" fill="#0a5888"/>
<path d="M75.6039 131.632H77.4162C77.3798 132.226 77.2162 132.754 76.9252 133.214C76.6383 133.675 76.2363 134.035 75.719 134.293C75.2058 134.552 74.5876 134.681 73.8642 134.681C73.2985 134.681 72.7914 134.584 72.3428 134.39C71.8943 134.192 71.5104 133.909 71.1911 133.542C70.8759 133.174 70.6355 132.73 70.4698 132.208C70.3041 131.687 70.2213 131.103 70.2213 130.456V129.844C70.2213 129.198 70.3062 128.614 70.4759 128.093C70.6496 127.567 70.8961 127.121 71.2154 126.753C71.5387 126.385 71.9246 126.102 72.3731 125.904C72.8217 125.706 73.3227 125.607 73.8763 125.607C74.6118 125.607 75.2321 125.741 75.7372 126.007C76.2464 126.274 76.6404 126.642 76.9192 127.111C77.202 127.579 77.3718 128.113 77.4283 128.711H75.6099C75.5897 128.355 75.519 128.054 75.3978 127.808C75.2765 127.557 75.0927 127.369 74.8462 127.244C74.6037 127.115 74.2804 127.05 73.8763 127.05C73.5733 127.05 73.3086 127.107 73.0823 127.22C72.856 127.333 72.6661 127.505 72.5125 127.735C72.359 127.965 72.2438 128.256 72.167 128.608C72.0943 128.955 72.0579 129.363 72.0579 129.832V130.456C72.0579 130.913 72.0923 131.315 72.161 131.663C72.2297 132.006 72.3347 132.297 72.4762 132.536C72.6216 132.77 72.8075 132.948 73.0338 133.069C73.2641 133.186 73.5409 133.245 73.8642 133.245C74.2441 133.245 74.5572 133.184 74.8037 133.063C75.0502 132.942 75.2381 132.762 75.3675 132.523C75.5008 132.285 75.5796 131.988 75.6039 131.632ZM78.2224 131.348V131.22C78.2224 130.739 78.2911 130.297 78.4285 129.893C78.5659 129.485 78.7659 129.131 79.0286 128.832C79.2912 128.533 79.6145 128.301 79.9984 128.135C80.3823 127.965 80.8227 127.88 81.3198 127.88C81.8168 127.88 82.2593 127.965 82.6472 128.135C83.0352 128.301 83.3605 128.533 83.6231 128.832C83.8898 129.131 84.0919 129.485 84.2293 129.893C84.3666 130.297 84.4353 130.739 84.4353 131.22V131.348C84.4353 131.824 84.3666 132.267 84.2293 132.675C84.0919 133.079 83.8898 133.433 83.6231 133.736C83.3605 134.035 83.0372 134.267 82.6533 134.433C82.2694 134.598 81.8289 134.681 81.3319 134.681C80.8349 134.681 80.3924 134.598 80.0044 134.433C79.6206 134.267 79.2953 134.035 79.0286 133.736C78.7659 133.433 78.5659 133.079 78.4285 132.675C78.2911 132.267 78.2224 131.824 78.2224 131.348ZM79.9681 131.22V131.348C79.9681 131.622 79.9923 131.879 80.0408 132.117C80.0893 132.356 80.1661 132.566 80.2711 132.748C80.3803 132.925 80.5217 133.065 80.6954 133.166C80.8692 133.267 81.0814 133.317 81.3319 133.317C81.5744 133.317 81.7825 133.267 81.9562 133.166C82.13 133.065 82.2694 132.925 82.3745 132.748C82.4795 132.566 82.5563 132.356 82.6048 132.117C82.6573 131.879 82.6836 131.622 82.6836 131.348V131.22C82.6836 130.954 82.6573 130.703 82.6048 130.469C82.5563 130.23 82.4775 130.02 82.3684 129.838C82.2633 129.652 82.1239 129.507 81.9502 129.402C81.7764 129.297 81.5663 129.244 81.3198 129.244C81.0733 129.244 80.8631 129.297 80.6894 129.402C80.5197 129.507 80.3803 129.652 80.2711 129.838C80.1661 130.02 80.0893 130.23 80.0408 130.469C79.9923 130.703 79.9681 130.954 79.9681 131.22ZM87.2175 129.402V134.56H85.4718V128.002H87.1084L87.2175 129.402ZM86.963 131.05H86.4902C86.4902 130.566 86.5528 130.129 86.6781 129.741C86.8033 129.349 86.9791 129.016 87.2054 128.741C87.4317 128.462 87.7004 128.25 88.0116 128.105C88.3268 127.955 88.6783 127.88 89.0663 127.88C89.3734 127.88 89.6542 127.925 89.9088 128.014C90.1634 128.103 90.3816 128.244 90.5634 128.438C90.7493 128.632 90.8908 128.889 90.9877 129.208C91.0888 129.527 91.1393 129.917 91.1393 130.378V134.56H89.3815V130.372C89.3815 130.081 89.3411 129.854 89.2602 129.693C89.1794 129.531 89.0602 129.418 88.9026 129.353C88.7491 129.285 88.5591 129.25 88.3328 129.25C88.0985 129.25 87.8944 129.297 87.7206 129.39C87.5509 129.483 87.4095 129.612 87.2963 129.778C87.1872 129.939 87.1044 130.129 87.0478 130.347C86.9912 130.566 86.963 130.8 86.963 131.05ZM94.6488 134.56H92.8971V127.705C92.8971 127.147 93.0102 126.676 93.2365 126.292C93.4669 125.908 93.7942 125.617 94.2185 125.419C94.6468 125.221 95.1641 125.122 95.7702 125.122C96.1137 125.122 96.4471 125.157 96.7703 125.225C97.0936 125.29 97.427 125.375 97.7705 125.48L97.5159 126.88C97.2936 126.812 97.0552 126.747 96.8006 126.686C96.5461 126.626 96.239 126.595 95.8793 126.595C95.4752 126.595 95.1681 126.69 94.958 126.88C94.7519 127.066 94.6488 127.341 94.6488 127.705V134.56ZM95.952 128.002V129.238H91.9212V128.002H95.952ZM98.5827 128.002V134.56H96.831V128.002H98.5827ZM101.789 129.432V134.56H100.044V128.002H101.686L101.789 129.432ZM103.765 127.959L103.735 129.578C103.65 129.565 103.547 129.555 103.426 129.547C103.309 129.535 103.202 129.529 103.105 129.529C102.858 129.529 102.644 129.561 102.462 129.626C102.284 129.687 102.135 129.778 102.013 129.899C101.896 130.02 101.807 130.168 101.747 130.341C101.69 130.515 101.658 130.713 101.65 130.935L101.298 130.826C101.298 130.402 101.341 130.012 101.426 129.656C101.51 129.297 101.634 128.984 101.795 128.717C101.961 128.45 102.163 128.244 102.401 128.099C102.64 127.953 102.913 127.88 103.22 127.88C103.317 127.88 103.416 127.888 103.517 127.905C103.618 127.917 103.701 127.935 103.765 127.959ZM106.335 129.359V134.56H104.584V128.002H106.226L106.335 129.359ZM106.093 131.05H105.608C105.608 130.594 105.662 130.174 105.772 129.79C105.885 129.402 106.048 129.066 106.263 128.784C106.481 128.497 106.749 128.274 107.069 128.117C107.388 127.959 107.758 127.88 108.178 127.88C108.469 127.88 108.736 127.925 108.978 128.014C109.221 128.099 109.429 128.234 109.602 128.42C109.78 128.602 109.918 128.84 110.015 129.135C110.112 129.426 110.16 129.776 110.16 130.184V134.56H108.414V130.378C108.414 130.079 108.374 129.848 108.293 129.687C108.212 129.525 108.097 129.412 107.948 129.347C107.802 129.283 107.626 129.25 107.42 129.25C107.194 129.25 106.996 129.297 106.826 129.39C106.661 129.483 106.523 129.612 106.414 129.778C106.305 129.939 106.224 130.129 106.172 130.347C106.119 130.566 106.093 130.8 106.093 131.05ZM109.996 130.85L109.372 130.929C109.372 130.501 109.425 130.103 109.53 129.735C109.639 129.367 109.798 129.044 110.008 128.765C110.223 128.487 110.487 128.27 110.803 128.117C111.118 127.959 111.481 127.88 111.894 127.88C112.209 127.88 112.496 127.927 112.754 128.02C113.013 128.109 113.233 128.252 113.415 128.45C113.601 128.644 113.742 128.899 113.839 129.214C113.94 129.529 113.991 129.915 113.991 130.372V134.56H112.239V130.372C112.239 130.069 112.199 129.838 112.118 129.681C112.041 129.519 111.928 129.408 111.778 129.347C111.633 129.283 111.459 129.25 111.257 129.25C111.047 129.25 110.863 129.293 110.706 129.378C110.548 129.458 110.417 129.572 110.312 129.717C110.206 129.862 110.128 130.032 110.075 130.226C110.023 130.416 109.996 130.624 109.996 130.85ZM118.882 133.081V130.159C118.882 129.949 118.848 129.77 118.779 129.62C118.711 129.466 118.604 129.347 118.458 129.262C118.317 129.178 118.133 129.135 117.907 129.135C117.713 129.135 117.545 129.169 117.403 129.238C117.262 129.303 117.153 129.398 117.076 129.523C116.999 129.644 116.961 129.788 116.961 129.953H115.215C115.215 129.675 115.28 129.41 115.409 129.159C115.539 128.909 115.726 128.689 115.973 128.499C116.219 128.305 116.512 128.153 116.852 128.044C117.195 127.935 117.579 127.88 118.004 127.88C118.513 127.88 118.965 127.965 119.361 128.135C119.757 128.305 120.068 128.559 120.295 128.899C120.525 129.238 120.64 129.662 120.64 130.172V132.978C120.64 133.338 120.662 133.633 120.707 133.863C120.751 134.089 120.816 134.287 120.901 134.457V134.56H119.137C119.052 134.382 118.987 134.16 118.943 133.893C118.903 133.623 118.882 133.352 118.882 133.081ZM119.113 130.566L119.125 131.554H118.149C117.919 131.554 117.719 131.58 117.549 131.632C117.379 131.685 117.24 131.76 117.131 131.857C117.022 131.95 116.941 132.059 116.888 132.184C116.84 132.309 116.815 132.447 116.815 132.596C116.815 132.746 116.85 132.881 116.919 133.002C116.987 133.119 117.086 133.212 117.216 133.281C117.345 133.346 117.496 133.378 117.67 133.378C117.933 133.378 118.161 133.326 118.355 133.22C118.549 133.115 118.699 132.986 118.804 132.833C118.913 132.679 118.969 132.534 118.973 132.396L119.434 133.136C119.369 133.301 119.28 133.473 119.167 133.651C119.058 133.829 118.919 133.996 118.749 134.154C118.579 134.307 118.375 134.435 118.137 134.536C117.898 134.633 117.616 134.681 117.288 134.681C116.872 134.681 116.494 134.598 116.155 134.433C115.819 134.263 115.553 134.031 115.355 133.736C115.161 133.437 115.064 133.097 115.064 132.717C115.064 132.374 115.128 132.069 115.258 131.802C115.387 131.535 115.577 131.311 115.827 131.129C116.082 130.943 116.399 130.804 116.779 130.711C117.159 130.614 117.599 130.566 118.1 130.566H119.113ZM123.732 129.432V134.56H121.986V128.002H123.629L123.732 129.432ZM125.708 127.959L125.677 129.578C125.592 129.565 125.489 129.555 125.368 129.547C125.251 129.535 125.144 129.529 125.047 129.529C124.8 129.529 124.586 129.561 124.404 129.626C124.227 129.687 124.077 129.778 123.956 129.899C123.839 130.02 123.75 130.168 123.689 130.341C123.633 130.515 123.6 130.713 123.592 130.935L123.241 130.826C123.241 130.402 123.283 130.012 123.368 129.656C123.453 129.297 123.576 128.984 123.738 128.717C123.903 128.45 124.105 128.244 124.344 128.099C124.582 127.953 124.855 127.88 125.162 127.88C125.259 127.88 125.358 127.888 125.459 127.905C125.56 127.917 125.643 127.935 125.708 127.959Z" fill="white"/>
<path d="M176.138 18.0605L169.931 24.2674" stroke="#383838" stroke-width="1.24138" stroke-linecap="round" stroke-linejoin="round"/>
<path d="M169.931 18.0605L176.138 24.2674" stroke="#383838" stroke-width="1.24138" stroke-linecap="round" stroke-linejoin="round"/>
</g>
<defs>
<filter id="filter0_d_7121_42491" x="0.793103" y="0.991345" width="192.414" height="173.017" filterUnits="userSpaceOnUse" color-interpolation-filters="sRGB">
<feFlood flood-opacity="0" result="BackgroundImageFix"/>
<feColorMatrix in="SourceAlpha" type="matrix" values="0 0 0 0 0 0 0 0 0 0 0 0 0 0 0 0 0 0 127 0" result="hardAlpha"/>
<feOffset/>
<feGaussianBlur stdDeviation="3.10345"/>
<feColorMatrix type="matrix" values="0 0 0 0 0 0 0 0 0 0 0 0 0 0 0 0 0 0 0.25 0"/>
<feBlend mode="normal" in2="BackgroundImageFix" result="effect1_dropShadow_7121_42491"/>
<feBlend mode="normal" in="SourceGraphic" in2="effect1_dropShadow_7121_42491" result="shape"/>
</filter>
</defs>
</svg>
