<svg width="194" height="175" viewBox="0 0 194 175" fill="none" xmlns="http://www.w3.org/2000/svg">
<g filter="url(#filter0_d_7121_42516)">
<rect x="7" y="7.19824" width="180" height="160.603" rx="10.8621" fill="white"/>
<path d="M111.612 41.5794V42.888C111.611 45.9554 110.617 48.94 108.781 51.3967C106.944 53.8534 104.363 55.6506 101.421 56.5203C98.4798 57.39 95.336 57.2856 92.4588 56.2226C89.5815 55.1596 87.125 53.195 85.4555 50.6218C83.786 48.0486 82.9931 45.0047 83.1949 41.944C83.3967 38.8833 84.5825 35.9699 86.5754 33.6382C88.5683 31.3065 91.2616 29.6815 94.2535 29.0055C97.2454 28.3295 100.376 28.6388 103.177 29.8872" stroke="#0a5888" stroke-width="2.32759" stroke-linecap="round" stroke-linejoin="round"/>
<path d="M111.612 31.5088L97.3883 45.7472L93.1211 41.4799" stroke="#0a5888" stroke-width="2.32759" stroke-linecap="round" stroke-linejoin="round"/>
<path d="M57.4409 78.3292V78.6951C57.4409 79.2821 57.3613 79.8089 57.2022 80.2756C57.0431 80.7424 56.8186 81.1401 56.5286 81.469C56.2387 81.7943 55.8922 82.0435 55.4891 82.2168C55.0895 82.3901 54.6458 82.4767 54.1578 82.4767C53.6734 82.4767 53.2297 82.3901 52.8266 82.2168C52.4271 82.0435 52.0805 81.7943 51.7871 81.469C51.4936 81.1401 51.2655 80.7424 51.1029 80.2756C50.9438 79.8089 50.8642 79.2821 50.8642 78.6951V78.3292C50.8642 77.7387 50.9438 77.2118 51.1029 76.7486C51.262 76.2819 51.4865 75.8841 51.7765 75.5553C52.0699 75.2265 52.4165 74.9754 52.816 74.8022C53.2191 74.6289 53.6628 74.5423 54.1472 74.5423C54.6352 74.5423 55.0789 74.6289 55.4785 74.8022C55.8816 74.9754 56.2281 75.2265 56.518 75.5553C56.8115 75.8841 57.0378 76.2819 57.1969 76.7486C57.3595 77.2118 57.4409 77.7387 57.4409 78.3292ZM55.8338 78.6951V78.3185C55.8338 77.9084 55.7967 77.5477 55.7225 77.2366C55.6482 76.9254 55.5386 76.6638 55.3936 76.4516C55.2487 76.2395 55.0719 76.0804 54.8632 75.9743C54.6546 75.8647 54.416 75.8099 54.1472 75.8099C53.8785 75.8099 53.6398 75.8647 53.4312 75.9743C53.2262 76.0804 53.0511 76.2395 52.9062 76.4516C52.7647 76.6638 52.6569 76.9254 52.5826 77.2366C52.5084 77.5477 52.4713 77.9084 52.4713 78.3185V78.6951C52.4713 79.1017 52.5084 79.4624 52.5826 79.7771C52.6569 80.0882 52.7665 80.3516 52.9115 80.5673C53.0564 80.7795 53.2332 80.9404 53.4418 81.05C53.6505 81.1596 53.8891 81.2144 54.1578 81.2144C54.4266 81.2144 54.6652 81.1596 54.8739 81.05C55.0825 80.9404 55.2575 80.7795 55.3989 80.5673C55.5404 80.3516 55.6482 80.0882 55.7225 79.7771C55.7967 79.4624 55.8338 79.1017 55.8338 78.6951ZM60.0185 77.7351V84.577H58.491V76.632H59.9071L60.0185 77.7351ZM63.6516 79.4376V79.549C63.6516 79.9662 63.602 80.3534 63.503 80.7105C63.4076 81.0677 63.2661 81.3788 63.0787 81.644C62.8913 81.9056 62.658 82.1107 62.3787 82.2592C62.1029 82.4042 61.7846 82.4767 61.424 82.4767C61.0739 82.4767 60.7698 82.406 60.5117 82.2645C60.2536 82.1231 60.0362 81.9251 59.8594 81.6705C59.6861 81.4124 59.5465 81.1136 59.4404 80.7742C59.3343 80.4347 59.253 80.0705 59.1964 79.6816V79.3899C59.253 78.9727 59.3343 78.5908 59.4404 78.2443C59.5465 77.8942 59.6861 77.5919 59.8594 77.3374C60.0362 77.0792 60.2519 76.8795 60.5064 76.738C60.7645 76.5966 61.0669 76.5259 61.4134 76.5259C61.7776 76.5259 62.0976 76.5948 62.3733 76.7327C62.6527 76.8706 62.886 77.0686 63.0734 77.3267C63.2644 77.5849 63.4076 77.8925 63.503 78.2496C63.602 78.6067 63.6516 79.0027 63.6516 79.4376ZM62.1188 79.549V79.4376C62.1188 79.1937 62.0976 78.9691 62.0551 78.7641C62.0162 78.5554 61.9526 78.3733 61.8642 78.2178C61.7793 78.0622 61.6662 77.942 61.5247 77.8571C61.3869 77.7687 61.2189 77.7245 61.0209 77.7245C60.8123 77.7245 60.6337 77.7581 60.4852 77.8253C60.3402 77.8925 60.2218 77.9897 60.1299 78.117C60.0379 78.2443 59.969 78.3963 59.923 78.5731C59.8771 78.7499 59.8488 78.9497 59.8382 79.1724V79.9097C59.8558 80.1713 59.9053 80.4065 59.9867 80.6151C60.068 80.8201 60.1935 80.9828 60.3632 81.103C60.5329 81.2232 60.7557 81.2833 61.0315 81.2833C61.233 81.2833 61.4028 81.2391 61.5407 81.1507C61.6786 81.0588 61.7899 80.9333 61.8748 80.7742C61.9632 80.6151 62.0251 80.4312 62.0604 80.2226C62.0993 80.014 62.1188 79.7894 62.1188 79.549ZM67.2422 82.4767C66.7967 82.4767 66.3971 82.406 66.0435 82.2645C65.69 82.1196 65.3894 81.9198 65.1419 81.6652C64.8979 81.4106 64.7105 81.1154 64.5797 80.7795C64.4489 80.44 64.3835 80.0794 64.3835 79.6975V79.4854C64.3835 79.0505 64.4453 78.6527 64.5691 78.292C64.6929 77.9314 64.8696 77.6185 65.0995 77.3533C65.3328 77.0881 65.6157 76.8848 65.9481 76.7433C66.2804 76.5984 66.6552 76.5259 67.0725 76.5259C67.4791 76.5259 67.8397 76.5931 68.1544 76.7274C68.4691 76.8618 68.7325 77.0527 68.9447 77.3002C69.1604 77.5477 69.323 77.8447 69.4326 78.1913C69.5422 78.5342 69.597 78.9161 69.597 79.3369V79.9733H65.0358V78.955H68.0961V78.8383C68.0961 78.6262 68.0572 78.437 67.9794 78.2708C67.9052 78.1011 67.792 77.9667 67.64 77.8677C67.4879 77.7687 67.2935 77.7192 67.0566 77.7192C66.855 77.7192 66.6818 77.7634 66.5368 77.8518C66.3918 77.9402 66.2734 78.064 66.1814 78.2231C66.093 78.3822 66.0259 78.5696 65.9799 78.7853C65.9375 78.9974 65.9162 79.2308 65.9162 79.4854V79.6975C65.9162 79.9273 65.9481 80.1395 66.0117 80.334C66.0789 80.5284 66.1726 80.6964 66.2928 80.8378C66.4166 80.9793 66.5651 81.0889 66.7383 81.1667C66.9151 81.2444 67.1149 81.2833 67.3377 81.2833C67.6134 81.2833 67.8698 81.2303 68.1067 81.1242C68.3471 81.0146 68.554 80.8502 68.7272 80.631L69.4698 81.4371C69.3495 81.6104 69.1851 81.7766 68.9765 81.9357C68.7714 82.0948 68.5239 82.2256 68.234 82.3282C67.944 82.4272 67.6134 82.4767 67.2422 82.4767ZM71.9943 77.8836V82.3706H70.4669V76.632H71.9042L71.9943 77.8836ZM73.7234 76.5948L73.6968 78.0109C73.6226 78.0003 73.5324 77.9915 73.4264 77.9844C73.3238 77.9738 73.2301 77.9685 73.1453 77.9685C72.9296 77.9685 72.7422 77.9968 72.5831 78.0534C72.4275 78.1064 72.2967 78.186 72.1906 78.292C72.088 78.3981 72.0103 78.5272 71.9572 78.6792C71.9077 78.8312 71.8794 79.0045 71.8724 79.199L71.5647 79.1035C71.5647 78.7322 71.6019 78.391 71.6761 78.0799C71.7504 77.7652 71.8582 77.4912 71.9996 77.2578C72.1446 77.0244 72.3214 76.8441 72.53 76.7168C72.7386 76.5895 72.9773 76.5259 73.246 76.5259C73.3309 76.5259 73.4175 76.533 73.5059 76.5471C73.5943 76.5577 73.6668 76.5736 73.7234 76.5948ZM77.3617 81.0765V78.5201C77.3617 78.3362 77.3317 78.1789 77.2716 78.0481C77.2115 77.9137 77.1178 77.8094 76.9905 77.7351C76.8667 77.6609 76.7058 77.6238 76.5078 77.6238C76.3381 77.6238 76.1914 77.6538 76.0676 77.7139C75.9439 77.7705 75.8484 77.8536 75.7812 77.9632C75.714 78.0693 75.6804 78.1948 75.6804 78.3398H74.153C74.153 78.0958 74.2095 77.8642 74.3227 77.645C74.4358 77.4257 74.6002 77.233 74.8159 77.0669C75.0316 76.8971 75.288 76.7645 75.585 76.6691C75.8855 76.5736 76.2214 76.5259 76.5927 76.5259C77.0382 76.5259 77.4342 76.6001 77.7807 76.7486C78.1272 76.8971 78.3995 77.1199 78.5975 77.4169C78.799 77.7139 78.8998 78.0852 78.8998 78.5307V80.9863C78.8998 81.301 78.9193 81.5591 78.9582 81.7607C78.9971 81.9587 79.0536 82.1319 79.1279 82.2804V82.3706H77.5845C77.5102 82.215 77.4537 82.0206 77.4148 81.7872C77.3794 81.5503 77.3617 81.3134 77.3617 81.0765ZM77.5633 78.8754L77.5739 79.7399H76.72C76.5184 79.7399 76.3434 79.7629 76.1949 79.8089C76.0464 79.8549 75.9244 79.9203 75.8289 80.0051C75.7335 80.0865 75.6628 80.1819 75.6168 80.2915C75.5744 80.4011 75.5532 80.5214 75.5532 80.6522C75.5532 80.783 75.5832 80.9015 75.6433 81.0075C75.7034 81.1101 75.7901 81.1914 75.9032 81.2515C76.0163 81.3081 76.1489 81.3364 76.301 81.3364C76.5308 81.3364 76.7306 81.2904 76.9003 81.1985C77.07 81.1065 77.2009 80.9934 77.2928 80.859C77.3882 80.7247 77.4378 80.5974 77.4413 80.4772L77.8444 81.1242C77.7878 81.2692 77.71 81.4195 77.611 81.575C77.5155 81.7306 77.3936 81.8774 77.245 82.0153C77.0965 82.1496 76.918 82.261 76.7094 82.3494C76.5008 82.4343 76.2532 82.4767 75.9668 82.4767C75.6027 82.4767 75.2721 82.4042 74.975 82.2592C74.6816 82.1107 74.4482 81.9074 74.275 81.6493C74.1052 81.3876 74.0204 81.0906 74.0204 80.7583C74.0204 80.4577 74.0769 80.1908 74.1901 79.9574C74.3032 79.724 74.4694 79.5278 74.6886 79.3687C74.9114 79.206 75.189 79.0841 75.5213 79.0027C75.8537 78.9179 76.2391 78.8754 76.6775 78.8754H77.5633ZM82.448 81.2833C82.6354 81.2833 82.8016 81.248 82.9466 81.1773C83.0915 81.103 83.2047 81.0005 83.286 80.8696C83.3709 80.7353 83.4151 80.5779 83.4186 80.3976H84.8559C84.8524 80.8007 84.7445 81.1596 84.5324 81.4743C84.3202 81.7854 84.0356 82.0312 83.6785 82.2115C83.3214 82.3883 82.9218 82.4767 82.4798 82.4767C82.0343 82.4767 81.6454 82.4024 81.313 82.2539C80.9842 82.1054 80.7102 81.9003 80.4909 81.6387C80.2717 81.3735 80.1073 81.0659 79.9977 80.7158C79.8881 80.3623 79.8333 79.9839 79.8333 79.5808V79.427C79.8333 79.0204 79.8881 78.6421 79.9977 78.292C80.1073 77.9384 80.2717 77.6308 80.4909 77.3692C80.7102 77.104 80.9842 76.8971 81.313 76.7486C81.6419 76.6001 82.0273 76.5259 82.4692 76.5259C82.9395 76.5259 83.3514 76.616 83.705 76.7964C84.0621 76.9767 84.3415 77.2348 84.543 77.5707C84.7481 77.9031 84.8524 78.2973 84.8559 78.7535H83.4186C83.4151 78.5625 83.3744 78.3893 83.2966 78.2337C83.2224 78.0781 83.1128 77.9544 82.9678 77.8624C82.8264 77.767 82.6513 77.7192 82.4427 77.7192C82.22 77.7192 82.0379 77.767 81.8964 77.8624C81.755 77.9544 81.6454 78.0816 81.5676 78.2443C81.4898 78.4034 81.435 78.5855 81.4032 78.7906C81.3749 78.9921 81.3608 79.2043 81.3608 79.427V79.5808C81.3608 79.8036 81.3749 80.0175 81.4032 80.2226C81.4315 80.4277 81.4845 80.6098 81.5623 80.7689C81.6436 80.928 81.755 81.0535 81.8964 81.1454C82.0379 81.2374 82.2217 81.2833 82.448 81.2833ZM81.8752 82.3494H83.0261L82.9678 82.6623C83.1693 82.6977 83.3532 82.7825 83.5194 82.9169C83.6856 83.0513 83.7687 83.2722 83.7687 83.5799C83.7687 83.7673 83.728 83.937 83.6467 84.089C83.5689 84.2411 83.4522 84.3719 83.2966 84.4815C83.141 84.5946 82.9466 84.6795 82.7132 84.7361C82.4798 84.7962 82.2111 84.8262 81.907 84.8262L81.8699 83.9776C81.9831 83.9776 82.0856 83.9617 82.1775 83.9299C82.2695 83.8981 82.3419 83.8486 82.395 83.7814C82.448 83.7178 82.4745 83.6329 82.4745 83.5268C82.4745 83.4278 82.448 83.35 82.395 83.2935C82.3419 83.2369 82.2589 83.1945 82.1457 83.1662C82.0361 83.1379 81.8911 83.1184 81.7108 83.1078L81.8752 82.3494ZM88.839 81.0765V78.5201C88.839 78.3362 88.809 78.1789 88.7489 78.0481C88.6888 77.9137 88.5951 77.8094 88.4678 77.7351C88.344 77.6609 88.1831 77.6238 87.9851 77.6238C87.8154 77.6238 87.6687 77.6538 87.5449 77.7139C87.4212 77.7705 87.3257 77.8536 87.2585 77.9632C87.1913 78.0693 87.1577 78.1948 87.1577 78.3398H85.6303C85.6303 78.0958 85.6868 77.8642 85.8 77.645C85.9131 77.4257 86.0776 77.233 86.2932 77.0669C86.5089 76.8971 86.7653 76.7645 87.0623 76.6691C87.3628 76.5736 87.6987 76.5259 88.07 76.5259C88.5155 76.5259 88.9115 76.6001 89.258 76.7486C89.6045 76.8971 89.8768 77.1199 90.0748 77.4169C90.2763 77.7139 90.3771 78.0852 90.3771 78.5307V80.9863C90.3771 81.301 90.3966 81.5591 90.4355 81.7607C90.4744 81.9587 90.5309 82.1319 90.6052 82.2804V82.3706H89.0618C88.9875 82.215 88.931 82.0206 88.8921 81.7872C88.8567 81.5503 88.839 81.3134 88.839 81.0765ZM89.0406 78.8754L89.0512 79.7399H88.1973C87.9957 79.7399 87.8207 79.7629 87.6722 79.8089C87.5237 79.8549 87.4017 79.9203 87.3063 80.0051C87.2108 80.0865 87.1401 80.1819 87.0941 80.2915C87.0517 80.4011 87.0305 80.5214 87.0305 80.6522C87.0305 80.783 87.0605 80.9015 87.1206 81.0075C87.1807 81.1101 87.2674 81.1914 87.3805 81.2515C87.4937 81.3081 87.6262 81.3364 87.7783 81.3364C88.0081 81.3364 88.2079 81.2904 88.3776 81.1985C88.5473 81.1065 88.6782 80.9934 88.7701 80.859C88.8656 80.7247 88.9151 80.5974 88.9186 80.4772L89.3217 81.1242C89.2651 81.2692 89.1873 81.4195 89.0883 81.575C88.9928 81.7306 88.8709 81.8774 88.7224 82.0153C88.5738 82.1496 88.3953 82.261 88.1867 82.3494C87.9781 82.4343 87.7306 82.4767 87.4442 82.4767C87.08 82.4767 86.7494 82.4042 86.4523 82.2592C86.1589 82.1107 85.9255 81.9074 85.7523 81.6493C85.5825 81.3876 85.4977 81.0906 85.4977 80.7583C85.4977 80.4577 85.5542 80.1908 85.6674 79.9574C85.7805 79.724 85.9467 79.5278 86.1659 79.3687C86.3887 79.206 86.6663 79.0841 86.9986 79.0027C87.331 78.9179 87.7164 78.8754 88.1549 78.8754H89.0406ZM89.1785 74.2506L90.0589 74.3089C90.0589 74.567 90.0076 74.8022 89.9051 75.0143C89.8025 75.2229 89.6611 75.3909 89.4808 75.5182C89.3005 75.6419 89.0936 75.7038 88.8603 75.7038C88.6905 75.7038 88.5438 75.6808 88.42 75.6348C88.2998 75.5889 88.1884 75.5358 88.0859 75.4757C87.9834 75.4121 87.8773 75.3573 87.7677 75.3113C87.6616 75.2654 87.5396 75.2424 87.4017 75.2424C87.278 75.2424 87.1719 75.2866 87.0835 75.375C86.9986 75.4634 86.9562 75.5907 86.9562 75.7568L86.0705 75.7091C86.0705 75.4545 86.1217 75.2212 86.2243 75.009C86.3268 74.7969 86.4683 74.6271 86.6486 74.4998C86.8289 74.369 87.034 74.3036 87.2638 74.3036C87.4088 74.3036 87.5414 74.3284 87.6616 74.3779C87.7818 74.4238 87.8967 74.4769 88.0063 74.537C88.1195 74.5971 88.2344 74.6501 88.3511 74.6961C88.4678 74.7421 88.5915 74.765 88.7224 74.765C88.8461 74.765 88.9522 74.7208 89.0406 74.6324C89.1325 74.5405 89.1785 74.4132 89.1785 74.2506ZM91.3106 79.5596V79.4482C91.3106 79.0275 91.3707 78.6403 91.4909 78.2867C91.6111 77.9296 91.7861 77.6202 92.016 77.3586C92.2458 77.0969 92.5287 76.8936 92.8646 76.7486C93.2005 76.6001 93.5859 76.5259 94.0208 76.5259C94.4557 76.5259 94.8429 76.6001 95.1823 76.7486C95.5218 76.8936 95.8064 77.0969 96.0362 77.3586C96.2696 77.6202 96.4464 77.9296 96.5666 78.2867C96.6868 78.6403 96.7469 79.0275 96.7469 79.4482V79.5596C96.7469 79.9768 96.6868 80.364 96.5666 80.7211C96.4464 81.0747 96.2696 81.3841 96.0362 81.6493C95.8064 81.9109 95.5235 82.1143 95.1876 82.2592C94.8517 82.4042 94.4663 82.4767 94.0314 82.4767C93.5965 82.4767 93.2093 82.4042 92.8699 82.2592C92.534 82.1143 92.2493 81.9109 92.016 81.6493C91.7861 81.3841 91.6111 81.0747 91.4909 80.7211C91.3707 80.364 91.3106 79.9768 91.3106 79.5596ZM92.8381 79.4482V79.5596C92.8381 79.8001 92.8593 80.0246 92.9017 80.2332C92.9441 80.4418 93.0113 80.6257 93.1032 80.7848C93.1987 80.9404 93.3225 81.0623 93.4745 81.1507C93.6265 81.2391 93.8122 81.2833 94.0314 81.2833C94.2436 81.2833 94.4256 81.2391 94.5777 81.1507C94.7297 81.0623 94.8517 80.9404 94.9436 80.7848C95.0356 80.6257 95.1028 80.4418 95.1452 80.2332C95.1912 80.0246 95.2141 79.8001 95.2141 79.5596V79.4482C95.2141 79.2149 95.1912 78.9957 95.1452 78.7906C95.1028 78.582 95.0338 78.3981 94.9383 78.239C94.8464 78.0763 94.7244 77.9491 94.5724 77.8571C94.4203 77.7652 94.2365 77.7192 94.0208 77.7192C93.8051 77.7192 93.6212 77.7652 93.4692 77.8571C93.3207 77.9491 93.1987 78.0763 93.1032 78.239C93.0113 78.3981 92.9441 78.582 92.9017 78.7906C92.8593 78.9957 92.8381 79.2149 92.8381 79.4482ZM101.918 77.8836V82.3706H100.391V76.632H101.828L101.918 77.8836ZM103.647 76.5948L103.621 78.0109C103.546 78.0003 103.456 77.9915 103.35 77.9844C103.248 77.9738 103.154 77.9685 103.069 77.9685C102.853 77.9685 102.666 77.9968 102.507 78.0534C102.351 78.1064 102.22 78.186 102.114 78.292C102.012 78.3981 101.934 78.5272 101.881 78.6792C101.831 78.8312 101.803 79.0045 101.796 79.199L101.488 79.1035C101.488 78.7322 101.526 78.391 101.6 78.0799C101.674 77.7652 101.782 77.4912 101.923 77.2578C102.068 77.0244 102.245 76.8441 102.454 76.7168C102.662 76.5895 102.901 76.5259 103.17 76.5259C103.255 76.5259 103.341 76.533 103.43 76.5471C103.518 76.5577 103.591 76.5736 103.647 76.5948ZM106.904 82.4767C106.458 82.4767 106.059 82.406 105.705 82.2645C105.351 82.1196 105.051 81.9198 104.803 81.6652C104.559 81.4106 104.372 81.1154 104.241 80.7795C104.11 80.44 104.045 80.0794 104.045 79.6975V79.4854C104.045 79.0505 104.107 78.6527 104.231 78.292C104.354 77.9314 104.531 77.6185 104.761 77.3533C104.994 77.0881 105.277 76.8848 105.609 76.7433C105.942 76.5984 106.317 76.5259 106.734 76.5259C107.14 76.5259 107.501 76.5931 107.816 76.7274C108.131 76.8618 108.394 77.0527 108.606 77.3002C108.822 77.5477 108.984 77.8447 109.094 78.1913C109.204 78.5342 109.258 78.9161 109.258 79.3369V79.9733H104.697V78.955H107.757V78.8383C107.757 78.6262 107.719 78.437 107.641 78.2708C107.567 78.1011 107.453 77.9667 107.301 77.8677C107.149 77.7687 106.955 77.7192 106.718 77.7192C106.516 77.7192 106.343 77.7634 106.198 77.8518C106.053 77.9402 105.935 78.064 105.843 78.2231C105.754 78.3822 105.687 78.5696 105.641 78.7853C105.599 78.9974 105.578 79.2308 105.578 79.4854V79.6975C105.578 79.9273 105.609 80.1395 105.673 80.334C105.74 80.5284 105.834 80.6964 105.954 80.8378C106.078 80.9793 106.226 81.0889 106.4 81.1667C106.577 81.2444 106.776 81.2833 106.999 81.2833C107.275 81.2833 107.531 81.2303 107.768 81.1242C108.009 81.0146 108.215 80.8502 108.389 80.631L109.131 81.4371C109.011 81.6104 108.847 81.7766 108.638 81.9357C108.433 82.0948 108.185 82.2256 107.895 82.3282C107.605 82.4272 107.275 82.4767 106.904 82.4767ZM113.226 81.0765V78.5201C113.226 78.3362 113.196 78.1789 113.135 78.0481C113.075 77.9137 112.982 77.8094 112.854 77.7351C112.731 77.6609 112.57 77.6238 112.372 77.6238C112.202 77.6238 112.055 77.6538 111.932 77.7139C111.808 77.7705 111.712 77.8536 111.645 77.9632C111.578 78.0693 111.544 78.1948 111.544 78.3398H110.017C110.017 78.0958 110.073 77.8642 110.187 77.645C110.3 77.4257 110.464 77.233 110.68 77.0669C110.896 76.8971 111.152 76.7645 111.449 76.6691C111.749 76.5736 112.085 76.5259 112.457 76.5259C112.902 76.5259 113.298 76.6001 113.645 76.7486C113.991 76.8971 114.263 77.1199 114.461 77.4169C114.663 77.7139 114.764 78.0852 114.764 78.5307V80.9863C114.764 81.301 114.783 81.5591 114.822 81.7607C114.861 81.9587 114.918 82.1319 114.992 82.2804V82.3706H113.448C113.374 82.215 113.318 82.0206 113.279 81.7872C113.243 81.5503 113.226 81.3134 113.226 81.0765ZM113.427 78.8754L113.438 79.7399H112.584C112.382 79.7399 112.207 79.7629 112.059 79.8089C111.91 79.8549 111.788 79.9203 111.693 80.0051C111.597 80.0865 111.527 80.1819 111.481 80.2915C111.438 80.4011 111.417 80.5214 111.417 80.6522C111.417 80.783 111.447 80.9015 111.507 81.0075C111.567 81.1101 111.654 81.1914 111.767 81.2515C111.88 81.3081 112.013 81.3364 112.165 81.3364C112.395 81.3364 112.595 81.2904 112.764 81.1985C112.934 81.1065 113.065 80.9934 113.157 80.859C113.252 80.7247 113.302 80.5974 113.305 80.4772L113.708 81.1242C113.652 81.2692 113.574 81.4195 113.475 81.575C113.379 81.7306 113.257 81.8774 113.109 82.0153C112.96 82.1496 112.782 82.261 112.573 82.3494C112.365 82.4343 112.117 82.4767 111.831 82.4767C111.467 82.4767 111.136 82.4042 110.839 82.2592C110.545 82.1107 110.312 81.9074 110.139 81.6493C109.969 81.3876 109.884 81.0906 109.884 80.7583C109.884 80.4577 109.941 80.1908 110.054 79.9574C110.167 79.724 110.333 79.5278 110.553 79.3687C110.775 79.206 111.053 79.0841 111.385 79.0027C111.718 78.9179 112.103 78.8754 112.541 78.8754H113.427ZM117.554 74.2241V82.3706H116.021V74.2241H117.554ZM120.428 76.632V82.3706H118.895V76.632H120.428ZM118.8 75.1363C118.8 74.9135 118.878 74.7297 119.033 74.5847C119.189 74.4397 119.397 74.3673 119.659 74.3673C119.917 74.3673 120.124 74.4397 120.28 74.5847C120.439 74.7297 120.518 74.9135 120.518 75.1363C120.518 75.3591 120.439 75.5429 120.28 75.6879C120.124 75.8329 119.917 75.9053 119.659 75.9053C119.397 75.9053 119.189 75.8329 119.033 75.6879C118.878 75.5429 118.8 75.3591 118.8 75.1363ZM126.257 81.1773V82.3706H121.897V81.1773H126.257ZM126.172 77.5124L122.513 82.3706H121.489V81.4637L125.133 76.632H126.172V77.5124ZM125.631 76.632V77.8306H121.574V76.632H125.631ZM130.314 81.0765V78.5201C130.314 78.3362 130.284 78.1789 130.224 78.0481C130.164 77.9137 130.07 77.8094 129.943 77.7351C129.819 77.6609 129.658 77.6238 129.46 77.6238C129.291 77.6238 129.144 77.6538 129.02 77.7139C128.896 77.7705 128.801 77.8536 128.734 77.9632C128.667 78.0693 128.633 78.1948 128.633 78.3398H127.106C127.106 78.0958 127.162 77.8642 127.275 77.645C127.388 77.4257 127.553 77.233 127.769 77.0669C127.984 76.8971 128.241 76.7645 128.538 76.6691C128.838 76.5736 129.174 76.5259 129.545 76.5259C129.991 76.5259 130.387 76.6001 130.733 76.7486C131.08 76.8971 131.352 77.1199 131.55 77.4169C131.752 77.7139 131.852 78.0852 131.852 78.5307V80.9863C131.852 81.301 131.872 81.5591 131.911 81.7607C131.95 81.9587 132.006 82.1319 132.08 82.2804V82.3706H130.537C130.463 82.215 130.406 82.0206 130.367 81.7872C130.332 81.5503 130.314 81.3134 130.314 81.0765ZM130.516 78.8754L130.526 79.7399H129.673C129.471 79.7399 129.296 79.7629 129.147 79.8089C128.999 79.8549 128.877 79.9203 128.782 80.0051C128.686 80.0865 128.615 80.1819 128.569 80.2915C128.527 80.4011 128.506 80.5214 128.506 80.6522C128.506 80.783 128.536 80.9015 128.596 81.0075C128.656 81.1101 128.743 81.1914 128.856 81.2515C128.969 81.3081 129.102 81.3364 129.254 81.3364C129.483 81.3364 129.683 81.2904 129.853 81.1985C130.023 81.1065 130.153 80.9934 130.245 80.859C130.341 80.7247 130.39 80.5974 130.394 80.4772L130.797 81.1242C130.74 81.2692 130.663 81.4195 130.564 81.575C130.468 81.7306 130.346 81.8774 130.198 82.0153C130.049 82.1496 129.871 82.261 129.662 82.3494C129.453 82.4343 129.206 82.4767 128.919 82.4767C128.555 82.4767 128.225 82.4042 127.928 82.2592C127.634 82.1107 127.401 81.9074 127.228 81.6493C127.058 81.3876 126.973 81.0906 126.973 80.7583C126.973 80.4577 127.03 80.1908 127.143 79.9574C127.256 79.724 127.422 79.5278 127.641 79.3687C127.864 79.206 128.142 79.0841 128.474 79.0027C128.806 78.9179 129.192 78.8754 129.63 78.8754H130.516ZM136.419 81.1189V74.2241H137.957V82.3706H136.573L136.419 81.1189ZM132.791 79.5702V79.4588C132.791 79.0204 132.841 78.6226 132.94 78.2655C133.039 77.9049 133.184 77.5955 133.375 77.3374C133.566 77.0792 133.801 76.8795 134.08 76.738C134.359 76.5966 134.678 76.5259 135.035 76.5259C135.371 76.5259 135.664 76.5966 135.915 76.738C136.17 76.8795 136.385 77.081 136.562 77.3427C136.742 77.6008 136.887 77.9066 136.997 78.2602C137.107 78.6103 137.186 78.9939 137.236 79.4111V79.6551C137.186 80.0546 137.107 80.4259 136.997 80.7689C136.887 81.1119 136.742 81.4124 136.562 81.6705C136.385 81.9251 136.17 82.1231 135.915 82.2645C135.66 82.406 135.363 82.4767 135.024 82.4767C134.667 82.4767 134.349 82.4042 134.069 82.2592C133.794 82.1143 133.56 81.9109 133.369 81.6493C133.182 81.3876 133.039 81.08 132.94 80.7264C132.841 80.3729 132.791 79.9875 132.791 79.5702ZM134.319 79.4588V79.5702C134.319 79.8071 134.336 80.0281 134.372 80.2332C134.411 80.4383 134.472 80.6204 134.557 80.7795C134.646 80.9351 134.759 81.057 134.897 81.1454C135.038 81.2303 135.21 81.2727 135.411 81.2727C135.673 81.2727 135.889 81.2144 136.058 81.0977C136.228 80.9775 136.357 80.8131 136.445 80.6045C136.537 80.3958 136.59 80.1554 136.605 79.8831V79.1884C136.594 78.9656 136.562 78.7658 136.509 78.589C136.46 78.4087 136.385 78.2549 136.286 78.1276C136.191 78.0003 136.071 77.9013 135.926 77.8306C135.784 77.7599 135.616 77.7245 135.422 77.7245C135.224 77.7245 135.054 77.7705 134.913 77.8624C134.771 77.9508 134.656 78.0728 134.568 78.2284C134.483 78.384 134.419 78.5678 134.377 78.78C134.338 78.9886 134.319 79.2149 134.319 79.4588ZM142.248 81.0765V78.5201C142.248 78.3362 142.218 78.1789 142.158 78.0481C142.097 77.9137 142.004 77.8094 141.876 77.7351C141.753 77.6609 141.592 77.6238 141.394 77.6238C141.224 77.6238 141.077 77.6538 140.954 77.7139C140.83 77.7705 140.734 77.8536 140.667 77.9632C140.6 78.0693 140.566 78.1948 140.566 78.3398H139.039C139.039 78.0958 139.096 77.8642 139.209 77.645C139.322 77.4257 139.486 77.233 139.702 77.0669C139.918 76.8971 140.174 76.7645 140.471 76.6691C140.772 76.5736 141.107 76.5259 141.479 76.5259C141.924 76.5259 142.32 76.6001 142.667 76.7486C143.013 76.8971 143.286 77.1199 143.484 77.4169C143.685 77.7139 143.786 78.0852 143.786 78.5307V80.9863C143.786 81.301 143.805 81.5591 143.844 81.7607C143.883 81.9587 143.94 82.1319 144.014 82.2804V82.3706H142.47C142.396 82.215 142.34 82.0206 142.301 81.7872C142.265 81.5503 142.248 81.3134 142.248 81.0765ZM142.449 78.8754L142.46 79.7399H141.606C141.404 79.7399 141.229 79.7629 141.081 79.8089C140.932 79.8549 140.81 79.9203 140.715 80.0051C140.619 80.0865 140.549 80.1819 140.503 80.2915C140.46 80.4011 140.439 80.5214 140.439 80.6522C140.439 80.783 140.469 80.9015 140.529 81.0075C140.589 81.1101 140.676 81.1914 140.789 81.2515C140.902 81.3081 141.035 81.3364 141.187 81.3364C141.417 81.3364 141.617 81.2904 141.786 81.1985C141.956 81.1065 142.087 80.9934 142.179 80.859C142.274 80.7247 142.324 80.5974 142.327 80.4772L142.73 81.1242C142.674 81.2692 142.596 81.4195 142.497 81.575C142.402 81.7306 142.28 81.8774 142.131 82.0153C141.983 82.1496 141.804 82.261 141.595 82.3494C141.387 82.4343 141.139 82.4767 140.853 82.4767C140.489 82.4767 140.158 82.4042 139.861 82.2592C139.568 82.1107 139.334 81.9074 139.161 81.6493C138.991 81.3876 138.906 81.0906 138.906 80.7583C138.906 80.4577 138.963 80.1908 139.076 79.9574C139.189 79.724 139.355 79.5278 139.575 79.3687C139.797 79.206 140.075 79.0841 140.407 79.0027C140.74 78.9179 141.125 78.8754 141.564 78.8754H142.449ZM66.6853 94.2833C66.8727 94.2833 67.0389 94.248 67.1838 94.1773C67.3288 94.103 67.442 94.0005 67.5233 93.8696C67.6081 93.7353 67.6523 93.5779 67.6559 93.3976H69.0932C69.0897 93.8007 68.9818 94.1596 68.7697 94.4743C68.5575 94.7854 68.2729 95.0312 67.9158 95.2115C67.5586 95.3883 67.1591 95.4767 66.7171 95.4767C66.2716 95.4767 65.8827 95.4024 65.5503 95.2539C65.2215 95.1054 64.9474 94.9003 64.7282 94.6387C64.509 94.3735 64.3446 94.0659 64.235 93.7158C64.1254 93.3623 64.0705 92.9839 64.0705 92.5808V92.427C64.0705 92.0204 64.1254 91.6421 64.235 91.292C64.3446 90.9384 64.509 90.6308 64.7282 90.3692C64.9474 90.104 65.2215 89.8971 65.5503 89.7486C65.8791 89.6001 66.2645 89.5259 66.7065 89.5259C67.1768 89.5259 67.5887 89.616 67.9423 89.7964C68.2994 89.9767 68.5787 90.2348 68.7803 90.5707C68.9854 90.9031 69.0897 91.2973 69.0932 91.7535H67.6559C67.6523 91.5625 67.6117 91.3893 67.5339 91.2337C67.4596 91.0781 67.35 90.9544 67.2051 90.8624C67.0636 90.767 66.8886 90.7192 66.68 90.7192C66.4572 90.7192 66.2751 90.767 66.1337 90.8624C65.9923 90.9544 65.8827 91.0816 65.8049 91.2443C65.7271 91.4034 65.6723 91.5855 65.6405 91.7906C65.6122 91.9921 65.598 92.2043 65.598 92.427V92.5808C65.598 92.8036 65.6122 93.0175 65.6405 93.2226C65.6687 93.4277 65.7218 93.6098 65.7996 93.7689C65.8809 93.928 65.9923 94.0535 66.1337 94.1454C66.2751 94.2374 66.459 94.2833 66.6853 94.2833ZM69.7349 92.5596V92.4482C69.7349 92.0275 69.7951 91.6403 69.9153 91.2867C70.0355 90.9296 70.2105 90.6202 70.4403 90.3586C70.6702 90.0969 70.953 89.8936 71.2889 89.7486C71.6248 89.6001 72.0103 89.5259 72.4452 89.5259C72.8801 89.5259 73.2672 89.6001 73.6067 89.7486C73.9461 89.8936 74.2308 90.0969 74.4606 90.3586C74.6939 90.6202 74.8707 90.9296 74.991 91.2867C75.1112 91.6403 75.1713 92.0275 75.1713 92.4482V92.5596C75.1713 92.9768 75.1112 93.364 74.991 93.7211C74.8707 94.0747 74.6939 94.3841 74.4606 94.6493C74.2308 94.9109 73.9479 95.1143 73.612 95.2592C73.2761 95.4042 72.8907 95.4767 72.4558 95.4767C72.0209 95.4767 71.6337 95.4042 71.2942 95.2592C70.9583 95.1143 70.6737 94.9109 70.4403 94.6493C70.2105 94.3841 70.0355 94.0747 69.9153 93.7211C69.7951 93.364 69.7349 92.9768 69.7349 92.5596ZM71.2624 92.4482V92.5596C71.2624 92.8001 71.2836 93.0246 71.3261 93.2332C71.3685 93.4418 71.4357 93.6257 71.5276 93.7848C71.6231 93.9404 71.7468 94.0623 71.8989 94.1507C72.0509 94.2391 72.2365 94.2833 72.4558 94.2833C72.6679 94.2833 72.85 94.2391 73.0021 94.1507C73.1541 94.0623 73.2761 93.9404 73.368 93.7848C73.4599 93.6257 73.5271 93.4418 73.5696 93.2332C73.6155 93.0246 73.6385 92.8001 73.6385 92.5596V92.4482C73.6385 92.2149 73.6155 91.9957 73.5696 91.7906C73.5271 91.582 73.4582 91.3981 73.3627 91.239C73.2708 91.0763 73.1488 90.9491 72.9967 90.8571C72.8447 90.7652 72.6608 90.7192 72.4452 90.7192C72.2295 90.7192 72.0456 90.7652 71.8936 90.8571C71.7451 90.9491 71.6231 91.0763 71.5276 91.239C71.4357 91.3981 71.3685 91.582 71.3261 91.7906C71.2836 91.9957 71.2624 92.2149 71.2624 92.4482ZM77.6375 90.82V95.3706H76.1047V89.632H77.5421L77.6375 90.82ZM77.4254 92.2997H77.0011C77.0011 91.9002 77.0488 91.5325 77.1443 91.1966C77.2433 90.8571 77.3865 90.5636 77.5739 90.3161C77.7648 90.0651 77.9999 89.8706 78.2793 89.7327C78.5586 89.5948 78.8821 89.5259 79.2499 89.5259C79.5044 89.5259 79.7378 89.5648 79.95 89.6426C80.1621 89.7168 80.3442 89.8353 80.4962 89.9979C80.6518 90.157 80.772 90.3656 80.8569 90.6238C80.9418 90.8783 80.9842 91.1842 80.9842 91.5413V95.3706H79.4567V91.711C79.4567 91.4494 79.4214 91.2478 79.3506 91.1064C79.2799 90.965 79.1791 90.866 79.0483 90.8094C78.921 90.7528 78.7672 90.7245 78.5869 90.7245C78.3889 90.7245 78.2156 90.7652 78.0671 90.8465C77.9222 90.9278 77.8019 91.041 77.7065 91.186C77.611 91.3274 77.5403 91.4936 77.4943 91.6845C77.4484 91.8754 77.4254 92.0805 77.4254 92.2997ZM80.841 92.1247L80.2947 92.1937C80.2947 91.8189 80.3407 91.4706 80.4326 91.1488C80.5281 90.8271 80.6677 90.5442 80.8516 90.3002C81.039 90.0563 81.2706 89.8671 81.5464 89.7327C81.8222 89.5948 82.1404 89.5259 82.5011 89.5259C82.7769 89.5259 83.0279 89.5665 83.2542 89.6479C83.4805 89.7257 83.6732 89.8512 83.8323 90.0244C83.9949 90.1942 84.1187 90.4169 84.2036 90.6927C84.292 90.9685 84.3362 91.3062 84.3362 91.7057V95.3706H82.8034V91.7057C82.8034 91.4405 82.768 91.239 82.6973 91.1011C82.6301 90.9597 82.5311 90.8624 82.4003 90.8094C82.273 90.7528 82.121 90.7245 81.9442 90.7245C81.7603 90.7245 81.5994 90.7617 81.4615 90.8359C81.3236 90.9066 81.2087 91.0056 81.1168 91.1329C81.0249 91.2602 80.9559 91.4087 80.9099 91.5784C80.864 91.7446 80.841 91.9267 80.841 92.1247ZM91.3265 93.7848C91.3265 93.6752 91.2947 93.5762 91.231 93.4878C91.1674 93.3994 91.0489 93.3181 90.8757 93.2438C90.706 93.166 90.4602 93.0953 90.1385 93.0317C89.8485 92.968 89.578 92.8885 89.327 92.793C89.0795 92.694 88.8638 92.5755 88.6799 92.4376C88.4996 92.2997 88.3582 92.1371 88.2556 91.9497C88.1531 91.7588 88.1018 91.5413 88.1018 91.2973C88.1018 91.0569 88.1531 90.8306 88.2556 90.6185C88.3617 90.4063 88.512 90.2189 88.7064 90.0563C88.9045 89.8901 89.1449 89.761 89.4278 89.6691C89.7142 89.5736 90.0359 89.5259 90.393 89.5259C90.8916 89.5259 91.3194 89.6054 91.6765 89.7645C92.0372 89.9237 92.313 90.1429 92.5039 90.4222C92.6984 90.698 92.7956 91.0127 92.7956 91.3663H91.2682C91.2682 91.2178 91.2363 91.0852 91.1727 90.9685C91.1126 90.8483 91.0171 90.7546 90.8863 90.6874C90.759 90.6167 90.5928 90.5813 90.3877 90.5813C90.218 90.5813 90.0713 90.6114 89.9475 90.6715C89.8238 90.7281 89.7283 90.8058 89.6611 90.9049C89.5975 91.0003 89.5657 91.1064 89.5657 91.2231C89.5657 91.3115 89.5833 91.391 89.6187 91.4617C89.6576 91.5289 89.7195 91.5908 89.8043 91.6474C89.8892 91.7039 89.9988 91.757 90.1332 91.8065C90.271 91.8525 90.4408 91.8949 90.6423 91.9338C91.056 92.0186 91.4255 92.13 91.7508 92.2679C92.0761 92.4023 92.3342 92.5861 92.5251 92.8195C92.7161 93.0493 92.8115 93.3516 92.8115 93.7264C92.8115 93.981 92.755 94.2144 92.6418 94.4265C92.5287 94.6387 92.366 94.8243 92.1539 94.9834C91.9417 95.139 91.6871 95.261 91.3901 95.3494C91.0967 95.4343 90.7661 95.4767 90.3983 95.4767C89.8644 95.4767 89.4118 95.3812 89.0406 95.1903C88.6729 94.9993 88.3935 94.7571 88.2026 94.4637C88.0152 94.1667 87.9215 93.8626 87.9215 93.5514H89.3694C89.3765 93.76 89.4295 93.928 89.5285 94.0553C89.6311 94.1826 89.7601 94.2745 89.9157 94.3311C90.0748 94.3876 90.2463 94.4159 90.4302 94.4159C90.6282 94.4159 90.7926 94.3894 90.9234 94.3364C91.0542 94.2798 91.1532 94.2055 91.2204 94.1136C91.2911 94.0182 91.3265 93.9085 91.3265 93.7848ZM97.1977 93.9969V89.632H98.7252V95.3706H97.2879L97.1977 93.9969ZM97.3675 92.8195L97.8183 92.8089C97.8183 93.1908 97.7741 93.5461 97.6857 93.8749C97.5973 94.2002 97.4647 94.4831 97.2879 94.7235C97.1111 94.9604 96.8884 95.1461 96.6196 95.2804C96.3509 95.4113 96.0344 95.4767 95.6703 95.4767C95.3909 95.4767 95.1328 95.4378 94.8959 95.36C94.6625 95.2787 94.461 95.1532 94.2913 94.9834C94.1251 94.8102 93.9943 94.5892 93.8988 94.3205C93.8069 94.0482 93.7609 93.7211 93.7609 93.3393V89.632H95.2884V93.3499C95.2884 93.5196 95.3078 93.6628 95.3467 93.7795C95.3892 93.8962 95.4475 93.9916 95.5218 94.0659C95.596 94.1401 95.6826 94.1932 95.7816 94.225C95.8842 94.2568 95.9973 94.2727 96.1211 94.2727C96.4358 94.2727 96.6833 94.2091 96.8636 94.0818C97.0475 93.9545 97.1765 93.7812 97.2508 93.562C97.3286 93.3393 97.3675 93.0918 97.3675 92.8195ZM102.263 94.2833C102.45 94.2833 102.616 94.248 102.761 94.1773C102.906 94.103 103.019 94.0005 103.101 93.8696C103.186 93.7353 103.23 93.5779 103.233 93.3976H104.671C104.667 93.8007 104.559 94.1596 104.347 94.4743C104.135 94.7854 103.85 95.0312 103.493 95.2115C103.136 95.3883 102.737 95.4767 102.295 95.4767C101.849 95.4767 101.46 95.4024 101.128 95.2539C100.799 95.1054 100.525 94.9003 100.306 94.6387C100.087 94.3735 99.9221 94.0659 99.8125 93.7158C99.7029 93.3623 99.6481 92.9839 99.6481 92.5808V92.427C99.6481 92.0204 99.7029 91.6421 99.8125 91.292C99.9221 90.9384 100.087 90.6308 100.306 90.3692C100.525 90.104 100.799 89.8971 101.128 89.7486C101.457 89.6001 101.842 89.5259 102.284 89.5259C102.754 89.5259 103.166 89.616 103.52 89.7964C103.877 89.9767 104.156 90.2348 104.358 90.5707C104.563 90.9031 104.667 91.2973 104.671 91.7535H103.233C103.23 91.5625 103.189 91.3893 103.111 91.2337C103.037 91.0781 102.928 90.9544 102.783 90.8624C102.641 90.767 102.466 90.7192 102.258 90.7192C102.035 90.7192 101.853 90.767 101.711 90.8624C101.57 90.9544 101.46 91.0816 101.382 91.2443C101.305 91.4034 101.25 91.5855 101.218 91.7906C101.19 91.9921 101.176 92.2043 101.176 92.427V92.5808C101.176 92.8036 101.19 93.0175 101.218 93.2226C101.246 93.4277 101.299 93.6098 101.377 93.7689C101.458 93.928 101.57 94.0535 101.711 94.1454C101.853 94.2374 102.037 94.2833 102.263 94.2833ZM108.198 95.4767C107.752 95.4767 107.353 95.406 106.999 95.2645C106.645 95.1196 106.345 94.9198 106.097 94.6652C105.853 94.4106 105.666 94.1154 105.535 93.7795C105.404 93.44 105.339 93.0794 105.339 92.6975V92.4854C105.339 92.0505 105.401 91.6527 105.525 91.292C105.648 90.9314 105.825 90.6185 106.055 90.3533C106.288 90.0881 106.571 89.8848 106.904 89.7433C107.236 89.5984 107.611 89.5259 108.028 89.5259C108.435 89.5259 108.795 89.5931 109.11 89.7274C109.425 89.8618 109.688 90.0527 109.9 90.3002C110.116 90.5477 110.279 90.8447 110.388 91.1913C110.498 91.5342 110.553 91.9161 110.553 92.3369V92.9733H105.991V91.955H109.052V91.8383C109.052 91.6262 109.013 91.437 108.935 91.2708C108.861 91.1011 108.748 90.9667 108.595 90.8677C108.443 90.7687 108.249 90.7192 108.012 90.7192C107.811 90.7192 107.637 90.7634 107.492 90.8518C107.347 90.9402 107.229 91.064 107.137 91.2231C107.049 91.3822 106.981 91.5696 106.935 91.7853C106.893 91.9974 106.872 92.2308 106.872 92.4854V92.6975C106.872 92.9273 106.904 93.1395 106.967 93.334C107.034 93.5284 107.128 93.6964 107.248 93.8378C107.372 93.9793 107.521 94.0889 107.694 94.1667C107.871 94.2444 108.07 94.2833 108.293 94.2833C108.569 94.2833 108.825 94.2303 109.062 94.1242C109.303 94.0146 109.509 93.8502 109.683 93.631L110.425 94.4371C110.305 94.6104 110.141 94.7766 109.932 94.9357C109.727 95.0948 109.479 95.2256 109.19 95.3282C108.9 95.4272 108.569 95.4767 108.198 95.4767ZM114.525 93.7848C114.525 93.6752 114.493 93.5762 114.43 93.4878C114.366 93.3994 114.248 93.3181 114.074 93.2438C113.905 93.166 113.659 93.0953 113.337 93.0317C113.047 92.968 112.777 92.8885 112.526 92.793C112.278 92.694 112.062 92.5755 111.879 92.4376C111.698 92.2997 111.557 92.1371 111.454 91.9497C111.352 91.7588 111.3 91.5413 111.3 91.2973C111.3 91.0569 111.352 90.8306 111.454 90.6185C111.56 90.4063 111.711 90.2189 111.905 90.0563C112.103 89.8901 112.343 89.761 112.626 89.6691C112.913 89.5736 113.234 89.5259 113.592 89.5259C114.09 89.5259 114.518 89.6054 114.875 89.7645C115.236 89.9237 115.512 90.1429 115.703 90.4222C115.897 90.698 115.994 91.0127 115.994 91.3663H114.467C114.467 91.2178 114.435 91.0852 114.371 90.9685C114.311 90.8483 114.216 90.7546 114.085 90.6874C113.958 90.6167 113.791 90.5813 113.586 90.5813C113.417 90.5813 113.27 90.6114 113.146 90.6715C113.022 90.7281 112.927 90.8058 112.86 90.9049C112.796 91.0003 112.764 91.1064 112.764 91.2231C112.764 91.3115 112.782 91.391 112.817 91.4617C112.856 91.5289 112.918 91.5908 113.003 91.6474C113.088 91.7039 113.197 91.757 113.332 91.8065C113.47 91.8525 113.639 91.8949 113.841 91.9338C114.255 92.0186 114.624 92.13 114.949 92.2679C115.275 92.4023 115.533 92.5861 115.724 92.8195C115.915 93.0493 116.01 93.3516 116.01 93.7264C116.01 93.981 115.954 94.2144 115.84 94.4265C115.727 94.6387 115.565 94.8243 115.352 94.9834C115.14 95.139 114.886 95.261 114.589 95.3494C114.295 95.4343 113.965 95.4767 113.597 95.4767C113.063 95.4767 112.61 95.3812 112.239 95.1903C111.871 94.9993 111.592 94.7571 111.401 94.4637C111.214 94.1667 111.12 93.8626 111.12 93.5514H112.568C112.575 93.76 112.628 93.928 112.727 94.0553C112.83 94.1826 112.959 94.2745 113.114 94.3311C113.273 94.3876 113.445 94.4159 113.629 94.4159C113.827 94.4159 113.991 94.3894 114.122 94.3364C114.253 94.2798 114.352 94.2055 114.419 94.1136C114.49 94.0182 114.525 93.9085 114.525 93.7848ZM120.105 93.7848C120.105 93.6752 120.073 93.5762 120.009 93.4878C119.945 93.3994 119.827 93.3181 119.654 93.2438C119.484 93.166 119.238 93.0953 118.917 93.0317C118.627 92.968 118.356 92.8885 118.105 92.793C117.858 92.694 117.642 92.5755 117.458 92.4376C117.278 92.2997 117.136 92.1371 117.034 91.9497C116.931 91.7588 116.88 91.5413 116.88 91.2973C116.88 91.0569 116.931 90.8306 117.034 90.6185C117.14 90.4063 117.29 90.2189 117.485 90.0563C117.683 89.8901 117.923 89.761 118.206 89.6691C118.492 89.5736 118.814 89.5259 119.171 89.5259C119.67 89.5259 120.098 89.6054 120.455 89.7645C120.815 89.9237 121.091 90.1429 121.282 90.4222C121.477 90.698 121.574 91.0127 121.574 91.3663H120.046C120.046 91.2178 120.014 91.0852 119.951 90.9685C119.891 90.8483 119.795 90.7546 119.664 90.6874C119.537 90.6167 119.371 90.5813 119.166 90.5813C118.996 90.5813 118.849 90.6114 118.726 90.6715C118.602 90.7281 118.506 90.8058 118.439 90.9049C118.376 91.0003 118.344 91.1064 118.344 91.2231C118.344 91.3115 118.361 91.391 118.397 91.4617C118.436 91.5289 118.498 91.5908 118.582 91.6474C118.667 91.7039 118.777 91.757 118.911 91.8065C119.049 91.8525 119.219 91.8949 119.42 91.9338C119.834 92.0186 120.204 92.13 120.529 92.2679C120.854 92.4023 121.112 92.5861 121.303 92.8195C121.494 93.0493 121.59 93.3516 121.59 93.7264C121.59 93.981 121.533 94.2144 121.42 94.4265C121.307 94.6387 121.144 94.8243 120.932 94.9834C120.72 95.139 120.465 95.261 120.168 95.3494C119.875 95.4343 119.544 95.4767 119.176 95.4767C118.643 95.4767 118.19 95.3812 117.819 95.1903C117.451 94.9993 117.172 94.7571 116.981 94.4637C116.793 94.1667 116.7 93.8626 116.7 93.5514H118.148C118.155 93.76 118.208 93.928 118.307 94.0553C118.409 94.1826 118.538 94.2745 118.694 94.3311C118.853 94.3876 119.024 94.4159 119.208 94.4159C119.406 94.4159 119.571 94.3894 119.702 94.3364C119.832 94.2798 119.931 94.2055 119.999 94.1136C120.069 94.0182 120.105 93.9085 120.105 93.7848ZM122.337 92.5596V92.4482C122.337 92.0275 122.398 91.6403 122.518 91.2867C122.638 90.9296 122.813 90.6202 123.043 90.3586C123.273 90.0969 123.556 89.8936 123.891 89.7486C124.227 89.6001 124.613 89.5259 125.048 89.5259C125.483 89.5259 125.87 89.6001 126.209 89.7486C126.549 89.8936 126.833 90.0969 127.063 90.3586C127.296 90.6202 127.473 90.9296 127.594 91.2867C127.714 91.6403 127.774 92.0275 127.774 92.4482V92.5596C127.774 92.9768 127.714 93.364 127.594 93.7211C127.473 94.0747 127.296 94.3841 127.063 94.6493C126.833 94.9109 126.55 95.1143 126.215 95.2592C125.879 95.4042 125.493 95.4767 125.058 95.4767C124.623 95.4767 124.236 95.4042 123.897 95.2592C123.561 95.1143 123.276 94.9109 123.043 94.6493C122.813 94.3841 122.638 94.0747 122.518 93.7211C122.398 93.364 122.337 92.9768 122.337 92.5596ZM123.865 92.4482V92.5596C123.865 92.8001 123.886 93.0246 123.929 93.2332C123.971 93.4418 124.038 93.6257 124.13 93.7848C124.226 93.9404 124.349 94.0623 124.501 94.1507C124.653 94.2391 124.839 94.2833 125.058 94.2833C125.27 94.2833 125.453 94.2391 125.605 94.1507C125.757 94.0623 125.879 93.9404 125.971 93.7848C126.062 93.6257 126.13 93.4418 126.172 93.2332C126.218 93.0246 126.241 92.8001 126.241 92.5596V92.4482C126.241 92.2149 126.218 91.9957 126.172 91.7906C126.13 91.582 126.061 91.3981 125.965 91.239C125.873 91.0763 125.751 90.9491 125.599 90.8571C125.447 90.7652 125.263 90.7192 125.048 90.7192C124.832 90.7192 124.648 90.7652 124.496 90.8571C124.348 90.9491 124.226 91.0763 124.13 91.239C124.038 91.3981 123.971 91.582 123.929 91.7906C123.886 91.9957 123.865 92.2149 123.865 92.4482ZM130.436 87.6484L130.261 93.0104H128.988L128.808 87.6484H130.436ZM128.766 94.6705C128.766 94.4442 128.843 94.2568 128.999 94.1083C129.158 93.9563 129.367 93.8803 129.625 93.8803C129.886 93.8803 130.095 93.9563 130.251 94.1083C130.406 94.2568 130.484 94.4442 130.484 94.6705C130.484 94.8897 130.406 95.0754 130.251 95.2274C130.095 95.3794 129.886 95.4555 129.625 95.4555C129.367 95.4555 129.158 95.3794 128.999 95.2274C128.843 95.0754 128.766 94.8897 128.766 94.6705Z" fill="#34403B"/>
<rect x="45.0176" y="110.784" width="104.741" height="29.4828" rx="3.87931" fill="#0a5888"/>
<path d="M84.5989 127.683L86.6779 120.7H88.7025L85.6293 129.525H84.2958L84.5989 127.683ZM82.6835 120.7L84.7565 127.683L85.0717 129.525H83.726L80.6711 120.7H82.6835ZM88.86 126.313V126.186C88.86 125.705 88.9287 125.262 89.0661 124.858C89.2035 124.45 89.4036 124.096 89.6662 123.797C89.9289 123.498 90.2522 123.266 90.636 123.1C91.0199 122.931 91.4604 122.846 91.9574 122.846C92.4545 122.846 92.897 122.931 93.2849 123.1C93.6728 123.266 93.9981 123.498 94.2608 123.797C94.5275 124.096 94.7295 124.45 94.8669 124.858C95.0043 125.262 95.073 125.705 95.073 126.186V126.313C95.073 126.79 95.0043 127.232 94.8669 127.64C94.7295 128.044 94.5275 128.398 94.2608 128.701C93.9981 129 93.6748 129.232 93.2909 129.398C92.9071 129.564 92.4666 129.647 91.9696 129.647C91.4725 129.647 91.03 129.564 90.6421 129.398C90.2582 129.232 89.9329 129 89.6662 128.701C89.4036 128.398 89.2035 128.044 89.0661 127.64C88.9287 127.232 88.86 126.79 88.86 126.313ZM90.6057 126.186V126.313C90.6057 126.588 90.63 126.844 90.6785 127.083C90.727 127.321 90.8037 127.531 90.9088 127.713C91.0179 127.891 91.1593 128.03 91.3331 128.131C91.5069 128.232 91.719 128.283 91.9696 128.283C92.212 128.283 92.4201 128.232 92.5939 128.131C92.7676 128.03 92.9071 127.891 93.0121 127.713C93.1172 127.531 93.194 127.321 93.2425 127.083C93.295 126.844 93.3213 126.588 93.3213 126.313V126.186C93.3213 125.919 93.295 125.668 93.2425 125.434C93.194 125.196 93.1152 124.985 93.0061 124.804C92.901 124.618 92.7616 124.472 92.5878 124.367C92.4141 124.262 92.2039 124.21 91.9574 124.21C91.7109 124.21 91.5008 124.262 91.327 124.367C91.1573 124.472 91.0179 124.618 90.9088 124.804C90.8037 124.985 90.727 125.196 90.6785 125.434C90.63 125.668 90.6057 125.919 90.6057 126.186ZM97.9886 120.215V129.525H96.2368V120.215H97.9886ZM102.644 122.967V124.203H98.825V122.967H102.644ZM99.7706 121.349H101.516V127.549C101.516 127.739 101.541 127.885 101.589 127.986C101.642 128.087 101.718 128.158 101.819 128.198C101.92 128.234 102.048 128.252 102.201 128.252C102.31 128.252 102.407 128.248 102.492 128.24C102.581 128.228 102.656 128.216 102.716 128.204L102.723 129.489C102.573 129.538 102.411 129.576 102.238 129.604C102.064 129.632 101.872 129.647 101.662 129.647C101.278 129.647 100.942 129.584 100.656 129.459C100.373 129.329 100.154 129.123 100.001 128.84C99.8474 128.558 99.7706 128.186 99.7706 127.725V121.349ZM107.178 128.046V125.125C107.178 124.915 107.143 124.735 107.075 124.585C107.006 124.432 106.899 124.313 106.753 124.228C106.612 124.143 106.428 124.1 106.202 124.1C106.008 124.1 105.84 124.135 105.699 124.203C105.557 124.268 105.448 124.363 105.371 124.488C105.295 124.61 105.256 124.753 105.256 124.919H103.511C103.511 124.64 103.575 124.375 103.704 124.125C103.834 123.874 104.022 123.654 104.268 123.464C104.515 123.27 104.808 123.118 105.147 123.009C105.491 122.9 105.874 122.846 106.299 122.846C106.808 122.846 107.261 122.931 107.657 123.1C108.053 123.27 108.364 123.525 108.59 123.864C108.82 124.203 108.935 124.628 108.935 125.137V127.943C108.935 128.303 108.958 128.598 109.002 128.828C109.047 129.055 109.111 129.253 109.196 129.422V129.525H107.432C107.347 129.348 107.283 129.125 107.238 128.859C107.198 128.588 107.178 128.317 107.178 128.046ZM107.408 125.531L107.42 126.519H106.444C106.214 126.519 106.014 126.545 105.844 126.598C105.674 126.65 105.535 126.725 105.426 126.822C105.317 126.915 105.236 127.024 105.183 127.149C105.135 127.275 105.111 127.412 105.111 127.561C105.111 127.711 105.145 127.846 105.214 127.968C105.282 128.085 105.381 128.178 105.511 128.246C105.64 128.311 105.792 128.343 105.965 128.343C106.228 128.343 106.456 128.291 106.65 128.186C106.844 128.081 106.994 127.951 107.099 127.798C107.208 127.644 107.265 127.499 107.269 127.361L107.729 128.101C107.665 128.267 107.576 128.438 107.463 128.616C107.353 128.794 107.214 128.962 107.044 129.119C106.875 129.273 106.671 129.4 106.432 129.501C106.194 129.598 105.911 129.647 105.584 129.647C105.167 129.647 104.789 129.564 104.45 129.398C104.115 129.228 103.848 128.996 103.65 128.701C103.456 128.402 103.359 128.063 103.359 127.683C103.359 127.339 103.424 127.034 103.553 126.767C103.682 126.501 103.872 126.276 104.123 126.095C104.377 125.909 104.695 125.769 105.074 125.676C105.454 125.579 105.895 125.531 106.396 125.531H107.408ZM112.027 124.397V129.525H110.281V122.967H111.924L112.027 124.397ZM114.003 122.925L113.973 124.543C113.888 124.531 113.785 124.521 113.663 124.513C113.546 124.5 113.439 124.494 113.342 124.494C113.096 124.494 112.881 124.527 112.7 124.591C112.522 124.652 112.372 124.743 112.251 124.864C112.134 124.985 112.045 125.133 111.984 125.307C111.928 125.48 111.895 125.678 111.887 125.901L111.536 125.792C111.536 125.367 111.578 124.977 111.663 124.622C111.748 124.262 111.871 123.949 112.033 123.682C112.199 123.415 112.401 123.209 112.639 123.064C112.877 122.918 113.15 122.846 113.457 122.846C113.554 122.846 113.653 122.854 113.754 122.87C113.855 122.882 113.938 122.9 114.003 122.925Z" fill="white"/>
<path d="M176.138 18.0605L169.931 24.2674" stroke="#383838" stroke-width="1.24138" stroke-linecap="round" stroke-linejoin="round"/>
<path d="M169.931 18.0605L176.138 24.2674" stroke="#383838" stroke-width="1.24138" stroke-linecap="round" stroke-linejoin="round"/>
</g>
<defs>
<filter id="filter0_d_7121_42516" x="0.793103" y="0.991345" width="192.414" height="173.017" filterUnits="userSpaceOnUse" color-interpolation-filters="sRGB">
<feFlood flood-opacity="0" result="BackgroundImageFix"/>
<feColorMatrix in="SourceAlpha" type="matrix" values="0 0 0 0 0 0 0 0 0 0 0 0 0 0 0 0 0 0 127 0" result="hardAlpha"/>
<feOffset/>
<feGaussianBlur stdDeviation="3.10345"/>
<feColorMatrix type="matrix" values="0 0 0 0 0 0 0 0 0 0 0 0 0 0 0 0 0 0 0.25 0"/>
<feBlend mode="normal" in2="BackgroundImageFix" result="effect1_dropShadow_7121_42516"/>
<feBlend mode="normal" in="SourceGraphic" in2="effect1_dropShadow_7121_42516" result="shape"/>
</filter>
</defs>
</svg>
