<svg width="24" height="24" viewBox="0 0 24 24" fill="none" xmlns="http://www.w3.org/2000/svg">
<path fill-rule="evenodd" clip-rule="evenodd" d="M11.9995 20.9956C6.94455 20.9956 2.86255 16.8276 3.00355 11.7406C3.13355 7.04464 7.04855 3.12964 11.7445 2.99964C16.8315 2.85864 20.9995 6.94064 20.9995 11.9956C20.9995 13.3526 20.6985 14.6396 20.1615 15.7946L21.3195 21.3376L15.7865 20.1626C14.6345 20.6976 13.3515 20.9956 11.9995 20.9956V20.9956Z" stroke="#0a5888" stroke-width="1.5" stroke-linecap="round" stroke-linejoin="round"/>
<path d="M12.1768 11.8232C12.2744 11.9209 12.2744 12.0791 12.1768 12.1768C12.0791 12.2744 11.9209 12.2744 11.8232 12.1768C11.7256 12.0791 11.7256 11.9209 11.8232 11.8232C11.9209 11.7256 12.0791 11.7256 12.1768 11.8232" stroke="#0a5888" stroke-width="1.5" stroke-linecap="round" stroke-linejoin="round"/>
<path d="M16.1768 11.8232C16.2744 11.9209 16.2744 12.0791 16.1768 12.1768C16.0791 12.2744 15.9209 12.2744 15.8232 12.1768C15.7256 12.0791 15.7256 11.9209 15.8232 11.8232C15.9209 11.7256 16.0791 11.7256 16.1768 11.8232" stroke="#0a5888" stroke-width="1.5" stroke-linecap="round" stroke-linejoin="round"/>
<path d="M8.17678 11.8232C8.27441 11.9209 8.27441 12.0791 8.17678 12.1768C8.07915 12.2744 7.92085 12.2744 7.82322 12.1768C7.72559 12.0791 7.72559 11.9209 7.82322 11.8232C7.92085 11.7256 8.07915 11.7256 8.17678 11.8232" stroke="#0a5888" stroke-width="1.5" stroke-linecap="round" stroke-linejoin="round"/>
</svg>
