<svg width="254" height="178" viewBox="0 0 254 178" fill="none" xmlns="http://www.w3.org/2000/svg">
<g filter="url(#filter0_d_7121_41320)">
<path d="M8 28C8 16.9543 16.9543 8 28 8H226C237.046 8 246 16.9543 246 28V170H8V28Z" fill="white" shape-rendering="crispEdges"/>
<path d="M71.3943 57.8578H72.5242C72.488 58.2887 72.3675 58.6728 72.1626 59.0103C71.9577 59.3447 71.67 59.6083 71.2994 59.8012C70.9288 59.994 70.4784 60.0904 69.9482 60.0904C69.5414 60.0904 69.1754 60.0181 68.85 59.8735C68.5246 59.7258 68.2459 59.5179 68.0139 59.2498C67.7819 58.9786 67.6041 58.6517 67.4806 58.2691C67.3601 57.8865 67.2998 57.4586 67.2998 56.9856V56.4388C67.2998 55.9658 67.3616 55.5379 67.4851 55.1553C67.6117 54.7727 67.7924 54.4458 68.0274 54.1746C68.2625 53.9004 68.5442 53.691 68.8726 53.5464C69.204 53.4018 69.5761 53.3295 69.9888 53.3295C70.5131 53.3295 70.956 53.4259 71.3175 53.6187C71.6791 53.8116 71.9593 54.0782 72.1581 54.4186C72.36 54.7591 72.4835 55.1493 72.5287 55.5891H71.3989C71.3687 55.3059 71.3024 55.0634 71.2 54.8615C71.1006 54.6597 70.9529 54.506 70.7571 54.4006C70.5613 54.2921 70.3052 54.2379 69.9888 54.2379C69.7297 54.2379 69.5038 54.2861 69.3109 54.3825C69.1181 54.4789 68.9569 54.6205 68.8274 54.8073C68.6978 54.9941 68.5999 55.2246 68.5336 55.4988C68.4703 55.7699 68.4387 56.0802 68.4387 56.4297V56.9856C68.4387 57.317 68.4673 57.6183 68.5246 57.8895C68.5848 58.1576 68.6752 58.3881 68.7957 58.5809C68.9193 58.7738 69.0759 58.9229 69.2657 59.0283C69.4556 59.1338 69.683 59.1865 69.9482 59.1865C70.2705 59.1865 70.5311 59.1353 70.73 59.0329C70.9319 58.9304 71.084 58.7813 71.1864 58.5855C71.2919 58.3866 71.3612 58.1441 71.3943 57.8578ZM73.0994 57.6093V57.5053C73.0994 57.1528 73.1506 56.8259 73.253 56.5246C73.3555 56.2203 73.5031 55.9567 73.6959 55.7338C73.8918 55.5078 74.1298 55.3331 74.41 55.2095C74.6932 55.083 75.0126 55.0197 75.3681 55.0197C75.7266 55.0197 76.046 55.083 76.3262 55.2095C76.6094 55.3331 76.8489 55.5078 77.0447 55.7338C77.2406 55.9567 77.3897 56.2203 77.4922 56.5246C77.5946 56.8259 77.6458 57.1528 77.6458 57.5053V57.6093C77.6458 57.9618 77.5946 58.2887 77.4922 58.59C77.3897 58.8913 77.2406 59.1549 77.0447 59.3809C76.8489 59.6038 76.6109 59.7786 76.3307 59.9051C76.0505 60.0286 75.7326 60.0904 75.3771 60.0904C75.0186 60.0904 74.6977 60.0286 74.4145 59.9051C74.1343 59.7786 73.8963 59.6038 73.7005 59.3809C73.5046 59.1549 73.3555 58.8913 73.253 58.59C73.1506 58.2887 73.0994 57.9618 73.0994 57.6093ZM74.1885 57.5053V57.6093C74.1885 57.8292 74.2111 58.0371 74.2563 58.2329C74.3015 58.4288 74.3723 58.6005 74.4687 58.7481C74.5651 58.8958 74.6887 59.0118 74.8393 59.0961C74.99 59.1805 75.1692 59.2227 75.3771 59.2227C75.579 59.2227 75.7537 59.1805 75.9014 59.0961C76.052 59.0118 76.1755 58.8958 76.2719 58.7481C76.3684 58.6005 76.4392 58.4288 76.4843 58.2329C76.5326 58.0371 76.5567 57.8292 76.5567 57.6093V57.5053C76.5567 57.2884 76.5326 57.0835 76.4843 56.8907C76.4392 56.6949 76.3668 56.5216 76.2674 56.371C76.171 56.2203 76.0475 56.1028 75.8968 56.0185C75.7492 55.9311 75.573 55.8874 75.3681 55.8874C75.1632 55.8874 74.9854 55.9311 74.8348 56.0185C74.6872 56.1028 74.5651 56.2203 74.4687 56.371C74.3723 56.5216 74.3015 56.6949 74.2563 56.8907C74.2111 57.0835 74.1885 57.2884 74.1885 57.5053ZM79.5136 56.0501V61.88H78.4244V55.1101H79.4277L79.5136 56.0501ZM82.6997 57.5099V57.6048C82.6997 57.9603 82.6575 58.2902 82.5731 58.5945C82.4918 58.8958 82.3698 59.1594 82.2071 59.3854C82.0474 59.6083 81.85 59.7816 81.615 59.9051C81.38 60.0286 81.1089 60.0904 80.8016 60.0904C80.4973 60.0904 80.2306 60.0346 80.0016 59.9232C79.7757 59.8087 79.5844 59.6475 79.4277 59.4396C79.271 59.2317 79.1445 58.9877 79.0481 58.7075C78.9547 58.4243 78.8884 58.1139 78.8492 57.7765V57.4104C78.8884 57.0519 78.9547 56.7265 79.0481 56.4343C79.1445 56.142 79.271 55.8904 79.4277 55.6795C79.5844 55.4686 79.7757 55.3059 80.0016 55.1914C80.2276 55.077 80.4912 55.0197 80.7925 55.0197C81.0998 55.0197 81.3725 55.08 81.6105 55.2005C81.8485 55.318 82.0489 55.4867 82.2116 55.7067C82.3743 55.9236 82.4963 56.1857 82.5777 56.493C82.659 56.7973 82.6997 57.1363 82.6997 57.5099ZM81.6105 57.6048V57.5099C81.6105 57.2839 81.5894 57.0745 81.5472 56.8817C81.5051 56.6858 81.4388 56.5141 81.3484 56.3665C81.258 56.2188 81.142 56.1044 81.0004 56.023C80.8618 55.9386 80.6946 55.8965 80.4988 55.8965C80.3059 55.8965 80.1402 55.9296 80.0016 55.9959C79.863 56.0592 79.7471 56.148 79.6537 56.2625C79.5603 56.377 79.4879 56.5111 79.4367 56.6647C79.3855 56.8154 79.3494 56.9796 79.3283 57.1574V58.0341C79.3644 58.251 79.4262 58.4499 79.5136 58.6306C79.6009 58.8114 79.7245 58.956 79.8841 59.0645C80.0468 59.17 80.2547 59.2227 80.5078 59.2227C80.7036 59.2227 80.8709 59.1805 81.0094 59.0961C81.148 59.0118 81.261 58.8958 81.3484 58.7481C81.4388 58.5975 81.5051 58.4243 81.5472 58.2284C81.5894 58.0326 81.6105 57.8247 81.6105 57.6048ZM84.6533 55.1101V60H83.5596V55.1101H84.6533ZM83.4873 53.8266C83.4873 53.6609 83.5415 53.5238 83.65 53.4154C83.7615 53.3039 83.9151 53.2481 84.111 53.2481C84.3038 53.2481 84.4559 53.3039 84.5674 53.4154C84.6789 53.5238 84.7346 53.6609 84.7346 53.8266C84.7346 53.9893 84.6789 54.1249 84.5674 54.2334C84.4559 54.3418 84.3038 54.3961 84.111 54.3961C83.9151 54.3961 83.7615 54.3418 83.65 54.2334C83.5415 54.1249 83.4873 53.9893 83.4873 53.8266ZM87.8633 60.0904C87.5017 60.0904 87.1748 60.0316 86.8826 59.9141C86.5933 59.7936 86.3463 59.6264 86.1414 59.4125C85.9395 59.1986 85.7844 58.947 85.6759 58.6578C85.5674 58.3685 85.5132 58.0567 85.5132 57.7223V57.5415C85.5132 57.1589 85.569 56.8124 85.6804 56.5021C85.7919 56.1917 85.9471 55.9266 86.1459 55.7067C86.3448 55.4837 86.5798 55.3135 86.8509 55.196C87.1221 55.0785 87.4158 55.0197 87.7322 55.0197C88.0817 55.0197 88.3875 55.0785 88.6496 55.196C88.9117 55.3135 89.1287 55.4792 89.3004 55.6931C89.4751 55.904 89.6047 56.1556 89.6891 56.4478C89.7764 56.7401 89.8201 57.0624 89.8201 57.415V57.8804H86.042V57.0986H88.7445V57.0127C88.7385 56.8169 88.6993 56.6331 88.627 56.4614C88.5577 56.2896 88.4508 56.1511 88.3062 56.0456C88.1615 55.9401 87.9687 55.8874 87.7277 55.8874C87.5469 55.8874 87.3857 55.9266 87.2441 56.0049C87.1055 56.0802 86.9895 56.1902 86.8961 56.3348C86.8027 56.4795 86.7304 56.6542 86.6792 56.8591C86.631 57.0609 86.6069 57.2884 86.6069 57.5415V57.7223C86.6069 57.9362 86.6355 58.135 86.6928 58.3188C86.753 58.4996 86.8404 58.6578 86.9549 58.7933C87.0694 58.9289 87.208 59.0359 87.3707 59.1142C87.5334 59.1895 87.7186 59.2272 87.9265 59.2272C88.1887 59.2272 88.4221 59.1745 88.627 59.069C88.8319 58.9636 89.0097 58.8144 89.1603 58.6216L89.7343 59.1775C89.6288 59.3311 89.4917 59.4788 89.323 59.6204C89.1543 59.759 88.9479 59.872 88.7039 59.9593C88.4628 60.0467 88.1826 60.0904 87.8633 60.0904ZM95.4402 58.6758C95.4402 58.5674 95.413 58.4695 95.3588 58.3821C95.3046 58.2917 95.2006 58.2104 95.047 58.138C94.8963 58.0657 94.6734 57.9995 94.3781 57.9392C94.119 57.8819 93.881 57.8142 93.6641 57.7358C93.4502 57.6545 93.2664 57.5566 93.1127 57.4421C92.9591 57.3276 92.84 57.192 92.7557 57.0353C92.6713 56.8787 92.6291 56.6979 92.6291 56.493C92.6291 56.2942 92.6728 56.1059 92.7602 55.9281C92.8476 55.7503 92.9726 55.5937 93.1353 55.4581C93.298 55.3225 93.4954 55.2156 93.7273 55.1372C93.9623 55.0589 94.2245 55.0197 94.5137 55.0197C94.9235 55.0197 95.2745 55.089 95.5667 55.2276C95.862 55.3632 96.0879 55.5485 96.2446 55.7835C96.4013 56.0155 96.4796 56.2776 96.4796 56.5698H95.3904C95.3904 56.4403 95.3573 56.3198 95.291 56.2083C95.2278 56.0938 95.1313 56.0019 95.0018 55.9326C94.8722 55.8603 94.7095 55.8242 94.5137 55.8242C94.3269 55.8242 94.1717 55.8543 94.0482 55.9145C93.9277 55.9718 93.8373 56.0471 93.7771 56.1405C93.7198 56.2339 93.6912 56.3363 93.6912 56.4478C93.6912 56.5292 93.7063 56.603 93.7364 56.6693C93.7695 56.7325 93.8238 56.7913 93.8991 56.8455C93.9744 56.8967 94.0768 56.9449 94.2064 56.9901C94.339 57.0353 94.5047 57.079 94.7035 57.1212C95.0771 57.1995 95.398 57.3005 95.6661 57.424C95.9373 57.5445 96.1452 57.7012 96.2898 57.894C96.4344 58.0838 96.5067 58.3248 96.5067 58.6171C96.5067 58.834 96.46 59.0329 96.3666 59.2136C96.2762 59.3914 96.1437 59.5466 95.9689 59.6791C95.7942 59.8087 95.5848 59.9096 95.3407 59.9819C95.0997 60.0542 94.8285 60.0904 94.5273 60.0904C94.0844 60.0904 93.7093 60.0121 93.402 59.8554C93.0946 59.6957 92.8611 59.4923 92.7015 59.2453C92.5448 58.9952 92.4665 58.7361 92.4665 58.468H93.5195C93.5315 58.6698 93.5872 58.831 93.6867 58.9515C93.7891 59.069 93.9156 59.1549 94.0663 59.2091C94.2199 59.2603 94.3781 59.2859 94.5408 59.2859C94.7367 59.2859 94.9009 59.2603 95.0334 59.2091C95.166 59.1549 95.2669 59.0826 95.3362 58.9922C95.4055 58.8988 95.4402 58.7933 95.4402 58.6758ZM99.4772 60.0904C99.1156 60.0904 98.7887 60.0316 98.4965 59.9141C98.2072 59.7936 97.9602 59.6264 97.7553 59.4125C97.5535 59.1986 97.3983 58.947 97.2898 58.6578C97.1814 58.3685 97.1271 58.0567 97.1271 57.7223V57.5415C97.1271 57.1589 97.1829 56.8124 97.2943 56.5021C97.4058 56.1917 97.561 55.9266 97.7598 55.7067C97.9587 55.4837 98.1937 55.3135 98.4648 55.196C98.736 55.0785 99.0298 55.0197 99.3461 55.0197C99.6956 55.0197 100.001 55.0785 100.264 55.196C100.526 55.3135 100.743 55.4792 100.914 55.6931C101.089 55.904 101.219 56.1556 101.303 56.4478C101.39 56.7401 101.434 57.0624 101.434 57.415V57.8804H97.6559V57.0986H100.358V57.0127C100.352 56.8169 100.313 56.6331 100.241 56.4614C100.172 56.2896 100.065 56.1511 99.9201 56.0456C99.7755 55.9401 99.5826 55.8874 99.3416 55.8874C99.1608 55.8874 98.9996 55.9266 98.858 56.0049C98.7194 56.0802 98.6034 56.1902 98.51 56.3348C98.4166 56.4795 98.3443 56.6542 98.2931 56.8591C98.2449 57.0609 98.2208 57.2884 98.2208 57.5415V57.7223C98.2208 57.9362 98.2494 58.135 98.3067 58.3188C98.3669 58.4996 98.4543 58.6578 98.5688 58.7933C98.6833 58.9289 98.8219 59.0359 98.9846 59.1142C99.1473 59.1895 99.3326 59.2272 99.5404 59.2272C99.8026 59.2272 100.036 59.1745 100.241 59.069C100.446 58.9636 100.624 58.8144 100.774 58.6216L101.348 59.1775C101.243 59.3311 101.106 59.4788 100.937 59.6204C100.768 59.759 100.562 59.872 100.318 59.9593C100.077 60.0467 99.7965 60.0904 99.4772 60.0904ZM105.087 58.8476V55.1101H106.181V60H105.15L105.087 58.8476ZM105.241 57.8307L105.607 57.8217C105.607 58.1501 105.57 58.4529 105.498 58.7301C105.426 59.0042 105.314 59.2438 105.164 59.4486C105.013 59.6505 104.82 59.8087 104.585 59.9232C104.35 60.0346 104.069 60.0904 103.74 60.0904C103.502 60.0904 103.284 60.0557 103.085 59.9864C102.886 59.9171 102.714 59.8102 102.57 59.6656C102.428 59.521 102.318 59.3326 102.24 59.1007C102.161 58.8687 102.122 58.5915 102.122 58.2691V55.1101H103.211V58.2781C103.211 58.4559 103.232 58.605 103.275 58.7256C103.317 58.8431 103.374 58.938 103.446 59.0103C103.519 59.0826 103.603 59.1338 103.699 59.1639C103.796 59.1941 103.898 59.2091 104.007 59.2091C104.317 59.2091 104.561 59.1489 104.739 59.0283C104.92 58.9048 105.048 58.7391 105.123 58.5312C105.201 58.3233 105.241 58.0898 105.241 57.8307ZM111.322 59.2227C111.499 59.2227 111.659 59.188 111.801 59.1187C111.945 59.0464 112.061 58.947 112.149 58.8205C112.239 58.6939 112.289 58.5478 112.298 58.3821H113.324C113.318 58.6984 113.224 58.9862 113.043 59.2453C112.863 59.5044 112.623 59.7108 112.325 59.8644C112.027 60.0151 111.697 60.0904 111.335 60.0904C110.962 60.0904 110.636 60.0271 110.359 59.9006C110.082 59.771 109.851 59.5933 109.668 59.3673C109.484 59.1413 109.345 58.8807 109.252 58.5855C109.161 58.2902 109.116 57.9738 109.116 57.6364V57.4782C109.116 57.1408 109.161 56.8244 109.252 56.5292C109.345 56.2309 109.484 55.9688 109.668 55.7428C109.851 55.5168 110.082 55.3406 110.359 55.214C110.636 55.0845 110.96 55.0197 111.331 55.0197C111.722 55.0197 112.066 55.0981 112.361 55.2547C112.656 55.4084 112.888 55.6238 113.057 55.901C113.229 56.1752 113.318 56.4945 113.324 56.8591H112.298C112.289 56.6783 112.244 56.5156 112.162 56.371C112.084 56.2234 111.972 56.1059 111.828 56.0185C111.686 55.9311 111.516 55.8874 111.317 55.8874C111.097 55.8874 110.915 55.9326 110.77 56.023C110.626 56.1104 110.513 56.2309 110.431 56.3845C110.35 56.5352 110.291 56.7054 110.255 56.8952C110.222 57.082 110.205 57.2764 110.205 57.4782V57.6364C110.205 57.8383 110.222 58.0341 110.255 58.2239C110.288 58.4137 110.345 58.5839 110.427 58.7346C110.511 58.8822 110.626 59.0012 110.77 59.0916C110.915 59.179 111.099 59.2227 111.322 59.2227ZM113.813 57.6093V57.5053C113.813 57.1528 113.864 56.8259 113.967 56.5246C114.069 56.2203 114.217 55.9567 114.41 55.7338C114.605 55.5078 114.843 55.3331 115.124 55.2095C115.407 55.083 115.726 55.0197 116.082 55.0197C116.44 55.0197 116.76 55.083 117.04 55.2095C117.323 55.3331 117.563 55.5078 117.758 55.7338C117.954 55.9567 118.103 56.2203 118.206 56.5246C118.308 56.8259 118.359 57.1528 118.359 57.5053V57.6093C118.359 57.9618 118.308 58.2887 118.206 58.59C118.103 58.8913 117.954 59.1549 117.758 59.3809C117.563 59.6038 117.324 59.7786 117.044 59.9051C116.764 60.0286 116.446 60.0904 116.091 60.0904C115.732 60.0904 115.411 60.0286 115.128 59.9051C114.848 59.7786 114.61 59.6038 114.414 59.3809C114.218 59.1549 114.069 58.8913 113.967 58.59C113.864 58.2887 113.813 57.9618 113.813 57.6093ZM114.902 57.5053V57.6093C114.902 57.8292 114.925 58.0371 114.97 58.2329C115.015 58.4288 115.086 58.6005 115.182 58.7481C115.279 58.8958 115.402 59.0118 115.553 59.0961C115.704 59.1805 115.883 59.2227 116.091 59.2227C116.293 59.2227 116.467 59.1805 116.615 59.0961C116.766 59.0118 116.889 58.8958 116.986 58.7481C117.082 58.6005 117.153 58.4288 117.198 58.2329C117.246 58.0371 117.27 57.8292 117.27 57.6093V57.5053C117.27 57.2884 117.246 57.0835 117.198 56.8907C117.153 56.6949 117.08 56.5216 116.981 56.371C116.885 56.2203 116.761 56.1028 116.61 56.0185C116.463 55.9311 116.287 55.8874 116.082 55.8874C115.877 55.8874 115.699 55.9311 115.548 56.0185C115.401 56.1028 115.279 56.2203 115.182 56.371C115.086 56.5216 115.015 56.6949 114.97 56.8907C114.925 57.0835 114.902 57.2884 114.902 57.5053ZM115.512 54.4186L116.394 53.0583H117.623L116.394 54.4186H115.512ZM122.116 58.9877V53.0583H123.21V60H122.22L122.116 58.9877ZM118.935 57.6093V57.5144C118.935 57.1438 118.978 56.8064 119.066 56.5021C119.153 56.1947 119.28 55.9311 119.445 55.7112C119.611 55.4882 119.813 55.318 120.051 55.2005C120.289 55.08 120.557 55.0197 120.855 55.0197C121.151 55.0197 121.41 55.077 121.633 55.1914C121.856 55.3059 122.045 55.4701 122.202 55.6841C122.359 55.895 122.484 56.148 122.577 56.4433C122.671 56.7355 122.737 57.0609 122.776 57.4195V57.7223C122.737 58.0718 122.671 58.3911 122.577 58.6804C122.484 58.9696 122.359 59.2197 122.202 59.4306C122.045 59.6415 121.854 59.8042 121.628 59.9187C121.405 60.0331 121.145 60.0904 120.846 60.0904C120.551 60.0904 120.284 60.0286 120.046 59.9051C119.811 59.7816 119.611 59.6083 119.445 59.3854C119.28 59.1624 119.153 58.9003 119.066 58.599C118.978 58.2947 118.935 57.9648 118.935 57.6093ZM120.024 57.5144V57.6093C120.024 57.8322 120.043 58.0401 120.083 58.2329C120.125 58.4258 120.189 58.596 120.277 58.7436C120.364 58.8882 120.477 59.0027 120.616 59.0871C120.757 59.1684 120.926 59.2091 121.122 59.2091C121.369 59.2091 121.572 59.1549 121.732 59.0464C121.892 58.938 122.017 58.7918 122.107 58.6081C122.201 58.4213 122.264 58.2134 122.297 57.9844V57.1664C122.279 56.9886 122.241 56.8229 122.184 56.6693C122.13 56.5156 122.056 56.3815 121.963 56.267C121.869 56.1495 121.753 56.0592 121.615 55.9959C121.479 55.9296 121.318 55.8965 121.131 55.8965C120.932 55.8965 120.763 55.9386 120.625 56.023C120.486 56.1074 120.372 56.2234 120.281 56.371C120.194 56.5186 120.129 56.6904 120.087 56.8862C120.045 57.082 120.024 57.2914 120.024 57.5144ZM125.376 55.1101V60H124.282V55.1101H125.376ZM124.21 53.8266C124.21 53.6609 124.264 53.5238 124.373 53.4154C124.484 53.3039 124.638 53.2481 124.834 53.2481C125.026 53.2481 125.179 53.3039 125.29 53.4154C125.402 53.5238 125.457 53.6609 125.457 53.8266C125.457 53.9893 125.402 54.1249 125.29 54.2334C125.179 54.3418 125.026 54.3961 124.834 54.3961C124.638 54.3961 124.484 54.3418 124.373 54.2334C124.264 54.1249 124.21 53.9893 124.21 53.8266ZM129.562 55.1101H130.552V59.8644C130.552 60.3043 130.458 60.6779 130.272 60.9852C130.085 61.2925 129.824 61.526 129.49 61.6857C129.155 61.8484 128.768 61.9297 128.328 61.9297C128.142 61.9297 127.934 61.9026 127.705 61.8484C127.479 61.7942 127.259 61.7068 127.045 61.5863C126.834 61.4688 126.658 61.3136 126.516 61.1208L127.027 60.479C127.201 60.6869 127.394 60.8391 127.605 60.9355C127.816 61.0319 128.038 61.0801 128.27 61.0801C128.52 61.0801 128.732 61.0334 128.907 60.94C129.085 60.8496 129.222 60.7156 129.318 60.5378C129.414 60.36 129.463 60.1431 129.463 59.887V56.2173L129.562 55.1101ZM126.24 57.6093V57.5144C126.24 57.1438 126.286 56.8064 126.376 56.5021C126.466 56.1947 126.596 55.9311 126.765 55.7112C126.933 55.4882 127.138 55.318 127.379 55.2005C127.62 55.08 127.893 55.0197 128.197 55.0197C128.514 55.0197 128.783 55.077 129.006 55.1914C129.232 55.3059 129.42 55.4701 129.571 55.6841C129.722 55.895 129.839 56.148 129.924 56.4433C130.011 56.7355 130.076 57.0609 130.118 57.4195V57.7223C130.079 58.0718 130.012 58.3911 129.919 58.6804C129.826 58.9696 129.702 59.2197 129.549 59.4306C129.395 59.6415 129.205 59.8042 128.979 59.9187C128.756 60.0331 128.493 60.0904 128.188 60.0904C127.89 60.0904 127.62 60.0286 127.379 59.9051C127.141 59.7816 126.936 59.6083 126.765 59.3854C126.596 59.1624 126.466 58.9003 126.376 58.599C126.286 58.2947 126.24 57.9648 126.24 57.6093ZM127.33 57.5144V57.6093C127.33 57.8322 127.351 58.0401 127.393 58.2329C127.438 58.4258 127.506 58.596 127.596 58.7436C127.69 58.8882 127.807 59.0027 127.949 59.0871C128.093 59.1684 128.264 59.2091 128.459 59.2091C128.715 59.2091 128.925 59.1549 129.088 59.0464C129.253 58.938 129.38 58.7918 129.467 58.6081C129.558 58.4213 129.621 58.2134 129.657 57.9844V57.1664C129.639 56.9886 129.601 56.8229 129.544 56.6693C129.49 56.5156 129.416 56.3815 129.323 56.267C129.229 56.1495 129.112 56.0592 128.97 55.9959C128.828 55.9296 128.661 55.8965 128.468 55.8965C128.273 55.8965 128.102 55.9386 127.958 56.023C127.813 56.1074 127.694 56.2234 127.601 56.371C127.51 56.5186 127.443 56.6904 127.397 56.8862C127.352 57.082 127.33 57.2914 127.33 57.5144ZM131.335 57.6093V57.5053C131.335 57.1528 131.386 56.8259 131.489 56.5246C131.591 56.2203 131.739 55.9567 131.931 55.7338C132.127 55.5078 132.365 55.3331 132.646 55.2095C132.929 55.083 133.248 55.0197 133.604 55.0197C133.962 55.0197 134.281 55.083 134.562 55.2095C134.845 55.3331 135.084 55.5078 135.28 55.7338C135.476 55.9567 135.625 56.2203 135.728 56.5246C135.83 56.8259 135.881 57.1528 135.881 57.5053V57.6093C135.881 57.9618 135.83 58.2887 135.728 58.59C135.625 58.8913 135.476 59.1549 135.28 59.3809C135.084 59.6038 134.846 59.7786 134.566 59.9051C134.286 60.0286 133.968 60.0904 133.613 60.0904C133.254 60.0904 132.933 60.0286 132.65 59.9051C132.37 59.7786 132.132 59.6038 131.936 59.3809C131.74 59.1549 131.591 58.8913 131.489 58.59C131.386 58.2887 131.335 57.9618 131.335 57.6093ZM132.424 57.5053V57.6093C132.424 57.8292 132.447 58.0371 132.492 58.2329C132.537 58.4288 132.608 58.6005 132.704 58.7481C132.801 58.8958 132.924 59.0118 133.075 59.0961C133.225 59.1805 133.405 59.2227 133.613 59.2227C133.815 59.2227 133.989 59.1805 134.137 59.0961C134.288 59.0118 134.411 58.8958 134.507 58.7481C134.604 58.6005 134.675 58.4288 134.72 58.2329C134.768 58.0371 134.792 57.8292 134.792 57.6093V57.5053C134.792 57.2884 134.768 57.0835 134.72 56.8907C134.675 56.6949 134.602 56.5216 134.503 56.371C134.407 56.2203 134.283 56.1028 134.132 56.0185C133.985 55.9311 133.808 55.8874 133.604 55.8874C133.399 55.8874 133.221 55.9311 133.07 56.0185C132.923 56.1028 132.801 56.2203 132.704 56.371C132.608 56.5216 132.537 56.6949 132.492 56.8907C132.447 57.0835 132.424 57.2884 132.424 57.5053ZM141.804 58.9877V53.0583H142.898V60H141.908L141.804 58.9877ZM138.623 57.6093V57.5144C138.623 57.1438 138.666 56.8064 138.754 56.5021C138.841 56.1947 138.968 55.9311 139.133 55.7112C139.299 55.4882 139.501 55.318 139.739 55.2005C139.977 55.08 140.245 55.0197 140.543 55.0197C140.839 55.0197 141.098 55.077 141.321 55.1914C141.544 55.3059 141.733 55.4701 141.89 55.6841C142.047 55.895 142.172 56.148 142.265 56.4433C142.359 56.7355 142.425 57.0609 142.464 57.4195V57.7223C142.425 58.0718 142.359 58.3911 142.265 58.6804C142.172 58.9696 142.047 59.2197 141.89 59.4306C141.733 59.6415 141.542 59.8042 141.316 59.9187C141.093 60.0331 140.833 60.0904 140.534 60.0904C140.239 60.0904 139.972 60.0286 139.734 59.9051C139.499 59.7816 139.299 59.6083 139.133 59.3854C138.968 59.1624 138.841 58.9003 138.754 58.599C138.666 58.2947 138.623 57.9648 138.623 57.6093ZM139.712 57.5144V57.6093C139.712 57.8322 139.731 58.0401 139.77 58.2329C139.813 58.4258 139.877 58.596 139.965 58.7436C140.052 58.8882 140.165 59.0027 140.304 59.0871C140.445 59.1684 140.614 59.2091 140.81 59.2091C141.057 59.2091 141.26 59.1549 141.42 59.0464C141.58 58.938 141.705 58.7918 141.795 58.6081C141.889 58.4213 141.952 58.2134 141.985 57.9844V57.1664C141.967 56.9886 141.929 56.8229 141.872 56.6693C141.818 56.5156 141.744 56.3815 141.651 56.267C141.557 56.1495 141.441 56.0592 141.303 55.9959C141.167 55.9296 141.006 55.8965 140.819 55.8965C140.62 55.8965 140.451 55.9386 140.313 56.023C140.174 56.1074 140.06 56.2234 139.969 56.371C139.882 56.5186 139.817 56.6904 139.775 56.8862C139.733 57.082 139.712 57.2914 139.712 57.5144ZM146.054 60.0904C145.692 60.0904 145.365 60.0316 145.073 59.9141C144.784 59.7936 144.537 59.6264 144.332 59.4125C144.13 59.1986 143.975 58.947 143.866 58.6578C143.758 58.3685 143.704 58.0567 143.704 57.7223V57.5415C143.704 57.1589 143.759 56.8124 143.871 56.5021C143.982 56.1917 144.137 55.9266 144.336 55.7067C144.535 55.4837 144.77 55.3135 145.041 55.196C145.312 55.0785 145.606 55.0197 145.923 55.0197C146.272 55.0197 146.578 55.0785 146.84 55.196C147.102 55.3135 147.319 55.4792 147.491 55.6931C147.665 55.904 147.795 56.1556 147.879 56.4478C147.967 56.7401 148.01 57.0624 148.01 57.415V57.8804H144.232V57.0986H146.935V57.0127C146.929 56.8169 146.89 56.6331 146.817 56.4614C146.748 56.2896 146.641 56.1511 146.496 56.0456C146.352 55.9401 146.159 55.8874 145.918 55.8874C145.737 55.8874 145.576 55.9266 145.434 56.0049C145.296 56.0802 145.18 56.1902 145.086 56.3348C144.993 56.4795 144.921 56.6542 144.87 56.8591C144.821 57.0609 144.797 57.2884 144.797 57.5415V57.7223C144.797 57.9362 144.826 58.135 144.883 58.3188C144.943 58.4996 145.031 58.6578 145.145 58.7933C145.26 58.9289 145.398 59.0359 145.561 59.1142C145.724 59.1895 145.909 59.2272 146.117 59.2272C146.379 59.2272 146.612 59.1745 146.817 59.069C147.022 58.9636 147.2 58.8144 147.351 58.6216L147.925 59.1775C147.819 59.3311 147.682 59.4788 147.513 59.6204C147.345 59.759 147.138 59.872 146.894 59.9593C146.653 60.0467 146.373 60.0904 146.054 60.0904ZM151.976 56.1044V60H150.887V55.1101H151.913L151.976 56.1044ZM151.8 57.3743L151.43 57.3698C151.43 57.0323 151.472 56.7205 151.556 56.4343C151.64 56.148 151.764 55.8995 151.927 55.6886C152.089 55.4747 152.291 55.3105 152.532 55.196C152.776 55.0785 153.058 55.0197 153.377 55.0197C153.6 55.0197 153.804 55.0529 153.988 55.1191C154.174 55.1824 154.336 55.2833 154.471 55.4219C154.61 55.5605 154.715 55.7383 154.787 55.9552C154.863 56.1721 154.9 56.4343 154.9 56.7416V60H153.811V56.8365C153.811 56.5985 153.775 56.4117 153.703 56.2761C153.634 56.1405 153.533 56.0441 153.4 55.9868C153.27 55.9266 153.115 55.8965 152.935 55.8965C152.73 55.8965 152.555 55.9356 152.41 56.014C152.269 56.0923 152.153 56.1993 152.062 56.3348C151.972 56.4704 151.906 56.6271 151.863 56.8048C151.821 56.9826 151.8 57.1724 151.8 57.3743ZM154.833 57.085L154.322 57.198C154.322 56.9028 154.363 56.6241 154.444 56.362C154.528 56.0968 154.65 55.8648 154.81 55.666C154.973 55.4641 155.173 55.3059 155.411 55.1914C155.649 55.077 155.922 55.0197 156.229 55.0197C156.479 55.0197 156.702 55.0544 156.898 55.1237C157.097 55.1899 157.266 55.2954 157.404 55.44C157.543 55.5846 157.648 55.7729 157.72 56.0049C157.793 56.2339 157.829 56.5111 157.829 56.8365V60H156.735V56.832C156.735 56.5849 156.699 56.3936 156.627 56.258C156.558 56.1224 156.458 56.029 156.329 55.9778C156.199 55.9236 156.044 55.8965 155.863 55.8965C155.694 55.8965 155.545 55.9281 155.416 55.9914C155.289 56.0516 155.182 56.1375 155.095 56.249C155.007 56.3574 154.941 56.4825 154.896 56.6241C154.854 56.7657 154.833 56.9193 154.833 57.085ZM160.967 60.0904C160.605 60.0904 160.278 60.0316 159.986 59.9141C159.697 59.7936 159.45 59.6264 159.245 59.4125C159.043 59.1986 158.888 58.947 158.779 58.6578C158.671 58.3685 158.617 58.0567 158.617 57.7223V57.5415C158.617 57.1589 158.672 56.8124 158.784 56.5021C158.895 56.1917 159.05 55.9266 159.249 55.7067C159.448 55.4837 159.683 55.3135 159.954 55.196C160.225 55.0785 160.519 55.0197 160.836 55.0197C161.185 55.0197 161.491 55.0785 161.753 55.196C162.015 55.3135 162.232 55.4792 162.404 55.6931C162.578 55.904 162.708 56.1556 162.792 56.4478C162.88 56.7401 162.923 57.0624 162.923 57.415V57.8804H159.145V57.0986H161.848V57.0127C161.842 56.8169 161.803 56.6331 161.73 56.4614C161.661 56.2896 161.554 56.1511 161.409 56.0456C161.265 55.9401 161.072 55.8874 160.831 55.8874C160.65 55.8874 160.489 55.9266 160.347 56.0049C160.209 56.0802 160.093 56.1902 159.999 56.3348C159.906 56.4795 159.834 56.6542 159.783 56.8591C159.734 57.0609 159.71 57.2884 159.71 57.5415V57.7223C159.71 57.9362 159.739 58.135 159.796 58.3188C159.856 58.4996 159.944 58.6578 160.058 58.7933C160.173 58.9289 160.311 59.0359 160.474 59.1142C160.637 59.1895 160.822 59.2272 161.03 59.2272C161.292 59.2272 161.525 59.1745 161.73 59.069C161.935 58.9636 162.113 58.8144 162.264 58.6216L162.838 59.1775C162.732 59.3311 162.595 59.4788 162.426 59.6204C162.258 59.759 162.051 59.872 161.807 59.9593C161.566 60.0467 161.286 60.0904 160.967 60.0904ZM164.723 56.1044V60H163.634V55.1101H164.66L164.723 56.1044ZM164.547 57.3743L164.177 57.3698C164.177 57.0323 164.219 56.7205 164.303 56.4343C164.387 56.148 164.511 55.8995 164.674 55.6886C164.836 55.4747 165.038 55.3105 165.279 55.196C165.523 55.0785 165.805 55.0197 166.124 55.0197C166.347 55.0197 166.551 55.0529 166.735 55.1191C166.921 55.1824 167.083 55.2833 167.218 55.4219C167.357 55.5605 167.462 55.7383 167.534 55.9552C167.61 56.1721 167.647 56.4343 167.647 56.7416V60H166.558V56.8365C166.558 56.5985 166.522 56.4117 166.45 56.2761C166.381 56.1405 166.28 56.0441 166.147 55.9868C166.017 55.9266 165.862 55.8965 165.682 55.8965C165.477 55.8965 165.302 55.9356 165.157 56.014C165.016 56.0923 164.9 56.1993 164.809 56.3348C164.719 56.4704 164.653 56.6271 164.61 56.8048C164.568 56.9826 164.547 57.1724 164.547 57.3743ZM167.58 57.085L167.069 57.198C167.069 56.9028 167.11 56.6241 167.191 56.362C167.275 56.0968 167.397 55.8648 167.557 55.666C167.72 55.4641 167.92 55.3059 168.158 55.1914C168.396 55.077 168.669 55.0197 168.976 55.0197C169.226 55.0197 169.449 55.0544 169.645 55.1237C169.844 55.1899 170.013 55.2954 170.151 55.44C170.29 55.5846 170.395 55.7729 170.467 56.0049C170.54 56.2339 170.576 56.5111 170.576 56.8365V60H169.482V56.832C169.482 56.5849 169.446 56.3936 169.374 56.258C169.305 56.1224 169.205 56.029 169.076 55.9778C168.946 55.9236 168.791 55.8965 168.61 55.8965C168.441 55.8965 168.292 55.9281 168.163 55.9914C168.036 56.0516 167.929 56.1375 167.842 56.249C167.754 56.3574 167.688 56.4825 167.643 56.6241C167.601 56.7657 167.58 56.9193 167.58 57.085ZM171.562 53.0583H172.652V58.956L172.548 60H171.562V53.0583ZM175.842 57.5099V57.6048C175.842 57.9663 175.802 58.2992 175.72 58.6035C175.642 58.9048 175.521 59.1669 175.359 59.3899C175.199 59.6128 175 59.7861 174.762 59.9096C174.527 60.0301 174.254 60.0904 173.944 60.0904C173.64 60.0904 173.375 60.0331 173.149 59.9187C172.923 59.8042 172.733 59.6415 172.579 59.4306C172.429 59.2197 172.307 58.9681 172.213 58.6758C172.12 58.3836 172.054 58.0612 172.014 57.7087V57.4059C172.054 57.0504 172.12 56.728 172.213 56.4388C172.307 56.1465 172.429 55.895 172.579 55.6841C172.733 55.4701 172.921 55.3059 173.144 55.1914C173.37 55.077 173.634 55.0197 173.935 55.0197C174.248 55.0197 174.524 55.08 174.762 55.2005C175.003 55.321 175.203 55.4927 175.363 55.7157C175.523 55.9356 175.642 56.1978 175.72 56.5021C175.802 56.8064 175.842 57.1423 175.842 57.5099ZM174.753 57.6048V57.5099C174.753 57.2899 174.735 57.0835 174.699 56.8907C174.663 56.6949 174.602 56.5231 174.518 56.3755C174.437 56.2279 174.325 56.1119 174.184 56.0275C174.045 55.9401 173.872 55.8965 173.664 55.8965C173.471 55.8965 173.305 55.9296 173.167 55.9959C173.028 56.0622 172.912 56.1526 172.819 56.267C172.725 56.3815 172.652 56.5141 172.597 56.6647C172.546 56.8154 172.511 56.9781 172.493 57.1528V57.9708C172.521 58.1968 172.578 58.4047 172.665 58.5945C172.756 58.7813 172.882 58.9319 173.045 59.0464C173.207 59.1579 173.417 59.2136 173.673 59.2136C173.875 59.2136 174.045 59.173 174.184 59.0916C174.322 59.0103 174.432 58.8973 174.514 58.7527C174.598 58.605 174.658 58.4333 174.694 58.2375C174.733 58.0416 174.753 57.8307 174.753 57.6048ZM177.719 56.0411V60H176.63V55.1101H177.669L177.719 56.0411ZM179.215 55.0785L179.206 56.0908C179.14 56.0787 179.067 56.0697 178.989 56.0637C178.914 56.0577 178.838 56.0546 178.763 56.0546C178.576 56.0546 178.412 56.0818 178.27 56.136C178.129 56.1872 178.01 56.2625 177.913 56.362C177.82 56.4584 177.748 56.5759 177.696 56.7145C177.645 56.8531 177.615 57.0082 177.606 57.1799L177.357 57.198C177.357 56.8907 177.388 56.606 177.448 56.3439C177.508 56.0818 177.598 55.8513 177.719 55.6524C177.843 55.4536 177.996 55.2984 178.18 55.1869C178.367 55.0755 178.582 55.0197 178.826 55.0197C178.892 55.0197 178.963 55.0257 179.039 55.0378C179.117 55.0498 179.176 55.0634 179.215 55.0785ZM179.433 57.6093V57.5053C179.433 57.1528 179.484 56.8259 179.587 56.5246C179.689 56.2203 179.837 55.9567 180.03 55.7338C180.225 55.5078 180.463 55.3331 180.744 55.2095C181.027 55.083 181.346 55.0197 181.702 55.0197C182.06 55.0197 182.38 55.083 182.66 55.2095C182.943 55.3331 183.183 55.5078 183.378 55.7338C183.574 55.9567 183.723 56.2203 183.826 56.5246C183.928 56.8259 183.979 57.1528 183.979 57.5053V57.6093C183.979 57.9618 183.928 58.2887 183.826 58.59C183.723 58.8913 183.574 59.1549 183.378 59.3809C183.183 59.6038 182.945 59.7786 182.664 59.9051C182.384 60.0286 182.066 60.0904 181.711 60.0904C181.352 60.0904 181.031 60.0286 180.748 59.9051C180.468 59.7786 180.23 59.6038 180.034 59.3809C179.838 59.1549 179.689 58.8913 179.587 58.59C179.484 58.2887 179.433 57.9618 179.433 57.6093ZM180.522 57.5053V57.6093C180.522 57.8292 180.545 58.0371 180.59 58.2329C180.635 58.4288 180.706 58.6005 180.802 58.7481C180.899 58.8958 181.022 59.0118 181.173 59.0961C181.324 59.1805 181.503 59.2227 181.711 59.2227C181.913 59.2227 182.087 59.1805 182.235 59.0961C182.386 59.0118 182.509 58.8958 182.606 58.7481C182.702 58.6005 182.773 58.4288 182.818 58.2329C182.866 58.0371 182.89 57.8292 182.89 57.6093V57.5053C182.89 57.2884 182.866 57.0835 182.818 56.8907C182.773 56.6949 182.701 56.5216 182.601 56.371C182.505 56.2203 182.381 56.1028 182.231 56.0185C182.083 55.9311 181.907 55.8874 181.702 55.8874C181.497 55.8874 181.319 55.9311 181.168 56.0185C181.021 56.1028 180.899 56.2203 180.802 56.371C180.706 56.5216 180.635 56.6949 180.59 56.8907C180.545 57.0835 180.522 57.2884 180.522 57.5053ZM184.767 59.4577C184.767 59.289 184.824 59.1474 184.939 59.0329C185.053 58.9154 185.209 58.8566 185.404 58.8566C185.603 58.8566 185.758 58.9154 185.87 59.0329C185.984 59.1474 186.042 59.289 186.042 59.4577C186.042 59.6264 185.984 59.768 185.87 59.8825C185.758 59.997 185.603 60.0542 185.404 60.0542C185.209 60.0542 185.053 59.997 184.939 59.8825C184.824 59.768 184.767 59.6264 184.767 59.4577ZM184.772 55.6072C184.772 55.4385 184.829 55.2969 184.943 55.1824C185.058 55.0649 185.213 55.0062 185.409 55.0062C185.608 55.0062 185.763 55.0649 185.874 55.1824C185.989 55.2969 186.046 55.4385 186.046 55.6072C186.046 55.7759 185.989 55.9176 185.874 56.032C185.763 56.1465 185.608 56.2038 185.409 56.2038C185.213 56.2038 185.058 56.1465 184.943 56.032C184.829 55.9176 184.772 55.7759 184.772 55.6072Z" fill="#2B2B2B"/>
<path d="M100.658 117.548H102.837C103.331 117.548 103.748 117.623 104.088 117.774C104.432 117.924 104.693 118.147 104.87 118.443C105.051 118.735 105.141 119.095 105.141 119.523C105.141 119.824 105.08 120.1 104.956 120.35C104.836 120.597 104.661 120.808 104.432 120.982C104.206 121.154 103.935 121.282 103.618 121.367L103.374 121.462H101.327L101.318 120.752H102.864C103.177 120.752 103.438 120.698 103.646 120.589C103.853 120.478 104.01 120.329 104.116 120.142C104.221 119.955 104.274 119.749 104.274 119.523C104.274 119.27 104.224 119.048 104.125 118.858C104.025 118.669 103.869 118.522 103.655 118.42C103.444 118.315 103.171 118.262 102.837 118.262H101.531V124.128H100.658V117.548ZM104.504 124.128L102.904 121.145L103.813 121.141L105.435 124.074V124.128H104.504ZM108.264 124.218C107.924 124.218 107.615 124.161 107.338 124.047C107.064 123.929 106.827 123.765 106.628 123.554C106.432 123.343 106.282 123.093 106.176 122.804C106.071 122.515 106.018 122.198 106.018 121.855V121.665C106.018 121.267 106.077 120.913 106.194 120.603C106.312 120.29 106.472 120.024 106.674 119.807C106.875 119.591 107.104 119.426 107.36 119.315C107.617 119.203 107.882 119.148 108.156 119.148C108.505 119.148 108.807 119.208 109.06 119.328C109.316 119.449 109.525 119.618 109.688 119.835C109.851 120.048 109.971 120.302 110.049 120.594C110.128 120.883 110.167 121.199 110.167 121.543V121.918H106.515V121.236H109.331V121.172C109.319 120.955 109.274 120.744 109.195 120.54C109.12 120.335 108.999 120.166 108.834 120.033C108.668 119.901 108.442 119.835 108.156 119.835C107.966 119.835 107.791 119.875 107.632 119.957C107.472 120.035 107.335 120.152 107.22 120.309C107.106 120.466 107.017 120.657 106.954 120.883C106.89 121.109 106.859 121.37 106.859 121.665V121.855C106.859 122.087 106.89 122.305 106.954 122.51C107.02 122.712 107.115 122.89 107.238 123.043C107.365 123.197 107.517 123.317 107.695 123.405C107.876 123.492 108.081 123.536 108.309 123.536C108.605 123.536 108.855 123.476 109.06 123.355C109.265 123.235 109.444 123.073 109.597 122.872L110.104 123.274C109.998 123.433 109.864 123.586 109.701 123.73C109.539 123.875 109.338 123.992 109.1 124.083C108.865 124.173 108.587 124.218 108.264 124.218ZM114.311 119.238H115.07V124.024C115.07 124.455 114.983 124.822 114.808 125.127C114.634 125.431 114.389 125.661 114.076 125.818C113.766 125.978 113.407 126.058 113.001 126.058C112.832 126.058 112.633 126.031 112.404 125.976C112.178 125.925 111.955 125.836 111.735 125.71C111.518 125.586 111.336 125.419 111.188 125.208L111.627 124.711C111.832 124.958 112.045 125.13 112.268 125.226C112.494 125.323 112.717 125.371 112.937 125.371C113.202 125.371 113.431 125.321 113.624 125.222C113.817 125.122 113.966 124.975 114.072 124.779C114.18 124.586 114.234 124.348 114.234 124.065V120.314L114.311 119.238ZM110.944 121.737V121.642C110.944 121.269 110.988 120.93 111.075 120.625C111.166 120.318 111.294 120.055 111.459 119.835C111.628 119.615 111.832 119.446 112.07 119.328C112.308 119.208 112.576 119.148 112.874 119.148C113.181 119.148 113.449 119.202 113.678 119.31C113.91 119.416 114.106 119.571 114.266 119.776C114.429 119.978 114.557 120.222 114.65 120.508C114.743 120.794 114.808 121.118 114.844 121.48V121.895C114.811 122.254 114.747 122.576 114.65 122.863C114.557 123.149 114.429 123.393 114.266 123.595C114.106 123.797 113.91 123.952 113.678 124.06C113.446 124.166 113.175 124.218 112.865 124.218C112.573 124.218 112.308 124.157 112.07 124.033C111.835 123.909 111.633 123.736 111.464 123.513C111.295 123.29 111.166 123.028 111.075 122.727C110.988 122.423 110.944 122.093 110.944 121.737ZM111.78 121.642V121.737C111.78 121.981 111.804 122.21 111.853 122.424C111.904 122.638 111.981 122.826 112.083 122.989C112.189 123.152 112.323 123.28 112.485 123.373C112.648 123.464 112.842 123.509 113.068 123.509C113.346 123.509 113.574 123.45 113.755 123.333C113.936 123.215 114.079 123.06 114.185 122.867C114.293 122.674 114.377 122.465 114.438 122.239V121.15C114.405 120.984 114.353 120.824 114.284 120.671C114.218 120.514 114.13 120.375 114.022 120.255C113.916 120.131 113.785 120.033 113.629 119.961C113.472 119.889 113.288 119.853 113.077 119.853C112.848 119.853 112.651 119.901 112.485 119.997C112.323 120.091 112.189 120.22 112.083 120.386C111.981 120.549 111.904 120.738 111.853 120.955C111.804 121.169 111.78 121.398 111.78 121.642ZM119.332 122.998V119.238H120.173V124.128H119.373L119.332 122.998ZM119.49 121.968L119.838 121.959C119.838 122.284 119.804 122.585 119.734 122.863C119.668 123.137 119.56 123.375 119.409 123.577C119.258 123.778 119.061 123.937 118.817 124.051C118.573 124.163 118.276 124.218 117.927 124.218C117.689 124.218 117.47 124.184 117.271 124.114C117.075 124.045 116.907 123.938 116.765 123.794C116.624 123.649 116.514 123.461 116.435 123.229C116.36 122.997 116.322 122.718 116.322 122.393V119.238H117.158V122.402C117.158 122.621 117.182 122.804 117.231 122.948C117.282 123.09 117.35 123.203 117.434 123.287C117.521 123.369 117.618 123.426 117.723 123.459C117.832 123.492 117.943 123.509 118.058 123.509C118.413 123.509 118.695 123.441 118.903 123.305C119.111 123.167 119.26 122.982 119.35 122.75C119.444 122.515 119.49 122.254 119.49 121.968ZM122.356 117.186V124.128H121.515V117.186H122.356ZM126.581 123.292V120.775C126.581 120.582 126.542 120.415 126.464 120.273C126.388 120.128 126.274 120.017 126.12 119.939C125.966 119.86 125.777 119.821 125.551 119.821C125.34 119.821 125.154 119.857 124.995 119.929C124.838 120.002 124.715 120.097 124.624 120.214C124.537 120.332 124.493 120.458 124.493 120.594H123.657C123.657 120.419 123.702 120.246 123.793 120.074C123.883 119.902 124.013 119.747 124.181 119.609C124.353 119.467 124.558 119.356 124.796 119.274C125.037 119.19 125.305 119.148 125.6 119.148C125.956 119.148 126.269 119.208 126.54 119.328C126.815 119.449 127.028 119.631 127.182 119.875C127.339 120.116 127.417 120.419 127.417 120.784V123.061C127.417 123.224 127.431 123.397 127.458 123.581C127.488 123.765 127.532 123.923 127.589 124.056V124.128H126.717C126.674 124.032 126.641 123.903 126.617 123.744C126.593 123.581 126.581 123.43 126.581 123.292ZM126.726 121.163L126.735 121.751H125.89C125.652 121.751 125.439 121.77 125.252 121.81C125.066 121.846 124.909 121.901 124.782 121.977C124.656 122.052 124.559 122.147 124.493 122.261C124.427 122.373 124.394 122.504 124.394 122.655C124.394 122.808 124.428 122.948 124.498 123.075C124.567 123.201 124.671 123.302 124.81 123.378C124.951 123.45 125.124 123.486 125.329 123.486C125.585 123.486 125.811 123.432 126.007 123.323C126.203 123.215 126.358 123.082 126.473 122.926C126.59 122.769 126.653 122.617 126.662 122.469L127.019 122.872C126.998 122.998 126.941 123.138 126.848 123.292C126.754 123.446 126.629 123.593 126.473 123.735C126.319 123.873 126.135 123.989 125.921 124.083C125.71 124.173 125.472 124.218 125.207 124.218C124.876 124.218 124.585 124.154 124.335 124.024C124.088 123.894 123.895 123.721 123.757 123.504C123.621 123.284 123.553 123.039 123.553 122.768C123.553 122.505 123.604 122.275 123.707 122.076C123.809 121.874 123.957 121.707 124.15 121.575C124.343 121.439 124.575 121.336 124.846 121.267C125.117 121.198 125.42 121.163 125.754 121.163H126.726ZM129.564 120.21V124.128H128.723V119.238H129.519L129.564 120.21ZM129.392 121.498L129.003 121.484C129.006 121.15 129.05 120.841 129.134 120.558C129.219 120.271 129.344 120.023 129.51 119.812C129.675 119.601 129.882 119.438 130.129 119.324C130.376 119.206 130.662 119.148 130.987 119.148C131.216 119.148 131.427 119.181 131.62 119.247C131.813 119.31 131.98 119.411 132.122 119.55C132.263 119.688 132.373 119.866 132.452 120.083C132.53 120.3 132.569 120.562 132.569 120.87V124.128H131.733V120.91C131.733 120.654 131.689 120.449 131.602 120.296C131.518 120.142 131.397 120.03 131.24 119.961C131.084 119.889 130.9 119.853 130.689 119.853C130.442 119.853 130.236 119.896 130.07 119.984C129.904 120.071 129.772 120.192 129.672 120.345C129.573 120.499 129.501 120.675 129.455 120.874C129.413 121.07 129.392 121.278 129.392 121.498ZM132.56 121.037L132 121.208C132.003 120.94 132.046 120.683 132.131 120.436C132.218 120.189 132.343 119.969 132.506 119.776C132.672 119.583 132.875 119.431 133.116 119.319C133.357 119.205 133.633 119.148 133.943 119.148C134.205 119.148 134.437 119.182 134.639 119.252C134.844 119.321 135.016 119.428 135.154 119.572C135.296 119.714 135.403 119.896 135.475 120.119C135.547 120.342 135.584 120.607 135.584 120.915V124.128H134.743V120.906C134.743 120.631 134.699 120.419 134.612 120.268C134.528 120.115 134.407 120.008 134.25 119.948C134.097 119.884 133.913 119.853 133.699 119.853C133.515 119.853 133.353 119.884 133.211 119.948C133.069 120.011 132.95 120.098 132.854 120.21C132.757 120.318 132.684 120.443 132.632 120.585C132.584 120.726 132.56 120.877 132.56 121.037ZM138.878 124.218C138.538 124.218 138.229 124.161 137.952 124.047C137.678 123.929 137.441 123.765 137.242 123.554C137.046 123.343 136.896 123.093 136.79 122.804C136.685 122.515 136.632 122.198 136.632 121.855V121.665C136.632 121.267 136.691 120.913 136.808 120.603C136.926 120.29 137.085 120.024 137.287 119.807C137.489 119.591 137.718 119.426 137.974 119.315C138.23 119.203 138.496 119.148 138.77 119.148C139.119 119.148 139.42 119.208 139.674 119.328C139.93 119.449 140.139 119.618 140.302 119.835C140.464 120.048 140.585 120.302 140.663 120.594C140.742 120.883 140.781 121.199 140.781 121.543V121.918H137.129V121.236H139.945V121.172C139.933 120.955 139.887 120.744 139.809 120.54C139.734 120.335 139.613 120.166 139.448 120.033C139.282 119.901 139.056 119.835 138.77 119.835C138.58 119.835 138.405 119.875 138.245 119.957C138.086 120.035 137.949 120.152 137.834 120.309C137.72 120.466 137.631 120.657 137.568 120.883C137.504 121.109 137.473 121.37 137.473 121.665V121.855C137.473 122.087 137.504 122.305 137.568 122.51C137.634 122.712 137.729 122.89 137.852 123.043C137.979 123.197 138.131 123.317 138.309 123.405C138.489 123.492 138.694 123.536 138.923 123.536C139.219 123.536 139.469 123.476 139.674 123.355C139.878 123.235 140.058 123.073 140.211 122.872L140.717 123.274C140.612 123.433 140.478 123.586 140.315 123.73C140.153 123.875 139.952 123.992 139.714 124.083C139.479 124.173 139.201 124.218 138.878 124.218ZM142.593 120.282V124.128H141.757V119.238H142.548L142.593 120.282ZM142.394 121.498L142.046 121.484C142.049 121.15 142.099 120.841 142.195 120.558C142.292 120.271 142.427 120.023 142.602 119.812C142.777 119.601 142.985 119.438 143.226 119.324C143.47 119.206 143.739 119.148 144.035 119.148C144.276 119.148 144.493 119.181 144.685 119.247C144.878 119.31 145.042 119.413 145.178 119.554C145.317 119.696 145.422 119.88 145.494 120.106C145.567 120.329 145.603 120.601 145.603 120.924V124.128H144.762V120.915C144.762 120.659 144.725 120.454 144.649 120.3C144.574 120.143 144.464 120.03 144.319 119.961C144.175 119.889 143.997 119.853 143.786 119.853C143.578 119.853 143.388 119.896 143.217 119.984C143.048 120.071 142.902 120.192 142.778 120.345C142.658 120.499 142.563 120.675 142.494 120.874C142.427 121.07 142.394 121.278 142.394 121.498ZM148.92 119.238V119.88H146.276V119.238H148.92ZM147.171 118.049H148.007V122.917C148.007 123.082 148.033 123.207 148.084 123.292C148.135 123.376 148.201 123.432 148.283 123.459C148.364 123.486 148.452 123.5 148.545 123.5C148.614 123.5 148.687 123.494 148.762 123.482C148.84 123.467 148.899 123.455 148.938 123.446L148.943 124.128C148.876 124.149 148.789 124.169 148.681 124.187C148.575 124.208 148.447 124.218 148.296 124.218C148.092 124.218 147.903 124.178 147.731 124.096C147.56 124.015 147.423 123.879 147.32 123.69C147.221 123.497 147.171 123.238 147.171 122.912V118.049ZM149.589 121.737V121.633C149.589 121.281 149.64 120.954 149.743 120.653C149.845 120.348 149.993 120.085 150.185 119.862C150.378 119.636 150.612 119.461 150.886 119.337C151.16 119.211 151.467 119.148 151.808 119.148C152.151 119.148 152.46 119.211 152.734 119.337C153.012 119.461 153.247 119.636 153.439 119.862C153.635 120.085 153.784 120.348 153.887 120.653C153.989 120.954 154.04 121.281 154.04 121.633V121.737C154.04 122.09 153.989 122.417 153.887 122.718C153.784 123.019 153.635 123.283 153.439 123.509C153.247 123.732 153.013 123.906 152.739 124.033C152.468 124.157 152.16 124.218 151.817 124.218C151.473 124.218 151.165 124.157 150.89 124.033C150.616 123.906 150.381 123.732 150.185 123.509C149.993 123.283 149.845 123.019 149.743 122.718C149.64 122.417 149.589 122.09 149.589 121.737ZM150.425 121.633V121.737C150.425 121.981 150.454 122.212 150.511 122.429C150.568 122.643 150.654 122.832 150.768 122.998C150.886 123.164 151.032 123.295 151.207 123.391C151.382 123.485 151.585 123.531 151.817 123.531C152.046 123.531 152.246 123.485 152.418 123.391C152.593 123.295 152.737 123.164 152.852 122.998C152.966 122.832 153.052 122.643 153.109 122.429C153.17 122.212 153.2 121.981 153.2 121.737V121.633C153.2 121.392 153.17 121.165 153.109 120.951C153.052 120.734 152.965 120.543 152.847 120.377C152.733 120.208 152.588 120.076 152.413 119.979C152.242 119.883 152.04 119.835 151.808 119.835C151.579 119.835 151.377 119.883 151.202 119.979C151.031 120.076 150.886 120.208 150.768 120.377C150.654 120.543 150.568 120.734 150.511 120.951C150.454 121.165 150.425 121.392 150.425 121.633Z" fill="#2B2B2B"/>
<rect x="20.8916" y="66.5366" width="212.217" height="29.75" rx="14.875" fill="white"/>
<path d="M91.2446 90.1221V75.062L91.9639 75.8262H87.5358V74.3876H92.863V90.1221H91.2446ZM97.4559 90.1221V74.3876H104.244C105.997 74.3876 107.354 74.7398 108.313 75.4441C109.287 76.1484 109.774 77.1449 109.774 78.4336C109.774 79.2878 109.571 80.0071 109.167 80.5915C108.777 81.1759 108.238 81.618 107.548 81.9177C106.874 82.2174 106.132 82.3672 105.323 82.3672L105.705 81.8278C106.709 81.8278 107.571 81.9851 108.29 82.2998C109.024 82.5995 109.594 83.0566 109.998 83.6709C110.403 84.2704 110.605 85.0196 110.605 85.9187C110.605 87.2524 110.111 88.2864 109.122 89.0207C108.148 89.7549 106.672 90.1221 104.694 90.1221H97.4559ZM99.1192 88.7509H104.671C106.05 88.7509 107.106 88.5187 107.841 88.0541C108.575 87.5746 108.942 86.8178 108.942 85.7839C108.942 84.7649 108.575 84.0231 107.841 83.5586C107.106 83.079 106.05 82.8393 104.671 82.8393H98.9394V81.4681H104.132C105.391 81.4681 106.365 81.2284 107.054 80.7488C107.758 80.2693 108.11 79.5575 108.11 78.6134C108.11 77.6544 107.758 76.9426 107.054 76.4781C106.365 75.9985 105.391 75.7588 104.132 75.7588H99.1192V88.7509ZM112.154 90.1221V88.9757L118.695 82.5695C119.295 81.9851 119.744 81.4756 120.044 81.041C120.344 80.5915 120.546 80.1719 120.651 79.7823C120.756 79.3927 120.808 79.0255 120.808 78.6809C120.808 77.7668 120.493 77.0475 119.864 76.523C119.25 75.9985 118.336 75.7363 117.122 75.7363C116.193 75.7363 115.369 75.8787 114.649 76.1634C113.945 76.4481 113.338 76.8902 112.829 77.4896L111.682 76.5005C112.297 75.7812 113.083 75.2268 114.042 74.8372C115.001 74.4476 116.073 74.2528 117.257 74.2528C118.321 74.2528 119.242 74.4251 120.021 74.7697C120.801 75.0994 121.4 75.5864 121.82 76.2308C122.254 76.8752 122.472 77.6319 122.472 78.5011C122.472 79.0106 122.397 79.5126 122.247 80.0071C122.112 80.5016 121.857 81.0261 121.483 81.5805C121.123 82.12 120.591 82.7344 119.887 83.4237L113.885 89.3129L113.435 88.6835H123.191V90.1221H112.154ZM132.887 90.2569C131.703 90.2569 130.609 90.0621 129.605 89.6725C128.601 89.2679 127.732 88.706 126.998 87.9867C126.263 87.2674 125.686 86.4207 125.267 85.4467C124.862 84.4727 124.66 83.4087 124.66 82.2548C124.66 81.101 124.862 80.037 125.267 79.063C125.686 78.089 126.263 77.2423 126.998 76.523C127.747 75.8037 128.624 75.2493 129.628 74.8597C130.632 74.4551 131.725 74.2528 132.909 74.2528C134.048 74.2528 135.12 74.4476 136.124 74.8372C137.128 75.2118 137.974 75.7812 138.664 76.5455L137.607 77.6019C136.963 76.9426 136.251 76.4706 135.472 76.1858C134.693 75.8861 133.853 75.7363 132.954 75.7363C132.01 75.7363 131.134 75.9011 130.324 76.2308C129.515 76.5455 128.811 77.0025 128.211 77.6019C127.612 78.1864 127.14 78.8757 126.795 79.6699C126.466 80.4491 126.301 81.3108 126.301 82.2548C126.301 83.1989 126.466 84.0681 126.795 84.8623C127.14 85.6415 127.612 86.3308 128.211 86.9302C128.811 87.5146 129.515 87.9717 130.324 88.3014C131.134 88.6161 132.01 88.7734 132.954 88.7734C133.853 88.7734 134.693 88.6236 135.472 88.3238C136.251 88.0241 136.963 87.5446 137.607 86.8853L138.664 87.9417C137.974 88.706 137.128 89.2829 136.124 89.6725C135.12 90.0621 134.041 90.2569 132.887 90.2569ZM144.908 90.2569C143.769 90.2569 142.69 90.0771 141.671 89.7175C140.667 89.3428 139.858 88.8483 139.243 88.2339L140.03 86.9527C140.54 87.4772 141.222 87.9118 142.076 88.2564C142.945 88.6011 143.889 88.7734 144.908 88.7734C146.212 88.7734 147.208 88.4887 147.897 87.9192C148.602 87.3498 148.954 86.5856 148.954 85.6265C148.954 84.6675 148.609 83.9032 147.92 83.3338C147.246 82.7643 146.174 82.4796 144.706 82.4796H143.582V81.2883L148.437 75.1968L148.662 75.8262H139.895V74.3876H150.01V75.534L145.155 81.6255L144.368 81.1085H144.975C146.863 81.1085 148.272 81.5281 149.201 82.3672C150.145 83.2064 150.617 84.2853 150.617 85.604C150.617 86.4882 150.407 87.2824 149.988 87.9867C149.568 88.691 148.931 89.2454 148.077 89.65C147.238 90.0546 146.182 90.2569 144.908 90.2569ZM157.983 90.1221L151.015 74.3876H152.813L159.332 89.2005H158.343L164.906 74.3876H166.592L159.624 90.1221H157.983Z" fill="#8C8C8C"/>
<g clip-path="url(#clip0_7121_41320)">
<path d="M213.936 81.3286H208.73C208.091 81.3286 207.573 81.8466 207.573 82.4856V87.6918C207.573 88.3308 208.091 88.8488 208.73 88.8488H213.936C214.575 88.8488 215.093 88.3308 215.093 87.6918V82.4856C215.093 81.8466 214.575 81.3286 213.936 81.3286Z" stroke="#3CAD2B" stroke-width="1.98333" stroke-linecap="round" stroke-linejoin="round"/>
<path d="M205.259 84.7994H204.68C204.374 84.7994 204.079 84.6775 203.862 84.4606C203.645 84.2436 203.523 83.9493 203.523 83.6425V78.4362C203.523 78.1294 203.645 77.8351 203.862 77.6182C204.079 77.4012 204.374 77.2793 204.68 77.2793H209.887C210.193 77.2793 210.488 77.4012 210.705 77.6182C210.922 77.8351 211.044 78.1294 211.044 78.4362V79.0147" stroke="#3CAD2B" stroke-width="1.98333" stroke-linecap="round" stroke-linejoin="round"/>
</g>
<rect x="20.8916" y="66.5366" width="212.217" height="29.75" rx="14.875" stroke="#C6C6C6" stroke-width="0.661111"/>
</g>
<defs>
<filter id="filter0_d_7121_41320" x="0" y="0" width="254" height="178" filterUnits="userSpaceOnUse" color-interpolation-filters="sRGB">
<feFlood flood-opacity="0" result="BackgroundImageFix"/>
<feColorMatrix in="SourceAlpha" type="matrix" values="0 0 0 0 0 0 0 0 0 0 0 0 0 0 0 0 0 0 127 0" result="hardAlpha"/>
<feOffset/>
<feGaussianBlur stdDeviation="4"/>
<feComposite in2="hardAlpha" operator="out"/>
<feColorMatrix type="matrix" values="0 0 0 0 0 0 0 0 0 0 0 0 0 0 0 0 0 0 0.25 0"/>
<feBlend mode="normal" in2="BackgroundImageFix" result="effect1_dropShadow_7121_41320"/>
<feBlend mode="normal" in="SourceGraphic" in2="effect1_dropShadow_7121_41320" result="shape"/>
</filter>
<clipPath id="clip0_7121_41320">
<rect width="13.8833" height="13.8833" fill="white" transform="translate(202.367 76.1221)"/>
</clipPath>
</defs>
</svg>
