<svg width="248" height="211" viewBox="0 0 248 211" fill="none" xmlns="http://www.w3.org/2000/svg">
<g filter="url(#filter0_d_7121_40683)">
<rect x="4.5" y="3.9187" width="239" height="56.7625" rx="7.46875" fill="white"/>
<path d="M23.1719 25.578C23.1719 22.6906 25.5126 20.3499 28.4 20.3499C31.2874 20.3499 33.6281 22.6906 33.6281 25.578C33.6281 28.4654 31.2874 30.8061 28.4 30.8061C25.5126 30.8061 23.1719 28.4654 23.1719 25.578Z" fill="url(#paint0_linear_7121_40683)"/>
<path d="M19.4375 41.2624C19.4375 36.3125 23.4501 32.2999 28.4 32.2999C33.3499 32.2999 37.3625 36.3125 37.3625 41.2624V41.5943C37.3625 43.0609 36.1736 44.2499 34.7069 44.2499H22.0931C20.6264 44.2499 19.4375 43.0609 19.4375 41.5943V41.2624Z" fill="url(#paint1_linear_7121_40683)"/>
<path d="M47.5172 35.7998V28.4804H50.2567C50.8771 28.4804 51.4104 28.5815 51.8566 28.7837C52.3027 28.9788 52.6443 29.2646 52.8813 29.6411C53.1252 30.0105 53.2472 30.4601 53.2472 30.9899C53.2472 31.5058 53.1252 31.9519 52.8813 32.3283C52.6443 32.6978 52.3027 32.9836 51.8566 33.1857C51.4104 33.3879 50.8771 33.489 50.2567 33.489H47.9459L48.291 33.123V35.7998H47.5172ZM48.291 33.1857L47.9459 32.8093H50.2358C50.9678 32.8093 51.522 32.6525 51.8984 32.3388C52.2818 32.0181 52.4735 31.5685 52.4735 30.9899C52.4735 30.4044 52.2818 29.9513 51.8984 29.6306C51.522 29.31 50.9678 29.1496 50.2358 29.1496H47.9459L48.291 28.7837V33.1857ZM58.1525 35.7998V34.5869L58.1212 34.3882V32.3597C58.1212 31.8927 57.9887 31.5337 57.7238 31.2827C57.4659 31.0318 57.079 30.9063 56.5632 30.9063C56.2077 30.9063 55.8696 30.9655 55.5489 31.084C55.2283 31.2025 54.9564 31.3594 54.7333 31.5546L54.3987 31.0004C54.6776 30.7634 55.0122 30.5821 55.4025 30.4567C55.7929 30.3242 56.2042 30.258 56.6364 30.258C57.3474 30.258 57.8946 30.4357 58.278 30.7913C58.6684 31.1398 58.8635 31.6731 58.8635 32.3911V35.7998H58.1525ZM56.2599 35.8521C55.8487 35.8521 55.4897 35.7859 55.1829 35.6534C54.8832 35.514 54.6532 35.3258 54.4928 35.0888C54.3325 34.8448 54.2523 34.566 54.2523 34.2523C54.2523 33.9665 54.3186 33.7086 54.451 33.4785C54.5904 33.2415 54.8135 33.0533 55.1202 32.9139C55.4339 32.7675 55.8521 32.6943 56.375 32.6943H58.2675V33.2485H56.3959C55.8661 33.2485 55.4966 33.3426 55.2875 33.5308C55.0854 33.719 54.9843 33.9525 54.9843 34.2314C54.9843 34.5451 55.1063 34.796 55.3502 34.9842C55.5942 35.1724 55.9358 35.2665 56.375 35.2665C56.7932 35.2665 57.1522 35.1724 57.452 34.9842C57.7587 34.789 57.9817 34.5102 58.1212 34.1477L58.2885 34.6601C58.149 35.0226 57.9051 35.3118 57.5565 35.5279C57.2149 35.744 56.7828 35.8521 56.2599 35.8521ZM60.88 35.7998V30.3103H61.591V31.8055L61.5178 31.5441C61.6712 31.1259 61.9291 30.8087 62.2916 30.5926C62.654 30.3695 63.1037 30.258 63.6404 30.258V30.9795C63.6125 30.9795 63.5847 30.9795 63.5568 30.9795C63.5289 30.9725 63.501 30.969 63.4731 30.969C62.8945 30.969 62.4414 31.1468 62.1138 31.5023C61.7862 31.8508 61.6224 32.3492 61.6224 32.9975V35.7998H60.88ZM68.0267 35.7998V34.5869L67.9954 34.3882V32.3597C67.9954 31.8927 67.8629 31.5337 67.598 31.2827C67.3401 31.0318 66.9532 30.9063 66.4374 30.9063C66.0819 30.9063 65.7438 30.9655 65.4231 31.084C65.1025 31.2025 64.8306 31.3594 64.6075 31.5546L64.2729 31.0004C64.5518 30.7634 64.8864 30.5821 65.2767 30.4567C65.6671 30.3242 66.0784 30.258 66.5106 30.258C67.2216 30.258 67.7688 30.4357 68.1522 30.7913C68.5426 31.1398 68.7378 31.6731 68.7378 32.3911V35.7998H68.0267ZM66.1342 35.8521C65.7229 35.8521 65.3639 35.7859 65.0572 35.6534C64.7574 35.514 64.5274 35.3258 64.367 35.0888C64.2067 34.8448 64.1266 34.566 64.1266 34.2523C64.1266 33.9665 64.1928 33.7086 64.3252 33.4785C64.4646 33.2415 64.6877 33.0533 64.9944 32.9139C65.3081 32.7675 65.7264 32.6943 66.2492 32.6943H68.1418V33.2485H66.2701C65.7403 33.2485 65.3708 33.3426 65.1617 33.5308C64.9596 33.719 64.8585 33.9525 64.8585 34.2314C64.8585 34.5451 64.9805 34.796 65.2245 34.9842C65.4684 35.1724 65.81 35.2665 66.2492 35.2665C66.6674 35.2665 67.0264 35.1724 67.3262 34.9842C67.6329 34.789 67.8559 34.5102 67.9954 34.1477L68.1627 34.6601C68.0232 35.0226 67.7793 35.3118 67.4307 35.5279C67.0892 35.744 66.657 35.8521 66.1342 35.8521ZM74.9024 35.7998L72.4661 30.3103H73.2398L75.4775 35.4025H75.1115L77.3805 30.3103H78.1124L75.6657 35.7998H74.9024ZM81.2425 35.8521C80.7127 35.8521 80.2352 35.7336 79.8099 35.4966C79.3917 35.2526 79.0606 34.9215 78.8166 34.5032C78.5726 34.078 78.4506 33.5935 78.4506 33.0498C78.4506 32.4991 78.5726 32.0146 78.8166 31.5964C79.0606 31.1781 79.3917 30.8505 79.8099 30.6135C80.2282 30.3765 80.7057 30.258 81.2425 30.258C81.7862 30.258 82.2672 30.3765 82.6854 30.6135C83.1106 30.8505 83.4418 31.1781 83.6788 31.5964C83.9227 32.0146 84.0447 32.4991 84.0447 33.0498C84.0447 33.5935 83.9227 34.078 83.6788 34.5032C83.4418 34.9215 83.1106 35.2526 82.6854 35.4966C82.2602 35.7336 81.7792 35.8521 81.2425 35.8521ZM81.2425 35.1933C81.6398 35.1933 81.9918 35.1062 82.2985 34.9319C82.6053 34.7507 82.8457 34.4997 83.02 34.1791C83.2013 33.8515 83.2919 33.475 83.2919 33.0498C83.2919 32.6176 83.2013 32.2412 83.02 31.9205C82.8457 31.5999 82.6053 31.3524 82.2985 31.1781C81.9918 30.9969 81.6433 30.9063 81.2529 30.9063C80.8625 30.9063 80.514 30.9969 80.2073 31.1781C79.9006 31.3524 79.6566 31.5999 79.4753 31.9205C79.2941 32.2412 79.2035 32.6176 79.2035 33.0498C79.2035 33.475 79.2941 33.8515 79.4753 34.1791C79.6566 34.4997 79.9006 34.7507 80.2073 34.9319C80.514 35.1062 80.8591 35.1933 81.2425 35.1933ZM87.8399 35.8521C87.2961 35.8521 86.8082 35.7336 86.376 35.4966C85.9508 35.2526 85.6162 34.9215 85.3722 34.5032C85.1282 34.078 85.0062 33.5935 85.0062 33.0498C85.0062 32.4991 85.1282 32.0146 85.3722 31.5964C85.6162 31.1781 85.9508 30.8505 86.376 30.6135C86.8082 30.3765 87.2961 30.258 87.8399 30.258C88.3069 30.258 88.7286 30.3486 89.1051 30.5299C89.4815 30.7111 89.7777 30.983 89.9938 31.3454L89.4397 31.7219C89.2515 31.443 89.0179 31.2374 88.7391 31.1049C88.4603 30.9725 88.157 30.9063 87.8294 30.9063C87.439 30.9063 87.087 30.9969 86.7733 31.1781C86.4596 31.3524 86.2122 31.5999 86.0309 31.9205C85.8497 32.2412 85.7591 32.6176 85.7591 33.0498C85.7591 33.482 85.8497 33.8584 86.0309 34.1791C86.2122 34.4997 86.4596 34.7507 86.7733 34.9319C87.087 35.1062 87.439 35.1933 87.8294 35.1933C88.157 35.1933 88.4603 35.1271 88.7391 34.9947C89.0179 34.8622 89.2515 34.6601 89.4397 34.3882L89.9938 34.7646C89.7777 35.1201 89.4815 35.392 89.1051 35.5802C88.7286 35.7615 88.3069 35.8521 87.8399 35.8521ZM93.6921 35.8521C93.1205 35.8521 92.6186 35.7336 92.1864 35.4966C91.7542 35.2526 91.4161 34.9215 91.1721 34.5032C90.9282 34.078 90.8062 33.5935 90.8062 33.0498C90.8062 32.5061 90.9212 32.0251 91.1512 31.6068C91.3882 31.1886 91.7089 30.861 92.1132 30.624C92.5245 30.38 92.9845 30.258 93.4934 30.258C94.0093 30.258 94.4659 30.3765 94.8632 30.6135C95.2675 30.8435 95.5847 31.1712 95.8147 31.5964C96.0447 32.0146 96.1598 32.4991 96.1598 33.0498C96.1598 33.0847 96.1563 33.123 96.1493 33.1648C96.1493 33.1997 96.1493 33.238 96.1493 33.2798H91.3708V32.7257H95.752L95.4592 32.9452C95.4592 32.5479 95.3721 32.1959 95.1978 31.8892C95.0305 31.5755 94.8005 31.3315 94.5077 31.1572C94.2149 30.983 93.8768 30.8958 93.4934 30.8958C93.117 30.8958 92.7789 30.983 92.4792 31.1572C92.1794 31.3315 91.9459 31.5755 91.7786 31.8892C91.6113 32.2029 91.5276 32.5619 91.5276 32.9662V33.0812C91.5276 33.4994 91.6183 33.8689 91.7995 34.1895C91.9877 34.5032 92.2456 34.7507 92.5733 34.9319C92.9079 35.1062 93.2878 35.1933 93.713 35.1933C94.0476 35.1933 94.3578 35.1341 94.6436 35.0156C94.9364 34.8971 95.1873 34.7158 95.3965 34.4719L95.8147 34.9528C95.5707 35.2456 95.264 35.4687 94.8946 35.622C94.5321 35.7754 94.1313 35.8521 93.6921 35.8521ZM91.7577 29.4529L93.1065 28.1563H93.8594L95.2082 29.4529H94.5181L93.1902 28.3445H93.7757L92.4478 29.4529H91.7577Z" fill="black"/>
</g>
<g filter="url(#filter1_d_7121_40683)">
<rect x="4.5" y="75.6184" width="239" height="56.7625" rx="7.46875" fill="white"/>
<path fill-rule="evenodd" clip-rule="evenodd" d="M21.6783 92.0503C20.8533 92.0503 20.1846 92.7191 20.1846 93.544V114.457H36.6158V93.544C36.6158 92.7191 35.947 92.0503 35.1221 92.0503H21.6783ZM23.919 95.038C23.5065 95.038 23.1721 95.3724 23.1721 95.7849V98.0255C23.1721 98.438 23.5065 98.7724 23.919 98.7724H26.9065C27.319 98.7724 27.6534 98.438 27.6534 98.0255V95.7849C27.6534 95.3724 27.319 95.038 26.9065 95.038H23.919ZM29.1471 95.7849C29.1471 95.3724 29.4815 95.038 29.894 95.038H32.8815C33.294 95.038 33.6284 95.3724 33.6284 95.7849V98.0255C33.6284 98.438 33.294 98.7724 32.8815 98.7724H29.894C29.4815 98.7724 29.1471 98.438 29.1471 98.0255V95.7849ZM23.919 100.266C23.5065 100.266 23.1721 100.601 23.1721 101.013V103.254C23.1721 103.666 23.5065 104 23.919 104H26.9065C27.319 104 27.6534 103.666 27.6534 103.254V101.013C27.6534 100.601 27.319 100.266 26.9065 100.266H23.919ZM29.1471 101.013C29.1471 100.601 29.4815 100.266 29.894 100.266H32.8815C33.294 100.266 33.6284 100.601 33.6284 101.013V103.254C33.6284 103.666 33.294 104 32.8815 104H29.894C29.4815 104 29.1471 103.666 29.1471 103.254V101.013ZM23.919 105.494C23.5065 105.494 23.1721 105.829 23.1721 106.241V108.482C23.1721 108.894 23.5065 109.229 23.919 109.229H26.9065C27.319 109.229 27.6534 108.894 27.6534 108.482V106.241C27.6534 105.829 27.319 105.494 26.9065 105.494H23.919ZM29.1471 106.241C29.1471 105.829 29.4815 105.494 29.894 105.494H32.8815C33.294 105.494 33.6284 105.829 33.6284 106.241V108.482C33.6284 108.894 33.294 109.229 32.8815 109.229H29.894C29.4815 109.229 29.1471 108.894 29.1471 108.482V106.241ZM27.6534 109.975C27.2409 109.975 26.9065 110.31 26.9065 110.722V113.71H29.894V110.722C29.894 110.31 29.5596 109.975 29.1471 109.975H27.6534Z" fill="url(#paint2_linear_7121_40683)"/>
<path d="M17.9438 115.95C17.9438 114.484 19.1328 113.295 20.5994 113.295H36.2008C37.6674 113.295 38.8563 114.484 38.8563 115.95H17.9438Z" fill="#0a5888"/>
<path d="M47.5172 107.5V100.18H50.2567C50.8771 100.18 51.4104 100.281 51.8566 100.484C52.3027 100.679 52.6443 100.965 52.8813 101.341C53.1252 101.71 53.2472 102.16 53.2472 102.69C53.2472 103.206 53.1252 103.652 52.8813 104.028C52.6443 104.398 52.3027 104.684 51.8566 104.886C51.4104 105.088 50.8771 105.189 50.2567 105.189H47.9459L48.291 104.823V107.5H47.5172ZM48.291 104.886L47.9459 104.509H50.2358C50.9678 104.509 51.522 104.352 51.8984 104.039C52.2818 103.718 52.4735 103.268 52.4735 102.69C52.4735 102.104 52.2818 101.651 51.8984 101.331C51.522 101.01 50.9678 100.85 50.2358 100.85H47.9459L48.291 100.484V104.886ZM58.1525 107.5V106.287L58.1212 106.088V104.06C58.1212 103.593 57.9887 103.234 57.7238 102.983C57.4659 102.732 57.079 102.606 56.5632 102.606C56.2077 102.606 55.8696 102.665 55.5489 102.784C55.2283 102.902 54.9564 103.059 54.7333 103.255L54.3987 102.7C54.6776 102.463 55.0122 102.282 55.4025 102.157C55.7929 102.024 56.2042 101.958 56.6364 101.958C57.3474 101.958 57.8946 102.136 58.278 102.491C58.6684 102.84 58.8635 103.373 58.8635 104.091V107.5H58.1525ZM56.2599 107.552C55.8487 107.552 55.4897 107.486 55.1829 107.353C54.8832 107.214 54.6532 107.026 54.4928 106.789C54.3325 106.545 54.2523 106.266 54.2523 105.952C54.2523 105.666 54.3186 105.409 54.451 105.178C54.5904 104.941 54.8135 104.753 55.1202 104.614C55.4339 104.467 55.8521 104.394 56.375 104.394H58.2675V104.948H56.3959C55.8661 104.948 55.4966 105.043 55.2875 105.231C55.0854 105.419 54.9843 105.652 54.9843 105.931C54.9843 106.245 55.1063 106.496 55.3502 106.684C55.5942 106.872 55.9358 106.966 56.375 106.966C56.7932 106.966 57.1522 106.872 57.452 106.684C57.7587 106.489 57.9817 106.21 58.1212 105.848L58.2885 106.36C58.149 106.723 57.9051 107.012 57.5565 107.228C57.2149 107.444 56.7828 107.552 56.2599 107.552ZM60.88 107.5V102.01H61.591V103.505L61.5178 103.244C61.6712 102.826 61.9291 102.509 62.2916 102.293C62.654 102.069 63.1037 101.958 63.6404 101.958V102.679C63.6125 102.679 63.5847 102.679 63.5568 102.679C63.5289 102.672 63.501 102.669 63.4731 102.669C62.8945 102.669 62.4414 102.847 62.1138 103.202C61.7862 103.551 61.6224 104.049 61.6224 104.697V107.5H60.88ZM68.0267 107.5V106.287L67.9954 106.088V104.06C67.9954 103.593 67.8629 103.234 67.598 102.983C67.3401 102.732 66.9532 102.606 66.4374 102.606C66.0819 102.606 65.7438 102.665 65.4231 102.784C65.1025 102.902 64.8306 103.059 64.6075 103.255L64.2729 102.7C64.5518 102.463 64.8864 102.282 65.2767 102.157C65.6671 102.024 66.0784 101.958 66.5106 101.958C67.2216 101.958 67.7688 102.136 68.1522 102.491C68.5426 102.84 68.7378 103.373 68.7378 104.091V107.5H68.0267ZM66.1342 107.552C65.7229 107.552 65.3639 107.486 65.0572 107.353C64.7574 107.214 64.5274 107.026 64.367 106.789C64.2067 106.545 64.1266 106.266 64.1266 105.952C64.1266 105.666 64.1928 105.409 64.3252 105.178C64.4646 104.941 64.6877 104.753 64.9944 104.614C65.3081 104.467 65.7264 104.394 66.2492 104.394H68.1418V104.948H66.2701C65.7403 104.948 65.3708 105.043 65.1617 105.231C64.9596 105.419 64.8585 105.652 64.8585 105.931C64.8585 106.245 64.9805 106.496 65.2245 106.684C65.4684 106.872 65.81 106.966 66.2492 106.966C66.6674 106.966 67.0264 106.872 67.3262 106.684C67.6329 106.489 67.8559 106.21 67.9954 105.848L68.1627 106.36C68.0232 106.723 67.7793 107.012 67.4307 107.228C67.0892 107.444 66.657 107.552 66.1342 107.552ZM74.9651 107.552C74.512 107.552 74.0833 107.489 73.679 107.364C73.2747 107.231 72.9575 107.068 72.7275 106.872L73.0621 106.287C73.2851 106.454 73.5709 106.601 73.9195 106.726C74.268 106.844 74.634 106.904 75.0174 106.904C75.5402 106.904 75.9166 106.824 76.1467 106.663C76.3767 106.496 76.4917 106.276 76.4917 106.005C76.4917 105.802 76.4255 105.646 76.2931 105.534C76.1676 105.415 76.0003 105.328 75.7912 105.273C75.582 105.21 75.3485 105.158 75.0906 105.116C74.8327 105.074 74.5747 105.025 74.3168 104.969C74.0659 104.914 73.8358 104.833 73.6267 104.729C73.4176 104.617 73.2468 104.467 73.1144 104.279C72.9889 104.091 72.9261 103.84 72.9261 103.526C72.9261 103.227 73.0098 102.958 73.1771 102.721C73.3444 102.484 73.5884 102.3 73.909 102.167C74.2367 102.028 74.634 101.958 75.101 101.958C75.4566 101.958 75.8121 102.007 76.1676 102.104C76.5231 102.195 76.8159 102.317 77.0459 102.47L76.7218 103.066C76.4778 102.899 76.2164 102.781 75.9375 102.711C75.6587 102.634 75.3799 102.596 75.101 102.596C74.6061 102.596 74.2401 102.683 74.0031 102.857C73.7731 103.024 73.6581 103.241 73.6581 103.505C73.6581 103.715 73.7208 103.878 73.8463 103.997C73.9787 104.115 74.1495 104.21 74.3586 104.279C74.5747 104.342 74.8083 104.394 75.0592 104.436C75.3171 104.478 75.5716 104.53 75.8225 104.593C76.0804 104.649 76.314 104.729 76.5231 104.833C76.7392 104.931 76.91 105.074 77.0354 105.262C77.1679 105.443 77.2341 105.684 77.2341 105.984C77.2341 106.304 77.1435 106.583 76.9623 106.82C76.788 107.05 76.5301 107.231 76.1885 107.364C75.8539 107.489 75.4461 107.552 74.9651 107.552ZM80.8654 107.552C80.3983 107.552 79.9905 107.465 79.642 107.291C79.2935 107.116 79.0216 106.855 78.8264 106.506C78.6382 106.158 78.5441 105.722 78.5441 105.199V102.01H79.2865V105.116C79.2865 105.701 79.4294 106.144 79.7152 106.444C80.008 106.736 80.4158 106.883 80.9386 106.883C81.322 106.883 81.6531 106.806 81.9319 106.653C82.2177 106.492 82.4338 106.262 82.5802 105.963C82.7336 105.663 82.8102 105.304 82.8102 104.886V102.01H83.5526V107.5H82.8416V105.994L82.9566 106.266C82.7824 106.67 82.5105 106.987 82.141 107.217C81.7786 107.441 81.3533 107.552 80.8654 107.552ZM89.0618 107.5V106.287L89.0304 106.088V104.06C89.0304 103.593 88.898 103.234 88.6331 102.983C88.3751 102.732 87.9883 102.606 87.4724 102.606C87.1169 102.606 86.7788 102.665 86.4582 102.784C86.1375 102.902 85.8656 103.059 85.6426 103.255L85.308 102.7C85.5868 102.463 85.9214 102.282 86.3118 102.157C86.7021 102.024 87.1134 101.958 87.5456 101.958C88.2566 101.958 88.8038 102.136 89.1872 102.491C89.5776 102.84 89.7728 103.373 89.7728 104.091V107.5H89.0618ZM87.1692 107.552C86.7579 107.552 86.3989 107.486 86.0922 107.353C85.7924 107.214 85.5624 107.026 85.4021 106.789C85.2418 106.545 85.1616 106.266 85.1616 105.952C85.1616 105.666 85.2278 105.409 85.3603 105.178C85.4997 104.941 85.7227 104.753 86.0295 104.614C86.3431 104.467 86.7614 104.394 87.2842 104.394H89.1768V104.948H87.3051C86.7753 104.948 86.4059 105.043 86.1968 105.231C85.9946 105.419 85.8935 105.652 85.8935 105.931C85.8935 106.245 86.0155 106.496 86.2595 106.684C86.5035 106.872 86.845 106.966 87.2842 106.966C87.7025 106.966 88.0615 106.872 88.3612 106.684C88.6679 106.489 88.891 106.21 89.0304 105.848L89.1977 106.36C89.0583 106.723 88.8143 107.012 88.4658 107.228C88.1242 107.444 87.692 107.552 87.1692 107.552ZM95.3728 103.453H99.2416V104.112H95.3728V103.453ZM95.4564 106.831H99.8585V107.5H94.6827V100.18H99.7017V100.85H95.4564V106.831ZM108.38 101.958C108.826 101.958 109.213 102.045 109.54 102.219C109.875 102.387 110.133 102.645 110.314 102.993C110.502 103.342 110.596 103.781 110.596 104.311V107.5H109.854V104.384C109.854 103.805 109.715 103.37 109.436 103.077C109.164 102.777 108.777 102.627 108.275 102.627C107.899 102.627 107.571 102.707 107.292 102.868C107.02 103.021 106.808 103.248 106.654 103.547C106.508 103.84 106.435 104.196 106.435 104.614V107.5H105.693V104.384C105.693 103.805 105.553 103.37 105.274 103.077C104.995 102.777 104.605 102.627 104.103 102.627C103.734 102.627 103.41 102.707 103.131 102.868C102.852 103.021 102.636 103.248 102.482 103.547C102.336 103.84 102.263 104.196 102.263 104.614V107.5H101.52V102.01H102.231V103.495L102.116 103.234C102.284 102.836 102.552 102.526 102.922 102.303C103.298 102.073 103.741 101.958 104.25 101.958C104.786 101.958 105.243 102.094 105.619 102.366C105.996 102.631 106.24 103.031 106.351 103.568L106.058 103.453C106.219 103.007 106.501 102.648 106.905 102.376C107.317 102.097 107.808 101.958 108.38 101.958ZM115.443 107.552C114.969 107.552 114.541 107.444 114.157 107.228C113.774 107.005 113.467 106.688 113.237 106.276C113.014 105.858 112.903 105.349 112.903 104.75C112.903 104.15 113.014 103.645 113.237 103.234C113.46 102.815 113.763 102.498 114.147 102.282C114.53 102.066 114.962 101.958 115.443 101.958C115.966 101.958 116.433 102.076 116.845 102.313C117.263 102.543 117.59 102.871 117.827 103.296C118.064 103.715 118.183 104.199 118.183 104.75C118.183 105.307 118.064 105.795 117.827 106.214C117.59 106.632 117.263 106.96 116.845 107.197C116.433 107.434 115.966 107.552 115.443 107.552ZM112.61 109.528V102.01H113.321V103.662L113.248 104.76L113.352 105.869V109.528H112.61ZM115.391 106.893C115.782 106.893 116.13 106.806 116.437 106.632C116.744 106.451 116.987 106.2 117.169 105.879C117.35 105.551 117.441 105.175 117.441 104.75C117.441 104.325 117.35 103.952 117.169 103.631C116.987 103.31 116.744 103.059 116.437 102.878C116.13 102.697 115.782 102.606 115.391 102.606C115.001 102.606 114.649 102.697 114.335 102.878C114.028 103.059 113.784 103.31 113.603 103.631C113.429 103.952 113.342 104.325 113.342 104.75C113.342 105.175 113.429 105.551 113.603 105.879C113.784 106.2 114.028 106.451 114.335 106.632C114.649 106.806 115.001 106.893 115.391 106.893ZM119.696 107.5V102.01H120.407V103.505L120.334 103.244C120.488 102.826 120.745 102.509 121.108 102.293C121.47 102.069 121.92 101.958 122.457 101.958V102.679C122.429 102.679 122.401 102.679 122.373 102.679C122.345 102.672 122.317 102.669 122.29 102.669C121.711 102.669 121.258 102.847 120.93 103.202C120.603 103.551 120.439 104.049 120.439 104.697V107.5H119.696ZM126.092 107.552C125.521 107.552 125.019 107.434 124.586 107.197C124.154 106.953 123.816 106.621 123.572 106.203C123.328 105.778 123.206 105.293 123.206 104.75C123.206 104.206 123.321 103.725 123.551 103.307C123.788 102.889 124.109 102.561 124.513 102.324C124.925 102.08 125.385 101.958 125.894 101.958C126.409 101.958 126.866 102.076 127.263 102.313C127.668 102.543 127.985 102.871 128.215 103.296C128.445 103.715 128.56 104.199 128.56 104.75C128.56 104.785 128.556 104.823 128.549 104.865C128.549 104.9 128.549 104.938 128.549 104.98H123.771V104.426H128.152L127.859 104.645C127.859 104.248 127.772 103.896 127.598 103.589C127.431 103.275 127.201 103.031 126.908 102.857C126.615 102.683 126.277 102.596 125.894 102.596C125.517 102.596 125.179 102.683 124.879 102.857C124.579 103.031 124.346 103.275 124.179 103.589C124.011 103.903 123.928 104.262 123.928 104.666V104.781C123.928 105.199 124.018 105.569 124.2 105.889C124.388 106.203 124.646 106.451 124.973 106.632C125.308 106.806 125.688 106.893 126.113 106.893C126.448 106.893 126.758 106.834 127.044 106.716C127.336 106.597 127.587 106.416 127.797 106.172L128.215 106.653C127.971 106.946 127.664 107.169 127.295 107.322C126.932 107.475 126.531 107.552 126.092 107.552ZM131.545 107.552C131.092 107.552 130.663 107.489 130.259 107.364C129.855 107.231 129.538 107.068 129.308 106.872L129.642 106.287C129.865 106.454 130.151 106.601 130.5 106.726C130.848 106.844 131.214 106.904 131.598 106.904C132.12 106.904 132.497 106.824 132.727 106.663C132.957 106.496 133.072 106.276 133.072 106.005C133.072 105.802 133.006 105.646 132.873 105.534C132.748 105.415 132.58 105.328 132.371 105.273C132.162 105.21 131.929 105.158 131.671 105.116C131.413 105.074 131.155 105.025 130.897 104.969C130.646 104.914 130.416 104.833 130.207 104.729C129.998 104.617 129.827 104.467 129.695 104.279C129.569 104.091 129.506 103.84 129.506 103.526C129.506 103.227 129.59 102.958 129.757 102.721C129.925 102.484 130.169 102.3 130.489 102.167C130.817 102.028 131.214 101.958 131.681 101.958C132.037 101.958 132.392 102.007 132.748 102.104C133.103 102.195 133.396 102.317 133.626 102.47L133.302 103.066C133.058 102.899 132.797 102.781 132.518 102.711C132.239 102.634 131.96 102.596 131.681 102.596C131.186 102.596 130.82 102.683 130.583 102.857C130.353 103.024 130.238 103.241 130.238 103.505C130.238 103.715 130.301 103.878 130.426 103.997C130.559 104.115 130.73 104.21 130.939 104.279C131.155 104.342 131.388 104.394 131.639 104.436C131.897 104.478 132.152 104.53 132.403 104.593C132.661 104.649 132.894 104.729 133.103 104.833C133.319 104.931 133.49 105.074 133.616 105.262C133.748 105.443 133.814 105.684 133.814 105.984C133.814 106.304 133.724 106.583 133.542 106.82C133.368 107.05 133.11 107.231 132.769 107.364C132.434 107.489 132.026 107.552 131.545 107.552ZM138.617 107.5V106.287L138.585 106.088V104.06C138.585 103.593 138.453 103.234 138.188 102.983C137.93 102.732 137.543 102.606 137.027 102.606C136.672 102.606 136.334 102.665 136.013 102.784C135.692 102.902 135.421 103.059 135.197 103.255L134.863 102.7C135.142 102.463 135.476 102.282 135.867 102.157C136.257 102.024 136.668 101.958 137.1 101.958C137.812 101.958 138.359 102.136 138.742 102.491C139.132 102.84 139.328 103.373 139.328 104.091V107.5H138.617ZM136.724 107.552C136.313 107.552 135.954 107.486 135.647 107.353C135.347 107.214 135.117 107.026 134.957 106.789C134.797 106.545 134.716 106.266 134.716 105.952C134.716 105.666 134.783 105.409 134.915 105.178C135.055 104.941 135.278 104.753 135.584 104.614C135.898 104.467 136.316 104.394 136.839 104.394H138.732V104.948H136.86C136.33 104.948 135.961 105.043 135.752 105.231C135.549 105.419 135.448 105.652 135.448 105.931C135.448 106.245 135.57 106.496 135.814 106.684C136.058 106.872 136.4 106.966 136.839 106.966C137.257 106.966 137.616 106.872 137.916 106.684C138.223 106.489 138.446 106.21 138.585 105.848L138.753 106.36C138.613 106.723 138.369 107.012 138.021 107.228C137.679 107.444 137.247 107.552 136.724 107.552Z" fill="black"/>
</g>
<g filter="url(#filter2_d_7121_40683)">
<rect x="4.5" y="147.319" width="239" height="56.7625" rx="7.46875" fill="white"/>
<path d="M29.3364 174.764L22.2959 181.804" stroke="url(#paint3_linear_7121_40683)" stroke-width="1.49375" stroke-linecap="round" stroke-linejoin="round"/>
<path fill-rule="evenodd" clip-rule="evenodd" d="M23.0554 176.695L19.6068 175.88C19.2274 175.79 19.094 175.319 19.3688 175.044L22.1113 172.301C22.2956 172.117 22.5455 172.011 22.8074 172.009L25.8995 171.982" fill="url(#paint4_linear_7121_40683)"/>
<path fill-rule="evenodd" clip-rule="evenodd" d="M36.2462 172.687L37.0508 168.816C37.2699 167.762 36.3378 166.83 35.2842 167.049L31.4124 167.854C30.2722 168.091 29.2266 168.655 28.404 169.479L25.2273 172.655C24.0154 173.867 23.2267 175.438 22.9777 177.134L22.9668 177.207C22.8094 178.289 23.1719 179.381 23.9447 180.155C24.7174 180.928 25.8109 181.29 26.8933 181.132L26.966 181.121C28.6619 180.873 30.2334 180.084 31.4453 178.872L34.621 175.696C35.4446 174.873 36.0092 173.828 36.2462 172.687Z" fill="#0a5888"/>
<path fill-rule="evenodd" clip-rule="evenodd" d="M27.4043 181.045L28.2189 184.493C28.3085 184.873 28.7795 185.006 29.0554 184.731L31.7979 181.989C31.9821 181.804 32.0877 181.554 32.0897 181.293L32.1166 178.2" fill="url(#paint5_linear_7121_40683)"/>
<path d="M47.5172 179.2V171.88H50.2567C50.8771 171.88 51.4104 171.981 51.8566 172.184C52.3027 172.379 52.6443 172.665 52.8813 173.041C53.1252 173.41 53.2472 173.86 53.2472 174.39C53.2472 174.906 53.1252 175.352 52.8813 175.728C52.6443 176.098 52.3027 176.383 51.8566 176.586C51.4104 176.788 50.8771 176.889 50.2567 176.889H47.9459L48.291 176.523V179.2H47.5172ZM48.291 176.586L47.9459 176.209H50.2358C50.9678 176.209 51.522 176.052 51.8984 175.739C52.2818 175.418 52.4735 174.968 52.4735 174.39C52.4735 173.804 52.2818 173.351 51.8984 173.031C51.522 172.71 50.9678 172.55 50.2358 172.55H47.9459L48.291 172.184V176.586ZM58.1525 179.2V177.987L58.1212 177.788V175.76C58.1212 175.293 57.9887 174.934 57.7238 174.683C57.4659 174.432 57.079 174.306 56.5632 174.306C56.2077 174.306 55.8696 174.365 55.5489 174.484C55.2283 174.602 54.9564 174.759 54.7333 174.954L54.3987 174.4C54.6776 174.163 55.0122 173.982 55.4025 173.857C55.7929 173.724 56.2042 173.658 56.6364 173.658C57.3474 173.658 57.8946 173.836 58.278 174.191C58.6684 174.54 58.8635 175.073 58.8635 175.791V179.2H58.1525ZM56.2599 179.252C55.8487 179.252 55.4897 179.186 55.1829 179.053C54.8832 178.914 54.6532 178.726 54.4928 178.489C54.3325 178.245 54.2523 177.966 54.2523 177.652C54.2523 177.366 54.3186 177.108 54.451 176.878C54.5904 176.641 54.8135 176.453 55.1202 176.314C55.4339 176.167 55.8521 176.094 56.375 176.094H58.2675V176.648H56.3959C55.8661 176.648 55.4966 176.742 55.2875 176.931C55.0854 177.119 54.9843 177.352 54.9843 177.631C54.9843 177.945 55.1063 178.196 55.3502 178.384C55.5942 178.572 55.9358 178.666 56.375 178.666C56.7932 178.666 57.1522 178.572 57.452 178.384C57.7587 178.189 57.9817 177.91 58.1212 177.548L58.2885 178.06C58.149 178.422 57.9051 178.712 57.5565 178.928C57.2149 179.144 56.7828 179.252 56.2599 179.252ZM60.88 179.2V173.71H61.591V175.205L61.5178 174.944C61.6712 174.526 61.9291 174.209 62.2916 173.992C62.654 173.769 63.1037 173.658 63.6404 173.658V174.379C63.6125 174.379 63.5847 174.379 63.5568 174.379C63.5289 174.372 63.501 174.369 63.4731 174.369C62.8945 174.369 62.4414 174.547 62.1138 174.902C61.7862 175.251 61.6224 175.749 61.6224 176.397V179.2H60.88ZM68.0267 179.2V177.987L67.9954 177.788V175.76C67.9954 175.293 67.8629 174.934 67.598 174.683C67.3401 174.432 66.9532 174.306 66.4374 174.306C66.0819 174.306 65.7438 174.365 65.4231 174.484C65.1025 174.602 64.8306 174.759 64.6075 174.954L64.2729 174.4C64.5518 174.163 64.8864 173.982 65.2767 173.857C65.6671 173.724 66.0784 173.658 66.5106 173.658C67.2216 173.658 67.7688 173.836 68.1522 174.191C68.5426 174.54 68.7378 175.073 68.7378 175.791V179.2H68.0267ZM66.1342 179.252C65.7229 179.252 65.3639 179.186 65.0572 179.053C64.7574 178.914 64.5274 178.726 64.367 178.489C64.2067 178.245 64.1266 177.966 64.1266 177.652C64.1266 177.366 64.1928 177.108 64.3252 176.878C64.4646 176.641 64.6877 176.453 64.9944 176.314C65.3081 176.167 65.7264 176.094 66.2492 176.094H68.1418V176.648H66.2701C65.7403 176.648 65.3708 176.742 65.1617 176.931C64.9596 177.119 64.8585 177.352 64.8585 177.631C64.8585 177.945 64.9805 178.196 65.2245 178.384C65.4684 178.572 65.81 178.666 66.2492 178.666C66.6674 178.666 67.0264 178.572 67.3262 178.384C67.6329 178.189 67.8559 177.91 67.9954 177.548L68.1627 178.06C68.0232 178.422 67.7793 178.712 67.4307 178.928C67.0892 179.144 66.657 179.252 66.1342 179.252ZM74.9651 179.252C74.512 179.252 74.0833 179.189 73.679 179.064C73.2747 178.931 72.9575 178.768 72.7275 178.572L73.0621 177.987C73.2851 178.154 73.5709 178.3 73.9195 178.426C74.268 178.544 74.634 178.604 75.0174 178.604C75.5402 178.604 75.9166 178.524 76.1467 178.363C76.3767 178.196 76.4917 177.976 76.4917 177.704C76.4917 177.502 76.4255 177.345 76.2931 177.234C76.1676 177.115 76.0003 177.028 75.7912 176.973C75.582 176.91 75.3485 176.858 75.0906 176.816C74.8327 176.774 74.5747 176.725 74.3168 176.669C74.0659 176.614 73.8358 176.533 73.6267 176.429C73.4176 176.317 73.2468 176.167 73.1144 175.979C72.9889 175.791 72.9261 175.54 72.9261 175.226C72.9261 174.927 73.0098 174.658 73.1771 174.421C73.3444 174.184 73.5884 173.999 73.909 173.867C74.2367 173.728 74.634 173.658 75.101 173.658C75.4566 173.658 75.8121 173.707 76.1676 173.804C76.5231 173.895 76.8159 174.017 77.0459 174.17L76.7218 174.766C76.4778 174.599 76.2164 174.48 75.9375 174.411C75.6587 174.334 75.3799 174.296 75.101 174.296C74.6061 174.296 74.2401 174.383 74.0031 174.557C73.7731 174.724 73.6581 174.941 73.6581 175.205C73.6581 175.415 73.7208 175.578 73.8463 175.697C73.9787 175.815 74.1495 175.909 74.3586 175.979C74.5747 176.042 74.8083 176.094 75.0592 176.136C75.3171 176.178 75.5716 176.23 75.8225 176.293C76.0804 176.349 76.314 176.429 76.5231 176.533C76.7392 176.631 76.91 176.774 77.0354 176.962C77.1679 177.143 77.2341 177.384 77.2341 177.684C77.2341 178.004 77.1435 178.283 76.9623 178.52C76.788 178.75 76.5301 178.931 76.1885 179.064C75.8539 179.189 75.4461 179.252 74.9651 179.252ZM80.8654 179.252C80.3983 179.252 79.9905 179.165 79.642 178.991C79.2935 178.816 79.0216 178.555 78.8264 178.206C78.6382 177.858 78.5441 177.422 78.5441 176.899V173.71H79.2865V176.816C79.2865 177.401 79.4294 177.844 79.7152 178.144C80.008 178.436 80.4158 178.583 80.9386 178.583C81.322 178.583 81.6531 178.506 81.9319 178.353C82.2177 178.192 82.4338 177.962 82.5802 177.663C82.7336 177.363 82.8102 177.004 82.8102 176.586V173.71H83.5526V179.2H82.8416V177.694L82.9566 177.966C82.7824 178.37 82.5105 178.687 82.141 178.917C81.7786 179.14 81.3533 179.252 80.8654 179.252ZM89.0618 179.2V177.987L89.0304 177.788V175.76C89.0304 175.293 88.898 174.934 88.6331 174.683C88.3751 174.432 87.9883 174.306 87.4724 174.306C87.1169 174.306 86.7788 174.365 86.4582 174.484C86.1375 174.602 85.8656 174.759 85.6426 174.954L85.308 174.4C85.5868 174.163 85.9214 173.982 86.3118 173.857C86.7021 173.724 87.1134 173.658 87.5456 173.658C88.2566 173.658 88.8038 173.836 89.1872 174.191C89.5776 174.54 89.7728 175.073 89.7728 175.791V179.2H89.0618ZM87.1692 179.252C86.7579 179.252 86.3989 179.186 86.0922 179.053C85.7924 178.914 85.5624 178.726 85.4021 178.489C85.2418 178.245 85.1616 177.966 85.1616 177.652C85.1616 177.366 85.2278 177.108 85.3603 176.878C85.4997 176.641 85.7227 176.453 86.0295 176.314C86.3431 176.167 86.7614 176.094 87.2842 176.094H89.1768V176.648H87.3051C86.7753 176.648 86.4059 176.742 86.1968 176.931C85.9946 177.119 85.8935 177.352 85.8935 177.631C85.8935 177.945 86.0155 178.196 86.2595 178.384C86.5035 178.572 86.845 178.666 87.2842 178.666C87.7025 178.666 88.0615 178.572 88.3612 178.384C88.6679 178.189 88.891 177.91 89.0304 177.548L89.1977 178.06C89.0583 178.422 88.8143 178.712 88.4658 178.928C88.1242 179.144 87.692 179.252 87.1692 179.252ZM96.0001 179.252C95.547 179.252 95.1183 179.189 94.714 179.064C94.3097 178.931 93.9925 178.768 93.7625 178.572L94.0971 177.987C94.3202 178.154 94.606 178.3 94.9545 178.426C95.3031 178.544 95.669 178.604 96.0524 178.604C96.5752 178.604 96.9517 178.524 97.1817 178.363C97.4117 178.196 97.5268 177.976 97.5268 177.704C97.5268 177.502 97.4605 177.345 97.3281 177.234C97.2026 177.115 97.0353 177.028 96.8262 176.973C96.6171 176.91 96.3835 176.858 96.1256 176.816C95.8677 176.774 95.6098 176.725 95.3519 176.669C95.1009 176.614 94.8709 176.533 94.6617 176.429C94.4526 176.317 94.2818 176.167 94.1494 175.979C94.0239 175.791 93.9612 175.54 93.9612 175.226C93.9612 174.927 94.0448 174.658 94.2121 174.421C94.3794 174.184 94.6234 173.999 94.9441 173.867C95.2717 173.728 95.669 173.658 96.1361 173.658C96.4916 173.658 96.8471 173.707 97.2026 173.804C97.5581 173.895 97.8509 174.017 98.0809 174.17L97.7568 174.766C97.5128 174.599 97.2514 174.48 96.9726 174.411C96.6937 174.334 96.4149 174.296 96.1361 174.296C95.6411 174.296 95.2752 174.383 95.0382 174.557C94.8081 174.724 94.6931 174.941 94.6931 175.205C94.6931 175.415 94.7558 175.578 94.8813 175.697C95.0138 175.815 95.1846 175.909 95.3937 175.979C95.6098 176.042 95.8433 176.094 96.0942 176.136C96.3522 176.178 96.6066 176.23 96.8576 176.293C97.1155 176.349 97.349 176.429 97.5581 176.533C97.7742 176.631 97.945 176.774 98.0705 176.962C98.2029 177.143 98.2691 177.384 98.2691 177.684C98.2691 178.004 98.1785 178.283 97.9973 178.52C97.823 178.75 97.5651 178.931 97.2235 179.064C96.8889 179.189 96.4811 179.252 96.0001 179.252ZM101.367 179.252C100.851 179.252 100.454 179.113 100.175 178.834C99.8963 178.555 99.7569 178.161 99.7569 177.652V172.497H100.499V177.61C100.499 177.931 100.579 178.178 100.74 178.353C100.907 178.527 101.144 178.614 101.451 178.614C101.778 178.614 102.05 178.52 102.266 178.332L102.528 178.865C102.381 178.998 102.204 179.095 101.995 179.158C101.792 179.221 101.583 179.252 101.367 179.252ZM98.774 174.327V173.71H102.172V174.327H98.774ZM107.319 179.2V177.987L107.288 177.788V175.76C107.288 175.293 107.156 174.934 106.891 174.683C106.633 174.432 106.246 174.306 105.73 174.306C105.374 174.306 105.036 174.365 104.716 174.484C104.395 174.602 104.123 174.759 103.9 174.954L103.566 174.4C103.844 174.163 104.179 173.982 104.569 173.857C104.96 173.724 105.371 173.658 105.803 173.658C106.514 173.658 107.061 173.836 107.445 174.191C107.835 174.54 108.03 175.073 108.03 175.791V179.2H107.319ZM105.427 179.252C105.016 179.252 104.657 179.186 104.35 179.053C104.05 178.914 103.82 178.726 103.66 178.489C103.499 178.245 103.419 177.966 103.419 177.652C103.419 177.366 103.485 177.108 103.618 176.878C103.757 176.641 103.98 176.453 104.287 176.314C104.601 176.167 105.019 176.094 105.542 176.094H107.434V176.648H105.563C105.033 176.648 104.663 176.742 104.454 176.931C104.252 177.119 104.151 177.352 104.151 177.631C104.151 177.945 104.273 178.196 104.517 178.384C104.761 178.572 105.103 178.666 105.542 178.666C105.96 178.666 106.319 178.572 106.619 178.384C106.926 178.189 107.149 177.91 107.288 177.548L107.455 178.06C107.316 178.422 107.072 178.712 106.723 178.928C106.382 179.144 105.95 179.252 105.427 179.252ZM110.047 179.2V173.71H110.758V175.205L110.685 174.944C110.838 174.526 111.096 174.209 111.458 173.992C111.821 173.769 112.271 173.658 112.807 173.658V174.379C112.779 174.379 112.751 174.379 112.724 174.379C112.696 174.372 112.668 174.369 112.64 174.369C112.061 174.369 111.608 174.547 111.281 174.902C110.953 175.251 110.789 175.749 110.789 176.397V179.2H110.047ZM116.133 179.252C115.617 179.252 115.219 179.113 114.94 178.834C114.662 178.555 114.522 178.161 114.522 177.652V172.497H115.265V177.61C115.265 177.931 115.345 178.178 115.505 178.353C115.672 178.527 115.909 178.614 116.216 178.614C116.544 178.614 116.816 178.52 117.032 178.332L117.293 178.865C117.147 178.998 116.969 179.095 116.76 179.158C116.558 179.221 116.349 179.252 116.133 179.252ZM113.539 174.327V173.71H116.938V174.327H113.539ZM120.914 179.252C120.447 179.252 120.039 179.165 119.69 178.991C119.342 178.816 119.07 178.555 118.875 178.206C118.686 177.858 118.592 177.422 118.592 176.899V173.71H119.335V176.816C119.335 177.401 119.478 177.844 119.763 178.144C120.056 178.436 120.464 178.583 120.987 178.583C121.37 178.583 121.701 178.506 121.98 178.353C122.266 178.192 122.482 177.962 122.628 177.663C122.782 177.363 122.858 177.004 122.858 176.586V173.71H123.601V179.2H122.89V177.694L123.005 177.966C122.831 178.37 122.559 178.687 122.189 178.917C121.827 179.14 121.402 179.252 120.914 179.252ZM128.504 179.252C128.03 179.252 127.601 179.144 127.217 178.928C126.834 178.705 126.527 178.388 126.297 177.976C126.074 177.558 125.963 177.049 125.963 176.45C125.963 175.85 126.074 175.345 126.297 174.934C126.52 174.515 126.824 174.198 127.207 173.982C127.59 173.766 128.023 173.658 128.504 173.658C129.026 173.658 129.493 173.776 129.905 174.013C130.323 174.243 130.651 174.571 130.888 174.996C131.125 175.415 131.243 175.899 131.243 176.45C131.243 177.007 131.125 177.495 130.888 177.914C130.651 178.332 130.323 178.659 129.905 178.896C129.493 179.133 129.026 179.252 128.504 179.252ZM125.67 181.228V173.71H126.381V175.362L126.308 176.46L126.412 177.569V181.228H125.67ZM128.451 178.593C128.842 178.593 129.19 178.506 129.497 178.332C129.804 178.151 130.048 177.9 130.229 177.579C130.41 177.251 130.501 176.875 130.501 176.45C130.501 176.024 130.41 175.652 130.229 175.331C130.048 175.01 129.804 174.759 129.497 174.578C129.19 174.397 128.842 174.306 128.451 174.306C128.061 174.306 127.709 174.397 127.395 174.578C127.088 174.759 126.845 175.01 126.663 175.331C126.489 175.652 126.402 176.024 126.402 176.45C126.402 176.875 126.489 177.251 126.663 177.579C126.845 177.9 127.088 178.151 127.395 178.332C127.709 178.506 128.061 178.593 128.451 178.593Z" fill="black"/>
</g>
<defs>
<filter id="filter0_d_7121_40683" x="0.0187502" y="0.931201" width="247.962" height="65.725" filterUnits="userSpaceOnUse" color-interpolation-filters="sRGB">
<feFlood flood-opacity="0" result="BackgroundImageFix"/>
<feColorMatrix in="SourceAlpha" type="matrix" values="0 0 0 0 0 0 0 0 0 0 0 0 0 0 0 0 0 0 127 0" result="hardAlpha"/>
<feOffset dy="1.49375"/>
<feGaussianBlur stdDeviation="2.24062"/>
<feColorMatrix type="matrix" values="0 0 0 0 0 0 0 0 0 0 0 0 0 0 0 0 0 0 0.2 0"/>
<feBlend mode="normal" in2="BackgroundImageFix" result="effect1_dropShadow_7121_40683"/>
<feBlend mode="normal" in="SourceGraphic" in2="effect1_dropShadow_7121_40683" result="shape"/>
</filter>
<filter id="filter1_d_7121_40683" x="0.0187502" y="72.6309" width="247.962" height="65.725" filterUnits="userSpaceOnUse" color-interpolation-filters="sRGB">
<feFlood flood-opacity="0" result="BackgroundImageFix"/>
<feColorMatrix in="SourceAlpha" type="matrix" values="0 0 0 0 0 0 0 0 0 0 0 0 0 0 0 0 0 0 127 0" result="hardAlpha"/>
<feOffset dy="1.49375"/>
<feGaussianBlur stdDeviation="2.24062"/>
<feColorMatrix type="matrix" values="0 0 0 0 0 0 0 0 0 0 0 0 0 0 0 0 0 0 0.2 0"/>
<feBlend mode="normal" in2="BackgroundImageFix" result="effect1_dropShadow_7121_40683"/>
<feBlend mode="normal" in="SourceGraphic" in2="effect1_dropShadow_7121_40683" result="shape"/>
</filter>
<filter id="filter2_d_7121_40683" x="0.0187502" y="144.331" width="247.962" height="65.725" filterUnits="userSpaceOnUse" color-interpolation-filters="sRGB">
<feFlood flood-opacity="0" result="BackgroundImageFix"/>
<feColorMatrix in="SourceAlpha" type="matrix" values="0 0 0 0 0 0 0 0 0 0 0 0 0 0 0 0 0 0 127 0" result="hardAlpha"/>
<feOffset dy="1.49375"/>
<feGaussianBlur stdDeviation="2.24062"/>
<feColorMatrix type="matrix" values="0 0 0 0 0 0 0 0 0 0 0 0 0 0 0 0 0 0 0.2 0"/>
<feBlend mode="normal" in2="BackgroundImageFix" result="effect1_dropShadow_7121_40683"/>
<feBlend mode="normal" in="SourceGraphic" in2="effect1_dropShadow_7121_40683" result="shape"/>
</filter>
<linearGradient id="paint0_linear_7121_40683" x1="19.4375" y1="20.3499" x2="37.3625" y2="44.2499" gradientUnits="userSpaceOnUse">
<stop stop-color="#0a5888"/>
<stop offset="1" stop-color="#51E338"/>
</linearGradient>
<linearGradient id="paint1_linear_7121_40683" x1="19.4375" y1="20.3499" x2="37.3625" y2="44.2499" gradientUnits="userSpaceOnUse">
<stop stop-color="#0a5888"/>
<stop offset="1" stop-color="#51E338"/>
</linearGradient>
<linearGradient id="paint2_linear_7121_40683" x1="20.558" y1="92.0503" x2="36.5599" y2="113.053" gradientUnits="userSpaceOnUse">
<stop stop-color="#0a5888"/>
<stop offset="1" stop-color="#51E338"/>
</linearGradient>
<linearGradient id="paint3_linear_7121_40683" x1="29.3364" y1="174.764" x2="21.6423" y2="175.57" gradientUnits="userSpaceOnUse">
<stop stop-color="#0a5888"/>
<stop offset="1" stop-color="#0a5888"/>
</linearGradient>
<linearGradient id="paint4_linear_7121_40683" x1="25.8995" y1="171.982" x2="18.6824" y2="173.055" gradientUnits="userSpaceOnUse">
<stop stop-color="#0a5888"/>
<stop offset="1" stop-color="#0a5888"/>
</linearGradient>
<linearGradient id="paint5_linear_7121_40683" x1="32.1166" y1="178.2" x2="26.9386" y2="178.584" gradientUnits="userSpaceOnUse">
<stop stop-color="#0a5888"/>
<stop offset="1" stop-color="#0a5888"/>
</linearGradient>
</defs>
</svg>
