<svg width="248" height="67" viewBox="0 0 248 67" fill="none" xmlns="http://www.w3.org/2000/svg">
<g filter="url(#filter0_d_7121_41442)">
<rect x="4.5" y="3.61865" width="239" height="56.7625" rx="7.46875" fill="white"/>
<path d="M23.1719 25.2779C23.1719 22.3905 25.5126 20.0498 28.4 20.0498C31.2874 20.0498 33.6281 22.3905 33.6281 25.2779C33.6281 28.1653 31.2874 30.5061 28.4 30.5061C25.5126 30.5061 23.1719 28.1653 23.1719 25.2779Z" fill="url(#paint0_linear_7121_41442)"/>
<path d="M19.4375 40.9623C19.4375 36.0125 23.4501 31.9998 28.4 31.9998C33.3499 31.9998 37.3625 36.0125 37.3625 40.9623V41.2942C37.3625 42.7609 36.1736 43.9498 34.7069 43.9498H22.0931C20.6264 43.9498 19.4375 42.7609 19.4375 41.2942V40.9623Z" fill="url(#paint1_linear_7121_41442)"/>
<path d="M47.5172 35.4998V28.1804H50.2567C50.8771 28.1804 51.4104 28.2815 51.8566 28.4836C52.3027 28.6788 52.6443 28.9646 52.8813 29.341C53.1252 29.7105 53.2472 30.1601 53.2472 30.6899C53.2472 31.2057 53.1252 31.6519 52.8813 32.0283C52.6443 32.3977 52.3027 32.6835 51.8566 32.8857C51.4104 33.0878 50.8771 33.1889 50.2567 33.1889H47.9459L48.291 32.823V35.4998H47.5172ZM48.291 32.8857L47.9459 32.5093H50.2358C50.9678 32.5093 51.522 32.3524 51.8984 32.0387C52.2818 31.7181 52.4735 31.2685 52.4735 30.6899C52.4735 30.1043 52.2818 29.6512 51.8984 29.3306C51.522 29.0099 50.9678 28.8496 50.2358 28.8496H47.9459L48.291 28.4836V32.8857ZM58.1525 35.4998V34.2868L58.1212 34.0882V32.0596C58.1212 31.5926 57.9887 31.2336 57.7238 30.9827C57.4659 30.7317 57.079 30.6062 56.5632 30.6062C56.2077 30.6062 55.8696 30.6655 55.5489 30.784C55.2283 30.9025 54.9564 31.0593 54.7333 31.2545L54.3987 30.7003C54.6776 30.4633 55.0122 30.2821 55.4025 30.1566C55.7929 30.0242 56.2042 29.9579 56.6364 29.9579C57.3474 29.9579 57.8946 30.1357 58.278 30.4912C58.6684 30.8398 58.8635 31.373 58.8635 32.091V35.4998H58.1525ZM56.2599 35.552C55.8487 35.552 55.4897 35.4858 55.1829 35.3534C54.8832 35.214 54.6532 35.0257 54.4928 34.7887C54.3325 34.5448 54.2523 34.2659 54.2523 33.9522C54.2523 33.6664 54.3186 33.4085 54.451 33.1785C54.5904 32.9415 54.8135 32.7532 55.1202 32.6138C55.4339 32.4674 55.8521 32.3942 56.375 32.3942H58.2675V32.9484H56.3959C55.8661 32.9484 55.4966 33.0425 55.2875 33.2307C55.0854 33.419 54.9843 33.6525 54.9843 33.9313C54.9843 34.245 55.1063 34.496 55.3502 34.6842C55.5942 34.8724 55.9358 34.9665 56.375 34.9665C56.7932 34.9665 57.1522 34.8724 57.452 34.6842C57.7587 34.489 57.9817 34.2102 58.1212 33.8477L58.2885 34.36C58.149 34.7225 57.9051 35.0118 57.5565 35.2279C57.2149 35.444 56.7828 35.552 56.2599 35.552ZM60.88 35.4998V30.0102H61.591V31.5055L61.5178 31.2441C61.6712 30.8258 61.9291 30.5086 62.2916 30.2925C62.654 30.0695 63.1037 29.9579 63.6404 29.9579V30.6794C63.6125 30.6794 63.5847 30.6794 63.5568 30.6794C63.5289 30.6725 63.501 30.669 63.4731 30.669C62.8945 30.669 62.4414 30.8467 62.1138 31.2022C61.7862 31.5508 61.6224 32.0492 61.6224 32.6975V35.4998H60.88ZM68.0267 35.4998V34.2868L67.9954 34.0882V32.0596C67.9954 31.5926 67.8629 31.2336 67.598 30.9827C67.3401 30.7317 66.9532 30.6062 66.4374 30.6062C66.0819 30.6062 65.7438 30.6655 65.4231 30.784C65.1025 30.9025 64.8306 31.0593 64.6075 31.2545L64.2729 30.7003C64.5518 30.4633 64.8864 30.2821 65.2767 30.1566C65.6671 30.0242 66.0784 29.9579 66.5106 29.9579C67.2216 29.9579 67.7688 30.1357 68.1522 30.4912C68.5426 30.8398 68.7378 31.373 68.7378 32.091V35.4998H68.0267ZM66.1342 35.552C65.7229 35.552 65.3639 35.4858 65.0572 35.3534C64.7574 35.214 64.5274 35.0257 64.367 34.7887C64.2067 34.5448 64.1266 34.2659 64.1266 33.9522C64.1266 33.6664 64.1928 33.4085 64.3252 33.1785C64.4646 32.9415 64.6877 32.7532 64.9944 32.6138C65.3081 32.4674 65.7264 32.3942 66.2492 32.3942H68.1418V32.9484H66.2701C65.7403 32.9484 65.3708 33.0425 65.1617 33.2307C64.9596 33.419 64.8585 33.6525 64.8585 33.9313C64.8585 34.245 64.9805 34.496 65.2245 34.6842C65.4684 34.8724 65.81 34.9665 66.2492 34.9665C66.6674 34.9665 67.0264 34.8724 67.3262 34.6842C67.6329 34.489 67.8559 34.2102 67.9954 33.8477L68.1627 34.36C68.0232 34.7225 67.7793 35.0118 67.4307 35.2279C67.0892 35.444 66.657 35.552 66.1342 35.552ZM74.9024 35.4998L72.4661 30.0102H73.2398L75.4775 35.1024H75.1115L77.3805 30.0102H78.1124L75.6657 35.4998H74.9024ZM81.2425 35.552C80.7127 35.552 80.2352 35.4335 79.8099 35.1965C79.3917 34.9525 79.0606 34.6214 78.8166 34.2032C78.5726 33.778 78.4506 33.2935 78.4506 32.7498C78.4506 32.1991 78.5726 31.7146 78.8166 31.2963C79.0606 30.8781 79.3917 30.5505 79.8099 30.3135C80.2282 30.0764 80.7057 29.9579 81.2425 29.9579C81.7862 29.9579 82.2672 30.0764 82.6854 30.3135C83.1106 30.5505 83.4418 30.8781 83.6788 31.2963C83.9227 31.7146 84.0447 32.1991 84.0447 32.7498C84.0447 33.2935 83.9227 33.778 83.6788 34.2032C83.4418 34.6214 83.1106 34.9525 82.6854 35.1965C82.2602 35.4335 81.7792 35.552 81.2425 35.552ZM81.2425 34.8933C81.6398 34.8933 81.9918 34.8062 82.2985 34.6319C82.6053 34.4506 82.8457 34.1997 83.02 33.879C83.2013 33.5514 83.2919 33.175 83.2919 32.7498C83.2919 32.3176 83.2013 31.9411 83.02 31.6205C82.8457 31.2998 82.6053 31.0524 82.2985 30.8781C81.9918 30.6969 81.6433 30.6062 81.2529 30.6062C80.8625 30.6062 80.514 30.6969 80.2073 30.8781C79.9006 31.0524 79.6566 31.2998 79.4753 31.6205C79.2941 31.9411 79.2035 32.3176 79.2035 32.7498C79.2035 33.175 79.2941 33.5514 79.4753 33.879C79.6566 34.1997 79.9006 34.4506 80.2073 34.6319C80.514 34.8062 80.8591 34.8933 81.2425 34.8933ZM87.8399 35.552C87.2961 35.552 86.8082 35.4335 86.376 35.1965C85.9508 34.9525 85.6162 34.6214 85.3722 34.2032C85.1282 33.778 85.0062 33.2935 85.0062 32.7498C85.0062 32.1991 85.1282 31.7146 85.3722 31.2963C85.6162 30.8781 85.9508 30.5505 86.376 30.3135C86.8082 30.0764 87.2961 29.9579 87.8399 29.9579C88.3069 29.9579 88.7286 30.0486 89.1051 30.2298C89.4815 30.411 89.7777 30.6829 89.9938 31.0454L89.4397 31.4218C89.2515 31.143 89.0179 30.9373 88.7391 30.8049C88.4603 30.6725 88.157 30.6062 87.8294 30.6062C87.439 30.6062 87.087 30.6969 86.7733 30.8781C86.4596 31.0524 86.2122 31.2998 86.0309 31.6205C85.8497 31.9411 85.7591 32.3176 85.7591 32.7498C85.7591 33.182 85.8497 33.5584 86.0309 33.879C86.2122 34.1997 86.4596 34.4506 86.7733 34.6319C87.087 34.8062 87.439 34.8933 87.8294 34.8933C88.157 34.8933 88.4603 34.8271 88.7391 34.6946C89.0179 34.5622 89.2515 34.36 89.4397 34.0882L89.9938 34.4646C89.7777 34.8201 89.4815 35.092 89.1051 35.2802C88.7286 35.4614 88.3069 35.552 87.8399 35.552ZM93.6921 35.552C93.1205 35.552 92.6186 35.4335 92.1864 35.1965C91.7542 34.9525 91.4161 34.6214 91.1721 34.2032C90.9282 33.778 90.8062 33.2935 90.8062 32.7498C90.8062 32.206 90.9212 31.725 91.1512 31.3068C91.3882 30.8885 91.7089 30.5609 92.1132 30.3239C92.5245 30.0799 92.9845 29.9579 93.4934 29.9579C94.0093 29.9579 94.4659 30.0764 94.8632 30.3135C95.2675 30.5435 95.5847 30.8711 95.8147 31.2963C96.0447 31.7146 96.1598 32.1991 96.1598 32.7498C96.1598 32.7846 96.1563 32.823 96.1493 32.8648C96.1493 32.8996 96.1493 32.938 96.1493 32.9798H91.3708V32.4256H95.752L95.4592 32.6452C95.4592 32.2479 95.3721 31.8958 95.1978 31.5891C95.0305 31.2754 94.8005 31.0315 94.5077 30.8572C94.2149 30.6829 93.8768 30.5958 93.4934 30.5958C93.117 30.5958 92.7789 30.6829 92.4792 30.8572C92.1794 31.0315 91.9459 31.2754 91.7786 31.5891C91.6113 31.9028 91.5276 32.2618 91.5276 32.6661V32.7811C91.5276 33.1994 91.6183 33.5688 91.7995 33.8895C91.9877 34.2032 92.2456 34.4506 92.5733 34.6319C92.9079 34.8062 93.2878 34.8933 93.713 34.8933C94.0476 34.8933 94.3578 34.834 94.6436 34.7155C94.9364 34.597 95.1873 34.4158 95.3965 34.1718L95.8147 34.6528C95.5707 34.9456 95.264 35.1686 94.8946 35.322C94.5321 35.4754 94.1313 35.552 93.6921 35.552ZM91.7577 29.1528L93.1065 27.8562H93.8594L95.2082 29.1528H94.5181L93.1902 28.0444H93.7757L92.4478 29.1528H91.7577Z" fill="black"/>
</g>
<defs>
<filter id="filter0_d_7121_41442" x="0.0187502" y="0.631153" width="247.962" height="65.725" filterUnits="userSpaceOnUse" color-interpolation-filters="sRGB">
<feFlood flood-opacity="0" result="BackgroundImageFix"/>
<feColorMatrix in="SourceAlpha" type="matrix" values="0 0 0 0 0 0 0 0 0 0 0 0 0 0 0 0 0 0 127 0" result="hardAlpha"/>
<feOffset dy="1.49375"/>
<feGaussianBlur stdDeviation="2.24062"/>
<feColorMatrix type="matrix" values="0 0 0 0 0 0 0 0 0 0 0 0 0 0 0 0 0 0 0.2 0"/>
<feBlend mode="normal" in2="BackgroundImageFix" result="effect1_dropShadow_7121_41442"/>
<feBlend mode="normal" in="SourceGraphic" in2="effect1_dropShadow_7121_41442" result="shape"/>
</filter>
<linearGradient id="paint0_linear_7121_41442" x1="19.4375" y1="20.0498" x2="37.3625" y2="43.9498" gradientUnits="userSpaceOnUse">
<stop stop-color="#0a5888"/>
<stop offset="1" stop-color="#51E338"/>
</linearGradient>
<linearGradient id="paint1_linear_7121_41442" x1="19.4375" y1="20.0498" x2="37.3625" y2="43.9498" gradientUnits="userSpaceOnUse">
<stop stop-color="#0a5888"/>
<stop offset="1" stop-color="#51E338"/>
</linearGradient>
</defs>
</svg>
