<svg width="248" height="67" viewBox="0 0 248 67" fill="none" xmlns="http://www.w3.org/2000/svg">
<g filter="url(#filter0_d_7121_41462)">
<rect x="4.5" y="3.61865" width="239" height="56.7625" rx="7.46875" fill="white"/>
<path fill-rule="evenodd" clip-rule="evenodd" d="M21.6783 20.0505C20.8533 20.0505 20.1846 20.7193 20.1846 21.5443V42.4568H36.6158V21.5443C36.6158 20.7193 35.947 20.0505 35.1221 20.0505H21.6783ZM23.919 23.0382C23.5065 23.0382 23.1721 23.3726 23.1721 23.7851V26.0257C23.1721 26.4382 23.5065 26.7726 23.919 26.7726H26.9065C27.319 26.7726 27.6534 26.4382 27.6534 26.0257V23.7851C27.6534 23.3726 27.319 23.0382 26.9065 23.0382H23.919ZM29.1471 23.7851C29.1471 23.3726 29.4815 23.0382 29.894 23.0382H32.8815C33.294 23.0382 33.6284 23.3726 33.6284 23.7851V26.0257C33.6284 26.4382 33.294 26.7726 32.8815 26.7726H29.894C29.4815 26.7726 29.1471 26.4382 29.1471 26.0257V23.7851ZM23.919 28.2664C23.5065 28.2664 23.1721 28.6007 23.1721 29.0132V31.2539C23.1721 31.6663 23.5065 32.0007 23.919 32.0007H26.9065C27.319 32.0007 27.6534 31.6663 27.6534 31.2539V29.0132C27.6534 28.6007 27.319 28.2664 26.9065 28.2664H23.919ZM29.1471 29.0132C29.1471 28.6007 29.4815 28.2664 29.894 28.2664H32.8815C33.294 28.2664 33.6284 28.6007 33.6284 29.0132V31.2539C33.6284 31.6663 33.294 32.0007 32.8815 32.0007H29.894C29.4815 32.0007 29.1471 31.6663 29.1471 31.2539V29.0132ZM23.919 33.4945C23.5065 33.4945 23.1721 33.8289 23.1721 34.2414V36.482C23.1721 36.8945 23.5065 37.2289 23.919 37.2289H26.9065C27.319 37.2289 27.6534 36.8945 27.6534 36.482V34.2414C27.6534 33.8289 27.319 33.4945 26.9065 33.4945H23.919ZM29.1471 34.2414C29.1471 33.8289 29.4815 33.4945 29.894 33.4945H32.8815C33.294 33.4945 33.6284 33.8289 33.6284 34.2414V36.482C33.6284 36.8945 33.294 37.2289 32.8815 37.2289H29.894C29.4815 37.2289 29.1471 36.8945 29.1471 36.482V34.2414ZM27.6534 37.9757C27.2409 37.9757 26.9065 38.3101 26.9065 38.7226V41.7101H29.894V38.7226C29.894 38.3101 29.5596 37.9757 29.1471 37.9757H27.6534Z" fill="url(#paint0_linear_7121_41462)"/>
<path d="M17.9438 43.9505C17.9438 42.4839 19.1328 41.2949 20.5994 41.2949H36.2008C37.6674 41.2949 38.8563 42.4839 38.8563 43.9505H17.9438Z" fill="#0a5888"/>
<path d="M47.5172 35.5V28.1806H50.2567C50.8771 28.1806 51.4104 28.2817 51.8566 28.4839C52.3027 28.679 52.6443 28.9648 52.8813 29.3413C53.1252 29.7107 53.2472 30.1603 53.2472 30.6901C53.2472 31.206 53.1252 31.6521 52.8813 32.0285C52.6443 32.398 52.3027 32.6838 51.8566 32.8859C51.4104 33.0881 50.8771 33.1892 50.2567 33.1892H47.9459L48.291 32.8232V35.5H47.5172ZM48.291 32.8859L47.9459 32.5095H50.2358C50.9678 32.5095 51.522 32.3527 51.8984 32.039C52.2818 31.7183 52.4735 31.2687 52.4735 30.6901C52.4735 30.1046 52.2818 29.6515 51.8984 29.3308C51.522 29.0102 50.9678 28.8498 50.2358 28.8498H47.9459L48.291 28.4839V32.8859ZM58.1525 35.5V34.2871L58.1212 34.0884V32.0599C58.1212 31.5928 57.9887 31.2338 57.7238 30.9829C57.4659 30.7319 57.079 30.6065 56.5632 30.6065C56.2077 30.6065 55.8696 30.6657 55.5489 30.7842C55.2283 30.9027 54.9564 31.0596 54.7333 31.2548L54.3987 30.7006C54.6776 30.4636 55.0122 30.2823 55.4025 30.1569C55.7929 30.0244 56.2042 29.9582 56.6364 29.9582C57.3474 29.9582 57.8946 30.1359 58.278 30.4915C58.6684 30.84 58.8635 31.3733 58.8635 32.0913V35.5H58.1525ZM56.2599 35.5523C55.8487 35.5523 55.4897 35.4861 55.1829 35.3536C54.8832 35.2142 54.6532 35.026 54.4928 34.789C54.3325 34.545 54.2523 34.2662 54.2523 33.9525C54.2523 33.6667 54.3186 33.4087 54.451 33.1787C54.5904 32.9417 54.8135 32.7535 55.1202 32.6141C55.4339 32.4677 55.8521 32.3945 56.375 32.3945H58.2675V32.9487H56.3959C55.8661 32.9487 55.4966 33.0428 55.2875 33.231C55.0854 33.4192 54.9843 33.6527 54.9843 33.9316C54.9843 34.2452 55.1063 34.4962 55.3502 34.6844C55.5942 34.8726 55.9358 34.9667 56.375 34.9667C56.7932 34.9667 57.1522 34.8726 57.452 34.6844C57.7587 34.4892 57.9817 34.2104 58.1212 33.8479L58.2885 34.3603C58.149 34.7228 57.9051 35.012 57.5565 35.2281C57.2149 35.4442 56.7828 35.5523 56.2599 35.5523ZM60.88 35.5V30.0105H61.591V31.5057L61.5178 31.2443C61.6712 30.8261 61.9291 30.5089 62.2916 30.2928C62.654 30.0697 63.1037 29.9582 63.6404 29.9582V30.6797C63.6125 30.6797 63.5847 30.6797 63.5568 30.6797C63.5289 30.6727 63.501 30.6692 63.4731 30.6692C62.8945 30.6692 62.4414 30.847 62.1138 31.2025C61.7862 31.551 61.6224 32.0494 61.6224 32.6977V35.5H60.88ZM68.0267 35.5V34.2871L67.9954 34.0884V32.0599C67.9954 31.5928 67.8629 31.2338 67.598 30.9829C67.3401 30.7319 66.9532 30.6065 66.4374 30.6065C66.0819 30.6065 65.7438 30.6657 65.4231 30.7842C65.1025 30.9027 64.8306 31.0596 64.6075 31.2548L64.2729 30.7006C64.5518 30.4636 64.8864 30.2823 65.2767 30.1569C65.6671 30.0244 66.0784 29.9582 66.5106 29.9582C67.2216 29.9582 67.7688 30.1359 68.1522 30.4915C68.5426 30.84 68.7378 31.3733 68.7378 32.0913V35.5H68.0267ZM66.1342 35.5523C65.7229 35.5523 65.3639 35.4861 65.0572 35.3536C64.7574 35.2142 64.5274 35.026 64.367 34.789C64.2067 34.545 64.1266 34.2662 64.1266 33.9525C64.1266 33.6667 64.1928 33.4087 64.3252 33.1787C64.4646 32.9417 64.6877 32.7535 64.9944 32.6141C65.3081 32.4677 65.7264 32.3945 66.2492 32.3945H68.1418V32.9487H66.2701C65.7403 32.9487 65.3708 33.0428 65.1617 33.231C64.9596 33.4192 64.8585 33.6527 64.8585 33.9316C64.8585 34.2452 64.9805 34.4962 65.2245 34.6844C65.4684 34.8726 65.81 34.9667 66.2492 34.9667C66.6674 34.9667 67.0264 34.8726 67.3262 34.6844C67.6329 34.4892 67.8559 34.2104 67.9954 33.8479L68.1627 34.3603C68.0232 34.7228 67.7793 35.012 67.4307 35.2281C67.0892 35.4442 66.657 35.5523 66.1342 35.5523ZM74.9651 35.5523C74.512 35.5523 74.0833 35.4895 73.679 35.3641C73.2747 35.2316 72.9575 35.0678 72.7275 34.8726L73.0621 34.2871C73.2851 34.4544 73.5709 34.6008 73.9195 34.7262C74.268 34.8447 74.634 34.904 75.0174 34.904C75.5402 34.904 75.9166 34.8238 76.1467 34.6635C76.3767 34.4962 76.4917 34.2766 76.4917 34.0048C76.4917 33.8026 76.4255 33.6458 76.2931 33.5342C76.1676 33.4157 76.0003 33.3286 75.7912 33.2728C75.582 33.2101 75.3485 33.1578 75.0906 33.116C74.8327 33.0741 74.5747 33.0254 74.3168 32.9696C74.0659 32.9138 73.8358 32.8337 73.6267 32.7291C73.4176 32.6176 73.2468 32.4677 73.1144 32.2795C72.9889 32.0913 72.9261 31.8403 72.9261 31.5266C72.9261 31.2269 73.0098 30.9585 73.1771 30.7215C73.3444 30.4845 73.5884 30.2998 73.909 30.1673C74.2367 30.0279 74.634 29.9582 75.101 29.9582C75.4566 29.9582 75.8121 30.007 76.1676 30.1046C76.5231 30.1952 76.8159 30.3172 77.0459 30.4705L76.7218 31.0665C76.4778 30.8992 76.2164 30.7807 75.9375 30.711C75.6587 30.6344 75.3799 30.596 75.101 30.596C74.6061 30.596 74.2401 30.6832 74.0031 30.8574C73.7731 31.0247 73.6581 31.2408 73.6581 31.5057C73.6581 31.7148 73.7208 31.8787 73.8463 31.9972C73.9787 32.1157 74.1495 32.2098 74.3586 32.2795C74.5747 32.3422 74.8083 32.3945 75.0592 32.4363C75.3171 32.4781 75.5716 32.5304 75.8225 32.5932C76.0804 32.6489 76.314 32.7291 76.5231 32.8337C76.7392 32.9312 76.91 33.0741 77.0354 33.2624C77.1679 33.4436 77.2341 33.6841 77.2341 33.9838C77.2341 34.3045 77.1435 34.5833 76.9623 34.8203C76.788 35.0504 76.5301 35.2316 76.1885 35.3641C75.8539 35.4895 75.4461 35.5523 74.9651 35.5523ZM80.8654 35.5523C80.3983 35.5523 79.9905 35.4651 79.642 35.2909C79.2935 35.1166 79.0216 34.8552 78.8264 34.5067C78.6382 34.1581 78.5441 33.7224 78.5441 33.1996V30.0105H79.2865V33.116C79.2865 33.7015 79.4294 34.1442 79.7152 34.4439C80.008 34.7367 80.4158 34.8831 80.9386 34.8831C81.322 34.8831 81.6531 34.8064 81.9319 34.653C82.2177 34.4927 82.4338 34.2627 82.5802 33.9629C82.7336 33.6632 82.8102 33.3042 82.8102 32.8859V30.0105H83.5526V35.5H82.8416V33.9943L82.9566 34.2662C82.7824 34.6705 82.5105 34.9876 82.141 35.2177C81.7786 35.4407 81.3533 35.5523 80.8654 35.5523ZM89.0618 35.5V34.2871L89.0304 34.0884V32.0599C89.0304 31.5928 88.898 31.2338 88.6331 30.9829C88.3751 30.7319 87.9883 30.6065 87.4724 30.6065C87.1169 30.6065 86.7788 30.6657 86.4582 30.7842C86.1375 30.9027 85.8656 31.0596 85.6426 31.2548L85.308 30.7006C85.5868 30.4636 85.9214 30.2823 86.3118 30.1569C86.7021 30.0244 87.1134 29.9582 87.5456 29.9582C88.2566 29.9582 88.8038 30.1359 89.1872 30.4915C89.5776 30.84 89.7728 31.3733 89.7728 32.0913V35.5H89.0618ZM87.1692 35.5523C86.7579 35.5523 86.3989 35.4861 86.0922 35.3536C85.7924 35.2142 85.5624 35.026 85.4021 34.789C85.2418 34.545 85.1616 34.2662 85.1616 33.9525C85.1616 33.6667 85.2278 33.4087 85.3603 33.1787C85.4997 32.9417 85.7227 32.7535 86.0295 32.6141C86.3431 32.4677 86.7614 32.3945 87.2842 32.3945H89.1768V32.9487H87.3051C86.7753 32.9487 86.4059 33.0428 86.1968 33.231C85.9946 33.4192 85.8935 33.6527 85.8935 33.9316C85.8935 34.2452 86.0155 34.4962 86.2595 34.6844C86.5035 34.8726 86.845 34.9667 87.2842 34.9667C87.7025 34.9667 88.0615 34.8726 88.3612 34.6844C88.6679 34.4892 88.891 34.2104 89.0304 33.8479L89.1977 34.3603C89.0583 34.7228 88.8143 35.012 88.4658 35.2281C88.1242 35.4442 87.692 35.5523 87.1692 35.5523ZM95.3728 31.4534H99.2416V32.1122H95.3728V31.4534ZM95.4564 34.8308H99.8585V35.5H94.6827V28.1806H99.7017V28.8498H95.4564V34.8308ZM108.38 29.9582C108.826 29.9582 109.213 30.0453 109.54 30.2196C109.875 30.3869 110.133 30.6448 110.314 30.9934C110.502 31.3419 110.596 31.7811 110.596 32.3108V35.5H109.854V32.384C109.854 31.8055 109.715 31.3698 109.436 31.077C109.164 30.7773 108.777 30.6274 108.275 30.6274C107.899 30.6274 107.571 30.7076 107.292 30.8679C107.02 31.0212 106.808 31.2478 106.654 31.5475C106.508 31.8403 106.435 32.1958 106.435 32.6141V35.5H105.693V32.384C105.693 31.8055 105.553 31.3698 105.274 31.077C104.995 30.7773 104.605 30.6274 104.103 30.6274C103.734 30.6274 103.41 30.7076 103.131 30.8679C102.852 31.0212 102.636 31.2478 102.482 31.5475C102.336 31.8403 102.263 32.1958 102.263 32.6141V35.5H101.52V30.0105H102.231V31.4953L102.116 31.2338C102.284 30.8365 102.552 30.5263 102.922 30.3032C103.298 30.0732 103.741 29.9582 104.25 29.9582C104.786 29.9582 105.243 30.0941 105.619 30.366C105.996 30.6309 106.24 31.0317 106.351 31.5684L106.058 31.4534C106.219 31.0073 106.501 30.6483 106.905 30.3764C107.317 30.0976 107.808 29.9582 108.38 29.9582ZM115.443 35.5523C114.969 35.5523 114.541 35.4442 114.157 35.2281C113.774 35.0051 113.467 34.6879 113.237 34.2766C113.014 33.8584 112.903 33.3495 112.903 32.75C112.903 32.1505 113.014 31.6451 113.237 31.2338C113.46 30.8156 113.763 30.4984 114.147 30.2823C114.53 30.0662 114.962 29.9582 115.443 29.9582C115.966 29.9582 116.433 30.0767 116.845 30.3137C117.263 30.5437 117.59 30.8714 117.827 31.2966C118.064 31.7148 118.183 32.1993 118.183 32.75C118.183 33.3077 118.064 33.7956 117.827 34.2139C117.59 34.6321 117.263 34.9598 116.845 35.1968C116.433 35.4338 115.966 35.5523 115.443 35.5523ZM112.61 37.5285V30.0105H113.321V31.6626L113.248 32.7605L113.352 33.8688V37.5285H112.61ZM115.391 34.8935C115.782 34.8935 116.13 34.8064 116.437 34.6321C116.744 34.4509 116.987 34.1999 117.169 33.8793C117.35 33.5517 117.441 33.1752 117.441 32.75C117.441 32.3248 117.35 31.9518 117.169 31.6312C116.987 31.3105 116.744 31.0596 116.437 30.8783C116.13 30.6971 115.782 30.6065 115.391 30.6065C115.001 30.6065 114.649 30.6971 114.335 30.8783C114.028 31.0596 113.784 31.3105 113.603 31.6312C113.429 31.9518 113.342 32.3248 113.342 32.75C113.342 33.1752 113.429 33.5517 113.603 33.8793C113.784 34.1999 114.028 34.4509 114.335 34.6321C114.649 34.8064 115.001 34.8935 115.391 34.8935ZM119.696 35.5V30.0105H120.407V31.5057L120.334 31.2443C120.488 30.8261 120.745 30.5089 121.108 30.2928C121.47 30.0697 121.92 29.9582 122.457 29.9582V30.6797C122.429 30.6797 122.401 30.6797 122.373 30.6797C122.345 30.6727 122.317 30.6692 122.29 30.6692C121.711 30.6692 121.258 30.847 120.93 31.2025C120.603 31.551 120.439 32.0494 120.439 32.6977V35.5H119.696ZM126.092 35.5523C125.521 35.5523 125.019 35.4338 124.586 35.1968C124.154 34.9528 123.816 34.6217 123.572 34.2034C123.328 33.7782 123.206 33.2937 123.206 32.75C123.206 32.2063 123.321 31.7253 123.551 31.307C123.788 30.8888 124.109 30.5612 124.513 30.3242C124.925 30.0802 125.385 29.9582 125.894 29.9582C126.409 29.9582 126.866 30.0767 127.263 30.3137C127.668 30.5437 127.985 30.8714 128.215 31.2966C128.445 31.7148 128.56 32.1993 128.56 32.75C128.56 32.7849 128.556 32.8232 128.549 32.865C128.549 32.8999 128.549 32.9382 128.549 32.98H123.771V32.4259H128.152L127.859 32.6454C127.859 32.2481 127.772 31.8961 127.598 31.5894C127.431 31.2757 127.201 31.0317 126.908 30.8574C126.615 30.6832 126.277 30.596 125.894 30.596C125.517 30.596 125.179 30.6832 124.879 30.8574C124.579 31.0317 124.346 31.2757 124.179 31.5894C124.011 31.903 123.928 32.262 123.928 32.6664V32.7814C123.928 33.1996 124.018 33.5691 124.2 33.8897C124.388 34.2034 124.646 34.4509 124.973 34.6321C125.308 34.8064 125.688 34.8935 126.113 34.8935C126.448 34.8935 126.758 34.8343 127.044 34.7158C127.336 34.5973 127.587 34.416 127.797 34.1721L128.215 34.653C127.971 34.9458 127.664 35.1689 127.295 35.3222C126.932 35.4756 126.531 35.5523 126.092 35.5523ZM131.545 35.5523C131.092 35.5523 130.663 35.4895 130.259 35.3641C129.855 35.2316 129.538 35.0678 129.308 34.8726L129.642 34.2871C129.865 34.4544 130.151 34.6008 130.5 34.7262C130.848 34.8447 131.214 34.904 131.598 34.904C132.12 34.904 132.497 34.8238 132.727 34.6635C132.957 34.4962 133.072 34.2766 133.072 34.0048C133.072 33.8026 133.006 33.6458 132.873 33.5342C132.748 33.4157 132.58 33.3286 132.371 33.2728C132.162 33.2101 131.929 33.1578 131.671 33.116C131.413 33.0741 131.155 33.0254 130.897 32.9696C130.646 32.9138 130.416 32.8337 130.207 32.7291C129.998 32.6176 129.827 32.4677 129.695 32.2795C129.569 32.0913 129.506 31.8403 129.506 31.5266C129.506 31.2269 129.59 30.9585 129.757 30.7215C129.925 30.4845 130.169 30.2998 130.489 30.1673C130.817 30.0279 131.214 29.9582 131.681 29.9582C132.037 29.9582 132.392 30.007 132.748 30.1046C133.103 30.1952 133.396 30.3172 133.626 30.4705L133.302 31.0665C133.058 30.8992 132.797 30.7807 132.518 30.711C132.239 30.6344 131.96 30.596 131.681 30.596C131.186 30.596 130.82 30.6832 130.583 30.8574C130.353 31.0247 130.238 31.2408 130.238 31.5057C130.238 31.7148 130.301 31.8787 130.426 31.9972C130.559 32.1157 130.73 32.2098 130.939 32.2795C131.155 32.3422 131.388 32.3945 131.639 32.4363C131.897 32.4781 132.152 32.5304 132.403 32.5932C132.661 32.6489 132.894 32.7291 133.103 32.8337C133.319 32.9312 133.49 33.0741 133.616 33.2624C133.748 33.4436 133.814 33.6841 133.814 33.9838C133.814 34.3045 133.724 34.5833 133.542 34.8203C133.368 35.0504 133.11 35.2316 132.769 35.3641C132.434 35.4895 132.026 35.5523 131.545 35.5523ZM138.617 35.5V34.2871L138.585 34.0884V32.0599C138.585 31.5928 138.453 31.2338 138.188 30.9829C137.93 30.7319 137.543 30.6065 137.027 30.6065C136.672 30.6065 136.334 30.6657 136.013 30.7842C135.692 30.9027 135.421 31.0596 135.197 31.2548L134.863 30.7006C135.142 30.4636 135.476 30.2823 135.867 30.1569C136.257 30.0244 136.668 29.9582 137.1 29.9582C137.812 29.9582 138.359 30.1359 138.742 30.4915C139.132 30.84 139.328 31.3733 139.328 32.0913V35.5H138.617ZM136.724 35.5523C136.313 35.5523 135.954 35.4861 135.647 35.3536C135.347 35.2142 135.117 35.026 134.957 34.789C134.797 34.545 134.716 34.2662 134.716 33.9525C134.716 33.6667 134.783 33.4087 134.915 33.1787C135.055 32.9417 135.278 32.7535 135.584 32.6141C135.898 32.4677 136.316 32.3945 136.839 32.3945H138.732V32.9487H136.86C136.33 32.9487 135.961 33.0428 135.752 33.231C135.549 33.4192 135.448 33.6527 135.448 33.9316C135.448 34.2452 135.57 34.4962 135.814 34.6844C136.058 34.8726 136.4 34.9667 136.839 34.9667C137.257 34.9667 137.616 34.8726 137.916 34.6844C138.223 34.4892 138.446 34.2104 138.585 33.8479L138.753 34.3603C138.613 34.7228 138.369 35.012 138.021 35.2281C137.679 35.4442 137.247 35.5523 136.724 35.5523Z" fill="black"/>
</g>
<defs>
<filter id="filter0_d_7121_41462" x="0.0187502" y="0.631153" width="247.962" height="65.725" filterUnits="userSpaceOnUse" color-interpolation-filters="sRGB">
<feFlood flood-opacity="0" result="BackgroundImageFix"/>
<feColorMatrix in="SourceAlpha" type="matrix" values="0 0 0 0 0 0 0 0 0 0 0 0 0 0 0 0 0 0 127 0" result="hardAlpha"/>
<feOffset dy="1.49375"/>
<feGaussianBlur stdDeviation="2.24062"/>
<feColorMatrix type="matrix" values="0 0 0 0 0 0 0 0 0 0 0 0 0 0 0 0 0 0 0.2 0"/>
<feBlend mode="normal" in2="BackgroundImageFix" result="effect1_dropShadow_7121_41462"/>
<feBlend mode="normal" in="SourceGraphic" in2="effect1_dropShadow_7121_41462" result="shape"/>
</filter>
<linearGradient id="paint0_linear_7121_41462" x1="20.558" y1="20.0505" x2="36.5599" y2="41.053" gradientUnits="userSpaceOnUse">
<stop stop-color="#0a5888"/>
<stop offset="1" stop-color="#51E338"/>
</linearGradient>
</defs>
</svg>
