<svg width="280" height="249" viewBox="0 0 280 249" fill="none" xmlns="http://www.w3.org/2000/svg">
<g filter="url(#filter0_d_7121_41203)">
<rect x="116.193" y="102.054" width="157.807" height="140.802" rx="9.52284" fill="white"/>
<path d="M207.908 132.195V133.343C207.906 136.032 207.035 138.649 205.425 140.802C203.815 142.956 201.552 144.532 198.973 145.294C196.394 146.057 193.638 145.965 191.116 145.033C188.593 144.101 186.439 142.379 184.976 140.123C183.512 137.867 182.817 135.198 182.994 132.515C183.171 129.832 184.21 127.278 185.958 125.233C187.705 123.189 190.066 121.764 192.689 121.172C195.312 120.579 198.056 120.85 200.513 121.945" stroke="#0a5888" stroke-width="2.04061" stroke-linecap="round" stroke-linejoin="round"/>
<path d="M207.908 123.367L195.437 135.85L191.696 132.109" stroke="#0a5888" stroke-width="2.04061" stroke-linecap="round" stroke-linejoin="round"/>
<path d="M160.415 164.647V164.968C160.415 165.483 160.345 165.945 160.206 166.354C160.066 166.763 159.869 167.112 159.615 167.4C159.361 167.685 159.057 167.904 158.704 168.056C158.354 168.207 157.965 168.283 157.537 168.283C157.112 168.283 156.723 168.207 156.37 168.056C156.019 167.904 155.716 167.685 155.458 167.4C155.201 167.112 155.001 166.763 154.858 166.354C154.719 165.945 154.649 165.483 154.649 164.968V164.647C154.649 164.13 154.719 163.668 154.858 163.262C154.998 162.852 155.195 162.504 155.449 162.215C155.706 161.927 156.01 161.707 156.36 161.555C156.714 161.403 157.103 161.327 157.527 161.327C157.955 161.327 158.344 161.403 158.695 161.555C159.048 161.707 159.352 161.927 159.606 162.215C159.863 162.504 160.062 162.852 160.201 163.262C160.344 163.668 160.415 164.13 160.415 164.647ZM159.006 164.968V164.638C159.006 164.278 158.974 163.962 158.908 163.689C158.843 163.417 158.747 163.187 158.62 163.001C158.493 162.815 158.338 162.676 158.155 162.583C157.972 162.487 157.763 162.439 157.527 162.439C157.292 162.439 157.083 162.487 156.9 162.583C156.72 162.676 156.567 162.815 156.439 163.001C156.315 163.187 156.221 163.417 156.156 163.689C156.091 163.962 156.058 164.278 156.058 164.638V164.968C156.058 165.325 156.091 165.641 156.156 165.917C156.221 166.189 156.317 166.42 156.444 166.609C156.571 166.795 156.726 166.937 156.909 167.033C157.092 167.129 157.301 167.177 157.537 167.177C157.772 167.177 157.982 167.129 158.164 167.033C158.347 166.937 158.501 166.795 158.625 166.609C158.749 166.42 158.843 166.189 158.908 165.917C158.974 165.641 159.006 165.325 159.006 164.968ZM162.675 164.126V170.125H161.336V163.159H162.577L162.675 164.126ZM165.86 165.619V165.717C165.86 166.083 165.817 166.422 165.73 166.735C165.646 167.048 165.522 167.321 165.358 167.553C165.193 167.783 164.989 167.963 164.744 168.093C164.502 168.22 164.223 168.283 163.907 168.283C163.6 168.283 163.334 168.221 163.107 168.097C162.881 167.973 162.69 167.8 162.535 167.577C162.383 167.35 162.261 167.088 162.168 166.791C162.075 166.493 162.004 166.174 161.954 165.833V165.577C162.004 165.211 162.075 164.877 162.168 164.573C162.261 164.266 162.383 164.001 162.535 163.778C162.69 163.551 162.879 163.376 163.103 163.252C163.329 163.128 163.594 163.066 163.898 163.066C164.217 163.066 164.498 163.127 164.739 163.248C164.984 163.369 165.189 163.542 165.353 163.768C165.521 163.995 165.646 164.264 165.73 164.578C165.817 164.891 165.86 165.238 165.86 165.619ZM164.516 165.717V165.619C164.516 165.405 164.498 165.208 164.46 165.029C164.426 164.846 164.37 164.686 164.293 164.55C164.219 164.413 164.119 164.308 163.995 164.233C163.874 164.156 163.727 164.117 163.554 164.117C163.371 164.117 163.214 164.147 163.084 164.206C162.957 164.264 162.853 164.35 162.772 164.461C162.692 164.573 162.631 164.706 162.591 164.861C162.551 165.016 162.526 165.191 162.517 165.387V166.033C162.532 166.262 162.576 166.468 162.647 166.651C162.718 166.831 162.828 166.974 162.977 167.079C163.126 167.185 163.321 167.237 163.563 167.237C163.74 167.237 163.888 167.198 164.009 167.121C164.13 167.04 164.228 166.93 164.302 166.791C164.38 166.651 164.434 166.49 164.465 166.307C164.499 166.124 164.516 165.928 164.516 165.717ZM169.008 168.283C168.617 168.283 168.267 168.221 167.957 168.097C167.647 167.97 167.384 167.795 167.167 167.572C166.953 167.349 166.788 167.09 166.674 166.795C166.559 166.498 166.502 166.182 166.502 165.847V165.661C166.502 165.28 166.556 164.931 166.664 164.615C166.773 164.299 166.928 164.024 167.129 163.792C167.334 163.559 167.582 163.381 167.873 163.257C168.165 163.13 168.493 163.066 168.859 163.066C169.216 163.066 169.532 163.125 169.808 163.243C170.084 163.361 170.314 163.528 170.5 163.745C170.69 163.962 170.832 164.223 170.928 164.526C171.024 164.827 171.072 165.162 171.072 165.531V166.089H167.074V165.196H169.757V165.094C169.757 164.908 169.722 164.742 169.654 164.596C169.589 164.447 169.49 164.33 169.357 164.243C169.223 164.156 169.053 164.113 168.845 164.113C168.668 164.113 168.517 164.151 168.389 164.229C168.262 164.306 168.159 164.415 168.078 164.554C168 164.694 167.942 164.858 167.901 165.047C167.864 165.233 167.845 165.438 167.845 165.661V165.847C167.845 166.048 167.873 166.234 167.929 166.405C167.988 166.575 168.07 166.723 168.176 166.847C168.284 166.971 168.414 167.067 168.566 167.135C168.721 167.203 168.896 167.237 169.092 167.237C169.333 167.237 169.558 167.191 169.766 167.098C169.977 167.002 170.158 166.857 170.31 166.665L170.961 167.372C170.855 167.524 170.711 167.67 170.528 167.809C170.349 167.949 170.132 168.063 169.877 168.153C169.623 168.24 169.333 168.283 169.008 168.283ZM173.174 164.257V168.19H171.835V163.159H173.095L173.174 164.257ZM174.69 163.127L174.667 164.368C174.602 164.359 174.523 164.351 174.43 164.345C174.34 164.336 174.258 164.331 174.183 164.331C173.994 164.331 173.83 164.356 173.69 164.405C173.554 164.452 173.439 164.522 173.346 164.615C173.256 164.708 173.188 164.821 173.142 164.954C173.098 165.087 173.073 165.239 173.067 165.41L172.797 165.326C172.797 165.001 172.83 164.702 172.895 164.429C172.96 164.153 173.055 163.913 173.179 163.708C173.306 163.503 173.461 163.345 173.644 163.234C173.827 163.122 174.036 163.066 174.271 163.066C174.346 163.066 174.422 163.073 174.499 163.085C174.577 163.094 174.64 163.108 174.69 163.127ZM177.88 167.056V164.815C177.88 164.653 177.853 164.516 177.801 164.401C177.748 164.283 177.666 164.192 177.554 164.126C177.446 164.061 177.305 164.029 177.131 164.029C176.982 164.029 176.854 164.055 176.745 164.108C176.637 164.157 176.553 164.23 176.494 164.326C176.435 164.419 176.406 164.529 176.406 164.657H175.067C175.067 164.443 175.116 164.24 175.215 164.047C175.315 163.855 175.459 163.686 175.648 163.541C175.837 163.392 176.062 163.276 176.322 163.192C176.586 163.108 176.88 163.066 177.206 163.066C177.596 163.066 177.943 163.131 178.247 163.262C178.551 163.392 178.79 163.587 178.963 163.847C179.14 164.108 179.228 164.433 179.228 164.824V166.977C179.228 167.253 179.245 167.479 179.279 167.656C179.313 167.829 179.363 167.981 179.428 168.111V168.19H178.075C178.01 168.054 177.96 167.884 177.926 167.679C177.895 167.471 177.88 167.264 177.88 167.056ZM178.056 165.126L178.066 165.884H177.317C177.14 165.884 176.987 165.904 176.857 165.945C176.727 165.985 176.62 166.042 176.536 166.117C176.452 166.188 176.39 166.272 176.35 166.368C176.313 166.464 176.294 166.569 176.294 166.684C176.294 166.799 176.321 166.902 176.373 166.995C176.426 167.085 176.502 167.157 176.601 167.209C176.7 167.259 176.816 167.284 176.95 167.284C177.151 167.284 177.326 167.243 177.475 167.163C177.624 167.082 177.739 166.983 177.819 166.865C177.903 166.747 177.946 166.636 177.95 166.53L178.303 167.098C178.253 167.225 178.185 167.357 178.098 167.493C178.015 167.629 177.908 167.758 177.777 167.879C177.647 167.997 177.491 168.094 177.308 168.172C177.125 168.246 176.908 168.283 176.657 168.283C176.338 168.283 176.048 168.22 175.787 168.093C175.53 167.963 175.325 167.784 175.174 167.558C175.025 167.329 174.95 167.068 174.95 166.777C174.95 166.513 175 166.279 175.099 166.075C175.198 165.87 175.344 165.698 175.536 165.559C175.732 165.416 175.975 165.309 176.266 165.238C176.558 165.163 176.896 165.126 177.28 165.126H178.056ZM182.339 167.237C182.503 167.237 182.649 167.206 182.776 167.144C182.903 167.079 183.002 166.989 183.074 166.875C183.148 166.757 183.187 166.619 183.19 166.461H184.45C184.447 166.814 184.352 167.129 184.166 167.405C183.98 167.677 183.731 167.893 183.418 168.051C183.105 168.206 182.754 168.283 182.367 168.283C181.976 168.283 181.635 168.218 181.344 168.088C181.056 167.958 180.815 167.778 180.623 167.549C180.431 167.316 180.287 167.047 180.191 166.74C180.095 166.43 180.047 166.098 180.047 165.745V165.61C180.047 165.253 180.095 164.922 180.191 164.615C180.287 164.305 180.431 164.035 180.623 163.806C180.815 163.573 181.056 163.392 181.344 163.262C181.632 163.131 181.97 163.066 182.358 163.066C182.77 163.066 183.131 163.145 183.441 163.303C183.754 163.462 183.999 163.688 184.176 163.982C184.355 164.274 184.447 164.619 184.45 165.019H183.19C183.187 164.852 183.151 164.7 183.083 164.564C183.018 164.427 182.922 164.319 182.795 164.238C182.671 164.154 182.517 164.113 182.334 164.113C182.139 164.113 181.979 164.154 181.855 164.238C181.731 164.319 181.635 164.43 181.567 164.573C181.499 164.712 181.451 164.872 181.423 165.052C181.398 165.228 181.386 165.414 181.386 165.61V165.745C181.386 165.94 181.398 166.127 181.423 166.307C181.448 166.487 181.494 166.647 181.562 166.786C181.634 166.926 181.731 167.036 181.855 167.116C181.979 167.197 182.141 167.237 182.339 167.237ZM181.837 168.172H182.846L182.795 168.446C182.971 168.477 183.133 168.552 183.278 168.669C183.424 168.787 183.497 168.981 183.497 169.251C183.497 169.415 183.461 169.564 183.39 169.697C183.322 169.83 183.219 169.945 183.083 170.041C182.947 170.14 182.776 170.215 182.571 170.264C182.367 170.317 182.131 170.343 181.865 170.343L181.832 169.599C181.931 169.599 182.021 169.585 182.102 169.557C182.182 169.53 182.246 169.486 182.292 169.427C182.339 169.371 182.362 169.297 182.362 169.204C182.362 169.117 182.339 169.049 182.292 168.999C182.246 168.95 182.173 168.913 182.074 168.888C181.978 168.863 181.851 168.846 181.693 168.837L181.837 168.172ZM187.942 167.056V164.815C187.942 164.653 187.916 164.516 187.863 164.401C187.81 164.283 187.728 164.192 187.616 164.126C187.508 164.061 187.367 164.029 187.193 164.029C187.045 164.029 186.916 164.055 186.807 164.108C186.699 164.157 186.615 164.23 186.556 164.326C186.497 164.419 186.468 164.529 186.468 164.657H185.129C185.129 164.443 185.178 164.24 185.278 164.047C185.377 163.855 185.521 163.686 185.71 163.541C185.899 163.392 186.124 163.276 186.384 163.192C186.648 163.108 186.942 163.066 187.268 163.066C187.658 163.066 188.006 163.131 188.309 163.262C188.613 163.392 188.852 163.587 189.025 163.847C189.202 164.108 189.29 164.433 189.29 164.824V166.977C189.29 167.253 189.307 167.479 189.342 167.656C189.376 167.829 189.425 167.981 189.49 168.111V168.19H188.137C188.072 168.054 188.023 167.884 187.988 167.679C187.957 167.471 187.942 167.264 187.942 167.056ZM188.119 165.126L188.128 165.884H187.379C187.203 165.884 187.049 165.904 186.919 165.945C186.789 165.985 186.682 166.042 186.598 166.117C186.514 166.188 186.452 166.272 186.412 166.368C186.375 166.464 186.356 166.569 186.356 166.684C186.356 166.799 186.383 166.902 186.435 166.995C186.488 167.085 186.564 167.157 186.663 167.209C186.762 167.259 186.879 167.284 187.012 167.284C187.214 167.284 187.389 167.243 187.537 167.163C187.686 167.082 187.801 166.983 187.882 166.865C187.965 166.747 188.009 166.636 188.012 166.53L188.365 167.098C188.316 167.225 188.247 167.357 188.161 167.493C188.077 167.629 187.97 167.758 187.84 167.879C187.709 167.997 187.553 168.094 187.37 168.172C187.187 168.246 186.97 168.283 186.719 168.283C186.4 168.283 186.11 168.22 185.85 168.093C185.592 167.963 185.388 167.784 185.236 167.558C185.087 167.329 185.013 167.068 185.013 166.777C185.013 166.513 185.062 166.279 185.161 166.075C185.261 165.87 185.406 165.698 185.598 165.559C185.794 165.416 186.037 165.309 186.328 165.238C186.62 165.163 186.958 165.126 187.342 165.126H188.119ZM188.24 161.072L189.011 161.123C189.011 161.349 188.966 161.555 188.877 161.741C188.787 161.924 188.663 162.071 188.505 162.183C188.347 162.291 188.165 162.346 187.961 162.346C187.812 162.346 187.683 162.325 187.575 162.285C187.469 162.245 187.372 162.198 187.282 162.146C187.192 162.09 187.099 162.042 187.003 162.002C186.91 161.961 186.803 161.941 186.682 161.941C186.573 161.941 186.48 161.98 186.403 162.057C186.328 162.135 186.291 162.246 186.291 162.392L185.515 162.35C185.515 162.127 185.56 161.922 185.65 161.736C185.74 161.55 185.864 161.402 186.022 161.29C186.18 161.175 186.359 161.118 186.561 161.118C186.688 161.118 186.804 161.14 186.91 161.183C187.015 161.223 187.116 161.27 187.212 161.323C187.311 161.375 187.412 161.422 187.514 161.462C187.616 161.502 187.725 161.523 187.84 161.523C187.948 161.523 188.041 161.484 188.119 161.406C188.199 161.326 188.24 161.214 188.24 161.072ZM190.109 165.726V165.628C190.109 165.259 190.161 164.92 190.267 164.61C190.372 164.297 190.526 164.026 190.727 163.796C190.929 163.567 191.177 163.389 191.471 163.262C191.766 163.131 192.104 163.066 192.485 163.066C192.866 163.066 193.206 163.131 193.503 163.262C193.801 163.389 194.05 163.567 194.252 163.796C194.456 164.026 194.611 164.297 194.717 164.61C194.822 164.92 194.875 165.259 194.875 165.628V165.726C194.875 166.092 194.822 166.431 194.717 166.744C194.611 167.054 194.456 167.326 194.252 167.558C194.05 167.787 193.802 167.966 193.508 168.093C193.213 168.22 192.875 168.283 192.494 168.283C192.113 168.283 191.773 168.22 191.476 168.093C191.181 167.966 190.932 167.787 190.727 167.558C190.526 167.326 190.372 167.054 190.267 166.744C190.161 166.431 190.109 166.092 190.109 165.726ZM191.448 165.628V165.726C191.448 165.937 191.467 166.134 191.504 166.317C191.541 166.499 191.6 166.661 191.68 166.8C191.764 166.937 191.873 167.043 192.006 167.121C192.139 167.198 192.302 167.237 192.494 167.237C192.68 167.237 192.84 167.198 192.973 167.121C193.106 167.043 193.213 166.937 193.294 166.8C193.375 166.661 193.433 166.499 193.471 166.317C193.511 166.134 193.531 165.937 193.531 165.726V165.628C193.531 165.424 193.511 165.232 193.471 165.052C193.433 164.869 193.373 164.708 193.289 164.568C193.209 164.426 193.102 164.314 192.968 164.233C192.835 164.153 192.674 164.113 192.485 164.113C192.296 164.113 192.135 164.153 192.001 164.233C191.871 164.314 191.764 164.426 191.68 164.568C191.6 164.708 191.541 164.869 191.504 165.052C191.467 165.232 191.448 165.424 191.448 165.628ZM199.408 164.257V168.19H198.069V163.159H199.329L199.408 164.257ZM200.924 163.127L200.901 164.368C200.836 164.359 200.757 164.351 200.664 164.345C200.574 164.336 200.492 164.331 200.417 164.331C200.228 164.331 200.064 164.356 199.925 164.405C199.788 164.452 199.673 164.522 199.58 164.615C199.491 164.708 199.422 164.821 199.376 164.954C199.333 165.087 199.308 165.239 199.302 165.41L199.032 165.326C199.032 165.001 199.064 164.702 199.129 164.429C199.195 164.153 199.289 163.913 199.413 163.708C199.54 163.503 199.695 163.345 199.878 163.234C200.061 163.122 200.27 163.066 200.506 163.066C200.58 163.066 200.656 163.073 200.734 163.085C200.811 163.094 200.875 163.108 200.924 163.127ZM203.779 168.283C203.389 168.283 203.038 168.221 202.728 168.097C202.418 167.97 202.155 167.795 201.938 167.572C201.724 167.349 201.56 167.09 201.445 166.795C201.33 166.498 201.273 166.182 201.273 165.847V165.661C201.273 165.28 201.327 164.931 201.436 164.615C201.544 164.299 201.699 164.024 201.901 163.792C202.105 163.559 202.353 163.381 202.645 163.257C202.936 163.13 203.265 163.066 203.63 163.066C203.987 163.066 204.303 163.125 204.579 163.243C204.855 163.361 205.086 163.528 205.272 163.745C205.461 163.962 205.604 164.223 205.7 164.526C205.796 164.827 205.844 165.162 205.844 165.531V166.089H201.845V165.196H204.528V165.094C204.528 164.908 204.494 164.742 204.426 164.596C204.361 164.447 204.261 164.33 204.128 164.243C203.995 164.156 203.824 164.113 203.617 164.113C203.44 164.113 203.288 164.151 203.161 164.229C203.034 164.306 202.93 164.415 202.849 164.554C202.772 164.694 202.713 164.858 202.673 165.047C202.635 165.233 202.617 165.438 202.617 165.661V165.847C202.617 166.048 202.645 166.234 202.701 166.405C202.759 166.575 202.842 166.723 202.947 166.847C203.055 166.971 203.186 167.067 203.338 167.135C203.493 167.203 203.668 167.237 203.863 167.237C204.105 167.237 204.33 167.191 204.537 167.098C204.748 167.002 204.929 166.857 205.081 166.665L205.732 167.372C205.627 167.524 205.483 167.67 205.3 167.809C205.12 167.949 204.903 168.063 204.649 168.153C204.395 168.24 204.105 168.283 203.779 168.283ZM209.322 167.056V164.815C209.322 164.653 209.296 164.516 209.243 164.401C209.19 164.283 209.108 164.192 208.996 164.126C208.888 164.061 208.747 164.029 208.573 164.029C208.424 164.029 208.296 164.055 208.187 164.108C208.079 164.157 207.995 164.23 207.936 164.326C207.877 164.419 207.848 164.529 207.848 164.657H206.509C206.509 164.443 206.558 164.24 206.658 164.047C206.757 163.855 206.901 163.686 207.09 163.541C207.279 163.392 207.504 163.276 207.764 163.192C208.028 163.108 208.322 163.066 208.648 163.066C209.038 163.066 209.385 163.131 209.689 163.262C209.993 163.392 210.232 163.587 210.405 163.847C210.582 164.108 210.67 164.433 210.67 164.824V166.977C210.67 167.253 210.687 167.479 210.721 167.656C210.756 167.829 210.805 167.981 210.87 168.111V168.19H209.517C209.452 168.054 209.402 167.884 209.368 167.679C209.337 167.471 209.322 167.264 209.322 167.056ZM209.499 165.126L209.508 165.884H208.759C208.583 165.884 208.429 165.904 208.299 165.945C208.169 165.985 208.062 166.042 207.978 166.117C207.894 166.188 207.832 166.272 207.792 166.368C207.755 166.464 207.736 166.569 207.736 166.684C207.736 166.799 207.763 166.902 207.815 166.995C207.868 167.085 207.944 167.157 208.043 167.209C208.142 167.259 208.259 167.284 208.392 167.284C208.593 167.284 208.769 167.243 208.917 167.163C209.066 167.082 209.181 166.983 209.261 166.865C209.345 166.747 209.389 166.636 209.392 166.53L209.745 167.098C209.695 167.225 209.627 167.357 209.54 167.493C209.457 167.629 209.35 167.758 209.22 167.879C209.089 167.997 208.933 168.094 208.75 168.172C208.567 168.246 208.35 168.283 208.099 168.283C207.78 168.283 207.49 168.22 207.229 168.093C206.972 167.963 206.768 167.784 206.616 167.558C206.467 167.329 206.392 167.068 206.392 166.777C206.392 166.513 206.442 166.279 206.541 166.075C206.64 165.87 206.786 165.698 206.978 165.559C207.174 165.416 207.417 165.309 207.708 165.238C208 165.163 208.338 165.126 208.722 165.126H209.499ZM213.116 161.048V168.19H211.772V161.048H213.116ZM215.636 163.159V168.19H214.293V163.159H215.636ZM214.209 161.848C214.209 161.653 214.277 161.492 214.413 161.364C214.55 161.237 214.733 161.174 214.962 161.174C215.188 161.174 215.37 161.237 215.506 161.364C215.646 161.492 215.715 161.653 215.715 161.848C215.715 162.043 215.646 162.205 215.506 162.332C215.37 162.459 215.188 162.522 214.962 162.522C214.733 162.522 214.55 162.459 214.413 162.332C214.277 162.205 214.209 162.043 214.209 161.848ZM220.747 167.144V168.19H216.924V167.144H220.747ZM220.672 163.931L217.464 168.19H216.566V167.395L219.761 163.159H220.672V163.931ZM220.198 163.159V164.21H216.641V163.159H220.198ZM224.304 167.056V164.815C224.304 164.653 224.277 164.516 224.225 164.401C224.172 164.283 224.09 164.192 223.978 164.126C223.87 164.061 223.729 164.029 223.555 164.029C223.406 164.029 223.278 164.055 223.169 164.108C223.061 164.157 222.977 164.23 222.918 164.326C222.859 164.419 222.83 164.529 222.83 164.657H221.49C221.49 164.443 221.54 164.24 221.639 164.047C221.738 163.855 221.883 163.686 222.072 163.541C222.261 163.392 222.486 163.276 222.746 163.192C223.009 163.108 223.304 163.066 223.629 163.066C224.02 163.066 224.367 163.131 224.671 163.262C224.975 163.392 225.213 163.587 225.387 163.847C225.564 164.108 225.652 164.433 225.652 164.824V166.977C225.652 167.253 225.669 167.479 225.703 167.656C225.737 167.829 225.787 167.981 225.852 168.111V168.19H224.499C224.434 168.054 224.384 167.884 224.35 167.679C224.319 167.471 224.304 167.264 224.304 167.056ZM224.48 165.126L224.49 165.884H223.741C223.564 165.884 223.411 165.904 223.281 165.945C223.15 165.985 223.044 166.042 222.96 166.117C222.876 166.188 222.814 166.272 222.774 166.368C222.737 166.464 222.718 166.569 222.718 166.684C222.718 166.799 222.744 166.902 222.797 166.995C222.85 167.085 222.926 167.157 223.025 167.209C223.124 167.259 223.24 167.284 223.374 167.284C223.575 167.284 223.75 167.243 223.899 167.163C224.048 167.082 224.163 166.983 224.243 166.865C224.327 166.747 224.37 166.636 224.373 166.53L224.727 167.098C224.677 167.225 224.609 167.357 224.522 167.493C224.438 167.629 224.332 167.758 224.201 167.879C224.071 167.997 223.915 168.094 223.732 168.172C223.549 168.246 223.332 168.283 223.081 168.283C222.761 168.283 222.472 168.22 222.211 168.093C221.954 167.963 221.749 167.784 221.597 167.558C221.449 167.329 221.374 167.068 221.374 166.777C221.374 166.513 221.424 166.279 221.523 166.075C221.622 165.87 221.768 165.698 221.96 165.559C222.155 165.416 222.399 165.309 222.69 165.238C222.982 165.163 223.319 165.126 223.704 165.126H224.48ZM229.656 167.093V161.048H231.004V168.19H229.79L229.656 167.093ZM226.475 165.735V165.638C226.475 165.253 226.518 164.905 226.605 164.591C226.692 164.275 226.819 164.004 226.987 163.778C227.154 163.551 227.36 163.376 227.605 163.252C227.85 163.128 228.129 163.066 228.442 163.066C228.736 163.066 228.994 163.128 229.214 163.252C229.437 163.376 229.626 163.553 229.781 163.782C229.939 164.009 230.066 164.277 230.162 164.587C230.258 164.894 230.328 165.23 230.372 165.596V165.81C230.328 166.16 230.258 166.485 230.162 166.786C230.066 167.087 229.939 167.35 229.781 167.577C229.626 167.8 229.437 167.973 229.214 168.097C228.991 168.221 228.73 168.283 228.433 168.283C228.12 168.283 227.841 168.22 227.596 168.093C227.354 167.966 227.149 167.787 226.982 167.558C226.818 167.329 226.692 167.059 226.605 166.749C226.518 166.439 226.475 166.101 226.475 165.735ZM227.814 165.638V165.735C227.814 165.943 227.83 166.137 227.861 166.317C227.895 166.496 227.949 166.656 228.023 166.795C228.101 166.932 228.2 167.039 228.321 167.116C228.445 167.191 228.595 167.228 228.772 167.228C229.001 167.228 229.191 167.177 229.339 167.074C229.488 166.969 229.601 166.825 229.679 166.642C229.759 166.459 229.806 166.248 229.818 166.01V165.401C229.809 165.205 229.781 165.03 229.735 164.875C229.691 164.717 229.626 164.582 229.539 164.471C229.456 164.359 229.35 164.272 229.223 164.21C229.099 164.148 228.952 164.117 228.781 164.117C228.608 164.117 228.459 164.157 228.335 164.238C228.211 164.316 228.11 164.423 228.033 164.559C227.958 164.695 227.903 164.857 227.865 165.042C227.831 165.225 227.814 165.424 227.814 165.638ZM234.766 167.056V164.815C234.766 164.653 234.739 164.516 234.687 164.401C234.634 164.283 234.552 164.192 234.44 164.126C234.332 164.061 234.191 164.029 234.017 164.029C233.868 164.029 233.74 164.055 233.631 164.108C233.523 164.157 233.439 164.23 233.38 164.326C233.321 164.419 233.292 164.529 233.292 164.657H231.953C231.953 164.443 232.002 164.24 232.101 164.047C232.201 163.855 232.345 163.686 232.534 163.541C232.723 163.392 232.948 163.276 233.208 163.192C233.472 163.108 233.766 163.066 234.092 163.066C234.482 163.066 234.829 163.131 235.133 163.262C235.437 163.392 235.676 163.587 235.849 163.847C236.026 164.108 236.114 164.433 236.114 164.824V166.977C236.114 167.253 236.131 167.479 236.165 167.656C236.199 167.829 236.249 167.981 236.314 168.111V168.19H234.961C234.896 168.054 234.846 167.884 234.812 167.679C234.781 167.471 234.766 167.264 234.766 167.056ZM234.942 165.126L234.952 165.884H234.203C234.026 165.884 233.873 165.904 233.743 165.945C233.613 165.985 233.506 166.042 233.422 166.117C233.338 166.188 233.276 166.272 233.236 166.368C233.199 166.464 233.18 166.569 233.18 166.684C233.18 166.799 233.206 166.902 233.259 166.995C233.312 167.085 233.388 167.157 233.487 167.209C233.586 167.259 233.702 167.284 233.836 167.284C234.037 167.284 234.212 167.243 234.361 167.163C234.51 167.082 234.625 166.983 234.705 166.865C234.789 166.747 234.832 166.636 234.835 166.53L235.189 167.098C235.139 167.225 235.071 167.357 234.984 167.493C234.901 167.629 234.794 167.758 234.663 167.879C234.533 167.997 234.377 168.094 234.194 168.172C234.011 168.246 233.794 168.283 233.543 168.283C233.224 168.283 232.934 168.22 232.673 168.093C232.416 167.963 232.211 167.784 232.06 167.558C231.911 167.329 231.836 167.068 231.836 166.777C231.836 166.513 231.886 166.279 231.985 166.075C232.084 165.87 232.23 165.698 232.422 165.559C232.618 165.416 232.861 165.309 233.152 165.238C233.444 165.163 233.782 165.126 234.166 165.126H234.942ZM168.52 178.237C168.684 178.237 168.83 178.206 168.957 178.144C169.084 178.079 169.183 177.989 169.254 177.875C169.329 177.757 169.367 177.619 169.371 177.461H170.631C170.628 177.814 170.533 178.129 170.347 178.405C170.161 178.677 169.912 178.893 169.598 179.051C169.285 179.206 168.935 179.283 168.548 179.283C168.157 179.283 167.816 179.218 167.525 179.088C167.236 178.958 166.996 178.778 166.804 178.549C166.612 178.316 166.468 178.047 166.371 177.74C166.275 177.43 166.227 177.098 166.227 176.745V176.61C166.227 176.253 166.275 175.922 166.371 175.615C166.468 175.305 166.612 175.035 166.804 174.806C166.996 174.573 167.236 174.392 167.525 174.262C167.813 174.131 168.151 174.066 168.538 174.066C168.951 174.066 169.312 174.145 169.622 174.303C169.935 174.462 170.18 174.688 170.356 174.982C170.536 175.274 170.628 175.619 170.631 176.019H169.371C169.367 175.852 169.332 175.7 169.264 175.564C169.199 175.427 169.102 175.319 168.975 175.238C168.851 175.154 168.698 175.113 168.515 175.113C168.32 175.113 168.16 175.154 168.036 175.238C167.912 175.319 167.816 175.43 167.748 175.573C167.68 175.712 167.632 175.872 167.604 176.052C167.579 176.228 167.566 176.414 167.566 176.61V176.745C167.566 176.94 167.579 177.127 167.604 177.307C167.628 177.487 167.675 177.647 167.743 177.786C167.814 177.926 167.912 178.036 168.036 178.116C168.16 178.197 168.321 178.237 168.52 178.237ZM171.193 176.726V176.628C171.193 176.259 171.246 175.92 171.351 175.61C171.457 175.297 171.61 175.026 171.812 174.796C172.013 174.567 172.261 174.389 172.556 174.262C172.85 174.131 173.188 174.066 173.569 174.066C173.951 174.066 174.29 174.131 174.588 174.262C174.885 174.389 175.135 174.567 175.336 174.796C175.541 175.026 175.696 175.297 175.801 175.61C175.907 175.92 175.959 176.259 175.959 176.628V176.726C175.959 177.092 175.907 177.431 175.801 177.744C175.696 178.054 175.541 178.326 175.336 178.558C175.135 178.787 174.887 178.966 174.592 179.093C174.298 179.22 173.96 179.283 173.579 179.283C173.197 179.283 172.858 179.22 172.56 179.093C172.266 178.966 172.016 178.787 171.812 178.558C171.61 178.326 171.457 178.054 171.351 177.744C171.246 177.431 171.193 177.092 171.193 176.726ZM172.532 176.628V176.726C172.532 176.937 172.551 177.134 172.588 177.317C172.625 177.499 172.684 177.661 172.765 177.8C172.849 177.937 172.957 178.043 173.09 178.121C173.224 178.198 173.386 178.237 173.579 178.237C173.765 178.237 173.924 178.198 174.058 178.121C174.191 178.043 174.298 177.937 174.378 177.8C174.459 177.661 174.518 177.499 174.555 177.317C174.595 177.134 174.616 176.937 174.616 176.726V176.628C174.616 176.424 174.595 176.232 174.555 176.052C174.518 175.869 174.457 175.708 174.374 175.568C174.293 175.426 174.186 175.314 174.053 175.233C173.92 175.153 173.758 175.113 173.569 175.113C173.38 175.113 173.219 175.153 173.086 175.233C172.956 175.314 172.849 175.426 172.765 175.568C172.684 175.708 172.625 175.869 172.588 176.052C172.551 176.232 172.532 176.424 172.532 176.628ZM178.122 175.201V179.19H176.778V174.159H178.038L178.122 175.201ZM177.936 176.498H177.564C177.564 176.148 177.605 175.826 177.689 175.531C177.776 175.233 177.901 174.976 178.066 174.759C178.233 174.539 178.439 174.369 178.684 174.248C178.929 174.127 179.213 174.066 179.535 174.066C179.758 174.066 179.963 174.1 180.149 174.169C180.335 174.234 180.495 174.338 180.628 174.48C180.764 174.62 180.87 174.803 180.944 175.029C181.018 175.252 181.056 175.52 181.056 175.833V179.19H179.716V175.982C179.716 175.753 179.685 175.576 179.623 175.452C179.561 175.328 179.473 175.241 179.358 175.192C179.247 175.142 179.112 175.117 178.954 175.117C178.78 175.117 178.628 175.153 178.498 175.224C178.371 175.295 178.266 175.395 178.182 175.522C178.098 175.646 178.036 175.791 177.996 175.959C177.956 176.126 177.936 176.306 177.936 176.498ZM180.93 176.345L180.451 176.405C180.451 176.077 180.491 175.771 180.572 175.489C180.656 175.207 180.778 174.959 180.939 174.745C181.104 174.531 181.307 174.365 181.548 174.248C181.79 174.127 182.069 174.066 182.385 174.066C182.627 174.066 182.847 174.102 183.046 174.173C183.244 174.241 183.413 174.352 183.553 174.503C183.695 174.652 183.804 174.847 183.878 175.089C183.956 175.331 183.994 175.627 183.994 175.977V179.19H182.65V175.977C182.65 175.745 182.619 175.568 182.557 175.447C182.499 175.323 182.412 175.238 182.297 175.192C182.185 175.142 182.052 175.117 181.897 175.117C181.736 175.117 181.595 175.15 181.474 175.215C181.353 175.277 181.252 175.364 181.172 175.475C181.091 175.587 181.031 175.717 180.99 175.866C180.95 176.011 180.93 176.171 180.93 176.345ZM190.123 177.8C190.123 177.704 190.095 177.617 190.039 177.54C189.983 177.462 189.879 177.391 189.728 177.326C189.579 177.258 189.363 177.196 189.081 177.14C188.827 177.084 188.59 177.014 188.37 176.931C188.153 176.844 187.964 176.74 187.802 176.619C187.644 176.498 187.52 176.356 187.431 176.191C187.341 176.024 187.296 175.833 187.296 175.619C187.296 175.409 187.341 175.21 187.431 175.024C187.523 174.838 187.655 174.674 187.826 174.531C187.999 174.386 188.21 174.272 188.458 174.192C188.709 174.108 188.991 174.066 189.304 174.066C189.741 174.066 190.117 174.136 190.43 174.276C190.746 174.415 190.988 174.607 191.155 174.852C191.326 175.094 191.411 175.37 191.411 175.68H190.072C190.072 175.55 190.044 175.433 189.988 175.331C189.935 175.226 189.852 175.144 189.737 175.085C189.625 175.023 189.48 174.992 189.3 174.992C189.151 174.992 189.022 175.018 188.914 175.071C188.805 175.12 188.722 175.188 188.663 175.275C188.607 175.359 188.579 175.452 188.579 175.554C188.579 175.632 188.595 175.702 188.626 175.764C188.66 175.822 188.714 175.877 188.788 175.926C188.863 175.976 188.959 176.022 189.077 176.066C189.197 176.106 189.346 176.143 189.523 176.177C189.886 176.252 190.21 176.349 190.495 176.47C190.78 176.588 191.006 176.749 191.174 176.954C191.341 177.155 191.425 177.42 191.425 177.749C191.425 177.972 191.375 178.177 191.276 178.363C191.177 178.549 191.034 178.711 190.848 178.851C190.662 178.987 190.439 179.094 190.179 179.172C189.921 179.246 189.631 179.283 189.309 179.283C188.841 179.283 188.444 179.2 188.119 179.032C187.796 178.865 187.551 178.653 187.384 178.395C187.22 178.135 187.138 177.868 187.138 177.596H188.407C188.413 177.778 188.46 177.926 188.546 178.037C188.636 178.149 188.75 178.229 188.886 178.279C189.025 178.329 189.176 178.353 189.337 178.353C189.511 178.353 189.655 178.33 189.769 178.284C189.884 178.234 189.971 178.169 190.03 178.088C190.092 178.005 190.123 177.909 190.123 177.8ZM195.27 177.986V174.159H196.609V179.19H195.349L195.27 177.986ZM195.419 176.954L195.814 176.945C195.814 177.279 195.775 177.591 195.698 177.879C195.62 178.164 195.504 178.412 195.349 178.623C195.194 178.831 194.999 178.994 194.763 179.111C194.528 179.226 194.25 179.283 193.931 179.283C193.686 179.283 193.46 179.249 193.252 179.181C193.047 179.11 192.871 179 192.722 178.851C192.576 178.699 192.462 178.505 192.378 178.27C192.297 178.031 192.257 177.744 192.257 177.41V174.159H193.596V177.419C193.596 177.568 193.613 177.693 193.647 177.795C193.685 177.898 193.736 177.981 193.801 178.047C193.866 178.112 193.942 178.158 194.029 178.186C194.118 178.214 194.218 178.228 194.326 178.228C194.602 178.228 194.819 178.172 194.977 178.061C195.138 177.949 195.252 177.797 195.317 177.605C195.385 177.41 195.419 177.193 195.419 176.954ZM199.711 178.237C199.875 178.237 200.021 178.206 200.148 178.144C200.275 178.079 200.374 177.989 200.445 177.875C200.52 177.757 200.559 177.619 200.562 177.461H201.822C201.819 177.814 201.724 178.129 201.538 178.405C201.352 178.677 201.103 178.893 200.789 179.051C200.476 179.206 200.126 179.283 199.739 179.283C199.348 179.283 199.007 179.218 198.716 179.088C198.427 178.958 198.187 178.778 197.995 178.549C197.803 178.316 197.659 178.047 197.562 177.74C197.466 177.43 197.418 177.098 197.418 176.745V176.61C197.418 176.253 197.466 175.922 197.562 175.615C197.659 175.305 197.803 175.035 197.995 174.806C198.187 174.573 198.427 174.392 198.716 174.262C199.004 174.131 199.342 174.066 199.729 174.066C200.142 174.066 200.503 174.145 200.813 174.303C201.126 174.462 201.371 174.688 201.547 174.982C201.727 175.274 201.819 175.619 201.822 176.019H200.562C200.559 175.852 200.523 175.7 200.455 175.564C200.39 175.427 200.293 175.319 200.166 175.238C200.042 175.154 199.889 175.113 199.706 175.113C199.511 175.113 199.351 175.154 199.227 175.238C199.103 175.319 199.007 175.43 198.939 175.573C198.871 175.712 198.823 175.872 198.795 176.052C198.77 176.228 198.757 176.414 198.757 176.61V176.745C198.757 176.94 198.77 177.127 198.795 177.307C198.819 177.487 198.866 177.647 198.934 177.786C199.005 177.926 199.103 178.036 199.227 178.116C199.351 178.197 199.512 178.237 199.711 178.237ZM204.914 179.283C204.523 179.283 204.173 179.221 203.863 179.097C203.553 178.97 203.29 178.795 203.073 178.572C202.859 178.349 202.694 178.09 202.58 177.795C202.465 177.498 202.408 177.182 202.408 176.847V176.661C202.408 176.28 202.462 175.931 202.57 175.615C202.679 175.299 202.834 175.024 203.035 174.792C203.24 174.559 203.488 174.381 203.779 174.257C204.071 174.13 204.399 174.066 204.765 174.066C205.122 174.066 205.438 174.125 205.714 174.243C205.99 174.361 206.22 174.528 206.406 174.745C206.596 174.962 206.738 175.223 206.834 175.526C206.93 175.827 206.978 176.162 206.978 176.531V177.089H202.98V176.196H205.662V176.094C205.662 175.908 205.628 175.742 205.56 175.596C205.495 175.447 205.396 175.33 205.263 175.243C205.129 175.156 204.959 175.113 204.751 175.113C204.574 175.113 204.423 175.151 204.295 175.229C204.168 175.306 204.064 175.415 203.984 175.554C203.906 175.694 203.847 175.858 203.807 176.047C203.77 176.233 203.751 176.438 203.751 176.661V176.847C203.751 177.048 203.779 177.234 203.835 177.405C203.894 177.575 203.976 177.723 204.082 177.847C204.19 177.971 204.32 178.067 204.472 178.135C204.627 178.203 204.802 178.237 204.998 178.237C205.239 178.237 205.464 178.191 205.672 178.098C205.883 178.002 206.064 177.857 206.216 177.665L206.867 178.372C206.761 178.524 206.617 178.67 206.434 178.809C206.255 178.949 206.038 179.063 205.783 179.153C205.529 179.24 205.239 179.283 204.914 179.283ZM210.461 177.8C210.461 177.704 210.433 177.617 210.377 177.54C210.322 177.462 210.218 177.391 210.066 177.326C209.917 177.258 209.702 177.196 209.42 177.14C209.165 177.084 208.928 177.014 208.708 176.931C208.491 176.844 208.302 176.74 208.141 176.619C207.983 176.498 207.859 176.356 207.769 176.191C207.679 176.024 207.634 175.833 207.634 175.619C207.634 175.409 207.679 175.21 207.769 175.024C207.862 174.838 207.994 174.674 208.164 174.531C208.338 174.386 208.548 174.272 208.796 174.192C209.048 174.108 209.33 174.066 209.643 174.066C210.08 174.066 210.455 174.136 210.768 174.276C211.084 174.415 211.326 174.607 211.493 174.852C211.664 175.094 211.749 175.37 211.749 175.68H210.41C210.41 175.55 210.382 175.433 210.326 175.331C210.274 175.226 210.19 175.144 210.075 175.085C209.964 175.023 209.818 174.992 209.638 174.992C209.489 174.992 209.361 175.018 209.252 175.071C209.144 175.12 209.06 175.188 209.001 175.275C208.945 175.359 208.917 175.452 208.917 175.554C208.917 175.632 208.933 175.702 208.964 175.764C208.998 175.822 209.052 175.877 209.127 175.926C209.201 175.976 209.297 176.022 209.415 176.066C209.536 176.106 209.685 176.143 209.861 176.177C210.224 176.252 210.548 176.349 210.833 176.47C211.118 176.588 211.345 176.749 211.512 176.954C211.679 177.155 211.763 177.42 211.763 177.749C211.763 177.972 211.713 178.177 211.614 178.363C211.515 178.549 211.372 178.711 211.186 178.851C211 178.987 210.777 179.094 210.517 179.172C210.26 179.246 209.97 179.283 209.647 179.283C209.179 179.283 208.782 179.2 208.457 179.032C208.135 178.865 207.89 178.653 207.722 178.395C207.558 178.135 207.476 177.868 207.476 177.596H208.745C208.752 177.778 208.798 177.926 208.885 178.037C208.975 178.149 209.088 178.229 209.224 178.279C209.364 178.329 209.514 178.353 209.675 178.353C209.849 178.353 209.993 178.33 210.108 178.284C210.222 178.234 210.309 178.169 210.368 178.088C210.43 178.005 210.461 177.909 210.461 177.8ZM215.353 177.8C215.353 177.704 215.325 177.617 215.269 177.54C215.213 177.462 215.109 177.391 214.957 177.326C214.809 177.258 214.593 177.196 214.311 177.14C214.057 177.084 213.82 177.014 213.6 176.931C213.383 176.844 213.194 176.74 213.032 176.619C212.874 176.498 212.75 176.356 212.66 176.191C212.571 176.024 212.526 175.833 212.526 175.619C212.526 175.409 212.571 175.21 212.66 175.024C212.753 174.838 212.885 174.674 213.056 174.531C213.229 174.386 213.44 174.272 213.688 174.192C213.939 174.108 214.221 174.066 214.534 174.066C214.971 174.066 215.347 174.136 215.66 174.276C215.976 174.415 216.218 174.607 216.385 174.852C216.555 175.094 216.641 175.37 216.641 175.68H215.302C215.302 175.55 215.274 175.433 215.218 175.331C215.165 175.226 215.081 175.144 214.967 175.085C214.855 175.023 214.709 174.992 214.53 174.992C214.381 174.992 214.252 175.018 214.144 175.071C214.035 175.12 213.952 175.188 213.893 175.275C213.837 175.359 213.809 175.452 213.809 175.554C213.809 175.632 213.824 175.702 213.855 175.764C213.89 175.822 213.944 175.877 214.018 175.926C214.093 175.976 214.189 176.022 214.306 176.066C214.427 176.106 214.576 176.143 214.753 176.177C215.116 176.252 215.439 176.349 215.725 176.47C216.01 176.588 216.236 176.749 216.404 176.954C216.571 177.155 216.655 177.42 216.655 177.749C216.655 177.972 216.605 178.177 216.506 178.363C216.407 178.549 216.264 178.711 216.078 178.851C215.892 178.987 215.669 179.094 215.409 179.172C215.151 179.246 214.861 179.283 214.539 179.283C214.071 179.283 213.674 179.2 213.349 179.032C213.026 178.865 212.781 178.653 212.614 178.395C212.45 178.135 212.368 177.868 212.368 177.596H213.637C213.643 177.778 213.69 177.926 213.776 178.037C213.866 178.149 213.979 178.229 214.116 178.279C214.255 178.329 214.406 178.353 214.567 178.353C214.74 178.353 214.885 178.33 214.999 178.284C215.114 178.234 215.201 178.169 215.26 178.088C215.322 178.005 215.353 177.909 215.353 177.8ZM217.31 176.726V176.628C217.31 176.259 217.363 175.92 217.468 175.61C217.574 175.297 217.727 175.026 217.929 174.796C218.13 174.567 218.378 174.389 218.673 174.262C218.967 174.131 219.305 174.066 219.686 174.066C220.068 174.066 220.407 174.131 220.705 174.262C221.002 174.389 221.252 174.567 221.453 174.796C221.658 175.026 221.813 175.297 221.918 175.61C222.024 175.92 222.076 176.259 222.076 176.628V176.726C222.076 177.092 222.024 177.431 221.918 177.744C221.813 178.054 221.658 178.326 221.453 178.558C221.252 178.787 221.004 178.966 220.709 179.093C220.415 179.22 220.077 179.283 219.696 179.283C219.314 179.283 218.975 179.22 218.677 179.093C218.383 178.966 218.133 178.787 217.929 178.558C217.727 178.326 217.574 178.054 217.468 177.744C217.363 177.431 217.31 177.092 217.31 176.726ZM218.649 176.628V176.726C218.649 176.937 218.668 177.134 218.705 177.317C218.742 177.499 218.801 177.661 218.882 177.8C218.966 177.937 219.074 178.043 219.207 178.121C219.341 178.198 219.503 178.237 219.696 178.237C219.882 178.237 220.041 178.198 220.175 178.121C220.308 178.043 220.415 177.937 220.495 177.8C220.576 177.661 220.635 177.499 220.672 177.317C220.712 177.134 220.733 176.937 220.733 176.726V176.628C220.733 176.424 220.712 176.232 220.672 176.052C220.635 175.869 220.574 175.708 220.491 175.568C220.41 175.426 220.303 175.314 220.17 175.233C220.037 175.153 219.875 175.113 219.686 175.113C219.497 175.113 219.336 175.153 219.203 175.233C219.073 175.314 218.966 175.426 218.882 175.568C218.801 175.708 218.742 175.869 218.705 176.052C218.668 176.232 218.649 176.424 218.649 176.628ZM224.411 172.42L224.257 177.121H223.141L222.983 172.42H224.411ZM222.946 178.577C222.946 178.378 223.014 178.214 223.15 178.084C223.29 177.95 223.473 177.884 223.699 177.884C223.929 177.884 224.111 177.95 224.248 178.084C224.384 178.214 224.452 178.378 224.452 178.577C224.452 178.769 224.384 178.932 224.248 179.065C224.111 179.198 223.929 179.265 223.699 179.265C223.473 179.265 223.29 179.198 223.15 179.065C223.014 178.932 222.946 178.769 222.946 178.577Z" fill="#34403B"/>
<rect x="149.523" y="192.073" width="91.8274" height="25.8477" rx="3.40102" fill="#0a5888"/>
<path d="M184.224 206.882L186.047 200.76H187.822L185.127 208.497H183.958L184.224 206.882ZM182.545 200.76L184.362 206.882L184.639 208.497H183.459L180.781 200.76H182.545ZM187.96 205.681V205.569C187.96 205.147 188.02 204.759 188.141 204.405C188.261 204.047 188.436 203.737 188.667 203.475C188.897 203.213 189.18 203.009 189.517 202.864C189.853 202.715 190.24 202.641 190.675 202.641C191.111 202.641 191.499 202.715 191.839 202.864C192.179 203.009 192.464 203.213 192.695 203.475C192.929 203.737 193.106 204.047 193.226 204.405C193.347 204.759 193.407 205.147 193.407 205.569V205.681C193.407 206.099 193.347 206.487 193.226 206.844C193.106 207.199 192.929 207.509 192.695 207.774C192.464 208.037 192.181 208.24 191.844 208.385C191.508 208.531 191.122 208.603 190.686 208.603C190.25 208.603 189.862 208.531 189.522 208.385C189.186 208.24 188.9 208.037 188.667 207.774C188.436 207.509 188.261 207.199 188.141 206.844C188.02 206.487 187.96 206.099 187.96 205.681ZM189.49 205.569V205.681C189.49 205.922 189.512 206.146 189.554 206.355C189.597 206.565 189.664 206.749 189.756 206.908C189.852 207.064 189.976 207.186 190.128 207.275C190.28 207.363 190.466 207.408 190.686 207.408C190.899 207.408 191.081 207.363 191.233 207.275C191.386 207.186 191.508 207.064 191.6 206.908C191.692 206.749 191.759 206.565 191.802 206.355C191.848 206.146 191.871 205.922 191.871 205.681V205.569C191.871 205.335 191.848 205.116 191.802 204.91C191.759 204.701 191.69 204.517 191.595 204.357C191.503 204.194 191.38 204.067 191.228 203.975C191.076 203.883 190.892 203.837 190.675 203.837C190.459 203.837 190.275 203.883 190.123 203.975C189.974 204.067 189.852 204.194 189.756 204.357C189.664 204.517 189.597 204.701 189.554 204.91C189.512 205.116 189.49 205.335 189.49 205.569ZM195.963 200.335V208.497H194.427V200.335H195.963ZM200.044 202.747V203.831H196.696V202.747H200.044ZM197.525 201.328H199.056V206.765C199.056 206.931 199.077 207.059 199.119 207.147C199.166 207.236 199.233 207.298 199.321 207.333C199.41 207.365 199.522 207.381 199.656 207.381C199.752 207.381 199.837 207.378 199.911 207.37C199.989 207.36 200.055 207.349 200.108 207.339L200.113 208.465C199.982 208.508 199.84 208.541 199.688 208.566C199.536 208.591 199.367 208.603 199.183 208.603C198.847 208.603 198.553 208.548 198.301 208.439C198.053 208.325 197.862 208.145 197.727 207.897C197.593 207.649 197.525 207.323 197.525 206.919V201.328ZM204.019 207.2V204.639C204.019 204.455 203.989 204.297 203.929 204.166C203.869 204.031 203.775 203.927 203.647 203.853C203.523 203.778 203.362 203.741 203.164 203.741C202.993 203.741 202.846 203.771 202.722 203.831C202.598 203.888 202.503 203.971 202.435 204.081C202.368 204.187 202.335 204.313 202.335 204.458H200.804C200.804 204.214 200.861 203.982 200.974 203.762C201.087 203.543 201.252 203.349 201.468 203.183C201.684 203.013 201.941 202.88 202.239 202.784C202.54 202.689 202.877 202.641 203.249 202.641C203.695 202.641 204.092 202.715 204.439 202.864C204.786 203.013 205.059 203.236 205.257 203.534C205.459 203.831 205.56 204.203 205.56 204.65V207.11C205.56 207.425 205.58 207.684 205.619 207.886C205.658 208.084 205.714 208.258 205.789 208.407V208.497H204.242C204.168 208.341 204.111 208.146 204.072 207.913C204.037 207.675 204.019 207.438 204.019 207.2ZM204.221 204.995L204.232 205.861H203.376C203.174 205.861 202.999 205.884 202.85 205.93C202.701 205.976 202.579 206.042 202.483 206.127C202.388 206.208 202.317 206.304 202.271 206.414C202.228 206.524 202.207 206.644 202.207 206.775C202.207 206.906 202.237 207.025 202.297 207.131C202.358 207.234 202.444 207.316 202.558 207.376C202.671 207.432 202.804 207.461 202.956 207.461C203.187 207.461 203.387 207.415 203.557 207.323C203.727 207.231 203.858 207.117 203.95 206.983C204.046 206.848 204.095 206.72 204.099 206.6L204.503 207.248C204.446 207.394 204.368 207.544 204.269 207.7C204.173 207.856 204.051 208.003 203.902 208.141C203.753 208.276 203.574 208.387 203.365 208.476C203.156 208.561 202.908 208.603 202.621 208.603C202.257 208.603 201.925 208.531 201.628 208.385C201.334 208.237 201.1 208.033 200.926 207.774C200.756 207.512 200.671 207.215 200.671 206.882C200.671 206.58 200.728 206.313 200.841 206.079C200.955 205.845 201.121 205.649 201.341 205.489C201.564 205.326 201.842 205.204 202.175 205.123C202.508 205.038 202.894 204.995 203.334 204.995H204.221ZM208.27 204.001V208.497H206.74V202.747H208.18L208.27 204.001ZM210.003 202.71L209.976 204.129C209.902 204.118 209.811 204.109 209.705 204.102C209.602 204.092 209.509 204.086 209.423 204.086C209.207 204.086 209.02 204.115 208.86 204.171C208.704 204.225 208.573 204.304 208.467 204.411C208.364 204.517 208.286 204.646 208.233 204.798C208.184 204.951 208.155 205.124 208.148 205.319L207.84 205.224C207.84 204.852 207.877 204.51 207.951 204.198C208.026 203.883 208.134 203.608 208.276 203.374C208.421 203.14 208.598 202.96 208.807 202.832C209.016 202.705 209.255 202.641 209.524 202.641C209.609 202.641 209.696 202.648 209.785 202.662C209.873 202.673 209.946 202.689 210.003 202.71Z" fill="white"/>
<path d="M264.478 111.576L259.036 117.018" stroke="#383838" stroke-width="1.08832" stroke-linecap="round" stroke-linejoin="round"/>
<path d="M259.036 111.576L264.478 117.018" stroke="#383838" stroke-width="1.08832" stroke-linecap="round" stroke-linejoin="round"/>
</g>
<g filter="url(#filter1_d_7121_41203)">
<rect x="6" y="6.14453" width="157.807" height="140.802" rx="9.52284" fill="white"/>
<path d="M57.7523 46.4336H56.2784L56.2877 45.3455H57.7523C58.1181 45.3455 58.4266 45.2634 58.6777 45.0991C58.9288 44.9317 59.1178 44.6884 59.2449 44.3691C59.3751 44.0498 59.4402 43.6638 59.4402 43.2113V42.8811C59.4402 42.5339 59.403 42.2286 59.3286 41.9651C59.2573 41.7016 59.1504 41.48 59.0078 41.3002C58.8652 41.1204 58.6901 40.9855 58.4824 40.8957C58.2747 40.8027 58.036 40.7562 57.7663 40.7562H56.2505V39.6634H57.7663C58.2189 39.6634 58.6327 39.7409 59.0078 39.8959C59.386 40.0478 59.713 40.2664 59.9889 40.5516C60.2648 40.8368 60.4771 41.1777 60.6259 41.5745C60.7778 41.9682 60.8538 42.4068 60.8538 42.8904V43.2113C60.8538 43.6917 60.7778 44.1304 60.6259 44.5272C60.4771 44.924 60.2648 45.2649 59.9889 45.5501C59.7161 45.8322 59.3891 46.0508 59.0078 46.2058C58.6296 46.3576 58.2111 46.4336 57.7523 46.4336ZM57.0688 39.6634V46.4336H55.6739V39.6634H57.0688ZM63.1973 41.4025V46.4336H61.8535V41.4025H63.1973ZM61.7698 40.0912C61.7698 39.8959 61.838 39.7347 61.9744 39.6076C62.1108 39.4806 62.2937 39.417 62.5231 39.417C62.7494 39.417 62.9307 39.4806 63.0671 39.6076C63.2066 39.7347 63.2763 39.8959 63.2763 40.0912C63.2763 40.2865 63.2066 40.4477 63.0671 40.5748C62.9307 40.7019 62.7494 40.7655 62.5231 40.7655C62.2937 40.7655 62.1108 40.7019 61.9744 40.5748C61.838 40.4477 61.7698 40.2865 61.7698 40.0912ZM67.4891 41.4025H68.7027V46.2662C68.7027 46.725 68.6004 47.114 68.3958 47.4333C68.1943 47.7557 67.9122 47.999 67.5495 48.1633C67.1868 48.3307 66.7653 48.4144 66.2848 48.4144C66.074 48.4144 65.8508 48.3865 65.6152 48.3307C65.3827 48.2749 65.1595 48.1881 64.9456 48.0703C64.7348 47.9525 64.5581 47.8037 64.4155 47.6239L65.0061 46.8335C65.1611 47.0133 65.3409 47.1528 65.5455 47.252C65.75 47.3543 65.9763 47.4054 66.2243 47.4054C66.4661 47.4054 66.6707 47.3605 66.8381 47.2706C67.0055 47.1838 67.1341 47.0551 67.224 46.8846C67.3139 46.7172 67.3589 46.5142 67.3589 46.2755V42.5649L67.4891 41.4025ZM64.104 43.9785V43.8808C64.104 43.4965 64.1505 43.1477 64.2435 42.8346C64.3396 42.5184 64.4744 42.2472 64.648 42.0209C64.8247 41.7946 65.0386 41.6195 65.2897 41.4955C65.5408 41.3715 65.8244 41.3095 66.1406 41.3095C66.4754 41.3095 66.756 41.3715 66.9823 41.4955C67.2085 41.6195 67.3945 41.7962 67.5402 42.0256C67.6859 42.2519 67.7991 42.52 67.8797 42.83C67.9634 43.1369 68.0285 43.4732 68.075 43.839V44.0529C68.0285 44.4032 67.9587 44.7287 67.8657 45.0293C67.7727 45.33 67.6503 45.5935 67.4984 45.8198C67.3465 46.043 67.1574 46.2166 66.9311 46.3406C66.7079 46.4646 66.4413 46.5266 66.1313 46.5266C65.8213 46.5266 65.5408 46.463 65.2897 46.3359C65.0417 46.2089 64.8294 46.0306 64.6527 45.8012C64.476 45.5718 64.3396 45.3021 64.2435 44.9921C64.1505 44.6822 64.104 44.3443 64.104 43.9785ZM65.4432 43.8808V43.9785C65.4432 44.1862 65.4633 44.3799 65.5036 44.5597C65.5439 44.7395 65.6059 44.8992 65.6896 45.0386C65.7764 45.175 65.8833 45.282 66.0104 45.3595C66.1406 45.4339 66.2941 45.4711 66.4708 45.4711C66.7157 45.4711 66.9156 45.4199 67.0706 45.3176C67.2256 45.2122 67.3418 45.0681 67.4193 44.8852C67.4968 44.7023 67.5418 44.4915 67.5542 44.2528V43.6437C67.548 43.4484 67.5216 43.2733 67.4751 43.1183C67.4286 42.9602 67.3635 42.8253 67.2798 42.7137C67.1961 42.6021 67.0876 42.5153 66.9544 42.4533C66.8211 42.3913 66.663 42.3603 66.4801 42.3603C66.3034 42.3603 66.1499 42.4006 66.0197 42.4812C65.8926 42.5587 65.7857 42.6657 65.6989 42.8021C65.6152 42.9385 65.5517 43.0997 65.5083 43.2857C65.4649 43.4686 65.4432 43.6669 65.4432 43.8808ZM71.1578 41.4025V46.4336H69.814V41.4025H71.1578ZM69.7303 40.0912C69.7303 39.8959 69.7985 39.7347 69.9349 39.6076C70.0713 39.4806 70.2542 39.417 70.4836 39.417C70.7099 39.417 70.8912 39.4806 71.0276 39.6076C71.1671 39.7347 71.2368 39.8959 71.2368 40.0912C71.2368 40.2865 71.1671 40.4477 71.0276 40.5748C70.8912 40.7019 70.7099 40.7655 70.4836 40.7655C70.2542 40.7655 70.0713 40.7019 69.9349 40.5748C69.7985 40.4477 69.7303 40.2865 69.7303 40.0912ZM74.7289 41.4025V42.351H71.7995V41.4025H74.7289ZM72.5248 40.161H73.864V44.9178C73.864 45.0634 73.8826 45.175 73.9198 45.2525C73.9601 45.33 74.019 45.3843 74.0965 45.4153C74.174 45.4432 74.2716 45.4571 74.3894 45.4571C74.4731 45.4571 74.5475 45.454 74.6126 45.4478C74.6808 45.4385 74.7382 45.4292 74.7847 45.4199L74.7893 46.4057C74.6746 46.4429 74.5506 46.4723 74.4173 46.494C74.284 46.5157 74.1368 46.5266 73.9756 46.5266C73.6811 46.5266 73.4238 46.4785 73.2037 46.3824C72.9867 46.2832 72.8193 46.1252 72.7015 45.9082C72.5837 45.6912 72.5248 45.406 72.5248 45.0526V40.161ZM77.807 46.5266C77.4165 46.5266 77.0662 46.4646 76.7562 46.3406C76.4462 46.2135 76.1827 46.0384 75.9657 45.8152C75.7518 45.592 75.5875 45.3331 75.4728 45.0386C75.3581 44.7411 75.3008 44.4249 75.3008 44.0901V43.9041C75.3008 43.5228 75.355 43.1741 75.4635 42.8579C75.572 42.5417 75.727 42.2673 75.9285 42.0349C76.1331 41.8024 76.3811 41.6241 76.6725 41.5001C76.9639 41.373 77.2925 41.3095 77.6583 41.3095C78.0147 41.3095 78.3309 41.3684 78.6068 41.4862C78.8827 41.604 79.1136 41.7714 79.2996 41.9884C79.4887 42.2054 79.6313 42.4657 79.7274 42.7695C79.8235 43.0702 79.8716 43.405 79.8716 43.7739V44.3319H75.8727V43.4391H78.5557V43.3368C78.5557 43.1508 78.5216 42.985 78.4534 42.8393C78.3883 42.6905 78.2891 42.5727 78.1558 42.4859C78.0225 42.3991 77.852 42.3557 77.6443 42.3557C77.4676 42.3557 77.3157 42.3944 77.1886 42.4719C77.0615 42.5494 76.9577 42.6579 76.8771 42.7974C76.7996 42.9369 76.7407 43.1012 76.7004 43.2903C76.6632 43.4763 76.6446 43.6809 76.6446 43.9041V44.0901C76.6446 44.2916 76.6725 44.4776 76.7283 44.6481C76.7872 44.8186 76.8693 44.9658 76.9747 45.0898C77.0832 45.2138 77.2134 45.3099 77.3653 45.3781C77.5203 45.4463 77.6955 45.4804 77.8907 45.4804C78.1325 45.4804 78.3573 45.4339 78.565 45.3409C78.7758 45.2448 78.9571 45.1006 79.109 44.9085L79.76 45.6152C79.6546 45.7671 79.5104 45.9128 79.3275 46.0523C79.1477 46.1918 78.9308 46.3065 78.6766 46.3964C78.4224 46.4832 78.1325 46.5266 77.807 46.5266ZM85.7257 45.0433C85.7257 44.9472 85.6978 44.8604 85.642 44.7829C85.5862 44.7054 85.4824 44.6341 85.3305 44.569C85.1817 44.5008 84.9662 44.4388 84.6841 44.383C84.4299 44.3272 84.1928 44.2575 83.9727 44.1738C83.7557 44.087 83.5666 43.9831 83.4054 43.8622C83.2473 43.7413 83.1233 43.5987 83.0335 43.4345C82.9436 43.2671 82.8986 43.0764 82.8986 42.8625C82.8986 42.6517 82.9436 42.4533 83.0335 42.2673C83.1264 42.0814 83.2582 41.9171 83.4287 41.7745C83.6023 41.6288 83.8131 41.5156 84.0611 41.435C84.3122 41.3513 84.5942 41.3095 84.9073 41.3095C85.3444 41.3095 85.7195 41.3792 86.0326 41.5187C86.3488 41.6582 86.5906 41.8504 86.758 42.0953C86.9285 42.3371 87.0137 42.613 87.0137 42.923H85.6746C85.6746 42.7928 85.6467 42.6765 85.5909 42.5742C85.5382 42.4688 85.4545 42.3867 85.3398 42.3278C85.2282 42.2658 85.0825 42.2348 84.9027 42.2348C84.7539 42.2348 84.6252 42.2612 84.5167 42.3138C84.4082 42.3634 84.3246 42.4316 84.2657 42.5184C84.2099 42.6021 84.182 42.6951 84.182 42.7974C84.182 42.8749 84.1975 42.9447 84.2285 43.0067C84.2626 43.0656 84.3168 43.1198 84.3912 43.1694C84.4656 43.219 84.5617 43.2655 84.6795 43.3089C84.8004 43.3492 84.9492 43.3864 85.1259 43.4205C85.4886 43.4949 85.8125 43.5926 86.0977 43.7134C86.3829 43.8312 86.6092 43.9924 86.7766 44.197C86.944 44.3985 87.0277 44.6636 87.0277 44.9921C87.0277 45.2153 86.9781 45.4199 86.8789 45.6059C86.7797 45.7919 86.6371 45.9547 86.4511 46.0942C86.2651 46.2306 86.0419 46.3375 85.7815 46.415C85.5242 46.4894 85.2344 46.5266 84.912 46.5266C84.4439 46.5266 84.0471 46.4429 83.7216 46.2755C83.3992 46.1081 83.1543 45.8958 82.987 45.6385C82.8227 45.3781 82.7405 45.1115 82.7405 44.8387H84.0099C84.0161 45.0216 84.0626 45.1688 84.1494 45.2804C84.2393 45.392 84.3525 45.4726 84.4888 45.5222C84.6283 45.5718 84.7787 45.5966 84.9399 45.5966C85.1135 45.5966 85.2576 45.5734 85.3723 45.5269C85.487 45.4773 85.5738 45.4122 85.6327 45.3316C85.6947 45.2479 85.7257 45.1518 85.7257 45.0433ZM90.2128 46.5266C89.8222 46.5266 89.4719 46.4646 89.1619 46.3406C88.8519 46.2135 88.5884 46.0384 88.3715 45.8152C88.1576 45.592 87.9933 45.3331 87.8786 45.0386C87.7639 44.7411 87.7065 44.4249 87.7065 44.0901V43.9041C87.7065 43.5228 87.7608 43.1741 87.8693 42.8579C87.9778 42.5417 88.1328 42.2673 88.3343 42.0349C88.5388 41.8024 88.7868 41.6241 89.0782 41.5001C89.3696 41.373 89.6982 41.3095 90.064 41.3095C90.4205 41.3095 90.7367 41.3684 91.0126 41.4862C91.2884 41.604 91.5194 41.7714 91.7054 41.9884C91.8945 42.2054 92.0371 42.4657 92.1332 42.7695C92.2293 43.0702 92.2773 43.405 92.2773 43.7739V44.3319H88.2785V43.4391H90.9614V43.3368C90.9614 43.1508 90.9273 42.985 90.8591 42.8393C90.794 42.6905 90.6948 42.5727 90.5615 42.4859C90.4282 42.3991 90.2577 42.3557 90.05 42.3557C89.8733 42.3557 89.7215 42.3944 89.5944 42.4719C89.4673 42.5494 89.3634 42.6579 89.2828 42.7974C89.2053 42.9369 89.1464 43.1012 89.1061 43.2903C89.0689 43.4763 89.0503 43.6809 89.0503 43.9041V44.0901C89.0503 44.2916 89.0782 44.4776 89.134 44.6481C89.1929 44.8186 89.2751 44.9658 89.3805 45.0898C89.489 45.2138 89.6192 45.3099 89.771 45.3781C89.926 45.4463 90.1012 45.4804 90.2965 45.4804C90.5383 45.4804 90.763 45.4339 90.9707 45.3409C91.1815 45.2448 91.3628 45.1006 91.5147 44.9085L92.1657 45.6152C92.0603 45.7671 91.9162 45.9128 91.7333 46.0523C91.5535 46.1918 91.3365 46.3065 91.0823 46.3964C90.8281 46.4832 90.5383 46.5266 90.2128 46.5266ZM96.0158 45.2293V41.4025H97.3549V46.4336H96.0948L96.0158 45.2293ZM96.1646 44.197L96.5598 44.1877C96.5598 44.5225 96.521 44.8341 96.4435 45.1223C96.3661 45.4075 96.2498 45.6555 96.0948 45.8663C95.9398 46.074 95.7445 46.2368 95.5089 46.3545C95.2733 46.4692 94.9959 46.5266 94.6766 46.5266C94.4317 46.5266 94.2054 46.4925 93.9977 46.4243C93.7931 46.353 93.6165 46.243 93.4677 46.0942C93.322 45.9423 93.2073 45.7485 93.1236 45.5129C93.043 45.2742 93.0027 44.9875 93.0027 44.6527V41.4025H94.3418V44.662C94.3418 44.8108 94.3589 44.9363 94.393 45.0386C94.4302 45.1409 94.4813 45.2246 94.5464 45.2897C94.6115 45.3548 94.6875 45.4013 94.7743 45.4292C94.8642 45.4571 94.9634 45.4711 95.0719 45.4711C95.3477 45.4711 95.5647 45.4153 95.7228 45.3037C95.884 45.1921 95.9972 45.0402 96.0623 44.848C96.1305 44.6527 96.1646 44.4357 96.1646 44.197ZM103.469 44.0203H101.744V42.9323H103.469C103.736 42.9323 103.953 42.8889 104.12 42.8021C104.288 42.7122 104.41 42.5882 104.488 42.4301C104.565 42.272 104.604 42.0938 104.604 41.8954C104.604 41.6939 104.565 41.5063 104.488 41.3327C104.41 41.1591 104.288 41.0196 104.12 40.9143C103.953 40.8089 103.736 40.7562 103.469 40.7562H102.228V46.4336H100.833V39.6634H103.469C104 39.6634 104.454 39.7595 104.832 39.9517C105.213 40.1408 105.505 40.4028 105.706 40.7376C105.907 41.0723 106.008 41.4552 106.008 41.8861C106.008 42.3231 105.907 42.7013 105.706 43.0206C105.505 43.3399 105.213 43.5864 104.832 43.7599C104.454 43.9335 104 44.0203 103.469 44.0203ZM108.454 39.6634V46.4336H107.064V39.6634H108.454ZM115.271 39.6634V46.4336H113.876L111.156 41.8954V46.4336H109.761V39.6634H111.156L113.88 44.2063V39.6634H115.271Z" fill="black"/>
<rect x="25.386" y="61.5813" width="120.396" height="25.8477" rx="12.5838" fill="white"/>
<rect x="68.5791" y="71.4443" width="5.44162" height="6.12183" rx="2.38071" fill="#8C8C8C"/>
<rect x="78.1016" y="71.4443" width="5.44162" height="6.12183" rx="2.38071" fill="#8C8C8C"/>
<rect x="87.625" y="71.4443" width="5.44162" height="6.12183" rx="2.38071" fill="#8C8C8C"/>
<rect x="97.1475" y="71.4443" width="5.44162" height="6.12183" rx="2.38071" fill="#8C8C8C"/>
<rect x="25.386" y="61.5813" width="120.396" height="25.8477" rx="12.5838" stroke="#C6C6C6" stroke-width="0.680203"/>
<rect x="25.0459" y="101.373" width="121.076" height="25.8477" rx="3.40102" fill="#0a5888"/>
<path d="M66.1447 115.23H67.7336C67.7017 115.751 67.5583 116.213 67.3032 116.617C67.0516 117.021 66.6991 117.336 66.2457 117.563C65.7958 117.79 65.2537 117.903 64.6196 117.903C64.1236 117.903 63.679 117.818 63.2857 117.648C62.8925 117.474 62.5559 117.226 62.2761 116.904C61.9997 116.582 61.7889 116.192 61.6437 115.735C61.4984 115.278 61.4258 114.766 61.4258 114.199V113.663C61.4258 113.096 61.5002 112.584 61.649 112.127C61.8013 111.666 62.0174 111.275 62.2973 110.952C62.5807 110.63 62.9191 110.382 63.3123 110.208C63.7055 110.035 64.1448 109.948 64.6302 109.948C65.275 109.948 65.8188 110.065 66.2616 110.299C66.708 110.533 67.0534 110.855 67.2979 111.266C67.5459 111.677 67.6947 112.144 67.7443 112.669H66.15C66.1323 112.357 66.0703 112.093 65.964 111.877C65.8578 111.657 65.6966 111.493 65.4805 111.383C65.2679 111.269 64.9845 111.213 64.6302 111.213C64.3645 111.213 64.1324 111.262 63.9341 111.362C63.7357 111.461 63.5692 111.611 63.4345 111.813C63.2999 112.015 63.1989 112.27 63.1316 112.578C63.0679 112.883 63.036 113.241 63.036 113.652V114.199C63.036 114.6 63.0661 114.952 63.1263 115.257C63.1865 115.558 63.2786 115.813 63.4026 116.022C63.5302 116.227 63.6931 116.383 63.8915 116.49C64.0935 116.592 64.3362 116.644 64.6196 116.644C64.9526 116.644 65.2271 116.591 65.4433 116.484C65.6594 116.378 65.8241 116.22 65.9375 116.011C66.0544 115.802 66.1235 115.542 66.1447 115.23ZM68.4404 114.98V114.869C68.4404 114.447 68.5006 114.059 68.6211 113.705C68.7415 113.347 68.9169 113.037 69.1472 112.775C69.3774 112.513 69.6609 112.309 69.9974 112.164C70.334 112.015 70.7201 111.941 71.1559 111.941C71.5917 111.941 71.9796 112.015 72.3197 112.164C72.6598 112.309 72.945 112.513 73.1752 112.775C73.4091 113.037 73.5862 113.347 73.7067 113.705C73.8271 114.059 73.8873 114.447 73.8873 114.869V114.98C73.8873 115.398 73.8271 115.786 73.7067 116.144C73.5862 116.498 73.4091 116.808 73.1752 117.074C72.945 117.336 72.6616 117.54 72.325 117.685C71.9884 117.831 71.6023 117.903 71.1665 117.903C70.7308 117.903 70.3428 117.831 70.0027 117.685C69.6662 117.54 69.381 117.336 69.1472 117.074C68.9169 116.808 68.7415 116.498 68.6211 116.144C68.5006 115.786 68.4404 115.398 68.4404 114.98ZM69.9709 114.869V114.98C69.9709 115.221 69.9921 115.446 70.0346 115.655C70.0771 115.864 70.1444 116.049 70.2366 116.208C70.3322 116.364 70.4562 116.486 70.6085 116.575C70.7609 116.663 70.9469 116.707 71.1665 116.707C71.3791 116.707 71.5615 116.663 71.7139 116.575C71.8662 116.486 71.9884 116.364 72.0805 116.208C72.1727 116.049 72.24 115.864 72.2825 115.655C72.3285 115.446 72.3516 115.221 72.3516 114.98V114.869C72.3516 114.635 72.3285 114.415 72.2825 114.21C72.24 114.001 72.1709 113.817 72.0752 113.657C71.9831 113.494 71.8609 113.367 71.7086 113.275C71.5562 113.182 71.372 113.136 71.1559 113.136C70.9398 113.136 70.7556 113.182 70.6032 113.275C70.4544 113.367 70.3322 113.494 70.2366 113.657C70.1444 113.817 70.0771 114.001 70.0346 114.21C69.9921 114.415 69.9709 114.635 69.9709 114.869ZM76.3265 113.275V117.797H74.796V112.047H76.2308L76.3265 113.275ZM76.1033 114.72H75.6888C75.6888 114.295 75.7437 113.912 75.8535 113.572C75.9634 113.229 76.1175 112.936 76.3159 112.695C76.5143 112.451 76.7499 112.265 77.0226 112.137C77.299 112.006 77.6072 111.941 77.9473 111.941C78.2165 111.941 78.4628 111.98 78.686 112.058C78.9091 112.136 79.1005 112.26 79.2599 112.43C79.4228 112.6 79.5468 112.825 79.6319 113.105C79.7204 113.384 79.7647 113.726 79.7647 114.13V117.797H78.2236V114.125C78.2236 113.87 78.1882 113.671 78.1173 113.53C78.0465 113.388 77.942 113.289 77.8038 113.232C77.6692 113.172 77.5027 113.142 77.3043 113.142C77.0988 113.142 76.9199 113.182 76.7676 113.264C76.6188 113.345 76.4948 113.459 76.3956 113.604C76.2999 113.746 76.2273 113.912 76.1777 114.104C76.1281 114.295 76.1033 114.5 76.1033 114.72ZM82.8416 117.797H81.3058V111.787C81.3058 111.298 81.405 110.885 81.6034 110.548C81.8053 110.212 82.0923 109.957 82.4643 109.783C82.8398 109.61 83.2933 109.523 83.8247 109.523C84.1258 109.523 84.4181 109.553 84.7015 109.613C84.9849 109.67 85.2772 109.744 85.5783 109.836L85.3551 111.064C85.1603 111.004 84.9513 110.947 84.7281 110.894C84.5049 110.841 84.2356 110.814 83.9203 110.814C83.5661 110.814 83.2968 110.897 83.1126 111.064C82.9319 111.227 82.8416 111.468 82.8416 111.787V117.797ZM83.9841 112.047V113.131H80.4502V112.047H83.9841ZM86.2904 112.047V117.797H84.7546V112.047H86.2904ZM89.1016 113.301V117.797H87.5711V112.047H89.0112L89.1016 113.301ZM90.834 112.01L90.8074 113.429C90.733 113.418 90.6426 113.409 90.5364 113.402C90.4336 113.391 90.3397 113.386 90.2547 113.386C90.0386 113.386 89.8509 113.415 89.6914 113.471C89.5355 113.524 89.4045 113.604 89.2982 113.71C89.1954 113.817 89.1175 113.946 89.0644 114.098C89.0148 114.251 88.9864 114.424 88.9793 114.619L88.6711 114.523C88.6711 114.151 88.7083 113.81 88.7827 113.498C88.8571 113.182 88.9652 112.908 89.1069 112.674C89.2521 112.44 89.4293 112.26 89.6383 112.132C89.8473 112.005 90.0864 111.941 90.3557 111.941C90.4407 111.941 90.5275 111.948 90.6161 111.962C90.7046 111.973 90.7773 111.989 90.834 112.01ZM93.0871 113.237V117.797H91.5514V112.047H92.9915L93.0871 113.237ZM92.8746 114.72H92.4494C92.4494 114.32 92.4973 113.951 92.5929 113.615C92.6921 113.275 92.8356 112.981 93.0234 112.733C93.2147 112.481 93.4503 112.286 93.7301 112.148C94.01 112.01 94.3342 111.941 94.7026 111.941C94.9577 111.941 95.1915 111.98 95.4041 112.058C95.6166 112.132 95.7991 112.251 95.9514 112.414C96.1073 112.573 96.2278 112.782 96.3128 113.041C96.3978 113.296 96.4403 113.602 96.4403 113.96V117.797H94.9099V114.13C94.9099 113.868 94.8744 113.666 94.8036 113.524C94.7327 113.383 94.6318 113.283 94.5007 113.227C94.3731 113.17 94.219 113.142 94.0384 113.142C93.84 113.142 93.6664 113.182 93.5176 113.264C93.3723 113.345 93.2519 113.459 93.1562 113.604C93.0606 113.746 92.9897 113.912 92.9436 114.104C92.8976 114.295 92.8746 114.5 92.8746 114.72ZM96.2968 114.545L95.7495 114.614C95.7495 114.238 95.7955 113.889 95.8877 113.567C95.9833 113.244 96.1232 112.961 96.3075 112.717C96.4952 112.472 96.7273 112.283 97.0036 112.148C97.2799 112.01 97.5988 111.941 97.9601 111.941C98.2365 111.941 98.488 111.981 98.7147 112.063C98.9415 112.141 99.1346 112.267 99.294 112.44C99.4569 112.61 99.5809 112.834 99.666 113.11C99.7545 113.386 99.7988 113.725 99.7988 114.125V117.797H98.263V114.125C98.263 113.859 98.2276 113.657 98.1568 113.519C98.0895 113.377 97.9903 113.28 97.8592 113.227C97.7316 113.17 97.5793 113.142 97.4022 113.142C97.2179 113.142 97.0568 113.179 96.9186 113.253C96.7804 113.324 96.6653 113.423 96.5732 113.551C96.4811 113.678 96.412 113.827 96.3659 113.997C96.3199 114.164 96.2968 114.346 96.2968 114.545ZM104.087 116.5V113.939C104.087 113.755 104.057 113.597 103.997 113.466C103.937 113.331 103.843 113.227 103.715 113.152C103.591 113.078 103.43 113.041 103.232 113.041C103.062 113.041 102.915 113.071 102.791 113.131C102.667 113.188 102.571 113.271 102.504 113.381C102.436 113.487 102.403 113.613 102.403 113.758H100.872C100.872 113.514 100.929 113.282 101.042 113.062C101.156 112.842 101.32 112.649 101.537 112.483C101.753 112.313 102.009 112.18 102.307 112.084C102.608 111.989 102.945 111.941 103.317 111.941C103.763 111.941 104.16 112.015 104.507 112.164C104.854 112.313 105.127 112.536 105.325 112.834C105.527 113.131 105.628 113.503 105.628 113.949V116.41C105.628 116.725 105.648 116.984 105.687 117.186C105.726 117.384 105.782 117.558 105.857 117.707V117.797H104.31C104.236 117.641 104.179 117.446 104.14 117.212C104.105 116.975 104.087 116.738 104.087 116.5ZM104.289 114.295L104.3 115.161H103.444C103.242 115.161 103.067 115.184 102.918 115.23C102.769 115.276 102.647 115.342 102.552 115.427C102.456 115.508 102.385 115.604 102.339 115.714C102.296 115.824 102.275 115.944 102.275 116.075C102.275 116.206 102.305 116.325 102.366 116.431C102.426 116.534 102.513 116.615 102.626 116.676C102.739 116.732 102.872 116.761 103.024 116.761C103.255 116.761 103.455 116.715 103.625 116.622C103.795 116.53 103.926 116.417 104.018 116.282C104.114 116.148 104.163 116.02 104.167 115.9L104.571 116.548C104.514 116.693 104.436 116.844 104.337 117C104.241 117.156 104.119 117.303 103.97 117.441C103.822 117.575 103.643 117.687 103.434 117.776C103.225 117.861 102.977 117.903 102.69 117.903C102.325 117.903 101.994 117.831 101.696 117.685C101.402 117.536 101.168 117.333 100.994 117.074C100.824 116.812 100.739 116.514 100.739 116.181C100.739 115.88 100.796 115.613 100.909 115.379C101.023 115.145 101.189 114.949 101.409 114.789C101.632 114.626 101.91 114.504 102.243 114.422C102.576 114.337 102.962 114.295 103.402 114.295H104.289ZM108.339 113.301V117.797H106.808V112.047H108.248L108.339 113.301ZM110.071 112.01L110.044 113.429C109.97 113.418 109.88 113.409 109.773 113.402C109.671 113.391 109.577 113.386 109.492 113.386C109.276 113.386 109.088 113.415 108.928 113.471C108.773 113.524 108.641 113.604 108.535 113.71C108.432 113.817 108.354 113.946 108.301 114.098C108.252 114.251 108.223 114.424 108.216 114.619L107.908 114.523C107.908 114.151 107.945 113.81 108.02 113.498C108.094 113.182 108.202 112.908 108.344 112.674C108.489 112.44 108.666 112.26 108.875 112.132C109.084 112.005 109.323 111.941 109.593 111.941C109.678 111.941 109.765 111.948 109.853 111.962C109.942 111.973 110.014 111.989 110.071 112.01Z" fill="white"/>
<path d="M154.284 15.668L148.843 21.1096" stroke="#383838" stroke-width="1.08832" stroke-linecap="round" stroke-linejoin="round"/>
<path d="M148.843 15.668L154.284 21.1096" stroke="#383838" stroke-width="1.08832" stroke-linecap="round" stroke-linejoin="round"/>
</g>
<defs>
<filter id="filter0_d_7121_41203" x="110.752" y="96.6121" width="168.69" height="151.685" filterUnits="userSpaceOnUse" color-interpolation-filters="sRGB">
<feFlood flood-opacity="0" result="BackgroundImageFix"/>
<feColorMatrix in="SourceAlpha" type="matrix" values="0 0 0 0 0 0 0 0 0 0 0 0 0 0 0 0 0 0 127 0" result="hardAlpha"/>
<feOffset/>
<feGaussianBlur stdDeviation="2.72081"/>
<feColorMatrix type="matrix" values="0 0 0 0 0 0 0 0 0 0 0 0 0 0 0 0 0 0 0.25 0"/>
<feBlend mode="normal" in2="BackgroundImageFix" result="effect1_dropShadow_7121_41203"/>
<feBlend mode="normal" in="SourceGraphic" in2="effect1_dropShadow_7121_41203" result="shape"/>
</filter>
<filter id="filter1_d_7121_41203" x="0.558375" y="0.702907" width="168.69" height="151.685" filterUnits="userSpaceOnUse" color-interpolation-filters="sRGB">
<feFlood flood-opacity="0" result="BackgroundImageFix"/>
<feColorMatrix in="SourceAlpha" type="matrix" values="0 0 0 0 0 0 0 0 0 0 0 0 0 0 0 0 0 0 127 0" result="hardAlpha"/>
<feOffset/>
<feGaussianBlur stdDeviation="2.72081"/>
<feColorMatrix type="matrix" values="0 0 0 0 0 0 0 0 0 0 0 0 0 0 0 0 0 0 0.25 0"/>
<feBlend mode="normal" in2="BackgroundImageFix" result="effect1_dropShadow_7121_41203"/>
<feBlend mode="normal" in="SourceGraphic" in2="effect1_dropShadow_7121_41203" result="shape"/>
</filter>
</defs>
</svg>
