<svg width="28" height="32" viewBox="0 0 28 32" fill="none" xmlns="http://www.w3.org/2000/svg">
<path fill-rule="evenodd" clip-rule="evenodd" d="M5 0C3.89543 0 3 0.89543 3 2V30H25V2C25 0.895431 24.1046 0 23 0H5ZM8 4C7.44772 4 7 4.44772 7 5V8C7 8.55229 7.44772 9 8 9H12C12.5523 9 13 8.55229 13 8V5C13 4.44772 12.5523 4 12 4H8ZM15 5C15 4.44772 15.4477 4 16 4H20C20.5523 4 21 4.44772 21 5V8C21 8.55229 20.5523 9 20 9H16C15.4477 9 15 8.55229 15 8V5ZM8 11C7.44772 11 7 11.4477 7 12V15C7 15.5523 7.44772 16 8 16H12C12.5523 16 13 15.5523 13 15V12C13 11.4477 12.5523 11 12 11H8ZM15 12C15 11.4477 15.4477 11 16 11H20C20.5523 11 21 11.4477 21 12V15C21 15.5523 20.5523 16 20 16H16C15.4477 16 15 15.5523 15 15V12ZM8 18C7.44772 18 7 18.4477 7 19V22C7 22.5523 7.44772 23 8 23H12C12.5523 23 13 22.5523 13 22V19C13 18.4477 12.5523 18 12 18H8ZM15 19C15 18.4477 15.4477 18 16 18H20C20.5523 18 21 18.4477 21 19V22C21 22.5523 20.5523 23 20 23H16C15.4477 23 15 22.5523 15 22V19ZM13 24C12.4477 24 12 24.4477 12 25V29H16V25C16 24.4477 15.5523 24 15 24H13Z" fill="url(#paint0_linear)"/>
<path d="M0 32.0009C0 30.0372 1.59188 28.4453 3.55556 28.4453H24.4444C26.4081 28.4453 28 30.0372 28 32.0009H0Z" fill="#0a5888"/>
<defs>
<linearGradient id="paint0_linear" x1="3.5" y1="-1.68579e-07" x2="24.9252" y2="28.1205" gradientUnits="userSpaceOnUse">
<stop stop-color="#0a5888"/>
<stop offset="1" stop-color="#51E338"/>
</linearGradient>
</defs>
</svg>
