<svg width="40" height="40" viewBox="0 0 40 40" fill="none" xmlns="http://www.w3.org/2000/svg">
<path d="M38.3346 31.6667C38.3346 32.5507 37.9834 33.3986 37.3583 34.0237C36.7332 34.6488 35.8854 35 35.0013 35H5.0013C4.11725 35 3.2694 34.6488 2.64428 34.0237C2.01916 33.3986 1.66797 32.5507 1.66797 31.6667V13.3333C1.66797 12.4493 2.01916 11.6014 2.64428 10.9763C3.2694 10.3512 4.11725 10 5.0013 10H11.668L15.0013 5H25.0013L28.3346 10H35.0013C35.8854 10 36.7332 10.3512 37.3583 10.9763C37.9834 11.6014 38.3346 12.4493 38.3346 13.3333V31.6667Z" stroke="#6E747A" stroke-width="1.6" stroke-linecap="round" stroke-linejoin="round"/>
<path d="M19.9987 28.3333C23.6806 28.3333 26.6654 25.3486 26.6654 21.6667C26.6654 17.9848 23.6806 15 19.9987 15C16.3168 15 13.332 17.9848 13.332 21.6667C13.332 25.3486 16.3168 28.3333 19.9987 28.3333Z" stroke="#6E747A" stroke-width="1.6" stroke-linecap="round" stroke-linejoin="round"/>
</svg>
