<svg width="54" height="54" viewBox="0 0 54 54" fill="none" xmlns="http://www.w3.org/2000/svg">
<rect width="54" height="54" rx="10" fill="#0a5888" fill-opacity="0.05"/>
<path d="M39.5149 9.9375H14.4851L7.3125 20.6964V22.7296L22.3588 45.375H31.6412L46.6875 22.7296V20.6964L39.5149 9.9375ZM38.1101 12.5625L43.3115 20.3646H34.5255L32.0702 12.5625H38.1101ZM24.6816 12.5625H29.3184L31.7736 20.3646H22.2264L24.6816 12.5625ZM15.8899 12.5625H21.9298L19.4745 20.3646H10.6885L15.8899 12.5625ZM23.7662 42.75L10.6368 22.9896H19.3972L24.0315 42.75H23.7662ZM26.7276 42.75L22.0935 22.9896H31.9065L27.2722 42.75H26.7276ZM30.2335 42.75H29.9682L34.603 22.9896H43.3632L30.2335 42.75Z" fill="#0a5888"/>
</svg>
