<svg width="287" height="165" viewBox="0 0 287 165" fill="none" xmlns="http://www.w3.org/2000/svg">
<path d="M195.827 22.5671C109.126 -4.88879 109.126 26.3804 71.195 56.887C31.4573 84.0569 34.4678 114.563 53.7345 136.49C73.0012 158.417 156.691 115.993 177.764 141.257C198.837 166.52 304.202 56.887 195.827 22.5671Z" fill="#DFF8EE"/>
<path d="M216.219 24.8489L216.703 21.9694C216.469 21.5482 216.198 21.1484 215.894 20.7748C215.576 20.4378 214.767 14.6483 214.767 14.6483L220.011 13.5272C220.011 13.5272 220.501 19.2309 220.501 19.7884C220.501 20.3459 219.209 21.8776 219.209 21.8776L218.645 25.3512L216.219 24.8489Z" fill="#E4897B"/>
<path d="M202.006 26.7726C204.628 26.8584 212.868 35.6866 212.868 35.6866L215.894 23.7216L220.017 24.6222C220.017 24.6222 218.792 39.5156 216.378 41.6109C213.964 43.7061 201.264 36.2564 201.264 36.2564L202.006 26.7726Z" fill="#0A8336"/>
<path opacity="0.2" d="M220.011 24.6222C220.011 24.6222 218.786 39.5156 216.378 41.6109C215.036 42.7688 210.546 40.9982 206.802 39.197C204.664 38.1617 202.765 37.114 201.846 36.5933L201.234 36.2563L201.528 32.5805L201.644 31.055L201.981 26.7971C204.597 26.8829 212.837 35.7111 212.837 35.7111L215.87 23.7461L220.011 24.6222Z" fill="black"/>
<path opacity="0.2" d="M206.803 39.197C204.664 38.1616 202.765 37.114 201.846 36.5933C201.642 35.2574 201.543 33.9074 201.552 32.5559C201.553 32.0453 201.592 31.5353 201.669 31.0305C201.669 31.0305 205.853 34.1121 206.803 39.197Z" fill="black"/>
<path d="M183.645 158.663H178.259C178.171 158.664 178.087 158.695 178.019 158.75C177.951 158.806 177.904 158.883 177.886 158.969L177.01 162.915C176.992 162.999 176.991 163.086 177.007 163.17C177.023 163.255 177.055 163.335 177.102 163.407C177.15 163.479 177.211 163.54 177.282 163.588C177.354 163.636 177.434 163.67 177.518 163.687C177.565 163.693 177.612 163.693 177.659 163.687C179.399 163.656 180.667 163.552 182.854 163.552C184.202 163.552 188.264 163.693 190.126 163.693C191.989 163.693 192.228 161.855 191.468 161.683C188.049 160.942 185.482 159.907 184.386 158.926C184.181 158.747 183.916 158.653 183.645 158.663Z" fill="#263238"/>
<path d="M206.502 158.522H201.117C201.029 158.523 200.944 158.554 200.876 158.609C200.808 158.665 200.762 158.742 200.743 158.828L199.867 162.774C199.849 162.857 199.848 162.944 199.864 163.028C199.879 163.112 199.911 163.192 199.958 163.264C200.005 163.336 200.065 163.398 200.136 163.446C200.206 163.494 200.286 163.528 200.37 163.546C200.419 163.552 200.468 163.552 200.517 163.546C202.257 163.515 203.525 163.411 205.712 163.411C207.06 163.411 211.122 163.552 212.984 163.552C214.847 163.552 215.085 161.714 214.326 161.542C210.907 160.801 208.34 159.766 207.244 158.785C207.039 158.606 206.774 158.512 206.502 158.522Z" fill="#263238"/>
<path d="M180.771 58.8937H204.285C206.527 71.1037 213.523 120.679 208.5 159.178H200.535C200.535 159.178 201.295 100.713 194.249 81.8189C193.441 91.9275 185.219 159.135 185.219 159.135H177.138C177.138 159.135 178.363 133.857 179.558 109.976C180.324 94.9356 180.771 61.9814 180.771 58.8937Z" fill="#0A8336"/>
<path opacity="0.6" d="M180.771 58.8937H204.285C206.527 71.1037 213.523 120.679 208.5 159.178H200.535C200.535 159.178 201.295 100.713 194.249 81.8189C193.441 91.9275 185.219 159.135 185.219 159.135H177.138C177.138 159.135 178.363 133.857 179.558 109.976C180.324 94.9356 180.771 61.9814 180.771 58.8937Z" fill="white"/>
<path opacity="0.2" d="M194.249 81.8188C195.406 85.132 196.285 88.5358 196.878 91.9948C197.533 82.9951 194.905 73.4501 194.905 73.4501L194.249 81.8188Z" fill="black"/>
<path d="M200.419 61.7547L189.287 61.8895V59.1755H200.419V61.7547Z" fill="black"/>
<path d="M188.442 59.1755V61.9018L180.833 61.9936V59.1755H188.442Z" fill="black"/>
<path d="M201.264 59.1755H204.505L204.805 61.6996L201.264 61.7425V59.1755Z" fill="black"/>
<path d="M193.71 61.8343H198.091V58.6792H193.71V61.8343Z" fill="white"/>
<path d="M177.157 26.7726C177.328 28.2001 177.512 29.8358 177.72 31.5758C177.849 32.6908 177.99 33.867 178.131 35.0923C178.357 36.9977 178.59 39.0194 178.835 41.1392C178.897 41.6905 178.964 42.2358 179.025 42.7994C179.638 47.9885 180.25 53.6126 180.863 59.1693H204.53C204.53 59.1693 206.337 42.1623 202.036 26.7726H177.157Z" fill="#0A8336"/>
<path d="M192.124 30.5771C192.124 30.5771 181.966 29.6827 180.269 27.036C178.572 24.3894 187.792 21.0566 193.716 22.0797C199.641 23.1029 204.922 27.1402 192.124 30.5771Z" fill="#0A8336"/>
<path opacity="0.2" d="M192.124 30.5771C192.124 30.5771 181.966 29.6827 180.269 27.036C178.572 24.3894 187.792 21.0566 193.716 22.0797C199.641 23.1029 204.922 27.1402 192.124 30.5771Z" fill="black"/>
<path d="M190.653 39.9384H190.586C190.549 39.9199 190.521 39.8879 190.507 39.849C190.493 39.8102 190.495 39.7676 190.512 39.7301C193.024 34.5532 189.618 30.1606 189.581 30.1177C189.56 30.0857 189.551 30.047 189.557 30.0091C189.563 29.9711 189.583 29.9369 189.613 29.913C189.643 29.8891 189.681 29.8774 189.72 29.8801C189.758 29.8829 189.794 29.8999 189.82 29.9278C189.857 29.9706 193.386 34.5103 190.788 39.8649C190.774 39.8883 190.755 39.9076 190.731 39.9206C190.707 39.9336 190.68 39.9397 190.653 39.9384Z" fill="white"/>
<path d="M190.739 39.6014C190.585 39.6021 190.435 39.6501 190.309 39.7389C190.183 39.8276 190.087 39.9528 190.034 40.0976L190.647 40.4591C190.748 40.3423 190.81 40.1977 190.827 40.0445C190.843 39.8914 190.812 39.7368 190.739 39.6014Z" fill="white"/>
<path d="M197.993 35.5641C198.039 35.7108 198.129 35.8399 198.25 35.9341C198.372 36.0283 198.519 36.083 198.673 36.091L198.844 35.3987C198.702 35.3361 198.545 35.3183 198.393 35.3479C198.24 35.3775 198.101 35.4529 197.993 35.5641Z" fill="white"/>
<path d="M198.158 35.705C193.52 35.4906 193.465 30.0625 193.465 30.0074C193.465 29.9668 193.481 29.9278 193.51 29.8991C193.539 29.8704 193.578 29.8542 193.618 29.8542C193.659 29.8542 193.698 29.8704 193.727 29.8991C193.755 29.9278 193.772 29.9668 193.772 30.0074C193.772 30.2218 193.827 35.1965 198.17 35.3987C198.212 35.4018 198.25 35.4208 198.277 35.4517C198.305 35.4825 198.319 35.5228 198.317 35.5641C198.314 35.6036 198.296 35.6404 198.266 35.6667C198.236 35.693 198.198 35.7067 198.158 35.705Z" fill="white"/>
<path d="M186.432 25.7618C186.353 26.2937 186.111 26.788 185.74 27.177L192.124 30.5588L195.021 27.4465C193.945 26.4848 193.074 25.3158 192.461 24.0096C191.696 22.4728 191.207 20.814 191.015 19.1084L185.164 23.0661C185.164 23.0661 186.622 24.2669 186.432 25.7618Z" fill="#E4897B"/>
<path opacity="0.2" d="M186.432 25.7618C187.501 26.0502 188.629 26.0393 189.692 25.7303C190.755 25.4213 191.713 24.8261 192.461 24.0096C191.696 22.4728 191.207 20.814 191.015 19.1084L185.164 23.0661C185.164 23.0661 186.622 24.2669 186.432 25.7618Z" fill="black"/>
<path d="M178.645 11.9343C178.645 11.9343 178.645 17.8464 182.052 19.6047C185.458 21.3629 183.834 10.6049 183.834 10.6049L178.645 11.9343Z" fill="#263238"/>
<path d="M191.658 22.8456C191.159 23.8948 190.33 24.7514 189.297 25.2837C188.265 25.8161 187.086 25.9948 185.942 25.7924C184.457 25.5599 183.117 24.7714 182.193 23.5869C182.064 23.4215 181.947 23.2499 181.831 23.0723C179.785 19.7701 178.363 13.662 181.745 10.7826C182.489 10.1418 183.385 9.70186 184.347 9.50473C185.309 9.30759 186.306 9.35977 187.242 9.6563C188.178 9.95282 189.023 10.4838 189.696 11.1989C190.369 11.9139 190.849 12.7893 191.088 13.7417C192.173 17.7974 193.024 20.1377 191.658 22.8456Z" fill="#E4897B"/>
<path d="M185.403 16.8661C185.47 16.9869 185.488 17.1292 185.453 17.263C185.418 17.3967 185.331 17.5115 185.213 17.5829C184.992 17.6503 184.741 17.442 184.631 17.1173C184.521 16.7926 184.631 16.5047 184.821 16.4067C185.011 16.3086 185.293 16.5721 185.403 16.8661Z" fill="#263238"/>
<path d="M181.727 18.0853C181.856 18.3977 181.727 18.7286 181.537 18.796C181.347 18.8634 181.065 18.6612 180.955 18.3365C180.845 18.0118 180.955 17.7238 181.151 17.6197C181.347 17.5155 181.629 17.7973 181.727 18.0853Z" fill="#263238"/>
<path d="M182.946 17.8587C182.896 18.9785 182.69 20.0858 182.333 21.1486C182.61 21.2346 182.902 21.2588 183.189 21.2197C183.476 21.1805 183.75 21.0788 183.994 20.9219L182.946 17.8587Z" fill="#DE5753"/>
<path d="M179.889 17.0193C179.925 17.0242 179.961 17.0195 179.995 17.0055C180.028 16.9914 180.057 16.9687 180.079 16.9396C180.221 16.7314 180.41 16.559 180.63 16.4357C180.85 16.3124 181.095 16.2417 181.347 16.229C181.373 16.2306 181.4 16.227 181.424 16.2183C181.449 16.2095 181.472 16.1959 181.492 16.1782C181.511 16.1605 181.527 16.139 181.538 16.1151C181.549 16.0912 181.555 16.0653 181.555 16.0391C181.557 16.0128 181.553 15.9865 181.545 15.9617C181.536 15.9369 181.522 15.9141 181.505 15.8946C181.487 15.8752 181.465 15.8595 181.442 15.8485C181.418 15.8376 181.392 15.8315 181.365 15.8307C181.047 15.8378 180.735 15.9203 180.455 16.0715C180.175 16.2228 179.935 16.4384 179.754 16.7007C179.722 16.7431 179.708 16.7964 179.715 16.8492C179.722 16.9019 179.749 16.9498 179.791 16.9825C179.821 17.0007 179.854 17.0131 179.889 17.0193Z" fill="#263238"/>
<path d="M185.672 15.1691C185.708 15.1517 185.739 15.1266 185.764 15.0956C185.775 15.0715 185.781 15.0455 185.782 15.019C185.783 14.9926 185.778 14.9662 185.768 14.9416C185.759 14.917 185.744 14.8946 185.726 14.8758C185.707 14.857 185.685 14.8421 185.66 14.8322C185.368 14.7008 185.048 14.6417 184.728 14.6598C184.409 14.678 184.098 14.7728 183.822 14.9363C183.779 14.9672 183.749 15.0137 183.738 15.0662C183.728 15.1186 183.738 15.173 183.767 15.2181C183.798 15.2603 183.844 15.2889 183.895 15.2981C183.946 15.3072 183.999 15.2961 184.043 15.2671C184.264 15.1457 184.51 15.077 184.762 15.0664C185.013 15.0558 185.264 15.1035 185.495 15.2059C185.525 15.2131 185.557 15.2136 185.588 15.2072C185.618 15.2009 185.647 15.1879 185.672 15.1691Z" fill="#263238"/>
<path d="M186.512 9.74108L186.371 10.6049C187.829 10.6662 188 12.2958 187.927 13.0555C187.768 14.7158 189.269 16.8049 190.684 17.4114C190.684 17.4114 190.537 16.7497 191.125 16.7497C191.713 16.7497 192.509 20.1806 191.891 22.092C191.891 22.092 193.116 20.1806 193.024 16.3699C192.951 12.8472 192.289 10.078 191.26 9.01816L186.512 9.74108Z" fill="#263238"/>
<path d="M193.912 16.4373C193.766 17.4852 193.214 18.4336 192.375 19.0778C191.254 19.9171 190.181 19.0349 190.065 17.7116C189.973 16.5353 190.426 14.6484 191.762 14.336C192.054 14.2678 192.358 14.2743 192.647 14.3549C192.935 14.4355 193.199 14.5875 193.413 14.797C193.628 15.0064 193.786 15.2665 193.873 15.5532C193.96 15.8399 193.974 16.144 193.912 16.4373Z" fill="#E4897B"/>
<path d="M184.545 22.1226C185.044 22.4691 185.517 22.852 185.96 23.2683L186.218 23.0722C187.357 22.1778 187.596 21.3813 187.504 20.7748C187.456 20.4797 187.339 20.2004 187.161 19.96C187.064 19.8185 186.946 19.6925 186.812 19.5863C186.355 20.4558 185.713 21.2148 184.931 21.8102C184.704 22.0062 184.545 22.1226 184.545 22.1226Z" fill="#263238"/>
<path d="M184.931 21.8102L185.36 22.1349C186.432 21.2894 187.075 20.5481 187.161 19.96C187.064 19.8185 186.947 19.6925 186.812 19.5863C186.355 20.4558 185.713 21.2148 184.931 21.8102Z" fill="white"/>
<path d="M186.218 23.0722C187.357 22.1778 187.596 21.3813 187.504 20.7748C187.078 21.1176 186.715 21.5322 186.432 22.0001C186.248 22.3256 186.173 22.7011 186.218 23.0722Z" fill="#DE5753"/>
<path d="M192.522 11.2911C192.522 11.2911 192.994 7.43754 187.97 5.97944C182.946 4.52135 178.933 8.06856 178.609 9.83298C178.609 9.83298 176.103 11.7934 178.829 13.9071L179.975 11.5668C179.975 11.5668 185.195 14.9363 192.522 11.2911Z" fill="#263238"/>
<path d="M166.123 158.736H171.422C171.509 158.738 171.593 158.768 171.66 158.823C171.728 158.877 171.776 158.952 171.796 159.037L172.654 162.927C172.675 163.01 172.679 163.096 172.666 163.18C172.652 163.265 172.62 163.345 172.574 163.417C172.527 163.488 172.466 163.549 172.394 163.596C172.322 163.642 172.242 163.673 172.157 163.687C172.111 163.693 172.063 163.693 172.016 163.687C170.301 163.656 169.051 163.552 166.895 163.552C165.571 163.552 161.565 163.693 159.733 163.693C157.901 163.693 157.662 161.855 158.416 161.714C161.779 160.979 164.309 159.962 165.388 159C165.591 158.823 165.853 158.729 166.123 158.736Z" fill="#263238"/>
<path d="M143.633 158.602H148.914C149.001 158.6 149.087 158.629 149.155 158.684C149.223 158.739 149.27 158.816 149.287 158.902L150.151 162.786C150.186 162.954 150.152 163.129 150.058 163.273C149.964 163.416 149.817 163.516 149.649 163.552H149.508C147.792 163.521 146.543 163.417 144.392 163.417C143.063 163.417 139.062 163.558 137.224 163.558C135.386 163.558 135.154 161.72 135.907 161.579C139.271 160.85 141.801 159.833 142.879 158.865C143.086 158.682 143.357 158.588 143.633 158.602Z" fill="#263238"/>
<path opacity="0.6" d="M166.123 158.736H171.422C171.509 158.738 171.593 158.768 171.66 158.823C171.728 158.877 171.776 158.952 171.796 159.037L172.654 162.927C172.675 163.01 172.679 163.096 172.666 163.18C172.652 163.265 172.62 163.345 172.574 163.417C172.527 163.488 172.466 163.549 172.394 163.596C172.322 163.642 172.242 163.673 172.157 163.687C172.111 163.693 172.063 163.693 172.016 163.687C170.301 163.656 169.051 163.552 166.895 163.552C165.571 163.552 161.565 163.693 159.733 163.693C157.901 163.693 157.662 161.855 158.416 161.714C161.779 160.979 164.309 159.962 165.388 159C165.591 158.823 165.853 158.729 166.123 158.736Z" fill="white"/>
<path opacity="0.6" d="M143.633 158.602H148.914C149.001 158.6 149.087 158.629 149.155 158.684C149.223 158.739 149.27 158.816 149.287 158.902L150.151 162.786C150.186 162.954 150.152 163.129 150.058 163.273C149.964 163.416 149.817 163.516 149.649 163.552H149.508C147.792 163.521 146.543 163.417 144.392 163.417C143.063 163.417 139.062 163.558 137.224 163.558C135.386 163.558 135.154 161.72 135.907 161.579C139.271 160.85 141.801 159.833 142.879 158.865C143.086 158.682 143.357 158.588 143.633 158.602Z" fill="white"/>
<path d="M145.238 11.7934L146.396 8.26459C146.962 7.74024 147.451 7.13788 147.848 6.47567C148.197 5.72211 148.552 0 148.552 0L143.651 0.483995C143.651 0.483995 142.493 6.1387 143.89 7.18633L142.708 10.7642L145.238 11.7934Z" fill="#EEC1BB"/>
<path d="M181.225 56.6023L179.454 59.929C178.793 60.3567 178.197 60.8766 177.683 61.4729C177.206 62.1651 175.846 67.8321 175.846 67.8321L180.845 68.1997C180.845 68.1997 182.989 62.741 181.776 61.4606L183.583 58.0849L181.225 56.6023Z" fill="#EEC1BB"/>
<path d="M151.401 38.3455C150.946 38.5211 150.441 38.5211 149.986 38.3455C148.344 37.8615 146.157 36.5627 144.074 35.0127C140.913 32.6601 137.984 29.7256 137.543 28.1878C136.814 25.6331 141.782 8.06241 141.782 8.06241L146.953 10.1393C146.953 10.1393 142.634 24.3159 143.48 26.1477C144.325 27.9795 149.502 30.2279 152.302 31.006C152.302 31.0305 153.625 37.3285 151.401 38.3455Z" fill="#0A8336"/>
<path opacity="0.6" d="M143.473 24.1137L137.659 25.4554C137.468 26.3616 137.429 27.2933 137.543 28.2123C137.774 28.8272 138.109 29.3973 138.535 29.8971L143.381 25.6821C143.367 25.1576 143.398 24.6329 143.473 24.1137Z" fill="white"/>
<path opacity="0.6" d="M146.763 10.8071L141.611 8.71799C141.445 9.33063 141.176 10.2986 140.845 11.5362L145.985 13.4782C146.31 12.3326 146.586 11.3891 146.763 10.8071Z" fill="white"/>
<path opacity="0.6" d="M144.723 18.1894L139.467 16.8906C139.222 17.877 138.983 18.8878 138.756 19.8742L144.27 20.0703C144.405 19.4515 144.564 18.8205 144.723 18.1894Z" fill="white"/>
<path opacity="0.6" d="M143.945 26.8216L139.332 30.8345C140.137 31.7007 140.992 32.5189 141.893 33.285L145.115 27.7712C144.694 27.4956 144.302 27.1774 143.945 26.8216Z" fill="white"/>
<path opacity="0.6" d="M146.151 28.4452L142.848 34.0815C143.81 34.8596 144.821 35.6009 145.82 36.2564L149.159 29.9155C148.127 29.4872 147.122 28.9961 146.151 28.4452Z" fill="white"/>
<path opacity="0.6" d="M152.302 31.0306C151.72 30.8713 151.033 30.6385 150.304 30.3689L146.861 36.9058C147.84 37.5177 148.889 38.0093 149.986 38.37C154.109 39.5831 152.302 31.0306 152.302 31.0306Z" fill="white"/>
<path opacity="0.6" d="M143.682 22.8088C143.774 22.331 143.878 21.8163 143.988 21.2833L138.474 21.0934C138.241 22.1778 138.027 23.2132 137.861 24.1566L143.682 22.8088Z" fill="white"/>
<path opacity="0.6" d="M145.023 17.0009C145.238 16.1922 145.452 15.4019 145.636 14.6606L140.508 12.7246C140.269 13.6497 140.006 14.6545 139.742 15.7021L145.023 17.0009Z" fill="white"/>
<path opacity="0.2" d="M151.401 38.3454C150.946 38.521 150.441 38.521 149.986 38.3454C148.344 37.8614 146.157 36.5626 144.074 35.0126C146.733 34.0753 151.303 35.2822 151.303 35.2822C151.489 36.2926 151.522 37.3252 151.401 38.3454Z" fill="black"/>
<path d="M168.935 60.4375H145.765C143.559 72.4699 136.667 121.316 141.611 159.245H149.459C149.459 159.245 148.73 101.656 155.653 83.0257C156.449 92.9873 164.548 159.202 164.548 159.202H172.513C172.513 159.202 171.324 134.298 170.13 110.766C169.394 95.9525 168.966 63.4823 168.935 60.4375Z" fill="#263238"/>
<path opacity="0.2" d="M155.653 83.0257C154.513 86.2888 153.649 89.6414 153.067 93.0485C152.418 84.1836 155.04 74.7733 155.04 74.7733L155.653 83.0257Z" fill="black"/>
<path d="M148.76 63.2495L145.275 63.2066L145.569 60.7193H148.76V63.2495Z" fill="black"/>
<path d="M161.393 60.7193H168.892V63.4946L161.393 63.4027V60.7193Z" fill="black"/>
<path d="M160.56 63.3904L149.594 63.2618V60.7193H160.56V63.3904Z" fill="black"/>
<path d="M155.493 63.9173H152.59C152.321 63.9173 152.064 63.8108 151.875 63.6213C151.685 63.4317 151.579 63.1746 151.579 62.9065V61.2033C151.579 60.9352 151.685 60.6781 151.875 60.4885C152.064 60.2989 152.321 60.1924 152.59 60.1924H155.493C155.762 60.1924 156.019 60.2989 156.208 60.4885C156.398 60.6781 156.504 60.9352 156.504 61.2033V62.9065C156.504 63.1746 156.398 63.4317 156.208 63.6213C156.019 63.8108 155.762 63.9173 155.493 63.9173ZM152.59 60.8051C152.484 60.8051 152.383 60.847 152.308 60.9217C152.233 60.9964 152.191 61.0977 152.191 61.2033V62.9065C152.191 63.0121 152.233 63.1134 152.308 63.188C152.383 63.2627 152.484 63.3047 152.59 63.3047H155.493C155.599 63.3047 155.7 63.2627 155.775 63.188C155.85 63.1134 155.892 63.0121 155.892 62.9065V61.2033C155.892 61.0977 155.85 60.9964 155.775 60.9217C155.7 60.847 155.599 60.8051 155.493 60.8051H152.59Z" fill="white"/>
<path d="M155.653 62.2876H154.305C154.224 62.2876 154.146 62.2554 154.088 62.1979C154.031 62.1405 153.999 62.0626 153.999 61.9813C154 61.9006 154.033 61.8236 154.09 61.7664C154.147 61.7093 154.224 61.6766 154.305 61.675H155.653C155.734 61.675 155.812 61.7073 155.869 61.7647C155.927 61.8222 155.959 61.9001 155.959 61.9813C155.959 62.0626 155.927 62.1405 155.869 62.1979C155.812 62.2554 155.734 62.2876 155.653 62.2876Z" fill="white"/>
<path d="M176.863 37.1447C176.434 38.0452 175.925 39.2338 175.374 40.6857C174.761 42.3399 174.05 44.331 173.358 46.5978C171.704 52.0374 170.459 57.5933 169.633 63.2188L144.748 60.2598C144.748 60.2598 146.494 44.0737 152.302 31.0305L175.582 34.7492C175.844 34.7867 176.093 34.8854 176.31 35.0371C176.526 35.1889 176.704 35.3895 176.829 35.6227C176.954 35.856 177.022 36.1153 177.027 36.3797C177.033 36.6441 176.977 36.9061 176.863 37.1447Z" fill="#0A8336"/>
<path opacity="0.6" d="M146.996 47.5474L171.655 52.8529C171.9 51.8543 172.145 50.8863 172.402 49.9551L147.897 43.8287C147.572 45.1214 147.272 46.3589 146.996 47.5474Z" fill="white"/>
<path opacity="0.6" d="M176.863 37.1447C176.507 37.8921 176.097 38.8479 175.637 39.9813L150.654 35.0801C151.062 33.9937 151.489 32.9236 151.934 31.8698L159.451 33.0645C159.55 33.7268 159.852 34.3421 160.315 34.8259C160.778 35.3097 161.379 35.6382 162.037 35.7663C164.282 36.1901 166.605 35.7291 168.518 34.4797L176.905 35.8091C176.992 36.0223 177.033 36.2514 177.026 36.4815C177.019 36.7116 176.963 36.9375 176.863 37.1447Z" fill="white"/>
<path opacity="0.6" d="M149.49 38.4374L174.124 44.2147C174.492 43.0996 174.859 42.0704 175.208 41.1514L150.243 36.2503C149.98 36.9609 149.735 37.7022 149.49 38.4374Z" fill="white"/>
<path opacity="0.6" d="M145.127 57.3988L170.019 60.8051C170.154 59.9903 170.301 59.1877 170.454 58.4035L145.722 53.8148C145.471 55.1994 145.281 56.394 145.127 57.3988Z" fill="white"/>
<path opacity="0.6" d="M144.956 58.6118C144.809 59.6594 144.748 60.2598 144.748 60.2598L169.639 63.2189C169.695 62.8145 169.762 62.4163 169.829 61.9936L144.956 58.6118Z" fill="white"/>
<path opacity="0.6" d="M149.122 39.6137C148.803 40.6429 148.505 41.664 148.227 42.6769L172.733 48.7727C173.072 47.5801 173.411 46.4508 173.75 45.3848L149.122 39.6137Z" fill="white"/>
<path opacity="0.6" d="M146.726 48.7482C146.426 50.1144 146.163 51.4193 145.942 52.614L170.687 57.1965C170.908 56.1183 171.136 55.0686 171.373 54.0475L146.726 48.7482Z" fill="white"/>
<path opacity="0.2" d="M175.374 40.6858C174.761 42.3399 174.05 44.331 173.358 46.5978C172.133 43.4549 173.836 39.4115 173.836 39.4115C174.441 39.7108 174.967 40.1472 175.374 40.6858Z" fill="black"/>
<path d="M175.594 34.7493C179.785 35.8275 190.365 39.2216 192.889 43.4611C195.413 47.7006 184.245 60.1005 184.245 60.1005L179.607 58.0053C179.607 58.0053 185.231 48.3622 185.599 47.4249C185.893 46.6713 178.088 44.2453 175.043 43.3263C174.691 43.2174 174.383 42.9998 174.163 42.7048C173.943 42.4098 173.822 42.0525 173.818 41.6844C173.818 41.0044 173.818 40.1038 173.873 39.0991C173.971 36.918 175.594 34.7493 175.594 34.7493Z" fill="#0A8336"/>
<path opacity="0.6" d="M189.759 53.0061L183.461 51.3213L181.996 53.8883L187.357 56.3389C188.123 55.328 188.968 54.1885 189.759 53.0061Z" fill="white"/>
<path opacity="0.6" d="M192.889 43.461C192.779 43.2784 192.659 43.1025 192.528 42.9341L185.599 47.4003L192.687 47.6209C193.312 45.979 193.496 44.4719 192.889 43.461Z" fill="white"/>
<path opacity="0.6" d="M182.726 45.8626C184.202 43.3447 185.746 40.7226 186.861 38.8417C185.783 38.3087 184.649 37.8125 183.516 37.353L179.705 44.7966C180.771 45.1459 181.807 45.5134 182.726 45.8626Z" fill="white"/>
<path opacity="0.6" d="M184.545 46.6223L191.695 42.0152C190.562 40.9894 189.302 40.1142 187.945 39.4115C186.83 41.2984 185.25 43.9757 183.877 46.3221C184.122 46.4263 184.349 46.5243 184.545 46.6223Z" fill="white"/>
<path opacity="0.6" d="M184.986 48.6134L184.086 50.2247L190.463 51.9278C191.096 50.9315 191.669 49.8984 192.179 48.834L184.986 48.6134Z" fill="white"/>
<path opacity="0.6" d="M178.584 35.607C177.42 35.2455 176.391 34.9576 175.594 34.7493C175.594 34.7493 173.971 36.918 173.854 39.0991C173.799 40.1038 173.793 41.0105 173.799 41.6905C173.805 42.0576 173.926 42.4135 174.146 42.7073C174.367 43.0011 174.674 43.2178 175.025 43.3263L175.496 43.4672L178.584 35.607Z" fill="white"/>
<path opacity="0.6" d="M176.685 43.8287L178.523 44.4107L182.364 36.9119C181.47 36.5689 180.587 36.2625 179.748 35.9807L176.685 43.8287Z" fill="white"/>
<path opacity="0.6" d="M181.384 54.9543L179.822 57.6499L184.521 59.7942C184.9 59.3592 185.666 58.4709 186.585 57.3436L181.384 54.9543Z" fill="white"/>
<path d="M152.455 33.8242L150.243 36.2257C149.831 36.1194 149.403 36.0961 148.982 36.1571C148.561 36.2181 148.157 36.3622 147.793 36.5811C146.659 37.3407 143.841 39.5708 144.006 40.0302C144.172 40.4897 146.782 43.8593 146.782 43.8593C146.782 43.8593 150.899 39.9874 151.205 39.7852C151.511 39.583 151.818 37.9473 151.818 37.9473L154.115 35.0188L152.455 33.8242Z" fill="#E4897B"/>
<path d="M177.157 26.7726C177.157 26.7726 163.881 26.5582 160.56 27.1341C157.24 27.71 150.905 34.4307 150.905 34.4307L154.041 36.2686C154.041 36.2686 159.8 31.5084 162.71 31.8637C164.861 32.1271 178.131 35.1046 178.131 35.1046C178.131 35.1046 179.381 29.8358 177.157 26.7726Z" fill="#0A8336"/>
<path opacity="0.2" d="M177.157 26.7726C177.157 26.7726 163.881 26.5582 160.56 27.1341C157.24 27.71 150.905 34.4307 150.905 34.4307L154.041 36.2686C154.041 36.2686 159.8 31.5084 162.71 31.8637C164.861 32.1271 178.131 35.1046 178.131 35.1046C178.131 35.1046 179.381 29.8358 177.157 26.7726Z" fill="black"/>
<path d="M161.289 34.7922C161.289 34.7922 166.16 35.6805 168.243 33.9529C167.299 32.8256 167.146 30.8896 167.342 28.8618C167.498 27.4288 167.771 26.011 168.157 24.6223C168.273 24.175 168.402 23.7584 168.518 23.397L162.257 27.5997C162.257 27.6977 162.257 27.7896 162.294 27.8938C162.324 28.1817 162.355 28.5064 162.361 28.7576C162.404 29.4532 162.31 30.1504 162.086 30.81C161.98 31.2691 161.804 31.7093 161.565 32.1149C161.164 32.4605 160.648 32.644 160.119 32.6295C159.433 33.5608 161.289 34.7922 161.289 34.7922Z" fill="#EEC1BB"/>
<path opacity="0.2" d="M161.565 32.1149C163.81 31.7345 165.853 30.5842 167.342 28.8617C167.498 27.4288 167.771 26.0109 168.157 24.6222L162.294 27.8937C162.324 28.1817 162.355 28.5064 162.361 28.7576C162.404 29.4531 162.31 30.1503 162.086 30.8099C161.98 31.2691 161.804 31.7092 161.565 32.1149Z" fill="black"/>
<path d="M169.609 24.0034C169.609 24.0034 171.061 24.5548 171.404 23.7216C171.747 22.8884 171.208 21.706 171.857 21.4119C172.507 21.1179 173.983 20.9341 173.805 20.1131C173.628 19.2922 172.623 18.7224 173.193 18.1159C173.763 17.5094 175.031 16.6333 174.369 16.039C173.707 15.4448 173.07 14.4339 173.548 13.9989C174.026 13.564 173.131 11.4136 171.833 11.6954C170.534 11.9772 170.65 10.8806 170.607 9.94935C170.565 9.01813 168.512 8.39935 168.157 9.38571C167.801 10.3721 166.662 9.27544 166.319 8.46675C165.976 7.65805 165.363 7.42524 164.248 8.13591C163.133 8.84658 163.151 10.8254 162.41 9.74717C161.669 8.66892 160.272 8.07465 159.684 8.77919C159.096 9.48373 159.568 10.2557 158.532 10.3169C157.497 10.3782 156.259 12.3754 156.792 12.6143C157.325 12.8533 157.301 13.374 156.664 13.9989C156.026 14.6238 155.316 15.6224 156.259 15.9471C157.203 16.2718 157.215 16.9274 156.97 17.2214C156.725 17.5155 157.668 18.7408 158.881 18.5386C160.094 18.3365 169.609 24.0034 169.609 24.0034Z" fill="#263238"/>
<path d="M157.748 13.3006C157.748 13.3006 155.977 19.0349 158.753 21.7551C161.528 24.4752 163.164 13.5579 163.164 13.5579L157.748 13.3006Z" fill="#263238"/>
<path d="M167.097 27.7712C166.301 28.6409 165.242 29.2248 164.082 29.4329C162.921 29.641 161.725 29.4619 160.676 28.923C159.304 28.2536 158.239 27.0856 157.699 25.6576C157.622 25.4572 157.557 25.2526 157.503 25.0449C156.504 21.2281 156.958 14.8811 161.099 13.0983C162.013 12.7 163.013 12.5418 164.005 12.6389C164.996 12.7359 165.947 13.0849 166.766 13.6528C167.585 14.2206 168.245 14.9884 168.684 15.8832C169.122 16.7781 169.325 17.7702 169.272 18.7653C169.131 23.0416 169.217 25.5534 167.097 27.7712Z" fill="#EEC1BB"/>
<path d="M162.821 20.1071C162.851 20.4501 162.655 20.7197 162.422 20.7197C162.19 20.7197 162.006 20.444 162 20.1071C161.994 19.7701 162.171 19.4944 162.398 19.4944C162.625 19.4944 162.815 19.7517 162.821 20.1071Z" fill="#263238"/>
<path d="M158.9 20.1867C158.93 20.5297 158.722 20.7993 158.495 20.7993C158.269 20.7993 158.085 20.5236 158.073 20.1867C158.06 19.8497 158.244 19.574 158.471 19.574C158.698 19.574 158.888 19.8558 158.9 20.1867Z" fill="#263238"/>
<path d="M160.15 20.3275C159.757 21.3988 159.219 22.411 158.551 23.3356C158.792 23.5014 159.067 23.6121 159.356 23.6597C159.645 23.7074 159.941 23.6908 160.223 23.6113L160.15 20.3275Z" fill="#D4827D"/>
<path d="M157.429 18.606C157.462 18.6237 157.499 18.633 157.537 18.633C157.574 18.633 157.611 18.6237 157.644 18.606C157.843 18.4465 158.077 18.3357 158.327 18.2825C158.577 18.2293 158.836 18.2352 159.084 18.2997C159.109 18.3111 159.137 18.3171 159.164 18.3174C159.192 18.3176 159.22 18.3121 159.246 18.3011C159.271 18.2901 159.295 18.2739 159.314 18.2536C159.333 18.2332 159.347 18.2091 159.357 18.1828C159.366 18.1565 159.37 18.1285 159.368 18.1007C159.366 18.0729 159.358 18.0457 159.345 18.021C159.332 17.9963 159.314 17.9746 159.292 17.9572C159.27 17.9398 159.245 17.9271 159.218 17.9199C158.906 17.8258 158.575 17.8096 158.255 17.8726C157.934 17.9356 157.634 18.0759 157.38 18.2813C157.358 18.296 157.339 18.3152 157.324 18.3376C157.309 18.36 157.299 18.3852 157.295 18.4116C157.29 18.438 157.291 18.4651 157.297 18.4912C157.304 18.5172 157.315 18.5417 157.331 18.5631C157.362 18.5815 157.395 18.5959 157.429 18.606Z" fill="#263238"/>
<path d="M163.562 18.5264C163.603 18.5251 163.641 18.51 163.672 18.4835C163.691 18.4652 163.706 18.4433 163.716 18.4191C163.727 18.3949 163.732 18.3689 163.732 18.3426C163.732 18.3163 163.727 18.2903 163.716 18.2661C163.706 18.2419 163.691 18.22 163.672 18.2017C163.429 17.9879 163.137 17.8362 162.823 17.7594C162.508 17.6826 162.179 17.683 161.865 17.7606C161.814 17.7762 161.771 17.8113 161.746 17.8584C161.721 17.9054 161.715 17.9606 161.73 18.0118C161.748 18.0624 161.785 18.1044 161.833 18.1294C161.88 18.1543 161.936 18.1605 161.987 18.1465C162.238 18.0941 162.497 18.1006 162.745 18.1654C162.993 18.2303 163.222 18.3517 163.415 18.5203C163.438 18.531 163.463 18.5371 163.488 18.5381C163.513 18.5392 163.538 18.5352 163.562 18.5264Z" fill="#263238"/>
<path d="M166.031 13.5089L165.639 14.3114C167.036 14.8077 166.711 16.4312 166.405 17.1663C165.755 18.7286 166.588 21.2098 167.777 22.2145C167.777 22.2145 167.832 21.5345 168.39 21.7122C168.947 21.8898 168.708 25.4493 167.538 27.1218C167.538 27.1218 169.284 25.627 170.344 21.9082C171.33 18.4713 171.52 15.5918 170.84 14.2318L166.031 13.5089Z" fill="#263238"/>
<path d="M171.202 22.2329C170.98 22.7164 170.664 23.1511 170.273 23.5118C169.881 23.8725 169.423 24.1521 168.923 24.3343C167.581 24.8183 166.809 23.642 167.085 22.3187C167.348 21.1485 168.359 19.4515 169.744 19.5557C170.043 19.584 170.331 19.6855 170.583 19.8513C170.834 20.017 171.041 20.242 171.185 20.5064C171.329 20.7708 171.406 21.0665 171.409 21.3676C171.412 21.6686 171.34 21.9658 171.202 22.2329Z" fill="#EEC1BB"/>
<path d="M161.093 25.5045C161.473 25.9895 161.817 26.5014 162.122 27.0361C162.226 27.0048 162.329 26.968 162.429 26.9258C163.807 26.3989 164.267 25.7005 164.365 25.0879C164.408 24.7867 164.377 24.4793 164.273 24.1934C164.222 24.0284 164.148 23.8716 164.052 23.7278C163.345 24.4315 162.494 24.9747 161.559 25.3207C161.277 25.4371 161.093 25.5045 161.093 25.5045Z" fill="#263238"/>
<path d="M161.559 25.3145L161.877 25.7618C163.17 25.2594 164.015 24.7325 164.273 24.1873C164.222 24.0223 164.148 23.8654 164.052 23.7216C163.345 24.4253 162.494 24.9686 161.559 25.3145Z" fill="white"/>
<path d="M162.429 26.9258C163.807 26.3989 164.267 25.7005 164.365 25.0878C163.846 25.2981 163.369 25.5989 162.955 25.9762C162.685 26.2297 162.5 26.5619 162.429 26.9258Z" fill="#DE5753"/>
<path d="M162.71 11.3217C162.71 11.3217 160.425 11.5545 159.353 12.6143C158.281 13.6742 157.644 15.2426 158.073 15.3345C158.502 15.4264 159.635 14.6238 159.966 14.7218C160.297 14.8199 160.468 16.6639 161.559 15.9471C162.649 15.2303 162 15.2855 162.919 14.9547C163.838 14.6238 164.475 15.745 164.861 15.6286C165.147 15.5206 165.411 15.3607 165.639 15.1568C165.639 15.1568 164.358 14.8689 164.242 14.4829C164.126 14.097 162.919 13.9989 162.919 13.9989C162.919 13.9989 164.352 13.3495 164.861 13.7171C165.369 14.0847 165.185 15.0404 166.399 14.8873C167.612 14.7341 169.603 15.6224 169.639 14.0602C169.676 12.4979 165.369 10.0229 162.71 11.3217Z" fill="#263238"/>
<path d="M72.6638 36.7894C72.6638 36.7894 67.0887 38.8111 68.0628 41.6354C69.0369 44.4597 75.6964 40.6429 75.6964 40.6429L72.6638 36.7894Z" fill="#EBB376"/>
<path opacity="0.2" d="M72.6638 36.7894C72.6638 36.7894 67.0887 38.8111 68.0628 41.6354C69.0369 44.4597 75.6964 40.6429 75.6964 40.6429L72.6638 36.7894Z" fill="black"/>
<path d="M82.3007 30.5648C79.2068 31.2204 71.3343 36.581 71.3343 36.581L73.9993 42.9709L81.1305 40.6184L82.3007 30.5648Z" fill="#263238"/>
<path d="M94.3759 154.27L90.5163 156.488L85.8847 148.095L89.7443 145.871L94.3759 154.27Z" fill="#EEC1BB"/>
<path d="M90.0446 155.992L94.3331 153.265C94.4015 153.216 94.4854 153.193 94.5696 153.199C94.6538 153.206 94.7328 153.242 94.7926 153.302L97.384 155.992C97.4934 156.123 97.5469 156.293 97.5331 156.463C97.5194 156.634 97.4395 156.792 97.3105 156.905L97.2002 156.978C95.7054 157.891 94.8906 158.308 93.0281 159.496C91.8764 160.219 87.0181 162.835 85.223 162.964C83.428 163.092 83.2258 161.389 83.9549 161.126C87.6307 159.753 89.0827 157.995 89.5544 156.611C89.6451 156.356 89.8174 156.138 90.0446 155.992Z" fill="#263238"/>
<path opacity="0.2" d="M89.7443 145.871L85.8847 148.095L88.274 152.42L92.1337 150.202L89.7443 145.871Z" fill="black"/>
<path d="M78.9679 55.7814C78.9679 55.7814 66.3352 97.6679 67.0274 110.117C67.7871 123.767 86.1359 152.481 86.1359 152.481L93.0526 148.113C93.0526 148.113 80.089 119.821 79.6051 109.345C80.3219 94.1881 96.0791 57.3743 96.0791 57.3743L78.9679 55.7814Z" fill="#0A8336"/>
<path opacity="0.2" d="M88.9969 70.4848C85.174 72.8251 83.6608 82.7929 84.4695 87.8533C86.5341 81.445 88.8928 75.1287 90.7797 70.2827C90.4909 70.157 90.1742 70.1095 89.8612 70.145C89.5483 70.1805 89.2502 70.2977 88.9969 70.4848Z" fill="black"/>
<path d="M85.37 153.119L93.5244 147.948L92.1888 145.65L83.6363 150.864L85.37 153.119Z" fill="#0A8336"/>
<path d="M89.1624 157.407C88.9178 157.584 88.625 157.683 88.323 157.689C88.2269 157.677 88.1356 157.641 88.0582 157.582C87.9807 157.524 87.92 157.447 87.8819 157.358C87.8546 157.307 87.8403 157.25 87.8403 157.193C87.8403 157.135 87.8546 157.078 87.8819 157.027C88.1883 156.555 89.8179 156.482 90.0017 156.482C90.0202 156.48 90.0389 156.484 90.0545 156.494C90.0702 156.504 90.0819 156.519 90.0875 156.537C90.0994 156.553 90.1058 156.572 90.1058 156.592C90.1058 156.612 90.0994 156.631 90.0875 156.647C89.8056 156.931 89.4956 157.186 89.1624 157.407ZM88.1699 157.027C88.127 157.05 88.091 157.084 88.0657 157.125C88.0513 157.144 88.0435 157.166 88.0435 157.189C88.0435 157.213 88.0513 157.235 88.0657 157.254C88.0873 157.318 88.1273 157.374 88.1807 157.416C88.2341 157.457 88.2985 157.482 88.3659 157.487C88.9022 157.393 89.3882 157.113 89.7383 156.696C89.1997 156.71 88.6682 156.823 88.1699 157.027Z" fill="#0A8336"/>
<path d="M90.0568 156.672H90.0078C89.4993 156.721 88.2862 156.414 88.1331 155.967C88.1116 155.893 88.1155 155.813 88.1444 155.741C88.1732 155.669 88.2253 155.608 88.2924 155.569C88.3526 155.517 88.4229 155.479 88.4988 155.456C88.5748 155.432 88.6546 155.425 88.7335 155.434C89.3461 155.489 90.0629 156.463 90.0874 156.525C90.0989 156.54 90.105 156.558 90.105 156.577C90.105 156.596 90.0989 156.614 90.0874 156.629L90.0568 156.672ZM88.4517 155.71H88.4149C88.3046 155.802 88.323 155.857 88.3291 155.881C88.421 156.145 89.2481 156.427 89.7934 156.463C89.5789 156.188 89.1072 155.661 88.7028 155.624C88.6147 155.617 88.5264 155.638 88.4517 155.685V155.71Z" fill="#0A8336"/>
<path d="M102.788 159.318H98.4991L98.1437 149.375H102.438L102.788 159.318Z" fill="#EEC1BB"/>
<path d="M97.9048 158.822H103.118C103.203 158.823 103.285 158.853 103.351 158.906C103.416 158.959 103.462 159.034 103.48 159.116L104.331 162.939C104.351 163.021 104.354 163.105 104.34 163.188C104.325 163.27 104.294 163.349 104.248 163.419C104.202 163.489 104.142 163.549 104.072 163.595C104.002 163.641 103.924 163.672 103.841 163.687C103.794 163.693 103.747 163.693 103.7 163.687C102.016 163.656 100.784 163.552 98.6644 163.552C97.3595 163.552 93.4263 163.693 91.6251 163.693C89.824 163.693 89.585 161.91 90.3263 161.745C93.6346 161.028 96.122 160.029 97.1818 159.073C97.3822 158.901 97.6406 158.811 97.9048 158.822Z" fill="#263238"/>
<path opacity="0.2" d="M102.438 149.381H98.1437L98.3275 154.509H102.622L102.438 149.381Z" fill="black"/>
<path d="M84.8248 56.6023C84.8248 56.6023 88.3169 97.6496 90.1303 110.086C92.1153 123.736 96.3548 153.517 96.3548 153.517H104.191C104.191 153.517 102.585 125.01 101.844 111.599C100.993 96.2834 100.582 57.895 100.582 57.895L84.8248 56.6023Z" fill="#0A8336"/>
<path d="M95.4113 153.682H104.675V150.913L95.0621 150.735L95.4113 153.682Z" fill="#0A8336"/>
<path d="M96.4834 159.576C96.1906 159.599 95.8986 159.521 95.6564 159.355C95.579 159.289 95.5195 159.204 95.4831 159.109C95.4468 159.014 95.4347 158.911 95.4481 158.81C95.4443 158.751 95.4588 158.692 95.4895 158.642C95.5202 158.592 95.5656 158.552 95.6196 158.528C96.0975 158.283 97.4576 159.141 97.6352 159.233C97.6528 159.241 97.6671 159.256 97.6759 159.273C97.6848 159.291 97.6877 159.311 97.6842 159.331C97.6811 159.351 97.6718 159.37 97.6576 159.386C97.6434 159.401 97.6249 159.412 97.6046 159.416C97.2376 159.509 96.8618 159.563 96.4834 159.576ZM95.8708 158.687C95.8267 158.675 95.7801 158.675 95.736 158.687C95.736 158.687 95.6748 158.724 95.6748 158.81C95.6653 158.877 95.6727 158.945 95.6963 159.008C95.7198 159.071 95.7587 159.127 95.8095 159.171C96.2889 159.393 96.8352 159.422 97.335 159.251C96.8789 158.974 96.3732 158.789 95.8463 158.706L95.8708 158.687Z" fill="#0A8336"/>
<path d="M97.58 159.423H97.531C97.0899 159.184 96.2322 158.24 96.3057 157.787C96.3213 157.711 96.3627 157.642 96.423 157.593C96.4833 157.544 96.5588 157.517 96.6366 157.517C96.7131 157.507 96.7909 157.513 96.8648 157.536C96.9387 157.558 97.0071 157.595 97.0654 157.646C97.5617 158.05 97.6781 159.288 97.6781 159.343C97.6786 159.362 97.6744 159.381 97.6658 159.398C97.6573 159.415 97.6446 159.43 97.629 159.441L97.58 159.423ZM96.7162 157.683H96.6672C96.5385 157.683 96.5263 157.756 96.5202 157.787C96.465 158.063 97.0103 158.779 97.4514 159.11C97.4259 158.622 97.2505 158.153 96.949 157.768C96.884 157.713 96.8015 157.683 96.7162 157.683Z" fill="#0A8336"/>
<path d="M81.5471 63.1392L92.5441 63.274V60.5906H81.5471V63.1392Z" fill="black"/>
<path d="M93.3773 60.5906V63.2802L100.895 63.372V60.5906H93.3773Z" fill="black"/>
<path d="M80.7139 60.5906H77.5159L77.2157 63.0841L80.7139 63.127V60.5906Z" fill="black"/>
<path d="M88.1698 60.1005H83.8445V63.2189H88.1698V60.1005Z" fill="white"/>
<path d="M77.7059 60.2108L101.127 61.7608C102.408 50.4207 106.139 38.7559 107.254 34.6328C107.331 34.3477 107.294 34.0436 107.15 33.7857C107.005 33.5279 106.765 33.3371 106.482 33.2544C105.324 32.9174 104.123 32.6417 102.91 32.3477C97.4421 31.1996 91.897 30.4563 86.3197 30.1238C84.9765 30.0001 83.6222 30.1481 82.3375 30.5587C78.7903 40.5081 77.9632 52.6691 77.7059 60.2108Z" fill="#263238"/>
<path opacity="0.6" d="M105.036 42.3828C104.815 43.2282 104.576 44.1165 104.344 45.0355C102.883 50.5304 101.798 56.1184 101.097 61.7607L77.7059 60.2107C77.8781 53.1564 78.6301 46.1281 79.9543 39.197C82.2946 33.8302 88.1637 31.5022 88.1637 31.5022C88.1637 31.5022 88.8131 32.8867 91.7232 33.2911C94.6333 33.6954 98.5174 32.7887 98.5174 32.7887C103.051 36.3604 104.191 42.9158 104.191 42.9158L105.036 42.3828Z" fill="white"/>
<path opacity="0.2" d="M106.286 37.9227C105.728 39.871 105.06 42.297 104.344 45.0356C101.783 41.4332 104.068 36.2012 104.068 36.2012C104.955 36.5538 105.724 37.1507 106.286 37.9227Z" fill="black"/>
<path d="M98.6767 31.6309C96.6672 33.4688 91.7477 32.7765 91.7477 32.7765C91.7477 32.7765 88.6845 31.9372 89.2971 30.9753C91.135 30.6813 91.9866 29.8358 92.3603 28.7514C92.5564 28.0819 92.6189 27.3804 92.5441 26.6868C92.5441 26.5153 92.5135 26.3437 92.489 26.1783C92.4645 26.0129 92.4277 25.7495 92.391 25.535L98.4745 21.026C98.254 21.8469 98.0212 22.8639 97.8619 23.9483C97.433 26.503 97.2982 29.4621 98.3275 31.1285C98.4266 31.3073 98.5436 31.4756 98.6767 31.6309Z" fill="#EBB376"/>
<path opacity="0.2" d="M98.3091 31.1285C96.9162 31.106 95.5745 30.5999 94.5138 29.6967C93.4531 28.7936 92.7394 27.5498 92.4951 26.1783C92.4501 25.9659 92.4174 25.7512 92.3971 25.535C94.1331 24.7639 95.965 24.2302 97.8435 23.9483C97.4147 26.503 97.2799 29.4376 98.3091 31.1285Z" fill="black"/>
<path d="M100.392 11.1992C100.392 11.1992 103.21 16.4128 101.042 19.5863C98.8728 22.7598 95.1908 12.4918 95.1908 12.4918L100.392 11.1992Z" fill="#263238"/>
<path d="M102.886 22.5392C102.873 22.7447 102.848 22.9492 102.812 23.1519C102.564 24.6359 101.76 25.9699 100.564 26.8829C99.4882 27.7126 98.1443 28.1162 96.7897 28.0163C95.8227 27.926 94.8978 27.5768 94.1125 27.0054C91.6619 25.2594 91.2575 22.8027 90.2773 18.7041C90.0405 17.7523 90.0501 16.7558 90.3054 15.8088C90.5606 14.8618 91.053 13.9955 91.736 13.2916C92.419 12.5877 93.2702 12.0695 94.2091 11.786C95.148 11.5024 96.1437 11.4628 97.1022 11.6709C101.458 12.5899 103.118 18.6551 102.886 22.5392Z" fill="#EBB376"/>
<path d="M96.7836 18.7654C96.8142 19.1084 97.0654 19.3474 97.2921 19.3045C97.5188 19.2616 97.6413 18.9614 97.58 18.6244C97.5188 18.2875 97.2921 18.0424 97.0715 18.0853C96.851 18.1282 96.7223 18.41 96.7836 18.7654Z" fill="#263238"/>
<path d="M100.6 18.0914C100.637 18.4284 100.888 18.6673 101.109 18.6306C101.329 18.5938 101.458 18.2814 101.403 17.9444C101.348 17.6075 101.109 17.3685 100.894 17.4053C100.68 17.442 100.545 17.7974 100.6 18.0914Z" fill="#263238"/>
<path d="M99.418 18.4713C100.002 19.4341 100.717 20.3105 101.544 21.075C101.343 21.2866 101.097 21.4513 100.825 21.5572C100.553 21.6631 100.261 21.7076 99.9694 21.6876L99.418 18.4713Z" fill="#D58745"/>
<path d="M101.74 16.2106C101.711 16.2343 101.677 16.2497 101.64 16.2551C101.603 16.2605 101.566 16.2557 101.532 16.2412C101.3 16.1411 101.048 16.0968 100.795 16.1117C100.543 16.1266 100.298 16.2003 100.08 16.327C100.058 16.3423 100.033 16.3531 100.007 16.359C99.9816 16.3648 99.9548 16.3654 99.9286 16.3609C99.9024 16.3563 99.8774 16.3467 99.855 16.3324C99.8325 16.3182 99.8131 16.2997 99.7978 16.278C99.7688 16.2346 99.7577 16.1816 99.7669 16.1303C99.776 16.0789 99.8047 16.033 99.8468 16.0023C100.119 15.8329 100.429 15.7321 100.749 15.7087C101.069 15.6852 101.39 15.7397 101.685 15.8675C101.71 15.8763 101.732 15.8901 101.752 15.9079C101.771 15.9258 101.787 15.9474 101.798 15.9714C101.809 15.9954 101.814 16.0214 101.815 16.0477C101.816 16.0741 101.811 16.1003 101.801 16.1248C101.788 16.1577 101.767 16.187 101.74 16.2106Z" fill="#263238"/>
<path d="M95.7544 17.3746C95.7165 17.3864 95.6759 17.3864 95.638 17.3746C95.6013 17.3369 95.5808 17.2863 95.5808 17.2337C95.5808 17.1811 95.6013 17.1305 95.638 17.0928C95.8376 16.8422 96.0939 16.6427 96.3858 16.5106C96.6776 16.3785 96.9967 16.3177 97.3167 16.3331C97.3693 16.3393 97.4173 16.3659 97.4506 16.4071C97.4838 16.4483 97.4995 16.501 97.4943 16.5537C97.4867 16.6068 97.4589 16.6549 97.4166 16.688C97.3744 16.7211 97.321 16.7366 97.2676 16.7313C97.0157 16.7251 96.7658 16.7772 96.5373 16.8834C96.3088 16.9897 96.108 17.1473 95.9505 17.344C95.9235 17.3661 95.8911 17.3806 95.8566 17.3859C95.8221 17.3913 95.7869 17.3874 95.7544 17.3746Z" fill="#263238"/>
<path d="M92.4093 13.0064L93.022 14.7709C92.7522 14.9851 92.5723 15.2925 92.5179 15.6327C92.4635 15.9729 92.5384 16.3211 92.7279 16.6088C93.6591 17.9995 93.3406 20.5604 92.3726 21.7673C92.3726 21.7673 92.1888 21.1179 91.668 21.3997C91.1473 21.6815 92.0785 25.0756 93.506 26.4785C93.506 26.4785 91.5271 25.3635 89.7811 21.9694C88.1637 18.8266 87.4285 16.0697 87.8206 14.6177L92.4093 13.0064Z" fill="#263238"/>
<path d="M89.0705 22.4473C89.699 23.3018 90.6389 23.8741 91.6865 24.0402C93.0772 24.2485 93.5979 22.9619 93.071 21.7366C92.5871 20.6523 91.2882 19.2003 89.9649 19.5679C89.6752 19.6472 89.4101 19.7983 89.1941 20.0071C88.9781 20.2159 88.8181 20.4757 88.729 20.7626C88.6399 21.0495 88.6244 21.3542 88.6841 21.6487C88.7438 21.9431 88.8767 22.2178 89.0705 22.4473Z" fill="#EBB376"/>
<path d="M87.7655 15.5305C87.7655 15.5305 86.8098 13.2454 90.1548 10.5681C93.4999 7.89085 98.0641 9.13452 100.221 6.99639C102.377 4.85825 103.896 11.4136 98.7012 13.3128C95.1663 14.5184 91.4908 15.2638 87.7655 15.5305Z" fill="#263238"/>
<path d="M99.902 22.9007C99.5224 23.3749 99.1784 23.8766 98.8727 24.4017L98.5725 24.2853C97.2186 23.7523 96.7714 23.06 96.6795 22.4473C96.634 21.9782 96.7484 21.5076 97.0042 21.1118C97.6983 21.8127 98.5336 22.3578 99.4548 22.7108C99.7121 22.8333 99.902 22.9007 99.902 22.9007Z" fill="#263238"/>
<path d="M99.4364 22.6985L99.1239 23.1335C97.8496 22.625 97.0226 22.0981 96.7775 21.5528C96.8298 21.3923 96.9041 21.2398 96.998 21.0995C97.6886 21.799 98.5196 22.344 99.4364 22.6985Z" fill="white"/>
<path d="M98.5664 24.2852C97.2124 23.7522 96.7652 23.0599 96.6733 22.4473C97.1845 22.6605 97.6534 22.9634 98.0579 23.3418C98.3224 23.5949 98.5004 23.9251 98.5664 24.2852Z" fill="#DE5753"/>
<path d="M68.0444 40.4652C69.8824 37.8492 71.849 38.4925 83.2381 37.3591C83.2381 37.3591 83.8875 36.0113 84.2918 35.9255C84.6961 35.8397 90.8104 35.6927 90.8104 35.6927L90.0997 41.6905C90.0997 41.6905 85.8663 42.1928 84.8248 42.0213C84.3898 41.9539 83.2074 40.7164 83.2074 40.7164C83.2074 40.7164 71.3344 44.0002 69.7292 43.847C68.1241 43.6938 66.8192 42.1929 68.0444 40.4652Z" fill="#EBB376"/>
<path d="M115.304 41.9846C115.304 41.9846 120.462 46.1934 119.415 49.8571C118.367 53.5207 106.286 60.5293 106.286 60.5293C106.286 60.5293 107.309 62.3121 107.254 63.127C107.199 63.9418 106.286 68.1996 106.286 68.1996L101.795 66.0003C101.795 66.0003 102.199 62.2876 102.218 61.2951C102.236 60.3027 103.841 59.1693 103.841 59.1693C103.841 59.1693 114.109 49.9796 114.109 49.1586C114.109 48.3377 111.003 45.2806 111.003 45.2806L115.304 41.9846Z" fill="#EBB376"/>
<path d="M106.445 33.2482C109.87 34.8595 116.688 42.9158 116.688 42.9158L111.604 48.7788L104.19 42.9158C104.19 42.9158 103.461 38.2474 104.05 36.1767C104.437 34.9263 105.296 33.8759 106.445 33.2482Z" fill="#263238"/>
<path opacity="0.2" d="M85.37 153.119L93.5244 147.948L92.1888 145.65L83.6363 150.864L85.37 153.119Z" fill="black"/>
<path opacity="0.2" d="M95.4113 153.682H104.675V150.913L95.0621 150.735L95.4113 153.682Z" fill="black"/>
<path d="M98.9156 43.1486C98.9156 43.602 102.806 44.2146 102.806 44.2146C102.806 44.2146 106.267 55.714 107.799 55.7507C108.724 55.7507 112.418 53.6923 115.218 52.0381C116.603 51.2172 117.767 50.5004 118.281 50.2002L118.539 50.0409L118.649 48.4664L118.765 46.8796L118.955 44.2146C116.701 44.8273 109.888 50.5004 108.889 50.9537C107.891 51.4071 104.65 42.7565 104.65 42.7565C104.65 42.7565 104.895 41.9356 104.65 41.5864C103.988 40.6184 99.0872 39.7484 98.934 39.6137C98.7808 39.4789 98.9156 42.683 98.9156 43.1486Z" fill="#E4897B"/>
<path opacity="0.2" d="M115.218 52.0382C116.603 51.2172 117.767 50.5004 118.281 50.2003C118.428 49.5876 118.551 48.975 118.649 48.4665C118.845 47.4617 118.955 46.7449 118.955 46.7449L118.765 46.8797C118.012 47.3943 115.341 49.459 115.218 52.0382Z" fill="black"/>
<path d="M135.478 23.5256C142.181 25.1675 142.75 32.1027 140.575 36.3912C138.401 40.6797 135.484 39.9507 135.062 42.487C134.639 45.0234 133.162 44.0676 133.162 44.0676L133.23 43.118C133.23 43.118 132.317 44.6068 130.167 43.988C129.077 43.7381 128.04 43.2985 127.103 42.6892L126.276 43.1548C126.276 43.1548 124.561 42.6708 125.186 41.0412C125.811 39.4115 123.379 33.8977 123.85 30.0135C124.322 26.1294 127.526 25.6515 132.09 26.5031L135.478 23.5256Z" fill="#263238"/>
<path d="M102.114 159.404L105.618 160.023L107.058 155.244L108.369 150.858L104.325 149.449L103.155 154.718L102.114 159.404Z" fill="#E4897B"/>
<path opacity="0.2" d="M103.137 154.828L107.039 155.342L108.363 150.907L104.325 149.473L103.137 154.828Z" fill="black"/>
<path d="M125.51 161.022H129.07L129.658 156.01L130.185 151.434L125.958 150.729L125.719 156.176L125.51 161.022Z" fill="#E4897B"/>
<path opacity="0.2" d="M125.719 156.219L129.658 156.047L130.185 151.452L125.958 150.741L125.719 156.219Z" fill="black"/>
<path d="M102.806 152.046L108.565 153.063C114.379 138.574 118.514 126.487 121.43 116.452C123.005 111.036 124.316 106.221 125.259 101.95L125.082 117.72V153.253H130.761C144.993 85.4641 134.908 70.0193 134.908 70.0193L117.877 67.1827C117.202 70.3338 116.724 73.5237 116.443 76.7339L115.671 82.3825L109.018 116.764L102.806 152.046Z" fill="#0A8336"/>
<g opacity="0.6">
<path d="M102.806 152.046L108.565 153.063C114.379 138.574 118.514 126.487 121.43 116.452C123.005 111.036 124.316 106.221 125.259 101.95L125.082 117.72V153.253H130.761C144.993 85.4641 134.908 70.0193 134.908 70.0193L117.877 67.1827C117.202 70.3338 116.724 73.5237 116.443 76.7339L115.671 82.3825L109.018 116.764L102.806 152.046Z" fill="white"/>
</g>
<path opacity="0.2" d="M121.436 116.433C123.011 111.018 124.236 106.202 125.18 101.932C125.098 96.8752 124.73 91.8271 124.077 86.8119C124.077 86.8119 121.584 106.331 121.436 116.433Z" fill="black"/>
<path d="M117.473 65.8594L134.872 67.875C135.037 64.165 135.633 60.4869 136.648 56.9148C136.838 56.2531 137.047 55.5547 137.261 54.8073C137.531 53.9496 137.837 53.0286 138.18 52.0442C138.443 51.2846 138.731 50.4759 139.05 49.5937C139.136 49.3425 139.234 49.0852 139.332 48.8279C139.65 47.964 139.993 47.0451 140.373 46.0771C138.094 45.4312 135.775 44.9319 133.432 44.5822C130.943 44.1908 128.433 43.9554 125.915 43.8777C122.662 43.8777 118.918 44.1779 118.918 44.1779C118.918 44.1779 118.392 44.2943 118.055 47.3698C117.185 53.4931 116.99 59.6935 117.473 65.8594Z" fill="#0A8336"/>
<path d="M126.123 44.8825C126.288 44.7993 126.457 44.7277 126.632 44.6681C127.018 44.3617 127.489 43.6266 127.465 41.8438C127.452 41.1437 127.389 40.4455 127.275 39.7547L132.237 38.8296C132.237 38.8296 130.54 42.1685 131.956 44.6497C132.44 44.8641 132.734 45.1704 132.679 45.5748C132.305 48.442 126.84 49.0056 126.84 49.0056C126.84 49.0056 123.133 46.5305 126.123 44.8825Z" fill="#E4897B"/>
<path opacity="0.2" d="M127.269 39.7547C127.387 40.445 127.453 41.1434 127.465 41.8438C130.816 41.8438 132.237 38.8296 132.237 38.8296L127.269 39.7547Z" fill="black"/>
<path d="M132.74 23.7891C132.74 23.7891 127.361 21.4488 125.02 25.627C124.349 26.8181 124.029 28.1757 124.1 29.5414C124.17 30.9071 124.628 32.2246 125.419 33.3402L132.74 23.7891Z" fill="#263238"/>
<path d="M132.55 26.3316C128.476 24.898 126.423 26.6195 124.616 30.712C122.392 35.8276 122.245 39.9691 127.734 40.643C135.196 41.5558 139.32 28.7148 132.55 26.3316Z" fill="#E4897B"/>
<path d="M127.33 31.4104C126.791 31.907 126.192 32.335 125.547 32.6847C125.611 32.8931 125.729 33.0808 125.89 33.2283C126.05 33.3759 126.247 33.4779 126.46 33.524L127.33 31.4104Z" fill="#DE5753"/>
<path d="M129.922 31.9556C129.793 32.2926 129.873 32.6295 130.093 32.7092C130.314 32.7888 130.596 32.5928 130.706 32.262C130.816 31.9311 130.755 31.5942 130.534 31.5084C130.314 31.4226 130.069 31.6248 129.922 31.9556Z" fill="#263238"/>
<path d="M130.657 31.5574L130.044 30.9999C130.044 30.9999 130.173 31.7473 130.657 31.5574Z" fill="#263238"/>
<path d="M125.841 30.326C125.713 30.6568 125.792 30.9938 126.013 31.0795C126.233 31.1653 126.515 30.9631 126.626 30.6262C126.736 30.2892 126.675 29.9584 126.454 29.8788C126.233 29.7991 125.964 29.9952 125.841 30.326Z" fill="#263238"/>
<path d="M126.558 29.9277L125.945 29.3702C125.945 29.3702 126.068 30.1115 126.558 29.9277Z" fill="#263238"/>
<path d="M132.525 30.6078C132.482 30.6076 132.44 30.5939 132.405 30.5687C132.37 30.5434 132.343 30.5078 132.329 30.4669C132.194 30.19 131.998 29.9472 131.757 29.7563C131.515 29.5654 131.233 29.4313 130.932 29.3642C130.906 29.3585 130.88 29.3476 130.857 29.3321C130.834 29.3166 130.815 29.2968 130.8 29.2737C130.785 29.2507 130.774 29.2249 130.769 29.1978C130.764 29.1708 130.764 29.143 130.77 29.116C130.776 29.0891 130.787 29.0635 130.802 29.0408C130.818 29.018 130.838 28.9985 130.861 28.9835C130.884 28.9684 130.909 28.958 130.936 28.9529C130.963 28.9478 130.991 28.9481 131.018 28.9537C131.389 29.0349 131.736 29.2011 132.031 29.4393C132.327 29.6774 132.563 29.981 132.721 30.326C132.731 30.3517 132.736 30.3792 132.735 30.4067C132.734 30.4342 132.728 30.4613 132.716 30.4864C132.705 30.5114 132.689 30.534 132.669 30.5527C132.648 30.5715 132.625 30.586 132.599 30.5956L132.525 30.6078Z" fill="#263238"/>
<path d="M128.084 28.1511C128.06 28.1519 128.036 28.148 128.014 28.1395C127.992 28.1311 127.972 28.1184 127.955 28.1021C127.725 27.9557 127.466 27.8622 127.196 27.8283C126.926 27.7944 126.651 27.8209 126.393 27.906C126.367 27.9134 126.339 27.9154 126.312 27.9119C126.285 27.9085 126.259 27.8996 126.236 27.8859C126.212 27.8721 126.192 27.8538 126.176 27.832C126.16 27.8102 126.148 27.7854 126.142 27.759C126.134 27.7324 126.132 27.7047 126.135 27.6773C126.139 27.65 126.148 27.6236 126.161 27.5996C126.175 27.5757 126.193 27.5547 126.215 27.5379C126.237 27.5211 126.262 27.5088 126.289 27.5017C126.61 27.3976 126.951 27.3683 127.285 27.4161C127.62 27.4639 127.939 27.5875 128.218 27.7774C128.262 27.8133 128.29 27.865 128.295 27.9212C128.301 27.9774 128.285 28.0336 128.249 28.0776C128.228 28.1008 128.203 28.1194 128.174 28.1321C128.146 28.1447 128.115 28.1512 128.084 28.1511Z" fill="#263238"/>
<path d="M134.584 34.7677C134.584 34.7677 133.861 30.7488 135.056 28.2675C135.056 28.2675 128.145 22.1411 124.855 30.179C124.855 30.179 126.632 22.6251 133.695 24.9286C140.759 27.2322 137.12 37.4756 132.427 39.2523C132.427 39.24 135.025 37.2796 134.584 34.7677Z" fill="#263238"/>
<path d="M132.127 23.2561C132.127 23.2561 128.966 21.4181 127.741 22.0308C126.515 22.6434 131.533 31.0121 134.945 32.703C134.945 32.703 135 37.0467 133.493 38.6273C133.493 38.6273 137.953 38.3945 139.944 32.2803C141.936 26.1661 136.128 21.9879 132.127 23.2561Z" fill="#263238"/>
<path d="M133.597 35.3987C133.802 34.9407 134.18 34.5824 134.649 34.4022C135.117 34.2219 135.638 34.2344 136.097 34.4368C137.322 35.0495 137.004 37.8248 133.646 37.3469C133.175 37.2734 133.077 36.7465 133.597 35.3987Z" fill="#E4897B"/>
<path d="M132.372 32.121C132.328 32.1216 132.284 32.1064 132.25 32.0781C127.906 28.9169 127.741 22.5331 127.741 22.4657C127.741 22.4099 127.762 22.3563 127.801 22.3162C127.84 22.2762 127.893 22.2529 127.949 22.2513C128.005 22.2513 128.058 22.273 128.098 22.3119C128.138 22.3508 128.162 22.4038 128.163 22.4596C128.163 22.5209 128.323 28.7025 132.501 31.7412C132.545 31.7752 132.573 31.8248 132.581 31.8796C132.589 31.9344 132.576 31.9902 132.544 32.0353C132.524 32.0623 132.498 32.0841 132.468 32.0991C132.439 32.114 132.406 32.1215 132.372 32.121Z" fill="#263238"/>
<path d="M125.553 34.8289C125.659 35.4363 125.721 36.0506 125.737 36.6669L126.056 36.7098C127.496 36.8874 128.225 36.4953 128.598 36.0052C128.77 35.7606 128.883 35.4797 128.929 35.1843C128.953 35.0156 128.953 34.8445 128.929 34.6758C127.991 34.9619 127.003 35.0414 126.031 34.9086C125.743 34.8596 125.553 34.8289 125.553 34.8289Z" fill="#263238"/>
<path d="M126.05 34.8841L126.117 35.4171C127.471 35.5825 128.451 35.5151 128.929 35.1597C128.953 34.9911 128.953 34.8199 128.929 34.6512C127.997 34.9347 127.015 35.0141 126.05 34.8841Z" fill="white"/>
<path d="M126.056 36.6853C127.496 36.8629 128.225 36.4708 128.598 35.9807C128.048 35.9234 127.493 35.9628 126.956 36.0971C126.6 36.1903 126.284 36.3967 126.056 36.6853Z" fill="#DE5753"/>
<path d="M134.841 67.6177L117.473 66.1167V69.0942L135.258 70.6625L134.841 67.6177Z" fill="black"/>
<path d="M122.319 67.4217V68.8001C122.318 69.0692 122.418 69.3289 122.599 69.5275C122.781 69.7261 123.031 69.8492 123.299 69.8722L125.468 70.0683H125.566C125.707 70.0691 125.848 70.0418 125.979 69.9879C126.11 69.934 126.23 69.8546 126.33 69.7543C126.43 69.654 126.51 69.5348 126.564 69.4036C126.617 69.2724 126.645 69.1319 126.644 68.99V67.6054C126.645 67.3354 126.544 67.0749 126.361 66.8761C126.178 66.6773 125.927 66.5549 125.658 66.5333L123.489 66.3434C123.34 66.3306 123.19 66.3491 123.048 66.3975C122.906 66.446 122.776 66.5234 122.666 66.6248C122.556 66.7262 122.468 66.8495 122.409 66.9867C122.349 67.1238 122.318 67.272 122.319 67.4217ZM122.876 68.8001V68.3468L123.489 68.3958C123.585 68.401 123.679 68.3688 123.753 68.306C123.826 68.2432 123.872 68.1547 123.881 68.0588C123.885 68.0105 123.88 67.9618 123.865 67.9156C123.85 67.8694 123.827 67.8266 123.795 67.7896C123.764 67.7526 123.726 67.7221 123.683 67.7C123.639 67.6778 123.592 67.6645 123.544 67.6606L122.931 67.6116H122.852V67.4217C122.85 67.3492 122.864 67.2772 122.892 67.2106C122.921 67.1439 122.963 67.0843 123.017 67.0357C123.113 66.9443 123.24 66.8938 123.372 66.8948H123.415L125.584 67.0786C125.715 67.0894 125.836 67.149 125.925 67.2455C126.013 67.342 126.062 67.4683 126.062 67.5993V68.9839C126.063 69.0568 126.048 69.129 126.018 69.1955C125.989 69.2621 125.945 69.3216 125.89 69.3699C125.839 69.4216 125.776 69.4607 125.707 69.4841C125.638 69.5075 125.564 69.5145 125.492 69.5047L123.323 69.3147C123.201 69.2974 123.09 69.2374 123.008 69.1454C122.926 69.0535 122.879 68.9355 122.876 68.8124V68.8001Z" fill="white"/>
<path d="M99.6324 159.576C99.3415 159.599 99.0514 159.521 98.8115 159.355C98.733 159.289 98.6723 159.205 98.6349 159.11C98.5974 159.015 98.5844 158.912 98.597 158.81C98.595 158.751 98.6101 158.693 98.6406 158.643C98.6711 158.593 98.7156 158.553 98.7686 158.528C99.2464 158.283 100.607 159.141 100.784 159.233C100.802 159.242 100.816 159.256 100.825 159.274C100.834 159.291 100.837 159.311 100.833 159.331C100.83 159.351 100.822 159.369 100.809 159.384C100.796 159.4 100.779 159.411 100.76 159.416C100.391 159.509 100.013 159.563 99.6324 159.576ZM99.0198 158.687C98.9777 158.675 98.9332 158.675 98.8911 158.687C98.8605 158.687 98.8299 158.724 98.8237 158.81C98.8143 158.877 98.8217 158.945 98.8452 159.008C98.8688 159.071 98.9077 159.127 98.9585 159.171C99.44 159.393 99.9882 159.422 100.49 159.251C100.032 158.974 99.5241 158.789 98.9953 158.706L99.0198 158.687Z" fill="#263238"/>
<path d="M100.729 159.423H100.68C100.239 159.184 99.3812 158.24 99.4547 157.787C99.4703 157.711 99.5117 157.642 99.572 157.593C99.6323 157.544 99.7078 157.517 99.7856 157.517C99.8621 157.507 99.9399 157.513 100.014 157.536C100.088 157.558 100.156 157.595 100.214 157.646C100.711 158.05 100.827 159.288 100.827 159.343C100.828 159.362 100.823 159.381 100.815 159.398C100.806 159.415 100.794 159.43 100.778 159.441L100.729 159.423ZM99.8713 157.683H99.8223C99.6875 157.683 99.6753 157.756 99.6691 157.787C99.6201 158.063 100.165 158.779 100.606 159.11C100.575 158.622 100.398 158.155 100.098 157.769C100.043 157.72 99.9747 157.69 99.902 157.683H99.8713Z" fill="#263238"/>
<path d="M123.526 159.576C123.235 159.599 122.945 159.521 122.705 159.355C122.626 159.289 122.565 159.205 122.528 159.11C122.491 159.015 122.478 158.912 122.49 158.81C122.488 158.751 122.503 158.693 122.534 158.643C122.564 158.593 122.609 158.553 122.662 158.528C123.14 158.283 124.5 159.141 124.677 159.233C124.695 159.242 124.709 159.256 124.718 159.274C124.727 159.291 124.73 159.311 124.726 159.331C124.724 159.351 124.715 159.369 124.702 159.384C124.689 159.4 124.672 159.411 124.653 159.416C124.284 159.509 123.906 159.563 123.526 159.576ZM122.913 158.687C122.871 158.675 122.826 158.675 122.784 158.687C122.754 158.687 122.723 158.724 122.717 158.81C122.707 158.877 122.715 158.945 122.738 159.008C122.762 159.071 122.801 159.127 122.852 159.171C123.333 159.393 123.881 159.422 124.383 159.251C123.925 158.974 123.417 158.789 122.888 158.706L122.913 158.687Z" fill="#263238"/>
<path d="M124.622 159.423H124.573C124.132 159.184 123.274 158.24 123.348 157.787C123.363 157.711 123.405 157.642 123.465 157.593C123.525 157.544 123.601 157.517 123.679 157.517C123.755 157.507 123.833 157.513 123.907 157.536C123.981 157.558 124.049 157.595 124.108 157.646C124.604 158.05 124.72 159.288 124.72 159.343C124.721 159.362 124.717 159.381 124.708 159.398C124.699 159.415 124.687 159.43 124.671 159.441L124.622 159.423ZM123.764 157.683H123.715C123.581 157.683 123.568 157.756 123.562 157.787C123.513 158.063 124.059 158.779 124.5 159.11C124.468 158.622 124.291 158.155 123.991 157.769C123.936 157.72 123.868 157.69 123.795 157.683H123.764Z" fill="#263238"/>
<path d="M101.054 158.822H106.267C106.353 158.822 106.436 158.851 106.503 158.904C106.57 158.958 106.617 159.033 106.635 159.116L107.48 162.939C107.5 163.021 107.503 163.105 107.489 163.188C107.474 163.27 107.443 163.349 107.397 163.419C107.351 163.489 107.291 163.549 107.221 163.595C107.151 163.641 107.073 163.672 106.99 163.687C106.944 163.693 106.896 163.693 106.849 163.687C105.165 163.656 103.939 163.552 101.82 163.552C100.515 163.552 96.5753 163.693 94.7742 163.693C92.973 163.693 92.7402 161.91 93.4753 161.745C96.7836 161.028 99.271 160.029 100.331 159.073C100.531 158.901 100.79 158.811 101.054 158.822Z" fill="#0A8336"/>
<path d="M124.947 158.822H130.161C130.246 158.822 130.33 158.851 130.396 158.904C130.463 158.958 130.51 159.033 130.528 159.116L131.374 162.939C131.393 163.021 131.396 163.105 131.382 163.188C131.367 163.27 131.336 163.349 131.29 163.419C131.244 163.489 131.185 163.549 131.115 163.595C131.045 163.641 130.966 163.672 130.883 163.687C130.837 163.693 130.789 163.693 130.743 163.687C129.058 163.656 127.832 163.552 125.713 163.552C124.408 163.552 120.468 163.693 118.667 163.693C116.866 163.693 116.633 161.91 117.368 161.745C120.677 161.028 123.164 160.029 124.224 159.073C124.424 158.901 124.683 158.811 124.947 158.822Z" fill="#0A8336"/>
<path d="M121.7 44.1902C121.731 44.8165 121.885 45.4306 122.153 45.9975C122.347 46.4321 122.605 46.8349 122.919 47.1921C123.939 48.3139 125.333 49.0261 126.84 49.1955C128.696 49.5297 130.611 49.277 132.317 48.4726C132.663 48.3049 132.998 48.1167 133.322 47.9089C134.306 47.285 135.158 46.4731 135.827 45.5196C135.443 45.3626 135.051 45.2276 134.651 45.1153C134.394 45.0417 134.124 44.9744 133.843 44.9192C130.847 44.3638 127.804 44.1032 124.757 44.1412H123.795C122.515 44.1412 121.7 44.1902 121.7 44.1902Z" fill="#E4897B"/>
<path d="M122.153 45.979C122.347 46.4137 122.605 46.8165 122.919 47.1737C122.95 46.5513 123.133 45.9461 123.454 45.4117C123.775 44.8773 124.222 44.4304 124.757 44.1105H123.795C123.393 44.2698 123.035 44.5223 122.749 44.8471C122.464 45.1719 122.26 45.5599 122.153 45.979Z" fill="#263238"/>
<path d="M132.305 48.4296V48.4725C132.651 48.3049 132.986 48.1167 133.31 47.9089C133.332 47.3778 133.461 46.8566 133.689 46.3765C133.918 45.8965 134.241 45.4675 134.639 45.1152C134.382 45.0417 134.112 44.9743 133.83 44.9192C132.188 45.832 132.305 48.4296 132.305 48.4296Z" fill="#263238"/>
<path opacity="0.2" d="M137.273 54.8073C137.543 53.9496 137.849 53.0286 138.192 52.0443C138.456 51.2846 138.744 50.4759 139.062 49.5937C138.906 49.2113 138.67 48.8667 138.37 48.5828C138.37 48.5828 137.102 52.1055 137.273 54.8073Z" fill="black"/>
<path d="M140.392 46.1078C142.616 47.2044 149.257 57.748 147.364 61.2952C145.47 64.8424 136.949 67.9608 136.949 67.9608C136.949 67.9608 140.502 69.9152 140.379 70.4114C140.257 70.9076 137.316 72.862 136.949 72.862C135.926 72.0814 134.968 71.221 134.081 70.2889C133.659 69.811 134.026 67.8015 134.026 67.8015C136.428 65.8472 143.026 61.1421 143.43 60.0883C143.835 59.0346 138.272 51.7747 138.272 51.7747C138.272 51.7747 138.113 48.7605 138.78 47.4127C139.448 46.0649 140.392 46.1078 140.392 46.1078Z" fill="#E4897B"/>
</svg>
