<svg width="40" height="40" viewBox="0 0 40 40" fill="none" xmlns="http://www.w3.org/2000/svg">
<path d="M31.6667 5H8.33333C6.49238 5 5 6.49238 5 8.33333V31.6667C5 33.5076 6.49238 35 8.33333 35H31.6667C33.5076 35 35 33.5076 35 31.6667V8.33333C35 6.49238 33.5076 5 31.6667 5Z" stroke="#6E747A" stroke-width="1.6" stroke-linecap="round" stroke-linejoin="round"/>
<path d="M14.168 16.666C15.5487 16.666 16.668 15.5467 16.668 14.166C16.668 12.7853 15.5487 11.666 14.168 11.666C12.7873 11.666 11.668 12.7853 11.668 14.166C11.668 15.5467 12.7873 16.666 14.168 16.666Z" stroke="#6E747A" stroke-width="1.6" stroke-linecap="round" stroke-linejoin="round"/>
<path d="M34.9987 24.9993L26.6654 16.666L8.33203 34.9994" stroke="#6E747A" stroke-width="1.6" stroke-linecap="round" stroke-linejoin="round"/>
</svg>
