<svg width="97" height="96" viewBox="0 0 97 96" fill="none" xmlns="http://www.w3.org/2000/svg">
<path opacity="0.99" d="M41.7501 64.375C41.2247 64.3755 40.7044 64.2723 40.2191 64.0712C39.7338 63.87 39.293 63.575 38.9221 63.203L27.6721 51.9531C26.9298 51.2014 26.515 50.1866 26.5183 49.1303C26.5216 48.0739 26.9427 47.0617 27.6897 46.3147C28.4367 45.5677 29.4488 45.1466 30.5052 45.1432C31.5616 45.1399 32.5764 45.5546 33.3281 46.2968L41.75 54.7187L63.6721 32.7968C64.4238 32.0546 65.4386 31.6399 66.4949 31.6432C67.5513 31.6466 68.5635 32.0677 69.3105 32.8147C70.0574 33.5617 70.4785 34.5739 70.4818 35.6302C70.4851 36.6866 70.0704 37.7014 69.3281 38.4531L44.5781 63.2031C44.2071 63.5751 43.7663 63.8701 43.281 64.0712C42.7957 64.2723 42.2754 64.3756 41.7501 64.375Z" fill="#218460"/>
<path d="M48.5 8C40.5888 8 32.8552 10.346 26.2772 14.7412C19.6992 19.1365 14.5723 25.3836 11.5448 32.6927C8.51733 40.0017 7.7252 48.0444 9.26861 55.8036C10.812 63.5629 14.6216 70.6902 20.2157 76.2843C25.8098 81.8784 32.9372 85.688 40.6964 87.2314C48.4556 88.7748 56.4983 87.9827 63.8074 84.9552C71.1164 81.9277 77.3635 76.8008 81.7588 70.2228C86.1541 63.6448 88.5 55.9113 88.5 48C88.4879 37.3951 84.2697 27.228 76.7709 19.7291C69.2721 12.2303 59.105 8.01213 48.5 8ZM69.328 38.4531L44.578 63.2031C44.2067 63.5746 43.7658 63.8694 43.2805 64.0704C42.7953 64.2715 42.2752 64.375 41.7499 64.375C41.2246 64.375 40.7045 64.2715 40.2192 64.0704C39.734 63.8694 39.2931 63.5746 38.9218 63.2031L27.672 51.9531C26.9297 51.2015 26.515 50.1867 26.5183 49.1303C26.5216 48.0739 26.9427 47.0617 27.6896 46.3147C28.4366 45.5677 29.4488 45.1466 30.5051 45.1433C31.5615 45.1399 32.5763 45.5546 33.328 46.2969L41.7499 54.7188L63.672 32.7969C64.4237 32.0546 65.4385 31.6399 66.4949 31.6433C67.5513 31.6466 68.5634 32.0677 69.3104 32.8147C70.0574 33.5617 70.4785 34.5739 70.4818 35.6303C70.4851 36.6867 70.0703 37.7015 69.328 38.4531Z" fill="#98D9C0"/>
</svg>
