<svg width="97" height="96" viewBox="0 0 97 96" fill="none" xmlns="http://www.w3.org/2000/svg">
<path d="M48.5 88C70.5914 88 88.5 70.0914 88.5 48C88.5 25.9086 70.5914 8 48.5 8C26.4086 8 8.5 25.9086 8.5 48C8.5 70.0914 26.4086 88 48.5 88Z" fill="#FADD89"/>
<path d="M48.5 68C50.7091 68 52.5 66.2091 52.5 64C52.5 61.7909 50.7091 60 48.5 60C46.2909 60 44.5 61.7909 44.5 64C44.5 66.2091 46.2909 68 48.5 68Z" fill="#F5B026"/>
<path d="M48.5 52C47.4391 52 46.4217 51.5786 45.6716 50.8284C44.9214 50.0783 44.5 49.0609 44.5 48V32C44.5 30.9391 44.9214 29.9217 45.6716 29.1716C46.4217 28.4214 47.4391 28 48.5 28C49.5609 28 50.5783 28.4214 51.3284 29.1716C52.0786 29.9217 52.5 30.9391 52.5 32V48C52.5 49.0609 52.0786 50.0783 51.3284 50.8284C50.5783 51.5786 49.5609 52 48.5 52Z" fill="#F5B026"/>
</svg>
