<svg width="28" height="36" viewBox="0 0 28 36" fill="none" xmlns="http://www.w3.org/2000/svg">
<path d="M8.75 21.5L19.25 11" stroke="#0a5888" stroke-width="3" stroke-linecap="round" stroke-linejoin="round"/>
<path d="M9.625 12.75C10.1082 12.75 10.5 12.3582 10.5 11.875C10.5 11.3918 10.1082 11 9.625 11C9.14175 11 8.75 11.3918 8.75 11.875C8.75 12.3582 9.14175 12.75 9.625 12.75Z" fill="#0a5888" stroke="#0a5888" stroke-width="3" stroke-linecap="round" stroke-linejoin="round"/>
<path d="M18.375 21.5C18.8582 21.5 19.25 21.1082 19.25 20.625C19.25 20.1418 18.8582 19.75 18.375 19.75C17.8918 19.75 17.5 20.1418 17.5 20.625C17.5 21.1082 17.8918 21.5 18.375 21.5Z" fill="#0a5888" stroke="#0a5888" stroke-width="3" stroke-linecap="round" stroke-linejoin="round"/>
<path d="M1.75 33.75V5.75C1.75 4.82174 2.11875 3.9315 2.77513 3.27513C3.4315 2.61875 4.32174 2.25 5.25 2.25H22.75C23.6783 2.25 24.5685 2.61875 25.2249 3.27513C25.8813 3.9315 26.25 4.82174 26.25 5.75V33.75L21 30.25L17.5 33.75L14 30.25L10.5 33.75L7 30.25L1.75 33.75Z" stroke="#0a5888" stroke-width="3" stroke-linecap="round" stroke-linejoin="round"/>
</svg>
