<svg width="24" height="24" viewBox="0 0 24 24" fill="none" xmlns="http://www.w3.org/2000/svg">
<path d="M18.6947 5.26177L18.6964 5.26355C20.4724 7.03955 21.45 9.40228 21.45 11.92C21.45 17.1039 17.2238 21.33 12.04 21.33C10.4643 21.33 8.91646 20.9313 7.5392 20.1809L7.36488 20.086L7.17288 20.1364L2.75984 21.2964L3.93241 16.9914L3.98693 16.7913L3.88375 16.6113C3.06672 15.1863 2.62999 13.5719 2.62999 11.91C2.62999 6.72614 6.85613 2.5 12.04 2.5L12.0417 2.5C13.2785 2.49569 14.5037 2.73767 15.6459 3.21184C16.7882 3.68601 17.8246 4.38287 18.6947 5.26177ZM7.58273 19.4288L7.58574 19.4305C8.93214 20.2256 10.4698 20.65 12.04 20.65C16.8542 20.65 20.7801 16.738 20.76 11.9199C20.764 10.7715 20.5402 9.63372 20.1015 8.57241C19.6626 7.51089 19.0176 6.54698 18.2036 5.73653C16.5597 4.08256 14.3624 3.17 12.03 3.17C7.21385 3.17 3.28999 7.09386 3.28999 11.91L3.28999 11.9104C3.2912 13.5533 3.75422 15.1629 4.62622 16.5554L4.62618 16.5554L4.62984 16.5611L4.70887 16.6836L3.93764 19.5083L3.70956 20.3437L4.54708 20.1236L7.46336 19.3571L7.58273 19.4288ZM9.18373 11.6243L9.18739 11.6308L9.19124 11.6372C9.3447 11.893 9.86689 12.7594 10.6672 13.4731C11.5382 14.2514 12.3178 14.5845 12.6515 14.7271C12.7001 14.7478 12.7392 14.7645 12.7678 14.778C12.925 14.8587 13.1297 14.9357 13.3588 14.9092C13.6119 14.8798 13.79 14.7386 13.9106 14.5943C14.0449 14.4404 14.4702 13.935 14.6799 13.6433C14.6838 13.6447 14.6878 13.6461 14.692 13.6475C14.8621 13.7195 15.5298 14.0448 15.978 14.2631C16.1396 14.3419 16.2727 14.4067 16.3436 14.4408C16.3969 14.4663 16.4469 14.4894 16.489 14.5088C16.4995 14.5136 16.5096 14.5183 16.5191 14.5227C16.5392 14.532 16.5565 14.5401 16.5717 14.5473C16.5712 14.5743 16.5698 14.6059 16.5667 14.642C16.553 14.8061 16.5101 15.0305 16.4199 15.2798L16.4198 15.2798L16.4173 15.287C16.3743 15.4117 16.199 15.6117 15.8896 15.8107C15.5934 16.0011 15.2949 16.1134 15.1491 16.135C14.754 16.19 14.3002 16.2109 13.8133 16.0541L13.8133 16.054L13.8061 16.0518C13.4567 15.9451 13.0171 15.8016 12.4516 15.5524L12.4481 15.5509C10.2211 14.5901 8.70174 12.3791 8.45462 12.0195C8.44314 12.0028 8.4344 11.9901 8.42847 11.9817L8.42431 11.9758L8.41999 11.97L8.41814 11.9675C8.3603 11.8904 8.13109 11.5849 7.91576 11.161C7.69445 10.7254 7.50999 10.2073 7.50999 9.71C7.50999 8.78024 7.94044 8.30652 8.18483 8.03757C8.20491 8.01547 8.22374 7.99475 8.24096 7.97528C8.36043 7.84724 8.4768 7.83 8.52999 7.83H8.99641C9.01615 7.83092 9.03467 7.83127 9.04827 7.83145C9.06258 7.85413 9.08283 7.89122 9.10717 7.94925C9.30263 8.43775 9.81091 9.67989 9.88277 9.82361C9.88496 9.82798 9.88681 9.83184 9.88837 9.83523C9.88804 9.8359 9.8877 9.83657 9.88737 9.83724C9.81415 9.98391 9.78872 10.0348 9.72036 10.1146C9.66583 10.1782 9.61743 10.2369 9.57341 10.2902C9.4978 10.3818 9.4351 10.4578 9.37643 10.5164C9.37375 10.5191 9.37083 10.522 9.36769 10.5252C9.30843 10.584 9.17197 10.7195 9.1032 10.9109C9.0146 11.1574 9.06039 11.404 9.18373 11.6243ZM16.6549 14.5911C16.6549 14.5911 16.6547 14.5909 16.6543 14.5906L16.6549 14.5911ZM9.02499 7.80017C9.02501 7.80012 9.02564 7.80068 9.02685 7.80199C9.02559 7.80087 9.02498 7.80022 9.02499 7.80017Z" fill="#35A936" stroke="#35A936"/>
</svg>
