<svg width="24" height="24" viewBox="0 0 24 24" fill="none" xmlns="http://www.w3.org/2000/svg">
<g clip-path="url(#clip0_1415_271)">
<path d="M22.995 12C22.995 18.0755 18.0719 23 11.9998 23C5.92771 23 1.00461 18.0755 1.00461 12C1.00461 5.92449 5.92771 1 11.9998 1C18.0719 1 22.995 5.92449 22.995 12Z" stroke="#35A936" stroke-width="2" stroke-linecap="round" stroke-linejoin="round"/>
<path d="M12.4702 6.42463C9.11636 6.42463 7.42264 8.79488 7.42264 10.7717C7.42264 11.9712 7.88325 13.0316 8.86686 13.4298C9.02999 13.497 9.17394 13.4346 9.22192 13.2571C9.2555 13.1371 9.40425 12.8253 9.43783 12.7005C9.48581 12.5278 9.46662 12.4654 9.33707 12.3119C9.05398 11.9808 8.87646 11.6353 8.87646 11.0308C8.87646 9.01559 10.1336 7.58097 12.2735 7.58097C14.1687 7.58097 15.2099 8.7565 15.2099 10.2823C15.2099 12.2879 14.3079 13.9192 12.9692 13.9192C12.2303 13.9192 11.6785 13.3818 11.8561 12.6429C12.0672 11.7601 12.4798 10.8101 12.4798 10.1719C12.4798 9.60096 12.1727 9.19312 11.5298 9.19312C10.7765 9.19312 10.1671 9.89844 10.1671 10.93C10.1671 11.5874 10.3831 11.9136 10.3831 11.9136C10.3831 11.9136 9.62016 15.2579 9.48101 15.8241C9.21232 16.9516 9.44263 18.3287 9.46182 18.4678C9.47142 18.5494 9.58177 18.5686 9.62976 18.5062C9.69693 18.4198 10.599 17.3211 10.906 16.2271C10.9924 15.92 11.405 14.3175 11.405 14.3175C11.6497 14.7781 12.3695 15.0756 13.1276 15.0756C15.397 15.0756 16.9372 13.1419 16.9372 10.4166C16.942 8.34866 15.1667 6.42463 12.4702 6.42463Z" fill="#35A936"/>
</g>
<defs>
<clipPath id="clip0_1415_271">
<rect width="24" height="24" fill="white"/>
</clipPath>
</defs>
</svg>
