<svg width="250" height="291" viewBox="0 0 250 291" fill="none" xmlns="http://www.w3.org/2000/svg">
<g filter="url(#filter0_d_7121_41241)">
<path d="M8.5293 28C8.5293 16.9543 17.4836 8 28.5293 8H221.47C232.516 8 241.47 16.9543 241.47 28V283H8.5293V28Z" fill="white"/>
<rect x="20.8237" y="212.471" width="208.353" height="30.5294" rx="3.23529" fill="#0a5888"/>
<path d="M106.508 228.794H108.02C107.99 229.289 107.853 229.729 107.61 230.113C107.371 230.497 107.036 230.797 106.604 231.013C106.176 231.229 105.661 231.336 105.058 231.336C104.586 231.336 104.163 231.256 103.789 231.094C103.415 230.929 103.095 230.693 102.828 230.386C102.565 230.079 102.365 229.709 102.227 229.274C102.089 228.839 102.019 228.352 102.019 227.813V227.302C102.019 226.763 102.09 226.276 102.232 225.842C102.377 225.403 102.582 225.031 102.848 224.724C103.118 224.418 103.44 224.182 103.814 224.017C104.188 223.851 104.606 223.769 105.068 223.769C105.681 223.769 106.198 223.88 106.62 224.103C107.044 224.325 107.373 224.632 107.605 225.023C107.841 225.414 107.983 225.858 108.03 226.357H106.513C106.497 226.061 106.438 225.809 106.337 225.604C106.235 225.395 106.082 225.238 105.877 225.134C105.674 225.026 105.405 224.972 105.068 224.972C104.815 224.972 104.594 225.019 104.405 225.114C104.217 225.208 104.058 225.351 103.93 225.543C103.802 225.735 103.706 225.978 103.642 226.271C103.581 226.561 103.551 226.901 103.551 227.292V227.813C103.551 228.194 103.58 228.529 103.637 228.819C103.694 229.105 103.782 229.348 103.9 229.547C104.021 229.742 104.176 229.891 104.365 229.992C104.557 230.09 104.788 230.138 105.058 230.138C105.374 230.138 105.636 230.088 105.841 229.987C106.047 229.886 106.203 229.736 106.311 229.537C106.422 229.338 106.488 229.09 106.508 228.794ZM108.692 228.556V228.45C108.692 228.049 108.75 227.68 108.864 227.343C108.979 227.003 109.146 226.708 109.365 226.458C109.584 226.209 109.853 226.015 110.173 225.877C110.494 225.735 110.861 225.665 111.275 225.665C111.69 225.665 112.059 225.735 112.382 225.877C112.706 226.015 112.977 226.209 113.196 226.458C113.419 226.708 113.587 227.003 113.702 227.343C113.816 227.68 113.874 228.049 113.874 228.45V228.556C113.874 228.954 113.816 229.323 113.702 229.663C113.587 230 113.419 230.295 113.196 230.548C112.977 230.797 112.708 230.991 112.388 231.129C112.067 231.267 111.7 231.336 111.286 231.336C110.871 231.336 110.502 231.267 110.178 231.129C109.858 230.991 109.587 230.797 109.365 230.548C109.146 230.295 108.979 230 108.864 229.663C108.75 229.323 108.692 228.954 108.692 228.556ZM110.148 228.45V228.556C110.148 228.785 110.168 228.999 110.209 229.198C110.249 229.397 110.313 229.572 110.401 229.724C110.492 229.872 110.61 229.988 110.755 230.073C110.9 230.157 111.077 230.199 111.286 230.199C111.488 230.199 111.661 230.157 111.806 230.073C111.951 229.988 112.067 229.872 112.155 229.724C112.243 229.572 112.307 229.397 112.347 229.198C112.391 228.999 112.413 228.785 112.413 228.556V228.45C112.413 228.228 112.391 228.019 112.347 227.823C112.307 227.624 112.241 227.449 112.15 227.297C112.062 227.142 111.946 227.021 111.801 226.933C111.656 226.846 111.481 226.802 111.275 226.802C111.07 226.802 110.895 226.846 110.75 226.933C110.608 227.021 110.492 227.142 110.401 227.297C110.313 227.449 110.249 227.624 110.209 227.823C110.168 228.019 110.148 228.228 110.148 228.45ZM116.194 226.933V231.235H114.738V225.766H116.103L116.194 226.933ZM115.982 228.308H115.587C115.587 227.904 115.64 227.54 115.744 227.217C115.849 226.89 115.995 226.612 116.184 226.382C116.373 226.15 116.597 225.973 116.856 225.852C117.119 225.727 117.412 225.665 117.736 225.665C117.992 225.665 118.226 225.702 118.439 225.776C118.651 225.85 118.833 225.968 118.985 226.13C119.14 226.291 119.257 226.505 119.338 226.772C119.423 227.038 119.465 227.363 119.465 227.747V231.235H117.999V227.742C117.999 227.5 117.965 227.311 117.898 227.176C117.83 227.041 117.731 226.947 117.599 226.893C117.471 226.836 117.313 226.807 117.124 226.807C116.929 226.807 116.759 226.846 116.614 226.923C116.472 227.001 116.354 227.109 116.26 227.247C116.169 227.382 116.1 227.54 116.053 227.722C116.005 227.904 115.982 228.099 115.982 228.308ZM122.392 231.235H120.931V225.518C120.931 225.053 121.025 224.66 121.214 224.34C121.406 224.02 121.679 223.777 122.033 223.612C122.39 223.447 122.821 223.364 123.327 223.364C123.613 223.364 123.891 223.393 124.161 223.45C124.431 223.504 124.709 223.575 124.995 223.663L124.783 224.83C124.597 224.773 124.399 224.719 124.186 224.669C123.974 224.618 123.718 224.593 123.418 224.593C123.081 224.593 122.825 224.672 122.65 224.83C122.478 224.986 122.392 225.215 122.392 225.518V231.235ZM123.479 225.766V226.797H120.117V225.766H123.479ZM125.672 225.766V231.235H124.212V225.766H125.672ZM128.347 226.959V231.235H126.891V225.766H128.261L128.347 226.959ZM129.995 225.73L129.969 227.08C129.899 227.07 129.813 227.061 129.712 227.055C129.614 227.045 129.524 227.04 129.444 227.04C129.238 227.04 129.059 227.067 128.908 227.12C128.759 227.171 128.635 227.247 128.534 227.348C128.436 227.449 128.362 227.572 128.311 227.717C128.264 227.862 128.237 228.027 128.23 228.212L127.937 228.121C127.937 227.768 127.973 227.442 128.043 227.146C128.114 226.846 128.217 226.585 128.352 226.362C128.49 226.14 128.658 225.968 128.857 225.847C129.056 225.725 129.284 225.665 129.54 225.665C129.621 225.665 129.703 225.671 129.787 225.685C129.872 225.695 129.941 225.71 129.995 225.73ZM132.138 226.898V231.235H130.677V225.766H132.047L132.138 226.898ZM131.936 228.308H131.531C131.531 227.928 131.577 227.577 131.668 227.257C131.762 226.933 131.899 226.654 132.077 226.418C132.259 226.179 132.483 225.993 132.75 225.862C133.016 225.73 133.324 225.665 133.675 225.665C133.917 225.665 134.14 225.702 134.342 225.776C134.544 225.847 134.718 225.959 134.863 226.114C135.011 226.266 135.126 226.465 135.206 226.711C135.287 226.954 135.328 227.245 135.328 227.586V231.235H133.872V227.747C133.872 227.498 133.838 227.306 133.771 227.171C133.703 227.036 133.607 226.942 133.483 226.888C133.361 226.834 133.215 226.807 133.043 226.807C132.854 226.807 132.689 226.846 132.547 226.923C132.409 227.001 132.295 227.109 132.204 227.247C132.113 227.382 132.045 227.54 132.002 227.722C131.958 227.904 131.936 228.099 131.936 228.308ZM135.191 228.142L134.671 228.207C134.671 227.85 134.714 227.518 134.802 227.211C134.893 226.905 135.026 226.635 135.201 226.403C135.38 226.17 135.601 225.99 135.864 225.862C136.127 225.73 136.43 225.665 136.774 225.665C137.036 225.665 137.276 225.703 137.491 225.781C137.707 225.855 137.891 225.975 138.042 226.14C138.197 226.302 138.315 226.514 138.396 226.777C138.481 227.04 138.523 227.361 138.523 227.742V231.235H137.062V227.742C137.062 227.489 137.028 227.297 136.961 227.166C136.897 227.031 136.802 226.938 136.678 226.888C136.556 226.834 136.411 226.807 136.243 226.807C136.068 226.807 135.914 226.842 135.783 226.913C135.651 226.981 135.542 227.075 135.454 227.196C135.367 227.318 135.301 227.459 135.257 227.621C135.213 227.779 135.191 227.953 135.191 228.142ZM142.602 230.002V227.565C142.602 227.39 142.574 227.24 142.516 227.115C142.459 226.987 142.37 226.888 142.248 226.817C142.13 226.746 141.977 226.711 141.788 226.711C141.627 226.711 141.487 226.74 141.369 226.797C141.251 226.851 141.16 226.93 141.096 227.035C141.032 227.136 141 227.255 141 227.393H139.544C139.544 227.161 139.598 226.94 139.706 226.731C139.813 226.522 139.97 226.339 140.176 226.18C140.381 226.018 140.626 225.892 140.909 225.801C141.195 225.71 141.515 225.665 141.869 225.665C142.294 225.665 142.671 225.735 143.002 225.877C143.332 226.018 143.591 226.231 143.78 226.514C143.972 226.797 144.068 227.151 144.068 227.575V229.916C144.068 230.216 144.087 230.462 144.124 230.654C144.161 230.843 144.215 231.008 144.286 231.149V231.235H142.814C142.744 231.087 142.69 230.902 142.653 230.679C142.619 230.453 142.602 230.228 142.602 230.002ZM142.794 227.904L142.804 228.728H141.99C141.798 228.728 141.632 228.75 141.49 228.794C141.348 228.838 141.232 228.9 141.141 228.981C141.05 229.058 140.983 229.149 140.939 229.254C140.899 229.358 140.878 229.473 140.878 229.597C140.878 229.722 140.907 229.835 140.964 229.936C141.022 230.034 141.104 230.111 141.212 230.169C141.32 230.223 141.446 230.25 141.591 230.25C141.81 230.25 142.001 230.206 142.162 230.118C142.324 230.031 142.449 229.923 142.536 229.795C142.627 229.667 142.675 229.545 142.678 229.431L143.062 230.047C143.008 230.186 142.934 230.329 142.84 230.477C142.749 230.625 142.632 230.765 142.491 230.897C142.349 231.025 142.179 231.131 141.98 231.215C141.782 231.296 141.546 231.336 141.273 231.336C140.926 231.336 140.61 231.267 140.327 231.129C140.048 230.988 139.825 230.794 139.66 230.548C139.498 230.298 139.417 230.015 139.417 229.699C139.417 229.412 139.471 229.158 139.579 228.935C139.687 228.713 139.845 228.526 140.054 228.374C140.267 228.219 140.531 228.103 140.848 228.025C141.165 227.944 141.532 227.904 141.95 227.904H142.794ZM146.646 226.959V231.235H145.19V225.766H146.56L146.646 226.959ZM148.294 225.73L148.269 227.08C148.198 227.07 148.112 227.061 148.011 227.055C147.913 227.045 147.824 227.04 147.743 227.04C147.538 227.04 147.359 227.067 147.207 227.12C147.059 227.171 146.934 227.247 146.833 227.348C146.736 227.449 146.661 227.572 146.611 227.717C146.564 227.862 146.537 228.027 146.53 228.212L146.237 228.121C146.237 227.768 146.272 227.442 146.343 227.146C146.414 226.846 146.517 226.585 146.651 226.362C146.79 226.14 146.958 225.968 147.157 225.847C147.356 225.725 147.583 225.665 147.839 225.665C147.92 225.665 148.003 225.671 148.087 225.685C148.171 225.695 148.24 225.71 148.294 225.73Z" fill="white"/>
<path d="M109.334 260.617H110.846C110.815 261.112 110.679 261.552 110.436 261.936C110.197 262.321 109.862 262.62 109.43 262.836C109.002 263.052 108.487 263.16 107.883 263.16C107.412 263.16 106.989 263.079 106.615 262.917C106.241 262.752 105.92 262.516 105.654 262.209C105.391 261.903 105.191 261.532 105.053 261.097C104.914 260.662 104.845 260.175 104.845 259.636V259.126C104.845 258.586 104.916 258.099 105.058 257.665C105.203 257.227 105.408 256.854 105.674 256.548C105.944 256.241 106.266 256.005 106.64 255.84C107.014 255.675 107.432 255.592 107.894 255.592C108.507 255.592 109.024 255.703 109.446 255.926C109.87 256.148 110.199 256.455 110.431 256.846C110.667 257.237 110.809 257.682 110.856 258.18H109.339C109.323 257.884 109.264 257.633 109.162 257.427C109.061 257.218 108.908 257.062 108.702 256.957C108.5 256.849 108.231 256.795 107.894 256.795C107.641 256.795 107.42 256.842 107.231 256.937C107.043 257.031 106.884 257.174 106.756 257.366C106.628 257.559 106.532 257.801 106.468 258.094C106.407 258.384 106.377 258.725 106.377 259.116V259.636C106.377 260.017 106.406 260.352 106.463 260.642C106.52 260.929 106.608 261.171 106.726 261.37C106.847 261.566 107.002 261.714 107.191 261.815C107.383 261.913 107.614 261.962 107.883 261.962C108.2 261.962 108.461 261.911 108.667 261.81C108.873 261.709 109.029 261.559 109.137 261.36C109.248 261.161 109.314 260.914 109.334 260.617ZM114.703 261.825V259.389C114.703 259.213 114.674 259.063 114.617 258.939C114.56 258.811 114.47 258.711 114.349 258.64C114.231 258.57 114.078 258.534 113.889 258.534C113.727 258.534 113.587 258.563 113.469 258.62C113.351 258.674 113.26 258.753 113.196 258.858C113.132 258.959 113.1 259.079 113.1 259.217H111.645C111.645 258.984 111.698 258.763 111.806 258.554C111.914 258.346 112.071 258.162 112.276 258.003C112.482 257.842 112.726 257.715 113.009 257.624C113.296 257.533 113.616 257.488 113.97 257.488C114.395 257.488 114.772 257.559 115.102 257.7C115.432 257.842 115.692 258.054 115.881 258.337C116.073 258.62 116.169 258.974 116.169 259.399V261.739C116.169 262.039 116.187 262.285 116.224 262.477C116.262 262.666 116.315 262.831 116.386 262.973V263.059H114.915C114.844 262.91 114.79 262.725 114.753 262.503C114.72 262.277 114.703 262.051 114.703 261.825ZM114.895 259.727L114.905 260.551H114.091C113.899 260.551 113.732 260.573 113.591 260.617C113.449 260.661 113.333 260.723 113.242 260.804C113.151 260.882 113.084 260.973 113.04 261.077C112.999 261.181 112.979 261.296 112.979 261.421C112.979 261.545 113.008 261.658 113.065 261.759C113.122 261.857 113.205 261.935 113.313 261.992C113.421 262.046 113.547 262.073 113.692 262.073C113.911 262.073 114.101 262.029 114.263 261.941C114.425 261.854 114.55 261.746 114.637 261.618C114.728 261.49 114.775 261.368 114.779 261.254L115.163 261.871C115.109 262.009 115.035 262.152 114.94 262.3C114.849 262.449 114.733 262.588 114.592 262.72C114.45 262.848 114.28 262.954 114.081 263.038C113.882 263.119 113.646 263.16 113.373 263.16C113.026 263.16 112.711 263.091 112.428 262.952C112.148 262.811 111.926 262.617 111.761 262.371C111.599 262.122 111.518 261.839 111.518 261.522C111.518 261.235 111.572 260.981 111.68 260.759C111.788 260.536 111.946 260.349 112.155 260.197C112.367 260.042 112.632 259.926 112.949 259.849C113.266 259.768 113.633 259.727 114.051 259.727H114.895ZM118.717 258.757V263.059H117.261V257.589H118.626L118.717 258.757ZM118.504 260.132H118.11C118.11 259.727 118.162 259.363 118.267 259.04C118.371 258.713 118.518 258.435 118.707 258.206C118.895 257.973 119.119 257.796 119.379 257.675C119.642 257.55 119.935 257.488 120.258 257.488C120.515 257.488 120.749 257.525 120.961 257.599C121.173 257.673 121.355 257.791 121.507 257.953C121.662 258.115 121.78 258.329 121.861 258.595C121.945 258.861 121.987 259.186 121.987 259.571V263.059H120.521V259.565C120.521 259.323 120.488 259.134 120.42 258.999C120.353 258.865 120.253 258.77 120.122 258.716C119.994 258.659 119.836 258.63 119.647 258.63C119.451 258.63 119.281 258.669 119.136 258.747C118.995 258.824 118.877 258.932 118.782 259.07C118.691 259.205 118.622 259.363 118.575 259.545C118.528 259.727 118.504 259.923 118.504 260.132ZM125.354 262.022C125.533 262.022 125.691 261.989 125.829 261.921C125.967 261.85 126.075 261.753 126.153 261.628C126.234 261.5 126.276 261.35 126.279 261.178H127.649C127.646 261.562 127.543 261.904 127.341 262.204C127.139 262.501 126.867 262.735 126.527 262.907C126.186 263.075 125.806 263.16 125.384 263.16C124.96 263.16 124.589 263.089 124.272 262.947C123.959 262.806 123.698 262.61 123.489 262.361C123.28 262.108 123.123 261.815 123.019 261.481C122.914 261.144 122.862 260.784 122.862 260.4V260.253C122.862 259.865 122.914 259.505 123.019 259.171C123.123 258.834 123.28 258.541 123.489 258.292C123.698 258.039 123.959 257.842 124.272 257.7C124.586 257.559 124.953 257.488 125.374 257.488C125.823 257.488 126.215 257.574 126.552 257.746C126.893 257.918 127.159 258.164 127.351 258.484C127.546 258.8 127.646 259.176 127.649 259.611H126.279C126.276 259.429 126.237 259.264 126.163 259.116C126.092 258.967 125.988 258.849 125.849 258.762C125.715 258.671 125.548 258.625 125.349 258.625C125.137 258.625 124.963 258.671 124.828 258.762C124.694 258.849 124.589 258.971 124.515 259.126C124.441 259.277 124.389 259.451 124.358 259.646C124.331 259.838 124.318 260.041 124.318 260.253V260.4C124.318 260.612 124.331 260.816 124.358 261.011C124.385 261.207 124.436 261.38 124.51 261.532C124.587 261.684 124.694 261.803 124.828 261.891C124.963 261.978 125.138 262.022 125.354 262.022ZM131.011 263.16C130.586 263.16 130.205 263.092 129.868 262.957C129.531 262.819 129.245 262.629 129.009 262.386C128.776 262.144 128.598 261.862 128.473 261.542C128.348 261.219 128.286 260.875 128.286 260.511V260.309C128.286 259.894 128.345 259.515 128.463 259.171C128.581 258.827 128.749 258.529 128.968 258.276C129.191 258.024 129.461 257.83 129.777 257.695C130.094 257.557 130.451 257.488 130.849 257.488C131.237 257.488 131.58 257.552 131.88 257.68C132.18 257.808 132.431 257.99 132.633 258.226C132.839 258.462 132.994 258.745 133.099 259.075C133.203 259.402 133.255 259.766 133.255 260.167V260.774H128.908V259.803H131.825V259.692C131.825 259.49 131.788 259.309 131.713 259.151C131.643 258.989 131.535 258.861 131.39 258.767C131.245 258.672 131.06 258.625 130.834 258.625C130.642 258.625 130.477 258.667 130.338 258.752C130.2 258.836 130.087 258.954 130 259.105C129.915 259.257 129.851 259.436 129.808 259.641C129.767 259.844 129.747 260.066 129.747 260.309V260.511C129.747 260.73 129.777 260.932 129.838 261.117C129.902 261.303 129.991 261.463 130.106 261.598C130.224 261.732 130.365 261.837 130.531 261.911C130.699 261.985 130.889 262.022 131.102 262.022C131.365 262.022 131.609 261.972 131.835 261.871C132.064 261.766 132.261 261.609 132.426 261.401L133.134 262.169C133.019 262.334 132.863 262.492 132.664 262.644C132.468 262.796 132.232 262.92 131.956 263.018C131.68 263.113 131.365 263.16 131.011 263.16ZM135.621 255.294V263.059H134.16V255.294H135.621ZM139.776 261.825V259.389C139.776 259.213 139.748 259.063 139.69 258.939C139.633 258.811 139.544 258.711 139.423 258.64C139.305 258.57 139.151 258.534 138.963 258.534C138.801 258.534 138.661 258.563 138.543 258.62C138.425 258.674 138.334 258.753 138.27 258.858C138.206 258.959 138.174 259.079 138.174 259.217H136.718C136.718 258.984 136.772 258.763 136.88 258.554C136.988 258.346 137.144 258.162 137.35 258.003C137.556 257.842 137.8 257.715 138.083 257.624C138.369 257.533 138.69 257.488 139.043 257.488C139.468 257.488 139.845 257.559 140.176 257.7C140.506 257.842 140.766 258.054 140.954 258.337C141.146 258.62 141.242 258.974 141.242 259.399V261.739C141.242 262.039 141.261 262.285 141.298 262.477C141.335 262.666 141.389 262.831 141.46 262.973V263.059H139.989C139.918 262.91 139.864 262.725 139.827 262.503C139.793 262.277 139.776 262.051 139.776 261.825ZM139.968 259.727L139.979 260.551H139.165C138.973 260.551 138.806 260.573 138.664 260.617C138.523 260.661 138.406 260.723 138.315 260.804C138.224 260.882 138.157 260.973 138.113 261.077C138.073 261.181 138.053 261.296 138.053 261.421C138.053 261.545 138.081 261.658 138.139 261.759C138.196 261.857 138.278 261.935 138.386 261.992C138.494 262.046 138.62 262.073 138.765 262.073C138.984 262.073 139.175 262.029 139.337 261.941C139.498 261.854 139.623 261.746 139.711 261.618C139.802 261.49 139.849 261.368 139.852 261.254L140.236 261.871C140.182 262.009 140.108 262.152 140.014 262.3C139.923 262.449 139.807 262.588 139.665 262.72C139.524 262.848 139.353 262.954 139.155 263.038C138.956 263.119 138.72 263.16 138.447 263.16C138.1 263.16 137.785 263.091 137.502 262.952C137.222 262.811 136.999 262.617 136.834 262.371C136.673 262.122 136.592 261.839 136.592 261.522C136.592 261.235 136.646 260.981 136.753 260.759C136.861 260.536 137.02 260.349 137.229 260.197C137.441 260.042 137.705 259.926 138.022 259.849C138.339 259.768 138.706 259.727 139.124 259.727H139.968ZM143.821 258.782V263.059H142.365V257.589H143.735L143.821 258.782ZM145.468 257.554L145.443 258.903C145.372 258.893 145.287 258.885 145.185 258.878C145.088 258.868 144.998 258.863 144.917 258.863C144.712 258.863 144.533 258.89 144.382 258.944C144.233 258.994 144.109 259.07 144.008 259.171C143.91 259.272 143.836 259.395 143.785 259.54C143.738 259.685 143.711 259.85 143.704 260.036L143.411 259.945C143.411 259.591 143.446 259.266 143.517 258.969C143.588 258.669 143.691 258.408 143.826 258.185C143.964 257.963 144.132 257.791 144.331 257.67C144.53 257.548 144.757 257.488 145.014 257.488C145.094 257.488 145.177 257.495 145.261 257.508C145.345 257.518 145.415 257.533 145.468 257.554Z" fill="#383838"/>
<path d="M26.7157 51.7795C26.1217 51.7795 25.568 51.6841 25.0547 51.4935C24.5487 51.2955 24.1087 51.0168 23.7347 50.6575C23.3607 50.2981 23.0673 49.8765 22.8547 49.3925C22.6493 48.9085 22.5467 48.3768 22.5467 47.7975C22.5467 47.2181 22.6493 46.6865 22.8547 46.2025C23.0673 45.7185 23.3607 45.2968 23.7347 44.9375C24.116 44.5781 24.5597 44.3031 25.0657 44.1125C25.5717 43.9145 26.1253 43.8155 26.7267 43.8155C27.394 43.8155 27.9953 43.9328 28.5307 44.1675C29.0733 44.3948 29.528 44.7321 29.8947 45.1795L28.7507 46.2355C28.4867 45.9348 28.1933 45.7111 27.8707 45.5645C27.548 45.4105 27.196 45.3335 26.8147 45.3335C26.4553 45.3335 26.1253 45.3921 25.8247 45.5095C25.524 45.6268 25.2637 45.7955 25.0437 46.0155C24.8237 46.2355 24.6513 46.4958 24.5267 46.7965C24.4093 47.0971 24.3507 47.4308 24.3507 47.7975C24.3507 48.1641 24.4093 48.4978 24.5267 48.7985C24.6513 49.0991 24.8237 49.3595 25.0437 49.5795C25.2637 49.7995 25.524 49.9681 25.8247 50.0855C26.1253 50.2028 26.4553 50.2615 26.8147 50.2615C27.196 50.2615 27.548 50.1881 27.8707 50.0415C28.1933 49.8875 28.4867 49.6565 28.7507 49.3485L29.8947 50.4045C29.528 50.8518 29.0733 51.1928 28.5307 51.4275C27.9953 51.6621 27.3903 51.7795 26.7157 51.7795ZM30.8671 51.6475V45.7295H32.5061V47.4015L32.2751 46.9175C32.4511 46.4995 32.7334 46.1841 33.1221 45.9715C33.5107 45.7515 33.9837 45.6415 34.5411 45.6415V47.2255C34.4677 47.2181 34.4017 47.2145 34.3431 47.2145C34.2844 47.2071 34.2221 47.2035 34.1561 47.2035C33.6867 47.2035 33.3054 47.3391 33.0121 47.6105C32.7261 47.8745 32.5831 48.2888 32.5831 48.8535V51.6475H30.8671ZM35.4621 51.6475V45.7295H37.1781V51.6475H35.4621ZM36.3201 44.9045C36.0048 44.9045 35.7481 44.8128 35.5501 44.6295C35.3521 44.4461 35.2531 44.2188 35.2531 43.9475C35.2531 43.6761 35.3521 43.4488 35.5501 43.2655C35.7481 43.0821 36.0048 42.9905 36.3201 42.9905C36.6355 42.9905 36.8921 43.0785 37.0901 43.2545C37.2881 43.4231 37.3871 43.6431 37.3871 43.9145C37.3871 44.2005 37.2881 44.4388 37.0901 44.6295C36.8995 44.8128 36.6428 44.9045 36.3201 44.9045ZM42.2907 51.6475V50.4925L42.1807 50.2395V48.1715C42.1807 47.8048 42.0671 47.5188 41.8397 47.3135C41.6197 47.1081 41.2787 47.0055 40.8167 47.0055C40.5014 47.0055 40.1897 47.0568 39.8817 47.1595C39.5811 47.2548 39.3244 47.3868 39.1117 47.5555L38.4957 46.3565C38.8184 46.1291 39.2071 45.9531 39.6617 45.8285C40.1164 45.7038 40.5784 45.6415 41.0477 45.6415C41.9497 45.6415 42.6501 45.8541 43.1487 46.2795C43.6474 46.7048 43.8967 47.3685 43.8967 48.2705V51.6475H42.2907ZM40.4867 51.7355C40.0247 51.7355 39.6287 51.6585 39.2987 51.5045C38.9687 51.3431 38.7157 51.1268 38.5397 50.8555C38.3637 50.5841 38.2757 50.2798 38.2757 49.9425C38.2757 49.5905 38.3601 49.2825 38.5287 49.0185C38.7047 48.7545 38.9797 48.5491 39.3537 48.4025C39.7277 48.2485 40.2154 48.1715 40.8167 48.1715H42.3897V49.1725H41.0037C40.6004 49.1725 40.3217 49.2385 40.1677 49.3705C40.0211 49.5025 39.9477 49.6675 39.9477 49.8655C39.9477 50.0855 40.0321 50.2615 40.2007 50.3935C40.3767 50.5181 40.6151 50.5805 40.9157 50.5805C41.2017 50.5805 41.4584 50.5145 41.6857 50.3825C41.9131 50.2431 42.0781 50.0415 42.1807 49.7775L42.4447 50.5695C42.3201 50.9508 42.0927 51.2405 41.7627 51.4385C41.4327 51.6365 41.0074 51.7355 40.4867 51.7355ZM45.3398 51.6475V45.7295H46.9788V47.4015L46.7478 46.9175C46.9238 46.4995 47.2061 46.1841 47.5948 45.9715C47.9835 45.7515 48.4565 45.6415 49.0138 45.6415V47.2255C48.9405 47.2181 48.8745 47.2145 48.8158 47.2145C48.7571 47.2071 48.6948 47.2035 48.6288 47.2035C48.1595 47.2035 47.7781 47.3391 47.4848 47.6105C47.1988 47.8745 47.0558 48.2888 47.0558 48.8535V51.6475H45.3398ZM56.5693 45.6415C57.0387 45.6415 57.4567 45.7368 57.8233 45.9275C58.1973 46.1108 58.4907 46.3968 58.7033 46.7855C58.916 47.1668 59.0223 47.6581 59.0223 48.2595V51.6475H57.3063V48.5235C57.3063 48.0468 57.2 47.6948 56.9873 47.4675C56.782 47.2401 56.4887 47.1265 56.1073 47.1265C55.836 47.1265 55.5903 47.1851 55.3703 47.3025C55.1577 47.4125 54.989 47.5848 54.8643 47.8195C54.747 48.0541 54.6883 48.3548 54.6883 48.7215V51.6475H52.9723V45.7295H54.6113V47.3685L54.3033 46.8735C54.516 46.4775 54.8203 46.1731 55.2163 45.9605C55.6123 45.7478 56.0633 45.6415 56.5693 45.6415ZM63.3268 51.7355C62.6961 51.7355 62.1351 51.6035 61.6438 51.3395C61.1598 51.0755 60.7748 50.7161 60.4888 50.2615C60.2101 49.7995 60.0708 49.2751 60.0708 48.6885C60.0708 48.0945 60.2101 47.5701 60.4888 47.1155C60.7748 46.6535 61.1598 46.2941 61.6438 46.0375C62.1351 45.7735 62.6961 45.6415 63.3268 45.6415C63.9501 45.6415 64.5074 45.7735 64.9988 46.0375C65.4901 46.2941 65.8751 46.6498 66.1538 47.1045C66.4324 47.5591 66.5718 48.0871 66.5718 48.6885C66.5718 49.2751 66.4324 49.7995 66.1538 50.2615C65.8751 50.7161 65.4901 51.0755 64.9988 51.3395C64.5074 51.6035 63.9501 51.7355 63.3268 51.7355ZM63.3268 50.3275C63.6128 50.3275 63.8694 50.2615 64.0968 50.1295C64.3241 49.9975 64.5038 49.8105 64.6358 49.5685C64.7678 49.3191 64.8338 49.0258 64.8338 48.6885C64.8338 48.3438 64.7678 48.0505 64.6358 47.8085C64.5038 47.5665 64.3241 47.3795 64.0968 47.2475C63.8694 47.1155 63.6128 47.0495 63.3268 47.0495C63.0408 47.0495 62.7841 47.1155 62.5568 47.2475C62.3294 47.3795 62.1461 47.5665 62.0068 47.8085C61.8748 48.0505 61.8088 48.3438 61.8088 48.6885C61.8088 49.0258 61.8748 49.3191 62.0068 49.5685C62.1461 49.8105 62.3294 49.9975 62.5568 50.1295C62.7841 50.2615 63.0408 50.3275 63.3268 50.3275ZM69.0536 51.6475L66.5676 45.7295H68.3386L70.4066 50.8225H69.5266L71.6716 45.7295H73.3216L70.8246 51.6475H69.0536ZM76.5667 51.7355C75.9361 51.7355 75.3751 51.6035 74.8837 51.3395C74.3997 51.0755 74.0147 50.7161 73.7287 50.2615C73.4501 49.7995 73.3107 49.2751 73.3107 48.6885C73.3107 48.0945 73.4501 47.5701 73.7287 47.1155C74.0147 46.6535 74.3997 46.2941 74.8837 46.0375C75.3751 45.7735 75.9361 45.6415 76.5667 45.6415C77.1901 45.6415 77.7474 45.7735 78.2387 46.0375C78.7301 46.2941 79.1151 46.6498 79.3937 47.1045C79.6724 47.5591 79.8117 48.0871 79.8117 48.6885C79.8117 49.2751 79.6724 49.7995 79.3937 50.2615C79.1151 50.7161 78.7301 51.0755 78.2387 51.3395C77.7474 51.6035 77.1901 51.7355 76.5667 51.7355ZM76.5667 50.3275C76.8527 50.3275 77.1094 50.2615 77.3367 50.1295C77.5641 49.9975 77.7437 49.8105 77.8757 49.5685C78.0077 49.3191 78.0737 49.0258 78.0737 48.6885C78.0737 48.3438 78.0077 48.0505 77.8757 47.8085C77.7437 47.5665 77.5641 47.3795 77.3367 47.2475C77.1094 47.1155 76.8527 47.0495 76.5667 47.0495C76.2807 47.0495 76.0241 47.1155 75.7967 47.2475C75.5694 47.3795 75.3861 47.5665 75.2467 47.8085C75.1147 48.0505 75.0487 48.3438 75.0487 48.6885C75.0487 49.0258 75.1147 49.3191 75.2467 49.5685C75.3861 49.8105 75.5694 49.9975 75.7967 50.1295C76.0241 50.2615 76.2807 50.3275 76.5667 50.3275ZM83.975 51.6475V43.9475H87.308C87.9973 43.9475 88.5913 44.0611 89.09 44.2885C89.5886 44.5085 89.9736 44.8275 90.245 45.2455C90.5163 45.6635 90.652 46.1621 90.652 46.7415C90.652 47.3135 90.5163 47.8085 90.245 48.2265C89.9736 48.6445 89.5886 48.9671 89.09 49.1945C88.5913 49.4145 87.9973 49.5245 87.308 49.5245H84.965L85.757 48.7215V51.6475H83.975ZM85.757 48.9195L84.965 48.0725H87.209C87.759 48.0725 88.1696 47.9551 88.441 47.7205C88.7123 47.4858 88.848 47.1595 88.848 46.7415C88.848 46.3161 88.7123 45.9861 88.441 45.7515C88.1696 45.5168 87.759 45.3995 87.209 45.3995H84.965L85.757 44.5525V48.9195ZM91.8142 51.6475V43.9475H93.5962V51.6475H91.8142ZM95.3136 51.6475V43.9475H96.7876L101.331 49.4915H100.616V43.9475H102.376V51.6475H100.913L96.3586 46.1035H97.0736V51.6475H95.3136Z" fill="#2B2B2B"/>
<path d="M222.867 23.3672L215.426 30.8084" stroke="#383838" stroke-width="1.16471" stroke-linecap="round" stroke-linejoin="round"/>
<path d="M215.426 23.3672L222.867 30.8084" stroke="#383838" stroke-width="1.16471" stroke-linecap="round" stroke-linejoin="round"/>
<rect x="103.647" y="20.2939" width="42.7059" height="2.58824" rx="1.29412" fill="#565555"/>
<path d="M24.5376 104.765H22.8672L22.8779 103.696H24.5376C25.021 103.696 25.4256 103.59 25.7515 103.379C26.0809 103.168 26.328 102.865 26.4927 102.471C26.661 102.077 26.7451 101.608 26.7451 101.064V100.64C26.7451 100.217 26.6968 99.8429 26.6001 99.5171C26.507 99.1912 26.3674 98.9173 26.1812 98.6953C25.9985 98.4733 25.7729 98.305 25.5044 98.1904C25.2394 98.0758 24.9333 98.0186 24.5859 98.0186H22.835V96.9443H24.5859C25.1051 96.9443 25.5796 97.0321 26.0093 97.2075C26.439 97.3794 26.8096 97.6283 27.1211 97.9541C27.4362 98.2799 27.6779 98.6702 27.8462 99.125C28.0145 99.5798 28.0986 100.088 28.0986 100.65V101.064C28.0986 101.626 28.0145 102.135 27.8462 102.589C27.6779 103.044 27.4362 103.434 27.1211 103.76C26.806 104.083 26.43 104.331 25.9932 104.507C25.5599 104.679 25.0747 104.765 24.5376 104.765ZM23.6138 96.9443V104.765H22.2656V96.9443H23.6138ZM30.709 98.9531V104.765H29.4092V98.9531H30.709ZM29.3232 97.4277C29.3232 97.2308 29.3877 97.0679 29.5166 96.939C29.6491 96.8065 29.8317 96.7402 30.0645 96.7402C30.2936 96.7402 30.4744 96.8065 30.6069 96.939C30.7394 97.0679 30.8057 97.2308 30.8057 97.4277C30.8057 97.6211 30.7394 97.7822 30.6069 97.9111C30.4744 98.04 30.2936 98.1045 30.0645 98.1045C29.8317 98.1045 29.6491 98.04 29.5166 97.9111C29.3877 97.7822 29.3232 97.6211 29.3232 97.4277ZM35.8491 98.9531H37.0254V104.604C37.0254 105.126 36.9144 105.57 36.6924 105.936C36.4704 106.301 36.1606 106.578 35.7632 106.768C35.3657 106.961 34.9056 107.058 34.3828 107.058C34.1608 107.058 33.9137 107.026 33.6416 106.961C33.373 106.897 33.1117 106.793 32.8574 106.65C32.6068 106.51 32.3973 106.326 32.229 106.097L32.8359 105.334C33.0436 105.581 33.2728 105.762 33.5234 105.876C33.7741 105.991 34.0373 106.048 34.313 106.048C34.6102 106.048 34.8626 105.993 35.0703 105.882C35.2816 105.774 35.4445 105.615 35.5591 105.404C35.6737 105.193 35.731 104.935 35.731 104.63V100.269L35.8491 98.9531ZM31.9014 101.923V101.811C31.9014 101.37 31.9551 100.969 32.0625 100.607C32.1699 100.242 32.3239 99.9289 32.5244 99.6675C32.7249 99.4025 32.9684 99.2002 33.2549 99.0605C33.5413 98.9173 33.8654 98.8457 34.2271 98.8457C34.603 98.8457 34.9235 98.9137 35.1885 99.0498C35.457 99.1859 35.6808 99.381 35.8599 99.6353C36.0389 99.8859 36.1785 100.187 36.2788 100.538C36.3826 100.885 36.4596 101.272 36.5098 101.698V102.058C36.4632 102.473 36.3844 102.853 36.2734 103.196C36.1624 103.54 36.0156 103.837 35.833 104.088C35.6504 104.339 35.4248 104.532 35.1562 104.668C34.8913 104.804 34.578 104.872 34.2163 104.872C33.8618 104.872 33.5413 104.799 33.2549 104.652C32.972 104.505 32.7285 104.299 32.5244 104.034C32.3239 103.769 32.1699 103.458 32.0625 103.1C31.9551 102.738 31.9014 102.346 31.9014 101.923ZM33.1958 101.811V101.923C33.1958 102.188 33.2209 102.435 33.271 102.665C33.3247 102.894 33.4053 103.096 33.5127 103.271C33.6237 103.443 33.7633 103.579 33.9316 103.68C34.1035 103.776 34.3058 103.825 34.5386 103.825C34.8429 103.825 35.0918 103.76 35.2852 103.631C35.4821 103.502 35.6325 103.329 35.7363 103.11C35.8438 102.888 35.9189 102.641 35.9619 102.369V101.397C35.9404 101.186 35.8957 100.989 35.8276 100.806C35.7632 100.624 35.6755 100.464 35.5645 100.328C35.4535 100.188 35.3138 100.081 35.1455 100.006C34.9772 99.9271 34.7785 99.8877 34.5493 99.8877C34.3166 99.8877 34.1143 99.9378 33.9424 100.038C33.7705 100.138 33.6291 100.276 33.5181 100.452C33.4106 100.627 33.3301 100.831 33.2764 101.064C33.2227 101.297 33.1958 101.546 33.1958 101.811ZM39.7539 98.9531V104.765H38.4541V98.9531H39.7539ZM38.3682 97.4277C38.3682 97.2308 38.4326 97.0679 38.5615 96.939C38.694 96.8065 38.8766 96.7402 39.1094 96.7402C39.3385 96.7402 39.5194 96.8065 39.6519 96.939C39.7843 97.0679 39.8506 97.2308 39.8506 97.4277C39.8506 97.6211 39.7843 97.7822 39.6519 97.9111C39.5194 98.04 39.3385 98.1045 39.1094 98.1045C38.8766 98.1045 38.694 98.04 38.5615 97.9111C38.4326 97.7822 38.3682 97.6211 38.3682 97.4277ZM43.8359 98.9531V99.8984H40.5596V98.9531H43.8359ZM41.5049 97.5298H42.7993V103.159C42.7993 103.338 42.8244 103.476 42.8745 103.572C42.9282 103.665 43.0016 103.728 43.0947 103.76C43.1878 103.792 43.297 103.809 43.4224 103.809C43.5119 103.809 43.5978 103.803 43.6802 103.792C43.7625 103.782 43.8288 103.771 43.8789 103.76L43.8843 104.749C43.7769 104.781 43.6515 104.809 43.5083 104.834C43.3687 104.86 43.2075 104.872 43.0249 104.872C42.7277 104.872 42.4645 104.82 42.2354 104.716C42.0062 104.609 41.8271 104.435 41.6982 104.195C41.5693 103.955 41.5049 103.637 41.5049 103.239V97.5298ZM47.397 104.872C46.9673 104.872 46.5788 104.802 46.2314 104.663C45.8877 104.519 45.5941 104.321 45.3506 104.066C45.1107 103.812 44.9263 103.513 44.7974 103.169C44.6685 102.826 44.604 102.455 44.604 102.058V101.843C44.604 101.388 44.6702 100.976 44.8027 100.607C44.9352 100.239 45.1196 99.9235 45.356 99.6621C45.5923 99.3971 45.8716 99.1948 46.1938 99.0552C46.5161 98.9155 46.8652 98.8457 47.2412 98.8457C47.6566 98.8457 48.02 98.9155 48.3315 99.0552C48.6431 99.1948 48.9009 99.3918 49.105 99.646C49.3127 99.8966 49.4666 100.196 49.5669 100.543C49.6707 100.89 49.7227 101.273 49.7227 101.692V102.246H45.2324V101.316H48.4443V101.214C48.4372 100.982 48.3906 100.763 48.3047 100.559C48.2223 100.355 48.0952 100.19 47.9233 100.065C47.7515 99.9396 47.5223 99.877 47.2358 99.877C47.021 99.877 46.8294 99.9235 46.6611 100.017C46.4964 100.106 46.3586 100.237 46.2476 100.409C46.1366 100.581 46.0506 100.788 45.9897 101.032C45.9325 101.272 45.9038 101.542 45.9038 101.843V102.058C45.9038 102.312 45.9378 102.548 46.0059 102.767C46.0775 102.981 46.1813 103.169 46.3174 103.331C46.4535 103.492 46.6182 103.619 46.8115 103.712C47.0049 103.801 47.2251 103.846 47.4722 103.846C47.7837 103.846 48.0612 103.784 48.3047 103.658C48.5482 103.533 48.7594 103.356 48.9385 103.126L49.6206 103.787C49.4953 103.97 49.3324 104.145 49.1318 104.313C48.9313 104.478 48.686 104.612 48.396 104.716C48.1095 104.82 47.7765 104.872 47.397 104.872ZM56.7319 103.191C56.7319 103.062 56.6997 102.946 56.6353 102.842C56.5708 102.734 56.4473 102.638 56.2646 102.552C56.0856 102.466 55.8206 102.387 55.4697 102.315C55.1618 102.247 54.8789 102.167 54.6211 102.074C54.3669 101.977 54.1484 101.861 53.9658 101.725C53.7832 101.589 53.6418 101.427 53.5415 101.241C53.4412 101.055 53.3911 100.84 53.3911 100.597C53.3911 100.36 53.443 100.137 53.5469 99.9253C53.6507 99.714 53.7993 99.5278 53.9927 99.3667C54.186 99.2056 54.4206 99.0785 54.6963 98.9854C54.9756 98.8923 55.2871 98.8457 55.6309 98.8457C56.1178 98.8457 56.535 98.9281 56.8823 99.0928C57.2332 99.2539 57.5018 99.4741 57.688 99.7534C57.8742 100.029 57.9673 100.341 57.9673 100.688H56.6729C56.6729 100.534 56.6335 100.391 56.5547 100.258C56.4795 100.122 56.3649 100.013 56.2109 99.9307C56.057 99.8447 55.8636 99.8018 55.6309 99.8018C55.4089 99.8018 55.2244 99.8376 55.0776 99.9092C54.9344 99.9772 54.827 100.067 54.7554 100.178C54.6873 100.289 54.6533 100.41 54.6533 100.543C54.6533 100.64 54.6712 100.727 54.707 100.806C54.7464 100.881 54.8109 100.951 54.9004 101.016C54.9899 101.076 55.1117 101.134 55.2656 101.188C55.4232 101.241 55.6201 101.293 55.8564 101.343C56.3005 101.436 56.6818 101.556 57.0005 101.703C57.3228 101.846 57.5698 102.033 57.7417 102.262C57.9136 102.487 57.9995 102.774 57.9995 103.121C57.9995 103.379 57.944 103.615 57.833 103.83C57.7256 104.041 57.568 104.226 57.3604 104.383C57.1527 104.537 56.9038 104.657 56.6138 104.743C56.3273 104.829 56.005 104.872 55.647 104.872C55.1206 104.872 54.6748 104.779 54.3096 104.593C53.9443 104.403 53.6668 104.161 53.4771 103.868C53.2909 103.57 53.1978 103.263 53.1978 102.944H54.4492C54.4635 103.184 54.5298 103.375 54.6479 103.519C54.7697 103.658 54.9201 103.76 55.0991 103.825C55.2817 103.886 55.4697 103.916 55.6631 103.916C55.8958 103.916 56.091 103.886 56.2485 103.825C56.4061 103.76 56.526 103.674 56.6084 103.567C56.6908 103.456 56.7319 103.331 56.7319 103.191ZM61.6948 104.872C61.2651 104.872 60.8766 104.802 60.5293 104.663C60.1855 104.519 59.8919 104.321 59.6484 104.066C59.4085 103.812 59.2241 103.513 59.0952 103.169C58.9663 102.826 58.9019 102.455 58.9019 102.058V101.843C58.9019 101.388 58.9681 100.976 59.1006 100.607C59.2331 100.239 59.4175 99.9235 59.6538 99.6621C59.8901 99.3971 60.1694 99.1948 60.4917 99.0552C60.814 98.9155 61.1631 98.8457 61.5391 98.8457C61.9544 98.8457 62.3179 98.9155 62.6294 99.0552C62.9409 99.1948 63.1987 99.3918 63.4028 99.646C63.6105 99.8966 63.7645 100.196 63.8647 100.543C63.9686 100.89 64.0205 101.273 64.0205 101.692V102.246H59.5303V101.316H62.7422V101.214C62.735 100.982 62.6885 100.763 62.6025 100.559C62.5202 100.355 62.3931 100.19 62.2212 100.065C62.0493 99.9396 61.8201 99.877 61.5337 99.877C61.3188 99.877 61.1273 99.9235 60.959 100.017C60.7943 100.106 60.6564 100.237 60.5454 100.409C60.4344 100.581 60.3485 100.788 60.2876 101.032C60.2303 101.272 60.2017 101.542 60.2017 101.843V102.058C60.2017 102.312 60.2357 102.548 60.3037 102.767C60.3753 102.981 60.4792 103.169 60.6152 103.331C60.7513 103.492 60.916 103.619 61.1094 103.712C61.3027 103.801 61.5229 103.846 61.77 103.846C62.0815 103.846 62.359 103.784 62.6025 103.658C62.846 103.533 63.0573 103.356 63.2363 103.126L63.9185 103.787C63.7931 103.97 63.6302 104.145 63.4297 104.313C63.2292 104.478 62.9839 104.612 62.6938 104.716C62.4074 104.82 62.0744 104.872 61.6948 104.872ZM68.5269 103.395V98.9531H69.8267V104.765H68.6021L68.5269 103.395ZM68.7095 102.187L69.1445 102.176C69.1445 102.566 69.1016 102.926 69.0156 103.255C68.9297 103.581 68.7972 103.866 68.6182 104.109C68.4391 104.349 68.21 104.537 67.9307 104.673C67.6514 104.806 67.3166 104.872 66.9263 104.872C66.6434 104.872 66.3838 104.831 66.1475 104.749C65.9111 104.666 65.707 104.539 65.5352 104.367C65.3669 104.195 65.2362 103.972 65.1431 103.696C65.05 103.42 65.0034 103.091 65.0034 102.708V98.9531H66.2979V102.718C66.2979 102.93 66.3229 103.107 66.373 103.25C66.4232 103.39 66.4912 103.502 66.5771 103.588C66.6631 103.674 66.7633 103.735 66.8779 103.771C66.9925 103.807 67.1143 103.825 67.2432 103.825C67.612 103.825 67.902 103.753 68.1133 103.61C68.3281 103.463 68.4803 103.266 68.5698 103.019C68.6629 102.772 68.7095 102.494 68.7095 102.187ZM75.1763 100.194V104.765H73.8818V98.9531H75.1011L75.1763 100.194ZM74.9453 101.644L74.5264 101.639C74.5299 101.227 74.5872 100.849 74.6982 100.505C74.8128 100.162 74.9704 99.8662 75.1709 99.6191C75.375 99.3721 75.6185 99.1823 75.9014 99.0498C76.1842 98.9137 76.4993 98.8457 76.8467 98.8457C77.126 98.8457 77.3784 98.8851 77.604 98.9639C77.8332 99.0391 78.0283 99.1626 78.1895 99.3345C78.3542 99.5063 78.4795 99.7301 78.5654 100.006C78.6514 100.278 78.6943 100.613 78.6943 101.01V104.765H77.3945V101.005C77.3945 100.726 77.3534 100.505 77.271 100.344C77.1922 100.18 77.0758 100.063 76.9219 99.9951C76.7715 99.9235 76.5835 99.8877 76.3579 99.8877C76.1359 99.8877 75.9372 99.9342 75.7617 100.027C75.5863 100.12 75.4377 100.248 75.3159 100.409C75.1978 100.57 75.1064 100.756 75.042 100.967C74.9775 101.179 74.9453 101.404 74.9453 101.644ZM79.7686 101.923V101.8C79.7686 101.381 79.8294 100.992 79.9512 100.634C80.0729 100.273 80.2484 99.9593 80.4775 99.6943C80.7103 99.4258 80.9932 99.2181 81.3262 99.0713C81.6628 98.9209 82.0423 98.8457 82.4648 98.8457C82.891 98.8457 83.2705 98.9209 83.6035 99.0713C83.9401 99.2181 84.2248 99.4258 84.4575 99.6943C84.6903 99.9593 84.8675 100.273 84.9893 100.634C85.111 100.992 85.1719 101.381 85.1719 101.8V101.923C85.1719 102.342 85.111 102.731 84.9893 103.089C84.8675 103.447 84.6903 103.76 84.4575 104.029C84.2248 104.294 83.9419 104.501 83.6089 104.652C83.2759 104.799 82.8981 104.872 82.4756 104.872C82.0495 104.872 81.6681 104.799 81.3315 104.652C80.9985 104.501 80.7157 104.294 80.4829 104.029C80.2502 103.76 80.0729 103.447 79.9512 103.089C79.8294 102.731 79.7686 102.342 79.7686 101.923ZM81.063 101.8V101.923C81.063 102.185 81.0898 102.432 81.1436 102.665C81.1973 102.897 81.2814 103.101 81.396 103.277C81.5106 103.452 81.6574 103.59 81.8364 103.69C82.0155 103.791 82.2285 103.841 82.4756 103.841C82.7155 103.841 82.9232 103.791 83.0986 103.69C83.2777 103.59 83.4245 103.452 83.5391 103.277C83.6536 103.101 83.7378 102.897 83.7915 102.665C83.8488 102.432 83.8774 102.185 83.8774 101.923V101.8C83.8774 101.542 83.8488 101.299 83.7915 101.069C83.7378 100.837 83.6519 100.631 83.5337 100.452C83.4191 100.273 83.2723 100.133 83.0933 100.033C82.9178 99.9289 82.7083 99.877 82.4648 99.877C82.2214 99.877 82.0101 99.9289 81.8311 100.033C81.6556 100.133 81.5106 100.273 81.396 100.452C81.2814 100.631 81.1973 100.837 81.1436 101.069C81.0898 101.299 81.063 101.542 81.063 101.8ZM88.0615 103.739L89.4849 98.9531H90.8276L88.8081 104.765H87.9702L88.0615 103.739ZM86.9712 98.9531L88.4214 103.76L88.4912 104.765H87.6533L85.623 98.9531H86.9712ZM91.2949 101.923V101.8C91.2949 101.381 91.3558 100.992 91.4775 100.634C91.5993 100.273 91.7747 99.9593 92.0039 99.6943C92.2367 99.4258 92.5195 99.2181 92.8525 99.0713C93.1891 98.9209 93.5687 98.8457 93.9912 98.8457C94.4173 98.8457 94.7969 98.9209 95.1299 99.0713C95.4665 99.2181 95.7511 99.4258 95.9839 99.6943C96.2166 99.9593 96.3939 100.273 96.5156 100.634C96.6374 100.992 96.6982 101.381 96.6982 101.8V101.923C96.6982 102.342 96.6374 102.731 96.5156 103.089C96.3939 103.447 96.2166 103.76 95.9839 104.029C95.7511 104.294 95.4683 104.501 95.1353 104.652C94.8022 104.799 94.4245 104.872 94.002 104.872C93.5758 104.872 93.1945 104.799 92.8579 104.652C92.5249 104.501 92.242 104.294 92.0093 104.029C91.7765 103.76 91.5993 103.447 91.4775 103.089C91.3558 102.731 91.2949 102.342 91.2949 101.923ZM92.5894 101.8V101.923C92.5894 102.185 92.6162 102.432 92.6699 102.665C92.7236 102.897 92.8078 103.101 92.9224 103.277C93.0369 103.452 93.1838 103.59 93.3628 103.69C93.5418 103.791 93.7549 103.841 94.002 103.841C94.2419 103.841 94.4495 103.791 94.625 103.69C94.804 103.59 94.9508 103.452 95.0654 103.277C95.18 103.101 95.2642 102.897 95.3179 102.665C95.3752 102.432 95.4038 102.185 95.4038 101.923V101.8C95.4038 101.542 95.3752 101.299 95.3179 101.069C95.2642 100.837 95.1782 100.631 95.0601 100.452C94.9455 100.273 94.7987 100.133 94.6196 100.033C94.4442 99.9289 94.2347 99.877 93.9912 99.877C93.7477 99.877 93.5365 99.9289 93.3574 100.033C93.182 100.133 93.0369 100.273 92.9224 100.452C92.8078 100.631 92.7236 100.837 92.6699 101.069C92.6162 101.299 92.5894 101.542 92.5894 101.8ZM103.622 101.848H101.586V100.779H103.622C103.976 100.779 104.263 100.722 104.481 100.607C104.699 100.493 104.859 100.335 104.959 100.135C105.063 99.9307 105.115 99.6979 105.115 99.4365C105.115 99.1895 105.063 98.9585 104.959 98.7437C104.859 98.5252 104.699 98.3498 104.481 98.2173C104.263 98.0848 103.976 98.0186 103.622 98.0186H102V104.765H100.651V96.9443H103.622C104.227 96.9443 104.741 97.0518 105.163 97.2666C105.589 97.4779 105.913 97.7715 106.135 98.1475C106.357 98.5199 106.468 98.946 106.468 99.4258C106.468 99.9307 106.357 100.364 106.135 100.726C105.913 101.087 105.589 101.365 105.163 101.558C104.741 101.751 104.227 101.848 103.622 101.848ZM109.116 96.9443V104.765H107.768V96.9443H109.116ZM116.996 96.9443V104.765H115.647L112.14 99.1626V104.765H110.792V96.9443H112.14L115.658 102.557V96.9443H116.996Z" fill="#212926"/>
<circle cx="33.1179" cy="124.294" r="4.85294" fill="#0a5888" stroke="#0a5888" stroke-width="0.647059"/>
<circle cx="47.3532" cy="124.294" r="4.85294" fill="#0a5888" stroke="#0a5888" stroke-width="0.647059"/>
<circle cx="61.5886" cy="124.294" r="4.85294" fill="#0a5888" stroke="#0a5888" stroke-width="0.647059"/>
<circle cx="75.8234" cy="124.294" r="4.85294" fill="#0a5888" stroke="#0a5888" stroke-width="0.647059"/>
<circle cx="90.0588" cy="124.294" r="4.85294" fill="#0a5888" stroke="#0a5888" stroke-width="0.647059"/>
<circle cx="104.294" cy="124.294" r="4.85294" fill="#0a5888" stroke="#0a5888" stroke-width="0.647059"/>
<g clip-path="url(#clip0_7121_41241)">
<path d="M216.127 124.293C216.127 124.293 218.284 119.979 222.059 119.979C225.833 119.979 227.99 124.293 227.99 124.293C227.99 124.293 225.833 128.607 222.059 128.607C218.284 128.607 216.127 124.293 216.127 124.293Z" stroke="#C8C8C8" stroke-width="1.03529" stroke-linecap="round" stroke-linejoin="round"/>
<path d="M222.059 125.911C222.952 125.911 223.677 125.187 223.677 124.293C223.677 123.4 222.952 122.676 222.059 122.676C221.166 122.676 220.441 123.4 220.441 124.293C220.441 125.187 221.166 125.911 222.059 125.911Z" stroke="#B1B1B1" stroke-width="1.03529" stroke-linecap="round" stroke-linejoin="round"/>
</g>
<line x1="21.4707" y1="139.5" x2="228.53" y2="139.5" stroke="#0a5888" stroke-width="0.647059"/>
<path d="M26.8848 157.042H28.2275C28.1846 157.554 28.0413 158.011 27.7979 158.412C27.5544 158.809 27.2124 159.122 26.772 159.352C26.3315 159.581 25.7962 159.695 25.166 159.695C24.6826 159.695 24.2476 159.609 23.8608 159.438C23.4741 159.262 23.1429 159.015 22.8672 158.696C22.5915 158.374 22.3802 157.986 22.2334 157.531C22.0902 157.076 22.0186 156.568 22.0186 156.005V155.355C22.0186 154.793 22.092 154.285 22.2388 153.83C22.3892 153.375 22.604 152.987 22.8833 152.665C23.1626 152.339 23.4974 152.09 23.8877 151.918C24.2816 151.746 24.7238 151.66 25.2144 151.66C25.8374 151.66 26.3638 151.775 26.7935 152.004C27.2231 152.233 27.5562 152.55 27.7925 152.955C28.0324 153.359 28.1792 153.823 28.2329 154.346H26.8901C26.8543 154.009 26.7756 153.721 26.6538 153.481C26.5356 153.241 26.3602 153.058 26.1274 152.933C25.8947 152.804 25.5903 152.74 25.2144 152.74C24.9064 152.74 24.6379 152.797 24.4087 152.912C24.1795 153.026 23.988 153.194 23.834 153.417C23.68 153.639 23.5636 153.912 23.4849 154.238C23.4097 154.561 23.3721 154.929 23.3721 155.345V156.005C23.3721 156.399 23.4061 156.757 23.4741 157.08C23.5457 157.398 23.6532 157.672 23.7964 157.901C23.9432 158.131 24.1294 158.308 24.355 158.433C24.5806 158.558 24.8509 158.621 25.166 158.621C25.5492 158.621 25.8589 158.56 26.0952 158.438C26.3351 158.317 26.516 158.139 26.6377 157.907C26.763 157.67 26.8454 157.382 26.8848 157.042ZM29.0762 156.747V156.623C29.0762 156.204 29.137 155.816 29.2588 155.458C29.3805 155.096 29.556 154.783 29.7852 154.518C30.0179 154.249 30.3008 154.041 30.6338 153.895C30.9704 153.744 31.3499 153.669 31.7725 153.669C32.1986 153.669 32.5781 153.744 32.9111 153.895C33.2477 154.041 33.5324 154.249 33.7651 154.518C33.9979 154.783 34.1751 155.096 34.2969 155.458C34.4186 155.816 34.4795 156.204 34.4795 156.623V156.747C34.4795 157.166 34.4186 157.554 34.2969 157.912C34.1751 158.27 33.9979 158.583 33.7651 158.852C33.5324 159.117 33.2495 159.325 32.9165 159.475C32.5835 159.622 32.2057 159.695 31.7832 159.695C31.3571 159.695 30.9757 159.622 30.6392 159.475C30.3062 159.325 30.0233 159.117 29.7905 158.852C29.5578 158.583 29.3805 158.27 29.2588 157.912C29.137 157.554 29.0762 157.166 29.0762 156.747ZM30.3706 156.623V156.747C30.3706 157.008 30.3975 157.255 30.4512 157.488C30.5049 157.721 30.589 157.925 30.7036 158.1C30.8182 158.276 30.965 158.413 31.144 158.514C31.3231 158.614 31.5361 158.664 31.7832 158.664C32.0231 158.664 32.2308 158.614 32.4062 158.514C32.5853 158.413 32.7321 158.276 32.8467 158.1C32.9613 157.925 33.0454 157.721 33.0991 157.488C33.1564 157.255 33.1851 157.008 33.1851 156.747V156.623C33.1851 156.365 33.1564 156.122 33.0991 155.893C33.0454 155.66 32.9595 155.454 32.8413 155.275C32.7267 155.096 32.5799 154.956 32.4009 154.856C32.2254 154.752 32.016 154.7 31.7725 154.7C31.529 154.7 31.3177 154.752 31.1387 154.856C30.9632 154.956 30.8182 155.096 30.7036 155.275C30.589 155.454 30.5049 155.66 30.4512 155.893C30.3975 156.122 30.3706 156.365 30.3706 156.623ZM36.8481 155.017V159.588H35.5537V153.776H36.7729L36.8481 155.017ZM36.6172 156.467L36.1982 156.462C36.2018 156.05 36.2591 155.672 36.3701 155.329C36.4847 154.985 36.6423 154.689 36.8428 154.442C37.0469 154.195 37.2904 154.006 37.5732 153.873C37.8561 153.737 38.1712 153.669 38.5186 153.669C38.7979 153.669 39.0503 153.708 39.2759 153.787C39.505 153.862 39.7002 153.986 39.8613 154.158C40.026 154.33 40.1514 154.553 40.2373 154.829C40.3232 155.101 40.3662 155.436 40.3662 155.833V159.588H39.0664V155.828C39.0664 155.549 39.0252 155.329 38.9429 155.167C38.8641 155.003 38.7477 154.886 38.5938 154.818C38.4434 154.747 38.2554 154.711 38.0298 154.711C37.8078 154.711 37.609 154.757 37.4336 154.851C37.2581 154.944 37.1095 155.071 36.9878 155.232C36.8696 155.393 36.7783 155.579 36.7139 155.791C36.6494 156.002 36.6172 156.227 36.6172 156.467ZM43.3525 159.588H42.0527V153.4C42.0527 152.931 42.1458 152.536 42.332 152.213C42.5218 151.891 42.7922 151.646 43.1431 151.478C43.4976 151.309 43.9183 151.225 44.4053 151.225C44.6917 151.225 44.9674 151.256 45.2324 151.316C45.501 151.377 45.7785 151.454 46.0649 151.547L45.8662 152.6C45.6836 152.539 45.4813 152.482 45.2593 152.428C45.0373 152.371 44.7812 152.342 44.4912 152.342C44.1009 152.342 43.8127 152.432 43.6265 152.611C43.4438 152.786 43.3525 153.049 43.3525 153.4V159.588ZM44.5181 153.776V154.722H41.1611V153.776H44.5181ZM46.6772 153.776V159.588H45.3828V153.776H46.6772ZM49.4219 154.883V159.588H48.1274V153.776H49.3628L49.4219 154.883ZM51.1997 153.739L51.189 154.942C51.1102 154.928 51.0243 154.917 50.9312 154.91C50.8416 154.903 50.7521 154.899 50.6626 154.899C50.4406 154.899 50.2454 154.931 50.0771 154.996C49.9089 155.056 49.7674 155.146 49.6528 155.264C49.5418 155.379 49.4559 155.518 49.395 155.683C49.3341 155.848 49.2983 156.032 49.2876 156.236L48.9922 156.258C48.9922 155.893 49.028 155.554 49.0996 155.243C49.1712 154.931 49.2786 154.657 49.4219 154.421C49.5687 154.185 49.7513 154 49.9697 153.868C50.1917 153.735 50.4478 153.669 50.7378 153.669C50.8166 153.669 50.9007 153.676 50.9902 153.69C51.0833 153.705 51.1532 153.721 51.1997 153.739ZM53.3052 154.958V159.588H52.0107V153.776H53.23L53.3052 154.958ZM53.0957 156.467L52.6553 156.462C52.6553 156.061 52.7054 155.69 52.8057 155.35C52.9059 155.01 53.0527 154.715 53.2461 154.464C53.4395 154.21 53.6794 154.014 53.9658 153.878C54.2559 153.739 54.5907 153.669 54.9702 153.669C55.2352 153.669 55.4769 153.708 55.6953 153.787C55.9173 153.862 56.1089 153.982 56.27 154.147C56.4347 154.312 56.5601 154.523 56.646 154.781C56.7355 155.039 56.7803 155.35 56.7803 155.715V159.588H55.4858V155.828C55.4858 155.545 55.4429 155.323 55.3569 155.162C55.2746 155.001 55.1546 154.886 54.9971 154.818C54.8431 154.747 54.6587 154.711 54.4438 154.711C54.2004 154.711 53.9927 154.757 53.8208 154.851C53.6525 154.944 53.5146 155.071 53.4072 155.232C53.2998 155.393 53.221 155.579 53.1709 155.791C53.1208 156.002 53.0957 156.227 53.0957 156.467ZM56.6997 156.124L56.0928 156.258C56.0928 155.907 56.1411 155.576 56.2378 155.264C56.3381 154.949 56.4831 154.673 56.6729 154.437C56.8662 154.197 57.1043 154.009 57.3872 153.873C57.6701 153.737 57.9941 153.669 58.3594 153.669C58.6566 153.669 58.9215 153.71 59.1543 153.792C59.3906 153.871 59.5911 153.997 59.7559 154.168C59.9206 154.34 60.0459 154.564 60.1318 154.84C60.2178 155.112 60.2607 155.441 60.2607 155.828V159.588H58.9609V155.823C58.9609 155.529 58.918 155.302 58.832 155.141C58.7497 154.979 58.6315 154.868 58.4775 154.808C58.3236 154.743 58.1392 154.711 57.9243 154.711C57.7238 154.711 57.5465 154.749 57.3926 154.824C57.2422 154.895 57.1151 154.997 57.0112 155.13C56.9074 155.259 56.8286 155.407 56.7749 155.576C56.7248 155.744 56.6997 155.927 56.6997 156.124ZM64.1548 159.695C63.7251 159.695 63.3366 159.625 62.9893 159.486C62.6455 159.343 62.3519 159.144 62.1084 158.89C61.8685 158.635 61.6841 158.336 61.5552 157.993C61.4263 157.649 61.3618 157.278 61.3618 156.881V156.666C61.3618 156.211 61.4281 155.799 61.5605 155.431C61.693 155.062 61.8774 154.747 62.1138 154.485C62.3501 154.22 62.6294 154.018 62.9517 153.878C63.2739 153.739 63.623 153.669 63.999 153.669C64.4144 153.669 64.7778 153.739 65.0894 153.878C65.4009 154.018 65.6587 154.215 65.8628 154.469C66.0705 154.72 66.2244 155.019 66.3247 155.366C66.4285 155.714 66.4805 156.097 66.4805 156.516V157.069H61.9902V156.14H65.2021V156.038C65.195 155.805 65.1484 155.586 65.0625 155.382C64.9801 155.178 64.853 155.014 64.6812 154.888C64.5093 154.763 64.2801 154.7 63.9937 154.7C63.7788 154.7 63.5872 154.747 63.4189 154.84C63.2542 154.929 63.1164 155.06 63.0054 155.232C62.8944 155.404 62.8084 155.611 62.7476 155.855C62.6903 156.095 62.6616 156.365 62.6616 156.666V156.881C62.6616 157.135 62.6956 157.371 62.7637 157.59C62.8353 157.805 62.9391 157.993 63.0752 158.154C63.2113 158.315 63.376 158.442 63.5693 158.535C63.7627 158.625 63.9829 158.669 64.23 158.669C64.5415 158.669 64.819 158.607 65.0625 158.481C65.306 158.356 65.5173 158.179 65.6963 157.95L66.3784 158.61C66.2531 158.793 66.0902 158.968 65.8896 159.137C65.6891 159.301 65.4438 159.436 65.1538 159.54C64.8674 159.643 64.5343 159.695 64.1548 159.695ZM73.4897 158.014C73.4897 157.885 73.4575 157.769 73.3931 157.665C73.3286 157.558 73.2051 157.461 73.0225 157.375C72.8434 157.289 72.5785 157.21 72.2275 157.139C71.9196 157.071 71.6367 156.99 71.3789 156.897C71.1247 156.8 70.9062 156.684 70.7236 156.548C70.541 156.412 70.3996 156.251 70.2993 156.064C70.1991 155.878 70.1489 155.663 70.1489 155.42C70.1489 155.184 70.2008 154.96 70.3047 154.749C70.4085 154.537 70.5571 154.351 70.7505 154.19C70.9438 154.029 71.1784 153.902 71.4541 153.809C71.7334 153.715 72.0449 153.669 72.3887 153.669C72.8757 153.669 73.2928 153.751 73.6401 153.916C73.991 154.077 74.2596 154.297 74.4458 154.577C74.632 154.852 74.7251 155.164 74.7251 155.511H73.4307C73.4307 155.357 73.3913 155.214 73.3125 155.082C73.2373 154.945 73.1227 154.836 72.9688 154.754C72.8148 154.668 72.6214 154.625 72.3887 154.625C72.1667 154.625 71.9823 154.661 71.8354 154.732C71.6922 154.8 71.5848 154.89 71.5132 155.001C71.4451 155.112 71.4111 155.234 71.4111 155.366C71.4111 155.463 71.429 155.551 71.4648 155.629C71.5042 155.705 71.5687 155.774 71.6582 155.839C71.7477 155.9 71.8695 155.957 72.0234 156.011C72.181 156.064 72.3779 156.116 72.6143 156.167C73.0583 156.26 73.4396 156.38 73.7583 156.526C74.0806 156.67 74.3276 156.856 74.4995 157.085C74.6714 157.311 74.7573 157.597 74.7573 157.944C74.7573 158.202 74.7018 158.438 74.5908 158.653C74.4834 158.865 74.3258 159.049 74.1182 159.207C73.9105 159.361 73.6616 159.48 73.3716 159.566C73.0851 159.652 72.7629 159.695 72.4048 159.695C71.8784 159.695 71.4326 159.602 71.0674 159.416C70.7021 159.226 70.4246 158.985 70.2349 158.691C70.0487 158.394 69.9556 158.086 69.9556 157.767H71.207C71.2214 158.007 71.2876 158.199 71.4058 158.342C71.5275 158.481 71.6779 158.583 71.8569 158.648C72.0396 158.709 72.2275 158.739 72.4209 158.739C72.6536 158.739 72.8488 158.709 73.0063 158.648C73.1639 158.583 73.2839 158.498 73.3662 158.39C73.4486 158.279 73.4897 158.154 73.4897 158.014ZM78.4526 159.695C78.0229 159.695 77.6344 159.625 77.2871 159.486C76.9434 159.343 76.6497 159.144 76.4062 158.89C76.1663 158.635 75.9819 158.336 75.853 157.993C75.7241 157.649 75.6597 157.278 75.6597 156.881V156.666C75.6597 156.211 75.7259 155.799 75.8584 155.431C75.9909 155.062 76.1753 154.747 76.4116 154.485C76.6479 154.22 76.9272 154.018 77.2495 153.878C77.5718 153.739 77.9209 153.669 78.2969 153.669C78.7122 153.669 79.0757 153.739 79.3872 153.878C79.6987 154.018 79.9565 154.215 80.1606 154.469C80.3683 154.72 80.5223 155.019 80.6226 155.366C80.7264 155.714 80.7783 156.097 80.7783 156.516V157.069H76.2881V156.14H79.5V156.038C79.4928 155.805 79.4463 155.586 79.3604 155.382C79.278 155.178 79.1509 155.014 78.979 154.888C78.8071 154.763 78.578 154.7 78.2915 154.7C78.0767 154.7 77.8851 154.747 77.7168 154.84C77.5521 154.929 77.4142 155.06 77.3032 155.232C77.1922 155.404 77.1063 155.611 77.0454 155.855C76.9881 156.095 76.9595 156.365 76.9595 156.666V156.881C76.9595 157.135 76.9935 157.371 77.0615 157.59C77.1331 157.805 77.237 157.993 77.373 158.154C77.5091 158.315 77.6738 158.442 77.8672 158.535C78.0605 158.625 78.2808 158.669 78.5278 158.669C78.8394 158.669 79.1169 158.607 79.3604 158.481C79.6038 158.356 79.8151 158.179 79.9941 157.95L80.6763 158.61C80.5509 158.793 80.388 158.968 80.1875 159.137C79.987 159.301 79.7417 159.436 79.4517 159.54C79.1652 159.643 78.8322 159.695 78.4526 159.695ZM85.2847 158.218V153.776H86.5845V159.588H85.3599L85.2847 158.218ZM85.4673 157.01L85.9023 156.999C85.9023 157.389 85.8594 157.749 85.7734 158.079C85.6875 158.404 85.555 158.689 85.376 158.933C85.1969 159.173 84.9678 159.361 84.6885 159.497C84.4092 159.629 84.0744 159.695 83.6841 159.695C83.4012 159.695 83.1416 159.654 82.9053 159.572C82.6689 159.489 82.4648 159.362 82.293 159.19C82.1247 159.019 81.994 158.795 81.9009 158.519C81.8078 158.243 81.7612 157.914 81.7612 157.531V153.776H83.0557V157.542C83.0557 157.753 83.0807 157.93 83.1309 158.073C83.181 158.213 83.249 158.326 83.335 158.412C83.4209 158.498 83.5212 158.558 83.6357 158.594C83.7503 158.63 83.8721 158.648 84.001 158.648C84.3698 158.648 84.6598 158.576 84.8711 158.433C85.0859 158.286 85.2381 158.089 85.3276 157.842C85.4207 157.595 85.4673 157.318 85.4673 157.01ZM91.9341 155.017V159.588H90.6396V153.776H91.8589L91.9341 155.017ZM91.7031 156.467L91.2842 156.462C91.2878 156.05 91.3451 155.672 91.4561 155.329C91.5706 154.985 91.7282 154.689 91.9287 154.442C92.1328 154.195 92.3763 154.006 92.6592 153.873C92.9421 153.737 93.2572 153.669 93.6045 153.669C93.8838 153.669 94.1362 153.708 94.3618 153.787C94.591 153.862 94.7861 153.986 94.9473 154.158C95.112 154.33 95.2373 154.553 95.3232 154.829C95.4092 155.101 95.4521 155.436 95.4521 155.833V159.588H94.1523V155.828C94.1523 155.549 94.1112 155.329 94.0288 155.167C93.95 155.003 93.8337 154.886 93.6797 154.818C93.5293 154.747 93.3413 154.711 93.1157 154.711C92.8937 154.711 92.695 154.757 92.5195 154.851C92.3441 154.944 92.1955 155.071 92.0737 155.232C91.9556 155.393 91.8643 155.579 91.7998 155.791C91.7354 156.002 91.7031 156.227 91.7031 156.467ZM96.5264 156.747V156.623C96.5264 156.204 96.5872 155.816 96.709 155.458C96.8307 155.096 97.0062 154.783 97.2354 154.518C97.4681 154.249 97.751 154.041 98.084 153.895C98.4206 153.744 98.8001 153.669 99.2227 153.669C99.6488 153.669 100.028 153.744 100.361 153.895C100.698 154.041 100.983 154.249 101.215 154.518C101.448 154.783 101.625 155.096 101.747 155.458C101.869 155.816 101.93 156.204 101.93 156.623V156.747C101.93 157.166 101.869 157.554 101.747 157.912C101.625 158.27 101.448 158.583 101.215 158.852C100.983 159.117 100.7 159.325 100.367 159.475C100.034 159.622 99.6559 159.695 99.2334 159.695C98.8073 159.695 98.4259 159.622 98.0894 159.475C97.7563 159.325 97.4735 159.117 97.2407 158.852C97.008 158.583 96.8307 158.27 96.709 157.912C96.5872 157.554 96.5264 157.166 96.5264 156.747ZM97.8208 156.623V156.747C97.8208 157.008 97.8477 157.255 97.9014 157.488C97.9551 157.721 98.0392 157.925 98.1538 158.1C98.2684 158.276 98.4152 158.413 98.5942 158.514C98.7733 158.614 98.9863 158.664 99.2334 158.664C99.4733 158.664 99.681 158.614 99.8564 158.514C100.035 158.413 100.182 158.276 100.297 158.1C100.411 157.925 100.496 157.721 100.549 157.488C100.607 157.255 100.635 157.008 100.635 156.747V156.623C100.635 156.365 100.607 156.122 100.549 155.893C100.496 155.66 100.41 155.454 100.292 155.275C100.177 155.096 100.03 154.956 99.8511 154.856C99.6756 154.752 99.4661 154.7 99.2227 154.7C98.9792 154.7 98.7679 154.752 98.5889 154.856C98.4134 154.956 98.2684 155.096 98.1538 155.275C98.0392 155.454 97.9551 155.66 97.9014 155.893C97.8477 156.122 97.8208 156.365 97.8208 156.623ZM104.819 158.562L106.243 153.776H107.585L105.566 159.588H104.728L104.819 158.562ZM103.729 153.776L105.179 158.583L105.249 159.588H104.411L102.381 153.776H103.729ZM108.053 156.747V156.623C108.053 156.204 108.114 155.816 108.235 155.458C108.357 155.096 108.533 154.783 108.762 154.518C108.994 154.249 109.277 154.041 109.61 153.895C109.947 153.744 110.326 153.669 110.749 153.669C111.175 153.669 111.555 153.744 111.888 153.895C112.224 154.041 112.509 154.249 112.742 154.518C112.974 154.783 113.152 155.096 113.273 155.458C113.395 155.816 113.456 156.204 113.456 156.623V156.747C113.456 157.166 113.395 157.554 113.273 157.912C113.152 158.27 112.974 158.583 112.742 158.852C112.509 159.117 112.226 159.325 111.893 159.475C111.56 159.622 111.182 159.695 110.76 159.695C110.334 159.695 109.952 159.622 109.616 159.475C109.283 159.325 109 159.117 108.767 158.852C108.534 158.583 108.357 158.27 108.235 157.912C108.114 157.554 108.053 157.166 108.053 156.747ZM109.347 156.623V156.747C109.347 157.008 109.374 157.255 109.428 157.488C109.481 157.721 109.566 157.925 109.68 158.1C109.795 158.276 109.942 158.413 110.121 158.514C110.3 158.614 110.513 158.664 110.76 158.664C111 158.664 111.207 158.614 111.383 158.514C111.562 158.413 111.709 158.276 111.823 158.1C111.938 157.925 112.022 157.721 112.076 157.488C112.133 157.255 112.162 157.008 112.162 156.747V156.623C112.162 156.365 112.133 156.122 112.076 155.893C112.022 155.66 111.936 155.454 111.818 155.275C111.703 155.096 111.556 154.956 111.377 154.856C111.202 154.752 110.993 154.7 110.749 154.7C110.506 154.7 110.294 154.752 110.115 154.856C109.94 154.956 109.795 155.096 109.68 155.275C109.566 155.454 109.481 155.66 109.428 155.893C109.374 156.122 109.347 156.365 109.347 156.623ZM120.379 156.671H118.344V155.603H120.379C120.734 155.603 121.02 155.545 121.239 155.431C121.457 155.316 121.617 155.159 121.717 154.958C121.821 154.754 121.873 154.521 121.873 154.26C121.873 154.013 121.821 153.782 121.717 153.567C121.617 153.348 121.457 153.173 121.239 153.041C121.02 152.908 120.734 152.842 120.379 152.842H118.757V159.588H117.409V151.768H120.379C120.985 151.768 121.498 151.875 121.921 152.09C122.347 152.301 122.671 152.595 122.893 152.971C123.115 153.343 123.226 153.769 123.226 154.249C123.226 154.754 123.115 155.187 122.893 155.549C122.671 155.91 122.347 156.188 121.921 156.381C121.498 156.575 120.985 156.671 120.379 156.671ZM125.874 151.768V159.588H124.526V151.768H125.874ZM133.753 151.768V159.588H132.405L128.898 153.986V159.588H127.55V151.768H128.898L132.416 157.38V151.768H133.753Z" fill="#212926"/>
<circle cx="33.1179" cy="179.117" r="4.85294" fill="#0a5888" stroke="#0a5888" stroke-width="0.647059"/>
<circle cx="47.3532" cy="179.117" r="4.85294" fill="#0a5888" stroke="#0a5888" stroke-width="0.647059"/>
<circle cx="61.5886" cy="179.117" r="4.85294" fill="#0a5888" stroke="#0a5888" stroke-width="0.647059"/>
<circle cx="75.8234" cy="179.117" r="4.85294" fill="#0a5888" stroke="#0a5888" stroke-width="0.647059"/>
<circle cx="90.0588" cy="179.117" r="4.85294" fill="#0a5888" stroke="#0a5888" stroke-width="0.647059"/>
<circle cx="104.294" cy="179.117" r="4.85294" fill="#0a5888" stroke="#0a5888" stroke-width="0.647059"/>
<g clip-path="url(#clip1_7121_41241)">
<path d="M216.127 179.117C216.127 179.117 218.284 174.804 222.059 174.804C225.833 174.804 227.99 179.117 227.99 179.117C227.99 179.117 225.833 183.431 222.059 183.431C218.284 183.431 216.127 179.117 216.127 179.117Z" stroke="#C8C8C8" stroke-width="1.03529" stroke-linecap="round" stroke-linejoin="round"/>
<path d="M222.059 180.735C222.952 180.735 223.677 180.011 223.677 179.118C223.677 178.224 222.952 177.5 222.059 177.5C221.166 177.5 220.441 178.224 220.441 179.118C220.441 180.011 221.166 180.735 222.059 180.735Z" stroke="#B1B1B1" stroke-width="1.03529" stroke-linecap="round" stroke-linejoin="round"/>
</g>
<line x1="21.4707" y1="194.323" x2="228.53" y2="194.323" stroke="#0a5888" stroke-width="0.647059"/>
</g>
<defs>
<filter id="filter0_d_7121_41241" x="0.529297" y="0" width="248.941" height="291" filterUnits="userSpaceOnUse" color-interpolation-filters="sRGB">
<feFlood flood-opacity="0" result="BackgroundImageFix"/>
<feColorMatrix in="SourceAlpha" type="matrix" values="0 0 0 0 0 0 0 0 0 0 0 0 0 0 0 0 0 0 127 0" result="hardAlpha"/>
<feOffset/>
<feGaussianBlur stdDeviation="4"/>
<feComposite in2="hardAlpha" operator="out"/>
<feColorMatrix type="matrix" values="0 0 0 0 0 0 0 0 0 0 0 0 0 0 0 0 0 0 0.25 0"/>
<feBlend mode="normal" in2="BackgroundImageFix" result="effect1_dropShadow_7121_41241"/>
<feBlend mode="normal" in="SourceGraphic" in2="effect1_dropShadow_7121_41241" result="shape"/>
</filter>
<clipPath id="clip0_7121_41241">
<rect width="12.9412" height="12.9412" fill="white" transform="translate(215.588 117.823)"/>
</clipPath>
<clipPath id="clip1_7121_41241">
<rect width="12.9412" height="12.9412" fill="white" transform="translate(215.588 172.646)"/>
</clipPath>
</defs>
</svg>
