<svg width="216" height="196" viewBox="0 0 216 196" fill="none" xmlns="http://www.w3.org/2000/svg">
<g filter="url(#filter0_d_7121_41297)">
<rect x="8" y="8.77539" width="200" height="178.448" rx="12.069" fill="white"/>
<path d="M124.236 46.9778V48.4318C124.234 51.8399 123.131 55.1562 121.09 57.8858C119.049 60.6155 116.181 62.6125 112.913 63.5788C109.644 64.5451 106.151 64.4291 102.954 63.248C99.7575 62.0669 97.028 59.884 95.173 57.0249C93.318 54.1658 92.437 50.7836 92.6612 47.3829C92.8855 43.9821 94.203 40.745 96.4173 38.1542C98.6317 35.5634 101.624 33.7578 104.949 33.0068C108.273 32.2557 111.751 32.5993 114.864 33.9864" stroke="#0a5888" stroke-width="2.58621" stroke-linecap="round" stroke-linejoin="round"/>
<path d="M124.236 35.7891L108.431 51.6095L103.69 46.8681" stroke="#0a5888" stroke-width="2.58621" stroke-linecap="round" stroke-linejoin="round"/>
<path d="M53.3059 89.0584V89.5231C53.3059 90.2685 53.2049 90.9375 53.0028 91.5301C52.8008 92.1228 52.5156 92.6279 52.1475 93.0455C51.7793 93.4586 51.3393 93.7751 50.8274 93.9951C50.3201 94.2151 49.7566 94.3251 49.137 94.3251C48.5218 94.3251 47.9584 94.2151 47.4465 93.9951C46.9391 93.7751 46.4991 93.4586 46.1265 93.0455C45.7538 92.6279 45.4642 92.1228 45.2577 91.5301C45.0556 90.9375 44.9546 90.2685 44.9546 89.5231V89.0584C44.9546 88.3086 45.0556 87.6396 45.2577 87.0514C45.4597 86.4587 45.7448 85.9536 46.113 85.5361C46.4857 85.1185 46.9257 84.7997 47.433 84.5797C47.9449 84.3597 48.5084 84.2497 49.1235 84.2497C49.7431 84.2497 50.3066 84.3597 50.814 84.5797C51.3258 84.7997 51.7658 85.1185 52.134 85.5361C52.5067 85.9536 52.794 86.4587 52.9961 87.0514C53.2026 87.6396 53.3059 88.3086 53.3059 89.0584ZM51.2652 89.5231V89.045C51.2652 88.5241 51.2181 88.0661 51.1238 87.671C51.0295 87.2759 50.8903 86.9437 50.7062 86.6743C50.5221 86.4049 50.2976 86.2028 50.0327 86.0681C49.7678 85.9289 49.4647 85.8593 49.1235 85.8593C48.7823 85.8593 48.4792 85.9289 48.2143 86.0681C47.9539 86.2028 47.7316 86.4049 47.5475 86.6743C47.3679 86.9437 47.231 87.2759 47.1367 87.671C47.0424 88.0661 46.9953 88.5241 46.9953 89.045V89.5231C46.9953 90.0395 47.0424 90.4975 47.1367 90.8971C47.231 91.2922 47.3702 91.6267 47.5543 91.9006C47.7383 92.17 47.9628 92.3742 48.2278 92.5134C48.4927 92.6526 48.7957 92.7222 49.137 92.7222C49.4782 92.7222 49.7813 92.6526 50.0462 92.5134C50.3111 92.3742 50.5333 92.17 50.7129 91.9006C50.8925 91.6267 51.0295 91.2922 51.1238 90.8971C51.2181 90.4975 51.2652 90.0395 51.2652 89.5231ZM62.0141 90.695H59.5155V89.119H62.0141C62.4003 89.119 62.7146 89.0562 62.957 88.9305C63.1995 88.8003 63.3768 88.6207 63.4891 88.3917C63.6013 88.1627 63.6574 87.9045 63.6574 87.6172C63.6574 87.3253 63.6013 87.0537 63.4891 86.8022C63.3768 86.5508 63.1995 86.3487 62.957 86.1961C62.7146 86.0434 62.4003 85.9671 62.0141 85.9671H60.2159V94.1904H58.1954V84.3844H62.0141C62.7819 84.3844 63.4397 84.5236 63.9875 84.802C64.5397 85.0758 64.9618 85.4552 65.2536 85.9402C65.5455 86.4251 65.6914 86.9796 65.6914 87.6037C65.6914 88.2368 65.5455 88.7845 65.2536 89.247C64.9618 89.7095 64.5397 90.0664 63.9875 90.3179C63.4397 90.5693 62.7819 90.695 62.0141 90.695ZM69.234 84.3844V94.1904H67.2202V84.3844H69.234ZM79.1073 84.3844V94.1904H77.0869L73.1469 87.6172V94.1904H71.1265V84.3844H73.1469L77.0936 90.9644V84.3844H79.1073ZM86.6504 94.1904H84.6973V86.2567C84.6973 85.7044 84.8051 85.2397 85.0206 84.8626C85.2406 84.4809 85.5482 84.1936 85.9433 84.0005C86.3429 83.8029 86.8166 83.7042 87.3643 83.7042C87.5439 83.7042 87.7168 83.7176 87.8829 83.7446C88.0491 83.767 88.2107 83.7962 88.3678 83.8321L88.3476 85.2936C88.2623 85.2712 88.1725 85.2554 88.0782 85.2465C87.984 85.2375 87.8739 85.233 87.7482 85.233C87.5148 85.233 87.315 85.2734 87.1488 85.3542C86.9872 85.4306 86.8637 85.545 86.7784 85.6977C86.6931 85.8504 86.6504 86.0367 86.6504 86.2567V94.1904ZM88.1052 86.9033V88.2772H83.613V86.9033H88.1052ZM88.8123 90.6209V90.4795C88.8123 89.9452 88.8887 89.4535 89.0413 89.0045C89.194 88.5511 89.4162 88.1582 89.7081 87.8259C89.9999 87.4937 90.3591 87.2355 90.7857 87.0514C91.2122 86.8628 91.7016 86.7686 92.2539 86.7686C92.8061 86.7686 93.2978 86.8628 93.7288 87.0514C94.1599 87.2355 94.5213 87.4937 94.8132 87.8259C95.1095 88.1582 95.334 88.5511 95.4866 89.0045C95.6393 89.4535 95.7156 89.9452 95.7156 90.4795V90.6209C95.7156 91.1507 95.6393 91.6424 95.4866 92.0959C95.334 92.5449 95.1095 92.9377 94.8132 93.2745C94.5213 93.6067 94.1621 93.8649 93.7356 94.049C93.309 94.2331 92.8196 94.3251 92.2674 94.3251C91.7151 94.3251 91.2234 94.2331 90.7924 94.049C90.3659 93.8649 90.0044 93.6067 89.7081 93.2745C89.4162 92.9377 89.194 92.5449 89.0413 92.0959C88.8887 91.6424 88.8123 91.1507 88.8123 90.6209ZM90.752 90.4795V90.6209C90.752 90.9262 90.7789 91.2114 90.8328 91.4763C90.8867 91.7412 90.972 91.9746 91.0887 92.1767C91.21 92.3742 91.3671 92.5292 91.5602 92.6414C91.7533 92.7536 91.989 92.8098 92.2674 92.8098C92.5368 92.8098 92.768 92.7536 92.9611 92.6414C93.1541 92.5292 93.309 92.3742 93.4258 92.1767C93.5425 91.9746 93.6278 91.7412 93.6817 91.4763C93.7401 91.2114 93.7692 90.9262 93.7692 90.6209V90.4795C93.7692 90.1832 93.7401 89.9048 93.6817 89.6444C93.6278 89.3795 93.5403 89.146 93.419 88.9439C93.3023 88.7374 93.1474 88.5758 92.9543 88.459C92.7612 88.3423 92.5278 88.2839 92.2539 88.2839C91.98 88.2839 91.7465 88.3423 91.5535 88.459C91.3649 88.5758 91.21 88.7374 91.0887 88.9439C90.972 89.146 90.8867 89.3795 90.8328 89.6444C90.7789 89.9048 90.752 90.1832 90.752 90.4795ZM98.9551 86.9033V94.1904H97.0087V86.9033H98.9551ZM96.8875 85.004C96.8875 84.7211 96.9863 84.4877 97.1838 84.3036C97.3814 84.1195 97.6463 84.0274 97.9786 84.0274C98.3063 84.0274 98.569 84.1195 98.7665 84.3036C98.9686 84.4877 99.0696 84.7211 99.0696 85.004C99.0696 85.2869 98.9686 85.5204 98.7665 85.7044C98.569 85.8885 98.3063 85.9806 97.9786 85.9806C97.6463 85.9806 97.3814 85.8885 97.1838 85.7044C96.9863 85.5204 96.8875 85.2869 96.8875 85.004ZM107.003 92.8098C107.241 92.8098 107.452 92.7649 107.636 92.6751C107.821 92.5808 107.964 92.4506 108.067 92.2844C108.175 92.1138 108.231 91.914 108.236 91.685H110.061C110.057 92.1969 109.92 92.6526 109.65 93.0522C109.381 93.4473 109.019 93.7594 108.566 93.9884C108.112 94.2129 107.605 94.3251 107.044 94.3251C106.478 94.3251 105.984 94.2308 105.562 94.0423C105.145 93.8537 104.797 93.5933 104.518 93.261C104.24 92.9243 104.031 92.5336 103.892 92.0891C103.753 91.6401 103.683 91.1597 103.683 90.6479V90.4526C103.683 89.9362 103.753 89.4558 103.892 89.0113C104.031 88.5623 104.24 88.1717 104.518 87.8394C104.797 87.5027 105.145 87.24 105.562 87.0514C105.98 86.8628 106.469 86.7686 107.03 86.7686C107.627 86.7686 108.151 86.883 108.6 87.112C109.053 87.341 109.408 87.6688 109.664 88.0953C109.924 88.5174 110.057 89.018 110.061 89.5972H108.236C108.231 89.3548 108.18 89.1348 108.081 88.9372C107.987 88.7396 107.847 88.5825 107.663 88.4658C107.484 88.3445 107.262 88.2839 106.997 88.2839C106.714 88.2839 106.483 88.3445 106.303 88.4658C106.123 88.5825 105.984 88.7441 105.885 88.9507C105.787 89.1527 105.717 89.3839 105.677 89.6444C105.641 89.9003 105.623 90.1697 105.623 90.4526V90.6479C105.623 90.9307 105.641 91.2024 105.677 91.4628C105.712 91.7232 105.78 91.9544 105.879 92.1565C105.982 92.3585 106.123 92.5179 106.303 92.6347C106.483 92.7514 106.716 92.8098 107.003 92.8098ZM115.119 92.5471V89.3009C115.119 89.0674 115.081 88.8676 115.004 88.7015C114.928 88.5309 114.809 88.3984 114.647 88.3041C114.49 88.2098 114.286 88.1627 114.035 88.1627C113.819 88.1627 113.633 88.2008 113.476 88.2772C113.318 88.349 113.197 88.4545 113.112 88.5937C113.027 88.7284 112.984 88.8878 112.984 89.0719H111.044C111.044 88.7621 111.116 88.468 111.26 88.1896C111.403 87.9112 111.612 87.6665 111.886 87.4555C112.16 87.24 112.486 87.0716 112.863 86.9504C113.244 86.8292 113.671 86.7686 114.142 86.7686C114.708 86.7686 115.211 86.8628 115.651 87.0514C116.091 87.24 116.437 87.5229 116.688 87.9C116.944 88.2772 117.072 88.7486 117.072 89.3144V92.4326C117.072 92.8322 117.097 93.16 117.146 93.4159C117.196 93.6674 117.267 93.8874 117.362 94.0759V94.1904H115.402C115.307 93.9929 115.236 93.7459 115.186 93.4496C115.141 93.1488 115.119 92.8479 115.119 92.5471ZM115.375 89.7521L115.388 90.8499H114.304C114.048 90.8499 113.826 90.8791 113.637 90.9375C113.449 90.9958 113.294 91.0789 113.173 91.1867C113.051 91.2899 112.962 91.4112 112.903 91.5503C112.849 91.6895 112.822 91.8422 112.822 92.0083C112.822 92.1744 112.86 92.3249 112.937 92.4596C113.013 92.5898 113.123 92.693 113.267 92.7694C113.41 92.8412 113.579 92.8771 113.772 92.8771C114.064 92.8771 114.317 92.8188 114.533 92.702C114.748 92.5853 114.915 92.4416 115.031 92.271C115.153 92.1004 115.215 91.9387 115.22 91.7861L115.732 92.6077C115.66 92.7918 115.561 92.9826 115.435 93.1802C115.314 93.3778 115.159 93.5641 114.971 93.7392C114.782 93.9098 114.555 94.0512 114.291 94.1635C114.026 94.2712 113.711 94.3251 113.348 94.3251C112.885 94.3251 112.465 94.2331 112.088 94.049C111.716 93.8604 111.419 93.6022 111.199 93.2745C110.984 92.9422 110.876 92.5651 110.876 92.143C110.876 91.7614 110.948 91.4224 111.091 91.126C111.235 90.8297 111.446 90.5805 111.725 90.3785C112.007 90.1719 112.36 90.017 112.782 89.9138C113.204 89.806 113.693 89.7521 114.25 89.7521H115.375ZM122.871 92.601V83.8456H124.824V94.1904H123.066L122.871 92.601ZM118.264 90.6344V90.493C118.264 89.9362 118.327 89.4311 118.453 88.9776C118.578 88.5196 118.763 88.1268 119.005 87.799C119.247 87.4712 119.546 87.2175 119.901 87.038C120.255 86.8584 120.66 86.7686 121.113 86.7686C121.54 86.7686 121.912 86.8584 122.231 87.038C122.554 87.2175 122.828 87.4735 123.053 87.8057C123.282 88.1335 123.466 88.5219 123.605 88.9709C123.744 89.4154 123.845 89.9025 123.908 90.4323V90.7422C123.845 91.2495 123.744 91.721 123.605 92.1565C123.466 92.592 123.282 92.9737 123.053 93.3014C122.828 93.6247 122.554 93.8761 122.231 94.0557C121.908 94.2353 121.531 94.3251 121.1 94.3251C120.646 94.3251 120.242 94.2331 119.887 94.049C119.537 93.8649 119.241 93.6067 118.998 93.2745C118.76 92.9422 118.578 92.5516 118.453 92.1026C118.327 91.6536 118.264 91.1642 118.264 90.6344ZM120.204 90.493V90.6344C120.204 90.9352 120.226 91.2158 120.271 91.4763C120.321 91.7367 120.399 91.9679 120.507 92.17C120.619 92.3675 120.763 92.5224 120.938 92.6347C121.117 92.7424 121.335 92.7963 121.591 92.7963C121.923 92.7963 122.197 92.7222 122.413 92.5741C122.628 92.4214 122.792 92.2126 122.904 91.9477C123.021 91.6828 123.089 91.3775 123.107 91.0318V90.1495C123.093 89.8666 123.053 89.6129 122.985 89.3884C122.922 89.1594 122.828 88.9641 122.702 88.8025C122.581 88.6409 122.429 88.5151 122.244 88.4253C122.065 88.3355 121.852 88.2906 121.605 88.2906C121.353 88.2906 121.138 88.349 120.958 88.4658C120.778 88.578 120.633 88.7329 120.52 88.9305C120.413 89.128 120.332 89.3615 120.278 89.6309C120.228 89.8958 120.204 90.1832 120.204 90.493ZM130.272 92.5471V89.3009C130.272 89.0674 130.234 88.8676 130.158 88.7015C130.082 88.5309 129.963 88.3984 129.801 88.3041C129.644 88.2098 129.44 88.1627 129.188 88.1627C128.973 88.1627 128.786 88.2008 128.629 88.2772C128.472 88.349 128.351 88.4545 128.265 88.5937C128.18 88.7284 128.138 88.8878 128.138 89.0719H126.198C126.198 88.7621 126.27 88.468 126.413 88.1896C126.557 87.9112 126.766 87.6665 127.04 87.4555C127.314 87.24 127.639 87.0716 128.016 86.9504C128.398 86.8292 128.824 86.7686 129.296 86.7686C129.862 86.7686 130.365 86.8628 130.805 87.0514C131.245 87.24 131.59 87.5229 131.842 87.9C132.098 88.2772 132.226 88.7486 132.226 89.3144V92.4326C132.226 92.8322 132.25 93.16 132.3 93.4159C132.349 93.6674 132.421 93.8874 132.515 94.0759V94.1904H130.555C130.461 93.9929 130.389 93.7459 130.34 93.4496C130.295 93.1488 130.272 92.8479 130.272 92.5471ZM130.528 89.7521L130.542 90.8499H129.458C129.202 90.8499 128.979 90.8791 128.791 90.9375C128.602 90.9958 128.447 91.0789 128.326 91.1867C128.205 91.2899 128.115 91.4112 128.057 91.5503C128.003 91.6895 127.976 91.8422 127.976 92.0083C127.976 92.1744 128.014 92.3249 128.09 92.4596C128.167 92.5898 128.277 92.693 128.42 92.7694C128.564 92.8412 128.732 92.8771 128.925 92.8771C129.217 92.8771 129.471 92.8188 129.687 92.702C129.902 92.5853 130.068 92.4416 130.185 92.271C130.306 92.1004 130.369 91.9387 130.374 91.7861L130.885 92.6077C130.814 92.7918 130.715 92.9826 130.589 93.1802C130.468 93.3778 130.313 93.5641 130.124 93.7392C129.936 93.9098 129.709 94.0512 129.444 94.1635C129.179 94.2712 128.865 94.3251 128.501 94.3251C128.039 94.3251 127.619 94.2331 127.242 94.049C126.869 93.8604 126.573 93.6022 126.353 93.2745C126.137 92.9422 126.029 92.5651 126.029 92.143C126.029 91.7614 126.101 91.4224 126.245 91.126C126.389 90.8297 126.6 90.5805 126.878 90.3785C127.161 90.1719 127.513 90.017 127.935 89.9138C128.358 89.806 128.847 89.7521 129.404 89.7521H130.528ZM137.661 92.1767C137.661 92.0375 137.62 91.9118 137.539 91.7995C137.459 91.6873 137.308 91.584 137.088 91.4897C136.873 91.391 136.561 91.3012 136.152 91.2203C135.784 91.1395 135.44 91.0385 135.122 90.9173C134.807 90.7915 134.533 90.6411 134.3 90.466C134.071 90.2909 133.891 90.0844 133.761 89.8464C133.631 89.604 133.566 89.3278 133.566 89.018C133.566 88.7127 133.631 88.4253 133.761 88.1559C133.896 87.8866 134.087 87.6486 134.334 87.442C134.585 87.231 134.89 87.0671 135.25 86.9504C135.613 86.8292 136.022 86.7686 136.475 86.7686C137.108 86.7686 137.652 86.8696 138.105 87.0716C138.563 87.2737 138.913 87.552 139.156 87.9068C139.403 88.257 139.526 88.6566 139.526 89.1056H137.587C137.587 88.917 137.546 88.7486 137.465 88.6005C137.389 88.4478 137.268 88.3288 137.102 88.2435C136.94 88.1537 136.729 88.1088 136.469 88.1088C136.253 88.1088 136.067 88.147 135.91 88.2233C135.752 88.2951 135.631 88.3939 135.546 88.5196C135.465 88.6409 135.425 88.7756 135.425 88.9237C135.425 89.036 135.447 89.137 135.492 89.2268C135.541 89.3121 135.62 89.3907 135.728 89.4625C135.836 89.5344 135.975 89.6017 136.145 89.6646C136.32 89.7229 136.536 89.7768 136.792 89.8262C137.317 89.934 137.786 90.0754 138.199 90.2505C138.613 90.4211 138.94 90.6546 139.183 90.9509C139.425 91.2428 139.546 91.6267 139.546 92.1026C139.546 92.4259 139.475 92.7222 139.331 92.9916C139.187 93.261 138.981 93.4967 138.711 93.6988C138.442 93.8963 138.119 94.0512 137.741 94.1635C137.369 94.2712 136.949 94.3251 136.482 94.3251C135.804 94.3251 135.229 94.2039 134.758 93.9614C134.291 93.719 133.936 93.4114 133.694 93.0388C133.456 92.6616 133.337 92.2755 133.337 91.8804H135.175C135.184 92.1453 135.252 92.3585 135.378 92.5202C135.508 92.6818 135.672 92.7985 135.869 92.8704C136.071 92.9422 136.289 92.9781 136.522 92.9781C136.774 92.9781 136.983 92.9445 137.149 92.8771C137.315 92.8053 137.441 92.711 137.526 92.5943C137.616 92.473 137.661 92.3338 137.661 92.1767ZM144.375 86.9033V88.2772H140.132V86.9033H144.375ZM141.183 85.105H143.123V91.9948C143.123 92.2059 143.15 92.3675 143.204 92.4798C143.262 92.592 143.347 92.6706 143.459 92.7155C143.572 92.7559 143.713 92.7761 143.884 92.7761C144.005 92.7761 144.113 92.7716 144.207 92.7626C144.306 92.7492 144.389 92.7357 144.456 92.7222L144.463 94.15C144.297 94.2039 144.117 94.2466 143.924 94.278C143.731 94.3094 143.518 94.3251 143.284 94.3251C142.858 94.3251 142.485 94.2555 142.166 94.1163C141.852 93.9727 141.61 93.7437 141.439 93.4294C141.268 93.1151 141.183 92.702 141.183 92.1902V85.105ZM147.42 88.4927V94.1904H145.48V86.9033H147.305L147.42 88.4927ZM149.615 86.8561L149.581 88.6543C149.487 88.6409 149.373 88.6296 149.238 88.6207C149.108 88.6072 148.989 88.6005 148.881 88.6005C148.607 88.6005 148.369 88.6364 148.167 88.7082C147.97 88.7756 147.803 88.8766 147.669 89.0113C147.539 89.146 147.44 89.3099 147.372 89.5029C147.31 89.696 147.274 89.916 147.265 90.163L146.874 90.0417C146.874 89.5703 146.921 89.137 147.015 88.7419C147.11 88.3423 147.247 87.9943 147.426 87.698C147.61 87.4016 147.835 87.1726 148.1 87.011C148.365 86.8494 148.668 86.7686 149.009 86.7686C149.117 86.7686 149.227 86.7775 149.339 86.7955C149.451 86.809 149.543 86.8292 149.615 86.8561ZM154.235 92.5471V89.3009C154.235 89.0674 154.197 88.8676 154.121 88.7015C154.044 88.5309 153.925 88.3984 153.764 88.3041C153.607 88.2098 153.402 88.1627 153.151 88.1627C152.935 88.1627 152.749 88.2008 152.592 88.2772C152.435 88.349 152.314 88.4545 152.228 88.5937C152.143 88.7284 152.1 88.8878 152.1 89.0719H150.161C150.161 88.7621 150.233 88.468 150.376 88.1896C150.52 87.9112 150.729 87.6665 151.003 87.4555C151.276 87.24 151.602 87.0716 151.979 86.9504C152.361 86.8292 152.787 86.7686 153.259 86.7686C153.824 86.7686 154.327 86.8628 154.767 87.0514C155.207 87.24 155.553 87.5229 155.805 87.9C156.06 88.2772 156.188 88.7486 156.188 89.3144V92.4326C156.188 92.8322 156.213 93.16 156.263 93.4159C156.312 93.6674 156.384 93.8874 156.478 94.0759V94.1904H154.518C154.424 93.9929 154.352 93.7459 154.303 93.4496C154.258 93.1488 154.235 92.8479 154.235 92.5471ZM154.491 89.7521L154.505 90.8499H153.42C153.164 90.8499 152.942 90.8791 152.754 90.9375C152.565 90.9958 152.41 91.0789 152.289 91.1867C152.168 91.2899 152.078 91.4112 152.02 91.5503C151.966 91.6895 151.939 91.8422 151.939 92.0083C151.939 92.1744 151.977 92.3249 152.053 92.4596C152.13 92.5898 152.24 92.693 152.383 92.7694C152.527 92.8412 152.695 92.8771 152.888 92.8771C153.18 92.8771 153.434 92.8188 153.649 92.702C153.865 92.5853 154.031 92.4416 154.148 92.271C154.269 92.1004 154.332 91.9387 154.336 91.7861L154.848 92.6077C154.776 92.7918 154.678 92.9826 154.552 93.1802C154.431 93.3778 154.276 93.5641 154.087 93.7392C153.899 93.9098 153.672 94.0512 153.407 94.1635C153.142 94.2712 152.828 94.3251 152.464 94.3251C152.002 94.3251 151.582 94.2331 151.205 94.049C150.832 93.8604 150.536 93.6022 150.316 93.2745C150.1 92.9422 149.992 92.5651 149.992 92.143C149.992 91.7614 150.064 91.4224 150.208 91.126C150.351 90.8297 150.563 90.5805 150.841 90.3785C151.124 90.1719 151.476 90.017 151.898 89.9138C152.32 89.806 152.81 89.7521 153.366 89.7521H154.491ZM161.987 92.601V83.8456H163.94V94.1904H162.183L161.987 92.601ZM157.381 90.6344V90.493C157.381 89.9362 157.443 89.4311 157.569 88.9776C157.695 88.5196 157.879 88.1268 158.121 87.799C158.364 87.4712 158.662 87.2175 159.017 87.038C159.372 86.8584 159.776 86.7686 160.229 86.7686C160.656 86.7686 161.029 86.8584 161.347 87.038C161.671 87.2175 161.945 87.4735 162.169 87.8057C162.398 88.1335 162.582 88.5219 162.721 88.9709C162.86 89.4154 162.962 89.9025 163.024 90.4323V90.7422C162.962 91.2495 162.86 91.721 162.721 92.1565C162.582 92.592 162.398 92.9737 162.169 93.3014C161.945 93.6247 161.671 93.8761 161.347 94.0557C161.024 94.2353 160.647 94.3251 160.216 94.3251C159.762 94.3251 159.358 94.2331 159.004 94.049C158.653 93.8649 158.357 93.6067 158.115 93.2745C157.877 92.9422 157.695 92.5516 157.569 92.1026C157.443 91.6536 157.381 91.1642 157.381 90.6344ZM159.32 90.493V90.6344C159.32 90.9352 159.343 91.2158 159.388 91.4763C159.437 91.7367 159.515 91.9679 159.623 92.17C159.735 92.3675 159.879 92.5224 160.054 92.6347C160.234 92.7424 160.452 92.7963 160.708 92.7963C161.04 92.7963 161.314 92.7222 161.529 92.5741C161.745 92.4214 161.909 92.2126 162.021 91.9477C162.138 91.6828 162.205 91.3775 162.223 91.0318V90.1495C162.209 89.8666 162.169 89.6129 162.102 89.3884C162.039 89.1594 161.945 88.9641 161.819 88.8025C161.698 88.6409 161.545 88.5151 161.361 88.4253C161.181 88.3355 160.968 88.2906 160.721 88.2906C160.47 88.2906 160.254 88.349 160.074 88.4658C159.895 88.578 159.749 88.7329 159.637 88.9305C159.529 89.128 159.448 89.3615 159.394 89.6309C159.345 89.8958 159.32 90.1832 159.32 90.493ZM165.146 90.6209V90.4795C165.146 89.9452 165.222 89.4535 165.375 89.0045C165.528 88.5511 165.75 88.1582 166.042 87.8259C166.333 87.4937 166.693 87.2355 167.119 87.0514C167.546 86.8628 168.035 86.7686 168.587 86.7686C169.14 86.7686 169.631 86.8628 170.062 87.0514C170.493 87.2355 170.855 87.4937 171.147 87.8259C171.443 88.1582 171.668 88.5511 171.82 89.0045C171.973 89.4535 172.049 89.9452 172.049 90.4795V90.6209C172.049 91.1507 171.973 91.6424 171.82 92.0959C171.668 92.5449 171.443 92.9377 171.147 93.2745C170.855 93.6067 170.496 93.8649 170.069 94.049C169.643 94.2331 169.153 94.3251 168.601 94.3251C168.049 94.3251 167.557 94.2331 167.126 94.049C166.699 93.8649 166.338 93.6067 166.042 93.2745C165.75 92.9377 165.528 92.5449 165.375 92.0959C165.222 91.6424 165.146 91.1507 165.146 90.6209ZM167.086 90.4795V90.6209C167.086 90.9262 167.112 91.2114 167.166 91.4763C167.22 91.7412 167.306 91.9746 167.422 92.1767C167.543 92.3742 167.701 92.5292 167.894 92.6414C168.087 92.7536 168.322 92.8098 168.601 92.8098C168.87 92.8098 169.101 92.7536 169.295 92.6414C169.488 92.5292 169.643 92.3742 169.759 92.1767C169.876 91.9746 169.961 91.7412 170.015 91.4763C170.074 91.2114 170.103 90.9262 170.103 90.6209V90.4795C170.103 90.1832 170.074 89.9048 170.015 89.6444C169.961 89.3795 169.874 89.146 169.753 88.9439C169.636 88.7374 169.481 88.5758 169.288 88.459C169.095 88.3423 168.861 88.2839 168.587 88.2839C168.314 88.2839 168.08 88.3423 167.887 88.459C167.698 88.5758 167.543 88.7374 167.422 88.9439C167.306 89.146 167.22 89.3795 167.166 89.6444C167.112 89.9048 167.086 90.1832 167.086 90.4795ZM69.4427 108.81C69.6807 108.81 69.8917 108.765 70.0758 108.675C70.2599 108.581 70.4036 108.451 70.5069 108.284C70.6146 108.114 70.6707 107.914 70.6752 107.685H72.5004C72.4959 108.197 72.359 108.653 72.0896 109.052C71.8202 109.447 71.4587 109.759 71.0052 109.988C70.5518 110.213 70.0444 110.325 69.4831 110.325C68.9174 110.325 68.4235 110.231 68.0015 110.042C67.5839 109.854 67.2359 109.593 66.9576 109.261C66.6792 108.924 66.4704 108.534 66.3312 108.089C66.192 107.64 66.1224 107.16 66.1224 106.648V106.453C66.1224 105.936 66.192 105.456 66.3312 105.011C66.4704 104.562 66.6792 104.172 66.9576 103.839C67.2359 103.503 67.5839 103.24 68.0015 103.051C68.419 102.863 68.9084 102.769 69.4697 102.769C70.0668 102.769 70.5899 102.883 71.0389 103.112C71.4924 103.341 71.8471 103.669 72.103 104.095C72.3634 104.517 72.4959 105.018 72.5004 105.597H70.6752C70.6707 105.355 70.6191 105.135 70.5203 104.937C70.426 104.74 70.2868 104.582 70.1028 104.466C69.9232 104.345 69.7009 104.284 69.436 104.284C69.1531 104.284 68.9219 104.345 68.7423 104.466C68.5627 104.582 68.4235 104.744 68.3247 104.951C68.226 105.153 68.1564 105.384 68.116 105.644C68.08 105.9 68.0621 106.17 68.0621 106.453V106.648C68.0621 106.931 68.08 107.202 68.116 107.463C68.1519 107.723 68.2192 107.954 68.318 108.156C68.4213 108.359 68.5627 108.518 68.7423 108.635C68.9219 108.751 69.1554 108.81 69.4427 108.81ZM73.3153 106.621V106.479C73.3153 105.945 73.3916 105.454 73.5443 105.005C73.697 104.551 73.9192 104.158 74.2111 103.826C74.5029 103.494 74.8621 103.236 75.2886 103.051C75.7152 102.863 76.2046 102.769 76.7569 102.769C77.3091 102.769 77.8008 102.863 78.2318 103.051C78.6628 103.236 79.0243 103.494 79.3161 103.826C79.6125 104.158 79.837 104.551 79.9896 105.005C80.1423 105.454 80.2186 105.945 80.2186 106.479V106.621C80.2186 107.151 80.1423 107.642 79.9896 108.096C79.837 108.545 79.6125 108.938 79.3161 109.274C79.0243 109.607 78.6651 109.865 78.2385 110.049C77.812 110.233 77.3226 110.325 76.7703 110.325C76.2181 110.325 75.7264 110.233 75.2954 110.049C74.8688 109.865 74.5074 109.607 74.2111 109.274C73.9192 108.938 73.697 108.545 73.5443 108.096C73.3916 107.642 73.3153 107.151 73.3153 106.621ZM75.255 106.479V106.621C75.255 106.926 75.2819 107.211 75.3358 107.476C75.3897 107.741 75.475 107.975 75.5917 108.177C75.7129 108.374 75.8701 108.529 76.0632 108.641C76.2562 108.754 76.4919 108.81 76.7703 108.81C77.0397 108.81 77.2709 108.754 77.464 108.641C77.6571 108.529 77.812 108.374 77.9287 108.177C78.0455 107.975 78.1308 107.741 78.1847 107.476C78.243 107.211 78.2722 106.926 78.2722 106.621V106.479C78.2722 106.183 78.243 105.905 78.1847 105.644C78.1308 105.379 78.0432 105.146 77.922 104.944C77.8053 104.737 77.6503 104.576 77.4573 104.459C77.2642 104.342 77.0307 104.284 76.7569 104.284C76.483 104.284 76.2495 104.342 76.0564 104.459C75.8678 104.576 75.7129 104.737 75.5917 104.944C75.475 105.146 75.3897 105.379 75.3358 105.644C75.2819 105.905 75.255 106.183 75.255 106.479ZM83.3503 104.412V110.19H81.4039V102.903H83.2291L83.3503 104.412ZM83.0809 106.291H82.5421C82.5421 105.784 82.6028 105.317 82.724 104.89C82.8497 104.459 83.0315 104.086 83.2695 103.772C83.512 103.453 83.8105 103.206 84.1653 103.031C84.52 102.856 84.9308 102.769 85.3977 102.769C85.721 102.769 86.0174 102.818 86.2868 102.917C86.5561 103.011 86.7874 103.161 86.9804 103.368C87.178 103.57 87.3307 103.835 87.4384 104.163C87.5462 104.486 87.6001 104.874 87.6001 105.328V110.19H85.6604V105.543C85.6604 105.211 85.6155 104.955 85.5257 104.776C85.4359 104.596 85.3079 104.47 85.1418 104.398C84.9802 104.327 84.7849 104.291 84.5559 104.291C84.3044 104.291 84.0844 104.342 83.8959 104.446C83.7118 104.549 83.5591 104.692 83.4379 104.877C83.3167 105.056 83.2269 105.267 83.1685 105.51C83.1101 105.752 83.0809 106.013 83.0809 106.291ZM87.4182 106.069L86.7245 106.156C86.7245 105.68 86.7829 105.238 86.8996 104.829C87.0209 104.421 87.1982 104.062 87.4317 103.752C87.6697 103.442 87.9637 103.202 88.314 103.031C88.6642 102.856 89.0683 102.769 89.5262 102.769C89.8765 102.769 90.1952 102.82 90.4826 102.923C90.77 103.022 91.0147 103.182 91.2167 103.402C91.4232 103.617 91.5804 103.9 91.6882 104.25C91.8004 104.6 91.8565 105.029 91.8565 105.537V110.19H89.9101V105.537C89.9101 105.2 89.8652 104.944 89.7754 104.769C89.6901 104.589 89.5644 104.466 89.3983 104.398C89.2366 104.327 89.0436 104.291 88.8191 104.291C88.5856 104.291 88.3813 104.338 88.2062 104.432C88.0311 104.522 87.8852 104.648 87.7684 104.809C87.6517 104.971 87.5641 105.159 87.5058 105.375C87.4474 105.586 87.4182 105.817 87.4182 106.069ZM100.733 108.177C100.733 108.038 100.693 107.912 100.612 107.8C100.531 107.687 100.381 107.584 100.161 107.49C99.9452 107.391 99.6331 107.301 99.2245 107.22C98.8563 107.14 98.5129 107.038 98.1941 106.917C97.8798 106.792 97.6059 106.641 97.3724 106.466C97.1434 106.291 96.9638 106.084 96.8336 105.846C96.7034 105.604 96.6383 105.328 96.6383 105.018C96.6383 104.713 96.7034 104.425 96.8336 104.156C96.9683 103.887 97.1592 103.649 97.4061 103.442C97.6575 103.231 97.9629 103.067 98.322 102.95C98.6857 102.829 99.0943 102.769 99.5478 102.769C100.181 102.769 100.724 102.87 101.178 103.072C101.636 103.274 101.986 103.552 102.228 103.907C102.475 104.257 102.599 104.657 102.599 105.106H100.659C100.659 104.917 100.619 104.749 100.538 104.6C100.462 104.448 100.34 104.329 100.174 104.244C100.013 104.154 99.8015 104.109 99.5411 104.109C99.3255 104.109 99.1392 104.147 98.9821 104.223C98.8249 104.295 98.7037 104.394 98.6184 104.52C98.5376 104.641 98.4972 104.776 98.4972 104.924C98.4972 105.036 98.5196 105.137 98.5645 105.227C98.6139 105.312 98.6925 105.391 98.8002 105.463C98.908 105.534 99.0472 105.602 99.2178 105.665C99.3929 105.723 99.6084 105.777 99.8643 105.826C100.39 105.934 100.859 106.075 101.272 106.251C101.685 106.421 102.013 106.655 102.255 106.951C102.498 107.243 102.619 107.627 102.619 108.103C102.619 108.426 102.547 108.722 102.403 108.992C102.26 109.261 102.053 109.497 101.784 109.699C101.514 109.896 101.191 110.051 100.814 110.163C100.441 110.271 100.021 110.325 99.5545 110.325C98.8766 110.325 98.3018 110.204 97.8304 109.961C97.3634 109.719 97.0087 109.411 96.7663 109.039C96.5283 108.662 96.4093 108.275 96.4093 107.88H98.248C98.2569 108.145 98.3243 108.359 98.45 108.52C98.5802 108.682 98.7441 108.799 98.9417 108.87C99.1437 108.942 99.3615 108.978 99.5949 108.978C99.8464 108.978 100.055 108.944 100.221 108.877C100.387 108.805 100.513 108.711 100.598 108.594C100.688 108.473 100.733 108.334 100.733 108.177ZM108.189 108.446V102.903H110.128V110.19H108.303L108.189 108.446ZM108.404 106.951L108.977 106.937C108.977 107.422 108.921 107.874 108.808 108.291C108.696 108.704 108.528 109.063 108.303 109.369C108.079 109.67 107.796 109.905 107.455 110.076C107.113 110.242 106.712 110.325 106.249 110.325C105.894 110.325 105.567 110.276 105.266 110.177C104.969 110.074 104.713 109.914 104.498 109.699C104.287 109.479 104.121 109.198 104 108.857C103.883 108.511 103.824 108.096 103.824 107.611V102.903H105.764V107.624C105.764 107.84 105.789 108.022 105.838 108.17C105.892 108.318 105.966 108.439 106.06 108.534C106.155 108.628 106.265 108.695 106.39 108.736C106.521 108.776 106.664 108.796 106.822 108.796C107.221 108.796 107.535 108.715 107.764 108.554C107.998 108.392 108.162 108.172 108.256 107.894C108.355 107.611 108.404 107.297 108.404 106.951ZM114.621 108.81C114.859 108.81 115.07 108.765 115.254 108.675C115.438 108.581 115.581 108.451 115.685 108.284C115.792 108.114 115.849 107.914 115.853 107.685H117.678C117.674 108.197 117.537 108.653 117.267 109.052C116.998 109.447 116.637 109.759 116.183 109.988C115.73 110.213 115.222 110.325 114.661 110.325C114.095 110.325 113.601 110.231 113.179 110.042C112.762 109.854 112.414 109.593 112.135 109.261C111.857 108.924 111.648 108.534 111.509 108.089C111.37 107.64 111.3 107.16 111.3 106.648V106.453C111.3 105.936 111.37 105.456 111.509 105.011C111.648 104.562 111.857 104.172 112.135 103.839C112.414 103.503 112.762 103.24 113.179 103.051C113.597 102.863 114.086 102.769 114.647 102.769C115.245 102.769 115.768 102.883 116.217 103.112C116.67 103.341 117.025 103.669 117.281 104.095C117.541 104.517 117.674 105.018 117.678 105.597H115.853C115.849 105.355 115.797 105.135 115.698 104.937C115.604 104.74 115.465 104.582 115.281 104.466C115.101 104.345 114.879 104.284 114.614 104.284C114.331 104.284 114.1 104.345 113.92 104.466C113.741 104.582 113.601 104.744 113.503 104.951C113.404 105.153 113.334 105.384 113.294 105.644C113.258 105.9 113.24 106.17 113.24 106.453V106.648C113.24 106.931 113.258 107.202 113.294 107.463C113.33 107.723 113.397 107.954 113.496 108.156C113.599 108.359 113.741 108.518 113.92 108.635C114.1 108.751 114.333 108.81 114.621 108.81ZM122.157 110.325C121.591 110.325 121.084 110.235 120.635 110.056C120.186 109.872 119.804 109.618 119.49 109.295C119.18 108.971 118.942 108.597 118.776 108.17C118.61 107.739 118.527 107.281 118.527 106.796V106.527C118.527 105.974 118.605 105.469 118.763 105.011C118.92 104.553 119.144 104.156 119.436 103.819C119.732 103.482 120.092 103.224 120.514 103.045C120.936 102.861 121.412 102.769 121.941 102.769C122.458 102.769 122.916 102.854 123.315 103.024C123.715 103.195 124.049 103.438 124.319 103.752C124.593 104.066 124.799 104.443 124.938 104.883C125.078 105.319 125.147 105.804 125.147 106.338V107.146H119.355V105.853H123.241V105.705C123.241 105.436 123.192 105.195 123.093 104.984C122.999 104.769 122.855 104.598 122.662 104.472C122.469 104.347 122.222 104.284 121.921 104.284C121.665 104.284 121.445 104.34 121.261 104.452C121.077 104.565 120.927 104.722 120.81 104.924C120.698 105.126 120.612 105.364 120.554 105.638C120.5 105.907 120.473 106.203 120.473 106.527V106.796C120.473 107.088 120.514 107.357 120.594 107.604C120.68 107.851 120.799 108.064 120.951 108.244C121.109 108.424 121.297 108.563 121.517 108.662C121.742 108.76 121.995 108.81 122.278 108.81C122.628 108.81 122.954 108.742 123.255 108.608C123.56 108.469 123.823 108.26 124.043 107.981L124.986 109.005C124.833 109.225 124.624 109.436 124.359 109.638C124.099 109.84 123.785 110.006 123.416 110.137C123.048 110.262 122.628 110.325 122.157 110.325ZM130.192 108.177C130.192 108.038 130.151 107.912 130.07 107.8C129.99 107.687 129.839 107.584 129.619 107.49C129.404 107.391 129.092 107.301 128.683 107.22C128.315 107.14 127.971 107.038 127.653 106.917C127.338 106.792 127.064 106.641 126.831 106.466C126.602 106.291 126.422 106.084 126.292 105.846C126.162 105.604 126.097 105.328 126.097 105.018C126.097 104.713 126.162 104.425 126.292 104.156C126.427 103.887 126.618 103.649 126.865 103.442C127.116 103.231 127.421 103.067 127.781 102.95C128.144 102.829 128.553 102.769 129.006 102.769C129.639 102.769 130.183 102.87 130.636 103.072C131.094 103.274 131.444 103.552 131.687 103.907C131.934 104.257 132.057 104.657 132.057 105.106H130.118C130.118 104.917 130.077 104.749 129.996 104.6C129.92 104.448 129.799 104.329 129.633 104.244C129.471 104.154 129.26 104.109 129 104.109C128.784 104.109 128.598 104.147 128.441 104.223C128.283 104.295 128.162 104.394 128.077 104.52C127.996 104.641 127.956 104.776 127.956 104.924C127.956 105.036 127.978 105.137 128.023 105.227C128.072 105.312 128.151 105.391 128.259 105.463C128.366 105.534 128.506 105.602 128.676 105.665C128.851 105.723 129.067 105.777 129.323 105.826C129.848 105.934 130.317 106.075 130.73 106.251C131.144 106.421 131.471 106.655 131.714 106.951C131.956 107.243 132.077 107.627 132.077 108.103C132.077 108.426 132.006 108.722 131.862 108.992C131.718 109.261 131.512 109.497 131.242 109.699C130.973 109.896 130.65 110.051 130.272 110.163C129.9 110.271 129.48 110.325 129.013 110.325C128.335 110.325 127.76 110.204 127.289 109.961C126.822 109.719 126.467 109.411 126.225 109.039C125.987 108.662 125.868 108.275 125.868 107.88H127.706C127.715 108.145 127.783 108.359 127.909 108.52C128.039 108.682 128.203 108.799 128.4 108.87C128.602 108.942 128.82 108.978 129.053 108.978C129.305 108.978 129.514 108.944 129.68 108.877C129.846 108.805 129.972 108.711 130.057 108.594C130.147 108.473 130.192 108.334 130.192 108.177ZM137.277 108.177C137.277 108.038 137.236 107.912 137.156 107.8C137.075 107.687 136.924 107.584 136.704 107.49C136.489 107.391 136.177 107.301 135.768 107.22C135.4 107.14 135.057 107.038 134.738 106.917C134.423 106.792 134.15 106.641 133.916 106.466C133.687 106.291 133.507 106.084 133.377 105.846C133.247 105.604 133.182 105.328 133.182 105.018C133.182 104.713 133.247 104.425 133.377 104.156C133.512 103.887 133.703 103.649 133.95 103.442C134.201 103.231 134.506 103.067 134.866 102.95C135.229 102.829 135.638 102.769 136.091 102.769C136.725 102.769 137.268 102.87 137.721 103.072C138.179 103.274 138.529 103.552 138.772 103.907C139.019 104.257 139.142 104.657 139.142 105.106H137.203C137.203 104.917 137.162 104.749 137.081 104.6C137.005 104.448 136.884 104.329 136.718 104.244C136.556 104.154 136.345 104.109 136.085 104.109C135.869 104.109 135.683 104.147 135.526 104.223C135.369 104.295 135.247 104.394 135.162 104.52C135.081 104.641 135.041 104.776 135.041 104.924C135.041 105.036 135.063 105.137 135.108 105.227C135.158 105.312 135.236 105.391 135.344 105.463C135.452 105.534 135.591 105.602 135.761 105.665C135.937 105.723 136.152 105.777 136.408 105.826C136.933 105.934 137.403 106.075 137.816 106.251C138.229 106.421 138.556 106.655 138.799 106.951C139.041 107.243 139.163 107.627 139.163 108.103C139.163 108.426 139.091 108.722 138.947 108.992C138.803 109.261 138.597 109.497 138.327 109.699C138.058 109.896 137.735 110.051 137.358 110.163C136.985 110.271 136.565 110.325 136.098 110.325C135.42 110.325 134.845 110.204 134.374 109.961C133.907 109.719 133.552 109.411 133.31 109.039C133.072 108.662 132.953 108.275 132.953 107.88H134.792C134.801 108.145 134.868 108.359 134.994 108.52C135.124 108.682 135.288 108.799 135.485 108.87C135.687 108.942 135.905 108.978 136.139 108.978C136.39 108.978 136.599 108.944 136.765 108.877C136.931 108.805 137.057 108.711 137.142 108.594C137.232 108.473 137.277 108.334 137.277 108.177ZM140.112 106.621V106.479C140.112 105.945 140.189 105.454 140.341 105.005C140.494 104.551 140.716 104.158 141.008 103.826C141.3 103.494 141.659 103.236 142.086 103.051C142.512 102.863 143.001 102.769 143.554 102.769C144.106 102.769 144.598 102.863 145.029 103.051C145.46 103.236 145.821 103.494 146.113 103.826C146.409 104.158 146.634 104.551 146.786 105.005C146.939 105.454 147.015 105.945 147.015 106.479V106.621C147.015 107.151 146.939 107.642 146.786 108.096C146.634 108.545 146.409 108.938 146.113 109.274C145.821 109.607 145.462 109.865 145.035 110.049C144.609 110.233 144.119 110.325 143.567 110.325C143.015 110.325 142.523 110.233 142.092 110.049C141.666 109.865 141.304 109.607 141.008 109.274C140.716 108.938 140.494 108.545 140.341 108.096C140.189 107.642 140.112 107.151 140.112 106.621ZM142.052 106.479V106.621C142.052 106.926 142.079 107.211 142.133 107.476C142.187 107.741 142.272 107.975 142.389 108.177C142.51 108.374 142.667 108.529 142.86 108.641C143.053 108.754 143.289 108.81 143.567 108.81C143.837 108.81 144.068 108.754 144.261 108.641C144.454 108.529 144.609 108.374 144.726 108.177C144.842 107.975 144.928 107.741 144.982 107.476C145.04 107.211 145.069 106.926 145.069 106.621V106.479C145.069 106.183 145.04 105.905 144.982 105.644C144.928 105.379 144.84 105.146 144.719 104.944C144.602 104.737 144.447 104.576 144.254 104.459C144.061 104.342 143.828 104.284 143.554 104.284C143.28 104.284 143.046 104.342 142.853 104.459C142.665 104.576 142.51 104.737 142.389 104.944C142.272 105.146 142.187 105.379 142.133 105.644C142.079 105.905 142.052 106.183 142.052 106.479ZM150.396 100.384L150.174 107.193H148.558L148.329 100.384H150.396ZM148.275 109.301C148.275 109.014 148.374 108.776 148.571 108.588C148.773 108.394 149.038 108.298 149.366 108.298C149.698 108.298 149.963 108.394 150.161 108.588C150.358 108.776 150.457 109.014 150.457 109.301C150.457 109.58 150.358 109.816 150.161 110.009C149.963 110.202 149.698 110.298 149.366 110.298C149.038 110.298 148.773 110.202 148.571 110.009C148.374 109.816 148.275 109.58 148.275 109.301Z" fill="black"/>
<rect x="50.2417" y="126.983" width="116.379" height="32.7586" rx="4.31035" fill="#0a5888"/>
<path d="M94.2207 145.815L96.5308 138.056H98.7802L95.3656 147.862H93.8839L94.2207 145.815ZM92.0925 138.056L94.3958 145.815L94.746 147.862H93.2509L89.8565 138.056H92.0925ZM98.9553 144.293V144.151C98.9553 143.617 99.0317 143.125 99.1843 142.676C99.337 142.223 99.5592 141.83 99.8511 141.498C100.143 141.166 100.502 140.907 100.929 140.723C101.355 140.535 101.845 140.44 102.397 140.44C102.949 140.44 103.441 140.535 103.872 140.723C104.303 140.907 104.664 141.166 104.956 141.498C105.252 141.83 105.477 142.223 105.63 142.676C105.782 143.125 105.859 143.617 105.859 144.151V144.293C105.859 144.823 105.782 145.314 105.63 145.768C105.477 146.217 105.252 146.61 104.956 146.946C104.664 147.279 104.305 147.537 103.879 147.721C103.452 147.905 102.963 147.997 102.41 147.997C101.858 147.997 101.366 147.905 100.935 147.721C100.509 147.537 100.147 147.279 99.8511 146.946C99.5592 146.61 99.337 146.217 99.1843 145.768C99.0317 145.314 98.9553 144.823 98.9553 144.293ZM100.895 144.151V144.293C100.895 144.598 100.922 144.883 100.976 145.148C101.03 145.413 101.115 145.647 101.232 145.849C101.353 146.046 101.51 146.201 101.703 146.313C101.896 146.426 102.132 146.482 102.41 146.482C102.68 146.482 102.911 146.426 103.104 146.313C103.297 146.201 103.452 146.046 103.569 145.849C103.685 145.647 103.771 145.413 103.825 145.148C103.883 144.883 103.912 144.598 103.912 144.293V144.151C103.912 143.855 103.883 143.577 103.825 143.316C103.771 143.051 103.683 142.818 103.562 142.616C103.445 142.409 103.29 142.248 103.097 142.131C102.904 142.014 102.671 141.956 102.397 141.956C102.123 141.956 101.89 142.014 101.696 142.131C101.508 142.248 101.353 142.409 101.232 142.616C101.115 142.818 101.03 143.051 100.976 143.316C100.922 143.577 100.895 143.855 100.895 144.151ZM109.098 137.517V147.862H107.152V137.517H109.098ZM114.271 140.575V141.949H110.028V140.575H114.271ZM111.078 138.777H113.018V145.667C113.018 145.878 113.045 146.039 113.099 146.152C113.157 146.264 113.242 146.342 113.355 146.387C113.467 146.428 113.608 146.448 113.779 146.448C113.9 146.448 114.008 146.443 114.102 146.435C114.201 146.421 114.284 146.408 114.351 146.394L114.358 147.822C114.192 147.876 114.012 147.918 113.819 147.95C113.626 147.981 113.413 147.997 113.179 147.997C112.753 147.997 112.38 147.927 112.061 147.788C111.747 147.645 111.505 147.416 111.334 147.101C111.163 146.787 111.078 146.374 111.078 145.862V138.777ZM119.308 146.219V142.973C119.308 142.739 119.27 142.539 119.194 142.373C119.117 142.203 118.998 142.07 118.837 141.976C118.68 141.882 118.475 141.835 118.224 141.835C118.008 141.835 117.822 141.873 117.665 141.949C117.508 142.021 117.387 142.126 117.301 142.266C117.216 142.4 117.173 142.56 117.173 142.744H115.234C115.234 142.434 115.305 142.14 115.449 141.861C115.593 141.583 115.802 141.338 116.075 141.127C116.349 140.912 116.675 140.744 117.052 140.622C117.434 140.501 117.86 140.44 118.332 140.44C118.897 140.44 119.4 140.535 119.84 140.723C120.28 140.912 120.626 141.195 120.877 141.572C121.133 141.949 121.261 142.42 121.261 142.986V146.104C121.261 146.504 121.286 146.832 121.335 147.088C121.385 147.339 121.457 147.559 121.551 147.748V147.862H119.591C119.497 147.665 119.425 147.418 119.376 147.121C119.331 146.821 119.308 146.52 119.308 146.219ZM119.564 143.424L119.578 144.522H118.493C118.237 144.522 118.015 144.551 117.827 144.609C117.638 144.668 117.483 144.751 117.362 144.859C117.241 144.962 117.151 145.083 117.092 145.222C117.039 145.361 117.012 145.514 117.012 145.68C117.012 145.846 117.05 145.997 117.126 146.131C117.202 146.262 117.312 146.365 117.456 146.441C117.6 146.513 117.768 146.549 117.961 146.549C118.253 146.549 118.507 146.491 118.722 146.374C118.938 146.257 119.104 146.113 119.221 145.943C119.342 145.772 119.405 145.611 119.409 145.458L119.921 146.28C119.849 146.464 119.751 146.655 119.625 146.852C119.504 147.05 119.349 147.236 119.16 147.411C118.971 147.582 118.745 147.723 118.48 147.835C118.215 147.943 117.901 147.997 117.537 147.997C117.074 147.997 116.655 147.905 116.278 147.721C115.905 147.532 115.609 147.274 115.389 146.946C115.173 146.614 115.065 146.237 115.065 145.815C115.065 145.433 115.137 145.094 115.281 144.798C115.424 144.502 115.635 144.252 115.914 144.05C116.197 143.844 116.549 143.689 116.971 143.586C117.393 143.478 117.883 143.424 118.439 143.424H119.564ZM124.696 142.165V147.862H122.757V140.575H124.582L124.696 142.165ZM126.892 140.528L126.858 142.326C126.764 142.313 126.649 142.302 126.515 142.293C126.384 142.279 126.265 142.272 126.158 142.272C125.884 142.272 125.646 142.308 125.444 142.38C125.246 142.447 125.08 142.548 124.945 142.683C124.815 142.818 124.716 142.982 124.649 143.175C124.586 143.368 124.55 143.588 124.541 143.835L124.151 143.714C124.151 143.242 124.198 142.809 124.292 142.414C124.386 142.014 124.523 141.666 124.703 141.37C124.887 141.074 125.111 140.845 125.376 140.683C125.641 140.521 125.944 140.44 126.286 140.44C126.393 140.44 126.503 140.449 126.616 140.467C126.728 140.481 126.82 140.501 126.892 140.528Z" fill="white"/>
<path d="M195.931 20.8447L189.035 27.7413" stroke="#383838" stroke-width="1.37931" stroke-linecap="round" stroke-linejoin="round"/>
<path d="M189.035 20.8447L195.931 27.7413" stroke="#383838" stroke-width="1.37931" stroke-linecap="round" stroke-linejoin="round"/>
</g>
<defs>
<filter id="filter0_d_7121_41297" x="0" y="0.775391" width="216" height="194.448" filterUnits="userSpaceOnUse" color-interpolation-filters="sRGB">
<feFlood flood-opacity="0" result="BackgroundImageFix"/>
<feColorMatrix in="SourceAlpha" type="matrix" values="0 0 0 0 0 0 0 0 0 0 0 0 0 0 0 0 0 0 127 0" result="hardAlpha"/>
<feOffset/>
<feGaussianBlur stdDeviation="4"/>
<feComposite in2="hardAlpha" operator="out"/>
<feColorMatrix type="matrix" values="0 0 0 0 0 0 0 0 0 0 0 0 0 0 0 0 0 0 0.25 0"/>
<feBlend mode="normal" in2="BackgroundImageFix" result="effect1_dropShadow_7121_41297"/>
<feBlend mode="normal" in="SourceGraphic" in2="effect1_dropShadow_7121_41297" result="shape"/>
</filter>
</defs>
</svg>
